<?xml version="1.0" standalone="no"?><!DOCTYPE svg PUBLIC "-//W3C//DTD SVG 1.1//EN" "http://www.w3.org/Graphics/SVG/1.1/DTD/svg11.dtd"><svg t="1652482525418" class="icon" viewBox="0 0 1024 1024" version="1.1" xmlns="http://www.w3.org/2000/svg" p-id="1908" xmlns:xlink="http://www.w3.org/1999/xlink" width="128" height="128"><defs><style type="text/css">@font-face { font-family: "feedback-iconfont"; src: url("//at.alicdn.com/t/font_1031158_u69w8yhxdu.woff2?t=1630033759944") format("woff2"), url("//at.alicdn.com/t/font_1031158_u69w8yhxdu.woff?t=1630033759944") format("woff"), url("//at.alicdn.com/t/font_1031158_u69w8yhxdu.ttf?t=1630033759944") format("truetype"); }
</style></defs><path d="M741.3 512.3c-0.2-10.7-4.6-20.8-12.1-28.3L355.6 110.4c-16.2-16.2-42.5-16.2-58.7 0-16.2 16.2-16.2 42.5 0 58.7l344.2 344.2-197.3 197.3c-16.2 16.2-16.2 42.5 0 58.7 16.2 16.2 42.5 16.2 58.7 0l226.7-226.7c2.5-2.5 4.6-5.2 6.4-8.3 0.3-0.6 0.7-1.2 1-1.8 0.8-1.5 1.5-3 2.1-4.6 0.5-1.3 0.9-2.5 1.2-3.8 0.9-3.2 1.3-6.5 1.4-9.9v-1.9zM385.2 828c-16.2-16.2-42.5-16.2-58.7 0l-29.3 29.3c-16.2 16.2-16.2 42.5 0 58.7 16.2 16.2 42.5 16.2 58.7 0l29.3-29.3c16.2-16.2 16.2-42.5 0-58.7z" fill="#e6e6e6" p-id="1909"></path></svg>