<?xml version="1.0" standalone="no"?><!DOCTYPE svg PUBLIC "-//W3C//DTD SVG 1.1//EN" "http://www.w3.org/Graphics/SVG/1.1/DTD/svg11.dtd"><svg t="1655382579497" class="icon" viewBox="0 0 1024 1024" version="1.1" xmlns="http://www.w3.org/2000/svg" p-id="2966" xmlns:xlink="http://www.w3.org/1999/xlink" width="128" height="128"><defs><style type="text/css">@font-face { font-family: "feedback-iconfont"; src: url("//at.alicdn.com/t/font_1031158_u69w8yhxdu.woff2?t=1630033759944") format("woff2"), url("//at.alicdn.com/t/font_1031158_u69w8yhxdu.woff?t=1630033759944") format("woff"), url("//at.alicdn.com/t/font_1031158_u69w8yhxdu.ttf?t=1630033759944") format("truetype"); }
</style></defs><path d="M512 159.676m-96 0a48 48 0 1 0 192 0 48 48 0 1 0-192 0Z" p-id="2967" fill="#ffffff"></path><path d="M848 288 176 288c-26.51 0-48 21.49-48 48s21.49 48 48 48l196.902 0c11.158 2 26.394 7.674 34.432 28.504 9.302 24.112 4.74 67.212-1.078 103.454l-7.55 42.79c-0.038 0.208-0.078 0.414-0.116 0.622-0.004 0.016-0.004 0.024-0.008 0.04l-60.75 344.536c-4.606 26.106 12.828 51 38.934 55.606 26.11 4.602 50.666-12.832 55.268-38.942L474 680.696l0 0.334c0 0 12.5-65.03 36.904-65.03l2.192 0C538 616 550 681.03 550 681.03l0-0.166 41.966 239.826c4.602 26.11 29.326 43.498 55.436 38.896 26.106-4.606 43.456-29.524 38.85-55.628L625.46 559.406c-0.004-0.016-0.026-0.04-0.03-0.054-0.038-0.208-0.088-0.434-0.126-0.644l-7.554-42.828c-5.818-36.242-10.382-79.262-1.082-103.376C624.708 391.676 639.94 386 651.098 384L848 384c26.51 0 48-21.49 48-48S874.51 288 848 288z" p-id="2968" fill="#ffffff"></path></svg>