<?xml version="1.0" standalone="no"?><!DOCTYPE svg PUBLIC "-//W3C//DTD SVG 1.1//EN" "http://www.w3.org/Graphics/SVG/1.1/DTD/svg11.dtd"><svg t="1652359985728" class="icon" viewBox="0 0 1066 1024" version="1.1" xmlns="http://www.w3.org/2000/svg" p-id="10237" xmlns:xlink="http://www.w3.org/1999/xlink" width="133.25" height="128"><defs><style type="text/css">@font-face { font-family: "feedback-iconfont"; src: url("//at.alicdn.com/t/font_1031158_u69w8yhxdu.woff2?t=1630033759944") format("woff2"), url("//at.alicdn.com/t/font_1031158_u69w8yhxdu.woff?t=1630033759944") format("woff"), url("//at.alicdn.com/t/font_1031158_u69w8yhxdu.ttf?t=1630033759944") format("truetype"); }
</style></defs><path d="M435.2 585.813333a42.666667 42.666667 0 0 0-60.16-2.133333A477.013333 477.013333 0 0 0 213.333333 938.666667a42.666667 42.666667 0 1 0 85.333334 0 390.4 390.4 0 0 1 134.4-292.693334 42.666667 42.666667 0 0 0 2.133333-60.16z m433.92 197.973334a463.36 463.36 0 0 0-68.266667-128A610.56 610.56 0 0 0 642.56 512C738.133333 450.986667 896 315.733333 896 85.333333a42.666667 42.666667 0 0 0-85.333333 0c0 230.4-195.84 348.586667-256 379.306667A572.586667 572.586667 0 0 1 439.893333 384H554.666667a42.666667 42.666667 0 1 0 0-85.333333H364.8a400.64 400.64 0 0 1-42.666667-85.333334H682.666667a42.666667 42.666667 0 1 0 0-85.333333H301.226667A347.306667 347.306667 0 0 1 298.666667 85.333333a42.666667 42.666667 0 0 0-85.333334 0c0 322.986667 311.466667 460.373333 324.693334 465.92A551.68 551.68 0 0 1 669.866667 640H554.666667a42.666667 42.666667 0 1 0 0 85.333333h189.013333a386.986667 386.986667 0 0 1 42.666667 85.333334H426.666667a42.666667 42.666667 0 0 0 0 85.333333h381.44c1.706667 14.165333 2.56 28.416 2.56 42.666667a42.666667 42.666667 0 1 0 85.333333 0c0.170667-31.402667-2.986667-62.72-9.386667-93.44a393.813333 393.813333 0 0 0-17.493333-61.44z" fill="#ffffff" p-id="10238"></path></svg>