<?xml version="1.0" standalone="no"?><!DOCTYPE svg PUBLIC "-//W3C//DTD SVG 1.1//EN" "http://www.w3.org/Graphics/SVG/1.1/DTD/svg11.dtd"><svg t="1655334637850" class="icon" viewBox="0 0 1024 1024" version="1.1" xmlns="http://www.w3.org/2000/svg" p-id="7686" xmlns:xlink="http://www.w3.org/1999/xlink" width="128" height="128"><defs><style type="text/css">@font-face { font-family: "feedback-iconfont"; src: url("//at.alicdn.com/t/font_1031158_u69w8yhxdu.woff2?t=1630033759944") format("woff2"), url("//at.alicdn.com/t/font_1031158_u69w8yhxdu.woff?t=1630033759944") format("woff"), url("//at.alicdn.com/t/font_1031158_u69w8yhxdu.ttf?t=1630033759944") format("truetype"); }
</style></defs><path d="M170.666667 298.666667a42.666667 42.666667 0 1 1-85.333334 0V256a170.666667 170.666667 0 0 1 170.666667-170.666667h42.666667a42.666667 42.666667 0 1 1 0 85.333334H256a85.333333 85.333333 0 0 0-85.333333 85.333333v42.666667zM85.333333 725.333333a42.666667 42.666667 0 0 1 85.333334 0v42.666667a85.333333 85.333333 0 0 0 85.333333 85.333333h42.666667a42.666667 42.666667 0 0 1 0 85.333334H256a170.666667 170.666667 0 0 1-170.666667-170.666667v-42.666667zM938.666667 298.666667a42.666667 42.666667 0 0 1-85.333334 0V256a85.333333 85.333333 0 0 0-85.333333-85.333333h-42.666667a42.666667 42.666667 0 0 1 0-85.333334h42.666667a170.666667 170.666667 0 0 1 170.666667 170.666667v42.666667z m-85.333334 426.666666a42.666667 42.666667 0 0 1 85.333334 0v42.666667a170.666667 170.666667 0 0 1-170.666667 170.666667h-42.666667a42.666667 42.666667 0 0 1 0-85.333334h42.666667a85.333333 85.333333 0 0 0 85.333333-85.333333v-42.666667zM307.2 622.933333a42.666667 42.666667 0 1 1 68.266667-51.2c34.602667 46.165333 78.848 68.266667 136.533333 68.266667s101.930667-22.101333 136.533333-68.266667a42.666667 42.666667 0 0 1 68.266667 51.2C666.069333 690.56 596.522667 725.333333 512 725.333333c-84.522667 0-154.069333-34.773333-204.8-102.4zM341.333333 384a42.666667 42.666667 0 1 1 85.333334 0v42.666667a42.666667 42.666667 0 1 1-85.333334 0V384z m256 0a42.666667 42.666667 0 0 1 85.333334 0v42.666667a42.666667 42.666667 0 0 1-85.333334 0V384z" fill="#ffffff" p-id="7687"></path></svg>