<?xml version="1.0" standalone="no"?><!DOCTYPE svg PUBLIC "-//W3C//DTD SVG 1.1//EN" "http://www.w3.org/Graphics/SVG/1.1/DTD/svg11.dtd"><svg t="1654892619594" class="icon" viewBox="0 0 1024 1024" version="1.1" xmlns="http://www.w3.org/2000/svg" p-id="3537" xmlns:xlink="http://www.w3.org/1999/xlink" width="128" height="128"><defs><style type="text/css">@font-face { font-family: "feedback-iconfont"; src: url("//at.alicdn.com/t/font_1031158_u69w8yhxdu.woff2?t=1630033759944") format("woff2"), url("//at.alicdn.com/t/font_1031158_u69w8yhxdu.woff?t=1630033759944") format("woff"), url("//at.alicdn.com/t/font_1031158_u69w8yhxdu.ttf?t=1630033759944") format("truetype"); }
</style></defs><path d="M58.08783 164.203723a17.025669 17.025669 0 0 0 17.025669-17.025669v-68.102676A47.671873 47.671873 0 0 1 125.849993 34.127613h61.973434a17.025669 17.025669 0 0 0 17.025669-17.025669 17.025669 17.025669 0 0 0-17.025669-17.025669H125.849993A81.382697 81.382697 0 0 0 41.062162 77.713325v68.102675a17.025669 17.025669 0 0 0 17.025668 18.387723zM187.823427 684.508163a17.025669 17.025669 0 0 0 17.025669-17.025669 17.025669 17.025669 0 0 0-17.025669-17.025669H125.849993A47.671873 47.671873 0 0 1 75.113499 606.871113v-69.805242a17.025669 17.025669 0 0 0-34.051337 0v69.805242a81.723211 81.723211 0 0 0 84.787831 77.63705zM898.134332 0.076275h-62.313948a17.025669 17.025669 0 0 0 0 34.051338h62.313948a47.671873 47.671873 0 0 1 50.736493 43.585712v68.102675a17.025669 17.025669 0 0 0 17.025669 17.025669 17.366182 17.366182 0 0 0 17.025669-17.025669v-68.102675A81.382697 81.382697 0 0 0 898.134332 0.076275zM965.896494 520.040202a17.025669 17.025669 0 0 0-17.025669 17.025669v69.805242a47.671873 47.671873 0 0 1-50.736493 43.585712h-62.313948a17.025669 17.025669 0 0 0-17.025669 17.025669 17.366182 17.366182 0 0 0 17.025669 17.025669h62.313948a81.723211 81.723211 0 0 0 84.787831-77.63705v-69.805242a17.366182 17.366182 0 0 0-17.025669-17.025669z" p-id="3538" fill="#ffffff"></path><path d="M615.508229 605.50906a265.940948 265.940948 0 0 0 161.403341-227.462936h143.696645a17.366182 17.366182 0 0 0 17.025669-17.025669 17.025669 17.025669 0 0 0-17.025669-17.025669h-143.696645a265.600434 265.600434 0 0 0-529.838815 0H103.37611a17.025669 17.025669 0 0 0-17.025669 17.025669 17.025669 17.025669 0 0 0 17.025669 17.025669h143.696645a265.259921 265.259921 0 0 0 161.403341 227.462936 431.770962 431.770962 0 0 0-328.254896 418.49094h34.051338a397.719624 397.719624 0 0 1 795.439249 0h34.051337a432.111476 432.111476 0 0 0-328.254895-418.49094z m-102.154013-476.718728a232.230123 232.230123 0 0 1 230.868069 214.863941H281.124092a231.88961 231.88961 0 0 1 230.86807-214.523428zM281.124092 378.046124h461.73614a231.549096 231.549096 0 0 1-461.73614 0z" p-id="3539" fill="#ffffff"></path></svg>