<?xml version="1.0" standalone="no"?><!DOCTYPE svg PUBLIC "-//W3C//DTD SVG 1.1//EN" "http://www.w3.org/Graphics/SVG/1.1/DTD/svg11.dtd"><svg t="1653854462710" class="icon" viewBox="0 0 1024 1024" version="1.1" xmlns="http://www.w3.org/2000/svg" p-id="3328" xmlns:xlink="http://www.w3.org/1999/xlink" width="128" height="128"><defs><style type="text/css">@font-face { font-family: "feedback-iconfont"; src: url("//at.alicdn.com/t/font_1031158_u69w8yhxdu.woff2?t=1630033759944") format("woff2"), url("//at.alicdn.com/t/font_1031158_u69w8yhxdu.woff?t=1630033759944") format("woff"), url("//at.alicdn.com/t/font_1031158_u69w8yhxdu.ttf?t=1630033759944") format("truetype"); }
</style></defs><path d="M125.614907 1024a45.430346 45.430346 0 0 1-45.430346-45.430346V136.291038A136.291038 136.291038 0 0 1 148.33008 18.626442a136.291038 136.291038 0 0 1 136.291038 0l590.594499 342.090506a136.291038 136.291038 0 0 1 0 235.783496l-545.164153 318.012422a45.430346 45.430346 0 0 1-45.430346-78.594499l545.164153-318.012422a45.430346 45.430346 0 0 0 0-78.594499l-590.594499-342.090505A45.430346 45.430346 0 0 0 171.045253 136.291038v842.278616a45.430346 45.430346 0 0 1-45.430346 45.430346z" fill="#ffffff" p-id="3329"></path></svg>