<?xml version="1.0" standalone="no"?><!DOCTYPE svg PUBLIC "-//W3C//DTD SVG 1.1//EN" "http://www.w3.org/Graphics/SVG/1.1/DTD/svg11.dtd"><svg t="1655389063199" class="icon" viewBox="0 0 1024 1024" version="1.1" xmlns="http://www.w3.org/2000/svg" p-id="1949" xmlns:xlink="http://www.w3.org/1999/xlink" width="128" height="128"><defs><style type="text/css">@font-face { font-family: "feedback-iconfont"; src: url("//at.alicdn.com/t/font_1031158_u69w8yhxdu.woff2?t=1630033759944") format("woff2"), url("//at.alicdn.com/t/font_1031158_u69w8yhxdu.woff?t=1630033759944") format("woff"), url("//at.alicdn.com/t/font_1031158_u69w8yhxdu.ttf?t=1630033759944") format("truetype"); }
</style></defs><path d="M213.333333 106.666667h149.333334a106.666667 106.666667 0 0 1 106.666666 106.666666v149.333334a106.666667 106.666667 0 0 1-106.666666 106.666666h-149.333334a106.666667 106.666667 0 0 1-106.666666-106.666666v-149.333334a106.666667 106.666667 0 0 1 106.666666-106.666666z m0 64a42.666667 42.666667 0 0 0-42.666666 42.666666v149.333334a42.666667 42.666667 0 0 0 42.666666 42.666666h149.333334a42.666667 42.666667 0 0 0 42.666666-42.666666v-149.333334a42.666667 42.666667 0 0 0-42.666666-42.666666h-149.333334z m0 384h149.333334a106.666667 106.666667 0 0 1 106.666666 106.666666v149.333334a106.666667 106.666667 0 0 1-106.666666 106.666666h-149.333334a106.666667 106.666667 0 0 1-106.666666-106.666666v-149.333334a106.666667 106.666667 0 0 1 106.666666-106.666666z m0 64a42.666667 42.666667 0 0 0-42.666666 42.666666v149.333334a42.666667 42.666667 0 0 0 42.666666 42.666666h149.333334a42.666667 42.666667 0 0 0 42.666666-42.666666v-149.333334a42.666667 42.666667 0 0 0-42.666666-42.666666h-149.333334zM661.333333 106.666667h149.333334a106.666667 106.666667 0 0 1 106.666666 106.666666v149.333334a106.666667 106.666667 0 0 1-106.666666 106.666666h-149.333334a106.666667 106.666667 0 0 1-106.666666-106.666666v-149.333334a106.666667 106.666667 0 0 1 106.666666-106.666666z m0 64a42.666667 42.666667 0 0 0-42.666666 42.666666v149.333334a42.666667 42.666667 0 0 0 42.666666 42.666666h149.333334a42.666667 42.666667 0 0 0 42.666666-42.666666v-149.333334a42.666667 42.666667 0 0 0-42.666666-42.666666h-149.333334z m-106.666666 416a32 32 0 0 1 64 0v300.8a32 32 0 0 1-64 0V586.666667z m128 277.333333a32 32 0 0 1 64 0v21.333333a32 32 0 0 1-64 0v-21.333333z m170.666666 0a32 32 0 0 1 64 0v21.333333a32 32 0 0 1-64 0v-21.333333z m-106.666666-106.666667a32 32 0 0 1-64 0v-106.666666a96 96 0 0 1 96-96h42.666666a96 96 0 0 1 96 96v106.666666a32 32 0 0 1-64 0v-106.666666a32 32 0 0 0-32-32h-42.666666a32 32 0 0 0-32 32v106.666666zM277.333333 234.666667h21.333334a42.666667 42.666667 0 0 1 42.666666 42.666666v21.333334a42.666667 42.666667 0 0 1-42.666666 42.666666h-21.333334a42.666667 42.666667 0 0 1-42.666666-42.666666v-21.333334a42.666667 42.666667 0 0 1 42.666666-42.666666z m0 448h21.333334a42.666667 42.666667 0 0 1 42.666666 42.666666v21.333334a42.666667 42.666667 0 0 1-42.666666 42.666666h-21.333334a42.666667 42.666667 0 0 1-42.666666-42.666666v-21.333334a42.666667 42.666667 0 0 1 42.666666-42.666666z m448-448h21.333334a42.666667 42.666667 0 0 1 42.666666 42.666666v21.333334a42.666667 42.666667 0 0 1-42.666666 42.666666h-21.333334a42.666667 42.666667 0 0 1-42.666666-42.666666v-21.333334a42.666667 42.666667 0 0 1 42.666666-42.666666z" fill="#ffffff" p-id="1950"></path></svg>