<?xml version="1.0" standalone="no"?><!DOCTYPE svg PUBLIC "-//W3C//DTD SVG 1.1//EN" "http://www.w3.org/Graphics/SVG/1.1/DTD/svg11.dtd"><svg t="1653850508653" class="icon" viewBox="0 0 1024 1024" version="1.1" xmlns="http://www.w3.org/2000/svg" p-id="2259" xmlns:xlink="http://www.w3.org/1999/xlink" width="128" height="128"><defs><style type="text/css">@font-face { font-family: "feedback-iconfont"; src: url("//at.alicdn.com/t/font_1031158_u69w8yhxdu.woff2?t=1630033759944") format("woff2"), url("//at.alicdn.com/t/font_1031158_u69w8yhxdu.woff?t=1630033759944") format("woff"), url("//at.alicdn.com/t/font_1031158_u69w8yhxdu.ttf?t=1630033759944") format("truetype"); }
</style></defs><path d="M426.666667 458.197333V810.666667a128 128 0 1 1-85.333334-120.746667V256a42.666667 42.666667 0 0 1 30.421334-40.874667l426.666666-128A42.666667 42.666667 0 0 1 853.333333 128v554.666667a128 128 0 1 1-85.333333-120.746667V185.386667l-341.333333 102.4v81.152l222.122666-68.352a42.666667 42.666667 0 1 1 25.088 81.578666L426.666667 458.197333zM298.666667 853.333333a42.666667 42.666667 0 1 0 0-85.333333 42.666667 42.666667 0 0 0 0 85.333333z m426.666666-128a42.666667 42.666667 0 1 0 0-85.333333 42.666667 42.666667 0 0 0 0 85.333333z" p-id="2260" fill="#ffffff"></path></svg>