<?xml version="1.0" standalone="no"?><!DOCTYPE svg PUBLIC "-//W3C//DTD SVG 1.1//EN" "http://www.w3.org/Graphics/SVG/1.1/DTD/svg11.dtd"><svg t="1655474288927" class="icon" viewBox="0 0 1024 1024" version="1.1" xmlns="http://www.w3.org/2000/svg" p-id="4354" xmlns:xlink="http://www.w3.org/1999/xlink" width="128" height="128"><defs><style type="text/css">@font-face { font-family: "feedback-iconfont"; src: url("//at.alicdn.com/t/font_1031158_u69w8yhxdu.woff2?t=1630033759944") format("woff2"), url("//at.alicdn.com/t/font_1031158_u69w8yhxdu.woff?t=1630033759944") format("woff"), url("//at.alicdn.com/t/font_1031158_u69w8yhxdu.ttf?t=1630033759944") format("truetype"); }
</style></defs><path d="M610.912 543.968c-18.304 0-35.168 9.984-43.904 26.048l-103.36 190.048c-8.096 14.88-8.096 32.832 0 47.712l103.36 190.048c8.736 16.064 25.6 26.08 43.904 26.08l201.6 0c18.304 0 35.168-10.048 43.904-26.08l103.392-190.016c8.096-14.912 8.096-32.864 0-47.776l-103.392-190.048c-8.736-16.064-25.6-26.048-43.904-26.048L610.912 543.936zM802.944 907.744c-7.2 12.512-20.544 20.224-34.944 20.224l-112.544 0c-14.4 0-27.744-7.712-34.944-20.192l-59.776-103.648c-7.232-12.512-7.232-27.84 0-40.352l59.776-103.648c7.2-12.48 20.544-20.16 34.944-20.16L768 639.968c14.4 0 27.744 7.68 34.944 20.192l59.776 103.648c7.2 12.48 7.2 27.808 0 40.288L802.944 907.744z" p-id="4355" fill="#ffffff"></path><path d="M425.28 282.048c-8.736-16.064-25.6-26.08-43.904-26.08L179.712 255.968c-18.304 0-35.168 9.984-43.904 26.08l-103.36 190.048c-8.096 14.88-8.096 32.832 0 47.712l103.36 190.048c8.736 16.064 25.6 26.08 43.904 26.08l201.664 0c18.304 0 35.168-10.048 43.904-26.08l103.36-190.048c8.096-14.88 8.096-32.832 0-47.712L425.28 282.048z" p-id="4356" fill="#ffffff"></path><path d="M812.512 479.968c18.304 0 35.168-10.016 43.904-26.08l103.392-190.048c8.096-14.912 8.096-32.864 0-47.776l-103.392-190.016c-8.736-16.064-25.6-26.048-43.904-26.048l-201.6 0c-18.304 0-35.168 9.984-43.904 26.048l-103.36 190.048c-8.096 14.88-8.096 32.832 0 47.712l103.36 190.08c8.736 16.064 25.6 26.08 43.904 26.08L812.512 479.968z" p-id="4357" fill="#ffffff"></path></svg>