<?xml version="1.0" standalone="no"?><!DOCTYPE svg PUBLIC "-//W3C//DTD SVG 1.1//EN" "http://www.w3.org/Graphics/SVG/1.1/DTD/svg11.dtd"><svg t="1652359916684" class="icon" viewBox="0 0 1291 1024" version="1.1" xmlns="http://www.w3.org/2000/svg" p-id="6641" xmlns:xlink="http://www.w3.org/1999/xlink" width="161.375" height="128"><defs><style type="text/css">@font-face { font-family: "feedback-iconfont"; src: url("//at.alicdn.com/t/font_1031158_u69w8yhxdu.woff2?t=1630033759944") format("woff2"), url("//at.alicdn.com/t/font_1031158_u69w8yhxdu.woff?t=1630033759944") format("woff"), url("//at.alicdn.com/t/font_1031158_u69w8yhxdu.ttf?t=1630033759944") format("truetype"); }
</style></defs><path d="M424.733005 12.106404c94.329064 0 170.498522 76.169458 170.498522 170.498522S519.062069 353.103448 424.733005 353.103448 254.234483 276.93399 254.234483 182.604926 330.403941 12.106404 424.733005 12.106404z m363.696552 604.31133l-109.966503 317.793103H446.928079v-19.672906c0-32.788177-26.734975-59.523153-59.523153-59.523153H168.985222v-218.419704c0-11.097537 9.079803-19.672906 19.672906-19.672907s19.672906 9.079803 19.672906 19.672907v178.569458h178.569459c47.921182 0 88.275862 34.301478 97.355665 79.700493h165.454187l89.284729-259.278818c-22.195074-45.903448-44.894581-92.31133-62.04532-123.081774-33.797044-72.638424-107.948768-123.081773-193.19803-123.081773H222.959606C105.426601 388.918227 10.08867 484.760591 10.08867 601.789163v320.819704c0 49.434483 39.850246 89.284729 89.284729 89.284729H1145.064039l18.159606-51.95665 118.037439-343.519212h-492.831527z m208.331034 231.534975c-21.69064 0-39.345813-11.097537-39.345813-25.221675s17.655172-25.221675 39.345813-25.221674 39.345813 11.097537 39.345813 25.221674c0 13.619704-17.655172 25.221675-39.345813 25.221675z" p-id="6642" fill="#ffffff"></path></svg>