<?xml version="1.0" encoding="UTF-8" standalone="no"?>
<!-- Created with Inkscape (http://www.inkscape.org/) -->

<svg
   version="1.1"
   id="svg1"
   width="320.56537"
   height="280.16891"
   viewBox="0 0 320.56537 280.1689"
   sodipodi:docname="NUMPDE.pdf"
   inkscape:export-filename="README.assets\essential_boundary.svg"
   inkscape:export-xdpi="96"
   inkscape:export-ydpi="96"
   xmlns:inkscape="http://www.inkscape.org/namespaces/inkscape"
   xmlns:sodipodi="http://sodipodi.sourceforge.net/DTD/sodipodi-0.dtd"
   xmlns="http://www.w3.org/2000/svg"
   xmlns:svg="http://www.w3.org/2000/svg">
  <defs
     id="defs1">
    <clipPath
       clipPathUnits="userSpaceOnUse"
       id="clipPath81">
      <path
         d="m 488.969,3478.36 h 2423 v 2128.03 h -2423 z"
         transform="translate(0,2.5000001e-4)"
         id="path81" />
    </clipPath>
    <clipPath
       clipPathUnits="userSpaceOnUse"
       id="clipPath83">
      <path
         d="m 488.969,3478.36 h 2423 v 2128.03 h -2423 z"
         transform="translate(0,2.5000001e-4)"
         id="path83" />
    </clipPath>
    <clipPath
       clipPathUnits="userSpaceOnUse"
       id="clipPath85">
      <path
         d="m 488.969,3478.36 h 2423 v 2128.03 h -2423 z"
         transform="translate(0,2.5000001e-4)"
         id="path85" />
    </clipPath>
    <clipPath
       clipPathUnits="userSpaceOnUse"
       id="clipPath87">
      <path
         d="m 488.969,3478.36 h 2423 v 2128.03 h -2423 z"
         transform="translate(0,2.5000001e-4)"
         id="path87" />
    </clipPath>
    <clipPath
       clipPathUnits="userSpaceOnUse"
       id="clipPath89">
      <path
         d="m 488.969,3478.36 h 2423 v 2128.03 h -2423 z"
         transform="translate(0,2.5000001e-4)"
         id="path89" />
    </clipPath>
    <clipPath
       clipPathUnits="userSpaceOnUse"
       id="clipPath91">
      <path
         d="m 488.969,3478.36 h 2423 v 2128.03 h -2423 z"
         transform="translate(0,2.5000001e-4)"
         id="path91" />
    </clipPath>
    <clipPath
       clipPathUnits="userSpaceOnUse"
       id="clipPath93">
      <path
         d="m 488.969,3478.36 h 2423 v 2128.03 h -2423 z"
         transform="translate(0,2.5000001e-4)"
         id="path93" />
    </clipPath>
    <clipPath
       clipPathUnits="userSpaceOnUse"
       id="clipPath95">
      <path
         d="m 488.969,3478.36 h 2423 v 2128.03 h -2423 z"
         transform="translate(0,2.5000001e-4)"
         id="path95" />
    </clipPath>
    <clipPath
       clipPathUnits="userSpaceOnUse"
       id="clipPath97">
      <path
         d="m 488.969,3478.36 h 2423 v 2128.03 h -2423 z"
         transform="translate(0,2.5000001e-4)"
         id="path97" />
    </clipPath>
    <clipPath
       clipPathUnits="userSpaceOnUse"
       id="clipPath99">
      <path
         d="m 488.969,3478.36 h 2423 v 2128.03 h -2423 z"
         transform="translate(0,2.5000001e-4)"
         id="path99" />
    </clipPath>
    <clipPath
       clipPathUnits="userSpaceOnUse"
       id="clipPath101">
      <path
         d="m 488.969,3478.36 h 2423 v 2128.03 h -2423 z"
         transform="translate(0,2.5000001e-4)"
         id="path101" />
    </clipPath>
    <clipPath
       clipPathUnits="userSpaceOnUse"
       id="clipPath103">
      <path
         d="m 488.969,3478.36 h 2423 v 2128.03 h -2423 z"
         transform="translate(0,2.5000001e-4)"
         id="path103" />
    </clipPath>
    <clipPath
       clipPathUnits="userSpaceOnUse"
       id="clipPath105">
      <path
         d="m 488.969,3478.36 h 2423 v 2128.03 h -2423 z"
         transform="translate(0,2.5000001e-4)"
         id="path105" />
    </clipPath>
    <clipPath
       clipPathUnits="userSpaceOnUse"
       id="clipPath107">
      <path
         d="m 488.969,3478.36 h 2423 v 2128.03 h -2423 z"
         transform="translate(0,2.5000001e-4)"
         id="path107" />
    </clipPath>
    <clipPath
       clipPathUnits="userSpaceOnUse"
       id="clipPath109">
      <path
         d="m 488.969,3478.36 h 2423 v 2128.03 h -2423 z"
         transform="translate(0,2.5000001e-4)"
         id="path109" />
    </clipPath>
    <clipPath
       clipPathUnits="userSpaceOnUse"
       id="clipPath111">
      <path
         d="m 488.969,3478.36 h 2423 v 2128.03 h -2423 z"
         transform="translate(0,2.5000001e-4)"
         id="path111" />
    </clipPath>
    <clipPath
       clipPathUnits="userSpaceOnUse"
       id="clipPath113">
      <path
         d="m 488.969,3478.36 h 2423 v 2128.03 h -2423 z"
         transform="translate(0,2.5000001e-4)"
         id="path113" />
    </clipPath>
    <clipPath
       clipPathUnits="userSpaceOnUse"
       id="clipPath115">
      <path
         d="m 488.969,3478.36 h 2423 v 2128.03 h -2423 z"
         transform="translate(0,2.5000001e-4)"
         id="path115" />
    </clipPath>
    <clipPath
       clipPathUnits="userSpaceOnUse"
       id="clipPath117">
      <path
         d="m 488.969,3478.36 h 2423 v 2128.03 h -2423 z"
         transform="translate(0,2.5000001e-4)"
         id="path117" />
    </clipPath>
  </defs>
  <sodipodi:namedview
     id="namedview1"
     pagecolor="#505050"
     bordercolor="#eeeeee"
     borderopacity="1"
     inkscape:showpageshadow="0"
     inkscape:pageopacity="0"
     inkscape:pagecheckerboard="0"
     inkscape:deskcolor="#505050" />
  <g
     id="g1"
     inkscape:groupmode="layer"
     inkscape:label="249"
     transform="translate(-66.245194,-377.47966)">
    <path
       id="path80"
       d="m 1936.49,3970.98 -298.61,-59.72 -209.03,-59.72 -179.17,238.89 -149.3,447.92 -328.482,59.72 238.892,149.31 268.75,179.17 418.06,59.72 119.45,238.89 L 1697.6,5583.5 503.148,4687.66 1100.38,3493.2 l 1642.37,298.62 -746.54,447.91"
       style="fill:#ffd600;fill-opacity:1;fill-rule:evenodd;stroke:#a8cbfe"
       transform="matrix(0.13333333,0,0,-0.13333333,0,1122.6667)"
       clip-path="url(#clipPath81)" />
    <path
       id="path82"
       d="m 1697.6,5583.5 119.45,-358.34 328.47,-209.03 -59.72,-328.47 -209.03,-268.76 -119.45,-209.02 179.17,-238.9 59.72,268.75 895.85,1045.15 -1194.46,298.62"
       style="fill:#ffd600;fill-opacity:1;fill-rule:evenodd;stroke:#a8cbfe"
       transform="matrix(0.13333333,0,0,-0.13333333,0,1122.6667)"
       clip-path="url(#clipPath83)" />
    <path
       id="path84"
       d="M 1697.6,5583.5 503.148,4687.66 1100.38,3493.2 l 1642.37,298.62 -746.54,447.91 895.85,1045.15 z"
       style="fill:none;stroke:#a8cbfe;stroke-width:9.95379;stroke-linecap:butt;stroke-linejoin:miter;stroke-miterlimit:10;stroke-dasharray:none;stroke-opacity:1"
       transform="matrix(0.13333333,0,0,-0.13333333,0,1122.6667)"
       clip-path="url(#clipPath85)" />
    <path
       id="path86"
       d="m 1697.6,5583.5 119.45,-358.34 298.61,268.75 29.86,-477.78 418.06,358.34 v -477.78"
       style="fill:none;stroke:#a8cbfe;stroke-width:4.97689;stroke-linecap:butt;stroke-linejoin:miter;stroke-miterlimit:10;stroke-dasharray:none;stroke-opacity:1"
       transform="matrix(0.13333333,0,0,-0.13333333,0,1122.6667)"
       clip-path="url(#clipPath87)" />
    <path
       id="path88"
       d="m 2563.58,4896.69 -418.06,119.44 -328.47,209.03 -388.2,149.31 268.75,-388.2 119.45,238.89 89.58,-298.61 238.89,89.58 -59.72,-328.47 447.92,209.03"
       style="fill:none;stroke:#a8cbfe;stroke-width:4.97689;stroke-linecap:butt;stroke-linejoin:miter;stroke-miterlimit:10;stroke-dasharray:none;stroke-opacity:1"
       transform="matrix(0.13333333,0,0,-0.13333333,0,1122.6667)"
       clip-path="url(#clipPath89)" />
    <path
       id="path90"
       d="m 2294.83,4598.07 -209.03,89.59 -179.17,238.89 -209.03,59.72 -507.64,209.03 89.58,-268.75 -328.474,119.44 59.724,-298.61 -268.751,119.44 29.859,-268.75 -268.75,89.59"
       style="fill:none;stroke:#a8cbfe;stroke-width:4.97689;stroke-linecap:butt;stroke-linejoin:miter;stroke-miterlimit:10;stroke-dasharray:none;stroke-opacity:1"
       transform="matrix(0.13333333,0,0,-0.13333333,0,1122.6667)"
       clip-path="url(#clipPath91)" />
    <path
       id="path92"
       d="m 622.594,4418.9 149.304,179.17 238.892,149.31 268.75,179.17 418.06,59.72"
       style="fill:none;stroke:#a8cbfe;stroke-width:4.97689;stroke-linecap:butt;stroke-linejoin:miter;stroke-miterlimit:10;stroke-dasharray:none;stroke-opacity:1"
       transform="matrix(0.13333333,0,0,-0.13333333,0,1122.6667)"
       clip-path="url(#clipPath93)" />
    <path
       id="path94"
       d="m 1458.71,4807.1 -179.17,119.45 v -268.76 l -268.75,89.59 89.59,-209.03 -328.482,59.72 -29.859,-388.19 358.341,328.47"
       style="fill:none;stroke:#a8cbfe;stroke-width:4.97689;stroke-linecap:butt;stroke-linejoin:miter;stroke-miterlimit:10;stroke-dasharray:none;stroke-opacity:1"
       transform="matrix(0.13333333,0,0,-0.13333333,0,1122.6667)"
       clip-path="url(#clipPath95)" />
    <path
       id="path96"
       d="m 1100.38,4538.35 -268.759,-537.51 418.059,89.59 -268.75,-358.34 447.92,119.45 -328.47,-358.34"
       style="fill:none;stroke:#a8cbfe;stroke-width:4.97689;stroke-linecap:butt;stroke-linejoin:miter;stroke-miterlimit:10;stroke-dasharray:none;stroke-opacity:1"
       transform="matrix(0.13333333,0,0,-0.13333333,0,1122.6667)"
       clip-path="url(#clipPath97)" />
    <path
       id="path98"
       d="m 1428.85,3851.54 59.72,-298.61 149.31,358.33 149.31,-298.61 149.3,358.33 268.76,-268.75 238.89,268.75"
       style="fill:none;stroke:#a8cbfe;stroke-width:4.97689;stroke-linecap:butt;stroke-linejoin:miter;stroke-miterlimit:10;stroke-dasharray:none;stroke-opacity:1"
       transform="matrix(0.13333333,0,0,-0.13333333,0,1122.6667)"
       clip-path="url(#clipPath99)" />
    <path
       id="path100"
       d="m 2444.14,3970.98 h -507.65 l -298.61,-59.72 -209.03,-59.72 -179.17,238.89"
       style="fill:none;stroke:#a8cbfe;stroke-width:4.97689;stroke-linecap:butt;stroke-linejoin:miter;stroke-miterlimit:10;stroke-dasharray:none;stroke-opacity:1"
       transform="matrix(0.13333333,0,0,-0.13333333,0,1122.6667)"
       clip-path="url(#clipPath101)" />
    <path
       id="path102"
       d="m 1428.85,3851.54 149.31,298.61 59.72,-238.89 119.44,298.62 179.17,-238.9 59.72,268.75"
       style="fill:none;stroke:#a8cbfe;stroke-width:4.97689;stroke-linecap:butt;stroke-linejoin:miter;stroke-miterlimit:10;stroke-dasharray:none;stroke-opacity:1"
       transform="matrix(0.13333333,0,0,-0.13333333,0,1122.6667)"
       clip-path="url(#clipPath103)" />
    <path
       id="path104"
       d="m 1996.21,4239.73 -238.89,-29.85 -179.16,-59.73 -328.48,-59.72"
       style="fill:none;stroke:#a8cbfe;stroke-width:4.97689;stroke-linecap:butt;stroke-linejoin:miter;stroke-miterlimit:10;stroke-dasharray:none;stroke-opacity:1"
       transform="matrix(0.13333333,0,0,-0.13333333,0,1122.6667)"
       clip-path="url(#clipPath105)" />
    <path
       id="path106"
       d="m 1578.16,4150.15 -59.73,209.03 238.89,-149.3 -89.58,298.61 209.03,-89.59 -29.86,268.76 59.72,238.89"
       style="fill:none;stroke:#a8cbfe;stroke-width:4.97689;stroke-linecap:butt;stroke-linejoin:miter;stroke-miterlimit:10;stroke-dasharray:none;stroke-opacity:1"
       transform="matrix(0.13333333,0,0,-0.13333333,0,1122.6667)"
       clip-path="url(#clipPath107)" />
    <path
       id="path108"
       d="M 1846.91,4687.66 H 2085.8 L 1876.77,4418.9 1757.32,4209.88"
       style="fill:none;stroke:#a8cbfe;stroke-width:4.97689;stroke-linecap:butt;stroke-linejoin:miter;stroke-miterlimit:10;stroke-dasharray:none;stroke-opacity:1"
       transform="matrix(0.13333333,0,0,-0.13333333,0,1122.6667)"
       clip-path="url(#clipPath109)" />
    <path
       id="path110"
       d="m 1876.77,4418.9 119.44,-179.17 89.59,447.93"
       style="fill:none;stroke:#a8cbfe;stroke-width:4.97689;stroke-linecap:butt;stroke-linejoin:miter;stroke-miterlimit:10;stroke-dasharray:none;stroke-opacity:1"
       transform="matrix(0.13333333,0,0,-0.13333333,0,1122.6667)"
       clip-path="url(#clipPath111)" />
    <path
       id="path112"
       d="m 1697.6,4986.27 -597.22,-447.92 149.3,-447.92 597.23,597.23 z"
       style="fill:none;stroke:#a8cbfe;stroke-width:4.97689;stroke-linecap:butt;stroke-linejoin:miter;stroke-miterlimit:10;stroke-dasharray:none;stroke-opacity:1"
       transform="matrix(0.13333333,0,0,-0.13333333,0,1122.6667)"
       clip-path="url(#clipPath113)" />
    <path
       id="path114"
       d="m 1279.54,4657.79 -29.86,-567.36"
       style="fill:none;stroke:#a8cbfe;stroke-width:4.97689;stroke-linecap:butt;stroke-linejoin:miter;stroke-miterlimit:10;stroke-dasharray:none;stroke-opacity:1"
       transform="matrix(0.13333333,0,0,-0.13333333,0,1122.6667)"
       clip-path="url(#clipPath115)" />
    <path
       id="path116"
       d="m 1279.54,4657.79 238.89,-298.61 -59.72,447.92 209.03,-298.61 29.86,477.78"
       style="fill:none;stroke:#a8cbfe;stroke-width:4.97689;stroke-linecap:butt;stroke-linejoin:miter;stroke-miterlimit:10;stroke-dasharray:none;stroke-opacity:1"
       transform="matrix(0.13333333,0,0,-0.13333333,0,1122.6667)"
       clip-path="url(#clipPath117)" />
    <path
       id="path118"
       d="m 0.40885156,-1.8853828 c 0.0703125,0.515625 0.0820313,1.33593749 0.0820313,1.92187499 0.24609375,0 0.96093744,-0.03515625 1.41796874,-0.03515625 0.2812501,0 1.1718751,0 1.4296876,0.03515625 h 0.2578125 v -0.46875 C 3.4908828,-0.53772656 3.3151017,-0.58460156 3.1393203,-0.70178906 3.0690083,-0.74866406 2.9635391,-0.86585156 2.8463516,-1.0533516 2.5182267,-1.5338203 1.8971328,-2.9049141 1.8971328,-4.0064766 c 0,-2.5429687 0.9609375,-3.9609375 3.0703125,-3.9609375 2.1210939,0 3.0585939,1.4296875 3.0585939,3.9609375 0,1.1015625 -0.6210938,2.4726563 -0.9375,2.953125 -0.1171875,0.18750004 -0.234375,0.30468754 -0.3046875,0.35156254 -0.1757813,0.1171875 -0.3398438,0.1640625 -0.4453125,0.26953125 v 0.46875 H 6.5963516 C 6.8424453,0.00133594 7.7447891,0.00133594 8.0143203,0.00133594 c 0.4570313,0 1.171875,0.03515625 1.4296875,0.03515625 0,-0.5859375 0.011719,-1.40624999 0.082031,-1.92187499 h -0.316406 l -0.082031,0.6210937 c -0.046875,0.33984379 -0.1992188,0.44531254 -0.421875,0.44531254 H 7.3229141 C 8.0846328,-1.4517891 9.3151016,-2.8580391 9.3151016,-4.4283516 c 0,-2.4726562 -1.6523438,-4.0429687 -4.3476563,-4.0429687 -2.6835937,0 -4.34765624,1.5585937 -4.34765624,4.0429687 0,1.5703125 1.23046874,2.9765625 1.98046874,3.60937504 H 1.2291641 c -0.2226563,0 -0.38671879,-0.10546875 -0.43359379,-0.44531254 l -0.0820313,-0.6210937 z m 0,0"
       style="fill:#a8cbfe;fill-opacity:1;fill-rule:nonzero;stroke:#a8cbfe"
       aria-label="Ω"
       transform="matrix(1.3333333,0,0,1.3333333,314.68533,545.424)" />
  </g>
</svg>
