<?xml version="1.0" encoding="UTF-8" standalone="no"?>
<!-- Created with Inkscape (http://www.inkscape.org/) -->

<svg
   width="144.00388mm"
   height="94.771996mm"
   viewBox="0 0 144.00388 94.771995"
   version="1.1"
   id="svg1"
   xml:space="preserve"
   inkscape:export-filename="galerkin_assemble_edges.svg"
   inkscape:export-xdpi="34.204269"
   inkscape:export-ydpi="34.204269"
   xmlns:inkscape="http://www.inkscape.org/namespaces/inkscape"
   xmlns:sodipodi="http://sodipodi.sourceforge.net/DTD/sodipodi-0.dtd"
   xmlns="http://www.w3.org/2000/svg"
   xmlns:svg="http://www.w3.org/2000/svg"><sodipodi:namedview
     id="namedview1"
     pagecolor="#505050"
     bordercolor="#eeeeee"
     borderopacity="1"
     inkscape:showpageshadow="0"
     inkscape:pageopacity="0"
     inkscape:pagecheckerboard="0"
     inkscape:deskcolor="#505050"
     inkscape:document-units="mm"><inkscape:page
       x="-2.2495799e-06"
       y="-5.015414e-06"
       width="144.00388"
       height="94.771996"
       id="page3"
       margin="0"
       bleed="0" /></sodipodi:namedview><defs
     id="defs1"><clipPath
       clipPathUnits="userSpaceOnUse"
       id="clipPath149"><path
         d="m 920.16,1032.43 h 4082 v 2686.45 h -4082 z"
         transform="translate(0,2.5000001e-4)"
         id="path149" /></clipPath><clipPath
       clipPathUnits="userSpaceOnUse"
       id="clipPath151"><path
         d="m 920.16,1032.43 h 4082 v 2686.45 h -4082 z"
         transform="translate(0,2.5000001e-4)"
         id="path151" /></clipPath><clipPath
       clipPathUnits="userSpaceOnUse"
       id="clipPath153"><path
         d="m 920.16,1032.43 h 4082 v 2686.45 h -4082 z"
         transform="translate(0,2.5000001e-4)"
         id="path153" /></clipPath><clipPath
       clipPathUnits="userSpaceOnUse"
       id="clipPath155"><path
         d="m 920.16,1032.43 h 4082 v 2686.45 h -4082 z"
         transform="translate(0,2.5000001e-4)"
         id="path155" /></clipPath><clipPath
       clipPathUnits="userSpaceOnUse"
       id="clipPath157"><path
         d="m 920.16,1032.43 h 4082 v 2686.45 h -4082 z"
         transform="translate(0,2.5000001e-4)"
         id="path157" /></clipPath><clipPath
       clipPathUnits="userSpaceOnUse"
       id="clipPath159"><path
         d="m 920.16,1032.43 h 4082 v 2686.45 h -4082 z"
         transform="translate(0,2.5000001e-4)"
         id="path159" /></clipPath><clipPath
       clipPathUnits="userSpaceOnUse"
       id="clipPath161"><path
         d="m 920.16,1032.43 h 4082 v 2686.45 h -4082 z"
         transform="translate(0,2.5000001e-4)"
         id="path161" /></clipPath><clipPath
       clipPathUnits="userSpaceOnUse"
       id="clipPath163"><path
         d="m 920.16,1032.43 h 4082 v 2686.45 h -4082 z"
         transform="translate(0,2.5000001e-4)"
         id="path163" /></clipPath><clipPath
       clipPathUnits="userSpaceOnUse"
       id="clipPath165"><path
         d="m 920.16,1032.43 h 4082 v 2686.45 h -4082 z"
         transform="translate(0,2.5000001e-4)"
         id="path165" /></clipPath></defs><g
     id="g1"
     inkscape:groupmode="layer"
     inkscape:label="162"
     transform="matrix(0.26458333,0,0,0.26458335,-32.461189,-165.84508)"><path
       id="path148"
       d="m 3798.5,3389.6 c -1.11,-11.48 -1.66,-23.02 -1.66,-34.55 0,-87.57 31.84,-172.15 89.57,-237.98"
       style="fill:none;stroke:#008f00;stroke-width:5.49413;stroke-linecap:butt;stroke-linejoin:miter;stroke-miterlimit:10;stroke-dasharray:none;stroke-opacity:1"
       transform="matrix(0.13333333,0,0,-0.13333333,0,1122.6667)"
       clip-path="url(#clipPath149)" /><path
       id="path150"
       d="m 1359.14,3356.66 c 169.47,0 311.2,128.74 327.46,297.42"
       style="fill:none;stroke:#008f00;stroke-width:5.49413;stroke-linecap:butt;stroke-linejoin:miter;stroke-miterlimit:10;stroke-dasharray:none;stroke-opacity:1"
       transform="matrix(0.13333333,0,0,-0.13333333,0,1122.6667)"
       clip-path="url(#clipPath151)" /><path
       id="path152"
       d="m 1458.04,1279.93 c 48.67,-55.49 78.44,-125.03 84.98,-198.55"
       style="fill:none;stroke:#ff00ff;stroke-width:5.49413;stroke-linecap:butt;stroke-linejoin:miter;stroke-miterlimit:10;stroke-dasharray:none;stroke-opacity:1"
       transform="matrix(0.13333333,0,0,-0.13333333,0,1122.6667)"
       clip-path="url(#clipPath153)" /><path
       id="path154"
       d="m 4853.38,1741.41 c -152.58,-54.64 -254.4,-199.25 -254.4,-361.32 0,-11.92 0.56,-23.85 1.67,-35.73"
       style="fill:none;stroke:#ff00ff;stroke-width:5.49413;stroke-linecap:butt;stroke-linejoin:miter;stroke-miterlimit:10;stroke-dasharray:none;stroke-opacity:1"
       transform="matrix(0.13333333,0,0,-0.13333333,0,1122.6667)"
       clip-path="url(#clipPath155)" /><path
       id="path156"
       d="m 3864.46,3125.89 c 71.11,-91.5 180.5,-145.03 296.38,-145.03 43.84,0 87.34,7.68 128.52,22.69"
       style="fill:none;stroke:#ff00ff;stroke-width:5.49413;stroke-linecap:butt;stroke-linejoin:miter;stroke-miterlimit:10;stroke-dasharray:none;stroke-opacity:1"
       transform="matrix(0.13333333,0,0,-0.13333333,0,1122.6667)"
       clip-path="url(#clipPath157)" /><path
       id="path158"
       d="m 1194.31,1049.13 3790.95,329.64 -824.12,1977.89"
       style="fill:none;stroke:#000000;stroke-width:10.9883;stroke-linecap:butt;stroke-linejoin:miter;stroke-miterlimit:10;stroke-dasharray:none;stroke-opacity:1"
       transform="matrix(0.13333333,0,0,-0.13333333,0,1122.6667)"
       clip-path="url(#clipPath159)" /><path
       id="path160"
       d="M 1194.31,1049.13 4161.14,3356.66"
       style="fill:#e25563;stroke:#ff5b5b;stroke-width:10.9883;stroke-linecap:butt;stroke-linejoin:miter;stroke-miterlimit:10;stroke-dasharray:none;stroke-opacity:1"
       transform="matrix(0.13333333,0,0,-0.13333333,0,1122.6667)"
       clip-path="url(#clipPath161)" /><path
       id="path162"
       d="M 1200.17,1060.12 1364.99,3697.3 4167,3367.65 m -13706.0718,9734.711 1236.1501,-19778.8488 21015.0757,2472.3749"
       style="fill:none;stroke:#000000;stroke-width:10.9883;stroke-linecap:butt;stroke-linejoin:miter;stroke-miterlimit:10;stroke-dasharray:none;stroke-opacity:1"
       transform="matrix(0.13333333,0,0,-0.13333333,0,1122.6667)"
       clip-path="url(#clipPath163)" /><path
       id="path164"
       d="m 1227.3,1378.8 c 92.03,-9.07 176.02,-56.39 231.48,-130.39"
       style="fill:none;stroke:#008f00;stroke-width:5.49413;stroke-linecap:butt;stroke-linejoin:miter;stroke-miterlimit:10;stroke-dasharray:none;stroke-opacity:1"
       transform="matrix(0.13333333,0,0,-0.13333333,0,1122.6667)"
       clip-path="url(#clipPath165)" /><path
       id="path166"
       d="m 4.7932266,-8.4383047 c -2.4257813,0 -4.37109379,1.8867188 -4.37109379,4.2539063 0,2.4140625 1.91015629,4.33593746 4.30078129,4.33593746 2.3789062,0 4.3007812,-1.92187496 4.3007812,-4.30078126 0,-2.34375 -1.921875,-4.2890625 -4.2304687,-4.2890625 z m 0.5273437,1.2539063 v 5.7773437 H 4.2307266 V -5.6609609 H 3.0822891 v -0.65625 c 1.0429687,0.011719 1.3125,-0.1523438 1.4648437,-0.8671875 z M 232.23952,-189.74495 c -2.42579,0 -4.3711,1.89844 -4.3711,4.26563 0,2.40234 1.91016,4.32422 4.30078,4.32422 2.37891,0 4.30078,-1.92188 4.30078,-4.30078 0,-2.33203 -1.92187,-4.28907 -4.23046,-4.28907 z m 1.80468,6.2461 v 0.78515 h -3.77343 c -0.0117,-0.11718 -0.0234,-0.21093 -0.0234,-0.25781 0,-0.36328 0.16406,-0.76172 0.43359,-1.11328 0.26953,-0.31641 0.48047,-0.48047 1.05469,-0.85547 1.00781,-0.64453 1.30078,-1.04297 1.30078,-1.73437 0,-0.67969 -0.375,-1.14844 -0.92578,-1.14844 -0.55078,0 -0.90234,0.45703 -0.90234,1.18359 0,0.0469 0,0.12891 0.0117,0.23438 l -1.04296,-0.0937 c -0.0117,-0.0937 -0.0117,-0.1875 -0.0117,-0.23438 0,-1.04297 0.83203,-1.80468 1.95703,-1.80468 1.17187,0 2.01562,0.78515 2.01562,1.86328 0,0.71484 -0.3164,1.26562 -1.05468,1.82812 -0.23438,0.17578 -0.52735,0.38672 -0.87891,0.6211 -0.5625,0.375 -0.69141,0.49218 -0.80859,0.72656 z M 27.855727,-202.92854 c -2.425782,0 -4.371094,1.89844 -4.371094,4.26563 0,2.40234 1.910156,4.32421 4.300781,4.32421 2.378906,0 4.300781,-1.92187 4.300781,-4.30078 0,-2.33203 -1.921875,-4.28906 -4.230468,-4.28906 z m -1.886719,2.85938 c 0.02344,-0.46875 0.08203,-0.72657 0.257812,-0.98438 0.292969,-0.43359 0.878907,-0.70312 1.523438,-0.70312 1.054687,0 1.828125,0.6914 1.828125,1.64062 0,0.52734 -0.222656,0.9375 -0.691406,1.19531 0.199218,0.11719 0.328125,0.21094 0.421875,0.28125 0.28125,0.2461 0.433593,0.63282 0.433593,1.10157 0,1.04296 -0.796875,1.78125 -1.945312,1.78125 -1.078125,0 -1.851563,-0.65625 -1.851563,-1.59375 0,-0.0352 0.01172,-0.16407 0.02344,-0.25782 l 0.972656,-0.22265 c -0.01172,0.0937 -0.01172,0.19922 -0.01172,0.22265 0,0.65625 0.316407,1.00782 0.878907,1.00782 0.539062,0 0.890625,-0.38672 0.890625,-0.98438 0,-0.60937 -0.363282,-0.96094 -1.007813,-0.96094 -0.152344,0 -0.292969,0.0117 -0.597656,0.0352 v -0.72656 c 0.269531,0.0234 0.375,0.0352 0.445312,0.0352 0.632813,0 1.007813,-0.33984 1.007813,-0.89062 0,-0.59766 -0.28125,-0.94922 -0.796875,-0.94922 -0.292969,0 -0.527344,0.11719 -0.65625,0.33984 -0.105469,0.16407 -0.152344,0.31641 -0.152344,0.73828 z m 2.009765,214.708004 c -2.425781,0 -4.371093,1.886719 -4.371093,4.253906 0,2.414063 1.910156,4.335938 4.300781,4.335938 2.378906,0 4.300781,-1.921875 4.300781,-4.300782 0,-2.34375 -1.921875,-4.289062 -4.230469,-4.289062 z m 0.527344,1.253906 v 5.777344 h -1.089844 v -4.253906 h -1.148437 v -0.65625 c 1.042969,0.01172 1.3125,-0.152344 1.464844,-0.867188 z M 318.05885,-21.621898 c -2.42578,0 -4.37109,1.898437 -4.37109,4.265625 0,2.402343 1.91015,4.324218 4.30078,4.324218 2.37891,0 4.30078,-1.921875 4.30078,-4.300781 0,-2.332031 -1.92187,-4.289062 -4.23047,-4.289062 z m 1.80469,6.246093 v 0.785157 h -3.77344 c -0.0117,-0.117188 -0.0234,-0.210938 -0.0234,-0.257813 0,-0.363281 0.16407,-0.761719 0.4336,-1.113281 0.26953,-0.316406 0.48047,-0.480469 1.05469,-0.855469 1.00781,-0.644531 1.30078,-1.042969 1.30078,-1.734375 0,-0.679687 -0.375,-1.148437 -0.92578,-1.148437 -0.55079,0 -0.90235,0.457031 -0.90235,1.183593 0,0.04687 0,0.128907 0.0117,0.234375 l -1.04297,-0.09375 c -0.0117,-0.09375 -0.0117,-0.1875 -0.0117,-0.234375 0,-1.042968 0.83203,-1.804687 1.95703,-1.804687 1.17188,0 2.01563,0.785156 2.01563,1.863281 0,0.714844 -0.31641,1.265625 -1.05469,1.828125 -0.23437,0.175781 -0.52734,0.386719 -0.8789,0.621094 -0.5625,0.375 -0.69141,0.492187 -0.8086,0.726562 z M 265.31569,-153.48127 c -2.42578,0 -4.3711,1.89843 -4.3711,4.26562 0,2.40235 1.91016,4.32422 4.30079,4.32422 2.3789,0 4.30078,-1.92187 4.30078,-4.30078 0,-2.33203 -1.92188,-4.28906 -4.23047,-4.28906 z m -1.88672,2.85937 c 0.0234,-0.46875 0.082,-0.72656 0.25781,-0.98437 0.29297,-0.4336 0.87891,-0.70313 1.52344,-0.70313 1.05469,0 1.82812,0.69141 1.82812,1.64063 0,0.52734 -0.22265,0.9375 -0.6914,1.19531 0.19922,0.11719 0.32812,0.21094 0.42187,0.28125 0.28125,0.24609 0.4336,0.63281 0.4336,1.10156 0,1.04297 -0.79688,1.78125 -1.94532,1.78125 -1.07812,0 -1.85156,-0.65625 -1.85156,-1.59375 0,-0.0351 0.0117,-0.16406 0.0234,-0.25781 l 0.97266,-0.22266 c -0.0117,0.0937 -0.0117,0.19922 -0.0117,0.22266 0,0.65625 0.3164,1.00781 0.8789,1.00781 0.53907,0 0.89063,-0.38672 0.89063,-0.98437 0,-0.60938 -0.36328,-0.96094 -1.00781,-0.96094 -0.15235,0 -0.29297,0.0117 -0.59766,0.0352 v -0.72657 c 0.26953,0.0234 0.375,0.0352 0.44531,0.0352 0.63281,0 1.00781,-0.33984 1.00781,-0.89063 0,-0.59765 -0.28125,-0.94921 -0.79687,-0.94921 -0.29297,0 -0.52734,0.11718 -0.65625,0.33984 -0.10547,0.16406 -0.15234,0.31641 -0.15234,0.73828 z m 0,0"
       style="fill:#e6e6e6;fill-opacity:1;fill-rule:nonzero;stroke:none"
       aria-label="➊&#10;➋&#10;➌&#10;➊&#10;➋&#10;➌"
       transform="matrix(1.3333333,0,0,1.3333333,186.152,934.43467)" /><g
       id="g166"
       aria-label="K&#10;1&#10;K&#10;2&#10;x&#10;i&#10;x&#10;j&#10;&#10;&#10;∗"
       transform="matrix(1.3333333,0,0,1.3333333,420.87733,693.66933)"><path
         id="path167"
         d="m 4.4308672,-7.9346172 0.035156,-0.3398437 h -0.28125 l -1.078125,0.035156 c -0.1875,0 -0.3984375,0 -0.9140625,-0.011719 l -0.7734375,-0.023437 -0.035156,0.3398437 0.5625,0.023437 c 0.2929687,0.011719 0.421875,0.1054688 0.421875,0.3164063 0,0.1757812 -0.035156,0.515625 -0.1054688,0.9140625 l -0.8789062,5.1796875 c -0.1992188,1.10156246 -0.2109375,1.11328121 -0.69140626,1.16015621 l -0.4921875,0.0351563 -0.046875,0.33984375 0.50390625,-0.01171875 C 1.2316484,0.01069531 1.5128984,-0.00102344 1.7355547,-0.00102344 l 1.1601562,0.03515625 h 0.3046875 l 0.035156,-0.33984375 -0.5859375,-0.0351563 c -0.3164063,-0.0234375 -0.421875,-0.10546875 -0.421875,-0.33984375 0,-0.0703125 0.011719,-0.19921875 0.023437,-0.2578125 l 0.515625,-3.12890621 c 1.7929687,2.0507813 2.0625,2.390625 3.3164062,4.10156246 l 0.8320313,-0.03515625 c 0.421875,0.01171875 0.4921875,0.0234375 0.8085937,0.03515625 v -0.36328125 h -0.234375 c -0.28125,0 -0.515625,-0.140625 -0.7734375,-0.4453125 L 3.7746172,-4.3838359 7.2668047,-7.6533672 c 0.1875,-0.1757812 0.4453125,-0.2929687 0.6445312,-0.2929687 h 0.2578125 v -0.328125 l -0.28125,0.011719 c -0.2460937,0.011719 -0.4453125,0.023437 -0.5390625,0.023437 -0.1171875,0 -0.3046875,-0.011719 -0.5625,-0.023437 l -0.234375,-0.011719 v 0.3515625 c 0,0.09375 -0.1171875,0.2460937 -0.4570312,0.5859375 l -1.5234375,1.546875 c -0.5273438,0.5390625 -1.0195313,0.9726562 -1.78125,1.5703125 l 0.5390625,-3.1054688 c 0.082031,-0.4570312 0.1640625,-0.5390625 0.609375,-0.5742187 z m 0,0"
         style="fill:#5a9cfe;fill-opacity:1;fill-rule:nonzero;stroke:none" /><path
         id="path168"
         d="m 8.6613359,-2.8311016 h 0.09375 l 1.1601563,-0.515625 c 0,-0.011719 0.011719,-0.011719 0.023437,-0.011719 0.046875,0 0.070312,0.082031 0.070312,0.3046875 v 4.3476562 c 0,0.4570313 -0.09375,0.5625 -0.5859361,0.5859375 L 8.919148,1.9032726 v 0.2695313 c 1.382812,-0.023437 1.382812,-0.023437 1.488281,-0.023437 0.117187,0 0.304687,0 0.609375,0.011719 0.117187,0.011719 0.421875,0.011719 0.796875,0.011719 V 1.9032734 L 11.34493,1.8798359 C 10.852742,1.8563984 10.758992,1.7509297 10.758992,1.2938984 v -5.3203125 l -0.117187,-0.046875 c -0.585938,0.3046875 -1.2187503,0.5742188 -2.0390628,0.8671875 z m 0,0"
         style="fill:#5a9cfe;fill-opacity:1;fill-rule:nonzero;stroke:none" /><path
         id="path169"
         d="m -88.9705,185.82613 0.03516,-0.33985 h -0.28125 l -1.078125,0.0352 c -0.1875,0 -0.398437,0 -0.914062,-0.0117 l -0.773438,-0.0234 -0.03516,0.33985 0.5625,0.0234 c 0.292969,0.0117 0.421875,0.10547 0.421875,0.31641 0,0.17578 -0.03516,0.51562 -0.105469,0.91406 l -0.878906,5.17969 c -0.199219,1.10156 -0.210938,1.11328 -0.691406,1.16016 l -0.492188,0.0351 -0.04687,0.33985 0.503906,-0.0117 c 0.574219,-0.0117 0.855469,-0.0234 1.078125,-0.0234 l 1.160157,0.0352 h 0.304687 l 0.03516,-0.33985 -0.585937,-0.0351 c -0.316406,-0.0234 -0.421875,-0.10547 -0.421875,-0.33985 0,-0.0703 0.01172,-0.19922 0.02344,-0.25781 l 0.515625,-3.12891 c 1.792969,2.05078 2.0625,2.39063 3.316407,4.10157 l 0.832031,-0.0352 c 0.421875,0.0117 0.492187,0.0234 0.808594,0.0352 v -0.36329 h -0.234375 c -0.28125,0 -0.515625,-0.14062 -0.773438,-0.44531 l -2.941406,-3.60937 3.492187,-3.26953 c 0.1875,-0.17579 0.445313,-0.29297 0.644532,-0.29297 h 0.257812 v -0.32813 l -0.28125,0.0117 c -0.246094,0.0117 -0.445312,0.0234 -0.539062,0.0234 -0.117188,0 -0.304688,-0.0117 -0.5625,-0.0234 l -0.234375,-0.0117 v 0.35156 c 0,0.0937 -0.117188,0.2461 -0.457032,0.58594 l -1.523437,1.54688 c -0.527344,0.53906 -1.019531,0.97265 -1.78125,1.57031 l 0.539062,-3.10547 c 0.08203,-0.45703 0.164063,-0.53906 0.609375,-0.57422 z m 0,0"
         style="fill:#5a9cfe;fill-opacity:1;fill-rule:nonzero;stroke:none" /><path
         id="path170"
         d="m -85.194133,195.56441 v 0.23437 c 1.675781,-0.0234 1.675781,-0.0234 2.003906,-0.0234 0.316407,0 0.316407,0 2.050782,0.0234 -0.02344,-0.1875 -0.02344,-0.26953 -0.02344,-0.39844 0,-0.11718 0,-0.21093 0.02344,-0.41015 -1.03125,0.0469 -1.441407,0.0586 -3.105469,0.0937 l 1.640625,-1.73438 c 0.867187,-0.91406 1.136719,-1.40625 1.136719,-2.08593 0,-1.03125 -0.703125,-1.66407 -1.839844,-1.66407 -0.644531,0 -1.089844,0.17578 -1.523438,0.6211 l -0.152343,1.23047 h 0.257812 l 0.117188,-0.42188 c 0.140625,-0.51562 0.46875,-0.73828 1.066406,-0.73828 0.773437,0 1.265625,0.48047 1.265625,1.24219 0,0.67968 -0.375,1.33593 -1.394531,2.41406 z m 0,0"
         style="fill:#5a9cfe;fill-opacity:1;fill-rule:nonzero;stroke:none" /><path
         id="path171"
         d="m -221.908,209.07027 c -0.0352,0.44531 -0.082,0.73828 -0.1875,1.20703 0.22266,0.11718 0.35156,0.16406 0.51562,0.16406 0.33985,0 0.77344,-0.28125 1.125,-0.75 l 1.00782,-1.35938 0.11718,0.69141 c 0.11719,0.58594 0.19922,0.87891 0.36329,1.10156 0.14062,0.19922 0.375,0.31641 0.58593,0.31641 0.36328,0 0.78516,-0.25781 1.71094,-1.03125 l 0.21094,-0.19922 -0.1875,-0.26953 -0.36328,0.24609 c -0.32813,0.2461 -0.4336,0.29297 -0.5625,0.29297 -0.15235,0 -0.29297,-0.0937 -0.375,-0.24609 -0.12891,-0.26953 -0.29297,-0.8086 -0.38672,-1.34766 l -0.12891,-0.76172 0.45703,-0.60937 c 0.35157,-0.49219 0.8086,-0.83203 1.10157,-0.83203 0.0703,0 0.1289,0.0117 0.24609,0.0586 l 0.10547,0.33984 0.25781,-0.0586 c 0.082,-0.76172 0.12891,-0.99609 0.26953,-1.26562 -0.14062,-0.0703 -0.32812,-0.11719 -0.46875,-0.11719 -0.38672,0 -0.84375,0.32812 -1.3125,0.98437 l -0.75,1.04297 -0.0469,-0.26953 c -0.12891,-0.71484 -0.2461,-1.07812 -0.4336,-1.33594 -0.19922,-0.26953 -0.53906,-0.42187 -0.92578,-0.42187 -0.23437,0 -0.41015,0.0469 -0.90234,0.23437 -0.0586,0.10547 -0.0586,0.11719 -0.11719,0.23438 -0.25781,0.48047 -0.42187,0.76172 -0.58594,0.97265 l 0.26953,0.15235 c 0.17579,-0.30469 0.57422,-0.58594 0.86719,-0.58594 0.29297,0 0.57422,0.45703 0.70313,1.18359 l 0.1875,1.05469 -0.6211,0.87891 c -0.33984,0.48047 -0.6914,0.72656 -1.05468,0.72656 -0.10547,0 -0.19922,-0.0234 -0.32813,-0.0703 l -0.0703,-0.375 z m 0,0"
         style="fill:#5a9cfe;fill-opacity:1;fill-rule:nonzero;stroke:none" /><path
         id="path172"
         d="m -215.533,209.02046 0.0586,0.17578 0.29297,-0.1875 c 0.32813,-0.19922 0.35156,-0.22265 0.42188,-0.22265 0.082,0 0.16406,0.0937 0.16406,0.21093 0,0.0586 -0.0352,0.26953 -0.082,0.39844 l -0.58594,2.14453 c -0.0703,0.28125 -0.11719,0.52735 -0.11719,0.69141 0,0.21094 0.0937,0.35156 0.26953,0.35156 0.23438,0 0.55079,-0.1875 1.42969,-0.84375 l -0.082,-0.16406 -0.23437,0.15234 c -0.25782,0.17578 -0.46875,0.26953 -0.55079,0.26953 -0.0586,0 -0.11718,-0.082 -0.11718,-0.17578 0,-0.0937 0.0234,-0.17578 0.0703,-0.36328 l 0.67969,-2.71875 c 0.0469,-0.15234 0.0586,-0.25781 0.0586,-0.32812 0,-0.15235 -0.082,-0.23438 -0.22266,-0.23438 -0.19921,0 -0.52734,0.1875 -1.20703,0.66797 z m 1.73437,-2.90625 c -0.25781,0 -0.51562,0.30469 -0.51562,0.60938 0,0.22265 0.14062,0.36328 0.35156,0.36328 0.28125,0 0.49219,-0.25782 0.49219,-0.59766 0,-0.22266 -0.14063,-0.375 -0.32813,-0.375 z m 0,0"
         style="fill:#5a9cfe;fill-opacity:1;fill-rule:nonzero;stroke:none" /><path
         id="path173"
         d="m 117.62813,-15.091844 c -0.0352,0.445313 -0.082,0.738282 -0.1875,1.207032 0.22266,0.117187 0.35157,0.164062 0.51563,0.164062 0.33984,0 0.77344,-0.28125 1.125,-0.75 l 1.00781,-1.359375 0.11719,0.691406 c 0.11719,0.585938 0.19922,0.878907 0.36328,1.101563 0.14062,0.199219 0.375,0.316406 0.58594,0.316406 0.36328,0 0.78515,-0.257812 1.71093,-1.03125 l 0.21094,-0.199219 -0.1875,-0.269531 -0.36328,0.246094 c -0.32812,0.246094 -0.43359,0.292969 -0.5625,0.292969 -0.15234,0 -0.29297,-0.09375 -0.375,-0.246094 -0.12891,-0.269531 -0.29297,-0.808594 -0.38672,-1.347656 l -0.1289,-0.761719 0.45703,-0.609375 c 0.35156,-0.492188 0.80859,-0.832031 1.10156,-0.832031 0.0703,0 0.12891,0.01172 0.24609,0.05859 l 0.10547,0.339844 0.25781,-0.05859 c 0.082,-0.761718 0.12891,-0.996093 0.26954,-1.265625 -0.14063,-0.07031 -0.32813,-0.117187 -0.46875,-0.117187 -0.38672,0 -0.84375,0.328125 -1.3125,0.984375 l -0.75,1.042969 -0.0469,-0.269532 c -0.12891,-0.714843 -0.24609,-1.078125 -0.43359,-1.335937 -0.19922,-0.269531 -0.53907,-0.421875 -0.92578,-0.421875 -0.23438,0 -0.41016,0.04687 -0.90235,0.234375 -0.0586,0.105469 -0.0586,0.117187 -0.11719,0.234375 -0.25781,0.480469 -0.42187,0.761719 -0.58593,0.972656 l 0.26953,0.152344 c 0.17578,-0.304688 0.57422,-0.585938 0.86719,-0.585938 0.29296,0 0.57421,0.457032 0.70312,1.183594 l 0.1875,1.054688 -0.62109,0.878906 c -0.33985,0.480469 -0.69141,0.726562 -1.05469,0.726562 -0.10547,0 -0.19922,-0.02344 -0.32813,-0.07031 l -0.0703,-0.375 z m 0,0"
         style="fill:#5a9cfe;fill-opacity:1;fill-rule:nonzero;stroke:none" /><path
         id="path174"
         d="m 123.44649,-9.2471172 c 0.0937,0.046875 0.21094,0.058594 0.35156,0.058594 0.35157,0 0.71485,-0.3867188 1.03125,-1.1132818 0.1875,-0.398437 0.30469,-0.84375 0.5625,-1.992187 l 0.67969,-3.128906 c 0.0352,-0.164063 0.0469,-0.28125 0.0469,-0.339844 0,-0.140625 -0.0703,-0.222656 -0.22266,-0.222656 -0.19922,0 -0.52734,0.1875 -1.19531,0.667968 l -0.25781,0.175782 0.0703,0.175781 0.28125,-0.1875 c 0.33984,-0.199219 0.36328,-0.222656 0.42187,-0.222656 0.0937,0 0.16407,0.09375 0.16407,0.210937 0,0.03516 -0.0234,0.152344 -0.0469,0.246094 -0.0117,0.05859 -0.0117,0.09375 -0.0117,0.105469 l -0.90234,4.441406 c -0.0937,0.46875 -0.25781,0.7851563 -0.42188,0.7851563 -0.1289,0 -0.28125,-0.058594 -0.46875,-0.1757813 z m 2.6836,-8.8007808 c -0.25782,0 -0.51563,0.304687 -0.51563,0.609375 0,0.222656 0.12891,0.363281 0.35156,0.363281 0.26953,0 0.49219,-0.257813 0.49219,-0.597656 0,-0.222657 -0.14062,-0.375 -0.32812,-0.375 z m 0,0"
         style="fill:#5a9cfe;fill-opacity:1;fill-rule:nonzero;stroke:none" /><path
         id="path175"
         d="m -152.7205,30.441359 h 0.82031 V 9.7694844 h 3.15235 V 8.9374531 h -3.97266 z m 0,21.498047 h 3.97266 v -0.820312 h -3.15235 V 30.4355 h -0.82031 z m 0,0"
         style="fill:#5a9cfe;fill-opacity:1;fill-rule:nonzero;stroke:none" /><path
         id="path176"
         d="m -144.93925,13.572219 c 0.0117,-0.175781 0.0117,-0.46875 -0.30469,-0.46875 -0.19922,0 -0.36328,0.164062 -0.32812,0.316406 v 0.164063 l 0.17578,1.933593 -1.59375,-1.160156 c -0.11719,-0.05859 -0.14063,-0.08203 -0.22266,-0.08203 -0.17578,0 -0.33984,0.175781 -0.33984,0.339844 0,0.199218 0.1289,0.257812 0.24609,0.316406 l 1.76953,0.84375 -1.71093,0.832031 c -0.19922,0.105469 -0.30469,0.152344 -0.30469,0.339844 0,0.1875 0.16406,0.351562 0.33984,0.351562 0.082,0 0.10547,0 0.42188,-0.234375 l 1.39453,-1.007812 -0.1875,2.085937 c 0,0.269532 0.22265,0.328125 0.32812,0.328125 0.14063,0 0.32813,-0.09375 0.32813,-0.328125 l -0.1875,-2.085937 1.60547,1.148437 c 0.10547,0.07031 0.1289,0.09375 0.22265,0.09375 0.17578,0 0.32813,-0.175781 0.32813,-0.351562 0,-0.1875 -0.10547,-0.246094 -0.25781,-0.316406 -0.75,-0.375 -0.77344,-0.375 -1.75782,-0.84375 l 1.72266,-0.832032 c 0.19922,-0.09375 0.29297,-0.152343 0.29297,-0.339843 0,-0.1875 -0.15235,-0.339844 -0.32813,-0.339844 -0.0937,0 -0.11718,0 -0.42187,0.234375 l -1.40625,1.007812 z m 0,0"
         style="fill:#5a9cfe;fill-opacity:1;fill-rule:nonzero;stroke:none" /></g><path
       id="path177"
       d="m 3.4220313,-5.3197812 c 0.011719,-0.1757813 0.011719,-0.46875 -0.3046875,-0.46875 -0.1992188,0 -0.3632813,0.1640625 -0.328125,0.3164062 v 0.1640625 L 2.965,-3.3744687 1.37125,-4.534625 C 1.2540625,-4.593219 1.230625,-4.616656 1.1485938,-4.616656 c -0.1757813,0 -0.3398438,0.1757812 -0.3398438,0.3398437 0,0.1992188 0.12890625,0.2578125 0.2460938,0.3164063 l 1.7695312,0.84375 -1.7109375,0.8320312 C 0.91421875,-2.1791562 0.80875,-2.1322812 0.80875,-1.9447812 c 0,0.1875 0.1640625,0.3515625 0.3398438,0.3515625 0.082031,0 0.1054687,0 0.421875,-0.234375 L 2.965,-2.8354062 2.7775,-0.74946875 c 0,0.26953125 0.2226563,0.328125 0.328125,0.328125 0.140625,0 0.328125,-0.09375 0.328125,-0.328125 l -0.1875,-2.08593745 1.6054688,1.1484375 c 0.1054687,0.070312 0.1289062,0.09375 0.2226562,0.09375 0.1757813,0 0.328125,-0.1757813 0.328125,-0.3515625 0,-0.1875 -0.1054687,-0.2460938 -0.2578125,-0.3164063 -0.75,-0.375 -0.7734375,-0.375 -1.7578125,-0.84375 L 5.1095313,-3.9369687 C 5.30875,-4.0307187 5.4025,-4.0893125 5.4025,-4.2768125 c 0,-0.1875 -0.1523437,-0.3398437 -0.328125,-0.3398437 -0.09375,0 -0.1171875,0 -0.421875,0.234375 l -1.40625,1.0078125 z m 0,0"
       style="fill:#ec008c;fill-opacity:1;fill-rule:nonzero;stroke:none"
       aria-label="∗"
       transform="matrix(1.3333333,0,0,1.3333333,245.04667,718.85867)" /><g
       id="g177"
       aria-label="∗&#10;∗∗∗&#10;∗∗∗&#10;&#10;&#10;&#10;&#10;∗∗"
       transform="matrix(1.3333333,0,0,1.3333333,267.03067,718.85867)"><path
         id="path178"
         d="m 3.4223125,-5.3197812 c 0.011719,-0.1757813 0.011719,-0.46875 -0.3046875,-0.46875 -0.1992187,0 -0.3632812,0.1640625 -0.328125,0.3164062 v 0.1640625 l 0.1757813,1.9335938 -1.59375,-1.1601563 C 1.2543438,-4.593219 1.2309063,-4.616656 1.148875,-4.616656 c -0.17578125,0 -0.33984375,0.1757812 -0.33984375,0.3398437 0,0.1992188 0.12890625,0.2578125 0.24609375,0.3164063 l 1.7695313,0.84375 -1.7109375,0.8320312 C 0.9145,-2.1791562 0.80903125,-2.1322812 0.80903125,-1.9447812 c 0,0.1875 0.1640625,0.3515625 0.33984375,0.3515625 0.082031,0 0.1054688,0 0.421875,-0.234375 l 1.3945313,-1.0078125 -0.1875,2.08593745 c 0,0.26953125 0.2226562,0.328125 0.328125,0.328125 0.140625,0 0.328125,-0.09375 0.328125,-0.328125 L 3.2465313,-2.8354062 4.852,-1.6869687 c 0.1054688,0.070312 0.1289063,0.09375 0.2226563,0.09375 0.1757812,0 0.328125,-0.1757813 0.328125,-0.3515625 0,-0.1875 -0.1054688,-0.2460938 -0.2578125,-0.3164063 -0.75,-0.375 -0.7734375,-0.375 -1.7578125,-0.84375 l 1.7226562,-0.8320312 c 0.1992188,-0.09375 0.2929688,-0.1523438 0.2929688,-0.3398438 0,-0.1875 -0.1523438,-0.3398437 -0.328125,-0.3398437 -0.09375,0 -0.1171875,0 -0.421875,0.234375 l -1.40625,1.0078125 z M -29.55425,9.1235781 c 0.01172,-0.1757812 0.01172,-0.46875 -0.304687,-0.46875 -0.199219,0 -0.363282,0.1640625 -0.328125,0.3164063 v 0.1640625 l 0.175781,1.9335941 -1.59375,-1.1601566 c -0.117188,-0.058594 -0.140625,-0.082031 -0.222656,-0.082031 -0.175782,0 -0.339844,0.1757806 -0.339844,0.3398436 0,0.199219 0.128906,0.257812 0.246094,0.316406 l 1.769531,0.84375 -1.710938,0.832031 c -0.199218,0.105469 -0.304687,0.152344 -0.304687,0.339844 0,0.1875 0.164062,0.351563 0.339844,0.351563 0.08203,0 0.105468,0 0.421875,-0.234375 l 1.394531,-1.007813 -0.1875,2.085938 c 0,0.269531 0.222656,0.328125 0.328125,0.328125 0.140625,0 0.328125,-0.09375 0.328125,-0.328125 l -0.1875,-2.085938 1.605469,1.148438 c 0.105468,0.07031 0.128906,0.09375 0.222656,0.09375 0.175781,0 0.328125,-0.175782 0.328125,-0.351563 0,-0.1875 -0.105469,-0.246094 -0.257813,-0.316406 -0.75,-0.375 -0.773437,-0.375 -1.757812,-0.84375 l 1.722656,-0.832031 c 0.199219,-0.09375 0.292969,-0.152344 0.292969,-0.339844 0,-0.1874998 -0.152344,-0.3398436 -0.328125,-0.3398436 -0.09375,0 -0.117188,0 -0.421875,0.2343746 l -1.40625,1.007813 z m 16.488281,0 c 0.01172,-0.1757812 0.01172,-0.46875 -0.304687,-0.46875 -0.199219,0 -0.363281,0.1640625 -0.328125,0.3164063 V 9.1352969 L -13.523,11.068891 -15.11675,9.9087344 c -0.117187,-0.058594 -0.140625,-0.082031 -0.222656,-0.082031 -0.175781,0 -0.339844,0.1757806 -0.339844,0.3398436 0,0.199219 0.128906,0.257812 0.246094,0.316406 l 1.769531,0.84375 -1.710937,0.832031 c -0.199219,0.105469 -0.304688,0.152344 -0.304688,0.339844 0,0.1875 0.164063,0.351563 0.339844,0.351563 0.08203,0 0.105469,0 0.421875,-0.234375 l 1.394531,-1.007813 -0.1875,2.085938 c 0,0.269531 0.222656,0.328125 0.328125,0.328125 0.140625,0 0.328125,-0.09375 0.328125,-0.328125 l -0.1875,-2.085938 1.605469,1.148438 c 0.105469,0.07031 0.128906,0.09375 0.222656,0.09375 0.175781,0 0.328125,-0.175782 0.328125,-0.351563 0,-0.1875 -0.105469,-0.246094 -0.257812,-0.316406 -0.75,-0.375 -0.773438,-0.375 -1.757813,-0.84375 l 1.722656,-0.832031 c 0.199219,-0.09375 0.292969,-0.152344 0.292969,-0.339844 0,-0.1874998 -0.152344,-0.3398436 -0.328125,-0.3398436 -0.09375,0 -0.117187,0 -0.421875,0.2343746 l -1.40625,1.007813 z m 16.4882815,0 c 0.011719,-0.1757812 0.011719,-0.46875 -0.3046875,-0.46875 -0.1992187,0 -0.3632812,0.1640625 -0.328125,0.3164063 V 9.1352969 L 2.9652813,11.068891 1.3715313,9.9087344 C 1.2543438,9.8501406 1.2309063,9.8267031 1.148875,9.8267031 c -0.17578125,0 -0.33984375,0.1757809 -0.33984375,0.3398439 0,0.199219 0.12890625,0.257812 0.24609375,0.316406 l 1.7695313,0.84375 -1.7109375,0.832031 C 0.9145,12.264203 0.80903125,12.311078 0.80903125,12.498578 c 0,0.1875 0.1640625,0.351563 0.33984375,0.351563 0.082031,0 0.1054688,0 0.421875,-0.234375 l 1.3945313,-1.007813 -0.1875,2.085938 c 0,0.269531 0.2226562,0.328125 0.328125,0.328125 0.140625,0 0.328125,-0.09375 0.328125,-0.328125 L 3.2465313,11.607953 4.852,12.756391 c 0.1054688,0.07031 0.1289063,0.09375 0.2226563,0.09375 0.1757812,0 0.328125,-0.175782 0.328125,-0.351563 0,-0.1875 -0.1054688,-0.246094 -0.2578125,-0.316406 -0.75,-0.375 -0.7734375,-0.375 -1.7578125,-0.84375 l 1.7226562,-0.832031 c 0.1992188,-0.09375 0.2929688,-0.152344 0.2929688,-0.339844 0,-0.1875001 -0.1523438,-0.3398439 -0.328125,-0.3398439 -0.09375,0 -0.1171875,0 -0.421875,0.2343749 l -1.40625,1.007813 z M -29.55425,23.569867 c 0.01172,-0.175781 0.01172,-0.46875 -0.304687,-0.46875 -0.199219,0 -0.363282,0.164063 -0.328125,0.316406 v 0.164063 l 0.175781,1.933594 -1.59375,-1.160157 c -0.117188,-0.05859 -0.140625,-0.08203 -0.222656,-0.08203 -0.175782,0 -0.339844,0.175781 -0.339844,0.339844 0,0.199219 0.128906,0.257812 0.246094,0.316406 l 1.769531,0.84375 -1.710938,0.832031 c -0.199218,0.105469 -0.304687,0.152344 -0.304687,0.339844 0,0.1875 0.164062,0.351563 0.339844,0.351563 0.08203,0 0.105468,0 0.421875,-0.234375 l 1.394531,-1.007813 -0.1875,2.085938 c 0,0.269531 0.222656,0.328125 0.328125,0.328125 0.140625,0 0.328125,-0.09375 0.328125,-0.328125 l -0.1875,-2.085938 1.605469,1.148438 c 0.105468,0.07031 0.128906,0.09375 0.222656,0.09375 0.175781,0 0.328125,-0.175782 0.328125,-0.351563 0,-0.1875 -0.105469,-0.246094 -0.257813,-0.316406 -0.75,-0.375 -0.773437,-0.375 -1.757812,-0.84375 l 1.722656,-0.832031 c 0.199219,-0.09375 0.292969,-0.152344 0.292969,-0.339844 0,-0.1875 -0.152344,-0.339844 -0.328125,-0.339844 -0.09375,0 -0.117188,0 -0.421875,0.234375 l -1.40625,1.007813 z m 16.488281,0 c 0.01172,-0.175781 0.01172,-0.46875 -0.304687,-0.46875 -0.199219,0 -0.363281,0.164063 -0.328125,0.316406 v 0.164063 l 0.175781,1.933594 -1.59375,-1.160157 c -0.117187,-0.05859 -0.140625,-0.08203 -0.222656,-0.08203 -0.175781,0 -0.339844,0.175781 -0.339844,0.339844 0,0.199219 0.128906,0.257812 0.246094,0.316406 l 1.769531,0.84375 -1.710937,0.832031 c -0.199219,0.105469 -0.304688,0.152344 -0.304688,0.339844 0,0.1875 0.164063,0.351563 0.339844,0.351563 0.08203,0 0.105469,0 0.421875,-0.234375 l 1.394531,-1.007813 -0.1875,2.085938 c 0,0.269531 0.222656,0.328125 0.328125,0.328125 0.140625,0 0.328125,-0.09375 0.328125,-0.328125 l -0.1875,-2.085938 1.605469,1.148438 c 0.105469,0.07031 0.128906,0.09375 0.222656,0.09375 0.175781,0 0.328125,-0.175782 0.328125,-0.351563 0,-0.1875 -0.105469,-0.246094 -0.257812,-0.316406 -0.75,-0.375 -0.773438,-0.375 -1.757813,-0.84375 l 1.722656,-0.832031 c 0.199219,-0.09375 0.292969,-0.152344 0.292969,-0.339844 0,-0.1875 -0.152344,-0.339844 -0.328125,-0.339844 -0.09375,0 -0.117187,0 -0.421875,0.234375 l -1.40625,1.007813 z m 16.4882815,0 c 0.011719,-0.175781 0.011719,-0.46875 -0.3046875,-0.46875 -0.1992187,0 -0.3632812,0.164063 -0.328125,0.316406 v 0.164063 l 0.1757813,1.933594 -1.59375,-1.160157 c -0.1171875,-0.05859 -0.140625,-0.08203 -0.2226563,-0.08203 -0.17578125,0 -0.33984375,0.175781 -0.33984375,0.339844 0,0.199219 0.12890625,0.257812 0.24609375,0.316406 l 1.7695313,0.84375 -1.7109375,0.832031 C 0.9145,26.710492 0.80903125,26.757367 0.80903125,26.944867 c 0,0.1875 0.1640625,0.351563 0.33984375,0.351563 0.082031,0 0.1054688,0 0.421875,-0.234375 l 1.3945313,-1.007813 -0.1875,2.085938 c 0,0.269531 0.2226562,0.328125 0.328125,0.328125 0.140625,0 0.328125,-0.09375 0.328125,-0.328125 L 3.2465313,26.054242 4.852,27.20268 c 0.1054688,0.07031 0.1289063,0.09375 0.2226563,0.09375 0.1757812,0 0.328125,-0.175782 0.328125,-0.351563 0,-0.1875 -0.1054688,-0.246094 -0.2578125,-0.316406 -0.75,-0.375 -0.7734375,-0.375 -1.7578125,-0.84375 L 5.1098125,24.95268 c 0.1992188,-0.09375 0.2929688,-0.152344 0.2929688,-0.339844 0,-0.1875 -0.1523438,-0.339844 -0.328125,-0.339844 -0.09375,0 -0.1171875,0 -0.421875,0.234375 l -1.40625,1.007813 z m 0,0"
         style="fill:#5a9cfe;fill-opacity:1;fill-rule:nonzero;stroke:none" /><path
         id="path179"
         d="M 9.7592266,11.549359 H 10.591258 V -9.9545469 H 6.6068828 v 0.8320313 h 3.1523438 z m 0,20.677735 H 6.6068828 v 0.820312 H 10.591258 V 11.5435 H 9.7592266 Z M 116.69868,119.59916 h 0.82031 V 98.927289 h 3.15235 v -0.832031 h -3.97266 z m 0,21.49805 h 3.97266 v -0.82031 h -3.15235 v -20.6836 h -0.82031 z m 0,0"
         style="fill:#5a9cfe;fill-opacity:1;fill-rule:nonzero;stroke:none" /><path
         id="path180"
         d="m 124.47993,102.73002 c 0.0117,-0.17578 0.0117,-0.46875 -0.30469,-0.46875 -0.19922,0 -0.36328,0.16407 -0.32812,0.31641 v 0.16406 l 0.17578,1.9336 -1.59375,-1.16016 c -0.11719,-0.0586 -0.14063,-0.082 -0.22266,-0.082 -0.17578,0 -0.33984,0.17578 -0.33984,0.33984 0,0.19922 0.1289,0.25781 0.24609,0.31641 l 1.76953,0.84375 -1.71093,0.83203 c -0.19922,0.10547 -0.30469,0.15234 -0.30469,0.33984 0,0.1875 0.16406,0.35157 0.33984,0.35157 0.082,0 0.10547,0 0.42188,-0.23438 l 1.39453,-1.00781 -0.1875,2.08594 c 0,0.26953 0.22265,0.32812 0.32812,0.32812 0.14063,0 0.32813,-0.0937 0.32813,-0.32812 l -0.1875,-2.08594 1.60547,1.14844 c 0.10547,0.0703 0.1289,0.0937 0.22265,0.0937 0.17578,0 0.32813,-0.17579 0.32813,-0.35157 0,-0.1875 -0.10547,-0.24609 -0.25781,-0.3164 -0.75,-0.375 -0.77344,-0.375 -1.75782,-0.84375 l 1.72266,-0.83203 c 0.19922,-0.0937 0.29297,-0.15235 0.29297,-0.33985 0,-0.1875 -0.15235,-0.33984 -0.32813,-0.33984 -0.0937,0 -0.11718,0 -0.42187,0.23437 l -1.40625,1.00782 z m 16.48828,0 c 0.0117,-0.17578 0.0117,-0.46875 -0.30469,-0.46875 -0.19922,0 -0.36328,0.16407 -0.32812,0.31641 v 0.16406 l 0.17578,1.9336 -1.59375,-1.16016 c -0.11719,-0.0586 -0.14063,-0.082 -0.22266,-0.082 -0.17578,0 -0.33984,0.17578 -0.33984,0.33984 0,0.19922 0.12891,0.25781 0.24609,0.31641 l 1.76953,0.84375 -1.71093,0.83203 c -0.19922,0.10547 -0.30469,0.15234 -0.30469,0.33984 0,0.1875 0.16406,0.35157 0.33984,0.35157 0.082,0 0.10547,0 0.42188,-0.23438 l 1.39453,-1.00781 -0.1875,2.08594 c 0,0.26953 0.22266,0.32812 0.32812,0.32812 0.14063,0 0.32813,-0.0937 0.32813,-0.32812 l -0.1875,-2.08594 1.60547,1.14844 c 0.10547,0.0703 0.1289,0.0937 0.22265,0.0937 0.17579,0 0.32813,-0.17579 0.32813,-0.35157 0,-0.1875 -0.10547,-0.24609 -0.25781,-0.3164 -0.75,-0.375 -0.77344,-0.375 -1.75782,-0.84375 l 1.72266,-0.83203 c 0.19922,-0.0937 0.29297,-0.15235 0.29297,-0.33985 0,-0.1875 -0.15234,-0.33984 -0.32813,-0.33984 -0.0937,0 -0.11718,0 -0.42187,0.23437 l -1.40625,1.00782 z m 0,0"
         style="fill:#5a9cfe;fill-opacity:1;fill-rule:nonzero;stroke:none" /></g><path
       id="path181"
       d="m 3.4224922,-5.3209766 c 0.011719,-0.1757812 0.011719,-0.46875 -0.3046875,-0.46875 -0.1992188,0 -0.3632813,0.1640625 -0.328125,0.3164063 v 0.1640625 l 0.1757812,1.9335937 -1.59375,-1.1601562 c -0.1171875,-0.058594 -0.140625,-0.082031 -0.2226562,-0.082031 -0.17578126,0 -0.33984376,0.1757813 -0.33984376,0.3398438 0,0.1992187 0.12890625,0.2578125 0.24609376,0.3164062 l 1.7695312,0.84375 -1.7109375,0.8320313 c -0.19921871,0.1054687 -0.30468746,0.1523437 -0.30468746,0.3398437 0,0.1875 0.1640625,0.3515625 0.33984376,0.3515625 0.082031,0 0.1054687,0 0.421875,-0.234375 l 1.3945312,-1.0078125 -0.1875,2.08593754 c 0,0.26953125 0.2226563,0.328125 0.328125,0.328125 0.140625,0 0.328125,-0.09375 0.328125,-0.328125 l -0.1875,-2.08593754 1.6054688,1.1484375 c 0.1054687,0.070312 0.1289062,0.09375 0.2226562,0.09375 0.1757813,0 0.328125,-0.1757812 0.328125,-0.3515625 0,-0.1875 -0.1054687,-0.2460937 -0.2578125,-0.3164062 -0.75,-0.375 -0.7734375,-0.375 -1.7578125,-0.84375 l 1.7226563,-0.8320313 c 0.1992187,-0.09375 0.2929687,-0.1523437 0.2929687,-0.3398437 0,-0.1875 -0.1523437,-0.3398438 -0.328125,-0.3398438 -0.09375,0 -0.1171875,0 -0.421875,0.234375 l -1.40625,1.0078125 z m 0,0"
       style="fill:#ec008c;fill-opacity:1;fill-rule:nonzero;stroke:none"
       aria-label="∗"
       transform="matrix(1.3333333,0,0,1.3333333,472.40933,862.92667)" /><g
       id="g181"
       aria-label="∗∗∗&#10;∗∗∗&#10;&#10;"
       transform="matrix(1.3333333,0,0,1.3333333,428.44133,882.18667)"><path
         id="path182"
         d="m 3.4219297,-5.3196875 c 0.011719,-0.1757812 0.011719,-0.46875 -0.3046875,-0.46875 -0.1992188,0 -0.3632813,0.1640625 -0.328125,0.3164063 v 0.1640625 l 0.1757812,1.9335937 -1.59375,-1.1601562 c -0.1171875,-0.058594 -0.140625,-0.082031 -0.2226562,-0.082031 -0.17578126,0 -0.33984376,0.1757813 -0.33984376,0.3398438 0,0.1992187 0.12890625,0.2578125 0.24609376,0.3164062 l 1.7695312,0.84375 -1.7109375,0.8320313 c -0.19921871,0.1054687 -0.30468746,0.1523437 -0.30468746,0.3398437 0,0.1875 0.1640625,0.3515625 0.33984376,0.3515625 0.082031,0 0.1054687,0 0.421875,-0.234375 l 1.3945312,-1.0078125 -0.1875,2.0859375 c 0,0.26953125 0.2226563,0.328125 0.328125,0.328125 0.140625,0 0.328125,-0.09375 0.328125,-0.328125 l -0.1875,-2.0859375 1.6054688,1.1484375 c 0.1054687,0.070312 0.1289062,0.09375 0.2226562,0.09375 0.1757813,0 0.328125,-0.1757812 0.328125,-0.3515625 0,-0.1875 -0.1054687,-0.2460937 -0.2578125,-0.3164062 -0.75,-0.375 -0.7734375,-0.375 -1.7578125,-0.84375 L 5.1094297,-3.936875 c 0.1992187,-0.09375 0.2929687,-0.1523437 0.2929687,-0.3398437 0,-0.1875 -0.1523437,-0.3398438 -0.328125,-0.3398438 -0.09375,0 -0.1171875,0 -0.421875,0.234375 l -1.40625,1.0078125 z m 16.4882813,0 c 0.01172,-0.1757812 0.01172,-0.46875 -0.304688,-0.46875 -0.199218,0 -0.363281,0.1640625 -0.328125,0.3164063 v 0.1640625 l 0.175782,1.9335937 -1.59375,-1.1601562 c -0.117188,-0.058594 -0.140625,-0.082031 -0.222657,-0.082031 -0.175781,0 -0.339843,0.1757813 -0.339843,0.3398438 0,0.1992187 0.128906,0.2578125 0.246093,0.3164062 l 1.769532,0.84375 -1.710938,0.8320313 c -0.199219,0.1054687 -0.304687,0.1523437 -0.304687,0.3398437 0,0.1875 0.164062,0.3515625 0.339843,0.3515625 0.08203,0 0.105469,0 0.421875,-0.234375 l 1.394532,-1.0078125 -0.1875,2.0859375 c 0,0.26953125 0.222656,0.328125 0.328125,0.328125 0.140625,0 0.328125,-0.09375 0.328125,-0.328125 l -0.1875,-2.0859375 1.605468,1.1484375 c 0.105469,0.070312 0.128907,0.09375 0.222657,0.09375 0.175781,0 0.328125,-0.1757812 0.328125,-0.3515625 0,-0.1875 -0.105469,-0.2460937 -0.257813,-0.3164062 -0.75,-0.375 -0.773437,-0.375 -1.757812,-0.84375 l 1.722656,-0.8320313 c 0.199219,-0.09375 0.292969,-0.1523437 0.292969,-0.3398437 0,-0.1875 -0.152344,-0.3398438 -0.328125,-0.3398438 -0.09375,0 -0.117188,0 -0.421875,0.234375 l -1.40625,1.0078125 z m 16.488281,0 c 0.01172,-0.1757812 0.01172,-0.46875 -0.304687,-0.46875 -0.199219,0 -0.363282,0.1640625 -0.328125,0.3164063 v 0.1640625 l 0.175781,1.9335937 -1.59375,-1.1601562 c -0.117188,-0.058594 -0.140625,-0.082031 -0.222656,-0.082031 -0.175782,0 -0.339844,0.1757813 -0.339844,0.3398438 0,0.1992187 0.128906,0.2578125 0.246094,0.3164062 l 1.769531,0.84375 -1.710938,0.8320313 c -0.199218,0.1054687 -0.304687,0.1523437 -0.304687,0.3398437 0,0.1875 0.164062,0.3515625 0.339844,0.3515625 0.08203,0 0.105468,0 0.421875,-0.234375 l 1.394531,-1.0078125 -0.1875,2.0859375 c 0,0.26953125 0.222656,0.328125 0.328125,0.328125 0.140625,0 0.328125,-0.09375 0.328125,-0.328125 l -0.1875,-2.0859375 1.605469,1.1484375 c 0.105468,0.070312 0.128906,0.09375 0.222656,0.09375 0.175781,0 0.328125,-0.1757812 0.328125,-0.3515625 0,-0.1875 -0.105469,-0.2460937 -0.257813,-0.3164062 -0.75,-0.375 -0.773437,-0.375 -1.757812,-0.84375 l 1.722656,-0.8320313 c 0.199219,-0.09375 0.292969,-0.1523437 0.292969,-0.3398437 0,-0.1875 -0.152344,-0.3398438 -0.328125,-0.3398438 -0.09375,0 -0.117188,0 -0.421875,0.234375 l -1.40625,1.0078125 z M 3.4219297,9.1236719 c 0.011719,-0.1757813 0.011719,-0.46875 -0.3046875,-0.46875 -0.1992188,0 -0.3632813,0.1640625 -0.328125,0.3164062 v 0.1640625 l 0.1757812,1.9335934 -1.59375,-1.1601559 c -0.1171875,-0.058594 -0.140625,-0.082031 -0.2226562,-0.082031 -0.17578126,0 -0.33984376,0.1757809 -0.33984376,0.3398439 0,0.199218 0.12890625,0.257812 0.24609376,0.316406 l 1.7695312,0.84375 -1.7109375,0.832031 c -0.19921871,0.105469 -0.30468746,0.152344 -0.30468746,0.339844 0,0.1875 0.1640625,0.351562 0.33984376,0.351562 0.082031,0 0.1054687,0 0.421875,-0.234375 l 1.3945312,-1.007812 -0.1875,2.085937 c 0,0.269532 0.2226563,0.328125 0.328125,0.328125 0.140625,0 0.328125,-0.09375 0.328125,-0.328125 l -0.1875,-2.085937 1.6054688,1.148437 c 0.1054687,0.07031 0.1289062,0.09375 0.2226562,0.09375 0.1757813,0 0.328125,-0.175781 0.328125,-0.351562 0,-0.1875 -0.1054687,-0.246094 -0.2578125,-0.316406 -0.75,-0.375 -0.7734375,-0.375 -1.7578125,-0.84375 l 1.7226563,-0.832032 c 0.1992187,-0.09375 0.2929687,-0.152343 0.2929687,-0.339843 0,-0.1875002 -0.1523437,-0.3398439 -0.328125,-0.3398439 -0.09375,0 -0.1171875,0 -0.421875,0.2343749 l -1.40625,1.007812 z m 16.4882813,0 c 0.01172,-0.1757813 0.01172,-0.46875 -0.304688,-0.46875 -0.199218,0 -0.363281,0.1640625 -0.328125,0.3164062 V 9.1353906 L 19.45318,11.068984 17.85943,9.9088281 c -0.117188,-0.058594 -0.140625,-0.082031 -0.222657,-0.082031 -0.175781,0 -0.339843,0.1757809 -0.339843,0.3398439 0,0.199218 0.128906,0.257812 0.246093,0.316406 l 1.769532,0.84375 -1.710938,0.832031 c -0.199219,0.105469 -0.304687,0.152344 -0.304687,0.339844 0,0.1875 0.164062,0.351562 0.339843,0.351562 0.08203,0 0.105469,0 0.421875,-0.234375 l 1.394532,-1.007812 -0.1875,2.085937 c 0,0.269532 0.222656,0.328125 0.328125,0.328125 0.140625,0 0.328125,-0.09375 0.328125,-0.328125 l -0.1875,-2.085937 1.605468,1.148437 c 0.105469,0.07031 0.128907,0.09375 0.222657,0.09375 0.175781,0 0.328125,-0.175781 0.328125,-0.351562 0,-0.1875 -0.105469,-0.246094 -0.257813,-0.316406 -0.75,-0.375 -0.773437,-0.375 -1.757812,-0.84375 l 1.722656,-0.832032 c 0.199219,-0.09375 0.292969,-0.152343 0.292969,-0.339843 0,-0.1875002 -0.152344,-0.3398439 -0.328125,-0.3398439 -0.09375,0 -0.117188,0 -0.421875,0.2343749 l -1.40625,1.007812 z m 16.488281,0 c 0.01172,-0.1757813 0.01172,-0.46875 -0.304687,-0.46875 -0.199219,0 -0.363282,0.1640625 -0.328125,0.3164062 v 0.1640625 l 0.175781,1.9335934 -1.59375,-1.1601559 c -0.117188,-0.058594 -0.140625,-0.082031 -0.222656,-0.082031 -0.175782,0 -0.339844,0.1757809 -0.339844,0.3398439 0,0.199218 0.128906,0.257812 0.246094,0.316406 l 1.769531,0.84375 -1.710938,0.832031 c -0.199218,0.105469 -0.304687,0.152344 -0.304687,0.339844 0,0.1875 0.164062,0.351562 0.339844,0.351562 0.08203,0 0.105468,0 0.421875,-0.234375 l 1.394531,-1.007812 -0.1875,2.085937 c 0,0.269532 0.222656,0.328125 0.328125,0.328125 0.140625,0 0.328125,-0.09375 0.328125,-0.328125 l -0.1875,-2.085937 1.605469,1.148437 c 0.105468,0.07031 0.128906,0.09375 0.222656,0.09375 0.175781,0 0.328125,-0.175781 0.328125,-0.351562 0,-0.1875 -0.105469,-0.246094 -0.257813,-0.316406 -0.75,-0.375 -0.773437,-0.375 -1.757812,-0.84375 l 1.722656,-0.832032 c 0.199219,-0.09375 0.292969,-0.152343 0.292969,-0.339843 0,-0.1875002 -0.152344,-0.3398439 -0.328125,-0.3398439 -0.09375,0 -0.117188,0 -0.421875,0.2343749 l -1.40625,1.007812 z m 0,0"
         style="fill:#5a9cfe;fill-opacity:1;fill-rule:nonzero;stroke:none" /><path
         id="path183"
         d="m 42.735406,-2.8968359 h 0.832032 V -24.400742 h -3.984375 v 0.832031 h 3.152343 z m 0,20.6777339 h -3.152343 v 0.820313 h 3.984375 V -2.9026953 h -0.832032 z m 0,0"
         style="fill:#5a9cfe;fill-opacity:1;fill-rule:nonzero;stroke:none" /></g><path
       id="path184"
       d="M 5.8587188,-3.2001328 H 3.8665313 v -2.0039063 h -1.3125 v 2.0039063 H 0.550125 v 1.3007812 h 2.0039063 v 2.00390629 h 1.3125 V -1.8993516 h 1.9921875 z m 0,0"
       style="fill:#000000;fill-opacity:1;fill-rule:nonzero;stroke:none"
       aria-label="+"
       transform="matrix(1.3333333,0,0,1.3333333,361.704,824.552)" /><path
       id="path185"
       d="m 2609.19,2349.88 75.24,-31.2 -38.45,71.81 4.34,-40.9"
       style="fill:#da70d6;fill-opacity:1;fill-rule:nonzero;stroke:none"
       transform="matrix(0.13333333,0,0,-0.13333333,0,1122.6667)" /><path
       id="path186"
       d="m 1929.94,3002.21 720.38,-652.62"
       style="fill:none;stroke:#da70d6;stroke-width:19.9253;stroke-linecap:butt;stroke-linejoin:miter;stroke-miterlimit:10;stroke-dasharray:none;stroke-opacity:1"
       transform="matrix(0.13333333,0,0,-0.13333333,0,1122.6667)" /><path
       id="path187"
       d="m 2886.82,2243.79 -81.46,-0.81 63.54,-50.97 -20.04,35.92"
       style="fill:#da70d6;fill-opacity:1;fill-rule:nonzero;stroke:none"
       transform="matrix(0.13333333,0,0,-0.13333333,0,1122.6667)" /><path
       id="path188"
       d="m 3513.2,1998.05 -664.34,229.88"
       style="fill:none;stroke:#da70d6;stroke-width:19.9253;stroke-linecap:butt;stroke-linejoin:miter;stroke-miterlimit:10;stroke-dasharray:none;stroke-opacity:1"
       transform="matrix(0.13333333,0,0,-0.13333333,0,1122.6667)" /></g></svg>
