<?xml version="1.0" encoding="UTF-8" standalone="no"?>
<!-- Created with Inkscape (http://www.inkscape.org/) -->

<svg
   version="1.1"
   id="svg1"
   width="641.87787"
   height="175.75523"
   viewBox="0 0 641.87787 175.75523"
   sodipodi:docname="NUMPDE.pdf"
   xmlns:inkscape="http://www.inkscape.org/namespaces/inkscape"
   xmlns:sodipodi="http://sodipodi.sourceforge.net/DTD/sodipodi-0.dtd"
   xmlns="http://www.w3.org/2000/svg"
   xmlns:svg="http://www.w3.org/2000/svg">
  <defs
     id="defs1">
    <clipPath
       clipPathUnits="userSpaceOnUse"
       id="clipPath330">
      <path
         d="m 552.781,2676.37 h 4847 v 1164.04 h -4847 z m 779.089,714.17 -7.21,-10.82 -192.32,90.76 49.88,10.21 -10.22,49.89 z"
         transform="translate(0,2.5000001e-4)"
         clip-rule="evenodd"
         id="path330" />
    </clipPath>
    <clipPath
       clipPathUnits="userSpaceOnUse"
       id="clipPath332">
      <path
         d="m 552.781,2676.37 h 4847 v 1164.04 h -4847 z"
         transform="translate(0,2.5000001e-4)"
         id="path332" />
    </clipPath>
    <clipPath
       clipPathUnits="userSpaceOnUse"
       id="clipPath334">
      <path
         d="m 552.781,2676.37 h 4847 v 1164.04 h -4847 z"
         transform="translate(0,2.5000001e-4)"
         id="path334" />
    </clipPath>
    <clipPath
       clipPathUnits="userSpaceOnUse"
       id="clipPath336">
      <path
         d="m 552.781,2676.37 h 4847 v 1164.04 h -4847 z m 1860.909,713.57 -7.81,-10.22 -185.11,105.18 50.48,6.61 -6.01,50.49 z"
         transform="translate(0,2.5000001e-4)"
         clip-rule="evenodd"
         id="path336" />
    </clipPath>
    <clipPath
       clipPathUnits="userSpaceOnUse"
       id="clipPath338">
      <path
         d="m 552.781,2676.37 h 4847 v 1164.04 h -4847 z"
         transform="translate(0,2.5000001e-4)"
         id="path338" />
    </clipPath>
    <clipPath
       clipPathUnits="userSpaceOnUse"
       id="clipPath340">
      <path
         d="m 552.781,2676.37 h 4847 v 1164.04 h -4847 z"
         transform="translate(0,2.5000001e-4)"
         id="path340" />
    </clipPath>
    <clipPath
       clipPathUnits="userSpaceOnUse"
       id="clipPath342">
      <path
         d="m 552.781,2676.37 h 4847 v 1164.04 h -4847 z m 2942.719,713.57 -7.81,-10.22 -185.11,105.18 50.49,6.61 -6.02,50.49 z"
         transform="translate(0,2.5000001e-4)"
         clip-rule="evenodd"
         id="path342" />
    </clipPath>
    <clipPath
       clipPathUnits="userSpaceOnUse"
       id="clipPath344">
      <path
         d="m 552.781,2676.37 h 4847 v 1164.04 h -4847 z"
         transform="translate(0,2.5000001e-4)"
         id="path344" />
    </clipPath>
    <clipPath
       clipPathUnits="userSpaceOnUse"
       id="clipPath346">
      <path
         d="m 552.781,2676.37 h 4847 v 1164.04 h -4847 z"
         transform="translate(0,2.5000001e-4)"
         id="path346" />
    </clipPath>
    <clipPath
       clipPathUnits="userSpaceOnUse"
       id="clipPath348">
      <path
         d="m 552.781,2676.37 h 4847 v 1164.04 h -4847 z m 4024.539,713.57 -7.81,-10.22 -185.11,105.18 50.48,6.61 -6.01,50.49 z"
         transform="translate(0,2.5000001e-4)"
         clip-rule="evenodd"
         id="path348" />
    </clipPath>
    <clipPath
       clipPathUnits="userSpaceOnUse"
       id="clipPath350">
      <path
         d="m 552.781,2676.37 h 4847 v 1164.04 h -4847 z"
         transform="translate(0,2.5000001e-4)"
         id="path350" />
    </clipPath>
    <clipPath
       clipPathUnits="userSpaceOnUse"
       id="clipPath352">
      <path
         d="m 552.781,2676.37 h 4847 v 1164.04 h -4847 z"
         transform="translate(0,2.5000001e-4)"
         id="path352" />
    </clipPath>
    <clipPath
       clipPathUnits="userSpaceOnUse"
       id="clipPath354">
      <path
         d="m 552.781,2676.37 h 4847 v 1164.04 h -4847 z m 1319.999,929.93 -7.81,-10.21 -185.11,105.17 50.48,6.62 -6.01,50.48 z"
         transform="translate(0,2.5000001e-4)"
         clip-rule="evenodd"
         id="path354" />
    </clipPath>
    <clipPath
       clipPathUnits="userSpaceOnUse"
       id="clipPath356">
      <path
         d="m 552.781,2676.37 h 4847 v 1164.04 h -4847 z"
         transform="translate(0,2.5000001e-4)"
         id="path356" />
    </clipPath>
    <clipPath
       clipPathUnits="userSpaceOnUse"
       id="clipPath358">
      <path
         d="m 552.781,2676.37 h 4847 v 1164.04 h -4847 z"
         transform="translate(0,2.5000001e-4)"
         id="path358" />
    </clipPath>
    <clipPath
       clipPathUnits="userSpaceOnUse"
       id="clipPath360">
      <path
         d="m 552.781,2676.37 h 4847 v 1164.04 h -4847 z m 2401.819,929.93 -7.81,-10.21 -185.12,105.17 50.49,6.62 -6.01,50.48 z"
         transform="translate(0,2.5000001e-4)"
         clip-rule="evenodd"
         id="path360" />
    </clipPath>
    <clipPath
       clipPathUnits="userSpaceOnUse"
       id="clipPath362">
      <path
         d="m 552.781,2676.37 h 4847 v 1164.04 h -4847 z"
         transform="translate(0,2.5000001e-4)"
         id="path362" />
    </clipPath>
    <clipPath
       clipPathUnits="userSpaceOnUse"
       id="clipPath364">
      <path
         d="m 552.781,2676.37 h 4847 v 1164.04 h -4847 z"
         transform="translate(0,2.5000001e-4)"
         id="path364" />
    </clipPath>
    <clipPath
       clipPathUnits="userSpaceOnUse"
       id="clipPath366">
      <path
         d="m 552.781,2676.37 h 4847 v 1164.04 h -4847 z m 3483.629,929.93 -7.81,-10.21 -185.11,105.17 50.48,6.62 -6.01,50.48 z"
         transform="translate(0,2.5000001e-4)"
         clip-rule="evenodd"
         id="path366" />
    </clipPath>
    <clipPath
       clipPathUnits="userSpaceOnUse"
       id="clipPath368">
      <path
         d="m 552.781,2676.37 h 4847 v 1164.04 h -4847 z"
         transform="translate(0,2.5000001e-4)"
         id="path368" />
    </clipPath>
    <clipPath
       clipPathUnits="userSpaceOnUse"
       id="clipPath370">
      <path
         d="m 552.781,2676.37 h 4847 v 1164.04 h -4847 z"
         transform="translate(0,2.5000001e-4)"
         id="path370" />
    </clipPath>
    <clipPath
       clipPathUnits="userSpaceOnUse"
       id="clipPath372">
      <path
         d="m 552.781,2676.37 h 4847 v 1164.04 h -4847 z m 4511.359,929.93 -7.82,-10.21 -185.11,105.17 50.49,6.62 -6.01,50.48 z"
         transform="translate(0,2.5000001e-4)"
         clip-rule="evenodd"
         id="path372" />
    </clipPath>
    <clipPath
       clipPathUnits="userSpaceOnUse"
       id="clipPath374">
      <path
         d="m 552.781,2676.37 h 4847 v 1164.04 h -4847 z"
         transform="translate(0,2.5000001e-4)"
         id="path374" />
    </clipPath>
    <clipPath
       clipPathUnits="userSpaceOnUse"
       id="clipPath376">
      <path
         d="m 552.781,2676.37 h 4847 v 1164.04 h -4847 z"
         transform="translate(0,2.5000001e-4)"
         id="path376" />
    </clipPath>
    <clipPath
       clipPathUnits="userSpaceOnUse"
       id="clipPath378">
      <path
         d="m 552.781,2676.37 h 4847 v 1164.04 h -4847 z m 767.669,558.51 10.82,-6.01 -78.13,-197.73 -13.82,49.28 -48.68,-13.22 z"
         transform="translate(0,2.5000001e-4)"
         clip-rule="evenodd"
         id="path378" />
    </clipPath>
    <clipPath
       clipPathUnits="userSpaceOnUse"
       id="clipPath380">
      <path
         d="m 552.781,2676.37 h 4847 v 1164.04 h -4847 z"
         transform="translate(0,2.5000001e-4)"
         id="path380" />
    </clipPath>
    <clipPath
       clipPathUnits="userSpaceOnUse"
       id="clipPath382">
      <path
         d="m 552.781,2676.37 h 4847 v 1164.04 h -4847 z"
         transform="translate(0,2.5000001e-4)"
         id="path382" />
    </clipPath>
    <clipPath
       clipPathUnits="userSpaceOnUse"
       id="clipPath384">
      <path
         d="m 552.781,2676.37 h 4847 v 1164.04 h -4847 z m 1308.579,558.51 10.82,-6.01 -78.13,-197.73 -13.82,49.28 -48.69,-13.22 z"
         transform="translate(0,2.5000001e-4)"
         clip-rule="evenodd"
         id="path384" />
    </clipPath>
    <clipPath
       clipPathUnits="userSpaceOnUse"
       id="clipPath386">
      <path
         d="m 552.781,2676.37 h 4847 v 1164.04 h -4847 z"
         transform="translate(0,2.5000001e-4)"
         id="path386" />
    </clipPath>
    <clipPath
       clipPathUnits="userSpaceOnUse"
       id="clipPath388">
      <path
         d="m 552.781,2676.37 h 4847 v 1164.04 h -4847 z"
         transform="translate(0,2.5000001e-4)"
         id="path388" />
    </clipPath>
    <clipPath
       clipPathUnits="userSpaceOnUse"
       id="clipPath390">
      <path
         d="m 552.781,2676.37 h 4847 v 1164.04 h -4847 z m 1849.489,558.51 10.82,-6.01 -78.13,-197.73 -13.83,49.28 -48.68,-13.22 z"
         transform="translate(0,2.5000001e-4)"
         clip-rule="evenodd"
         id="path390" />
    </clipPath>
    <clipPath
       clipPathUnits="userSpaceOnUse"
       id="clipPath392">
      <path
         d="m 552.781,2676.37 h 4847 v 1164.04 h -4847 z"
         transform="translate(0,2.5000001e-4)"
         id="path392" />
    </clipPath>
    <clipPath
       clipPathUnits="userSpaceOnUse"
       id="clipPath394">
      <path
         d="m 552.781,2676.37 h 4847 v 1164.04 h -4847 z"
         transform="translate(0,2.5000001e-4)"
         id="path394" />
    </clipPath>
    <clipPath
       clipPathUnits="userSpaceOnUse"
       id="clipPath396">
      <path
         d="m 552.781,2676.37 h 4847 v 1164.04 h -4847 z m 2390.399,558.51 10.82,-6.01 -78.14,-197.73 -13.82,49.28 -48.68,-13.22 z"
         transform="translate(0,2.5000001e-4)"
         clip-rule="evenodd"
         id="path396" />
    </clipPath>
    <clipPath
       clipPathUnits="userSpaceOnUse"
       id="clipPath398">
      <path
         d="m 552.781,2676.37 h 4847 v 1164.04 h -4847 z"
         transform="translate(0,2.5000001e-4)"
         id="path398" />
    </clipPath>
    <clipPath
       clipPathUnits="userSpaceOnUse"
       id="clipPath400">
      <path
         d="m 552.781,2676.37 h 4847 v 1164.04 h -4847 z"
         transform="translate(0,2.5000001e-4)"
         id="path400" />
    </clipPath>
    <clipPath
       clipPathUnits="userSpaceOnUse"
       id="clipPath402">
      <path
         d="m 552.781,2676.37 h 4847 v 1164.04 h -4847 z m 2931.309,558.51 10.81,-6.01 -78.13,-197.73 -13.82,49.28 -48.68,-13.22 z"
         transform="translate(0,2.5000001e-4)"
         clip-rule="evenodd"
         id="path402" />
    </clipPath>
    <clipPath
       clipPathUnits="userSpaceOnUse"
       id="clipPath404">
      <path
         d="m 552.781,2676.37 h 4847 v 1164.04 h -4847 z"
         transform="translate(0,2.5000001e-4)"
         id="path404" />
    </clipPath>
    <clipPath
       clipPathUnits="userSpaceOnUse"
       id="clipPath406">
      <path
         d="m 552.781,2676.37 h 4847 v 1164.04 h -4847 z"
         transform="translate(0,2.5000001e-4)"
         id="path406" />
    </clipPath>
    <clipPath
       clipPathUnits="userSpaceOnUse"
       id="clipPath408">
      <path
         d="m 552.781,2676.37 h 4847 v 1164.04 h -4847 z m 3472.209,558.51 10.82,-6.01 -78.13,-197.73 -13.82,49.28 -48.68,-13.22 z"
         transform="translate(0,2.5000001e-4)"
         clip-rule="evenodd"
         id="path408" />
    </clipPath>
    <clipPath
       clipPathUnits="userSpaceOnUse"
       id="clipPath410">
      <path
         d="m 552.781,2676.37 h 4847 v 1164.04 h -4847 z"
         transform="translate(0,2.5000001e-4)"
         id="path410" />
    </clipPath>
    <clipPath
       clipPathUnits="userSpaceOnUse"
       id="clipPath412">
      <path
         d="m 552.781,2676.37 h 4847 v 1164.04 h -4847 z"
         transform="translate(0,2.5000001e-4)"
         id="path412" />
    </clipPath>
    <clipPath
       clipPathUnits="userSpaceOnUse"
       id="clipPath414">
      <path
         d="m 552.781,2676.37 h 4847 v 1164.04 h -4847 z m 4013.119,558.51 10.82,-6.01 -78.13,-197.73 -13.82,49.28 -48.69,-13.22 z"
         transform="translate(0,2.5000001e-4)"
         clip-rule="evenodd"
         id="path414" />
    </clipPath>
    <clipPath
       clipPathUnits="userSpaceOnUse"
       id="clipPath416">
      <path
         d="m 552.781,2676.37 h 4847 v 1164.04 h -4847 z"
         transform="translate(0,2.5000001e-4)"
         id="path416" />
    </clipPath>
    <clipPath
       clipPathUnits="userSpaceOnUse"
       id="clipPath418">
      <path
         d="m 552.781,2676.37 h 4847 v 1164.04 h -4847 z"
         transform="translate(0,2.5000001e-4)"
         id="path418" />
    </clipPath>
    <clipPath
       clipPathUnits="userSpaceOnUse"
       id="clipPath420">
      <path
         d="m 552.781,2676.37 h 4847 v 1164.04 h -4847 z m 4554.029,558.51 10.82,-6.01 -78.13,-197.73 -13.83,49.28 -48.68,-13.22 z"
         transform="translate(0,2.5000001e-4)"
         clip-rule="evenodd"
         id="path420" />
    </clipPath>
    <clipPath
       clipPathUnits="userSpaceOnUse"
       id="clipPath422">
      <path
         d="m 552.781,2676.37 h 4847 v 1164.04 h -4847 z"
         transform="translate(0,2.5000001e-4)"
         id="path422" />
    </clipPath>
    <clipPath
       clipPathUnits="userSpaceOnUse"
       id="clipPath424">
      <path
         d="m 552.781,2676.37 h 4847 v 1164.04 h -4847 z"
         transform="translate(0,2.5000001e-4)"
         id="path424" />
    </clipPath>
    <clipPath
       clipPathUnits="userSpaceOnUse"
       id="clipPath426">
      <path
         d="m 552.781,2676.37 h 4847 v 1164.04 h -4847 z m 4565.449,795.31 -7.21,-10.82 -192.32,90.75 49.88,10.22 -10.22,49.88 z"
         transform="translate(0,2.5000001e-4)"
         clip-rule="evenodd"
         id="path426" />
    </clipPath>
    <clipPath
       clipPathUnits="userSpaceOnUse"
       id="clipPath428">
      <path
         d="m 552.781,2676.37 h 4847 v 1164.04 h -4847 z"
         transform="translate(0,2.5000001e-4)"
         id="path428" />
    </clipPath>
    <clipPath
       clipPathUnits="userSpaceOnUse"
       id="clipPath430">
      <path
         d="m 552.781,2676.37 h 4847 v 1164.04 h -4847 z"
         transform="translate(0,2.5000001e-4)"
         id="path430" />
    </clipPath>
    <clipPath
       clipPathUnits="userSpaceOnUse"
       id="clipPath432">
      <path
         d="m 552.781,2676.37 h 4847 v 1164.04 h -4847 z m 4833.499,556.11 v -12.62 l -170.69,-29.45 144.25,36.05 -144.25,36.07 z"
         transform="translate(0,2.5000001e-4)"
         clip-rule="evenodd"
         id="path432" />
    </clipPath>
    <clipPath
       clipPathUnits="userSpaceOnUse"
       id="clipPath434">
      <path
         d="m 552.781,2676.37 h 4847 v 1164.04 h -4847 z"
         transform="translate(0,2.5000001e-4)"
         id="path434" />
    </clipPath>
    <clipPath
       clipPathUnits="userSpaceOnUse"
       id="clipPath436">
      <path
         d="m 552.781,2676.37 h 4847 v 1164.04 h -4847 z"
         transform="translate(0,2.5000001e-4)"
         id="path436" />
    </clipPath>
    <clipPath
       clipPathUnits="userSpaceOnUse"
       id="clipPath438">
      <path
         d="m 552.781,2676.37 h 4847 v 1164.04 h -4847 z"
         transform="translate(0,2.5000001e-4)"
         id="path438" />
    </clipPath>
    <clipPath
       clipPathUnits="userSpaceOnUse"
       id="clipPath440">
      <path
         d="m 552.781,2676.37 h 4847 v 1164.04 h -4847 z"
         transform="translate(0,2.5000001e-4)"
         id="path440" />
    </clipPath>
    <clipPath
       clipPathUnits="userSpaceOnUse"
       id="clipPath442">
      <path
         d="m 552.781,2676.37 h 4847 v 1164.04 h -4847 z"
         transform="translate(0,2.5000001e-4)"
         id="path442" />
    </clipPath>
    <clipPath
       clipPathUnits="userSpaceOnUse"
       id="clipPath444">
      <path
         d="m 552.781,2676.37 h 4847 v 1164.04 h -4847 z"
         transform="translate(0,2.5000001e-4)"
         id="path444" />
    </clipPath>
    <clipPath
       clipPathUnits="userSpaceOnUse"
       id="clipPath446">
      <path
         d="m 552.781,2676.37 h 4847 v 1164.04 h -4847 z"
         transform="translate(0,2.5000001e-4)"
         id="path446" />
    </clipPath>
  </defs>
  <sodipodi:namedview
     id="namedview1"
     pagecolor="#505050"
     bordercolor="#eeeeee"
     borderopacity="1"
     inkscape:showpageshadow="0"
     inkscape:pageopacity="0"
     inkscape:pagecheckerboard="0"
     inkscape:deskcolor="#505050" />
  <g
     id="g1"
     inkscape:groupmode="layer"
     inkscape:label="664"
     transform="translate(-75.411469,-612.53775)">
    <path
       id="path329"
       d="m 781.965,3334.64 c 62.074,101.2 172.273,162.88 290.995,162.88 94.78,0 185.31,-39.41 249.88,-108.79"
       style="fill:none;stroke:#f2b6bc;stroke-width:9.01513;stroke-linecap:butt;stroke-linejoin:miter;stroke-miterlimit:10;stroke-dasharray:none;stroke-opacity:1"
       transform="matrix(0.13333333,0,0,-0.13333333,0,1122.6667)"
       clip-path="url(#clipPath330)" />
    <path
       id="path331"
       d="m 1132.34,3470.48 170.68,-68.52 -131.02,128.62 10.22,-49.89 -49.88,-10.21"
       style="fill:#ff0000;fill-opacity:1;fill-rule:evenodd;stroke:none"
       transform="matrix(0.13333333,0,0,-0.13333333,0,1122.6667)"
       clip-path="url(#clipPath332)" />
    <path
       id="path333"
       d="m 1132.34,3470.48 170.68,-68.52 -131.02,128.62 10.22,-49.89 z"
       style="fill:#f2b6bc;stroke:#f2b6bc;stroke-width:9.01513;stroke-linecap:butt;stroke-linejoin:miter;stroke-miterlimit:10;stroke-dasharray:none;stroke-opacity:1"
       transform="matrix(0.13333333,0,0,-0.13333333,0,1122.6667)"
       clip-path="url(#clipPath334)" />
    <path
       id="path335"
       d="m 1322.86,3388.74 c 145.83,138.89 339.52,216.36 540.91,216.36 201.39,0 395.07,-77.47 540.9,-216.36"
       style="fill:none;stroke:#f2b6bc;stroke-width:9.01513;stroke-linecap:butt;stroke-linejoin:miter;stroke-miterlimit:10;stroke-dasharray:none;stroke-opacity:1"
       transform="matrix(0.13333333,0,0,-0.13333333,0,1122.6667)"
       clip-path="url(#clipPath336)" />
    <path
       id="path337"
       d="m 2220.77,3484.9 165.27,-81.74 -120.8,138.84 6.01,-50.49 -50.48,-6.61"
       style="fill:#ff0000;fill-opacity:1;fill-rule:evenodd;stroke:none"
       transform="matrix(0.13333333,0,0,-0.13333333,0,1122.6667)"
       clip-path="url(#clipPath338)" />
    <path
       id="path339"
       d="m 2220.77,3484.9 165.27,-81.74 -120.8,138.84 6.01,-50.49 z"
       style="fill:#f2b6bc;stroke:#f2b6bc;stroke-width:9.01513;stroke-linecap:butt;stroke-linejoin:miter;stroke-miterlimit:10;stroke-dasharray:none;stroke-opacity:1"
       transform="matrix(0.13333333,0,0,-0.13333333,0,1122.6667)"
       clip-path="url(#clipPath340)" />
    <path
       id="path341"
       d="m 2404.67,3388.74 c 145.84,138.89 339.52,216.36 540.91,216.36 201.39,0 395.07,-77.47 540.91,-216.36"
       style="fill:none;stroke:#f2b6bc;stroke-width:9.01513;stroke-linecap:butt;stroke-linejoin:miter;stroke-miterlimit:10;stroke-dasharray:none;stroke-opacity:1"
       transform="matrix(0.13333333,0,0,-0.13333333,0,1122.6667)"
       clip-path="url(#clipPath342)" />
    <path
       id="path343"
       d="m 3302.58,3484.9 165.28,-81.74 -120.81,138.84 6.02,-50.49 -50.49,-6.61"
       style="fill:#ff0000;fill-opacity:1;fill-rule:evenodd;stroke:none"
       transform="matrix(0.13333333,0,0,-0.13333333,0,1122.6667)"
       clip-path="url(#clipPath344)" />
    <path
       id="path345"
       d="m 3302.58,3484.9 165.28,-81.74 -120.81,138.84 6.02,-50.49 z"
       style="fill:#f2b6bc;stroke:#f2b6bc;stroke-width:9.01513;stroke-linecap:butt;stroke-linejoin:miter;stroke-miterlimit:10;stroke-dasharray:none;stroke-opacity:1"
       transform="matrix(0.13333333,0,0,-0.13333333,0,1122.6667)"
       clip-path="url(#clipPath346)" />
    <path
       id="path347"
       d="m 3486.49,3388.74 c 145.83,138.89 339.52,216.36 540.91,216.36 201.39,0 395.07,-77.47 540.9,-216.36"
       style="fill:none;stroke:#f0b6d3;stroke-width:9.01513;stroke-linecap:butt;stroke-linejoin:miter;stroke-miterlimit:10;stroke-dasharray:none;stroke-opacity:1"
       transform="matrix(0.13333333,0,0,-0.13333333,0,1122.6667)"
       clip-path="url(#clipPath348)" />
    <path
       id="path349"
       d="m 4384.4,3484.9 165.28,-81.74 -120.81,138.84 6.01,-50.49 -50.48,-6.61"
       style="fill:#ff0000;fill-opacity:1;fill-rule:evenodd;stroke:none"
       transform="matrix(0.13333333,0,0,-0.13333333,0,1122.6667)"
       clip-path="url(#clipPath350)" />
    <path
       id="path351"
       d="m 4384.4,3484.9 165.28,-81.74 -120.81,138.84 6.01,-50.49 z"
       style="fill:#f0b6d3;stroke:#f0b6d3;stroke-width:9.01513;stroke-linecap:butt;stroke-linejoin:miter;stroke-miterlimit:10;stroke-dasharray:none;stroke-opacity:1"
       transform="matrix(0.13333333,0,0,-0.13333333,0,1122.6667)"
       clip-path="url(#clipPath352)" />
    <path
       id="path353"
       d="m 781.949,3605.1 c 145.836,138.89 339.511,216.36 540.911,216.36 201.39,0 395.07,-77.47 540.91,-216.36"
       style="fill:none;stroke:#b2dfbc;stroke-width:9.01513;stroke-linecap:butt;stroke-linejoin:miter;stroke-miterlimit:10;stroke-dasharray:none;stroke-opacity:1"
       transform="matrix(0.13333333,0,0,-0.13333333,0,1122.6667)"
       clip-path="url(#clipPath354)" />
    <path
       id="path355"
       d="m 1679.86,3701.26 165.27,-81.73 -120.8,138.83 6.01,-50.48 -50.48,-6.62"
       style="fill:#008f00;fill-opacity:1;fill-rule:evenodd;stroke:none"
       transform="matrix(0.13333333,0,0,-0.13333333,0,1122.6667)"
       clip-path="url(#clipPath356)" />
    <path
       id="path357"
       d="m 1679.86,3701.26 165.27,-81.73 -120.8,138.83 6.01,-50.48 z"
       style="fill:#b2dfbc;stroke:#b2dfbc;stroke-width:9.01513;stroke-linecap:butt;stroke-linejoin:miter;stroke-miterlimit:10;stroke-dasharray:none;stroke-opacity:1"
       transform="matrix(0.13333333,0,0,-0.13333333,0,1122.6667)"
       clip-path="url(#clipPath358)" />
    <path
       id="path359"
       d="m 1863.77,3605.1 c 145.83,138.89 339.51,216.36 540.9,216.36 201.39,0 395.08,-77.47 540.91,-216.36"
       style="fill:none;stroke:#b2dfbc;stroke-width:9.01513;stroke-linecap:butt;stroke-linejoin:miter;stroke-miterlimit:10;stroke-dasharray:none;stroke-opacity:1"
       transform="matrix(0.13333333,0,0,-0.13333333,0,1122.6667)"
       clip-path="url(#clipPath360)" />
    <path
       id="path361"
       d="m 2761.67,3701.26 165.28,-81.73 -120.8,138.83 6.01,-50.48 -50.49,-6.62"
       style="fill:#008f00;fill-opacity:1;fill-rule:evenodd;stroke:none"
       transform="matrix(0.13333333,0,0,-0.13333333,0,1122.6667)"
       clip-path="url(#clipPath362)" />
    <path
       id="path363"
       d="m 2761.67,3701.26 165.28,-81.73 -120.8,138.83 6.01,-50.48 z"
       style="fill:#b2dfbc;stroke:#b2dfbc;stroke-width:9.01513;stroke-linecap:butt;stroke-linejoin:miter;stroke-miterlimit:10;stroke-dasharray:none;stroke-opacity:1"
       transform="matrix(0.13333333,0,0,-0.13333333,0,1122.6667)"
       clip-path="url(#clipPath364)" />
    <path
       id="path365"
       d="m 2945.58,3605.1 c 145.84,138.89 339.52,216.36 540.91,216.36 201.39,0 395.07,-77.47 540.91,-216.36"
       style="fill:none;stroke:#b2dfbc;stroke-width:9.01513;stroke-linecap:butt;stroke-linejoin:miter;stroke-miterlimit:10;stroke-dasharray:none;stroke-opacity:1"
       transform="matrix(0.13333333,0,0,-0.13333333,0,1122.6667)"
       clip-path="url(#clipPath366)" />
    <path
       id="path367"
       d="m 3843.49,3701.26 165.28,-81.73 -120.81,138.83 6.01,-50.48 -50.48,-6.62"
       style="fill:#008f00;fill-opacity:1;fill-rule:evenodd;stroke:none"
       transform="matrix(0.13333333,0,0,-0.13333333,0,1122.6667)"
       clip-path="url(#clipPath368)" />
    <path
       id="path369"
       d="m 3843.49,3701.26 165.28,-81.73 -120.81,138.83 6.01,-50.48 z"
       style="fill:#b2dfbc;stroke:#b2dfbc;stroke-width:9.01513;stroke-linecap:butt;stroke-linejoin:miter;stroke-miterlimit:10;stroke-dasharray:none;stroke-opacity:1"
       transform="matrix(0.13333333,0,0,-0.13333333,0,1122.6667)"
       clip-path="url(#clipPath370)" />
    <path
       id="path371"
       d="m 3973.31,3605.1 c 145.83,138.89 339.51,216.36 540.9,216.36 201.4,0 395.08,-77.47 540.91,-216.36"
       style="fill:none;stroke:#b2dfbc;stroke-width:9.01513;stroke-linecap:butt;stroke-linejoin:miter;stroke-miterlimit:10;stroke-dasharray:none;stroke-opacity:1"
       transform="matrix(0.13333333,0,0,-0.13333333,0,1122.6667)"
       clip-path="url(#clipPath372)" />
    <path
       id="path373"
       d="m 4871.21,3701.26 165.28,-81.73 -120.8,138.83 6.01,-50.48 -50.49,-6.62"
       style="fill:#008f00;fill-opacity:1;fill-rule:evenodd;stroke:none"
       transform="matrix(0.13333333,0,0,-0.13333333,0,1122.6667)"
       clip-path="url(#clipPath374)" />
    <path
       id="path375"
       d="m 4871.21,3701.26 165.28,-81.73 -120.8,138.83 6.01,-50.48 z"
       style="fill:#b2dfbc;stroke:#b2dfbc;stroke-width:9.01513;stroke-linecap:butt;stroke-linejoin:miter;stroke-miterlimit:10;stroke-dasharray:none;stroke-opacity:1"
       transform="matrix(0.13333333,0,0,-0.13333333,0,1122.6667)"
       clip-path="url(#clipPath376)" />
    <path
       id="path377"
       d="m 1322.83,3226.44 c -28.46,-126.48 -140.79,-216.34 -270.43,-216.34 -129.634,0 -241.966,89.86 -270.423,216.34"
       style="fill:none;stroke:#a8cbfe;stroke-width:9.01513;stroke-linecap:butt;stroke-linejoin:miter;stroke-miterlimit:10;stroke-dasharray:none;stroke-opacity:1"
       transform="matrix(0.13333333,0,0,-0.13333333,0,1122.6667)"
       clip-path="url(#clipPath378)" />
    <path
       id="path379"
       d="m 1253.14,3031.14 57.7,174.89 -120.2,-138.83 48.68,13.22 13.82,-49.28"
       style="fill:#0000ff;fill-opacity:1;fill-rule:evenodd;stroke:none"
       transform="matrix(0.13333333,0,0,-0.13333333,0,1122.6667)"
       clip-path="url(#clipPath380)" />
    <path
       id="path381"
       d="m 1253.14,3031.14 57.7,174.89 -120.2,-138.83 48.68,13.22 z"
       style="fill:#a8cbfe;stroke:#a8cbfe;stroke-width:9.01513;stroke-linecap:butt;stroke-linejoin:miter;stroke-miterlimit:10;stroke-dasharray:none;stroke-opacity:1"
       transform="matrix(0.13333333,0,0,-0.13333333,0,1122.6667)"
       clip-path="url(#clipPath382)" />
    <path
       id="path383"
       d="m 1863.73,3226.44 c -28.45,-126.48 -140.78,-216.34 -270.42,-216.34 -129.64,0 -241.97,89.86 -270.42,216.34"
       style="fill:none;stroke:#a8cbfe;stroke-width:9.01513;stroke-linecap:butt;stroke-linejoin:miter;stroke-miterlimit:10;stroke-dasharray:none;stroke-opacity:1"
       transform="matrix(0.13333333,0,0,-0.13333333,0,1122.6667)"
       clip-path="url(#clipPath384)" />
    <path
       id="path385"
       d="m 1794.05,3031.14 57.7,174.89 -120.21,-138.83 48.69,13.22 13.82,-49.28"
       style="fill:#0000ff;fill-opacity:1;fill-rule:evenodd;stroke:none"
       transform="matrix(0.13333333,0,0,-0.13333333,0,1122.6667)"
       clip-path="url(#clipPath386)" />
    <path
       id="path387"
       d="m 1794.05,3031.14 57.7,174.89 -120.21,-138.83 48.69,13.22 z"
       style="fill:#a8cbfe;stroke:#a8cbfe;stroke-width:9.01513;stroke-linecap:butt;stroke-linejoin:miter;stroke-miterlimit:10;stroke-dasharray:none;stroke-opacity:1"
       transform="matrix(0.13333333,0,0,-0.13333333,0,1122.6667)"
       clip-path="url(#clipPath388)" />
    <path
       id="path389"
       d="m 2404.64,3226.44 c -28.45,-126.48 -140.78,-216.34 -270.42,-216.34 -129.64,0 -241.97,89.86 -270.43,216.34"
       style="fill:none;stroke:#a8cbfe;stroke-width:9.01513;stroke-linecap:butt;stroke-linejoin:miter;stroke-miterlimit:10;stroke-dasharray:none;stroke-opacity:1"
       transform="matrix(0.13333333,0,0,-0.13333333,0,1122.6667)"
       clip-path="url(#clipPath390)" />
    <path
       id="path391"
       d="m 2334.96,3031.14 57.69,174.89 -120.2,-138.83 48.68,13.22 13.83,-49.28"
       style="fill:#0000ff;fill-opacity:1;fill-rule:evenodd;stroke:none"
       transform="matrix(0.13333333,0,0,-0.13333333,0,1122.6667)"
       clip-path="url(#clipPath392)" />
    <path
       id="path393"
       d="m 2334.96,3031.14 57.69,174.89 -120.2,-138.83 48.68,13.22 z"
       style="fill:#a8cbfe;stroke:#a8cbfe;stroke-width:9.01513;stroke-linecap:butt;stroke-linejoin:miter;stroke-miterlimit:10;stroke-dasharray:none;stroke-opacity:1"
       transform="matrix(0.13333333,0,0,-0.13333333,0,1122.6667)"
       clip-path="url(#clipPath394)" />
    <path
       id="path395"
       d="m 2945.55,3226.44 c -28.46,-126.48 -140.78,-216.34 -270.42,-216.34 -129.64,0 -241.97,89.86 -270.43,216.34"
       style="fill:none;stroke:#a8cbfe;stroke-width:9.01513;stroke-linecap:butt;stroke-linejoin:miter;stroke-miterlimit:10;stroke-dasharray:none;stroke-opacity:1"
       transform="matrix(0.13333333,0,0,-0.13333333,0,1122.6667)"
       clip-path="url(#clipPath396)" />
    <path
       id="path397"
       d="m 2875.86,3031.14 57.7,174.89 -120.2,-138.83 48.68,13.22 13.82,-49.28"
       style="fill:#0000ff;fill-opacity:1;fill-rule:evenodd;stroke:none"
       transform="matrix(0.13333333,0,0,-0.13333333,0,1122.6667)"
       clip-path="url(#clipPath398)" />
    <path
       id="path399"
       d="m 2875.86,3031.14 57.7,174.89 -120.2,-138.83 48.68,13.22 z"
       style="fill:#a8cbfe;stroke:#a8cbfe;stroke-width:9.01513;stroke-linecap:butt;stroke-linejoin:miter;stroke-miterlimit:10;stroke-dasharray:none;stroke-opacity:1"
       transform="matrix(0.13333333,0,0,-0.13333333,0,1122.6667)"
       clip-path="url(#clipPath400)" />
    <path
       id="path401"
       d="M 3486.46,3226.44 C 3458,3099.96 3345.68,3010.1 3216.04,3010.1 c -129.65,0 -241.97,89.86 -270.43,216.34"
       style="fill:none;stroke:#a8cbfe;stroke-width:9.01513;stroke-linecap:butt;stroke-linejoin:miter;stroke-miterlimit:10;stroke-dasharray:none;stroke-opacity:1"
       transform="matrix(0.13333333,0,0,-0.13333333,0,1122.6667)"
       clip-path="url(#clipPath402)" />
    <path
       id="path403"
       d="m 3416.77,3031.14 57.7,174.89 -120.2,-138.83 48.68,13.22 13.82,-49.28"
       style="fill:#0000ff;fill-opacity:1;fill-rule:evenodd;stroke:none"
       transform="matrix(0.13333333,0,0,-0.13333333,0,1122.6667)"
       clip-path="url(#clipPath404)" />
    <path
       id="path405"
       d="m 3416.77,3031.14 57.7,174.89 -120.2,-138.83 48.68,13.22 z"
       style="fill:#a8cbfe;stroke:#a8cbfe;stroke-width:9.01513;stroke-linecap:butt;stroke-linejoin:miter;stroke-miterlimit:10;stroke-dasharray:none;stroke-opacity:1"
       transform="matrix(0.13333333,0,0,-0.13333333,0,1122.6667)"
       clip-path="url(#clipPath406)" />
    <path
       id="path407"
       d="m 4027.37,3226.44 c -28.46,-126.48 -140.79,-216.34 -270.43,-216.34 -129.64,0 -241.96,89.86 -270.42,216.34"
       style="fill:none;stroke:#a8cbfe;stroke-width:9.01513;stroke-linecap:butt;stroke-linejoin:miter;stroke-miterlimit:10;stroke-dasharray:none;stroke-opacity:1"
       transform="matrix(0.13333333,0,0,-0.13333333,0,1122.6667)"
       clip-path="url(#clipPath408)" />
    <path
       id="path409"
       d="m 3957.68,3031.14 57.7,174.89 -120.2,-138.83 48.68,13.22 13.82,-49.28"
       style="fill:#0000ff;fill-opacity:1;fill-rule:evenodd;stroke:none"
       transform="matrix(0.13333333,0,0,-0.13333333,0,1122.6667)"
       clip-path="url(#clipPath410)" />
    <path
       id="path411"
       d="m 3957.68,3031.14 57.7,174.89 -120.2,-138.83 48.68,13.22 z"
       style="fill:#a8cbfe;stroke:#a8cbfe;stroke-width:9.01513;stroke-linecap:butt;stroke-linejoin:miter;stroke-miterlimit:10;stroke-dasharray:none;stroke-opacity:1"
       transform="matrix(0.13333333,0,0,-0.13333333,0,1122.6667)"
       clip-path="url(#clipPath412)" />
    <path
       id="path413"
       d="m 4568.28,3226.44 c -28.46,-126.48 -140.79,-216.34 -270.43,-216.34 -129.64,0 -241.97,89.86 -270.42,216.34"
       style="fill:none;stroke:#a8cbfe;stroke-width:9.01513;stroke-linecap:butt;stroke-linejoin:miter;stroke-miterlimit:10;stroke-dasharray:none;stroke-opacity:1"
       transform="matrix(0.13333333,0,0,-0.13333333,0,1122.6667)"
       clip-path="url(#clipPath414)" />
    <path
       id="path415"
       d="m 4498.59,3031.14 57.7,174.89 -120.21,-138.83 48.69,13.22 13.82,-49.28"
       style="fill:#0000ff;fill-opacity:1;fill-rule:evenodd;stroke:none"
       transform="matrix(0.13333333,0,0,-0.13333333,0,1122.6667)"
       clip-path="url(#clipPath416)" />
    <path
       id="path417"
       d="m 4498.59,3031.14 57.7,174.89 -120.21,-138.83 48.69,13.22 z"
       style="fill:#a8cbfe;stroke:#a8cbfe;stroke-width:9.01513;stroke-linecap:butt;stroke-linejoin:miter;stroke-miterlimit:10;stroke-dasharray:none;stroke-opacity:1"
       transform="matrix(0.13333333,0,0,-0.13333333,0,1122.6667)"
       clip-path="url(#clipPath418)" />
    <path
       id="path419"
       d="m 5109.18,3226.44 c -28.45,-126.48 -140.78,-216.34 -270.42,-216.34 -129.64,0 -241.97,89.86 -270.42,216.34"
       style="fill:none;stroke:#a8cbfe;stroke-width:9.01513;stroke-linecap:butt;stroke-linejoin:miter;stroke-miterlimit:10;stroke-dasharray:none;stroke-opacity:1"
       transform="matrix(0.13333333,0,0,-0.13333333,0,1122.6667)"
       clip-path="url(#clipPath420)" />
    <path
       id="path421"
       d="m 5039.5,3031.14 57.69,174.89 -120.2,-138.83 48.68,13.22 13.83,-49.28"
       style="fill:#0000ff;fill-opacity:1;fill-rule:evenodd;stroke:none"
       transform="matrix(0.13333333,0,0,-0.13333333,0,1122.6667)"
       clip-path="url(#clipPath422)" />
    <path
       id="path423"
       d="m 5039.5,3031.14 57.69,174.89 -120.2,-138.83 48.68,13.22 z"
       style="fill:#a8cbfe;stroke:#a8cbfe;stroke-width:9.01513;stroke-linecap:butt;stroke-linejoin:miter;stroke-miterlimit:10;stroke-dasharray:none;stroke-opacity:1"
       transform="matrix(0.13333333,0,0,-0.13333333,0,1122.6667)"
       clip-path="url(#clipPath424)" />
    <path
       id="path425"
       d="m 4568.32,3415.77 c 62.07,101.2 172.27,162.89 290.99,162.89 94.79,0 185.32,-39.41 249.89,-108.8"
       style="fill:none;stroke:#f0b6d3;stroke-width:9.01513;stroke-linecap:butt;stroke-linejoin:miter;stroke-miterlimit:10;stroke-dasharray:none;stroke-opacity:1"
       transform="matrix(0.13333333,0,0,-0.13333333,0,1122.6667)"
       clip-path="url(#clipPath426)" />
    <path
       id="path427"
       d="m 4918.7,3551.61 170.68,-68.51 -131.02,128.61 10.22,-49.88 -49.88,-10.22"
       style="fill:#ff0000;fill-opacity:1;fill-rule:evenodd;stroke:none"
       transform="matrix(0.13333333,0,0,-0.13333333,0,1122.6667)"
       clip-path="url(#clipPath428)" />
    <path
       id="path429"
       d="m 4918.7,3551.61 170.68,-68.51 -131.02,128.61 10.22,-49.88 z"
       style="fill:#f2b6bc;stroke:#f2b6bc;stroke-width:9.01513;stroke-linecap:butt;stroke-linejoin:miter;stroke-miterlimit:10;stroke-dasharray:none;stroke-opacity:1"
       transform="matrix(0.13333333,0,0,-0.13333333,0,1122.6667)"
       clip-path="url(#clipPath430)" />
    <path
       id="path431"
       d="M 565.586,3226.46 H 5379.67"
       style="fill:none;stroke:#000000;stroke-width:9.01513;stroke-linecap:butt;stroke-linejoin:miter;stroke-miterlimit:10;stroke-dasharray:none;stroke-opacity:1"
       transform="matrix(0.13333333,0,0,-0.13333333,0,1122.6667)"
       clip-path="url(#clipPath432)" />
    <path
       id="path433"
       d="m 5215.59,3262.53 144.25,-36.07 -144.25,-36.05"
       style="fill:none;stroke:#000000;stroke-width:9.01513;stroke-linecap:butt;stroke-linejoin:miter;stroke-miterlimit:10;stroke-dasharray:none;stroke-opacity:1"
       transform="matrix(0.13333333,0,0,-0.13333333,0,1122.6667)"
       clip-path="url(#clipPath434)" />
    <path
       id="path435"
       d="M 1322.86,3280.56 V 3172.38"
       style="fill:none;stroke:#000000;stroke-width:9.01513;stroke-linecap:butt;stroke-linejoin:miter;stroke-miterlimit:10;stroke-dasharray:none;stroke-opacity:1"
       transform="matrix(0.13333333,0,0,-0.13333333,0,1122.6667)"
       clip-path="url(#clipPath436)" />
    <path
       id="path437"
       d="M 781.949,3280.56 V 3172.38"
       style="fill:none;stroke:#000000;stroke-width:9.01513;stroke-linecap:butt;stroke-linejoin:miter;stroke-miterlimit:10;stroke-dasharray:none;stroke-opacity:1"
       transform="matrix(0.13333333,0,0,-0.13333333,0,1122.6667)"
       clip-path="url(#clipPath438)" />
    <path
       id="path439"
       d="M 1863.77,3280.56 V 3172.38"
       style="fill:none;stroke:#000000;stroke-width:9.01513;stroke-linecap:butt;stroke-linejoin:miter;stroke-miterlimit:10;stroke-dasharray:none;stroke-opacity:1"
       transform="matrix(0.13333333,0,0,-0.13333333,0,1122.6667)"
       clip-path="url(#clipPath440)" />
    <path
       id="path441"
       d="M 2945.58,3280.56 V 3172.38"
       style="fill:none;stroke:#000000;stroke-width:9.01513;stroke-linecap:butt;stroke-linejoin:miter;stroke-miterlimit:10;stroke-dasharray:none;stroke-opacity:1"
       transform="matrix(0.13333333,0,0,-0.13333333,0,1122.6667)"
       clip-path="url(#clipPath442)" />
    <path
       id="path443"
       d="M 4027.4,3280.56 V 3172.38"
       style="fill:none;stroke:#000000;stroke-width:9.01513;stroke-linecap:butt;stroke-linejoin:miter;stroke-miterlimit:10;stroke-dasharray:none;stroke-opacity:1"
       transform="matrix(0.13333333,0,0,-0.13333333,0,1122.6667)"
       clip-path="url(#clipPath444)" />
    <path
       id="path445"
       d="M 5109.21,3280.56 V 3172.38"
       style="fill:none;stroke:#000000;stroke-width:9.01513;stroke-linecap:butt;stroke-linejoin:miter;stroke-miterlimit:10;stroke-dasharray:none;stroke-opacity:1"
       transform="matrix(0.13333333,0,0,-0.13333333,0,1122.6667)"
       clip-path="url(#clipPath446)" />
    <g
       id="g446"
       aria-label="t&#10;0&#10;t&#10;1&#10;t&#10;2&#10;t&#10;3&#10;t&#10;4"
       transform="matrix(1.3333333,0,0,1.3333333,104.662,764.592)">
      <path
         id="path447"
         d="m 1.4986172,-4.66275 -0.67968751,3.3867188 c -0.0117188,0.082031 -0.0234375,0.1054687 -0.0585938,0.2460937 -0.0703125,0.33984375 -0.09375,0.515625 -0.09375,0.65625 0,0.3046875 0.12890625,0.48046875 0.36328121,0.48046875 0.4101562,0 0.8320312,-0.234375 1.7695312,-0.984375 l 0.1757813,-0.15234375 0.1875,-0.1523437 -0.1171875,-0.2109375 -0.5390625,0.3632812 c -0.3398438,0.24609375 -0.5859375,0.36328125 -0.7148438,0.36328125 -0.1054687,0 -0.1640625,-0.09375 -0.1640625,-0.24609375 0,-0.3046875 0.1640625,-1.2773437 0.515625,-3.0117187 L 2.2954922,-4.66275 h 1.2773437 l 0.1289063,-0.5976562 c -0.4570313,0.046875 -0.8554688,0.070312 -1.3125,0.070312 0.1875,-1.125 0.328125,-1.7109375 0.5390625,-2.3554688 L 2.7993984,-7.7213437 c -0.2460937,0.140625 -0.5625,0.2929687 -0.9375,0.4335937 L 1.5689297,-5.2604062 C 1.0415859,-5.0025937 0.72517969,-4.8736875 0.51424219,-4.8150937 L 0.49080469,-4.66275 Z m 0,0"
         style="fill:#a8cbfe;fill-opacity:1;fill-rule:nonzero;stroke:none" />
      <path
         id="path448"
         d="m 6.487875,-4.1676328 c -1.3828125,0 -2.0976562,1.1015625 -2.0976562,3.26953124 0,1.0546875 0.1875,1.95703126 0.5039062,2.39062496 0.3164063,0.4453125 0.8203125,0.6914063 1.3710938,0.6914063 1.359375,0 2.0390625,-1.1601563 2.0390625,-3.4570313 0,-1.96875 -0.5859375,-2.8945312 -1.8164063,-2.8945312 z m -0.1640625,0.3164062 c 0.8789063,0 1.21875,0.8789063 1.21875,3.02343754 0,1.91015626 -0.3398437,2.70703126 -1.1601562,2.70703126 -0.8671875,0 -1.2421875,-0.91406251 -1.2421875,-3.09375 0,-1.8984375 0.3398437,-2.6367188 1.1835937,-2.6367188 z m 0,0"
         style="fill:#a8cbfe;fill-opacity:1;fill-rule:nonzero;stroke:none" />
      <path
         id="path449"
         d="m 104.27205,-4.66275 -0.67968,3.3867188 c -0.0117,0.082031 -0.0234,0.1054687 -0.0586,0.2460937 -0.0703,0.33984375 -0.0937,0.515625 -0.0937,0.65625 0,0.3046875 0.12891,0.48046875 0.36328,0.48046875 0.41016,0 0.83204,-0.234375 1.76954,-0.984375 l 0.17578,-0.15234375 0.1875,-0.1523437 -0.11719,-0.2109375 -0.53906,0.3632812 c -0.33985,0.24609375 -0.58594,0.36328125 -0.71485,0.36328125 -0.10547,0 -0.16406,-0.09375 -0.16406,-0.24609375 0,-0.3046875 0.16406,-1.2773437 0.51563,-3.0117187 l 0.15234,-0.7382813 h 1.27734 l 0.12891,-0.5976562 c -0.45703,0.046875 -0.85547,0.070312 -1.3125,0.070312 0.1875,-1.125 0.32812,-1.7109375 0.53906,-2.3554688 l -0.1289,-0.1757812 c -0.2461,0.140625 -0.5625,0.2929687 -0.9375,0.4335937 l -0.29297,2.0273438 c -0.52735,0.2578125 -0.84375,0.3867187 -1.05469,0.4453125 l -0.0234,0.1523437 z m 0,0"
         style="fill:#a8cbfe;fill-opacity:1;fill-rule:nonzero;stroke:none" />
      <path
         id="path450"
         d="m 107.50057,-2.8375547 h 0.0937 l 1.16016,-0.515625 c 0,-0.011719 0.0117,-0.011719 0.0234,-0.011719 0.0469,0 0.0703,0.082031 0.0703,0.3046875 V 1.287445 c 0,0.4570313 -0.0937,0.5625 -0.58594,0.5859375 l -0.50391,0.023437 v 0.2695313 c 1.38282,-0.023437 1.38282,-0.023437 1.48828,-0.023437 0.11719,0 0.30469,0 0.60938,0.011719 0.11719,0.011719 0.42187,0.011719 0.79687,0.011719 V 1.8968203 l -0.46875,-0.023437 c -0.49218,-0.023437 -0.58593,-0.1289062 -0.58593,-0.5859375 v -5.3203125 l -0.11719,-0.046875 c -0.58594,0.3046875 -1.21875,0.5742188 -2.03906,0.8671875 z m 0,0"
         style="fill:#a8cbfe;fill-opacity:1;fill-rule:nonzero;stroke:none" />
      <path
         id="path451"
         d="m 212.4537,-4.66275 -0.67969,3.3867188 c -0.0117,0.082031 -0.0234,0.1054687 -0.0586,0.2460937 -0.0703,0.33984375 -0.0937,0.515625 -0.0937,0.65625 0,0.3046875 0.12891,0.48046875 0.36329,0.48046875 0.41015,0 0.83203,-0.234375 1.76953,-0.984375 l 0.17578,-0.15234375 0.1875,-0.1523437 -0.11719,-0.2109375 -0.53906,0.3632812 c -0.33985,0.24609375 -0.58594,0.36328125 -0.71485,0.36328125 -0.10546,0 -0.16406,-0.09375 -0.16406,-0.24609375 0,-0.3046875 0.16406,-1.2773437 0.51563,-3.0117187 l 0.15234,-0.7382813 h 1.27734 l 0.12891,-0.5976562 c -0.45703,0.046875 -0.85547,0.070312 -1.3125,0.070312 0.1875,-1.125 0.32813,-1.7109375 0.53906,-2.3554688 l -0.1289,-0.1757812 c -0.2461,0.140625 -0.5625,0.2929687 -0.9375,0.4335937 l -0.29297,2.0273438 c -0.52735,0.2578125 -0.84375,0.3867187 -1.05469,0.4453125 l -0.0234,0.1523437 z m 0,0"
         style="fill:#a8cbfe;fill-opacity:1;fill-rule:nonzero;stroke:none" />
      <path
         id="path452"
         d="m 215.22518,1.7972109 v 0.234375 c 1.67578,-0.023437 1.67578,-0.023437 2.00391,-0.023437 0.3164,0 0.3164,0 2.05078,0.023437 -0.0234,-0.1875 -0.0234,-0.2695312 -0.0234,-0.3984375 0,-0.1171875 0,-0.2109375 0.0234,-0.4101562 -1.03125,0.046875 -1.44141,0.058594 -3.10547,0.09375 l 1.64062,-1.73437501 c 0.86719,-0.91406249 1.13672,-1.40624999 1.13672,-2.08593749 0,-1.03125 -0.70312,-1.6640625 -1.83984,-1.6640625 -0.64453,0 -1.08985,0.1757812 -1.52344,0.6210937 l -0.15234,1.2304688 h 0.25781 l 0.11719,-0.421875 c 0.14062,-0.515625 0.46875,-0.7382813 1.0664,-0.7382813 0.77344,0 1.26563,0.4804688 1.26563,1.2421875 0,0.6796875 -0.375,1.33593754 -1.39453,2.41406254 z m 0,0"
         style="fill:#a8cbfe;fill-opacity:1;fill-rule:nonzero;stroke:none" />
      <path
         id="path453"
         d="m 320.63534,-4.66275 -0.67969,3.3867188 c -0.0117,0.082031 -0.0234,0.1054687 -0.0586,0.2460937 -0.0703,0.33984375 -0.0937,0.515625 -0.0937,0.65625 0,0.3046875 0.12891,0.48046875 0.36329,0.48046875 0.41015,0 0.83203,-0.234375 1.76953,-0.984375 l 0.17578,-0.15234375 0.1875,-0.1523437 -0.11719,-0.2109375 -0.53906,0.3632812 c -0.33985,0.24609375 -0.58594,0.36328125 -0.71485,0.36328125 -0.10546,0 -0.16406,-0.09375 -0.16406,-0.24609375 0,-0.3046875 0.16406,-1.2773437 0.51563,-3.0117187 l 0.15234,-0.7382813 h 1.27734 l 0.12891,-0.5976562 c -0.45703,0.046875 -0.85547,0.070312 -1.3125,0.070312 0.1875,-1.125 0.32813,-1.7109375 0.53906,-2.3554688 l -0.1289,-0.1757812 c -0.2461,0.140625 -0.5625,0.2929687 -0.9375,0.4335937 l -0.29297,2.0273438 c -0.52735,0.2578125 -0.84375,0.3867187 -1.05469,0.4453125 l -0.0234,0.1523437 z m 0,0"
         style="fill:#a8cbfe;fill-opacity:1;fill-rule:nonzero;stroke:none" />
      <path
         id="path454"
         d="m 323.65291,-2.4566953 h 0.28125 l 0.15235,-0.5039063 c 0.10547,-0.3046875 0.66797,-0.609375 1.13672,-0.609375 0.57422,0 1.05468,0.4804688 1.05468,1.0429688 0,0.6679687 -0.52734,1.2304687 -1.16015,1.2304687 -0.082,0 -0.17578,0 -0.29297,-0.011719 l -0.12891,-0.011719 -0.11718,0.48046879 0.0703,0.046875 c 0.33984,-0.15234375 0.5039,-0.19921875 0.75,-0.19921875 0.75,0 1.17187,0.48046875 1.17187,1.30078125 0,0.91406251 -0.53906,1.51171871 -1.38281,1.51171871 -0.41016,0 -0.77344,-0.140625 -1.04297,-0.3867187 -0.21094,-0.1992188 -0.32812,-0.3984375 -0.5039,-0.89062501 l -0.2461,0.09375 c 0.19922,0.55078121 0.26953,0.86718751 0.31641,1.31250001 0.48047,0.1640625 0.86719,0.234375 1.20703,0.234375 0.71484,0 1.53516,-0.3984375 2.02734,-0.9960938 0.30469,-0.37499996 0.45703,-0.76171871 0.45703,-1.18359371 0,-0.43359375 -0.17578,-0.80859375 -0.49218,-1.03124999 -0.23438,-0.1640625 -0.4336,-0.234375 -0.87891,-0.3164063 0.71484,-0.5625 0.98438,-0.9726562 0.98438,-1.5 0,-0.796875 -0.66797,-1.3242187 -1.66407,-1.3242187 -0.60937,0 -1.00781,0.1640625 -1.4414,0.5976562 z m 0,0"
         style="fill:#a8cbfe;fill-opacity:1;fill-rule:nonzero;stroke:none" />
      <path
         id="path455"
         d="m 428.81698,-4.66275 -0.67969,3.3867188 c -0.0117,0.082031 -0.0234,0.1054687 -0.0586,0.2460937 -0.0703,0.33984375 -0.0937,0.515625 -0.0937,0.65625 0,0.3046875 0.1289,0.48046875 0.36328,0.48046875 0.41015,0 0.83203,-0.234375 1.76953,-0.984375 l 0.17578,-0.15234375 0.1875,-0.1523437 -0.11719,-0.2109375 -0.53906,0.3632812 c -0.33984,0.24609375 -0.58594,0.36328125 -0.71484,0.36328125 -0.10547,0 -0.16407,-0.09375 -0.16407,-0.24609375 0,-0.3046875 0.16407,-1.2773437 0.51563,-3.0117187 l 0.15234,-0.7382813 h 1.27735 l 0.1289,-0.5976562 c -0.45703,0.046875 -0.85547,0.070312 -1.3125,0.070312 0.1875,-1.125 0.32813,-1.7109375 0.53906,-2.3554688 l -0.1289,-0.1757812 c -0.2461,0.140625 -0.5625,0.2929687 -0.9375,0.4335937 l -0.29297,2.0273438 c -0.52734,0.2578125 -0.84375,0.3867187 -1.05469,0.4453125 l -0.0234,0.1523437 z m 0,0"
         style="fill:#a8cbfe;fill-opacity:1;fill-rule:nonzero;stroke:none" />
      <path
         id="path456"
         d="M 433.95565,0.52572656 V 1.1936953 c 0,0.5390625 -0.0937,0.6679688 -0.53906,0.6796875 l -0.55079,0.023437 v 0.2695313 c 1.19532,-0.023437 1.19532,-0.023437 1.40625,-0.023437 0.21094,0 0.21094,0 1.40625,0.023437 V 1.8968203 l -0.43359,-0.023437 c -0.43359,-0.023437 -0.53906,-0.140625 -0.53906,-0.6796875 V 0.52572656 c 0.53906,0 0.72656,0 0.97265,0.0351563 v -0.64453125 c -0.42187,0.03515625 -0.58593,0.03515625 -0.72656,0.03515625 h -0.24609 V -1.3023984 c 0,-1.59375 0.0234,-2.3671875 0.0703,-2.7304688 l -0.10547,-0.046875 -0.66797,0.2460938 -2.53125,4.14843746 0.0937,0.2109375 z m 0,-0.57421875 h -1.92188 l 1.92188,-3.16406251 z m 0,0"
         style="fill:#a8cbfe;fill-opacity:1;fill-rule:nonzero;stroke:none" />
    </g>
    <path
       id="path457"
       d="M 11.01443,-3.4332109 H -0.09494531 v 0.796875 H 11.01443 Z m 0,0"
       style="fill:#b2dfbc;fill-opacity:1;fill-rule:nonzero;stroke:none"
       aria-label="—"
       transform="matrix(1.3333333,0,0,1.3333333,275.568,785.08933)" />
    <g
       id="g457"
       aria-label=":sub-step➁,"
       transform="matrix(1.3333333,0,0,1.3333333,290.232,785.08933)">
      <path
         id="path458"
         d="M 2.3543203,-1.1480547 H 1.2058828 V 3.828125e-4 h 1.1484375 z m 0,-4.6171875 H 1.2058828 v 1.1484375 h 1.1484375 z m 9.3017577,1.6054688 c -0.01172,-1.1367188 -0.761719,-1.7695313 -2.0859374,-1.7695313 -1.3476562,0 -2.2148437,0.6914063 -2.2148437,1.7578125 0,0.9023438 0.46875,1.3359375 1.828125,1.6640625 l 0.8554691,0.2109375 c 0.644531,0.1523438 0.890625,0.3867188 0.890625,0.796875 0,0.53906251 -0.539063,0.90234376 -1.3359379,0.90234376 -0.5039062,0 -0.9140625,-0.140625 -1.1484375,-0.38671875 C 8.3045156,-1.1480547 8.2342031,-1.3121172 8.1873281,-1.7105547 H 7.2146719 c 0.046875,1.32421876 0.796875,1.96875001 2.296875,1.96875001 1.4531251,0 2.3789061,-0.71484375 2.3789061,-1.82812501 0,-0.8671875 -0.480469,-1.3359375 -1.628906,-1.6054687 L 9.3826406,-3.3863359 c -0.75,-0.1757813 -1.0664062,-0.421875 -1.0664062,-0.8320313 0,-0.5273437 0.46875,-0.8671875 1.21875,-0.8671875 0.7382816,0 1.1367186,0.3164063 1.1601566,0.9257813 z M 17.647289,3.828125e-4 V -5.7652422 h -0.914062 v 3.2695313 c 0,1.171875 -0.621094,1.94531246 -1.582032,1.94531246 -0.726562,0 -1.183593,-0.4453125 -1.183593,-1.13671876 v -4.078125 h -0.914063 v 4.4414063 c 0,0.96093746 0.714844,1.58203121 1.839844,1.58203121 0.84375,0 1.382812,-0.3046875 1.921875,-1.06640625 V 3.828125e-4 Z M 19.04768,-8.0269609 V 3.828125e-4 h 0.820312 V -0.73789844 c 0.445313,0.66796875 1.019531,0.99609375 1.828125,0.99609375 1.523438,0 2.507813,-1.25390625 2.507813,-3.16406251 0,-1.875 -0.949219,-3.0234375 -2.460938,-3.0234375 -0.796875,0 -1.359375,0.2929688 -1.78125,0.9492188 v -3.046875 z m 2.519531,2.953125 c 1.019531,0 1.675781,0.890625 1.675781,2.2734375 0,1.3007812 -0.679687,2.19140621 -1.675781,2.19140621 -0.972656,0 -1.605469,-0.87890621 -1.605469,-2.22656251 0,-1.359375 0.632813,-2.2382812 1.605469,-2.2382812 z m 6.123047,1.640625 h -2.625 v 0.796875 h 2.625 z m 5.349609,-0.7265625 c -0.01172,-1.1367188 -0.761719,-1.7695313 -2.085937,-1.7695313 -1.347657,0 -2.214844,0.6914063 -2.214844,1.7578125 0,0.9023438 0.46875,1.3359375 1.828125,1.6640625 l 0.855469,0.2109375 c 0.644531,0.1523438 0.890625,0.3867188 0.890625,0.796875 0,0.53906251 -0.539063,0.90234376 -1.335938,0.90234376 -0.503906,0 -0.914062,-0.140625 -1.148437,-0.38671875 C 29.688305,-1.1480547 29.617992,-1.3121172 29.571117,-1.7105547 h -0.972656 c 0.04687,1.32421876 0.796875,1.96875001 2.296875,1.96875001 1.453125,0 2.378906,-0.71484375 2.378906,-1.82812501 0,-0.8671875 -0.480469,-1.3359375 -1.628906,-1.6054687 L 30.76643,-3.3863359 c -0.75,-0.1757813 -1.066407,-0.421875 -1.066407,-0.8320313 0,-0.5273437 0.46875,-0.8671875 1.21875,-0.8671875 0.738282,0 1.136719,0.3164063 1.160157,0.9257813 z m 3.483399,-1.6054688 h -0.949219 v -1.5820312 h -0.914063 v 1.5820312 h -0.785156 v 0.75 h 0.785156 v 4.35937501 c 0,0.57421875 0.398438,0.9140625 1.113282,0.9140625 0.210937,0 0.433593,-0.0234375 0.75,-0.0820313 v -0.7734375 c -0.128907,0.0351563 -0.269532,0.046875 -0.445313,0.046875 -0.398437,0 -0.503906,-0.10546875 -0.503906,-0.51562501 v -3.9492187 h 0.949219 z m 5.909179,3.1875 c 0,-0.8789062 -0.07031,-1.40625 -0.234375,-1.8398437 -0.375,-0.9375 -1.253906,-1.5117188 -2.332031,-1.5117188 -1.605469,0 -2.636719,1.2304688 -2.636719,3.1289063 0,1.88671871 0.996094,3.05859371 2.613282,3.05859371 1.324218,0 2.238281,-0.75 2.460937,-2.00390621 h -0.914062 c -0.257813,0.74999996 -0.773438,1.14843746 -1.511719,1.14843746 -0.585938,0 -1.078125,-0.2578125 -1.382813,-0.74999996 -0.222656,-0.328125 -0.304687,-0.65625 -0.316406,-1.2304688 z m -4.230468,-0.75 c 0.08203,-1.0664062 0.726562,-1.7578125 1.652343,-1.7578125 0.902344,0 1.59375,0.75 1.59375,1.6992188 0,0.023437 0,0.046875 -0.01172,0.058594 z m 5.291015,5.7304688 h 0.925781 v -3.01171879 c 0.480469,0.59765625 1.019532,0.8671875 1.769532,0.8671875 1.488281,0 2.460937,-1.20703125 2.460937,-3.04687501 0,-1.9335937 -0.949219,-3.140625 -2.472656,-3.140625 -0.785156,0 -1.40625,0.3515625 -1.839844,1.03125 v -0.8671875 h -0.84375 z m 2.53125,-7.4765625 c 1.007813,0 1.664063,0.890625 1.664063,2.2734375 0,1.3007812 -0.667969,2.19140621 -1.664063,2.19140621 -0.972656,0 -1.605469,-0.87890621 -1.605469,-2.22656251 0,-1.359375 0.632813,-2.2382812 1.605469,-2.2382812 z m 0,0"
         style="fill:#a8cbfe;fill-opacity:1;fill-rule:nonzero;stroke:none" />
      <path
         id="path459"
         d="m 58.51643,-2.0152422 h -2.695313 c 0.175781,-0.3515625 0.28125,-0.4570312 0.9375,-0.9023437 1.429688,-0.9492188 1.804688,-1.4414063 1.804688,-2.3554688 0,-1.0195312 -0.773438,-1.7695312 -1.828125,-1.7695312 -1.019532,0 -1.769532,0.7382812 -1.769532,1.7460937 v 0.1640625 h 0.726563 c -0.01172,-0.070312 -0.01172,-0.140625 -0.01172,-0.1757812 0,-0.7148438 0.421875,-1.1953125 1.054688,-1.1953125 0.644531,0 1.101562,0.5039062 1.101562,1.21875 0,0.7265625 -0.292969,1.1015625 -1.417969,1.828125 -0.925781,0.609375 -1.371093,1.2070312 -1.371093,1.8632812 0,0.058594 0,0.1171875 0.01172,0.1992188 h 3.457032 z m -1.652344,-6.421875 c -2.414063,0 -4.359375,1.8984375 -4.359375,4.265625 0,2.4023438 1.910156,4.32421876 4.300781,4.32421876 2.367188,0 4.289063,-1.92187496 4.289063,-4.30078126 0,-2.3320312 -1.921875,-4.2890625 -4.230469,-4.2890625 z m 0,0.3984375 c 0.878906,0 1.863281,0.375 2.542969,0.9960938 0.855468,0.7851562 1.289062,1.7695312 1.289062,2.8945312 0,2.1679688 -1.734375,3.91406251 -3.890625,3.91406251 -2.179687,0 -3.914062,-1.74609371 -3.914062,-3.93750001 0,-0.9492187 0.363281,-1.875 1.007812,-2.578125 0.773438,-0.8671875 1.769531,-1.2890625 2.964844,-1.2890625 z m 0,0"
         style="fill:#a8cbfe;fill-opacity:1;fill-rule:nonzero;stroke:none" />
      <path
         id="path460"
         d="M 62.465648,-1.1480547 V 3.828125e-4 h 0.65625 V 0.19960156 c 0,0.76171875 -0.140625,0.97265624 -0.65625,0.99609374 v 0.421875 c 0.761719,0 1.148438,-0.4921875 1.148438,-1.44140624 V -1.1480547 Z m 0,0"
         style="fill:#a8cbfe;fill-opacity:1;fill-rule:nonzero;stroke:none" />
    </g>
    <path
       id="path461"
       d="M 11.016117,-3.4332109 H -0.09325781 v 0.796875 H 11.016117 Z m 0,0"
       style="fill:#f2b6bc;fill-opacity:1;fill-rule:nonzero;stroke:none"
       aria-label="—"
       transform="matrix(1.3333333,0,0,1.3333333,390.972,785.08933)" />
    <g
       id="g461"
       aria-label=":sub-step➀&amp;➂&#10;y&#10;Remark10.3.3.10(Approximatesub-stepsforStrangsplittingtime)Thesolutionsoftheinitialvalue&#10;problemsinthesub-stepsofStrangsplittingtimesteppingmaybecomputed"
       transform="matrix(1.3333333,0,0,1.3333333,405.636,785.08933)">
      <path
         id="path462"
         d="M 2.3560078,-1.1480547 H 1.2075703 V 3.828125e-4 h 1.1484375 z m 0,-4.6171875 H 1.2075703 v 1.1484375 h 1.1484375 z m 9.2988282,1.6054688 c -0.01172,-1.1367188 -0.761719,-1.7695313 -2.0859376,-1.7695313 -1.3476562,0 -2.2148437,0.6914063 -2.2148437,1.7578125 0,0.9023438 0.46875,1.3359375 1.828125,1.6640625 l 0.8554683,0.2109375 c 0.644532,0.1523438 0.890625,0.3867188 0.890625,0.796875 0,0.53906251 -0.539062,0.90234376 -1.3359371,0.90234376 -0.5039062,0 -0.9140625,-0.140625 -1.1484375,-0.38671875 C 8.3032734,-1.1480547 8.2329609,-1.3121172 8.1860859,-1.7105547 H 7.2134297 c 0.046875,1.32421876 0.796875,1.96875001 2.296875,1.96875001 1.4531253,0 2.3789063,-0.71484375 2.3789063,-1.82812501 0,-0.8671875 -0.480469,-1.3359375 -1.628906,-1.6054687 L 9.3813984,-3.3863359 c -0.75,-0.1757813 -1.0664062,-0.421875 -1.0664062,-0.8320313 0,-0.5273437 0.46875,-0.8671875 1.21875,-0.8671875 0.7382808,0 1.1367188,0.3164063 1.1601558,0.9257813 z M 17.648977,3.828125e-4 V -5.7652422 h -0.914063 v 3.2695313 c 0,1.171875 -0.621094,1.94531246 -1.582031,1.94531246 -0.726563,0 -1.183594,-0.4453125 -1.183594,-1.13671876 v -4.078125 h -0.914062 v 4.4414063 c 0,0.96093746 0.714843,1.58203121 1.839843,1.58203121 0.84375,0 1.382813,-0.3046875 1.921875,-1.06640625 V 3.828125e-4 Z M 19.046438,-8.0269609 V 3.828125e-4 H 19.86675 V -0.73789844 c 0.445313,0.66796875 1.019531,0.99609375 1.828125,0.99609375 1.523438,0 2.507813,-1.25390625 2.507813,-3.16406251 0,-1.875 -0.949219,-3.0234375 -2.460938,-3.0234375 -0.796875,0 -1.359375,0.2929688 -1.78125,0.9492188 v -3.046875 z m 2.519531,2.953125 c 1.019531,0 1.675781,0.890625 1.675781,2.2734375 0,1.3007812 -0.679687,2.19140621 -1.675781,2.19140621 -0.972656,0 -1.605469,-0.87890621 -1.605469,-2.22656251 0,-1.359375 0.632813,-2.2382812 1.605469,-2.2382812 z m 6.123047,1.640625 h -2.625 v 0.796875 h 2.625 z m 5.352539,-0.7265625 c -0.01172,-1.1367188 -0.761719,-1.7695313 -2.085938,-1.7695313 -1.347656,0 -2.214844,0.6914063 -2.214844,1.7578125 0,0.9023438 0.46875,1.3359375 1.828125,1.6640625 l 0.855469,0.2109375 c 0.644531,0.1523438 0.890625,0.3867188 0.890625,0.796875 0,0.53906251 -0.539062,0.90234376 -1.335937,0.90234376 -0.503907,0 -0.914063,-0.140625 -1.148438,-0.38671875 C 29.689992,-1.1480547 29.61968,-1.3121172 29.572805,-1.7105547 h -0.972657 c 0.04687,1.32421876 0.796875,1.96875001 2.296875,1.96875001 1.453125,0 2.378907,-0.71484375 2.378907,-1.82812501 0,-0.8671875 -0.480469,-1.3359375 -1.628907,-1.6054687 l -0.878906,-0.2109375 c -0.75,-0.1757813 -1.066406,-0.421875 -1.066406,-0.8320313 0,-0.5273437 0.46875,-0.8671875 1.21875,-0.8671875 0.738281,0 1.136719,0.3164063 1.160156,0.9257813 z m 3.483398,-1.6054688 h -0.949219 v -1.5820312 h -0.914062 v 1.5820312 h -0.785156 v 0.75 h 0.785156 v 4.35937501 c 0,0.57421875 0.398437,0.9140625 1.113281,0.9140625 0.210938,0 0.433594,-0.0234375 0.75,-0.0820313 v -0.7734375 c -0.128906,0.0351563 -0.269531,0.046875 -0.445312,0.046875 -0.398438,0 -0.503907,-0.10546875 -0.503907,-0.51562501 v -3.9492187 h 0.949219 z m 5.90625,3.1875 c 0,-0.8789062 -0.07031,-1.40625 -0.234375,-1.8398437 -0.375,-0.9375 -1.253906,-1.5117188 -2.332031,-1.5117188 -1.605469,0 -2.636719,1.2304688 -2.636719,3.1289063 0,1.88671871 0.996094,3.05859371 2.613281,3.05859371 1.324219,0 2.238282,-0.75 2.460938,-2.00390621 h -0.914063 c -0.257812,0.74999996 -0.773437,1.14843746 -1.511718,1.14843746 -0.585938,0 -1.078125,-0.2578125 -1.382813,-0.74999996 -0.222656,-0.328125 -0.304687,-0.65625 -0.316406,-1.2304688 z m -4.230469,-0.75 c 0.08203,-1.0664062 0.726563,-1.7578125 1.652344,-1.7578125 0.902344,0 1.59375,0.75 1.59375,1.6992188 0,0.023437 0,0.046875 -0.01172,0.058594 z m 5.291016,5.7304688 h 0.925781 v -3.01171879 c 0.480469,0.59765625 1.019532,0.8671875 1.769532,0.8671875 1.488281,0 2.460937,-1.20703125 2.460937,-3.04687501 0,-1.9335937 -0.949219,-3.140625 -2.472656,-3.140625 -0.785156,0 -1.40625,0.3515625 -1.839844,1.03125 V -5.7652422 H 43.49175 Z M 46.023,-5.0738359 c 1.007813,0 1.664063,0.890625 1.664063,2.2734375 0,1.3007812 -0.667969,2.19140621 -1.664063,2.19140621 -0.972656,0 -1.605469,-0.87890621 -1.605469,-2.22656251 0,-1.359375 0.632813,-2.2382812 1.605469,-2.2382812 z m 0,0"
         style="fill:#a8cbfe;fill-opacity:1;fill-rule:nonzero;stroke:none" />
      <path
         id="path463"
         d="m 56.769094,-7.0308672 c -0.117188,0.6445313 -0.515625,0.890625 -1.441406,0.8789063 v 0.4921875 h 1.160156 v 4.265625 h 0.726562 v -5.6367188 z m 0.09375,-1.40625 c -2.414063,0 -4.359375,1.8984375 -4.359375,4.265625 0,2.4023438 1.910156,4.32421876 4.300781,4.32421876 2.367188,0 4.289063,-1.92187496 4.289063,-4.30078126 0,-2.3320312 -1.921875,-4.2890625 -4.230469,-4.2890625 z m 0,0.3984375 c 0.878906,0 1.863281,0.375 2.542969,0.9960938 0.855468,0.7851562 1.289062,1.7695312 1.289062,2.8945312 0,2.1679688 -1.734375,3.91406251 -3.890625,3.91406251 -2.179687,0 -3.914062,-1.74609371 -3.914062,-3.93750001 0,-0.9492187 0.363281,-1.875 1.007812,-2.578125 0.773438,-0.8671875 1.769531,-1.2890625 2.964844,-1.2890625 z m 0,0"
         style="fill:#a8cbfe;fill-opacity:1;fill-rule:nonzero;stroke:none" />
      <path
         id="path464"
         d="m 69.981984,-3.6793047 c 0.01172,0.3984375 -0.117187,0.9257813 -0.339843,1.3125 l -1.464844,-1.7929687 c 1.148437,-0.6445313 1.523437,-1.125 1.523437,-1.9101563 0,-1.0195312 -0.75,-1.734375 -1.804687,-1.734375 -1.042969,0 -1.875,0.7617188 -1.875,1.734375 0,0.515625 0.210937,0.9257813 0.890625,1.7929688 -1.359375,0.7851562 -1.78125,1.3359375 -1.78125,2.34375 0,1.31249996 0.902344,2.19140621 2.25,2.19140621 0.539062,0 1.054687,-0.15234375 1.453125,-0.3984375 0.234375,-0.140625 0.433594,-0.3046875 0.855469,-0.71484375 l 0.679687,0.8554687525 h 1.195313 L 70.228078,-1.6636797 c 0.398438,-0.6210937 0.632813,-1.3476562 0.632813,-2.015625 z m -2.285156,-1.0664062 c -0.679687,-0.7617188 -0.773437,-0.9492188 -0.773437,-1.3359375 0,-0.5742188 0.375,-0.9492188 0.949218,-0.9492188 0.550782,0 0.949219,0.3984375 0.949219,0.9375 0,0.4921875 -0.269531,0.8085938 -1.125,1.3476563 z m 1.464844,3.234375 c -0.621094,0.65624996 -1.089844,0.90234371 -1.664063,0.90234371 -0.796875,0 -1.441406,-0.63281251 -1.441406,-1.40625001 0,-0.609375 0.339844,-1.0546875 1.335938,-1.6875 z m 0,0"
         style="fill:#a8cbfe;fill-opacity:1;fill-rule:nonzero;stroke:none" />
      <path
         id="path465"
         d="m 78.653859,-5.5191484 c 0,-0.2226563 0.02344,-0.328125 0.05859,-0.4570313 0.105469,-0.3632812 0.457031,-0.5976562 0.902344,-0.5976562 0.609375,0 0.984375,0.3867187 0.984375,0.9960937 0,0.3632813 -0.105469,0.6210938 -0.328125,0.7734375 -0.28125,0.1757813 -0.539063,0.2695313 -0.785156,0.2695313 -0.03516,0 -0.128907,-0.011719 -0.246094,-0.023437 h -0.105469 v 0.515625 h 0.398438 c 0.808593,0 1.277343,0.3867187 1.277343,1.0664062 0,0.6210938 -0.445312,1.0546875 -1.089843,1.0546875 -0.375,0 -0.703125,-0.1523437 -0.902344,-0.4335937 -0.117188,-0.1640625 -0.164063,-0.3867188 -0.164063,-0.7617188 l -0.644531,0.1289063 c -0.01172,0.082031 -0.01172,0.1640625 -0.01172,0.2226562 0,0.8320313 0.714844,1.4414063 1.675782,1.4414063 1.066406,0 1.804687,-0.6796875 1.804687,-1.6523438 0,-0.703125 -0.328125,-1.1484375 -0.972656,-1.359375 0.574219,-0.2695312 0.820312,-0.6210937 0.820312,-1.21875 0,-0.890625 -0.726562,-1.5585937 -1.6875,-1.5585937 -0.597656,0 -1.148437,0.28125 -1.417968,0.7265625 -0.140625,0.2460937 -0.199219,0.46875 -0.210938,0.8671875 z m 1.078125,-2.9179688 c -2.414062,0 -4.359375,1.8984375 -4.359375,4.265625 0,2.4023438 1.910157,4.32421876 4.300782,4.32421876 2.367187,0 4.289062,-1.92187496 4.289062,-4.30078126 0,-2.3320312 -1.921875,-4.2890625 -4.230469,-4.2890625 z m 0,0.3984375 c 0.878907,0 1.863282,0.375 2.542969,0.9960938 0.855469,0.7851562 1.289063,1.7695312 1.289063,2.8945312 0,2.1679688 -1.734375,3.91406251 -3.890625,3.91406251 -2.179688,0 -3.914063,-1.74609371 -3.914063,-3.93750001 0,-0.9492187 0.363281,-1.875 1.007813,-2.578125 0.773437,-0.8671875 1.769531,-1.2890625 2.964843,-1.2890625 z m 0,0"
         style="fill:#a8cbfe;fill-opacity:1;fill-rule:nonzero;stroke:none" />
    </g>
  </g>
</svg>
