<?xml version="1.0" encoding="UTF-8" standalone="no"?>
<!-- Created with Inkscape (http://www.inkscape.org/) -->

<svg
   version="1.1"
   id="svg1"
   width="436.62897"
   height="185.53389"
   viewBox="0 0 436.62897 185.53388"
   sodipodi:docname="NUMPDE.pdf"
   xmlns:inkscape="http://www.inkscape.org/namespaces/inkscape"
   xmlns:sodipodi="http://sodipodi.sourceforge.net/DTD/sodipodi-0.dtd"
   xmlns="http://www.w3.org/2000/svg"
   xmlns:svg="http://www.w3.org/2000/svg">
  <defs
     id="defs1">
    <clipPath
       clipPathUnits="userSpaceOnUse"
       id="clipPath90">
      <path
         d="m 425.16,3369.73 h 1599 v 1201.93 h -1599 z"
         transform="translate(0,2.5000001e-4)"
         id="path90" />
    </clipPath>
    <clipPath
       clipPathUnits="userSpaceOnUse"
       id="clipPath99">
      <path
         d="m 2108.97,3439.93 h 1599 v 1061.63 h -1599 z"
         transform="translate(0,2.5000001e-4)"
         id="path99" />
    </clipPath>
  </defs>
  <sodipodi:namedview
     id="namedview1"
     pagecolor="#505050"
     bordercolor="#eeeeee"
     borderopacity="1"
     inkscape:showpageshadow="0"
     inkscape:pageopacity="0"
     inkscape:pagecheckerboard="0"
     inkscape:deskcolor="#505050"
     showgrid="false" />
  <g
     id="g1"
     inkscape:groupmode="layer"
     inkscape:label="316"
     transform="translate(-56.884236,-513.66146)">
    <path
       id="path89"
       d="M 432.684,3711.75 1588.61,4563.48 2014.48,3377.14 Z"
       style="fill:none;stroke:#5a9cfe;stroke-width:5.06985;stroke-linecap:butt;stroke-linejoin:miter;stroke-miterlimit:10;stroke-dasharray:none;stroke-opacity:1"
       transform="matrix(0.13333333,0,0,-0.13333333,0,1122.6667)"
       clip-path="url(#clipPath90)" />
    <g
       id="g90"
       aria-label="ρ&#10;K"
       transform="matrix(1.3333333,0,0,1.3333333,141.252,694.78933)">
      <path
         id="path91"
         d="m 1.1381484,-0.55098437 c 0.2460938,0.45703125 0.6796875,0.6796875 1.2773438,0.6796875 0.6328125,0 1.3359375,-0.29296875 1.8632812,-0.78515625 0.7617188,-0.70312498 1.3007813,-2.07421878 1.3007813,-3.30468748 0,-1.125 -0.5976563,-1.8046875 -1.5703125,-1.8046875 -0.515625,0 -1.03125,0.1875 -1.5585938,0.5390625 -0.4101562,0.28125 -0.7382812,0.6328125 -0.9960937,1.0664062 -0.1757813,0.2578125 -0.3164063,0.5625 -0.4335938,0.84375 C 0.71627344,-2.6017656 0.55221094,-1.8752031 0.42330469,-1.1486406 0.20064844,0.10526563 0.06002344,1.9568281 -0.08060156,3.1990156 L 0.09517969,3.3044844 C 0.39986719,3.1990156 0.62252344,3.1404219 0.96236719,3.0935469 0.93892969,2.7537031 0.92721094,2.2966719 0.92721094,1.8162031 c 0,-0.83203122 0.0351563,-1.74609372 0.11718746,-2.35546872 z M 3.5404922,-5.3087969 c 0.75,0 1.1367187,0.5273438 1.1367187,1.5351563 0,1.1601562 -0.375,2.4257812 -0.9023437,3.05859373 -0.2109375,0.24609375 -0.5273438,0.38671875 -0.8789063,0.38671875 -0.7148437,0 -1.1132812,-0.52734375 -1.1132812,-1.47656248 0,-1.3476563 0.46875,-2.8242188 1.0546875,-3.3046875 0.1523437,-0.1289063 0.4101562,-0.1992188 0.703125,-0.1992188 z m 0,0"
         style="fill:#5a9cfe;fill-opacity:1;fill-rule:nonzero;stroke:none" />
      <path
         id="path92"
         d="m 9.5756484,-3.8644609 0.023437,-0.2460938 h -0.210937 l -0.8085937,0.023437 c -0.140625,0 -0.3046875,0 -0.6914063,-0.011719 l -0.5742187,-0.011719 -0.023437,0.2460938 0.421875,0.023437 c 0.2109375,0 0.3046875,0.070312 0.3046875,0.234375 0,0.1289062 -0.023437,0.3867187 -0.070312,0.6796875 l -0.65625,3.89062496 C 7.1381484,1.7956953 7.1264297,1.8074141 6.7631484,1.8425703 l -0.3632812,0.023437 -0.035156,0.2460938 h 0.375 C 7.173305,2.1003821 7.3725237,2.0886641 7.548305,2.0886641 l 0.8671875,0.023437 h 0.234375 L 8.6733047,1.8660078 8.2397109,1.8425703 c -0.2460937,-0.023437 -0.328125,-0.082031 -0.328125,-0.2695312 0,-0.046875 0.011719,-0.1523438 0.023437,-0.1875 l 0.3867188,-2.34375004 c 1.3359375,1.53515625 1.546875,1.79296875 2.4843753,3.07031254 l 0.621093,-0.023437 c 0.328125,0.011719 0.375,0.023437 0.609375,0.023437 V 1.8425703 h -0.175781 c -0.210938,0 -0.386719,-0.1054687 -0.574219,-0.3398437 L 9.0834609,-1.2043047 11.696742,-3.6535234 c 0.140625,-0.1289063 0.328125,-0.2226563 0.480469,-0.2226563 h 0.1875 v -0.234375 h -0.199219 c -0.1875,0.011719 -0.328125,0.023437 -0.410156,0.023437 -0.08203,0 -0.222656,-0.011719 -0.410156,-0.023437 h -0.1875 v 0.2578125 c 0,0.070312 -0.08203,0.1875 -0.339844,0.4335938 l -1.1484376,1.171875 c -0.3867187,0.3984375 -0.7617187,0.7265625 -1.3359375,1.171875 l 0.4101563,-2.3320313 c 0.058594,-0.3398437 0.1171875,-0.3984375 0.4570312,-0.4335937 z m 0,0"
         style="fill:#5a9cfe;fill-opacity:1;fill-rule:nonzero;stroke:none" />
    </g>
    <path
       id="path93"
       d="m 4.8169453,-4.1603594 c -0.011719,-1.1367187 -0.7617187,-1.7695312 -2.0859375,-1.7695312 -1.3476562,0 -2.21484374,0.6914062 -2.21484374,1.7578125 0,0.9023437 0.46875,1.3359375 1.82812504,1.6640625 l 0.8554687,0.2109375 c 0.6445313,0.1523437 0.890625,0.3867187 0.890625,0.796875 0,0.53906248 -0.5390625,0.90234373 -1.3359375,0.90234373 -0.5039062,0 -0.9140625,-0.140625 -1.1484375,-0.38671875 C 1.4653828,-1.1486406 1.3950703,-1.3127031 1.3481953,-1.7111406 H 0.37553906 c 0.046875,1.32421873 0.79687504,1.96874998 2.29687504,1.96874998 1.453125,0 2.3789062,-0.71484375 2.3789062,-1.82812498 0,-0.8671875 -0.4804687,-1.3359375 -1.6289062,-1.6054688 L 2.5435078,-3.3869219 c -0.75,-0.1757812 -1.0664062,-0.421875 -1.0664062,-0.8320312 0,-0.5273438 0.46875,-0.8671875 1.21875,-0.8671875 0.7382812,0 1.1367187,0.3164062 1.1601562,0.9257812 z M 6.273,-5.7658281 V -2.03125e-4 H 7.1987812 V -3.6212969 c 0,-0.8320312 0.5976563,-1.5117187 1.3476563,-1.5117187 0.6796875,0 1.0664062,0.421875 1.0664062,1.1601562 V -2.03125e-4 H 10.538625 V -3.6212969 c 0,-0.8320312 0.609375,-1.5117187 1.359375,-1.5117187 0.667969,0 1.066406,0.4335937 1.066406,1.1601562 v 3.972656275 h 0.925781 V -4.3244219 c 0,-1.03125 -0.597656,-1.6054687 -1.675781,-1.6054687 -0.773437,0 -1.230469,0.234375 -1.769531,0.8789062 -0.339844,-0.6210937 -0.8085938,-0.8789062 -1.5585938,-0.8789062 -0.7734375,0 -1.2773437,0.28125 -1.7695312,0.9726562 v -0.8085937 z m 14.270508,5.22656248 c -0.09375,0.0234375 -0.140625,0.0234375 -0.199219,0.0234375 -0.316406,0 -0.492187,-0.1640625 -0.492187,-0.45703125 V -4.3595781 c 0,-1.0195313 -0.75,-1.5703125 -2.167969,-1.5703125 -0.832031,0 -1.523438,0.2460937 -1.910156,0.6679687 -0.269532,0.3046875 -0.375,0.6328125 -0.398438,1.2070313 h 0.925781 c 0.07031,-0.7148438 0.492188,-1.03125 1.347657,-1.03125 0.832031,0 1.289062,0.3046875 1.289062,0.8554687 v 0.2460938 c 0,0.3867187 -0.222656,0.5507812 -0.949219,0.6445312 -1.300781,0.1640625 -1.5,0.1992188 -1.851562,0.3515625 -0.667969,0.2695313 -1.019531,0.7851563 -1.019531,1.5351563 0,1.04296873 0.726562,1.71093748 1.898437,1.71093748 0.726563,0 1.3125,-0.257812505 1.957031,-0.85546875 0.07031,0.5859375 0.351563,0.85546875 0.949219,0.85546875 0.1875,0 0.328125,-0.0234375 0.621094,-0.10546875 z M 18.938039,-1.8166094 c 0,0.3046875 -0.08203,0.4921875 -0.363281,0.75 -0.375,0.33984378 -0.820313,0.51562503 -1.359375,0.51562503 -0.714844,0 -1.136719,-0.33984375 -1.136719,-0.92578123 0,-0.5976563 0.410156,-0.9140625 1.382813,-1.0546875 0.972656,-0.1289063 1.171875,-0.1757813 1.476562,-0.3164063 z m 3.509766,-6.2109375 h -0.925782 v 8.027343775 h 0.925782 z m 2.440429,0 h -0.925781 v 8.027343775 h 0.925781 z m 0,0"
       style="fill:#fd933a;fill-opacity:1;fill-rule:nonzero;stroke:none"
       aria-label="small"
       transform="matrix(1.3333333,0,0,1.3333333,162.636,694.78933)" />
    <path
       id="path98"
       d="M 2118.16,3449.38 3529.9,4489.61 3697.08,4173.82 Z"
       style="fill:none;stroke:#5a9cfe;stroke-width:6.19186;stroke-linecap:butt;stroke-linejoin:miter;stroke-miterlimit:10;stroke-dasharray:none;stroke-opacity:1"
       transform="matrix(0.13333333,0,0,-0.13333333,0,1122.6667)"
       clip-path="url(#clipPath99)" />
    <g
       id="g99"
       aria-label="ρ&#10;K"
       transform="matrix(1.3333333,0,0,1.3333333,366.564,694.78933)">
      <path
         id="path100"
         d="m 1.1355938,-0.55098437 c 0.2460937,0.45703125 0.6796875,0.6796875 1.2773437,0.6796875 0.6328125,0 1.3359375,-0.29296875 1.8632813,-0.78515625 C 5.0379375,-1.3595781 5.577,-2.7306719 5.577,-3.9611406 c 0,-1.125 -0.5976562,-1.8046875 -1.5703125,-1.8046875 -0.515625,0 -1.03125,0.1875 -1.5585937,0.5390625 -0.4101563,0.28125 -0.7382813,0.6328125 -0.9960938,1.0664062 -0.1757812,0.2578125 -0.3164062,0.5625 -0.4335937,0.84375 C 0.71371875,-2.6017656 0.54965625,-1.8752031 0.42075,-1.1486406 0.19809375,0.10526563 0.05746875,1.9568281 -0.08315625,3.1990156 L 0.092625,3.3044844 C 0.3973125,3.1990156 0.61996875,3.1404219 0.9598125,3.0935469 0.936375,2.7537031 0.92465625,2.2966719 0.92465625,1.8162031 c 0,-0.83203122 0.0351563,-1.74609372 0.11718755,-2.35546872 z M 3.5379375,-5.3087969 c 0.75,0 1.1367188,0.5273438 1.1367188,1.5351563 0,1.1601562 -0.375,2.4257812 -0.9023438,3.05859373 -0.2109375,0.24609375 -0.5273437,0.38671875 -0.8789062,0.38671875 -0.7148438,0 -1.1132813,-0.52734375 -1.1132813,-1.47656248 0,-1.3476563 0.46875,-2.8242188 1.0546875,-3.3046875 0.1523438,-0.1289063 0.4101563,-0.1992188 0.703125,-0.1992188 z m 0,0"
         style="fill:#5a9cfe;fill-opacity:1;fill-rule:nonzero;stroke:none" />
      <path
         id="path101"
         d="m 9.5730938,-3.8644609 0.023437,-0.2460938 H 9.3855938 L 8.577,-4.0871172 c -0.140625,0 -0.3046875,0 -0.6914062,-0.011719 l -0.5742188,-0.011719 -0.023437,0.2460938 0.421875,0.023437 c 0.2109375,0 0.3046875,0.070312 0.3046875,0.234375 0,0.1289062 -0.023437,0.3867187 -0.070312,0.6796875 l -0.65625,3.89062496 C 7.1355938,1.7956953 7.123875,1.8074141 6.7605938,1.8425703 l -0.3632813,0.023437 -0.035156,0.2460938 h 0.375 C 7.17075,2.1003828 7.3699688,2.0886641 7.54575,2.0886641 l 0.8671875,0.023437 h 0.234375 L 8.67075,1.8660078 8.2371563,1.8425703 c -0.2460938,-0.023437 -0.328125,-0.082031 -0.328125,-0.2695312 0,-0.046875 0.011719,-0.1523438 0.023437,-0.1875 L 8.3191875,-0.95821094 C 9.655125,0.57694531 9.8660625,0.83475781 10.803563,2.1121016 l 0.621093,-0.023437 c 0.328125,0.011719 0.375,0.023437 0.609375,0.023437 V 1.8425703 H 11.85825 c -0.210937,0 -0.386719,-0.1054687 -0.574219,-0.3398437 L 9.0809063,-1.2043047 11.694188,-3.6535234 c 0.140625,-0.1289063 0.328125,-0.2226563 0.480468,-0.2226563 h 0.1875 v -0.234375 h -0.199218 c -0.1875,0.011719 -0.328125,0.023437 -0.410157,0.023437 -0.08203,0 -0.222656,-0.011719 -0.410156,-0.023437 h -0.1875 v 0.2578125 c 0,0.070312 -0.08203,0.1875 -0.339844,0.4335938 l -1.1484372,1.171875 C 9.280125,-1.8488359 8.905125,-1.5207109 8.3309063,-1.0753984 L 8.7410625,-3.4074297 C 8.7996563,-3.7472734 8.85825,-3.8058672 9.1980938,-3.8410234 Z m 0,0"
         style="fill:#5a9cfe;fill-opacity:1;fill-rule:nonzero;stroke:none" />
    </g>
    <path
       id="path102"
       d="M 1.6766953,-8.0275469 H 0.75091406 V -2.03125e-4 H 1.6766953 Z m 6.6445313,7.48828128 c -0.09375,0.0234375 -0.140625,0.0234375 -0.1992188,0.0234375 -0.3164062,0 -0.4921875,-0.1640625 -0.4921875,-0.45703125 V -4.3595781 c 0,-1.0195313 -0.75,-1.5703125 -2.1679687,-1.5703125 -0.8320313,0 -1.5234375,0.2460937 -1.9101563,0.6679687 -0.2695312,0.3046875 -0.375,0.6328125 -0.3984375,1.2070313 h 0.9257813 c 0.070312,-0.7148438 0.4921875,-1.03125 1.3476562,-1.03125 0.8320313,0 1.2890625,0.3046875 1.2890625,0.8554687 v 0.2460938 c 0,0.3867187 -0.2226562,0.5507812 -0.9492187,0.6445312 -1.3007813,0.1640625 -1.5,0.1992188 -1.8515625,0.3515625 -0.6679688,0.2695313 -1.0195313,0.7851563 -1.0195313,1.5351563 0,1.04296873 0.7265625,1.71093748 1.8984375,1.71093748 0.7265625,0 1.3125,-0.257812505 1.9570313,-0.85546875 0.070312,0.5859375 0.3515625,0.85546875 0.9492187,0.85546875 0.1875,0 0.328125,-0.0234375 0.6210938,-0.10546875 z M 6.7157578,-1.8166094 c 0,0.3046875 -0.082031,0.4921875 -0.3632812,0.75 -0.375,0.33984378 -0.8203125,0.51562503 -1.359375,0.51562503 -0.7148438,0 -1.1367188,-0.33984375 -1.1367188,-0.92578123 0,-0.5976563 0.4101563,-0.9140625 1.3828125,-1.0546875 0.9726563,-0.1289063 1.171875,-0.1757813 1.4765625,-0.3164063 z M 9.3114609,-5.7658281 V -2.03125e-4 H 10.237242 V -2.9884844 c 0,-0.8320312 0.210938,-1.3710937 0.644531,-1.6875 0.28125,-0.2109375 0.5625,-0.28125 1.195313,-0.28125 v -0.9375 c -0.152344,-0.023437 -0.222656,-0.035156 -0.351563,-0.035156 -0.585937,0 -1.042968,0.3515625 -1.570312,1.2070312 v -1.0429687 z m 7.4355471,0 v 0.8320312 c -0.46875,-0.6796875 -1.019531,-0.9960937 -1.757813,-0.9960937 -1.464843,0 -2.460937,1.2773437 -2.460937,3.140625 0,0.9492187 0.257812,1.7226562 0.726562,2.27343748 0.433594,0.48046875 1.042969,0.7734375 1.652344,0.7734375 0.726563,0 1.230469,-0.31640625 1.746094,-1.04296875 v 0.3046875 c 0,0.7734375 -0.09375,1.25390625 -0.328125,1.57031247 -0.234375,0.3398438 -0.714844,0.5390625 -1.277344,0.5390625 -0.410156,0 -0.785156,-0.1054687 -1.042969,-0.3046875 C 13.793883,1.1599531 13.711852,0.99589063 13.653258,0.65604688 h -0.9375 c 0.105469,1.08984372 0.949219,1.74609372 2.296875,1.74609372 0.867187,0 1.605469,-0.28125 1.980469,-0.7382812 0.433593,-0.5273438 0.597656,-1.25390627 0.597656,-2.61328127 V -5.7658281 Z m -1.664063,0.6796875 c 0.996094,0 1.570313,0.84375 1.570313,2.2851562 0,1.3710938 -0.585938,2.20312503 -1.558594,2.20312503 -0.996094,0 -1.605469,-0.84375003 -1.605469,-2.23828123 0,-1.3945313 0.621094,-2.25 1.59375,-2.25 z m 8.888672,2.5078125 c 0,-0.8789063 -0.07031,-1.40625 -0.234375,-1.8398438 -0.375,-0.9375 -1.253906,-1.5117187 -2.332031,-1.5117187 -1.605469,0 -2.636719,1.2304687 -2.636719,3.1289062 0,1.88671878 0.996094,3.05859378 2.613281,3.05859378 1.324219,0 2.238282,-0.75 2.460938,-2.00390628 h -0.914063 c -0.257812,0.75000003 -0.773437,1.14843753 -1.511718,1.14843753 -0.585938,0 -1.078125,-0.2578125 -1.382813,-0.75000003 -0.222656,-0.328125 -0.304687,-0.65625 -0.316406,-1.2304687 z m -4.230469,-0.75 c 0.08203,-1.0664063 0.726563,-1.7578125 1.652344,-1.7578125 0.902344,0 1.59375,0.75 1.59375,1.6992187 0,0.023437 0,0.046875 -0.01172,0.058594 z m 0,0"
       style="fill:#fd933a;fill-opacity:1;fill-rule:nonzero;stroke:none"
       aria-label="large"
       transform="matrix(1.3333333,0,0,1.3333333,387.948,694.78933)" />
  </g>
</svg>
