<?xml version="1.0" encoding="UTF-8" standalone="no"?>
<!-- Created with Inkscape (http://www.inkscape.org/) -->

<svg
   version="1.1"
   id="svg1"
   width="264.10938"
   height="243.13287"
   viewBox="0 0 264.10937 243.13286"
   sodipodi:docname="NUMPDE.pdf"
   xmlns:inkscape="http://www.inkscape.org/namespaces/inkscape"
   xmlns:sodipodi="http://sodipodi.sourceforge.net/DTD/sodipodi-0.dtd"
   xmlns="http://www.w3.org/2000/svg"
   xmlns:svg="http://www.w3.org/2000/svg">
  <defs
     id="defs1">
    <clipPath
       clipPathUnits="userSpaceOnUse"
       id="clipPath259">
      <path
         d="m 3537.63,4600.48 h 1938 v 1775.27 h -1938 z m 948.38,159.25 0.46,-9.78 -163.07,-24.7 27.49,27.96 -27.96,27.95 z"
         transform="translate(0,2.5000001e-4)"
         clip-rule="evenodd"
         id="path259" />
    </clipPath>
    <clipPath
       clipPathUnits="userSpaceOnUse"
       id="clipPath261">
      <path
         d="m 3537.63,4600.48 h 1938 v 1775.27 h -1938 z"
         transform="translate(0,2.5000001e-4)"
         id="path261" />
    </clipPath>
    <clipPath
       clipPathUnits="userSpaceOnUse"
       id="clipPath263">
      <path
         d="m 3537.63,4600.48 h 1938 v 1775.27 h -1938 z"
         transform="translate(0,2.5000001e-4)"
         id="path263" />
    </clipPath>
    <clipPath
       clipPathUnits="userSpaceOnUse"
       id="clipPath265">
      <path
         d="m 3537.63,4600.48 h 1938 v 1775.27 h -1938 z m 1656.6,1593.86 6.99,-6.99 -98.78,-131.86 v 39.61 h -39.6 z"
         transform="translate(0,2.5000001e-4)"
         clip-rule="evenodd"
         id="path265" />
    </clipPath>
    <clipPath
       clipPathUnits="userSpaceOnUse"
       id="clipPath267">
      <path
         d="m 3537.63,4600.48 h 1938 v 1775.27 h -1938 z"
         transform="translate(0,2.5000001e-4)"
         id="path267" />
    </clipPath>
    <clipPath
       clipPathUnits="userSpaceOnUse"
       id="clipPath269">
      <path
         d="m 3537.63,4600.48 h 1938 v 1775.27 h -1938 z"
         transform="translate(0,2.5000001e-4)"
         id="path269" />
    </clipPath>
    <clipPath
       clipPathUnits="userSpaceOnUse"
       id="clipPath271">
      <path
         d="m 3537.63,4600.48 h 1938 v 1775.27 h -1938 z m 1640.76,1623.68 -0.47,-9.78 -163.08,-22.37 27.96,27.95 -27.49,27.96 z"
         transform="translate(0,2.5000001e-4)"
         clip-rule="evenodd"
         id="path271" />
    </clipPath>
    <clipPath
       clipPathUnits="userSpaceOnUse"
       id="clipPath273">
      <path
         d="m 3537.63,4600.48 h 1938 v 1775.27 h -1938 z"
         transform="translate(0,2.5000001e-4)"
         id="path273" />
    </clipPath>
    <clipPath
       clipPathUnits="userSpaceOnUse"
       id="clipPath275">
      <path
         d="m 3537.63,4600.48 h 1938 v 1775.27 h -1938 z"
         transform="translate(0,2.5000001e-4)"
         id="path275" />
    </clipPath>
    <clipPath
       clipPathUnits="userSpaceOnUse"
       id="clipPath277">
      <path
         d="m 3537.63,4600.48 h 1938 v 1775.27 h -1938 z m 946.05,1626.48 h 9.78 l 22.83,-163.08 -27.95,27.96 -27.96,-27.96 z"
         transform="translate(0,2.5000001e-4)"
         clip-rule="evenodd"
         id="path277" />
    </clipPath>
    <clipPath
       clipPathUnits="userSpaceOnUse"
       id="clipPath279">
      <path
         d="m 3537.63,4600.48 h 1938 v 1775.27 h -1938 z"
         transform="translate(0,2.5000001e-4)"
         id="path279" />
    </clipPath>
    <clipPath
       clipPathUnits="userSpaceOnUse"
       id="clipPath281">
      <path
         d="m 3537.63,4600.48 h 1938 v 1775.27 h -1938 z"
         transform="translate(0,2.5000001e-4)"
         id="path281" />
    </clipPath>
    <clipPath
       clipPathUnits="userSpaceOnUse"
       id="clipPath283">
      <path
         d="m 3537.63,4600.48 h 1938 v 1775.27 h -1938 z"
         transform="translate(0,2.5000001e-4)"
         id="path283" />
    </clipPath>
    <clipPath
       clipPathUnits="userSpaceOnUse"
       id="clipPath285">
      <path
         d="m 3537.63,4600.48 h 1938 v 1775.27 h -1938 z"
         transform="translate(0,2.5000001e-4)"
         id="path285" />
    </clipPath>
    <clipPath
       clipPathUnits="userSpaceOnUse"
       id="clipPath287">
      <path
         d="m 3537.63,4600.48 h 1938 v 1775.27 h -1938 z"
         transform="translate(0,2.5000001e-4)"
         id="path287" />
    </clipPath>
    <clipPath
       clipPathUnits="userSpaceOnUse"
       id="clipPath289">
      <path
         d="m 3537.63,4600.48 h 1938 v 1775.27 h -1938 z"
         transform="translate(0,2.5000001e-4)"
         id="path289" />
    </clipPath>
  </defs>
  <sodipodi:namedview
     id="namedview1"
     pagecolor="#505050"
     bordercolor="#eeeeee"
     borderopacity="1"
     inkscape:showpageshadow="0"
     inkscape:pageopacity="0"
     inkscape:pagecheckerboard="0"
     inkscape:deskcolor="#505050" />
  <g
     id="g1"
     inkscape:groupmode="layer"
     inkscape:label="663"
     transform="translate(-473.16797,-269.39064)">
    <path
       id="path258"
       d="m 3775.46,4747.62 705.89,6.99"
       style="fill:#b2dfbc;stroke:#b2dfbc;stroke-width:6.98901;stroke-linecap:butt;stroke-linejoin:miter;stroke-miterlimit:10;stroke-dasharray:none;stroke-opacity:1"
       transform="matrix(0.13333333,0,0,-0.13333333,0,1122.6667)"
       clip-path="url(#clipPath259)" />
    <path
       id="path260"
       d="m 4323.4,4725.25 139.31,29.36 -139.78,26.55 27.96,-27.95 -27.49,-27.96"
       style="fill:#ff00ff;fill-opacity:1;fill-rule:evenodd;stroke:none"
       transform="matrix(0.13333333,0,0,-0.13333333,0,1122.6667)"
       clip-path="url(#clipPath261)" />
    <path
       id="path262"
       d="m 4323.4,4725.25 139.31,29.36 -139.78,26.55 27.96,-27.95 z"
       style="fill:#b2dfbc;stroke:#b2dfbc;stroke-width:6.98901;stroke-linecap:butt;stroke-linejoin:miter;stroke-miterlimit:10;stroke-dasharray:none;stroke-opacity:1"
       transform="matrix(0.13333333,0,0,-0.13333333,0,1122.6667)"
       clip-path="url(#clipPath263)" />
    <path
       id="path264"
       d="M 3775.46,4761.59 5194.23,6187.35"
       style="fill:#ea95bf;stroke:#f0b6d3;stroke-width:6.98901;stroke-linecap:butt;stroke-linejoin:miter;stroke-miterlimit:10;stroke-dasharray:none;stroke-opacity:1"
       transform="matrix(0.13333333,0,0,-0.13333333,0,1122.6667)"
       clip-path="url(#clipPath265)" />
    <path
       id="path266"
       d="m 5102.44,6055.49 78.74,118.81 -118.34,-79.2 h 39.6 v -39.61"
       style="fill:#ff0000;fill-opacity:1;fill-rule:evenodd;stroke:none"
       transform="matrix(0.13333333,0,0,-0.13333333,0,1122.6667)"
       clip-path="url(#clipPath267)" />
    <path
       id="path268"
       d="m 5102.44,6055.49 78.74,118.81 -118.34,-79.2 h 39.6 z"
       style="fill:#f0b6d3;stroke:#f0b6d3;stroke-width:6.98901;stroke-linecap:butt;stroke-linejoin:miter;stroke-miterlimit:10;stroke-dasharray:none;stroke-opacity:1"
       transform="matrix(0.13333333,0,0,-0.13333333,0,1122.6667)"
       clip-path="url(#clipPath269)" />
    <path
       id="path270"
       d="m 4495.33,6222.3 677.93,-2.8"
       style="fill:none;stroke:#b2dfbc;stroke-width:6.98901;stroke-linecap:butt;stroke-linejoin:miter;stroke-miterlimit:10;stroke-dasharray:none;stroke-opacity:1"
       transform="matrix(0.13333333,0,0,-0.13333333,0,1122.6667)"
       clip-path="url(#clipPath271)" />
    <path
       id="path272"
       d="m 5014.84,6192.01 139.79,27.49 -139.32,28.42 27.49,-27.96 -27.96,-27.95"
       style="fill:#ff00ff;fill-opacity:1;fill-rule:evenodd;stroke:none"
       transform="matrix(0.13333333,0,0,-0.13333333,0,1122.6667)"
       clip-path="url(#clipPath273)" />
    <path
       id="path274"
       d="m 5014.84,6192.01 139.79,27.49 -139.32,28.42 27.49,-27.96 z"
       style="fill:#b2dfbc;stroke:#b2dfbc;stroke-width:6.98901;stroke-linecap:butt;stroke-linejoin:miter;stroke-miterlimit:10;stroke-dasharray:none;stroke-opacity:1"
       transform="matrix(0.13333333,0,0,-0.13333333,0,1122.6667)"
       clip-path="url(#clipPath275)" />
    <path
       id="path276"
       d="M 4488.34,4754.61 V 6222.3"
       style="fill:#b2dfbc;stroke:#b2dfbc;stroke-width:6.98901;stroke-linecap:butt;stroke-linejoin:miter;stroke-miterlimit:10;stroke-dasharray:none;stroke-opacity:1"
       transform="matrix(0.13333333,0,0,-0.13333333,0,1122.6667)"
       clip-path="url(#clipPath277)" />
    <path
       id="path278"
       d="m 4516.29,6063.88 -27.95,139.78 -27.96,-139.78 27.96,27.96 27.95,-27.96"
       style="fill:#ff00ff;fill-opacity:1;fill-rule:evenodd;stroke:none"
       transform="matrix(0.13333333,0,0,-0.13333333,0,1122.6667)"
       clip-path="url(#clipPath279)" />
    <path
       id="path280"
       d="m 4516.29,6063.88 -27.95,139.78 -27.96,-139.78 27.96,27.96 z"
       style="fill:#b2dfbc;stroke:#b2dfbc;stroke-width:6.98901;stroke-linecap:butt;stroke-linejoin:miter;stroke-miterlimit:10;stroke-dasharray:none;stroke-opacity:1"
       transform="matrix(0.13333333,0,0,-0.13333333,0,1122.6667)"
       clip-path="url(#clipPath281)" />
    <path
       id="path282"
       d="m 3816.93,4747.62 c 0,-34.48 -27.96,-62.44 -62.44,-62.44 -34.48,0 -62.43,27.96 -62.43,62.44 0,34.48 27.95,62.43 62.43,62.43 34.48,0 62.44,-27.95 62.44,-62.43"
       style="fill:#5a9cfe;fill-opacity:1;fill-rule:evenodd;stroke:#5a9cfe"
       transform="matrix(0.13333333,0,0,-0.13333333,0,1122.6667)"
       clip-path="url(#clipPath283)" />
    <path
       id="path284"
       d="m 3816.93,4747.62 c 0,-34.48 -27.96,-62.44 -62.44,-62.44 -34.48,0 -62.43,27.96 -62.43,62.44 0,34.48 27.95,62.43 62.43,62.43 34.48,0 62.44,-27.95 62.44,-62.43 z"
       style="fill:none;stroke:#5a9cfe;stroke-width:6.98901;stroke-linecap:butt;stroke-linejoin:miter;stroke-miterlimit:10;stroke-dasharray:none;stroke-opacity:1"
       transform="matrix(0.13333333,0,0,-0.13333333,0,1122.6667)"
       clip-path="url(#clipPath285)" />
    <path
       id="path286"
       d="m 5298.6,6222.3 c 0,-34.48 -27.96,-62.44 -62.44,-62.44 -34.48,0 -62.43,27.96 -62.43,62.44 0,34.48 27.95,62.43 62.43,62.43 34.48,0 62.44,-27.95 62.44,-62.43"
       style="fill:#0000ff;fill-opacity:1;fill-rule:evenodd;stroke:none"
       transform="matrix(0.13333333,0,0,-0.13333333,0,1122.6667)"
       clip-path="url(#clipPath287)" />
    <path
       id="path288"
       d="m 5298.6,6222.3 c 0,-34.48 -27.96,-62.44 -62.44,-62.44 -34.48,0 -62.43,27.96 -62.43,62.44 0,34.48 27.95,62.43 62.43,62.43 34.48,0 62.44,-27.95 62.44,-62.43 z"
       style="fill:#5a9cfe;stroke:#5a9cfe;stroke-width:6.98901;stroke-linecap:butt;stroke-linejoin:miter;stroke-miterlimit:10;stroke-dasharray:none;stroke-opacity:1"
       transform="matrix(0.13333333,0,0,-0.13333333,0,1122.6667)"
       clip-path="url(#clipPath289)" />
    <g
       id="g289"
       aria-label="˙z=g(z)&#10;˙z=g(z)&#10;˙&#10;w=r(w)&#10;y&#10;(j−1)&#10;y&#10;(j)"
       transform="matrix(1.3333333,0,0,1.3333333,638.10533,281.84533)"
       style="fill:#5a9cfe">
      <path
         id="path290"
         d="m 1.5118203,-7.618375 c -0.375,0 -0.60937499,0.2460938 -0.60937499,0.5976563 0,0.3632812 0.23437499,0.5976562 0.59765629,0.5976562 0.3515625,0 0.5976562,-0.234375 0.5976562,-0.5976562 0,-0.3398438 -0.2460937,-0.5976563 -0.5859375,-0.5976563 z m 0,0"
         style="fill:#5a9cfe;fill-opacity:1;fill-rule:nonzero;stroke:none" />
      <path
         id="path291"
         d="m 3.9317422,-5.0636875 v -0.421875 c -0.8671875,0.046875 -1.2890625,0.058594 -1.828125,0.058594 -0.3867188,0 -1.1015625,-0.011719 -2.82421876,-0.058594 l -0.0820313,0.058594 -0.0351563,1.6054687 h 0.45703125 l 0.0351563,-0.3046875 c 0.0703125,-0.5742187 0.234375,-0.703125 0.90234375,-0.703125 H 1.9747109 l -2.03906246,2.8476563 c -0.24609375,0.3398437 -0.45703125,0.6328125 -1.24218754,1.61718745 v 0.3984375 C 0.11142969,-0.0011875 0.11142969,-0.0011875 0.58017969,-0.0011875 L 3.8497109,0.03396875 3.9083047,-0.024625 c 0,-0.52734375 0.058594,-1.2539062 0.140625,-1.828125 H 3.5684609 l -0.058594,0.375 c -0.1054685,0.6796875 -0.2578122,0.8203125 -0.832031,0.8203125 H 0.73252344 Z m 0,0"
         style="fill:#5a9cfe;fill-opacity:1;fill-rule:nonzero;stroke:none" />
      <path
         id="path292"
         d="m 16.655375,-4.0793125 c 0.1875,0 0.421875,0 0.421875,-0.2460937 C 17.07725,-4.5715 16.842875,-4.5715 16.667094,-4.5715 H 9.2139688 c -0.1757813,0 -0.4101563,0 -0.4101563,0.2460938 0,0.2460937 0.234375,0.2460937 0.421875,0.2460937 z m 0.01172,2.4257813 c 0.175781,0 0.410156,0 0.410156,-0.2578125 0,-0.2460938 -0.234375,-0.2460938 -0.421875,-0.2460938 H 9.2256875 c -0.1875,0 -0.421875,0 -0.421875,0.2460938 0,0.2578125 0.234375,0.2578125 0.4101563,0.2578125 z m 0,0"
         style="fill:#5a9cfe;fill-opacity:1;fill-rule:nonzero;stroke:none" />
      <path
         id="path293"
         d="m 27.738383,-4.3957187 0.05859,-0.7734375 c -0.492188,0.046875 -0.726563,0.058594 -0.984375,0.058594 -0.09375,0 -0.234375,0 -0.433594,-0.011719 -0.480469,-0.3515625 -1.042969,-0.5039063 -1.816406,-0.5039063 -1.523438,0 -2.589844,0.8789063 -2.589844,2.1328125 0,0.4453125 0.152344,0.84375 0.445312,1.1484375 0.222657,0.234375 0.398438,0.3515625 0.820313,0.4921875 l -0.84375,0.6445313 c -0.128906,0.082031 -0.210938,0.3398437 -0.210938,0.5742187 0,0.43359375 0.222657,0.64453125 0.820313,0.796875 L 22.031352,0.73709375 C 21.85557,0.8425625 21.726664,1.1589688 21.726664,1.475375 c 0,1.0429688 0.996094,1.6992188 2.578125,1.6992188 2.085938,0 3.503906,-1.078125 3.503906,-2.67187505 0,-1.0078125 -0.5625,-1.48828125 -1.769531,-1.48828125 h -0.292969 c -1.183593,0.0351563 -1.605468,0.046875 -1.746093,0.046875 -0.363282,0 -0.5625,-0.1171875 -0.5625,-0.3515625 0,-0.1757812 0.117187,-0.328125 0.351562,-0.46875 0.210938,0.011719 0.339844,0.023437 0.480469,0.023437 0.820312,0 1.582031,-0.2695312 2.074219,-0.7617187 0.375,-0.375 0.527343,-0.796875 0.527343,-1.3945313 0,-0.1875 -0.01172,-0.328125 -0.05859,-0.5507812 z m -3.316406,-0.6328125 c 0.632812,0 0.984375,0.5039062 0.984375,1.453125 0,0.84375 -0.328125,1.2890625 -0.960938,1.2890625 -0.621094,0 -1.007812,-0.5390625 -1.007812,-1.4296875 0,-0.8671875 0.339843,-1.3125 0.984375,-1.3125 z m 0.234375,5.20312495 c 1.464843,0 1.816406,0.19921875 1.816406,0.96093755 0,0.8203125 -0.796875,1.4414062 -1.863281,1.4414062 -1.054688,0 -1.769532,-0.5039062 -1.769532,-1.2421875 0,-0.43359375 0.257813,-0.84375 0.609375,-1.01953125 0.199219,-0.09375 0.621094,-0.140625 1.207032,-0.140625 z m 0,0"
         style="fill:#5a9cfe;fill-opacity:1;fill-rule:nonzero;stroke:none" />
      <path
         id="path294"
         d="m 32.493266,2.9870938 c 0,-0.035156 0,-0.058594 -0.210938,-0.2695313 -1.558594,-1.5703125 -1.957031,-3.9257812 -1.957031,-5.8359375 0,-2.1679687 0.46875,-4.3359375 2.003906,-5.8945312 0.164063,-0.140625 0.164063,-0.1640625 0.164063,-0.2109375 0,-0.082031 -0.04687,-0.1171875 -0.128907,-0.1171875 -0.117187,0 -1.242187,0.84375 -1.980468,2.4257812 -0.632813,1.3710938 -0.785157,2.7539063 -0.785157,3.796875 0,0.9726563 0.140625,2.484375 0.820313,3.890625 0.75,1.5351563 1.828125,2.34375 1.945312,2.34375 0.08203,0 0.128907,-0.035156 0.128907,-0.1289062 z m 0,0"
         style="fill:#5a9cfe;fill-opacity:1;fill-rule:nonzero;stroke:none" />
      <path
         id="path295"
         d="m 38.92393,-5.0636875 v -0.421875 c -0.867188,0.046875 -1.289063,0.058594 -1.828125,0.058594 -0.386719,0 -1.101563,-0.011719 -2.824219,-0.058594 l -0.08203,0.058594 -0.03516,1.6054687 h 0.457032 l 0.03516,-0.3046875 c 0.07031,-0.5742187 0.234375,-0.703125 0.902344,-0.703125 H 36.9669 l -2.039062,2.8476563 c -0.246094,0.3398437 -0.457031,0.6328125 -1.242188,1.61718745 v 0.3984375 C 35.103619,-0.0011873 35.103619,-0.0011873 35.572369,-0.0011873 L 38.8419,0.03396895 38.90049,-0.0246248 c 0,-0.52734375 0.05859,-1.2539062 0.140625,-1.828125 h -0.480469 l -0.05859,0.375 c -0.105469,0.6796875 -0.257813,0.8203125 -0.832032,0.8203125 h -1.945312 z m 0,0"
         style="fill:#5a9cfe;fill-opacity:1;fill-rule:nonzero;stroke:none" />
      <path
         id="path296"
         d="m 43.377055,-3.118375 c 0,-0.9726562 -0.128907,-2.4726562 -0.820313,-3.8789062 -0.75,-1.5351563 -1.816406,-2.34375 -1.945312,-2.34375 -0.07031,0 -0.117188,0.046875 -0.117188,0.1171875 0,0.046875 0,0.070312 0.234375,0.2929687 1.21875,1.2304688 1.933594,3.2109375 1.933594,5.8125 0,2.1328125 -0.46875,4.3242188 -2.015625,5.8945313 -0.152344,0.1523437 -0.152344,0.1757812 -0.152344,0.2109375 0,0.070312 0.04687,0.1289062 0.117188,0.1289062 0.128906,0 1.253906,-0.8554687 1.980468,-2.4375 0.632813,-1.359375 0.785157,-2.7421875 0.785157,-3.796875 z m 0,0"
         style="fill:#5a9cfe;fill-opacity:1;fill-rule:nonzero;stroke:none" />
      <path
         id="path297"
         d="m -66.981344,162.21561 c -0.375,0 -0.609375,0.24609 -0.609375,0.59766 0,0.36328 0.234375,0.59765 0.597657,0.59765 0.351562,0 0.597656,-0.23437 0.597656,-0.59765 0,-0.33985 -0.246094,-0.59766 -0.585938,-0.59766 z m 0,0"
         style="fill:#5a9cfe;fill-opacity:1;fill-rule:nonzero;stroke:none" />
      <path
         id="path298"
         d="m -64.561422,164.7703 v -0.42188 c -0.867187,0.0469 -1.289062,0.0586 -1.828125,0.0586 -0.386719,0 -1.101562,-0.0117 -2.824219,-0.0586 l -0.08203,0.0586 -0.03516,1.60546 h 0.457031 l 0.03516,-0.30468 c 0.07031,-0.57422 0.234375,-0.70313 0.902344,-0.70313 h 1.417969 l -2.039063,2.84766 c -0.246093,0.33984 -0.457031,0.63281 -1.242187,1.61719 v 0.39843 c 1.417969,-0.0352 1.417969,-0.0352 1.886719,-0.0352 l 3.269531,0.0352 0.05859,-0.0586 c 0,-0.52734 0.05859,-1.25391 0.140625,-1.82813 h -0.480469 l -0.05859,0.375 c -0.105469,0.67969 -0.257812,0.82032 -0.832031,0.82032 h -1.945313 z m 0,0"
         style="fill:#5a9cfe;fill-opacity:1;fill-rule:nonzero;stroke:none" />
      <path
         id="path299"
         d="m -51.837789,165.75467 c 0.1875,0 0.421875,0 0.421875,-0.24609 0,-0.2461 -0.234375,-0.2461 -0.410156,-0.2461 h -7.453125 c -0.175782,0 -0.410157,0 -0.410157,0.2461 0,0.24609 0.234375,0.24609 0.421875,0.24609 z m 0.01172,2.42578 c 0.175781,0 0.410156,0 0.410156,-0.25781 0,-0.24609 -0.234375,-0.24609 -0.421875,-0.24609 h -7.429688 c -0.1875,0 -0.421875,0 -0.421875,0.24609 0,0.25781 0.234375,0.25781 0.410157,0.25781 z m 0,0"
         style="fill:#5a9cfe;fill-opacity:1;fill-rule:nonzero;stroke:none" />
      <path
         id="path300"
         d="m -40.751852,165.43827 0.05859,-0.77344 c -0.492187,0.0469 -0.726562,0.0586 -0.984375,0.0586 -0.09375,0 -0.234375,0 -0.433594,-0.0117 -0.480468,-0.35156 -1.042968,-0.5039 -1.816406,-0.5039 -1.523437,0 -2.589844,0.8789 -2.589844,2.13281 0,0.44531 0.152344,0.84375 0.445313,1.14844 0.222656,0.23437 0.398437,0.35156 0.820312,0.49218 l -0.84375,0.64454 c -0.128906,0.082 -0.210937,0.33984 -0.210937,0.57421 0,0.4336 0.222656,0.64454 0.820312,0.79688 l -0.972656,0.57422 c -0.175781,0.10547 -0.304687,0.42187 -0.304687,0.73828 0,1.04297 0.996093,1.69922 2.578125,1.69922 2.085937,0 3.503906,-1.07813 3.503906,-2.67188 0,-1.00781 -0.5625,-1.48828 -1.769531,-1.48828 h -0.292969 c -1.183594,0.0352 -1.605469,0.0469 -1.746094,0.0469 -0.363281,0 -0.5625,-0.11719 -0.5625,-0.35157 0,-0.17578 0.117188,-0.32812 0.351563,-0.46875 0.210937,0.0117 0.339843,0.0234 0.480468,0.0234 0.820313,0 1.582032,-0.26953 2.074219,-0.76172 0.375,-0.375 0.527344,-0.79687 0.527344,-1.39453 0,-0.1875 -0.01172,-0.32812 -0.05859,-0.55078 z m -3.316406,-0.63282 c 0.632813,0 0.984375,0.50391 0.984375,1.45313 0,0.84375 -0.328125,1.28906 -0.960937,1.28906 -0.621094,0 -1.007813,-0.53906 -1.007813,-1.42969 0,-0.86718 0.339844,-1.3125 0.984375,-1.3125 z m 0.234375,5.20313 c 1.464844,0 1.816406,0.19922 1.816406,0.96094 0,0.82031 -0.796875,1.4414 -1.863281,1.4414 -1.054687,0 -1.769531,-0.5039 -1.769531,-1.24219 0,-0.43359 0.257812,-0.84375 0.609375,-1.01953 0.199219,-0.0937 0.621094,-0.14062 1.207031,-0.14062 z m 0,0"
         style="fill:#5a9cfe;fill-opacity:1;fill-rule:nonzero;stroke:none" />
      <path
         id="path301"
         d="m -35.999898,172.82108 c 0,-0.0352 0,-0.0586 -0.210938,-0.26953 -1.558594,-1.57032 -1.957031,-3.92578 -1.957031,-5.83594 0,-2.16797 0.46875,-4.33594 2.003906,-5.89453 0.164063,-0.14063 0.164063,-0.16406 0.164063,-0.21094 0,-0.082 -0.04687,-0.11719 -0.128907,-0.11719 -0.117187,0 -1.242187,0.84375 -1.980468,2.42578 -0.632813,1.3711 -0.785157,2.75391 -0.785157,3.79688 0,0.97266 0.140625,2.48437 0.820313,3.89062 0.75,1.53516 1.828125,2.34375 1.945312,2.34375 0.08203,0 0.128907,-0.0352 0.128907,-0.1289 z m 0,0"
         style="fill:#5a9cfe;fill-opacity:1;fill-rule:nonzero;stroke:none" />
      <path
         id="path302"
         d="m -29.569234,164.7703 v -0.42188 c -0.867188,0.0469 -1.289063,0.0586 -1.828125,0.0586 -0.386719,0 -1.101563,-0.0117 -2.824219,-0.0586 l -0.08203,0.0586 -0.03516,1.60546 h 0.457032 l 0.03516,-0.30468 c 0.07031,-0.57422 0.234375,-0.70313 0.902344,-0.70313 h 1.417968 l -2.039062,2.84766 c -0.246094,0.33984 -0.457031,0.63281 -1.242188,1.61719 v 0.39843 c 1.417969,-0.0352 1.417969,-0.0352 1.886719,-0.0352 l 3.269531,0.0352 0.05859,-0.0586 c 0,-0.52734 0.05859,-1.25391 0.140625,-1.82813 h -0.480469 l -0.05859,0.375 c -0.105469,0.67969 -0.257813,0.82032 -0.832032,0.82032 h -1.945312 z m 0,0"
         style="fill:#5a9cfe;fill-opacity:1;fill-rule:nonzero;stroke:none" />
      <path
         id="path303"
         d="m -25.11318,166.71561 c 0,-0.97266 -0.128906,-2.47266 -0.820312,-3.87891 -0.75,-1.53515 -1.816406,-2.34375 -1.945313,-2.34375 -0.07031,0 -0.117187,0.0469 -0.117187,0.11719 0,0.0469 0,0.0703 0.234375,0.29297 1.21875,1.23047 1.933594,3.21094 1.933594,5.8125 0,2.13281 -0.46875,4.32422 -2.015625,5.89453 -0.152344,0.15234 -0.152344,0.17578 -0.152344,0.21094 0,0.0703 0.04687,0.1289 0.117187,0.1289 0.128907,0 1.253907,-0.85546 1.980469,-2.4375 0.632813,-1.35937 0.785156,-2.74218 0.785156,-3.79687 z m 0,0"
         style="fill:#5a9cfe;fill-opacity:1;fill-rule:nonzero;stroke:none" />
      <path
         id="path304"
         d="m -18.864156,98.588656 c -0.375,0 -0.609375,0.246094 -0.609375,0.597657 0,0.363281 0.234375,0.597656 0.597656,0.597656 0.351563,0 0.597656,-0.234375 0.597656,-0.597656 0,-0.339844 -0.246093,-0.597657 -0.585937,-0.597657 z m 0,0"
         style="fill:#5a9cfe;fill-opacity:1;fill-rule:nonzero;stroke:none" />
      <path
         id="path305"
         d="m -21.538961,106.26737 h 0.9375 c 0.597656,-1.59375 0.738281,-1.875 1.640625,-3.66797 l 1.582031,3.66797 h 0.960938 c 0.117187,-0.35157 0.164062,-0.51563 0.175781,-0.5625 0.117188,-0.39844 0.199219,-0.66797 0.246094,-0.8086 l 1.101562,-3.10547 c 0.140625,-0.39843 0.257813,-0.55078 0.433594,-0.5625 l 0.398438,-0.0234 v -0.45703 c -0.996094,0.0352 -0.996094,0.0352 -1.207032,0.0352 -0.199218,0 -0.199218,0 -1.207031,-0.0352 v 0.45703 l 0.503906,0.0234 c 0.210938,0.0117 0.351563,0.10547 0.351563,0.2461 0,0.0469 -0.02344,0.17578 -0.03516,0.22265 l -0.433594,1.35938 c -0.140625,0.45703 -0.257813,0.78516 -0.46875,1.33594 l -1.652344,-3.78516 h -0.597656 l -1.03125,2.32031 c -0.105469,0.2461 -0.234375,0.49219 -0.351563,0.76172 -0.04687,0.0937 -0.08203,0.1875 -0.128906,0.29297 -0.07031,0.14063 -0.140625,0.30469 -0.199219,0.44531 l -0.714843,-2.71875 c -0.01172,-0.0469 -0.02344,-0.16406 -0.02344,-0.22265 0,-0.15235 0.105469,-0.25782 0.234375,-0.25782 l 0.5625,-0.0234 v -0.45703 l -1.617187,0.0352 c -0.164063,0 -0.363282,0 -1.628907,-0.0352 v 0.45703 l 0.398438,0.0234 c 0.269531,0.0234 0.398437,0.12891 0.492187,0.44532 z m 0,0"
         style="fill:#5a9cfe;fill-opacity:1;fill-rule:nonzero;stroke:none" />
      <path
         id="path306"
         d="m -1.7225547,102.15409 c 0.1875,0 0.421875,0 0.421875,-0.2461 0,-0.24609 -0.234375,-0.24609 -0.4101562,-0.24609 h -7.453125 c -0.1757813,0 -0.4101563,0 -0.4101563,0.24609 0,0.2461 0.234375,0.2461 0.421875,0.2461 z m 0.011719,2.42578 c 0.1757812,0 0.4101562,0 0.4101562,-0.25782 0,-0.24609 -0.234375,-0.24609 -0.421875,-0.24609 H -9.152242 c -0.1875,0 -0.421875,0 -0.421875,0.24609 0,0.25782 0.234375,0.25782 0.4101563,0.25782 z m 0,0"
         style="fill:#5a9cfe;fill-opacity:1;fill-rule:nonzero;stroke:none" />
      <path
         id="path307"
         d="m 5.5665078,100.60721 -0.8320312,0.25781 c -0.3867188,0.11719 -0.5976563,0.15235 -1.3476563,0.2461 v 0.43359 l 0.5390625,0.0352 c 0.2695313,0.0234 0.3046875,0.1289 0.3046875,0.84375 v 2.61328 c 0,0.64453 -0.058594,0.73828 -0.4335937,0.76172 l -0.4101563,0.0234 v 0.44532 l 1.5351563,-0.0352 c 0.1523437,0 0.1992187,0 1.8046875,0.0352 v -0.44532 l -0.46875,-0.0234 c -0.5039063,-0.0234 -0.5742188,-0.0937 -0.5742188,-0.76172 v -2.36719 c 0,-0.375 0.4921875,-0.76172 0.9609375,-0.76172 0.3046875,0 0.515625,0.14063 0.6796875,0.42188 l 0.2929688,-0.11719 0.058594,-1.53516 c -0.1171875,-0.0469 -0.28125,-0.0703 -0.4453125,-0.0703 -0.3398437,0 -0.5625,0.14063 -1.0195312,0.63281 l -0.5273438,0.57422 v -1.13672 z m 0,0"
         style="fill:#5a9cfe;fill-opacity:1;fill-rule:nonzero;stroke:none" />
      <path
         id="path308"
         d="m 12.1085,109.22049 c 0,-0.0352 0,-0.0586 -0.210937,-0.26953 -1.558594,-1.57031 -1.9570317,-3.92578 -1.9570317,-5.83594 0,-2.16797 0.4687497,-4.335934 2.0039067,-5.894528 0.164062,-0.140625 0.164062,-0.164062 0.164062,-0.210937 0,-0.08203 -0.04687,-0.117188 -0.128906,-0.117188 -0.117188,0 -1.242188,0.84375 -1.980469,2.425781 -0.6328125,1.371092 -0.7851562,2.753902 -0.7851562,3.796872 0,0.97266 0.140625,2.48438 0.8203122,3.89063 0.75,1.53515 1.828125,2.34375 1.945313,2.34375 0.08203,0 0.128906,-0.0352 0.128906,-0.12891 z m 0,0"
         style="fill:#5a9cfe;fill-opacity:1;fill-rule:nonzero;stroke:none" />
      <path
         id="path309"
         d="m 15.433695,106.26737 h 0.9375 c 0.597657,-1.59375 0.738282,-1.875 1.640625,-3.66797 l 1.582032,3.66797 h 0.960937 c 0.117188,-0.35157 0.164063,-0.51563 0.175781,-0.5625 0.117188,-0.39844 0.199219,-0.66797 0.246094,-0.8086 l 1.101563,-3.10547 c 0.140625,-0.39843 0.257812,-0.55078 0.433593,-0.5625 l 0.398438,-0.0234 v -0.45703 c -0.996094,0.0352 -0.996094,0.0352 -1.207031,0.0352 -0.199219,0 -0.199219,0 -1.207032,-0.0352 v 0.45703 l 0.503907,0.0234 c 0.210937,0.0117 0.351562,0.10547 0.351562,0.2461 0,0.0469 -0.02344,0.17578 -0.03516,0.22265 l -0.433594,1.35938 c -0.140625,0.45703 -0.257812,0.78516 -0.46875,1.33594 l -1.652344,-3.78516 H 18.16416 l -1.03125,2.32031 c -0.105469,0.2461 -0.234375,0.49219 -0.351562,0.76172 -0.04687,0.0937 -0.08203,0.1875 -0.128907,0.29297 -0.07031,0.14063 -0.140625,0.30469 -0.199218,0.44531 l -0.714844,-2.71875 c -0.01172,-0.0469 -0.02344,-0.16406 -0.02344,-0.22265 0,-0.15235 0.105469,-0.25782 0.234375,-0.25782 l 0.5625,-0.0234 v -0.45703 l -1.617187,0.0352 c -0.164063,0 -0.363281,0 -1.628906,-0.0352 v 0.45703 l 0.398437,0.0234 c 0.269531,0.0234 0.398438,0.12891 0.492188,0.44532 z m 0,0"
         style="fill:#5a9cfe;fill-opacity:1;fill-rule:nonzero;stroke:none" />
      <path
         id="path310"
         d="m 26.979594,103.11502 c 0,-0.97265 -0.128906,-2.47265 -0.820313,-3.878903 -0.75,-1.535156 -1.816406,-2.34375 -1.945312,-2.34375 -0.07031,0 -0.117188,0.04687 -0.117188,0.117188 0,0.04687 0,0.07031 0.234375,0.292968 1.21875,1.230469 1.933594,3.210937 1.933594,5.812497 0,2.13282 -0.46875,4.32422 -2.015625,5.89453 -0.152344,0.15235 -0.152344,0.17579 -0.152344,0.21094 0,0.0703 0.04687,0.12891 0.117188,0.12891 0.128906,0 1.253906,-0.85547 1.980469,-2.4375 0.632812,-1.35938 0.785156,-2.74219 0.785156,-3.79688 z m 0,0"
         style="fill:#5a9cfe;fill-opacity:1;fill-rule:nonzero;stroke:none" />
      <path
         id="path311"
         d="m -120.52724,138.24784 v -0.45704 l -1.58203,0.0352 c -0.15235,0 -0.35157,0 -1.59375,-0.0352 v 0.45704 l 0.42187,0.0234 c 0.17578,0.0117 0.31641,0.19922 0.50391,0.65625 l 1.88672,4.82813 -0.28125,0.66797 c -0.26953,0.67968 -0.69141,1.08984 -1.08985,1.08984 -0.3164,0 -0.5625,-0.12891 -0.84375,-0.44531 l -0.1289,0.0469 -0.21094,1.13672 c 0.31641,0.14063 0.59766,0.19922 0.86719,0.19922 0.83203,0 1.5,-0.64453 2.10937,-2.05078 l 2.37891,-5.53125 c 0.14062,-0.32813 0.3164,-0.52734 0.48047,-0.5625 l 0.3164,-0.0586 v -0.45704 l -1.11328,0.0352 c -0.0352,0 -0.41015,-0.0117 -1.11328,-0.0352 v 0.45704 l 0.39844,0.0234 c 0.1875,0.0117 0.3164,0.10547 0.3164,0.23438 0,0.0703 -0.0234,0.19922 -0.0469,0.25781 l -1.20703,3.01172 -0.9961,-2.60156 c 0,-0.0117 -0.0352,-0.0937 -0.0703,-0.17578 -0.10547,-0.23438 -0.14062,-0.33985 -0.14062,-0.45704 0,-0.15234 0.14062,-0.25781 0.3164,-0.26953 z m 0,0"
         style="fill:#5a9cfe;fill-opacity:1;fill-rule:nonzero;stroke:none" />
      <path
         id="path312"
         d="m -113.81533,141.17459 c 0,-0.0234 0,-0.0469 -0.16406,-0.19921 -1.16016,-1.1836 -1.46484,-2.94141 -1.46484,-4.3711 0,-1.6289 0.35156,-3.25781 1.5,-4.41797 0.1289,-0.11718 0.1289,-0.1289 0.1289,-0.16406 0,-0.0586 -0.0352,-0.0937 -0.0937,-0.0937 -0.0937,0 -0.9375,0.63281 -1.48828,1.82813 -0.48047,1.01953 -0.58594,2.0625 -0.58594,2.84765 0,0.72656 0.10547,1.85156 0.6211,2.90625 0.55078,1.14844 1.35937,1.75781 1.45312,1.75781 0.0586,0 0.0937,-0.0234 0.0937,-0.0937 z m 0,0"
         style="fill:#5a9cfe;fill-opacity:1;fill-rule:nonzero;stroke:none" />
      <path
         id="path313"
         d="m -113.37295,141.35038 c 0.0937,0.0469 0.21094,0.0586 0.35157,0.0586 0.35156,0 0.71484,-0.38672 1.03125,-1.11328 0.1875,-0.39844 0.30468,-0.84375 0.5625,-1.99219 l 0.67968,-3.12891 c 0.0352,-0.16406 0.0469,-0.28125 0.0469,-0.33984 0,-0.14062 -0.0703,-0.22266 -0.22266,-0.22266 -0.19922,0 -0.52734,0.1875 -1.19531,0.66797 l -0.25781,0.17578 0.0703,0.17579 0.28125,-0.1875 c 0.33984,-0.19922 0.36328,-0.22266 0.42188,-0.22266 0.0937,0 0.16406,0.0937 0.16406,0.21094 0,0.0351 -0.0234,0.15234 -0.0469,0.24609 -0.0117,0.0586 -0.0117,0.0937 -0.0117,0.10547 l -0.90234,4.44141 c -0.0937,0.46875 -0.25781,0.78515 -0.42187,0.78515 -0.12891,0 -0.28125,-0.0586 -0.46875,-0.17578 z m 2.6836,-8.80079 c -0.25781,0 -0.51563,0.30469 -0.51563,0.60938 0,0.22266 0.12891,0.36328 0.35157,0.36328 0.26953,0 0.49218,-0.25781 0.49218,-0.59766 0,-0.22265 -0.14062,-0.375 -0.32812,-0.375 z m 0,0"
         style="fill:#5a9cfe;fill-opacity:1;fill-rule:nonzero;stroke:none" />
      <path
         id="path314"
         d="m -103.87783,136.79178 c 0.16406,0 0.32813,0 0.32813,-0.1875 0,-0.1875 -0.16407,-0.1875 -0.32813,-0.1875 h -5.05078 c -0.16406,0 -0.32812,0 -0.32812,0.1875 0,0.1875 0.16406,0.1875 0.32812,0.1875 z m 0,0"
         style="fill:#5a9cfe;fill-opacity:1;fill-rule:nonzero;stroke:none" />
      <path
         id="path315"
         d="m -102.06142,133.95584 h 0.0937 l 1.16015,-0.51562 c 0,-0.0117 0.0117,-0.0117 0.0234,-0.0117 0.0469,0 0.0703,0.082 0.0703,0.30469 v 4.34765 c 0,0.45704 -0.0937,0.5625 -0.58593,0.58594 l -0.50391,0.0234 v 0.26953 c 1.38281,-0.0234 1.38281,-0.0234 1.48828,-0.0234 0.11719,0 0.30469,0 0.609377,0.0117 0.117187,0.0117 0.421875,0.0117 0.796875,0.0117 v -0.26953 l -0.46875,-0.0234 c -0.492188,-0.0234 -0.585938,-0.1289 -0.585938,-0.58594 v -5.32031 l -0.117184,-0.0469 c -0.58594,0.30468 -1.21875,0.57422 -2.03907,0.86718 z m 0,0"
         style="fill:#5a9cfe;fill-opacity:1;fill-rule:nonzero;stroke:none" />
      <path
         id="path316"
         d="m -95.375875,136.60428 c 0,-0.72656 -0.09375,-1.86328 -0.609375,-2.91797 -0.5625,-1.14843 -1.371094,-1.75781 -1.464844,-1.75781 -0.04687,0 -0.09375,0.0352 -0.09375,0.0937 0,0.0352 0,0.0469 0.1875,0.22266 0.914063,0.91406 1.441407,2.40234 1.441407,4.35937 0,1.59375 -0.339844,3.23438 -1.5,4.41797 -0.128907,0.10547 -0.128907,0.12891 -0.128907,0.15234 0,0.0586 0.04687,0.0937 0.09375,0.0937 0.09375,0 0.9375,-0.63281 1.488282,-1.8164 0.480468,-1.03125 0.585937,-2.0625 0.585937,-2.84766 z m 0,0"
         style="fill:#5a9cfe;fill-opacity:1;fill-rule:nonzero;stroke:none" />
      <path
         id="path317"
         d="M 61.186625,5.4568203 V 4.9997891 l -1.582031,0.035156 c -0.152344,0 -0.351563,0 -1.59375,-0.035156 v 0.4570312 l 0.421875,0.023437 c 0.175781,0.011719 0.316406,0.1992188 0.503906,0.65625 l 1.886719,4.8281257 -0.28125,0.667969 c -0.269531,0.679686 -0.691406,1.089843 -1.089844,1.089843 -0.316406,0 -0.5625,-0.128907 -0.84375,-0.445312 l -0.128906,0.04687 -0.210938,1.136719 c 0.316407,0.140625 0.597657,0.199218 0.867188,0.199218 0.832031,0 1.5,-0.644531 2.109375,-2.050781 l 2.378906,-5.5312504 c 0.140625,-0.328125 0.316406,-0.5273438 0.480469,-0.5625 L 64.421,5.4568203 V 4.9997891 l -1.113281,0.035156 c -0.03516,0 -0.410156,-0.011719 -1.113281,-0.035156 v 0.4570312 l 0.398437,0.023437 c 0.1875,0.011719 0.316406,0.1054688 0.316406,0.234375 0,0.070312 -0.02344,0.1992188 -0.04687,0.2578125 L 61.655375,8.9841641 60.659281,6.3826016 c 0,-0.011719 -0.03516,-0.09375 -0.07031,-0.1757813 -0.105469,-0.234375 -0.140625,-0.3398437 -0.140625,-0.4570312 0,-0.1523438 0.140625,-0.2578125 0.316406,-0.2695313 z m 0,0"
         style="fill:#5a9cfe;fill-opacity:1;fill-rule:nonzero;stroke:none" />
      <path
         id="path318"
         d="m 67.901469,8.3747891 c 0,-0.023437 0,-0.046875 -0.164063,-0.1992188 -1.160156,-1.1835937 -1.464843,-2.9414062 -1.464843,-4.3710937 0,-1.6289063 0.351562,-3.25781254 1.5,-4.41796879 0.128906,-0.1171875 0.128906,-0.12890625 0.128906,-0.1640625 0,-0.0585938 -0.03516,-0.09375 -0.09375,-0.09375 -0.09375,0 -0.9375,0.6328125 -1.488281,1.828125 C 65.838969,1.9763516 65.7335,3.0193203 65.7335,3.8044766 c 0,0.7265625 0.105469,1.8515625 0.621094,2.90625 0.550781,1.1484375 1.359375,1.7578125 1.453125,1.7578125 0.05859,0 0.09375,-0.023437 0.09375,-0.09375 z m 0,0"
         style="fill:#5a9cfe;fill-opacity:1;fill-rule:nonzero;stroke:none" />
      <path
         id="path319"
         d="m 68.340922,8.5505703 c 0.09375,0.046875 0.210937,0.058594 0.351562,0.058594 0.351563,0 0.714844,-0.3867188 1.03125,-1.1132813 0.1875,-0.3984375 0.304688,-0.84375 0.5625,-1.9921875 l 0.679688,-3.1289062 c 0.03516,-0.1640625 0.04687,-0.28125 0.04687,-0.3398438 0,-0.140625 -0.07031,-0.2226562 -0.222656,-0.2226562 -0.199219,0 -0.527344,0.1875 -1.195313,0.6679687 l -0.257812,0.1757813 0.07031,0.1757812 0.28125,-0.1875 c 0.339844,-0.1992187 0.363281,-0.2226562 0.421875,-0.2226562 0.09375,0 0.164063,0.09375 0.164063,0.2109375 0,0.035156 -0.02344,0.1523437 -0.04687,0.2460937 -0.01172,0.058594 -0.01172,0.09375 -0.01172,0.1054688 l -0.902344,4.4414062 c -0.09375,0.46875 -0.257812,0.7851563 -0.421875,0.7851563 -0.128906,0 -0.28125,-0.058594 -0.46875,-0.1757813 z m 2.683594,-8.80078124 c -0.257813,0 -0.515625,0.3046875 -0.515625,0.609375 0,0.22265625 0.128906,0.36328125 0.351562,0.36328125 0.269531,0 0.492188,-0.2578125 0.492188,-0.59765625 0,-0.22265625 -0.140625,-0.375 -0.328125,-0.375 z m 0,0"
         style="fill:#5a9cfe;fill-opacity:1;fill-rule:nonzero;stroke:none" />
      <path
         id="path320"
         d="m 74.379008,3.8044766 c 0,-0.7265625 -0.09375,-1.8632813 -0.609375,-2.91796879 -0.5625,-1.1484375 -1.371094,-1.7578125 -1.464844,-1.7578125 -0.04687,0 -0.09375,0.0351563 -0.09375,0.09375 0,0.0351563 0,0.046875 0.1875,0.22265625 0.914063,0.9140625 1.441406,2.40234374 1.441406,4.35937504 0,1.59375 -0.339843,3.234375 -1.5,4.4179687 -0.128906,0.1054688 -0.128906,0.1289063 -0.128906,0.1523438 0,0.058594 0.04687,0.09375 0.09375,0.09375 0.09375,0 0.9375,-0.6328125 1.488281,-1.8164063 0.480469,-1.03125 0.585938,-2.0625 0.585938,-2.8476562 z m 0,0"
         style="fill:#5a9cfe;fill-opacity:1;fill-rule:nonzero;stroke:none" />
    </g>
  </g>
</svg>
