<svg width="434" height="65.50431597433442" viewBox="0 0 364.1032793292691 54.954691835197664" class="css-1j8o68f"
xmlns="http://www.w3.org/2000/svg"
><defs id="SvgjsDefs1186"><linearGradient id="SvgjsLinearGradient1193"><stop id="SvgjsStop1194" stop-color="#00ddff" offset="0"></stop><stop id="SvgjsStop1195" stop-color="#ff00d4" offset="1"></stop></linearGradient><linearGradient id="SvgjsLinearGradient1196"><stop id="SvgjsStop1197" stop-color="#7f00ff" offset="0"></stop><stop id="SvgjsStop1198" stop-color="#e100ff" offset="1"></stop></linearGradient><linearGradient id="SvgjsLinearGradient1199"><stop id="SvgjsStop1200" stop-color="#00ddff" offset="0"></stop><stop id="SvgjsStop1201" stop-color="#ff00d4" offset="1"></stop></linearGradient></defs><g id="SvgjsG1187" featurekey="symbolFeature-0" transform="matrix(18.164913177490234,0,0,18.164913177490234,-4.377411299403897,-17.934958782449637)" fill="url(#SvgjsLinearGradient1193)"><title xmlns="http://www.w3.org/2000/svg">abstract</title><g xmlns="http://www.w3.org/2000/svg"><g><path d="M4.56576,3.4977c-.07875-.05621-.14425-.1018-.16046-.08432-.01589.01671.02492.09646.105.1637.07971.06787.16731.08655.18182.05814C4.707,3.60652,4.64417,3.554,4.56576,3.4977Z"></path><path d="M4.32354,3.53219c-.07148-.07522-.13012-.12067-.1425-.09063-.012.02956.03125.12568.10766.2051.0762.08.15283.10771.1599.0734C4.456,3.68568,4.39483,3.60756,4.32354,3.53219Z"></path><path d="M4.08307,3.536c-.06765-.0799-.12363-.11216-.13314-.06568a.37136.37136,0,0,0,.11327.23535c.0752.08157.144.10262.14566.05491A.48615.48615,0,0,0,4.08307,3.536Z"></path><path d="M3.83748,3.53784c-.067-.076-.12342-.08874-.13046-.02506a.39532.39532,0,0,0,.12191.25655c.07618.077.14.08291.13769.01849A.51114.51114,0,0,0,3.83748,3.53784Z"></path><path d="M3.582,3.54712c-.06887-.06724-.12772-.05844-.13277.02168a.393.393,0,0,0,.13261.27115c.07894.069.14029.05547.13517-.026A.48327.48327,0,0,0,3.582,3.54712Z"></path><path d="M3.31327,3.56349c-.0727-.05655-.13564-.02674-.13925.068a.37568.37568,0,0,0,.14433.28124c.08319.05989.14457.02584.13777-.072A.43376.43376,0,0,0,3.31327,3.56349Z"></path><path d="M3.037,3.6056c-.07474-.057-.14207-.028-.14991.06542a.36077.36077,0,0,0,.13883.28262c.08463.06256.15172.031.14957-.06765A.40629.40629,0,0,0,3.037,3.6056Z"></path><path d="M2.74469,3.65646c-.07551-.06356-.14624-.048-.15948.03364a.34244.34244,0,0,0,.12655.27374c.08394.07036.15751.05551.162-.03286A.38533.38533,0,0,0,2.74469,3.65646Z"></path><path d="M2.43349,3.6921c-.07506-.07-.14823-.06891-.16639.00011a.31751.31751,0,0,0,.11256.26127c.08176.07693.16022.07957.17135.00375A.35911.35911,0,0,0,2.43349,3.6921Z"></path><path d="M2.10758,3.709c-.07167-.07864-.14583-.09494-.1698-.04043a.28523.28523,0,0,0,.09118.24727c.07622.08443.15792.10775.177.04752A.3271.3271,0,0,0,2.10758,3.709Z"></path><path d="M1.76357,3.69786c-.06736-.08239-.1398-.11083-.16641-.0685-.0263.04244.005.14239.075.22878s.15026.1233.174.07671C1.87,3.88851,1.83081,3.77991,1.76357,3.69786Z"></path><path d="M1.41074,3.66244c-.06124-.08409-.13-.12274-.1576-.091-.02737.03186-.00282.12341.05927.2097.06195.0861.138.13322.16456.09917S1.47185,3.74642,1.41074,3.66244Z"></path><path d="M1.05666,3.60764c-.054-.08447-.11707-.13121-.14428-.10845-.027.023-.008.10759.04554.19254s.12228.13838.14962.1148S1.1105,3.69173,1.05666,3.60764Z"></path><path d="M.70929,3.53947C.66284,3.45515.60622,3.40095.58073,3.41654s-.01047.09531.03513.17963c.04542.08432.10545.14191.13172.12635S.75567,3.62375.70929,3.53947Z"></path><ellipse cx="0.33283" cy="3.47913" rx="0.0456" ry="0.1719" transform="translate(-1.27067 0.37367) rotate(-21.84494)"></ellipse></g><g><path d="M4.30661,3.0675c-.04185-.07834-.07873-.13856-.09568-.12516-.0165.013-.0038.09828.04148.18223.045.08435.10251.12942.11569.11057C4.38154,3.216,4.34817,3.14617,4.30661,3.0675Z"></path><path d="M4.11919,3.041c-.0406-.08484-.07982-.13626-.09778-.10845a.29915.29915,0,0,0,.0453.21211c.04693.08725.10214.12806.1133.09809A.42083.42083,0,0,0,4.11919,3.041Z"></path><path d="M3.91446,3.01281c-.04227-.08365-.08654-.11925-.10543-.07537a.32861.32861,0,0,0,.05319.23428c.05083.08428.10567.1128.11572.06869A.46285.46285,0,0,0,3.91446,3.01281Z"></path><path d="M3.6914,2.99276c-.04644-.07741-.09741-.09334-.11672-.03345a.33259.33259,0,0,0,.06449.24942c.05614.07745.11215.08937.12164.02967A.44937.44937,0,0,0,3.6914,2.99276Z"></path><path d="M3.45,2.98318c-.0524-.06794-.11085-.06282-.13012.012a.32.32,0,0,0,.07812.259c.06244.06839.1209.0613.13012-.01352A.40682.40682,0,0,0,3.45,2.98318Z"></path><path d="M3.191,2.98244c-.05973-.05677-.12581-.03137-.1447.05647a.29937.29937,0,0,0,.09289.26432c.06945.05851.1315.03237.1408-.05692A.35579.35579,0,0,0,3.191,2.98244Z"></path><path d="M2.9192,3.00936c-.06265-.0558-.13248-.03011-.1535.05614a.28456.28456,0,0,0,.09215.26153c.07142.05889.13822.034.15057-.0551A.32873.32873,0,0,0,2.9192,3.00936Z"></path><path d="M2.63158,3.04942c-.06335-.05985-.13373-.04541-.15669.03033a.26986.26986,0,0,0,.086.25043c.07062.06375.14093.05187.15658-.02755A.30929.30929,0,0,0,2.63158,3.04942Z"></path><path d="M2.33013,3.0829c-.063-.064-.13333-.06115-.158.00379a.253.253,0,0,0,.07866.23747c.0687.0678.14124.06894.16.00037A.28761.28761,0,0,0,2.33013,3.0829Z"></path><path d="M2.01936,3.10823c-.06009-.07047-.12936-.0822-.15671-.02944a.23449.23449,0,0,0,.0645.22533c.06412.0734.13746.09067.1607.0349A.26643.26643,0,0,0,2.01936,3.10823Z"></path><path d="M1.69589,3.11759c-.05722-.07315-.12426-.09512-.15216-.05239-.0277.04262-.004.13518.05568.21037s.13122.10288.15651.058A.24082.24082,0,0,0,1.69589,3.11759Z"></path><path d="M1.36587,3.11313c-.05331-.07507-.1172-.10615-.14486-.07255-.02742.03342-.00749.11989.047.19607s.12252.11254.14885.07778S1.41915,3.18794,1.36587,3.11313Z"></path><path d="M1.033,3.096c-.04878-.07652-.10851-.1161-.13519-.09067s-.00978.10693.03923.18386c.04883.077.11181.12044.13814.09438S1.08173,3.17235,1.033,3.096Z"></path><path d="M.70132,3.06765c-.04393-.07827-.09905-.126-.12415-.10778s-.01059.09635.03308.17484.10046.128.12579.10945S.74523,3.146.70132,3.06765Z"></path><ellipse cx="0.33238" cy="3.0506" rx="0.04742" ry="0.16412" transform="translate(-1.36821 0.49626) rotate(-27.43615)"></ellipse></g><g><path d="M4.23719,2.58026c-.00781-.08656-.0207-.1533-.04153-.14445-.02049.00873-.03723.0936-.02487.18464.012.09135.04475.15013.06069.1368A.36726.36726,0,0,0,4.23719,2.58026Z"></path><path d="M4.07672,2.51316c-.01129-.08922-.03406-.14532-.06013-.12046a.29867.29867,0,0,0-.02.21323c.01855.09126.05591.13986.07421.11331A.43431.43431,0,0,0,4.07672,2.51316Z"></path><path d="M3.88929,2.4588c-.01761-.08649-.05234-.12581-.08271-.08387a.31749.31749,0,0,0-.01.23457c.02689.08645.07025.11979.09114.07829A.44686.44686,0,0,0,3.88929,2.4588Z"></path><path d="M3.67628,2.42115c-.02638-.07947-.07376-.09818-.10724-.03947a.30892.30892,0,0,0,.00444.24846c.03637.07825.08644.09343.10979.03624A.41547.41547,0,0,0,3.67628,2.42115Z"></path><path d="M3.43983,2.40029c-.03667-.06939-.09664-.06579-.13174.00819A.28532.28532,0,0,0,3.33,2.6646c.04642.06789.10365.06358.129-.00869A.36484.36484,0,0,0,3.43983,2.40029Z"></path><path d="M3.18257,2.39383c-.04785-.05738-.11954-.03184-.155.05534a.25682.25682,0,0,0,.04113.25871c.05665.05677.12116.03289.14811-.05348A.3095.3095,0,0,0,3.18257,2.39383Z"></path><path d="M2.90666,2.42056c-.05219-.055-.12709-.02783-.16259.05814a.24225.24225,0,0,0,.04647.25368c.05973.05551.12823.03145.15637-.05482A.2834.2834,0,0,0,2.90666,2.42056Z"></path><path d="M2.61351,2.46625a.092.092,0,0,0-.16033.0356.23.23,0,0,0,.04764.24126.08729.08729,0,0,0,.15679-.03141A.26471.26471,0,0,0,2.61351,2.46625Z"></path><path d="M2.30914,2.51134a.08873.08873,0,0,0-.15706.01206.21763.21763,0,0,0,.04773.22773c.05855.06171.12811.05952.15564-.00746A.246.246,0,0,0,2.30914,2.51134Z"></path><path d="M1.99835,2.55389c-.05145-.06577-.11954-.07286-.15189-.01864a.20786.20786,0,0,0,.041.21636c.05513.06675.12373.07856.15242.02339A.23305.23305,0,0,0,1.99835,2.55389Z"></path><path d="M1.67817,2.58571c-.0502-.068-.11545-.08473-.14607-.04017a.19561.19561,0,0,0,.03925.20263c.05254.06861.11909.08981.14728.04444A.2143.2143,0,0,0,1.67817,2.58571Z"></path><path d="M1.35348,2.6073c-.04828-.06988-.1104-.09585-.1393-.06013s-.01255.11981.03693.19011.113.09995.14051.06379S1.40162,2.67715,1.35348,2.6073Z"></path><path d="M1.02624,2.61779C.98061,2.54581.922,2.511.895,2.53852s-.01185.10745.03432.17972.10579.10956.13224.08172S1.07186,2.68972,1.02624,2.61779Z"></path><path d="M.699,2.6163c-.04263-.07467-.0973-.11836-.12248-.0982-.025.02012-.011.09705.03166.17207S.706,2.8099.7311,2.78934.74162,2.691.699,2.6163Z"></path><ellipse cx="0.33222" cy="2.6261" rx="0.04872" ry="0.15971" transform="translate(-1.28584 0.53119) rotate(-30.47155)"></ellipse></g><g><path d="M4.359,2.09983c.02614-.08686.03815-.16219.01344-.16535-.02439-.00316-.07211.07277-.09366.16591-.02192.09319-.01313.16364.0067.16067C4.3056,2.2579,4.33257,2.187,4.359,2.09983Z"></path><path d="M4.22324,1.95315c.01966-.09295.01421-.15984-.02136-.14346a.31344.31344,0,0,0-.09175.20675c-.01177.09556.008.15386.03523.13528A.42858.42858,0,0,0,4.22324,1.95315Z"></path><path d="M4.0472,1.84032c.00856-.0922-.01724-.14094-.062-.10282a.35352.35352,0,0,0-.0808.23734c.00151.09113.03438.13132.06871.09477A.46443.46443,0,0,0,4.0472,1.84032Z"></path><path d="M3.83337,1.76722c-.00585-.08514-.05261-.10893-.10373-.04927a.34217.34217,0,0,0-.06226.25646c.01639.08127.06281.09959.10339.04414A.43688.43688,0,0,0,3.83337,1.76722Z"></path><path d="M3.58644,1.73358c-.02216-.073-.08837-.06859-.14311.01036a.29989.29989,0,0,0-.03826.26491c.03167.068.09108.0628.13636-.01082A.37394.37394,0,0,0,3.58644,1.73358Z"></path><path d="M3.31216,1.73427c-.03892-.05777-.122-.02517-.17738.0695a.25071.25071,0,0,0-.01119.26519c.04647.05341.11773.02482.166-.06548A.302.302,0,0,0,3.31216,1.73427Z"></path><path d="M3.01156,1.78509c-.04536-.0528-.13092-.01558-.18342.07867a.22944.22944,0,0,0,.0026.2578c.05139.05011.12586.01868.17268-.07284A.26916.26916,0,0,0,3.01156,1.78509Z"></path><path d="M2.69208,1.86635c-.04714-.054-.12781-.02645-.17465.05727a.21547.21547,0,0,0,.01289.24347c.05195.05259.1247.031.16673-.05141A.24655.24655,0,0,0,2.69208,1.86635Z"></path><path d="M2.36492,1.952c-.0482-.056-.12419-.03971-.16582.03264a.203.203,0,0,0,.02132.2284.093.093,0,0,0,.16046-.02718A.22682.22682,0,0,0,2.36492,1.952Z"></path><path d="M2.03562,2.03541a.08937.08937,0,0,0-.15579-.001.19724.19724,0,0,0,.02159.21672c.04967.06147.11748.06521.15285.00574A.21765.21765,0,0,0,2.03562,2.03541Z"></path><path d="M1.70171,2.10521c-.04646-.06431-.11321-.07466-.14764-.026a.18686.18686,0,0,0,.02638.20235c.04856.06423.1136.07858.14589.02983A.20133.20133,0,0,0,1.70171,2.10521Z"></path><path d="M1.36712,2.1587c-.04572-.067-.10871-.0884-.13976-.04992a.17936.17936,0,0,0,.02943.18963c.04694.06715.109.09163.13871.053A.18937.18937,0,0,0,1.36712,2.1587Z"></path><path d="M1.0332,2.1926C.98886,2.12244.92964,2.09018.90155,2.11913s-.014.10882.03087.17942.10353.10475.13094.07528S1.07749,2.26262,1.0332,2.1926Z"></path><path d="M.70157,2.20347c-.04227-.07413-.09746-.11732-.123-.09709s-.01161.09744.03078.17233.09714.11872.12252.09763S.74382,2.27762.70157,2.20347Z"></path><ellipse cx="0.33231" cy="2.21043" rx="0.04807" ry="0.16199" transform="translate(-1.02419 0.43382) rotate(-28.81313)"></ellipse></g><g><path d="M4.67228,1.69491c.06015-.07767.09666-.1606.06765-.18124-.02864-.02059-.107.03882-.16176.12719-.05519.08847-.07036.16537-.04708.17543C4.55475,1.82616,4.6118,1.7729,4.67228,1.69491Z"></path><path d="M4.55818,1.4469c.04934-.0944.05941-.17641.01366-.17318-.04549.00317-.12148.09382-.16152.19284-.04025.0993-.03651.16717-.00029.15958C4.4464,1.61819,4.5086,1.54159,4.55818,1.4469Z"></path><path d="M4.3851,1.25006c.03255-.10062.01291-.16522-.0469-.13353a.40863.40863,0,0,0-.14853.243c-.02123.099.00364.14857.05195.11924A.47548.47548,0,0,0,4.3851,1.25006Z"></path><path d="M4.15808,1.11671c.01164-.09629-.0377-.13121-.10758-.07078a.41865.41865,0,0,0-.125.27488c-.00037.08957.04573.11424.10437.061A.48419.48419,0,0,0,4.15808,1.11671Z"></path><path d="M3.88536,1.04888c-.01113-.08324-.08747-.08216-.16309.004a.36527.36527,0,0,0-.09411.2893c.02075.07409.08649.07042.15267-.00622A.42871.42871,0,0,0,3.88536,1.04888Z"></path><path d="M3.57674,1.04008c-.03406-.06438-.13288-.0266-.20991.08a.2893.2893,0,0,0-.05883.2898c.04047.05578.12334.02341.19418-.07452A.34245.34245,0,0,0,3.57674,1.04008Z"></path><path d="M3.23268,1.10491c-.04256-.05606-.14353-.00912-.21506.09846-.07158.1073-.08423.23-.03725.28.04724.05.13288.01158.20016-.08992C3.24751,1.29222,3.27546,1.16093,3.23268,1.10491Z"></path><path d="M2.86718,1.21741c-.04482-.05514-.13774-.0168-.19946.07917a.23171.23171,0,0,0-.01881.26186c.04836.05123.12932.02168.18767-.0706A.26594.26594,0,0,0,2.86718,1.21741Z"></path><path d="M2.49747,1.34338c-.04626-.05563-.13159-.02915-.18439.0538a.21136.21136,0,0,0-.0027.24254c.049.05335.12528.03449.17534-.04608A.23651.23651,0,0,0,2.49747,1.34338Z"></path><path d="M2.13075,1.47055a.09809.09809,0,0,0-.16814.017.20254.20254,0,0,0,.00377.22758.09323.09323,0,0,0,.16185-.01077A.22286.22286,0,0,0,2.13075,1.47055Z"></path><path d="M1.7656,1.58323a.0915.0915,0,0,0-.15615-.01093.187.187,0,0,0,.01483.20929c.04674.06191.11353.07023.15161.01583A.20067.20067,0,0,0,1.7656,1.58323Z"></path><path d="M1.40611,1.67533c-.045-.06507-.11133-.0809-.14565-.038a.17624.17624,0,0,0,.023.19331c.04606.0649.10915.08462.14234.04182A.18533.18533,0,0,0,1.40611,1.67533Z"></path><path d="M1.05336,1.741C1.009,1.67265.94747,1.64445.91756,1.6761S.901,1.788.94582,1.85671s.10424.09937.13356.06726S1.09776,1.80915,1.05336,1.741Z"></path><path d="M.70884,1.77435C.66608,1.70167.60942,1.66066.58316,1.68208s-.01238.09841.03042.1722.09818.11554.12438.093S.75158,1.847.70884,1.77435Z"></path><ellipse cx="0.33267" cy="1.79162" rx="0.04838" ry="0.16208" transform="matrix(0.87629, -0.48178, 0.48178, 0.87629, -0.82202, 0.38191)"></ellipse></g></g></g><g id="SvgjsG1188" featurekey="nameFeature-0" transform="matrix(1.0856060981750488,0,0,1.0856060981750488,102.43424356193255,-7.983848491698218)" fill="url(#SvgjsLinearGradient1196)"><path d="M10.04 38.6 l-0.72 0 l-0.32 -1.08 l-5.84 -18.76 l-1.6 -5.36 l1.24 0 l6.24 20.32 l0.64 2.16 l0.24 0 l0.76 -1.88 l-0.76 -2.32 l-6.04 -19.68 l-4.28 0 l8.64 28 l2.76 0 l3.64 -8.68 l0.76 -1.84 l1.04 -2.6 l-0.76 -1.8 l-1.08 2.56 l-0.76 1.84 z M5.16 12 l6.2 20.4 l4.4 -10.52 l7.92 18.16 l1.56 0 l-9.48 -21.8 l-4.24 9.76 l-4.84 -16 l-1.52 0 z M25.48 24.36 l3.36 -10.96 l4.08 0 l-0.36 1.16 l-4.08 13.36 l-2.32 7.56 l-9.84 -22.72 l-1.04 0 l-4.24 9.84 l0.64 2.12 l4.12 -9.52 l1.28 2.92 l8.96 20.76 l0.36 0.8 l8.44 -27.68 l-7.08 0 l-3.12 10.36 z M25.72 27.84 l-0.84 -2 l-5.68 -13.08 l-1.56 0 l8.32 19.2 l5.36 -17.48 l-1.52 0 z M42.635000000000005 37.52 l1.76 0 l1.4 -3.36 l10.44 0.04 l2.56 5.8 l7.36 -0.04 l-12.6 -27.96 l-2.56 0 l-12.52 27.96 l7.8 0 l1.36 -3.2 l7.96 0 l-0.6 -1.36 l-8.24 0 l-1.28 3.16 l-4.76 0 l11.08 -25.2 l0.96 0 l11.12 25.2 l-4.24 0 l-2.56 -5.72 l-12.4 0 z M47.395 30.48 l4.88 -11.64 l8.2 18.64 l1.64 0 l-9.84 -21.92 l-7.2 16.16 l11.6 0 l-4.4 -9.72 l-3.04 7.32 l1.56 0 l1.48 -3.64 l2.2 4.8 l-7.08 0 z M69.87 11.96 l4.12 0 l0 25.4 l-1.48 0 l0 -23.96 l-1.2 0 l0 25.16 l13.16 0 l0 -3.84 l-6.52 0 l0 -1.44 l7.96 0 l0 6.72 l-16.04 0 l0 -28.04 z M75.31 11.96 l1.44 0 l0 23.92 l6.44 0 l0 1.48 l-7.88 0 l0 -25.4 z M92.665 38.6 l0 -26.6 l-1.44 0 l0 28.04 l7 -0.04 l0 -11.44 l10.96 -13.88 l-1.84 0 l-10.6 13.36 l0 10.56 l-4.08 0 z M96.70500000000001 21.28 l1.48 -1.84 l0 -7.44 l-4.24 0 l0 12.84 l1.44 -1.84 l0 -9.52 l1.32 0 l0 7.8 z M114.665 12 l-8.84 0 l-11.88 15.24 l0 10.32 l1.44 0 l0 -9.84 l11.12 -14.24 l5.2 0 l-11.28 14.36 l7.2 9.72 l1.8 0 l-7.16 -9.72 z M111.82500000000002 38.6 l-5.08 0 l-7.16 -9.68 l0 2.4 l6.44 8.68 l8.68 0 l-9.8 -13.16 l-0.92 1.16 z M117.06 12.079999999999998 l1.44 0 l0 26.48 l15.32 0 l0 -4 l-11.28 0 l0 -3.84 l1.44 0 l0 2.4 l11.28 0 l0 6.88 l-18.2 0 l0 -27.92 z M119.78 12.079999999999998 l15.28 0 l0 6.84 l-9.6 0 l0 -1.44 l8.16 0 l0 -3.96 l-12.4 0 l0 11.56 l9.32 0 l0 1.44 l-10.76 0 l0 -14.44 z M119.78 27.8 l12.16 0 l0 -4 l-9.4 0 l0 -9.08 l9.68 0 l0 1.44 l-8.24 0 l0 6.2 l9.4 0 l0 6.88 l-12.16 0 l0 6.64 l11.2 0 l0 1.44 l-12.64 0 l0 -9.52 z M158.53499999999997 38.56 l-4.6 0 l-5.52 -10.28 l-3.72 0.04 l0 10.24 l-4.04 0 l0 -26.56 l-1.44 0 l0 28 l6.96 0 l0 -10.28 l1.4 0 l5.48 10.28 l7.88 0 l-5.52 -10.32 l-1.32 0.52 z M149.015 13.440000000000001 c5.8 0 9.08 2.6 9.08 7.36 c0 4.32 -2.6 6.96 -7.12 7.44 l-1.08 0.12 l5 9.24 l1.64 0 l-4.36 -8.12 c4.8 -0.84 7.36 -3.76 7.36 -8.68 c0 -1.64 -0.36 -3.12 -1.04 -4.44 c-1.6 -2.84 -4.88 -4.36 -9.48 -4.36 l-7.08 0 l0 25.56 l1.44 0 l0 -24.12 l5.64 0 z M148.695 27.04 c5.48 0 8.08 -1.88 8.08 -6.04 c0 -3.96 -2.72 -6.2 -7.08 -6.2 l-5.04 0 l0 4.2 l4.6 0 c2.12 0 3.2 0.6 3.2 1.8 c0 1.4 -1.32 2.08 -4 2.08 l-2.32 0 l0 -2.48 l-1.48 0 l0 3.92 l3.8 0 c3.56 0 5.44 -1.24 5.44 -3.52 c0 -0.72 -0.16 -1.28 -0.52 -1.72 c-0.68 -1 -2.04 -1.48 -4.12 -1.48 l-3.12 0 l0 -1.36 l3.56 0 c3.56 0 5.64 1.72 5.64 4.76 c0 3.16 -2.12 4.64 -6.64 4.64 l-4 0 l0 1.4 l4 0 z M199.52499999999998 30.880000000000003 c-2.52 1.64 -3.76 2.12 -5.48 2.12 c-1.2 0 -2.32 -0.32 -3.4 -0.96 c-2.12 -1.28 -3.56 -3.6 -3.56 -6 c0 -1.28 0.32 -2.48 0.96 -3.56 c1.24 -2.16 3.6 -3.44 6 -3.44 c1.52 0 2.88 0.44 4.04 1.28 c0.2 0.12 0.44 0.28 0.72 0.56 l0.6 0.44 l2.68 -3.16 l-0.44 -0.44 c-0.28 -0.28 -0.64 -0.52 -1.08 -0.8 c-1.88 -1.44 -4.08 -2.16 -6.52 -2.16 c-3 0 -5.76 1.16 -7.96 3.28 c-2.12 2.24 -3.32 5 -3.32 8 s1.2 5.84 3.32 7.96 s4.96 3.32 7.96 3.32 c2.16 0 4.16 -0.6 6.04 -1.8 l-0.8 -1.2 c-1.64 1.08 -3.36 1.6 -5.24 1.6 c-2.6 0 -5.08 -1.04 -6.96 -2.92 s-2.88 -4.36 -2.88 -6.96 s1 -5.04 2.88 -6.92 c1.88 -1.92 4.36 -2.92 6.96 -2.92 c1.96 0 3.84 0.6 5.72 1.84 l0.32 0.28 l-0.88 1 c-0.12 -0.04 -0.2 -0.08 -0.28 -0.16 c-1.48 -1 -3.12 -1.52 -4.88 -1.52 c-1.56 0 -2.96 0.36 -4.2 1.08 c-2.52 1.48 -4.2 4.4 -4.2 7.32 c0 1.4 0.4 2.8 1.16 4.12 c1.56 2.68 4.4 4.32 7.24 4.32 c1.88 0 3.4 -0.56 5.68 -2 l2.24 3.32 c-2.92 1.92 -5.2 2.72 -7.92 2.72 c-2.24 0 -4.32 -0.56 -6.24 -1.68 c-3.88 -2.24 -6.28 -6.32 -6.28 -10.8 c0 -2.24 0.56 -4.32 1.68 -6.28 c2.24 -3.84 6.36 -6.24 10.84 -6.24 c3.16 0 6.16 1.16 8.44 3.28 l0.24 0.2 l0.32 0.32 l1 -1.04 l-0.56 -0.56 c-2.56 -2.28 -5.92 -3.6 -9.44 -3.6 c-2.52 0 -4.84 0.6 -6.96 1.84 c-4.24 2.44 -7 7.12 -7 12.08 c0 2.44 0.64 4.76 1.92 6.92 c2.52 4.32 7.04 7.04 12.04 7.04 c3.16 0 5.8 -1 9.36 -3.44 l0.56 -0.36 l-3.8 -5.72 z M205.35999999999999 12 l6.96 0 l0 9.24 l-1.48 0 l0 -7.76 l-4.04 0 l0 25.04 l4.04 0 l0 -7.72 l1.48 0 l0 9.2 l-6.96 0 l0 -28 z M208.12 14.64 l1.44 0 l0 7.84 l12.2 0 l0 -10.48 l1.4 0 l0 11.88 l-15.04 0 l0 -9.24 z M227.44 13.48 l-1.36 0 l0 10.52 l-1.44 0 l0 -12 l4.2 0 l0 28 l-1.4 0 l0 -26.52 z M221.76 29.52 l-12.2 0 l0 8.04 l-1.48 0 l0 -9.52 l15.08 0 l0 10.48 l1.48 0 l0 -11.8 l-16.56 0 l0 -1.4 l18 0 l0 14.68 l-4.32 0 l0 -10.48 z M234.11499999999998 12 l4.2 0 l0 25.32 l-1.44 0 l0 -23.88 l-1.32 0 l0 25.12 l4.04 0 l0 -26.56 l1.44 0 l0 28 l-6.92 0 l0 -28 z"></path></g><g id="SvgjsG1189" featurekey="sloganFeature-0" transform="matrix(0.44146105647087097,0,0,0.44146105647087097,101.26297728508852,41.59589375907045)" fill="url(#SvgjsLinearGradient1199)"><path d="M16.605 9.649 c0.91776 0.9099 0.9102 2.226 0.89856 4.2182 c-0.00091796 0.14832 -0.0016992 0.302 -0.0023438 0.46118 c-0.0044532 1.1823 -0.0075976 2.0366 -0.13172 2.757 c-0.10568 0.6142 -0.34974 1.4995 -1.2436 2.0954 c-1.1321 0.75466 -2.8232 0.77168 -6.5282 0.8087 c-0.57862 0.0057618 -1.1122 0.010078 -1.6046 0.010078 c-2.9354 0 -4.411 -0.15537 -5.3538 -1.0922 c-0.98198 -0.9757 -0.97648 -2.4126 -0.96838 -4.5876 c0.0090234 -2.4268 0.014512 -3.8916 1.2447 -4.801 c1.0614 -0.7845 2.6028 -0.80516 5.9798 -0.85054 l0.67396 -0.0092774 c4.2088 -0.060156 5.9508 -0.085136 7.0354 0.99024 z M15.171 13.854199999999999 c0.006543 -1.1448 0.013457 -2.3288 -0.20864 -2.5488 c-0.27556 -0.27322 -1.5123 -0.33638 -3.1584 -0.33638 c-0.67736 0 -1.4242 0.010723 -2.2018 0.021836 l-0.67606 0.0092774 c-2.4194 0.032442 -4.1674 0.055976 -4.625 0.39406 c-0.2888 0.21346 -0.2935 1.4744 -0.29898 2.9346 c-0.0050976 1.3559 -0.0099414 2.6366 0.28016 2.9248 c0.4554 0.45254 2.9138 0.42782 5.2914 0.40428 c2.7302 -0.027206 4.7028 -0.046954 5.258 -0.4171 c0.32686 -0.2179 0.33104 -1.3516 0.33692 -2.9208 c0.00052734 -0.16074 0.0014453 -0.316 0.0023632 -0.46588 z M36.787 8.487 l0.041758 5.7 c0.017129 1.2612 -0.49178 2.4856 -1.4332 3.448 c-0.9982 1.0203 -2.9408 2.242 -6.5268 2.2684 c-0.034786 0.0002539 -0.069706 0.00039062 -0.10424 0.00039062 c-2.7146 0 -4.9816 -0.77976 -6.3926 -2.201 c-0.96994 -0.97702 -1.4953 -2.2218 -1.4805 -3.5064 l-0.041992 -5.6918 l2.3476 -0.017402 l0.042246 5.7166 l-0.00013672 0.012813 c-0.0096876 0.66232 0.26668 1.2957 0.799 1.832 c0.98014 0.98734 2.6886 1.5215 4.8136 1.507 c2.1676 -0.015957 3.8956 -0.57078 4.866 -1.5626 c0.50916 -0.5204 0.77336 -1.1346 0.76394 -1.7765 l0 -0.0083789 l-0.04211 -5.7036 z M54.516999999999996 17.557 l1.162 -0.017422 l0.034786 2.3242 l-1.1621 0.017402 c-0.18088 0.002754 -0.38542 0.0058984 -0.6087 0.0058984 c-1.614 0 -4.2026 -0.16008 -5.8378 -1.7712 c-0.72798 -0.71726 -1.1865 -1.629 -1.3698 -2.72 l-4.2054 0 l-0.016602 4.4896 l-2.3246 -0.0086328 l0.037402 -10.127 l0 -1.1635 l0.0043164 0 l0 -0.0043164 l1.1612 0.0043164 l10.951 0 c1.4728 0 3.6638 0.90678 3.6638 3.4048 c0 2.4982 -2.0362 3.405 -3.4048 3.405 l-3.4826 0 c0.12543 0.4252 0.32842 0.77924 0.61734 1.064 c1.1685 1.151 3.608 1.1146 4.7804 1.0969 z M42.551399999999994 13.0714 l10.041 -0.000019531 c0.10148 -0.0035352 0.40426 -0.041718 0.6538 -0.17971 c0.21608 -0.11955 0.43686 -0.32006 0.43686 -0.90076 c0 -0.46692 -0.15799 -0.71972 -0.56382 -0.90166 c-0.36882 -0.16531 -0.77152 -0.17865 -0.77532 -0.17865 l-9.7922 0 l0 2.1608 z M82.733 10.8272 c0.95568 0.96942 1.4718 2.2114 1.4534 3.497 c-0.02289 1.5915 -0.78998 3.0436 -2.16 4.0892 c-1.4271 1.089 -3.4354 1.6646 -5.8082 1.6646 c-4.5288 0 -6.808 -0.0667 -6.8304 -0.067344 l-1.1387 -0.03414 l0 -11.373 l7.9691 0 c3.5728 0 5.5148 1.2092 6.5148 2.2236 z M76.2184 17.7304 c3.8486 0 5.5962 -1.7276 5.6208 -3.4396 c0.009414 -0.66168 -0.25962 -1.2893 -0.77796 -1.8153 c-0.9689 -0.9829 -2.6888 -1.5241 -4.843 -1.5241 l-5.6214 0 l0 6.737 c1.09 0.018965 2.963 0.041992 5.6214 0.041992 z M103.487 10.9512 l-13.59 0.000019531 l0 2.1863 l9.0642 0.03375 l-0.0086328 2.3478 l-9.0556 -0.03375 l0 2.1782 l13.59 0 l0 2.3477 l-15.938 0 l0 -11.407 l15.938 0 l0 2.3476 z M109.618 11.0046 c-0.21816 0.12059 -0.44118 0.32306 -0.44118 0.90966 c0 0.45724 0.14779 0.70718 0.52734 0.89108 c0.38386 0.18598 0.81196 0.19957 0.83354 0.2001 l8.5334 0.03336 c1.4828 0 3.6956 0.9158 3.6956 3.4388 s-2.0564 3.4388 -3.4388 3.4388 l-12.499 0 l0 -2.3477 l12.488 0 c0.1024 -0.0035352 0.40818 -0.04211 0.66022 -0.18152 c0.21828 -0.12072 0.44128 -0.32318 0.44128 -0.90964 c0 -0.45724 -0.14779 -0.70718 -0.52734 -0.89108 c-0.3827 -0.18547 -0.81038 -0.19947 -0.8343 -0.20012 l-8.5278 -0.03793 l0 0.0045703 c-1.4875 0 -3.7004 -0.9158 -3.7004 -3.4388 s2.0564 -3.4388 3.4388 -3.4388 l12.499 0 l0 2.3477 l-12.488 0 c-0.10229 0.0035352 -0.40834 0.04211 -0.6605 0.18152 z M126.1092 8.475 l15.938 0 l0 2.3477 l-6.7954 0 l0 9.0932 l-2.3476 0 l0 -9.0932 l-6.7946 0 l0 -2.3477 z M147.7338 20.02461 l-2.3246 0 l0 -11.295 l2.3246 0 l0 11.295 z M164.67900000000003 8.593 l2.3476 0 l0 11.25 l-13.59 -7.098 l0 7.2556 l-2.3477 0 l0 -11.25 l13.59 7.098 l0 -7.2556 z M178.5354 7.711 l9.1766 12.19 l-2.9508 0 l-2.566 -3.3974 l-7.3197 0 l-2.5286 3.3974 l-2.9177 0 z M176.63620000000003 14.1556 l3.7983 0 l-1.8992 -2.5322 z M186.1292 8.475 l15.938 0 l0 2.3477 l-6.7954 0 l0 9.0932 l-2.3476 0 l0 -9.0932 l-6.7946 0 l0 -2.3477 z M207.7538 20.02461 l-2.3246 0 l0 -11.295 l2.3246 0 l0 11.295 z M226.04500000000002 9.649 c0.91776 0.9099 0.9102 2.226 0.89856 4.2182 c-0.00091796 0.14832 -0.0016992 0.302 -0.0023438 0.46118 c-0.0044532 1.1823 -0.0075976 2.0366 -0.13172 2.757 c-0.10568 0.6142 -0.34974 1.4995 -1.2436 2.0954 c-1.1321 0.75466 -2.8232 0.77168 -6.5282 0.8087 c-0.57862 0.0057618 -1.1122 0.010078 -1.6046 0.010078 c-2.9354 0 -4.411 -0.15537 -5.3538 -1.0922 c-0.98198 -0.9757 -0.97648 -2.4126 -0.96838 -4.5876 c0.0090234 -2.4268 0.014512 -3.8916 1.2447 -4.801 c1.0614 -0.7845 2.6028 -0.80516 5.9798 -0.85054 l0.67396 -0.0092774 c4.2088 -0.060156 5.9508 -0.085136 7.0354 0.99024 z M224.61100000000002 13.854199999999999 c0.006543 -1.1448 0.013457 -2.3288 -0.20864 -2.5488 c-0.27556 -0.27322 -1.5123 -0.33638 -3.1584 -0.33638 c-0.67736 0 -1.4242 0.010723 -2.2018 0.021836 l-0.67606 0.0092774 c-2.4194 0.032442 -4.1674 0.055976 -4.625 0.39406 c-0.2888 0.21346 -0.2935 1.4744 -0.29898 2.9346 c-0.0050976 1.3559 -0.0099414 2.6366 0.28016 2.9248 c0.4554 0.45254 2.9138 0.42782 5.2914 0.40428 c2.7302 -0.027206 4.7028 -0.046954 5.258 -0.4171 c0.32686 -0.2179 0.33104 -1.3516 0.33692 -2.9208 c0.00052734 -0.16074 0.0014453 -0.316 0.0023632 -0.46588 z M243.87900000000002 8.593 l2.3476 0 l0 11.25 l-13.59 -7.098 l0 7.2556 l-2.3477 0 l0 -11.25 l13.59 7.098 l0 -7.2556 z M260.77380000000005 20.02461 l-2.3246 0 l0 -11.295 l2.3246 0 l0 11.295 z M266.91800000000006 11.0046 c-0.21816 0.12059 -0.44118 0.32306 -0.44118 0.90966 c0 0.45724 0.14779 0.70718 0.52734 0.89108 c0.38386 0.18598 0.81196 0.19957 0.83354 0.2001 l8.5334 0.03336 c1.4828 0 3.6956 0.9158 3.6956 3.4388 s-2.0564 3.4388 -3.4388 3.4388 l-12.499 0 l0 -2.3477 l12.488 0 c0.1024 -0.0035352 0.40818 -0.04211 0.66022 -0.18152 c0.21828 -0.12072 0.44128 -0.32318 0.44128 -0.90964 c0 -0.45724 -0.14779 -0.70718 -0.52734 -0.89108 c-0.3827 -0.18547 -0.81038 -0.19947 -0.8343 -0.20012 l-8.5278 -0.03793 l0 0.0045703 c-1.4875 0 -3.7004 -0.9158 -3.7004 -3.4388 s2.0564 -3.4388 3.4388 -3.4388 l12.499 0 l0 2.3477 l-12.488 0 c-0.10229 0.0035352 -0.40834 0.04211 -0.6605 0.18152 z M308.187 12.0424 c0 1.0081 -0.32878 1.759 -0.8114 2.2982 c0.48524 0.53376 0.8113 1.2642 0.8113 2.2318 c0 2.523 -2.0564 3.4388 -3.4388 3.4388 l-12.499 0 l0 -11.408 l12.237 0 c1.4875 0 3.7004 0.9158 3.7004 3.4388 z M305.398 17.4818 c0.21816 -0.12072 0.44116 -0.32318 0.44102 -0.90964 c0 -0.47164 -0.15969 -0.72696 -0.56946 -0.91072 c-0.3725 -0.16701 -0.77926 -0.18049 -0.78304 -0.18049 l-9.8895 0 l0 2.1822 l10.141 0 c0.1024 -0.0033984 0.40832 -0.041972 0.66036 -0.18139 z M305.398 12.952 c0.21816 -0.12072 0.44116 -0.32304 0.44116 -0.90964 c0 -0.47164 -0.15969 -0.72696 -0.56946 -0.91072 c-0.3725 -0.16701 -0.77926 -0.18049 -0.78304 -0.18049 l-9.8895 0 l0 2.1822 l10.14 0 c0.1024 -0.0033984 0.40832 -0.041972 0.66036 -0.18139 z M327.14700000000005 10.9512 l-13.59 0.000019531 l0 2.1863 l9.0642 0.03375 l-0.0086328 2.3478 l-9.0556 -0.03375 l0 2.1782 l13.59 0 l0 2.3477 l-15.938 0 l0 -11.407 l15.938 0 l0 2.3476 z M346.41 8.445 l0.016758 1.1737 c0.01832 1.2629 -0.49072 2.489 -1.4333 3.4524 c-0.88466 0.90428 -2.5122 1.966 -5.367 2.2142 l-0.036758 4.6262 l-2.3476 -0.016094 l0.036484 -4.5994 c-2.2324 -0.18141 -4.09 -0.92992 -5.3086 -2.1572 c-0.97334 -0.9804 -1.4991 -2.2306 -1.4804 -3.5202 l0.017129 -1.1737 l2.3474 0.03414 l-0.017012 1.1737 c-0.0095508 0.66232 0.26668 1.2959 0.79912 1.832 c0.98028 0.98734 2.6908 1.5237 4.8134 1.507 c2.1676 -0.01582 3.8956 -0.57064 4.8658 -1.5624 c0.50916 -0.5203 0.77322 -1.1346 0.76394 -1.7765 l-0.017012 -1.1737 z M363.7250000000001 9.649 c0.91776 0.9099 0.9102 2.226 0.89856 4.2182 c-0.00091796 0.14832 -0.0016992 0.302 -0.0023438 0.46118 c-0.0044532 1.1823 -0.0075976 2.0366 -0.13172 2.757 c-0.10568 0.6142 -0.34974 1.4995 -1.2436 2.0954 c-1.1321 0.75466 -2.8232 0.77168 -6.5282 0.8087 c-0.57862 0.0057618 -1.1122 0.010078 -1.6046 0.010078 c-2.9354 0 -4.411 -0.15537 -5.3538 -1.0922 c-0.98198 -0.9757 -0.97648 -2.4126 -0.96838 -4.5876 c0.0090234 -2.4268 0.014512 -3.8916 1.2447 -4.801 c1.0614 -0.7845 2.6028 -0.80516 5.9798 -0.85054 l0.67396 -0.0092774 c4.2088 -0.060156 5.9508 -0.085136 7.0354 0.99024 z M362.29100000000005 13.854199999999999 c0.006543 -1.1448 0.013457 -2.3288 -0.20864 -2.5488 c-0.27556 -0.27322 -1.5123 -0.33638 -3.1584 -0.33638 c-0.67736 0 -1.4242 0.010723 -2.2018 0.021836 l-0.67606 0.0092774 c-2.4194 0.032442 -4.1674 0.055976 -4.625 0.39406 c-0.2888 0.21346 -0.2935 1.4744 -0.29898 2.9346 c-0.0050976 1.3559 -0.0099414 2.6366 0.28016 2.9248 c0.4554 0.45254 2.9138 0.42782 5.2914 0.40428 c2.7302 -0.027206 4.7028 -0.046954 5.258 -0.4171 c0.32686 -0.2179 0.33104 -1.3516 0.33692 -2.9208 c0.00052734 -0.16074 0.0014453 -0.316 0.0023632 -0.46588 z M381.5590000000001 8.593 l2.3476 0 l0 11.25 l-13.59 -7.098 l0 7.2556 l-2.3477 0 l0 -11.25 l13.59 7.098 l0 -7.2556 z M401.73300000000006 10.8272 c0.95568 0.96942 1.4718 2.2114 1.4534 3.497 c-0.02289 1.5915 -0.78998 3.0436 -2.16 4.0892 c-1.4271 1.089 -3.4354 1.6646 -5.8082 1.6646 c-4.5288 0 -6.808 -0.0667 -6.8304 -0.067344 l-1.1387 -0.03414 l0 -11.373 l7.9691 0 c3.5728 0 5.5148 1.2092 6.5148 2.2236 z M395.21840000000003 17.7304 c3.8486 0 5.5962 -1.7276 5.6208 -3.4396 c0.009414 -0.66168 -0.25962 -1.2893 -0.77796 -1.8153 c-0.9689 -0.9829 -2.6888 -1.5241 -4.843 -1.5241 l-5.6214 0 l0 6.737 c1.09 0.018965 2.963 0.041992 5.6214 0.041992 z M415.42920000000004 8.475 l15.938 0 l0 2.3477 l-6.7954 0 l0 9.0932 l-2.3476 0 l0 -9.0932 l-6.7946 0 l0 -2.3477 z M448.3190000000001 8.617 l2.3476 0 l0 11.407 l-2.3476 0 l0 -4.5299 l-11.242 0 l0 4.5299 l-2.3477 0 l0 -11.407 l2.3477 0 l0 4.5299 l11.242 0 l0 -4.5299 z M469.947 10.9512 l-13.59 0.000019531 l0 2.1863 l9.0642 0.03375 l-0.0086328 2.3478 l-9.0556 -0.03375 l0 2.1782 l13.59 0 l0 2.3477 l-15.938 0 l0 -11.407 l15.938 0 l0 2.3476 z M497.95 14.394400000000001 c-0.019883 1.3657 -0.00015625 4.4302 0.00023438 4.4608 l0.0077148 1.1699 l-7.8979 0 c-2.3734 0 -4.3588 -0.53114 -5.7416 -1.5357 c-1.3856 -1.0067 -2.1486 -2.467 -2.1486 -4.112 c0 -1.3641 0.51466 -2.5964 1.4885 -3.563 c1.3944 -1.3842 3.6104 -2.1058 6.4102 -2.0846 c1.7076 0.012559 6.6666 0.00013672 6.7164 0 l1.1622 -0.0030078 l0.005879 2.3246 l-1.1622 0.0030078 c-0.050098 0.00013672 -5.0206 0.012695 -6.7396 0 c-2.1376 -0.016875 -3.824 0.4851 -4.7556 1.4098 c-0.53204 0.52812 -0.80174 1.1717 -0.80174 1.9133 c0 2.0496 2.1326 3.323 5.5658 3.323 l5.5599 0 c-0.0024804 -0.63696 -0.0043164 -1.4395 -0.0024804 -2.1608 l-4.4771 0 l0 -2.3246 l6.8269 0 z M509.4954 7.711 l9.1766 12.19 l-2.9508 0 l-2.566 -3.3974 l-7.3197 0 l-2.5286 3.3974 l-2.9177 0 z M507.5962 14.1556 l3.7983 0 l-1.8992 -2.5322 z M523.4370000000001 17.619 l13.59 0 l0 2.3477 l-15.938 0 l0 -11.407 l2.3477 0 l0 9.0597 z M548.5554000000001 7.711 l9.1766 12.19 l-2.9508 0 l-2.566 -3.3974 l-7.3197 0 l-2.5286 3.3974 l-2.9177 0 z M546.6562 14.1556 l3.7983 0 l-1.8992 -2.5322 z M574.624 15.259599999999999 c0.97348 0.98054 1.4993 2.2306 1.4803 3.5202 l-0.017129 1.1737 l-2.3474 -0.03414 l0.017129 -1.1737 c0.0096876 -0.66232 -0.26654 -1.2957 -0.79898 -1.832 c-0.98028 -0.98734 -2.6902 -1.5207 -4.8136 -1.507 c-2.1674 0.01582 -3.8956 0.57064 -4.8658 1.5624 c-0.50916 0.5204 -0.77336 1.1346 -0.76394 1.7765 l0.017129 1.1737 l-2.3474 0.03414 l-0.017012 -1.1737 c-0.018438 -1.2628 0.4906 -2.489 1.4332 -3.4524 c0.35836 -0.36648 0.83954 -0.7586 1.474 -1.1122 c-0.54722 -0.302 -1.0323 -0.66166 -1.4439 -1.0763 c-0.97348 -0.98054 -1.4993 -2.2306 -1.4804 -3.5202 l0.017129 -1.1737 l2.3474 0.03414 l-0.017129 1.1737 c-0.0096876 0.66232 0.26654 1.2957 0.79898 1.832 c0.98014 0.98734 2.6904 1.5237 4.8134 1.507 c2.1676 -0.01582 3.8956 -0.57064 4.8658 -1.5624 c0.50916 -0.5203 0.77322 -1.1346 0.76394 -1.7765 l-0.017012 -1.1737 l2.3474 -0.03414 l0.017129 1.1737 c0.01832 1.2629 -0.49072 2.489 -1.4333 3.4524 c-0.3585 0.36622 -0.83942 0.75832 -1.4736 1.1119 c0.5471 0.30212 1.0319 0.66194 1.4435 1.0765 z M595.37 8.445 l0.016758 1.1737 c0.01832 1.2629 -0.49072 2.489 -1.4333 3.4524 c-0.88466 0.90428 -2.5122 1.966 -5.367 2.2142 l-0.036758 4.6262 l-2.3476 -0.016094 l0.036484 -4.5994 c-2.2324 -0.18141 -4.09 -0.92992 -5.3086 -2.1572 c-0.97334 -0.9804 -1.4991 -2.2306 -1.4804 -3.5202 l0.017129 -1.1737 l2.3474 0.03414 l-0.017012 1.1737 c-0.0095508 0.66232 0.26668 1.2959 0.79912 1.832 c0.98028 0.98734 2.6908 1.5237 4.8134 1.507 c2.1676 -0.01582 3.8956 -0.57064 4.8658 -1.5624 c0.50916 -0.5203 0.77322 -1.1346 0.76394 -1.7765 l-0.017012 -1.1737 z"></path></g></svg>