<?xml version="1.0" encoding="UTF-8"?>
<!-- Generator: Adobe Illustrator 22.0.0, SVG Export Plug-In . SVG Version: 6.00 Build 0)  -->
<svg version="1.1" xmlns="http://www.w3.org/2000/svg" xmlns:xlink="http://www.w3.org/1999/xlink" x="0px" y="0px" viewBox="0 0 188 50.875" style="enable-background:new 0 0 188 50.875;" xml:space="preserve">
<style type="text/css">
	.st0{fill:#FFFFFF;}
	.st1{display:none;}
	.st2{display:inline;}
	.st3{fill:#231F20;}
</style>
<g id="Background">
	<rect id="XMLID_47_" x="45.12963" y="12.79473" class="st0" width="81.29803" height="22.05425"/>
</g>
<g id="D-ARCH__x28_not_officially_accepted_x29_" class="st1">
	<g id="XMLID_27_" class="st2">
		<path class="st3" d="M24.45395,18.65631c-0.68292-1.02734-1.71127-1.71128-3.59425-1.71128h-3.29276v17.11h3.29276    c1.88297,0,2.91132-0.684,3.59425-1.71038c0.5991-0.8557,0.81271-1.66835,0.81271-6.8442    C25.26666,20.36663,25.05305,19.51099,24.45395,18.65631L24.45395,18.65631z M29.58778,37.73412    c-2.09659,2.09563-5.04798,2.99426-8.21297,2.99426H10.08083V10.27163H21.3748c3.165,0,6.11639,0.89856,8.21297,2.99425    c3.55031,3.55037,3.16506,7.44319,3.16506,12.23456C32.75283,30.29087,33.13808,34.18375,29.58778,37.73412L29.58778,37.73412z"/>
		<path class="st3" d="M57.48148,17.1587l-4.7466,13.5176h9.36712L57.48148,17.1587L57.48148,17.1587z M65.48269,40.72837    l-2.09855-6.1174H51.36503l-2.0948,6.1174H44.3502l11.16418-30.45674h3.72213l11.16442,30.45674H65.48269L65.48269,40.72837z"/>
		<path class="st3" d="M86.61691,14.42104h-6.8451v9.53888h6.8451c3.07915,0,5.17574-1.75325,5.17574-4.7475    S89.69606,14.42104,86.61691,14.42104L86.61691,14.42104z M91.96262,40.72837l-6.41591-12.83271h-5.77489v12.83271h-4.62057    V10.27163h11.80711c5.77496,0,9.45315,3.72207,9.45315,8.89787c0,4.36308-2.65181,7.14367-6.07442,8.0842l7.01679,13.47468    H91.96262L91.96262,40.72837z"/>
		<path class="st3" d="M113.4422,40.98491c-3.16494,0-5.90462-1.15516-7.99918-3.25079    c-2.99527-2.99419-2.95151-6.37388-2.95151-12.23367c0-5.86069-0.04376-9.24031,2.95151-12.23456    c2.09456-2.09569,4.83424-3.25085,7.99918-3.25085c5.60302,0,9.79634,3.29377,10.86475,9.36813h-4.70457    c-0.72868-3.0801-2.78148-5.21872-6.16018-5.21872c-1.79707,0-3.42261,0.68489-4.49275,1.8391    c-1.4957,1.62542-1.83916,3.37962-1.83916,9.49691c0,6.11633,0.34346,7.87059,1.83916,9.49595    c1.07014,1.15516,2.69569,1.8391,4.49275,1.8391c3.3787,0,5.47529-2.13856,6.20221-5.21872h4.66254    C123.28054,37.69114,118.95949,40.98491,113.4422,40.98491L113.4422,40.98491z"/>
		<polygon class="st3" points="147.87939,40.72837 147.87939,27.4254 135.51707,27.4254 135.51707,40.72837 130.89653,40.72837     130.89653,10.27163 135.51707,10.27163 135.51707,23.27598 147.87939,23.27598 147.87939,10.27163 152.49997,10.27163     152.49997,40.72837 147.87939,40.72837   "/>
	</g>
</g>
<g id="D-BAUG__x28_not_officially_accepted_x29_" class="st1">
	<g id="XMLID_33_" class="st2">
		<path class="st3" d="M24.4298,18.51273c-0.67664-1.02097-1.69552-1.70066-3.56116-1.70066h-3.26245v17.00389h3.26245    c1.86564,0,2.88452-0.67976,3.56116-1.69977c0.59359-0.85039,0.80523-1.658,0.80523-6.80176    C25.23503,20.21244,25.02339,19.36211,24.4298,18.51273L24.4298,18.51273z M29.51636,37.47223    c-2.07728,2.08263-5.0015,2.97568-8.13737,2.97568h-11.19V10.18005h11.19c3.13586,0,6.06008,0.89299,8.13737,2.97568    c3.51763,3.52835,3.13592,7.39703,3.13592,12.15869C32.65228,30.07514,33.03399,33.94387,29.51636,37.47223L29.51636,37.47223z"/>
		<path class="st3" d="M55.96617,27.09946h-7.20366v9.22483h7.20366c3.17934,0,4.95992-1.95584,4.95992-4.63386    C60.92609,29.01246,59.1455,27.09946,55.96617,27.09946L55.96617,27.09946z M55.5427,14.30373h-6.78019v8.67205h6.78019    c2.92617,0,4.91656-1.53003,4.91656-4.33602S58.46887,14.30373,55.5427,14.30373L55.5427,14.30373z M56.38946,40.44791H44.18453    V10.18005h11.73999c5.59503,0,9.11272,3.18898,9.11272,8.29001c0,3.27335-2.03564,5.61105-4.06951,6.41872    c2.33258,0.93565,4.53639,3.18803,4.53639,7.01404C65.50412,37.47223,61.73126,40.44791,56.38946,40.44791L56.38946,40.44791z"/>
		<path class="st3" d="M82.12299,17.02441l-4.7068,13.43377h9.28289L82.12299,17.02441L82.12299,17.02441z M90.04665,40.44791    l-2.07552-6.07946H76.0609l-2.07722,6.07946h-4.87302l11.06164-30.26785h3.68574l11.06354,30.26785H90.04665L90.04665,40.44791z"/>
		<path class="st3" d="M109.96957,40.70285c-6.14317,0-10.80637-4.20811-10.80637-10.45803V10.18005h4.57608v19.85243    c0,4.03836,2.45923,6.54669,6.23029,6.54669c3.7728,0,6.27361-2.50833,6.27361-6.54669V10.18005h4.57626v20.06477    C120.81945,36.49475,116.11655,40.70285,109.96957,40.70285L109.96957,40.70285z"/>
		<path class="st3" d="M146.72095,37.25988c-2.28902,2.4229-5.12811,3.44298-8.30751,3.44298    c-3.1358,0-5.84836-1.14799-7.92386-3.23063c-2.96761-2.97563-2.92603-6.33435-2.92603-12.1578    c0-5.82434-0.04158-9.183,2.92603-12.15869c2.0755-2.08269,4.70288-3.23069,7.92386-3.23069    c6.40016,0,10.12967,4.20899,10.97841,9.39535h-4.61961c-0.76379-3.31601-2.96785-5.27167-6.3588-5.27167    c-1.78052,0-3.39113,0.72235-4.44948,1.87035c-1.48381,1.61534-1.82219,3.316-1.82219,9.39535    c0,6.0784,0.33838,7.82178,1.82219,9.43706c1.05835,1.14799,2.66896,1.82769,4.44948,1.82769    c1.99231,0,3.73122-0.76495,4.91638-2.12529c1.10211-1.27514,1.52544-2.806,1.52544-4.76083v-1.7006h-6.44182v-3.91133h11.02005    v4.63369C149.43349,32.62619,148.71326,35.13453,146.72095,37.25988L146.72095,37.25988z"/>
	</g>
</g>
<g id="D-BIOL" class="st1">
	<g id="XMLID_24_" class="st2">
		<path class="st3" d="M24.5693,18.708c-0.68828-1.03241-1.71979-1.71979-3.60997-1.71979h-3.31119v17.19444h3.31119    c1.89018,0,2.9217-0.68732,3.60997-1.71871c0.60206-0.85975,0.81667-1.67659,0.81667-6.87797    C25.38597,20.42683,25.17136,19.56697,24.5693,18.708L24.5693,18.708z M29.72861,37.88003    c-2.10713,2.10611-5.07292,3.00917-8.25356,3.00917H10.12707V10.28189h11.34798c3.18064,0,6.14643,0.90306,8.25356,3.00905    c3.56779,3.56792,3.18064,7.48003,3.18064,12.29502C32.90925,30.40018,33.29641,34.31224,29.72861,37.88003L29.72861,37.88003z"/>
		<path class="st3" d="M56.55789,27.39113h-7.30844v9.32803h7.30844c3.22288,0,5.02882-1.97753,5.02882-4.68558    C61.58672,29.32547,59.78077,27.39113,56.55789,27.39113L56.55789,27.39113z M56.12838,14.45175h-6.87892v8.76935h6.87892    c2.96406,0,4.98479-1.54706,4.98479-4.38464C61.11317,15.99899,59.09243,14.45175,56.12838,14.45175L56.12838,14.45175z     M56.98729,40.8892H44.60605V10.28189h11.90769c5.67486,0,9.24283,3.2248,9.24283,8.38291    c0,3.31023-2.06291,5.67408-4.1257,6.49081c2.36199,0.94608,4.59745,3.22378,4.59745,7.09269    C66.22832,37.88003,62.40338,40.8892,56.98729,40.8892L56.98729,40.8892z"/>
		<polygon class="st3" points="73.54053,40.8892 73.54053,10.28189 78.18391,10.28189 78.18391,40.8892 73.54053,40.8892   "/>
		<path class="st3" d="M101.05618,16.08539c-1.07565-1.16093-2.7532-1.89138-4.55719-1.89138    c-1.80595,0-3.48353,0.73045-4.55723,1.89138c-1.50302,1.63334-1.80594,3.35313-1.80594,9.50058    c0,6.14661,0.30292,7.8664,1.80594,9.4998c1.0737,1.16087,2.75128,1.89138,4.55723,1.89138    c1.80399,0,3.48154-0.73051,4.55719-1.89138c1.50306-1.6334,1.80399-3.35319,1.80399-9.4998    C102.86017,19.43851,102.55923,17.71872,101.05618,16.08539L101.05618,16.08539z M104.57993,37.88003    c-2.10515,2.10611-4.81398,3.26697-8.08095,3.26697c-3.26875,0-5.93384-1.16087-8.0388-3.26697    c-3.00998-3.00905-2.96603-6.40538-2.96603-12.29407c0-5.88965-0.04395-9.28579,2.96603-12.29502    c2.10497-2.10599,4.77006-3.26685,8.0388-3.26685c3.26697,0,5.9758,1.16087,8.08095,3.26685    c3.01004,3.00923,2.92383,6.40538,2.92383,12.29502C107.50376,31.47466,107.58997,34.87098,104.57993,37.88003L104.57993,37.88003    z"/>
		<polygon class="st3" points="114.81597,40.8892 114.81597,10.28189 119.45934,10.28189 119.45934,36.71916 134.20471,36.71916     134.20471,40.8892 114.81597,40.8892   "/>
	</g>
</g>
<g id="D-BSSE" class="st1">
	<g id="XMLID_35_" class="st2">
		<path class="st3" d="M24.37688,18.28644c-0.68335-1.0296-1.70727-1.71505-3.584-1.71505h-3.28702v17.14771h3.28702    c1.87673,0,2.90065-0.6855,3.584-1.71415c0.59764-0.85758,0.81081-1.67203,0.81081-6.85929    C25.18769,20.00053,24.97452,19.14301,24.37688,18.28644L24.37688,18.28644z M29.4987,37.40631    c-2.09174,2.10025-5.03617,3.00085-8.19376,3.00085H10.03922V9.88329h11.26571c3.1576,0,6.10202,0.90054,8.19376,3.00085    c3.54213,3.55819,3.1576,7.45959,3.1576,12.26153C32.65629,29.94666,33.04082,33.84811,29.4987,37.40631L29.4987,37.40631z"/>
		<path class="st3" d="M56.13366,26.9458h-7.25549v9.30286h7.25549c3.19947,0,4.99239-1.97239,4.99239-4.67306    C61.12605,28.87499,59.33313,26.9458,56.13366,26.9458L56.13366,26.9458z M55.70726,14.04185h-6.82909v8.7454h6.82909    c2.94252,0,4.94861-1.54297,4.94861-4.3727S58.64978,14.04185,55.70726,14.04185L55.70726,14.04185z M56.55988,40.40716H44.26841    V9.88329h11.82141c5.63393,0,9.17587,3.21595,9.17587,8.36013c0,3.30103-2.04784,5.6585-4.09581,6.47301    c2.34476,0.94356,4.56414,3.21499,4.56414,7.07337C65.73402,37.40631,61.9368,40.40716,56.55988,40.40716L56.55988,40.40716z"/>
		<path class="st3" d="M81.05956,40.66426c-4.5642,0-7.85134-1.07154-10.75378-4.0295l3.07177-3.04393    c2.21932,2.22943,4.65182,2.91487,7.76944,2.91487c3.96645,0,6.27326-1.71505,6.27326-4.67288    c0-1.32877-0.38435-2.44357-1.19534-3.17198c-0.76881-0.72942-1.53776-1.02864-3.33062-1.28676l-3.58399-0.51432    c-2.47621-0.34225-4.43668-1.19977-5.76145-2.44351c-1.49213-1.41487-2.21909-3.34406-2.21909-5.82963    c0-5.31626,3.84089-8.9605,10.15596-8.9605c4.01218,0,6.82909,1.02865,9.43276,3.47311l-2.94431,2.91481    c-1.87863-1.80108-4.0559-2.35843-6.61395-2.35843c-3.58596,0-5.55013,2.05831-5.55013,4.75892    c0,1.11469,0.34266,2.10127,1.15341,2.82973c0.76882,0.68545,2.00609,1.19977,3.41442,1.41487l3.4566,0.51432    c2.81684,0.42828,4.39648,1.11469,5.67562,2.27239c1.66344,1.45693,2.47419,3.64328,2.47419,6.25893    C91.98434,37.32021,87.42026,40.66426,81.05956,40.66426L81.05956,40.66426z"/>
		<path class="st3" d="M106.24224,40.66426c-4.56611,0-7.85135-1.07154-10.75568-4.0295l3.07373-3.04393    c2.21932,2.22943,4.65188,2.91487,7.76748,2.91487c3.96838,0,6.27326-1.71505,6.27326-4.67288    c0-1.32877-0.38435-2.44357-1.1951-3.17198c-0.76909-0.72942-1.53603-1.02864-3.3289-1.28676l-3.584-0.51432    c-2.47621-0.34225-4.43864-1.19977-5.76318-2.44351c-1.49237-1.41487-2.21741-3.34406-2.21741-5.82963    c0-5.31626,3.84094-8.9605,10.15607-8.9605c4.01218,0,6.82713,1.02865,9.43098,3.47311l-2.94261,2.91481    c-1.87863-1.80108-4.05608-2.35843-6.61582-2.35843c-3.58597,0-5.54822,2.05831-5.54822,4.75892    c0,1.11469,0.34069,2.10127,1.15144,2.82973c0.76888,0.68545,2.00615,1.19977,3.41466,1.41487l3.45633,0.51432    c2.8169,0.42828,4.39671,1.11469,5.67568,2.27239c1.66537,1.45693,2.47618,3.64328,2.47618,6.25893    C117.16714,37.32021,112.60103,40.66426,106.24224,40.66426L106.24224,40.66426z"/>
		<polygon class="st3" points="123.78496,40.40716 123.78496,9.88329 143.20258,9.88329 143.20258,14.04185 128.39487,14.04185     128.39487,22.95932 141.0271,22.95932 141.0271,27.07486 128.39487,27.07486 128.39487,36.24866 143.20258,36.24866     143.20258,40.40716 123.78496,40.40716   "/>
	</g>
</g>
<g id="D-CHAB" class="st1">
	<g id="XMLID_21_" class="st2">
		<path class="st3" d="M24.55561,18.31014c-0.68826-1.03222-1.71947-1.71947-3.60953-1.71947h-3.31033v17.1912h3.31033    c1.89007,0,2.92127-0.68719,3.60953-1.71839c0.60177-0.85958,0.81651-1.67628,0.81651-6.87667    C25.37213,20.02865,25.15738,19.16895,24.55561,18.31014L24.55561,18.31014z M29.71378,37.47857    c-2.10655,2.10571-5.07203,3.00861-8.25201,3.00861H10.11592V9.88562h11.34585c3.17998,0,6.14546,0.90289,8.25201,3.00848    c3.56718,3.56724,3.17998,7.47862,3.17998,12.29271C32.89376,30.00013,33.28096,33.91144,29.71378,37.47857L29.71378,37.47857z"/>
		<path class="st3" d="M55.59114,40.74493c-3.18004,0-5.93077-1.16065-8.03534-3.26636    c-3.00944-3.00848-2.96745-6.40417-2.96745-12.29175c0-5.88854-0.04199-9.28404,2.96745-12.29271    c2.10457-2.10559,4.8553-3.26624,8.03534-3.26624c5.63156,0,9.84304,3.30943,10.91827,9.41265h-4.72891    c-0.73014-3.0948-2.79266-5.24352-6.18936-5.24352c-1.80567,0-3.43869,0.68821-4.51225,1.84784    c-1.50472,1.63309-1.84777,3.39569-1.84777,9.54198c0,6.14546,0.34306,7.90787,1.84777,9.5412    c1.07355,1.16065,2.70658,1.84784,4.51225,1.84784c3.3967,0,5.50122-2.14878,6.23357-5.24358h4.6847    C65.47816,37.43556,61.13459,40.74493,55.59114,40.74493L55.59114,40.74493z"/>
		<polygon class="st3" points="90.19395,40.48717 90.19395,27.12097 77.77287,27.12097 77.77287,40.48717 73.13037,40.48717     73.13037,9.88562 77.77287,9.88562 77.77287,22.9519 90.19395,22.9519 90.19395,9.88562 94.83645,9.88562 94.83645,40.48717     90.19395,40.48717   "/>
		<path class="st3" d="M112.80495,16.80548L108.036,30.38721h9.41164L112.80495,16.80548L112.80495,16.80548z M120.84419,40.48717    l-2.10853-6.14642h-12.07601l-2.10475,6.14642h-4.94345l11.21727-30.60155h3.73982l11.2173,30.60155H120.84419L120.84419,40.48717    z"/>
		<path class="st3" d="M142.5085,26.99164h-7.30511v9.32627h7.30511c3.22397,0,5.02982-1.97716,5.02982-4.6847    C147.53831,28.92562,145.73247,26.99164,142.5085,26.99164L142.5085,26.99164z M142.07903,14.0547h-6.87564v8.7677h6.87564    c2.96724,0,4.98563-1.54677,4.98563-4.38382C147.06465,15.60165,145.04626,14.0547,142.07903,14.0547L142.07903,14.0547z     M142.93777,40.48717h-12.37714V9.88562h11.90565c5.6738,0,9.24109,3.22419,9.24109,8.38133    c0,3.30961-2.06453,5.67301-4.12711,6.48959c2.36545,0.9459,4.60054,3.22317,4.60054,7.09136    C152.18082,37.47857,148.35483,40.48717,142.93777,40.48717L142.93777,40.48717z"/>
	</g>
</g>
<g id="D-ERDW__x28_not_officially_accepted_x29_" class="st1">
	<g id="XMLID_37_" class="st2">
		<path class="st3" d="M24.69995,18.54766c-0.69374-1.04079-1.73356-1.73374-3.63932-1.73374h-3.33781v17.33392h3.33781    c1.90576,0,2.94558-0.69289,3.63932-1.73265c0.60695-0.86672,0.82347-1.6902,0.82347-6.93376    C25.52342,20.28044,25.30689,19.4136,24.69995,18.54766L24.69995,18.54766z M29.90111,37.87522    c-2.12422,2.12319-5.11413,3.03358-8.32051,3.03358H10.14056V10.05321H21.5806c3.20638,0,6.19629,0.91039,8.32051,3.03346    c3.59686,3.59686,3.20638,7.5407,3.20638,12.39476C33.10749,30.33469,33.49797,34.27848,29.90111,37.87522L29.90111,37.87522z"/>
		<polygon class="st3" points="44.89923,40.9088 44.89923,10.05321 64.6172,10.05321 64.6172,14.25689 49.5803,14.25689     49.5803,23.27132 62.40613,23.27132 62.40613,27.43163 49.5803,27.43163 49.5803,36.70493 64.6172,36.70493 64.6172,40.9088     44.89923,40.9088   "/>
		<path class="st3" d="M83.08277,14.25689h-6.93294v9.66396h6.93294c3.11935,0,5.24553-1.77626,5.24553-4.80972    C88.3283,16.07772,86.20212,14.25689,83.08277,14.25689L83.08277,14.25689z M88.50029,40.9088l-6.49986-13.00074h-5.8506V40.9088    h-4.68102V10.05321h11.9617c5.84858,0,9.57687,3.77087,9.57687,9.01443c0,4.42015-2.68644,7.23708-6.15392,8.19005    l7.10686,13.65111H88.50029L88.50029,40.9088z"/>
		<path class="st3" d="M115.8932,16.33762c-1.30068-1.43018-3.03439-2.08073-5.24553-2.08073h-5.67457v22.44805h5.67457    c2.21114,0,3.94485-0.65037,5.24553-2.0797c1.60229-1.77705,1.64665-5.11389,1.64665-9.36112    C117.53985,21.01785,117.49548,18.11382,115.8932,16.33762L115.8932,16.33762z M119.09958,38.00477    c-1.95,1.95009-4.76814,2.90403-7.97452,2.90403h-10.83303V10.05321h10.83303c3.20638,0,6.02452,0.95394,7.97452,2.90403    c3.33784,3.33684,3.11953,7.84409,3.11953,12.30688C122.21911,29.72769,122.43742,34.66878,119.09958,38.00477L119.09958,38.00477    z"/>
		<polygon class="st3" points="154.33563,40.9088 150.2614,40.9088 143.978,19.28411 137.73717,40.9088 133.66292,40.9088     125.60327,10.05321 130.5434,10.05321 135.91658,32.11174 142.11479,10.05321 145.88573,10.05321 152.08199,32.11174     157.45517,10.05321 162.39529,10.05321 154.33563,40.9088   "/>
	</g>
</g>
<g id="D-GESS" class="st1">
	<g id="XMLID_18_" class="st2">
		<path class="st3" d="M24.25302,18.56678c-0.67031-1.00724-1.67469-1.6778-3.5156-1.6778h-3.22429v16.77534h3.22429    c1.84091,0,2.84529-0.67062,3.5156-1.67693c0.58624-0.83896,0.79534-1.63572,0.79534-6.71033    C25.04836,20.24365,24.83926,19.40475,24.25302,18.56678L24.25302,18.56678z M29.27709,37.27144    c-2.05182,2.05464-4.94005,2.93569-8.03739,2.93569H10.189V10.34611H21.2397c3.09733,0,5.98557,0.88099,8.03739,2.93569    c3.47453,3.48093,3.09733,7.2976,3.09733,11.99526C32.37442,29.97378,32.75161,33.79052,29.27709,37.27144L29.27709,37.27144z"/>
		<path class="st3" d="M62.68691,37.06195c-2.2611,2.39033-5.06532,3.3967-8.20542,3.3967    c-3.09727,0-5.77652-1.13256-7.82653-3.18721c-2.93118-2.93563-2.89004-6.24921-2.89004-11.99439    c0-5.74605-0.04113-9.05957,2.89004-11.99526c2.05001-2.0547,4.64513-3.18726,7.82653-3.18726    c6.32151,0,10.00513,4.15242,10.84329,9.26907h-4.56292c-0.75415-3.27143-2.93111-5.20082-6.28038-5.20082    c-1.75888,0-3.34949,0.71265-4.39507,1.84521c-1.46559,1.59363-1.79972,3.27143-1.79972,9.26907    c0,5.9967,0.33413,7.71664,1.79972,9.31022c1.04557,1.13256,2.63619,1.80312,4.39507,1.80312    c1.96775,0,3.68538-0.75467,4.85598-2.09673c1.08834-1.258,1.50666-2.76828,1.50666-4.69684v-1.67775h-6.36264v-3.85876h10.88437    v4.57141C65.36586,32.49054,64.65472,34.96516,62.68691,37.06195L62.68691,37.06195z"/>
		<polygon class="st3" points="72.44566,40.20713 72.44566,10.34611 91.4925,10.34611 91.4925,14.41436 76.96745,14.41436     76.96745,23.13819 89.35684,23.13819 89.35684,27.16435 76.96745,27.16435 76.96745,36.13894 91.4925,36.13894 91.4925,40.20713     72.44566,40.20713   "/>
		<path class="st3" d="M106.02161,40.45865c-4.47899,0-7.70322-1.04828-10.54852-3.942l3.01315-2.97783    c2.17697,2.18102,4.56304,2.85157,7.61927,2.85157c3.89261,0,6.1535-1.6778,6.1535-4.57141    c0-1.29991-0.37698-2.39051-1.17232-3.10309c-0.75246-0.71358-1.50666-1.00631-3.2653-1.25882l-3.51756-0.50315    c-2.42702-0.33481-4.35201-1.17371-5.64957-2.39045c-1.46553-1.38414-2.17673-3.27143-2.17673-5.70303    c0-5.20081,3.76759-8.76591,9.96214-8.76591c3.93564,0,6.69875,1.00631,9.25274,3.39769l-2.89004,2.85152    c-1.84088-1.76197-3.97657-2.30721-6.4877-2.30721c-3.51562,0-5.4423,2.01361-5.4423,4.65558    c0,1.09048,0.33611,2.05564,1.13139,2.76828c0.75228,0.67056,1.9678,1.17371,3.34751,1.38414l3.39235,0.50315    c2.76115,0.41898,4.31091,1.09048,5.5673,2.22304c1.63174,1.42529,2.42702,3.56416,2.42702,6.12301    C116.73795,37.18721,112.25901,40.45865,106.02161,40.45865L106.02161,40.45865z"/>
		<path class="st3" d="M130.72374,40.45865c-4.47897,0-7.70151-1.04828-10.55045-3.942l3.01507-2.97783    c2.17697,2.18102,4.5631,2.85157,7.6193,2.85157c3.89258,0,6.15347-1.6778,6.15347-4.57141    c0-1.29991-0.37701-2.39051-1.17229-3.10309c-0.75444-0.71358-1.50673-1.00631-3.26537-1.25882l-3.51562-0.50315    c-2.42889-0.33481-4.3539-1.17371-5.65316-2.39045c-1.46386-1.38414-2.17507-3.27143-2.17507-5.70303    c0-5.20081,3.76759-8.76591,9.9622-8.76591c3.93564,0,6.69682,1.00631,9.25098,3.39769l-2.88641,2.85152    c-1.84279-1.76197-3.97865-2.30721-6.48959-2.30721c-3.51753,0-5.44234,2.01361-5.44234,4.65558    c0,1.09048,0.33422,2.05564,1.1295,2.76828c0.75423,0.67056,1.96783,1.17371,3.34949,1.38414l3.39037,0.50315    c2.76315,0.41898,4.31281,1.09048,5.56734,2.22304c1.63361,1.42529,2.42896,3.56416,2.42896,6.12301    C141.44011,37.18721,136.96114,40.45865,130.72374,40.45865L130.72374,40.45865z"/>
	</g>
</g>
<g id="D-HEST__x28_not_officially_accepted_x29_" class="st1">
	<g id="XMLID_39_" class="st2">
		<path class="st3" d="M24.10029,18.6708c-0.67017-1.01282-1.67434-1.68709-3.51486-1.68709h-3.22361v16.86822h3.22361    c1.84052,0,2.84469-0.67433,3.51486-1.68621c0.58611-0.84361,0.79517-1.64477,0.79517-6.74749    C24.89546,20.35695,24.68641,19.51341,24.10029,18.6708L24.10029,18.6708z M29.12331,37.47902    c-2.05139,2.06602-4.93901,2.95194-8.0357,2.95194H10.03922V10.40462h11.04838c3.09668,0,5.98431,0.88586,8.0357,2.95194    c3.47379,3.5002,3.09668,7.338,3.09668,12.06167C32.21999,30.14096,32.5971,33.97882,29.12331,37.47902L29.12331,37.47902z"/>
		<polygon class="st3" points="60.22459,40.43097 60.22459,27.31598 48.12893,27.31598 48.12893,40.43097 43.60809,40.43097     43.60809,10.40462 48.12893,10.40462 48.12893,23.2252 60.22459,23.2252 60.22459,10.40462 64.74543,10.40462 64.74543,40.43097     60.22459,40.43097   "/>
		<polygon class="st3" points="72.95105,40.43097 72.95105,10.40462 91.99406,10.40462 91.99406,14.49539 77.47189,14.49539     77.47189,23.26752 89.86037,23.26752 89.86037,27.31598 77.47189,27.31598 77.47189,36.34025 91.99406,36.34025     91.99406,40.43097 72.95105,40.43097   "/>
		<path class="st3" d="M106.52161,40.68388c-4.47779,0-7.69965-1.05408-10.54802-3.96382l3.01443-2.99432    c2.17657,2.19309,4.5622,2.86736,7.6177,2.86736c3.8918,0,6.15221-1.68709,6.15221-4.59672    c0-1.30711-0.37693-2.40374-1.17204-3.12027c-0.75428-0.71753-1.5064-1.01188-3.26492-1.26579l-3.51466-0.50594    c-2.42838-0.33667-4.35296-1.18021-5.65217-2.40368c-1.46336-1.39181-2.17441-3.28955-2.17441-5.73461    c0-5.22961,3.76679-8.81444,9.96013-8.81444c3.93478,0,6.69537,1.01188,9.24899,3.4165l-2.88579,2.8673    c-1.84239-1.77173-3.97781-2.31999-6.48826-2.31999c-3.51675,0-5.44116,2.02476-5.44116,4.68135    c0,1.09652,0.33412,2.06702,1.1293,2.78361c0.75404,0.67427,1.96733,1.18021,3.34876,1.3918l3.38968,0.50594    c2.76247,0.4213,4.3119,1.09652,5.56613,2.23535c1.63327,1.43318,2.42844,3.58389,2.42844,6.15691    C117.23596,37.39433,112.75793,40.68388,106.52161,40.68388L106.52161,40.68388z"/>
		<polygon class="st3" points="133.81329,14.49539 133.81329,40.43097 129.29417,40.43097 129.29417,14.49539 121.09048,14.49539     121.09048,10.40462 142.01701,10.40462 142.01701,14.49539 133.81329,14.49539   "/>
	</g>
</g>
<g id="D-INFK__x28_not_officially_accepted_x29_" class="st1">
	<g id="XMLID_15_" class="st2">
		<path class="st3" d="M24.49171,18.32791c-0.68216-1.02306-1.70421-1.70421-3.57751-1.70421h-3.28096v17.03869h3.28096    c1.8733,0,2.89535-0.68109,3.57751-1.70314c0.59643-0.85196,0.80927-1.66141,0.80927-6.81567    C25.30098,20.03117,25.08814,19.1791,24.49171,18.32791L24.49171,18.32791z M29.60411,37.32628    c-2.08786,2.08703-5.02703,2.98191-8.1788,2.98191h-11.2452V9.97813h11.2452c3.15177,0,6.09094,0.89488,8.1788,2.98179    c3.53554,3.5356,3.15177,7.41227,3.15177,12.18366C32.75588,29.91419,33.13965,33.79081,29.60411,37.32628L29.60411,37.32628z"/>
		<polygon class="st3" points="44.34673,40.3082 44.34673,9.97813 48.94831,9.97813 48.94831,40.3082 44.34673,40.3082   "/>
		<polygon class="st3" points="75.91449,40.3082 61.90141,18.9662 61.90141,40.3082 57.29982,40.3082 57.29982,9.97813     61.51752,9.97813 75.53072,31.27732 75.53072,9.97813 80.13222,9.97813 80.13222,40.3082 75.91449,40.3082   "/>
		<polygon class="st3" points="93.0853,14.11021 93.0853,23.35399 105.69447,23.35399 105.69447,27.48608 93.0853,27.48608     93.0853,40.3082 88.48375,40.3082 88.48375,9.97813 107.86592,9.97813 107.86592,14.11021 93.0853,14.11021   "/>
		<polygon class="st3" points="132.0681,40.3082 123.54726,25.35642 118.43661,31.48998 118.43661,40.3082 113.8353,40.3082     113.8353,9.97813 118.43661,9.97813 118.43661,25.22818 130.83118,9.97813 136.45467,9.97813 126.61542,21.86357     137.47679,40.3082 132.0681,40.3082   "/>
	</g>
</g>
<g id="D-ITET" class="st1">
	<g id="XMLID_41_" class="st2">
		<path class="st3" d="M24.54611,18.32417c-0.6909-1.03635-1.72635-1.72635-3.62392-1.72635h-3.32363v17.25999h3.32363    c1.89757,0,2.93302-0.68994,3.62392-1.72527c0.60418-0.86302,0.81978-1.68298,0.81978-6.90419    C25.36589,20.04955,25.15029,19.18641,24.54611,18.32417L24.54611,18.32417z M29.72491,37.56929    c-2.11498,2.11414-5.09232,3.02065-8.28503,3.02065H10.04864v-30.724h11.39125c3.19271,0,6.17005,0.90651,8.28503,3.02052    c3.58158,3.58152,3.19271,7.50855,3.19271,12.3419C32.91762,30.06093,33.30649,33.9879,29.72491,37.56929L29.72491,37.56929z"/>
		<polygon class="st3" points="44.65907,40.58994 44.65907,9.86594 49.32036,9.86594 49.32036,40.58994 44.65907,40.58994   "/>
		<polygon class="st3" points="68.18053,14.05169 68.18053,40.58994 63.51929,40.58994 63.51929,14.05169 55.061,14.05169     55.061,9.86594 76.63689,9.86594 76.63689,14.05169 68.18053,14.05169   "/>
		<polygon class="st3" points="82.37946,40.58994 82.37946,9.86594 102.01337,9.86594 102.01337,14.05169 87.04078,14.05169     87.04078,23.02768 99.81169,23.02768 99.81169,27.17025 87.04078,27.17025 87.04078,36.404 102.01337,36.404 102.01337,40.58994     82.37946,40.58994   "/>
		<polygon class="st3" points="119.23592,14.05169 119.23592,40.58994 114.57658,40.58994 114.57658,14.05169 106.11655,14.05169     106.11655,9.86594 127.69418,9.86594 127.69418,14.05169 119.23592,14.05169   "/>
	</g>
</g>
<g id="D-MATH">
	<g id="XMLID_12_">
		<path class="st3" d="M24.43309,18.58981c-0.69043-1.03556-1.72503-1.72503-3.62115-1.72503H17.4909V34.1116h3.32104    c1.89612,0,2.93072-0.68941,3.62115-1.72395c0.60378-0.86237,0.81916-1.6817,0.81916-6.89892    C25.25225,20.31388,25.03687,19.45139,24.43309,18.58981L24.43309,18.58981z M29.60795,37.82026    c-2.11331,2.11253-5.08844,3.01834-8.27871,3.01834H9.94668V10.13802h11.38256c3.19027,0,6.1654,0.90582,8.27871,3.01822    c3.57885,3.57879,3.19027,7.50282,3.19027,12.33249C32.79822,30.31762,33.18679,34.24159,29.60795,37.82026L29.60795,37.82026z"/>
		<polygon class="st3" points="66.95361,40.8386 66.95361,20.31388 59.88064,35.27601 56.43058,35.27601 49.18845,20.31388     49.18845,40.8386 44.53072,40.8386 44.53072,10.13802 49.18845,10.13802 58.1576,29.23963 66.95361,10.13802 71.60918,10.13802     71.60918,40.8386 66.95361,40.8386   "/>
		<path class="st3" d="M89.59544,17.08027L84.8089,30.70595h9.44407L89.59544,17.08027L89.59544,17.08027z M97.65871,40.8386    l-2.11334-6.16631H83.43025l-2.11352,6.16631h-4.95944l11.25357-30.70057h3.75195l11.25552,30.70057H97.65871L97.65871,40.8386z"/>
		<polygon class="st3" points="115.20839,14.32059 115.20839,40.8386 110.55282,40.8386 110.55282,14.32059 102.09905,14.32059     102.09905,10.13802 123.6602,10.13802 123.6602,14.32059 115.20839,14.32059   "/>
		<polygon class="st3" points="146.51764,40.8386 146.51764,27.42914 134.05618,27.42914 134.05618,40.8386 129.39864,40.8386     129.39864,10.13802 134.05618,10.13802 134.05618,23.24658 146.51764,23.24658 146.51764,10.13802 151.17522,10.13802     151.17522,40.8386 146.51764,40.8386   "/>
	</g>
</g>
<g id="D-MATL__x28_not_officially_accepted_x29_" class="st1">
	<g id="XMLID_4_" class="st2">
		<path class="st3" d="M24.49056,18.67918c-0.68163-1.0242-1.70297-1.70605-3.57498-1.70605h-3.27875v17.0577h3.27875    c1.872,0,2.89335-0.68185,3.57498-1.7051c0.59613-0.85309,0.80877-1.66326,0.80877-6.82327    C25.29933,20.38429,25.0867,19.53126,24.49056,18.67918L24.49056,18.67918z M29.59948,37.69875    c-2.08648,2.08936-5.02349,2.98512-8.17314,2.98512H10.189V10.32008h11.23735c3.14965,0,6.08666,0.89582,8.17314,2.98512    c3.53321,3.53954,3.14965,7.42055,3.14965,12.19725C32.74913,30.27839,33.13269,34.15921,29.59948,37.69875L29.59948,37.69875z"/>
		<polygon class="st3" points="66.46872,40.68388 66.46872,20.38429 59.48595,35.1824 56.08007,35.1824 48.93018,20.38429     48.93018,40.68388 44.33201,40.68388 44.33201,10.32008 48.93018,10.32008 57.78488,29.21222 66.46872,10.32008 71.0651,10.32008     71.0651,40.68388 66.46872,40.68388   "/>
		<path class="st3" d="M88.82204,17.18615L84.0965,30.66246h9.32364L88.82204,17.18615L88.82204,17.18615z M96.78248,40.68388    l-2.08642-6.09857H82.73525l-2.08636,6.09857h-4.89641l11.11033-30.36379h3.70378l11.11205,30.36379H96.78248L96.78248,40.68388z"/>
		<polygon class="st3" points="114.10838,14.45684 114.10838,40.68388 109.51195,40.68388 109.51195,14.45684 101.16616,14.45684     101.16616,10.32008 122.45239,10.32008 122.45239,14.45684 114.10838,14.45684   "/>
		<polygon class="st3" points="128.11765,40.68388 128.11765,10.32008 132.71581,10.32008 132.71581,36.54712 147.31549,36.54712     147.31549,40.68388 128.11765,40.68388   "/>
	</g>
</g>
<g id="D-MAVT__x28_not_officially_accepted_x29_" class="st1">
	<g id="XMLID_9_" class="st2">
		<path class="st3" d="M24.33576,18.49735c-0.68654-1.03267-1.71525-1.72015-3.60074-1.72015h-3.30238v17.19865h3.30238    c1.88549,0,2.9142-0.68748,3.60074-1.71919c0.60043-0.86014,0.8146-1.67701,0.8146-6.87965    C25.15036,20.21655,24.93619,19.35647,24.33576,18.49735L24.33576,18.49735z M29.48151,37.67409    c-2.10151,2.10662-5.0597,3.00979-8.23205,3.00979H9.93112v-30.6147h11.31835c3.17235,0,6.13053,0.90322,8.23205,3.00979    c3.55867,3.56879,3.17235,7.48186,3.17235,12.29804C32.65385,30.1924,33.04018,34.1053,29.48151,37.67409L29.48151,37.67409z"/>
		<polygon class="st3" points="66.61649,40.68388 66.61649,20.21655 59.58339,35.13694 56.15295,35.13694 48.95153,20.21655     48.95153,40.68388 44.32022,40.68388 44.32022,10.06918 48.95153,10.06918 57.87005,29.11743 66.61649,10.06918     71.24599,10.06918 71.24599,40.68388 66.61649,40.68388   "/>
		<path class="st3" d="M89.13091,16.99198l-4.7596,13.58768h9.39084L89.13091,16.99198L89.13091,16.99198z M97.14873,40.68388    l-2.10145-6.14896H83.00026l-2.10139,6.14896h-4.93169l11.19041-30.6147h3.73047l11.19215,30.6147H97.14873L97.14873,40.68388z"/>
		<polygon class="st3" points="115.19613,40.68388 111.59535,40.68388 101.56013,10.06918 106.36353,10.06918 113.39489,32.34206     120.42604,10.06918 125.31364,10.06918 115.19613,40.68388   "/>
		<polygon class="st3" points="140.2823,14.24012 140.2823,40.68388 135.65102,40.68388 135.65102,14.24012 127.24883,14.24012     127.24883,10.06918 148.68449,10.06918 148.68449,14.24012 140.2823,14.24012   "/>
	</g>
</g>
<g id="D-MTEC" class="st1">
	<g id="XMLID_3_" class="st2">
		<path class="st3" d="M24.67574,18.30845c-0.6911-1.03666-1.72686-1.72686-3.62499-1.72686h-3.32456V33.8467h3.32456    c1.89813,0,2.93389-0.69014,3.62499-1.72578c0.60442-0.86328,0.82003-1.68349,0.82003-6.90624    C25.49576,20.03434,25.28015,19.17094,24.67574,18.30845L24.67574,18.30845z M29.85608,37.55928    c-2.11579,2.11476-5.09383,3.02154-8.28749,3.02154H10.17396V9.8477h11.39463c3.19366,0,6.1717,0.90677,8.28749,3.02142    c3.58264,3.58258,3.19365,7.51077,3.19365,12.34556C33.04973,30.04869,33.43872,33.97682,29.85608,37.55928L29.85608,37.55928z"/>
		<polygon class="st3" points="67.24108,40.58082 67.24108,20.03434 60.16068,35.01234 56.70714,35.01234 49.45716,20.03434     49.45716,40.58082 44.79467,40.58082 44.79467,9.8477 49.45716,9.8477 58.43581,28.96956 67.24108,9.8477 71.90182,9.8477     71.90182,40.58082 67.24108,40.58082   "/>
		<polygon class="st3" points="90.72719,14.0347 90.72719,40.58082 86.0647,40.58082 86.0647,14.0347 77.60573,14.0347     77.60573,9.8477 99.18597,9.8477 99.18597,14.0347 90.72719,14.0347   "/>
		<polygon class="st3" points="104.93052,40.58082 104.93052,9.8477 124.57025,9.8477 124.57025,14.0347 109.59301,14.0347     109.59301,23.01335 122.36991,23.01335 122.36991,27.15715 109.59301,27.15715 109.59301,36.39364 124.57025,36.39364     124.57025,40.58082 104.93052,40.58082   "/>
		<path class="st3" d="M141.32422,40.83968c-3.19371,0-5.95822-1.16564-8.07184-3.2804    c-3.02235-3.02142-2.97823-6.43171-2.97823-12.3446c0-5.91386-0.04413-9.32396,2.97823-12.34556    c2.11362-2.11464,4.87813-3.28028,8.07184-3.28028c5.65404,0,9.88519,3.32366,10.96326,9.45312h-4.74725    c-0.73526-3.10811-2.8067-5.26607-6.216-5.26607c-1.8134,0-3.45372,0.69117-4.53357,1.85578    c-1.50923,1.64011-1.85577,3.41029-1.85577,9.58301c0,6.17188,0.34654,7.94187,1.85577,9.58223    c1.07985,1.16564,2.72017,1.85578,4.53357,1.85578c3.4093,0,5.5249-2.15802,6.25839-5.26612h4.70486    C151.25179,37.51609,146.89151,40.83968,141.32422,40.83968L141.32422,40.83968z"/>
	</g>
</g>
<g id="D-PHYS__x28_not_officially_accepted_x29_" class="st1">
	<g id="XMLID_2_" class="st2">
		<path class="st3" d="M24.41558,18.30459c-0.68519-1.02967-1.71188-1.71516-3.59367-1.71516h-3.2959v17.14884h3.2959    c1.88179,0,2.90848-0.68555,3.59367-1.71426c0.59925-0.85764,0.813-1.67214,0.813-6.85974    C25.22858,20.01879,25.01484,19.16121,24.41558,18.30459L24.41558,18.30459z M29.55123,37.4257    c-2.09739,2.10039-5.04976,3.00105-8.21588,3.00105H10.03922V9.90088h11.29612c3.16612,0,6.11849,0.9006,8.21588,3.00105    c3.55169,3.55843,3.16612,7.46008,3.16612,12.26234C32.71735,29.96556,33.10291,33.86728,29.55123,37.4257L29.55123,37.4257z"/>
		<path class="st3" d="M55.65895,14.05971h-6.67594v10.16093h6.67594c3.20805,0,5.39114-1.84327,5.39114-5.05943    C61.05009,15.946,58.867,14.05971,55.65895,14.05971L55.65895,14.05971z M55.91451,28.42249h-6.9315v12.00426h-4.62221V9.90088    h11.5537c5.94876,0,9.75606,3.94467,9.75606,9.26033C65.67057,24.47782,61.86327,28.42249,55.91451,28.42249L55.91451,28.42249z"/>
		<polygon class="st3" points="88.69794,40.42676 88.69794,27.09358 76.33124,27.09358 76.33124,40.42676 71.70879,40.42676     71.70879,9.90088 76.33124,9.90088 76.33124,22.93475 88.69794,22.93475 88.69794,9.90088 93.32014,9.90088 93.32014,40.42676     88.69794,40.42676   "/>
		<polygon class="st3" points="111.67957,27.86512 111.67957,40.42676 107.05908,40.42676 107.05908,27.86512 97.94426,9.90088     102.99409,9.90088 109.37019,23.32004 115.74438,9.90088 120.7942,9.90088 111.67957,27.86512   "/>
		<path class="st3" d="M133.50839,40.68388c-4.57846,0-7.87433-1.07162-10.78281-4.02977l3.0803-3.04413    c2.22529,2.22958,4.66419,2.91507,7.78828,2.91507c3.97926,0,6.29034-1.71516,6.29034-4.67319    c0-1.32886-0.38557-2.44373-1.19855-3.17218c-0.76917-0.72947-1.54015-1.02871-3.33784-1.28685l-3.59546-0.51436    c-2.48111-0.34227-4.44866-1.19985-5.77501-2.44367c-1.49813-1.41496-2.22531-3.34427-2.22531-5.83001    c0-5.31661,3.85126-8.96109,10.18341-8.96109c4.02304,0,6.84752,1.02871,9.45839,3.47334l-2.95424,2.91501    c-1.88174-1.8012-4.06503-2.35858-6.63196-2.35858c-3.59367,0-5.56317,2.05844-5.56317,4.75923    c0,1.11476,0.34355,2.1014,1.15652,2.82992c0.76923,0.68549,2.01154,1.19985,3.42191,1.41496l3.46767,0.51436    c2.82271,0.42831,4.4066,1.11476,5.69096,2.27254c1.66792,1.45702,2.48111,3.64352,2.48111,6.25934    C144.46294,37.3396,139.88451,40.68388,133.50839,40.68388L133.50839,40.68388z"/>
	</g>
</g>
<g id="D-USYS" class="st1">
	<g id="XMLID_8_" class="st2">
		<path class="st3" d="M24.41731,18.5012c-0.68661-1.03289-1.72058-1.72058-3.61361-1.72058h-3.31067v17.20233h3.31067    c1.89303,0,2.92699-0.68763,3.61361-1.7195c0.6024-0.86014,0.81704-1.67737,0.81704-6.88113    C25.23436,20.22082,25.01971,19.36056,24.41731,18.5012L24.41731,18.5012z M29.57881,37.68203    c-2.10785,2.10707-5.07507,3.01055-8.25735,3.01055H9.96653V10.07122h11.35493c3.18228,0,6.14949,0.90348,8.25735,3.01043    c3.56961,3.56955,3.18222,7.48346,3.18222,12.30067C32.76104,30.19875,33.14843,34.1126,29.57881,37.68203L29.57881,37.68203z"/>
		<path class="st3" d="M55.47294,40.9505c-6.23569,0-10.96562-4.25725-10.96562-10.58015V10.07122h4.64374v20.08431    c0,4.08552,2.49537,6.6232,6.32188,6.6232c3.82669,0,6.3663-2.53769,6.3663-6.6232V10.07122h4.64356v20.29914    C66.4828,36.69326,61.70863,40.9505,55.47294,40.9505L55.47294,40.9505z"/>
		<path class="st3" d="M82.57362,40.9505c-4.60352,0-7.91398-1.07521-10.83917-4.04236l3.09782-3.05359    c2.23654,2.23655,4.68776,2.92418,7.82584,2.92418c4.00109,0,6.32191-1.72058,6.32191-4.68779    c0-1.33325-0.38754-2.45137-1.20462-3.18222c-0.7729-0.73169-1.54597-1.03175-3.35275-1.29081l-3.61355-0.51596    c-2.49369-0.3434-4.47306-1.20366-5.80619-2.45131c-1.50564-1.41944-2.2345-3.35467-2.2345-5.8483    c0-5.33317,3.86865-8.98904,10.23477-8.98904c4.04335,0,6.88031,1.03199,9.50419,3.4842l-2.96719,2.92418    c-1.8932-1.80701-4.08557-2.36602-6.6674-2.36602c-3.61163,0-5.58932,2.0647-5.58932,4.77405    c0,1.1183,0.34337,2.10803,1.16065,2.83888c0.77283,0.68763,2.02163,1.20342,3.43894,1.41932l3.48513,0.5159    c2.83696,0.42977,4.42888,1.11824,5.7199,2.27976c1.67817,1.46152,2.49539,3.65485,2.49539,6.27872    C93.58348,37.59578,88.98003,40.9505,82.57362,40.9505L82.57362,40.9505z"/>
		<polygon class="st3" points="109.41154,28.09161 109.41154,40.69258 104.76582,40.69258 104.76582,28.09161 95.60517,10.07122     100.68024,10.07122 107.08858,23.53233 113.4969,10.07122 118.57218,10.07122 109.41154,28.09161   "/>
		<path class="st3" d="M131.35051,40.9505c-4.60349,0-7.91398-1.07521-10.83917-4.04236l3.09782-3.05359    c2.23634,2.23655,4.68773,2.92418,7.82565,2.92418c4.00128,0,6.32207-1.72058,6.32207-4.68779    c0-1.33325-0.38751-2.45137-1.20459-3.18222c-0.77286-0.73169-1.54594-1.03175-3.35275-1.29081l-3.61375-0.51596    c-2.49348-0.3434-4.47291-1.20366-5.80595-2.45131c-1.50567-1.41944-2.23457-3.35467-2.23457-5.8483    c0-5.33317,3.86871-8.98904,10.2348-8.98904c4.04332,0,6.88031,1.03199,9.50417,3.4842l-2.96716,2.92418    c-1.8932-1.80701-4.08557-2.36602-6.6674-2.36602c-3.61163,0-5.58926,2.0647-5.58926,4.77405    c0,1.1183,0.34328,2.10803,1.16038,2.83888c0.77308,0.68763,2.02166,1.20342,3.43916,1.41932l3.48512,0.5159    c2.83701,0.42977,4.42886,1.11824,5.71973,2.27976c1.67833,1.46152,2.49541,3.65485,2.49541,6.27872    C142.3602,37.59578,137.75688,40.9505,131.35051,40.9505L131.35051,40.9505z"/>
	</g>
</g>
</svg>