<svg class="icon" viewBox="0 0 1024 1024" xmlns="http://www.w3.org/2000/svg" width="128" height="128"><defs><style>@font-face{font-family:&quot;feedback-iconfont&quot;;src:url(//at.alicdn.com/t/font_1031158_u69w8yhxdu.woff2?t=1630033759944) format(&quot;woff2&quot;),url(//at.alicdn.com/t/font_1031158_u69w8yhxdu.woff?t=1630033759944) format(&quot;woff&quot;),url(//at.alicdn.com/t/font_1031158_u69w8yhxdu.ttf?t=1630033759944) format(&quot;truetype&quot;)}</style></defs><path d="M741.3 512.3c-.2-10.7-4.6-20.8-12.1-28.3L355.6 110.4c-16.2-16.2-42.5-16.2-58.7 0-16.2 16.2-16.2 42.5 0 58.7l344.2 344.2-197.3 197.3c-16.2 16.2-16.2 42.5 0 58.7 16.2 16.2 42.5 16.2 58.7 0l226.7-226.7c2.5-2.5 4.6-5.2 6.4-8.3.3-.6.7-1.2 1-1.8.8-1.5 1.5-3 2.1-4.6.5-1.3.9-2.5 1.2-3.8.9-3.2 1.3-6.5 1.4-9.9v-1.9zM385.2 828c-16.2-16.2-42.5-16.2-58.7 0l-29.3 29.3c-16.2 16.2-16.2 42.5 0 58.7 16.2 16.2 42.5 16.2 58.7 0l29.3-29.3c16.2-16.2 16.2-42.5 0-58.7z" fill="#e6e6e6"/></svg>