<svg class="icon" viewBox="0 0 1024 1024" xmlns="http://www.w3.org/2000/svg" width="128" height="128"><defs><style>@font-face{font-family:&quot;feedback-iconfont&quot;;src:url(//at.alicdn.com/t/font_1031158_u69w8yhxdu.woff2?t=1630033759944) format(&quot;woff2&quot;),url(//at.alicdn.com/t/font_1031158_u69w8yhxdu.woff?t=1630033759944) format(&quot;woff&quot;),url(//at.alicdn.com/t/font_1031158_u69w8yhxdu.ttf?t=1630033759944) format(&quot;truetype&quot;)}</style></defs><path d="M608 768c-17.696 0-32-14.304-32-32V384c0-17.696 14.304-32 32-32s32 14.304 32 32v352c0 17.696-14.304 32-32 32zm-192 0c-17.696 0-32-14.304-32-32V384c0-17.696 14.304-32 32-32s32 14.304 32 32v352c0 17.696-14.304 32-32 32zm512-544H768v-64c0-52.928-42.72-96-95.264-96H352c-52.928 0-96 43.072-96 96v64H96c-17.696 0-32 14.304-32 32s14.304 32 32 32h832c17.696 0 32-14.304 32-32s-14.304-32-32-32zm-608-64c0-17.632 14.368-32 32-32h320.736C690.272 128 704 142.048 704 160v64H320v-64z" fill="#fff"/><path d="M736.128 960H288.064c-52.928 0-96-43.072-96-96V383.52c0-17.664 14.336-32 32-32s32 14.336 32 32V864c0 17.664 14.368 32 32 32h448.064c17.664 0 32-14.336 32-32V384.832c0-17.664 14.304-32 32-32s32 14.336 32 32V864c0 52.928-43.072 96-96 96z" fill="#fff"/></svg>