<svg class="icon" viewBox="0 0 1024 1024" xmlns="http://www.w3.org/2000/svg" width="128" height="128"><defs><style>@font-face{font-family:&quot;feedback-iconfont&quot;;src:url(//at.alicdn.com/t/font_1031158_u69w8yhxdu.woff2?t=1630033759944) format(&quot;woff2&quot;),url(//at.alicdn.com/t/font_1031158_u69w8yhxdu.woff?t=1630033759944) format(&quot;woff&quot;),url(//at.alicdn.com/t/font_1031158_u69w8yhxdu.ttf?t=1630033759944) format(&quot;truetype&quot;)}</style></defs><path d="m187.077 657.723 175.261 175.262c7.877 7.877 19.693 7.877 27.57 0l437.169-439.139c7.877-7.877 7.877-19.692 0-27.57l-173.292-173.29c-7.877-7.877-19.693-7.877-27.57 0L187.077 632.123c-7.877 7.877-7.877 19.692 0 25.6zm523.815-545.477c-7.877 7.877-7.877 19.692 0 27.57l173.293 173.292c7.877 7.877 19.692 7.877 27.569 0l49.23-49.231c31.508-29.539 31.508-76.8 0-108.308l-92.553-92.554c-31.508-31.507-80.739-31.507-112.246 0l-45.293 49.231zM41.354 949.17c-3.939 19.693 13.784 37.416 33.477 33.477l214.646-51.2c7.877-1.97 13.785-5.908 17.723-9.846l3.938-3.938c3.939-3.939 5.908-17.724-1.969-25.6L131.94 714.83c-7.877-7.877-21.662-5.908-25.6-1.97l-3.94 3.94c-5.908 5.908-7.877 11.815-9.846 17.723l-51.2 214.646z" fill="#fff"/></svg>