<svg class="icon" viewBox="0 0 1280 1024" xmlns="http://www.w3.org/2000/svg" width="160" height="128"><defs><style>@font-face{font-family:&quot;feedback-iconfont&quot;;src:url(//at.alicdn.com/t/font_1031158_u69w8yhxdu.woff2?t=1630033759944) format(&quot;woff2&quot;),url(//at.alicdn.com/t/font_1031158_u69w8yhxdu.woff?t=1630033759944) format(&quot;woff&quot;),url(//at.alicdn.com/t/font_1031158_u69w8yhxdu.ttf?t=1630033759944) format(&quot;truetype&quot;)}</style></defs><path d="M1187.7 905.84H92.3c-50.9 0-92.3-41.4-92.3-92.3V210.46c0-50.9 41.4-92.3 92.3-92.3h1095.38c50.9 0 92.3 41.4 92.3 92.3v603.08c.02 50.9-41.38 92.3-92.28 92.3zm-880-184.6v-240l123.08 153.84 123.08-153.84v240h123.08V302.76H553.86L430.78 456.6 307.7 302.76H184.62v418.46H307.7zM1132.3 512h-123.08V302.76H886.14V512H763.06l184.62 215.38L1132.3 512z" fill="#fff"/></svg>