<svg class="icon" viewBox="0 0 1024 1024" xmlns="http://www.w3.org/2000/svg" width="128" height="128"><defs><style>@font-face{font-family:&quot;feedback-iconfont&quot;;src:url(//at.alicdn.com/t/font_1031158_u69w8yhxdu.woff2?t=1630033759944) format(&quot;woff2&quot;),url(//at.alicdn.com/t/font_1031158_u69w8yhxdu.woff?t=1630033759944) format(&quot;woff&quot;),url(//at.alicdn.com/t/font_1031158_u69w8yhxdu.ttf?t=1630033759944) format(&quot;truetype&quot;)}</style></defs><path d="M125.615 1024a45.43 45.43 0 0 1-45.43-45.43V136.29A136.291 136.291 0 0 1 148.33 18.626a136.291 136.291 0 0 1 136.291 0l590.595 342.09a136.291 136.291 0 0 1 0 235.784L330.05 914.513a45.43 45.43 0 0 1-45.43-78.595l545.164-318.012a45.43 45.43 0 0 0 0-78.595L239.191 97.221a45.43 45.43 0 0 0-68.146 39.07V978.57a45.43 45.43 0 0 1-45.43 45.43z" fill="#fff"/></svg>