<svg class="icon" viewBox="0 0 1025 1024" xmlns="http://www.w3.org/2000/svg" width="128.125" height="128"><defs><style>@font-face{font-family:&quot;feedback-iconfont&quot;;src:url(//at.alicdn.com/t/font_1031158_u69w8yhxdu.woff2?t=1630033759944) format(&quot;woff2&quot;),url(//at.alicdn.com/t/font_1031158_u69w8yhxdu.woff?t=1630033759944) format(&quot;woff&quot;),url(//at.alicdn.com/t/font_1031158_u69w8yhxdu.ttf?t=1630033759944) format(&quot;truetype&quot;)}</style></defs><path d="M707.584 389.312c-12.928-6.08-18.88-14.272-17.728-24.576s5.504-18.432 13.12-24.576c2.304-1.536 9.728-7.424 22.272-17.664 12.544-10.304 28.032-22.656 46.272-37.12-32-36.544-70.144-65.28-114.304-86.208-44.096-20.864-92.096-31.36-143.936-31.36-48 0-92.992 8.96-134.912 26.816-41.92 17.92-78.528 42.432-109.76 73.664C237.376 299.456 212.8 336 194.88 377.856S168 464.64 168 512.576c0 47.168 8.96 91.712 26.88 133.568s42.496 78.4 73.728 109.568c31.232 31.232 67.84 55.744 109.76 73.6s86.848 26.816 134.912 26.816c39.616 0 77.184-6.272 112.576-18.816 35.456-12.544 67.84-30.272 97.152-53.056 29.312-22.848 54.464-49.664 75.456-80.512 20.928-30.848 36.416-64.512 46.272-101.056 5.312-17.472 15.232-31.936 29.696-43.392 14.464-11.392 31.616-17.152 51.456-17.152 23.616 0 43.648 8.384 60.032 25.152 16.384 16.704 24.576 36.544 24.576 59.328 0 10.624-1.92 20.928-5.696 30.848-16 53.248-39.616 102.336-70.848 147.264s-68.416 83.52-111.488 115.84c-43.072 32.32-90.88 57.664-143.488 75.904C626.432 1014.848 571.2 1024 513.28 1024c-70.848 0-137.536-13.312-200.064-39.936-62.464-26.624-116.8-63.168-162.88-109.568S67.648 773.824 40.576 711.808C13.504 649.792 0 583.36 0 512.576s13.504-137.344 40.576-199.808c27.072-62.4 63.616-116.608 109.76-162.688 46.08-46.016 100.416-82.56 162.88-109.568S442.368 0 513.28 0c78.528 0 151.296 16.192 218.368 48.512s124.224 76.288 171.456 131.84c17.536-12.928 32.192-24.192 44.032-33.664 11.84-9.536 19.264-15.424 22.272-17.728 4.608-3.776 9.536-6.656 14.848-8.576s10.304-1.92 14.848 0c4.544 1.92 8.576 5.888 12.032 11.968s5.888 15.232 7.424 27.392c.768 6.848 1.536 18.432 2.304 34.816s1.536 35.392 2.304 57.088c.768 21.696 1.152 44.16 1.152 67.328 0 23.232-.384 45.12-1.152 65.664-.768 25.856-6.848 44.544-18.304 55.936-6.144 6.144-15.296 9.6-27.456 10.368-12.224.768-25.152-.384-38.848-3.456-20.608-4.544-43.264-9.472-68.032-14.848-24.768-5.312-48.384-10.816-70.848-16.576-22.464-5.696-42.304-11.072-59.456-16-17.152-4.864-28.032-8.512-32.64-10.752z" fill="#fff"/></svg>