<?xml version="1.0" encoding="UTF-8" standalone="no"?>
<!-- Created with Inkscape (http://www.inkscape.org/) -->

<svg
   version="1.1"
   id="svg1"
   width="396.42969"
   height="183.8822"
   viewBox="0 0 396.42969 183.88219"
   sodipodi:docname="NUMPDE.pdf"
   xmlns:inkscape="http://www.inkscape.org/namespaces/inkscape"
   xmlns:sodipodi="http://sodipodi.sourceforge.net/DTD/sodipodi-0.dtd"
   xmlns="http://www.w3.org/2000/svg"
   xmlns:svg="http://www.w3.org/2000/svg">
  <defs
     id="defs1">
    <clipPath
       clipPathUnits="userSpaceOnUse"
       id="clipPath33">
      <path
         d="m 425.16,2405.83 h 2908 v 1355.42 h -2908 z m 1613.99,1044.37 -4.65,-6.98 -62.1,33.76 16.3,3.11 -2.72,15.91 z"
         transform="translate(0,2.5000001e-4)"
         clip-rule="evenodd"
         id="path33" />
    </clipPath>
    <clipPath
       clipPathUnits="userSpaceOnUse"
       id="clipPath35">
      <path
         d="m 425.16,2405.83 h 2908 v 1355.42 h -2908 z"
         transform="translate(0,2.5000001e-4)"
         id="path35" />
    </clipPath>
    <clipPath
       clipPathUnits="userSpaceOnUse"
       id="clipPath37">
      <path
         d="m 425.16,2405.83 h 2908 v 1355.42 h -2908 z"
         transform="translate(0,2.5000001e-4)"
         id="path37" />
    </clipPath>
    <clipPath
       clipPathUnits="userSpaceOnUse"
       id="clipPath39">
      <path
         d="m 425.16,2405.83 h 2908 v 1355.42 h -2908 z"
         transform="translate(0,2.5000001e-4)"
         id="path39" />
    </clipPath>
    <clipPath
       clipPathUnits="userSpaceOnUse"
       id="clipPath41">
      <path
         d="m 425.16,2405.83 h 2908 v 1355.42 h -2908 z"
         transform="translate(0,2.5000001e-4)"
         id="path41" />
    </clipPath>
    <clipPath
       clipPathUnits="userSpaceOnUse"
       id="clipPath43">
      <path
         d="m 425.16,2405.83 h 2908 v 1355.42 h -2908 z"
         transform="translate(0,2.5000001e-4)"
         id="path43" />
    </clipPath>
    <clipPath
       clipPathUnits="userSpaceOnUse"
       id="clipPath45">
      <path
         d="m 425.16,2405.83 h 2908 v 1355.42 h -2908 z"
         transform="translate(0,2.5000001e-4)"
         id="path45" />
    </clipPath>
    <clipPath
       clipPathUnits="userSpaceOnUse"
       id="clipPath47">
      <path
         d="m 425.16,2405.83 h 2908 v 1355.42 h -2908 z"
         transform="translate(0,2.5000001e-4)"
         id="path47" />
    </clipPath>
    <clipPath
       clipPathUnits="userSpaceOnUse"
       id="clipPath49">
      <path
         d="m 425.16,2405.83 h 2908 v 1355.42 h -2908 z"
         transform="translate(0,2.5000001e-4)"
         id="path49" />
    </clipPath>
    <clipPath
       clipPathUnits="userSpaceOnUse"
       id="clipPath51">
      <path
         d="m 425.16,2405.83 h 2908 v 1355.42 h -2908 z"
         transform="translate(0,2.5000001e-4)"
         id="path51" />
    </clipPath>
    <clipPath
       clipPathUnits="userSpaceOnUse"
       id="clipPath53">
      <path
         d="m 425.16,2405.83 h 2908 v 1355.42 h -2908 z"
         transform="translate(0,2.5000001e-4)"
         id="path53" />
    </clipPath>
    <clipPath
       clipPathUnits="userSpaceOnUse"
       id="clipPath55">
      <path
         d="m 425.16,2405.83 h 2908 v 1355.42 h -2908 z"
         transform="translate(0,2.5000001e-4)"
         id="path55" />
    </clipPath>
    <clipPath
       clipPathUnits="userSpaceOnUse"
       id="clipPath57">
      <path
         d="m 425.16,2405.83 h 2908 v 1355.42 h -2908 z"
         transform="translate(0,2.5000001e-4)"
         id="path57" />
    </clipPath>
    <clipPath
       clipPathUnits="userSpaceOnUse"
       id="clipPath59">
      <path
         d="m 425.16,2405.83 h 2908 v 1355.42 h -2908 z"
         transform="translate(0,2.5000001e-4)"
         id="path59" />
    </clipPath>
    <clipPath
       clipPathUnits="userSpaceOnUse"
       id="clipPath61">
      <path
         d="m 425.16,2405.83 h 2908 v 1355.42 h -2908 z"
         transform="translate(0,2.5000001e-4)"
         id="path61" />
    </clipPath>
    <clipPath
       clipPathUnits="userSpaceOnUse"
       id="clipPath63">
      <path
         d="m 425.16,2405.83 h 2908 v 1355.42 h -2908 z"
         transform="translate(0,2.5000001e-4)"
         id="path63" />
    </clipPath>
    <clipPath
       clipPathUnits="userSpaceOnUse"
       id="clipPath65">
      <path
         d="m 425.16,2405.83 h 2908 v 1355.42 h -2908 z"
         transform="translate(0,2.5000001e-4)"
         id="path65" />
    </clipPath>
    <clipPath
       clipPathUnits="userSpaceOnUse"
       id="clipPath67">
      <path
         d="m 425.16,2405.83 h 2908 v 1355.42 h -2908 z"
         transform="translate(0,2.5000001e-4)"
         id="path67" />
    </clipPath>
    <clipPath
       clipPathUnits="userSpaceOnUse"
       id="clipPath69">
      <path
         d="m 425.16,2405.83 h 2908 v 1355.42 h -2908 z"
         transform="translate(0,2.5000001e-4)"
         id="path69" />
    </clipPath>
    <clipPath
       clipPathUnits="userSpaceOnUse"
       id="clipPath71">
      <path
         d="m 425.16,2405.83 h 2908 v 1355.42 h -2908 z"
         transform="translate(0,2.5000001e-4)"
         id="path71" />
    </clipPath>
    <clipPath
       clipPathUnits="userSpaceOnUse"
       id="clipPath73">
      <path
         d="m 425.16,2405.83 h 2908 v 1355.42 h -2908 z"
         transform="translate(0,2.5000001e-4)"
         id="path73" />
    </clipPath>
    <clipPath
       clipPathUnits="userSpaceOnUse"
       id="clipPath75">
      <path
         d="m 425.16,2405.83 h 2908 v 1355.42 h -2908 z"
         transform="translate(0,2.5000001e-4)"
         id="path75" />
    </clipPath>
    <clipPath
       clipPathUnits="userSpaceOnUse"
       id="clipPath77">
      <path
         d="m 425.16,2405.83 h 2908 v 1355.42 h -2908 z"
         transform="translate(0,2.5000001e-4)"
         id="path77" />
    </clipPath>
    <clipPath
       clipPathUnits="userSpaceOnUse"
       id="clipPath79">
      <path
         d="m 425.16,2405.83 h 2908 v 1355.42 h -2908 z"
         transform="translate(0,2.5000001e-4)"
         id="path79" />
    </clipPath>
    <clipPath
       clipPathUnits="userSpaceOnUse"
       id="clipPath81">
      <path
         d="m 425.16,2405.83 h 2908 v 1355.42 h -2908 z"
         transform="translate(0,2.5000001e-4)"
         id="path81" />
    </clipPath>
    <clipPath
       clipPathUnits="userSpaceOnUse"
       id="clipPath83">
      <path
         d="m 425.16,2405.83 h 2908 v 1355.42 h -2908 z"
         transform="translate(0,2.5000001e-4)"
         id="path83" />
    </clipPath>
    <clipPath
       clipPathUnits="userSpaceOnUse"
       id="clipPath85">
      <path
         d="m 425.16,2405.83 h 2908 v 1355.42 h -2908 z"
         transform="translate(0,2.5000001e-4)"
         id="path85" />
    </clipPath>
    <clipPath
       clipPathUnits="userSpaceOnUse"
       id="clipPath87">
      <path
         d="m 425.16,2405.83 h 2908 v 1355.42 h -2908 z"
         transform="translate(0,2.5000001e-4)"
         id="path87" />
    </clipPath>
    <clipPath
       clipPathUnits="userSpaceOnUse"
       id="clipPath89">
      <path
         d="m 425.16,2405.83 h 2908 v 1355.42 h -2908 z"
         transform="translate(0,2.5000001e-4)"
         id="path89" />
    </clipPath>
    <clipPath
       clipPathUnits="userSpaceOnUse"
       id="clipPath91">
      <path
         d="m 425.16,2405.83 h 2908 v 1355.42 h -2908 z"
         transform="translate(0,2.5000001e-4)"
         id="path91" />
    </clipPath>
    <clipPath
       clipPathUnits="userSpaceOnUse"
       id="clipPath93">
      <path
         d="m 425.16,2405.83 h 2908 v 1355.42 h -2908 z"
         transform="translate(0,2.5000001e-4)"
         id="path93" />
    </clipPath>
  </defs>
  <sodipodi:namedview
     id="namedview1"
     pagecolor="#505050"
     bordercolor="#eeeeee"
     borderopacity="1"
     inkscape:showpageshadow="0"
     inkscape:pageopacity="0"
     inkscape:pagecheckerboard="0"
     inkscape:deskcolor="#505050" />
  <g
     id="g1"
     inkscape:groupmode="layer"
     inkscape:label="277"
     transform="translate(-58.117192,-621.52798)">
    <path
       id="path32"
       d="m 1062.75,3403.62 c 140.27,127.61 323.09,198.32 512.72,198.32 165.16,0 325.85,-53.67 457.86,-152.91"
       style="fill:none;stroke:#5a9cfe;stroke-width:5.82124;stroke-linecap:butt;stroke-linejoin:miter;stroke-miterlimit:10;stroke-dasharray:none;stroke-opacity:1"
       transform="matrix(0.13333333,0,0,-0.13333333,0,1122.6667)"
       clip-path="url(#clipPath33)" />
    <path
       id="path34"
       d="m 1972.4,3476.98 54.72,-23.67 -41.14,42.69 2.72,-15.91 -16.3,-3.11"
       style="fill:#0000ff;fill-opacity:1;fill-rule:evenodd;stroke:#5a9cfe"
       transform="matrix(0.13333333,0,0,-0.13333333,0,1122.6667)"
       clip-path="url(#clipPath35)" />
    <path
       id="path36"
       d="m 1972.4,3476.98 54.72,-23.67 -41.14,42.69 2.72,-15.91 z"
       style="fill:none;stroke:#5a9cfe;stroke-width:2.91062;stroke-linecap:butt;stroke-linejoin:miter;stroke-miterlimit:10;stroke-dasharray:none;stroke-opacity:1"
       transform="matrix(0.13333333,0,0,-0.13333333,0,1122.6667)"
       clip-path="url(#clipPath37)" />
    <path
       id="path38"
       d="M 579.184,2494.36 H 1638.65 L 583.066,3549.94 Z"
       style="fill:none;stroke:#5a9cfe;stroke-width:5.82124;stroke-linecap:butt;stroke-linejoin:miter;stroke-miterlimit:10;stroke-dasharray:none;stroke-opacity:1"
       transform="matrix(0.13333333,0,0,-0.13333333,0,1122.6667)"
       clip-path="url(#clipPath39)" />
    <path
       id="path40"
       d="M 1992.58,2560.33 3142.47,2447.79"
       style="fill:none;stroke:#5a9cfe;stroke-width:5.82124;stroke-linecap:butt;stroke-linejoin:miter;stroke-miterlimit:10;stroke-dasharray:none;stroke-opacity:1"
       transform="matrix(0.13333333,0,0,-0.13333333,0,1122.6667)"
       clip-path="url(#clipPath41)" />
    <path
       id="path42"
       d="m 1992.58,2560.33 v 3.49 l -0.38,3.5 v 10.47 l -0.4,8.15 -0.38,9.32 v 11.64 l -0.39,12.81 -0.39,15.13 -0.39,16.3 v 18.24 l -0.38,19.02 v 20.56 21.35 22.51 l 0.38,22.51 0.39,22.89 0.78,23.29 0.78,23.28 1.16,22.9 1.55,22.51 1.55,22.12 1.94,21.73 2.33,20.96 3.11,20.18 3.1,19.79 3.49,19.02 4.27,18.24 4.66,17.85 5.05,17.07 5.82,16.69 6.59,15.92 6.99,15.91 7.76,15.52 8.54,15.52 7.76,12.81 8.15,12.81 8.93,12.8 9.31,13.2 10.48,13.58 10.87,13.58 12.02,13.97 12.81,14.75 13.2,14.75 14.74,15.52 15.14,15.53 15.91,16.29 17.07,16.69 17.86,17.08 18.24,17.85 19.4,17.85 19.79,18.24 20.18,19.02 20.96,18.62 20.96,19.02 21.73,19.41 21.34,19.01 21.74,19.02 21.34,18.63 21.35,18.62 20.56,17.86 20.18,17.46 19.41,16.69 18.63,15.91 17.46,15.13 16.3,13.97 15.14,12.81 13.97,12.03 12.41,10.48 10.87,9.31 9.7,8.15 8.15,6.99 6.99,5.82 5.43,4.66 4.66,3.88 3.1,2.71 2.33,1.95 1.16,1.16 0.78,0.39 0.39,0.38"
       style="fill:none;stroke:#5a9cfe;stroke-width:5.82124;stroke-linecap:butt;stroke-linejoin:bevel;stroke-miterlimit:10;stroke-dasharray:none;stroke-opacity:1"
       transform="matrix(0.13333333,0,0,-0.13333333,0,1122.6667)"
       clip-path="url(#clipPath43)" />
    <path
       id="path44"
       d="m 2669.01,3733.11 0.39,-0.38 0.78,-0.39 1.55,-1.55 2.32,-1.95 3.11,-2.71 4.66,-3.88 5.82,-4.66 6.99,-6.21 8.53,-6.98 9.7,-8.54 11.64,-9.7 12.43,-10.87 13.96,-12.03 15.53,-13.19 16.3,-14.36 17.46,-15.14 18.63,-15.91 19.01,-16.69 19.8,-17.46 19.79,-17.85 20.57,-18.24 20.57,-18.63 20.56,-19.02 20.19,-18.63 19.79,-18.62 19.79,-18.63 19.01,-18.63 18.25,-17.85 17.85,-17.85 17.07,-17.47 15.92,-17.07 15.13,-17.08 14.36,-16.3 13.58,-15.91 12.42,-15.52 11.64,-15.53 10.48,-15.13 9.7,-14.75 8.93,-14.75 7.76,-14.35 7.38,-14.36 6.2,-14.75 5.83,-14.36 5.43,-15.52 4.27,-15.53 4.27,-16.3 3.1,-16.29 2.33,-17.47 1.94,-17.46 1.16,-18.63 0.78,-19.4 v -19.8 l -0.78,-20.95 -0.77,-21.74 -1.94,-22.5 -1.94,-22.9 -2.72,-24.06 -3.11,-24.84 -3.1,-25.23 -3.88,-25.61 -4.27,-26 -4.27,-26.39 -4.26,-26.39 -4.67,-26 -5.04,-26 -4.65,-25.23 -4.66,-24.83 -4.66,-23.68 -4.66,-22.89 -4.27,-21.35 -4.27,-20.18 -3.87,-18.24 -3.5,-16.69 -3.1,-15.13 -2.72,-12.81 -2.72,-11.25 -1.94,-9.71 -1.55,-7.37 -1.55,-6.21 -0.78,-4.27 -0.77,-3.1 -0.39,-1.94 -0.39,-1.17 v -0.38"
       style="fill:none;stroke:#5a9cfe;stroke-width:5.82124;stroke-linecap:butt;stroke-linejoin:bevel;stroke-miterlimit:10;stroke-dasharray:none;stroke-opacity:1"
       transform="matrix(0.13333333,0,0,-0.13333333,0,1122.6667)"
       clip-path="url(#clipPath45)" />
    <path
       id="path46"
       d="m 2015.09,2560.33 c 0,-12.43 -10.08,-22.51 -22.51,-22.51 -12.43,0 -22.51,10.08 -22.51,22.51 0,12.43 10.08,22.51 22.51,22.51 12.43,0 22.51,-10.08 22.51,-22.51"
       style="fill:#ff0000;fill-opacity:1;fill-rule:evenodd;stroke:none"
       transform="matrix(0.13333333,0,0,-0.13333333,0,1122.6667)"
       clip-path="url(#clipPath47)" />
    <path
       id="path48"
       d="m 2015.09,2560.33 c 0,-12.43 -10.08,-22.51 -22.51,-22.51 -12.43,0 -22.51,10.08 -22.51,22.51 0,12.43 10.08,22.51 22.51,22.51 12.43,0 22.51,-10.08 22.51,-22.51 z"
       style="fill:none;stroke:#000000;stroke-width:5.82124;stroke-linecap:butt;stroke-linejoin:bevel;stroke-miterlimit:10;stroke-dasharray:none;stroke-opacity:1"
       transform="matrix(0.13333333,0,0,-0.13333333,0,1122.6667)"
       clip-path="url(#clipPath49)" />
    <path
       id="path50"
       d="m 2691.52,3733.11 c 0,-12.43 -10.08,-22.5 -22.51,-22.5 -12.43,0 -22.51,10.07 -22.51,22.5 0,12.43 10.08,22.52 22.51,22.52 12.43,0 22.51,-10.09 22.51,-22.52"
       style="fill:#ff0000;fill-opacity:1;fill-rule:evenodd;stroke:none"
       transform="matrix(0.13333333,0,0,-0.13333333,0,1122.6667)"
       clip-path="url(#clipPath51)" />
    <path
       id="path52"
       d="m 2691.52,3733.11 c 0,-12.43 -10.08,-22.5 -22.51,-22.5 -12.43,0 -22.51,10.07 -22.51,22.5 0,12.43 10.08,22.52 22.51,22.52 12.43,0 22.51,-10.09 22.51,-22.52 z"
       style="fill:none;stroke:#000000;stroke-width:5.82124;stroke-linecap:butt;stroke-linejoin:bevel;stroke-miterlimit:10;stroke-dasharray:none;stroke-opacity:1"
       transform="matrix(0.13333333,0,0,-0.13333333,0,1122.6667)"
       clip-path="url(#clipPath53)" />
    <path
       id="path54"
       d="m 3164.98,2447.79 c 0,-12.43 -10.08,-22.51 -22.51,-22.51 -12.43,0 -22.51,10.08 -22.51,22.51 0,12.42 10.08,22.5 22.51,22.5 12.43,0 22.51,-10.08 22.51,-22.5"
       style="fill:#ff0000;fill-opacity:1;fill-rule:evenodd;stroke:none"
       transform="matrix(0.13333333,0,0,-0.13333333,0,1122.6667)"
       clip-path="url(#clipPath55)" />
    <path
       id="path56"
       d="m 3164.98,2447.79 c 0,-12.43 -10.08,-22.51 -22.51,-22.51 -12.43,0 -22.51,10.08 -22.51,22.51 0,12.42 10.08,22.5 22.51,22.5 12.43,0 22.51,-10.08 22.51,-22.5 z"
       style="fill:none;stroke:#000000;stroke-width:5.82124;stroke-linecap:butt;stroke-linejoin:bevel;stroke-miterlimit:10;stroke-dasharray:none;stroke-opacity:1"
       transform="matrix(0.13333333,0,0,-0.13333333,0,1122.6667)"
       clip-path="url(#clipPath57)" />
    <path
       id="path58"
       d="m 2082.62,3146.72 c 0,-12.43 -10.08,-22.51 -22.51,-22.51 -12.43,0 -22.51,10.08 -22.51,22.51 0,12.43 10.08,22.51 22.51,22.51 12.43,0 22.51,-10.08 22.51,-22.51"
       style="fill:#ff00ff;fill-opacity:1;fill-rule:evenodd;stroke:none"
       transform="matrix(0.13333333,0,0,-0.13333333,0,1122.6667)"
       clip-path="url(#clipPath59)" />
    <path
       id="path60"
       d="m 2082.62,3146.72 c 0,-12.43 -10.08,-22.51 -22.51,-22.51 -12.43,0 -22.51,10.08 -22.51,22.51 0,12.43 10.08,22.51 22.51,22.51 12.43,0 22.51,-10.08 22.51,-22.51 z"
       style="fill:none;stroke:#000000;stroke-width:5.82124;stroke-linecap:butt;stroke-linejoin:bevel;stroke-miterlimit:10;stroke-dasharray:none;stroke-opacity:1"
       transform="matrix(0.13333333,0,0,-0.13333333,0,1122.6667)"
       clip-path="url(#clipPath61)" />
    <path
       id="path62"
       d="m 3232.89,3169.23 c 0,-12.43 -10.07,-22.51 -22.5,-22.51 -12.43,0 -22.51,10.08 -22.51,22.51 0,12.43 10.08,22.51 22.51,22.51 12.43,0 22.5,-10.08 22.5,-22.51"
       style="fill:#ff00ff;fill-opacity:1;fill-rule:evenodd;stroke:none"
       transform="matrix(0.13333333,0,0,-0.13333333,0,1122.6667)"
       clip-path="url(#clipPath63)" />
    <path
       id="path64"
       d="m 3232.89,3169.23 c 0,-12.43 -10.07,-22.51 -22.5,-22.51 -12.43,0 -22.51,10.08 -22.51,22.51 0,12.43 10.08,22.51 22.51,22.51 12.43,0 22.5,-10.08 22.5,-22.51 z"
       style="fill:none;stroke:#000000;stroke-width:5.82124;stroke-linecap:butt;stroke-linejoin:bevel;stroke-miterlimit:10;stroke-dasharray:none;stroke-opacity:1"
       transform="matrix(0.13333333,0,0,-0.13333333,0,1122.6667)"
       clip-path="url(#clipPath65)" />
    <path
       id="path66"
       d="m 2582.08,2503.28 c 0,-12.43 -10.08,-22.51 -22.51,-22.51 -12.43,0 -22.51,10.08 -22.51,22.51 0,12.43 10.08,22.51 22.51,22.51 12.43,0 22.51,-10.08 22.51,-22.51"
       style="fill:#ff00ff;fill-opacity:1;fill-rule:evenodd;stroke:none"
       transform="matrix(0.13333333,0,0,-0.13333333,0,1122.6667)"
       clip-path="url(#clipPath67)" />
    <path
       id="path68"
       d="m 2582.08,2503.28 c 0,-12.43 -10.08,-22.51 -22.51,-22.51 -12.43,0 -22.51,10.08 -22.51,22.51 0,12.43 10.08,22.51 22.51,22.51 12.43,0 22.51,-10.08 22.51,-22.51 z"
       style="fill:none;stroke:#000000;stroke-width:5.82124;stroke-linecap:butt;stroke-linejoin:bevel;stroke-miterlimit:10;stroke-dasharray:none;stroke-opacity:1"
       transform="matrix(0.13333333,0,0,-0.13333333,0,1122.6667)"
       clip-path="url(#clipPath69)" />
    <path
       id="path70"
       d="m 599.367,2490.86 c 0,-12.43 -10.082,-22.5 -22.512,-22.5 -12.429,0 -22.507,10.07 -22.507,22.5 0,12.43 10.078,22.51 22.507,22.51 12.43,0 22.512,-10.08 22.512,-22.51"
       style="fill:#ff0000;fill-opacity:1;fill-rule:evenodd;stroke:none"
       transform="matrix(0.13333333,0,0,-0.13333333,0,1122.6667)"
       clip-path="url(#clipPath71)" />
    <path
       id="path72"
       d="m 599.367,2490.86 c 0,-12.43 -10.082,-22.5 -22.512,-22.5 -12.429,0 -22.507,10.07 -22.507,22.5 0,12.43 10.078,22.51 22.507,22.51 12.43,0 22.512,-10.08 22.512,-22.51 z"
       style="fill:none;stroke:#000000;stroke-width:5.82124;stroke-linecap:butt;stroke-linejoin:bevel;stroke-miterlimit:10;stroke-dasharray:none;stroke-opacity:1"
       transform="matrix(0.13333333,0,0,-0.13333333,0,1122.6667)"
       clip-path="url(#clipPath73)" />
    <path
       id="path74"
       d="m 1657.67,2490.86 c 0,-12.43 -10.08,-22.5 -22.51,-22.5 -12.43,0 -22.51,10.07 -22.51,22.5 0,12.43 10.08,22.51 22.51,22.51 12.43,0 22.51,-10.08 22.51,-22.51"
       style="fill:#ff0000;fill-opacity:1;fill-rule:evenodd;stroke:none"
       transform="matrix(0.13333333,0,0,-0.13333333,0,1122.6667)"
       clip-path="url(#clipPath75)" />
    <path
       id="path76"
       d="m 1657.67,2490.86 c 0,-12.43 -10.08,-22.5 -22.51,-22.5 -12.43,0 -22.51,10.07 -22.51,22.5 0,12.43 10.08,22.51 22.51,22.51 12.43,0 22.51,-10.08 22.51,-22.51 z"
       style="fill:none;stroke:#000000;stroke-width:5.82124;stroke-linecap:butt;stroke-linejoin:bevel;stroke-miterlimit:10;stroke-dasharray:none;stroke-opacity:1"
       transform="matrix(0.13333333,0,0,-0.13333333,0,1122.6667)"
       clip-path="url(#clipPath77)" />
    <path
       id="path78"
       d="m 599.367,3547.22 c 0,-12.43 -10.082,-22.51 -22.512,-22.51 -12.429,0 -22.507,10.08 -22.507,22.51 0,12.43 10.078,22.51 22.507,22.51 12.43,0 22.512,-10.08 22.512,-22.51"
       style="fill:#ff0000;fill-opacity:1;fill-rule:evenodd;stroke:none"
       transform="matrix(0.13333333,0,0,-0.13333333,0,1122.6667)"
       clip-path="url(#clipPath79)" />
    <path
       id="path80"
       d="m 599.367,3547.22 c 0,-12.43 -10.082,-22.51 -22.512,-22.51 -12.429,0 -22.507,10.08 -22.507,22.51 0,12.43 10.078,22.51 22.507,22.51 12.43,0 22.512,-10.08 22.512,-22.51 z"
       style="fill:none;stroke:#000000;stroke-width:5.82124;stroke-linecap:butt;stroke-linejoin:bevel;stroke-miterlimit:10;stroke-dasharray:none;stroke-opacity:1"
       transform="matrix(0.13333333,0,0,-0.13333333,0,1122.6667)"
       clip-path="url(#clipPath81)" />
    <path
       id="path82"
       d="m 600.918,3020.59 c 0,-12.43 -10.078,-22.5 -22.508,-22.5 -12.43,0 -22.508,10.07 -22.508,22.5 0,12.43 10.078,22.52 22.508,22.52 12.43,0 22.508,-10.09 22.508,-22.52"
       style="fill:#ff00ff;fill-opacity:1;fill-rule:evenodd;stroke:none"
       transform="matrix(0.13333333,0,0,-0.13333333,0,1122.6667)"
       clip-path="url(#clipPath83)" />
    <path
       id="path84"
       d="m 600.918,3020.59 c 0,-12.43 -10.078,-22.5 -22.508,-22.5 -12.43,0 -22.508,10.07 -22.508,22.5 0,12.43 10.078,22.52 22.508,22.52 12.43,0 22.508,-10.09 22.508,-22.52 z"
       style="fill:none;stroke:#000000;stroke-width:5.82124;stroke-linecap:butt;stroke-linejoin:bevel;stroke-miterlimit:10;stroke-dasharray:none;stroke-opacity:1"
       transform="matrix(0.13333333,0,0,-0.13333333,0,1122.6667)"
       clip-path="url(#clipPath85)" />
    <path
       id="path86"
       d="m 1129.1,3020.59 c 0,-12.43 -10.08,-22.5 -22.51,-22.5 -12.43,0 -22.51,10.07 -22.51,22.5 0,12.43 10.08,22.52 22.51,22.52 12.43,0 22.51,-10.09 22.51,-22.52"
       style="fill:#ff00ff;fill-opacity:1;fill-rule:evenodd;stroke:none"
       transform="matrix(0.13333333,0,0,-0.13333333,0,1122.6667)"
       clip-path="url(#clipPath87)" />
    <path
       id="path88"
       d="m 1129.1,3020.59 c 0,-12.43 -10.08,-22.5 -22.51,-22.5 -12.43,0 -22.51,10.07 -22.51,22.5 0,12.43 10.08,22.52 22.51,22.52 12.43,0 22.51,-10.09 22.51,-22.52 z"
       style="fill:none;stroke:#000000;stroke-width:5.82124;stroke-linecap:butt;stroke-linejoin:bevel;stroke-miterlimit:10;stroke-dasharray:none;stroke-opacity:1"
       transform="matrix(0.13333333,0,0,-0.13333333,0,1122.6667)"
       clip-path="url(#clipPath89)" />
    <path
       id="path90"
       d="m 1129.1,2493.19 c 0,-12.43 -10.08,-22.51 -22.51,-22.51 -12.43,0 -22.51,10.08 -22.51,22.51 0,12.43 10.08,22.51 22.51,22.51 12.43,0 22.51,-10.08 22.51,-22.51"
       style="fill:#ff00ff;fill-opacity:1;fill-rule:evenodd;stroke:none"
       transform="matrix(0.13333333,0,0,-0.13333333,0,1122.6667)"
       clip-path="url(#clipPath91)" />
    <path
       id="path92"
       d="m 1129.1,2493.19 c 0,-12.43 -10.08,-22.51 -22.51,-22.51 -12.43,0 -22.51,10.08 -22.51,22.51 0,12.43 10.08,22.51 22.51,22.51 12.43,0 22.51,-10.08 22.51,-22.51 z"
       style="fill:none;stroke:#000000;stroke-width:5.82124;stroke-linecap:butt;stroke-linejoin:bevel;stroke-miterlimit:10;stroke-dasharray:none;stroke-opacity:1"
       transform="matrix(0.13333333,0,0,-0.13333333,0,1122.6667)"
       clip-path="url(#clipPath93)" />
    <g
       id="g93"
       aria-label="ba&#10;1&#10;ba&#10;2&#10;ba&#10;3"
       transform="matrix(1.3333333,0,0,1.3333333,82.530667,786.10133)"
       style="fill:#5a9cfe">
      <path
         id="path94"
         d="m 3.3168438,-8.1912344 3.2460937,1.4765625 0.140625,-0.2695312 -3.375,-1.9101563 -3.38671875,1.9101563 0.12890625,0.2695312 z m 0,0"
         style="fill:#5a9cfe;fill-opacity:1;fill-rule:nonzero;stroke:none" />
      <path
         id="path95"
         d="m 5.3881328,-5.2967031 c -0.5625,-0.234375 -0.84375,-0.3046875 -1.21875,-0.3046875 -0.4570312,0 -0.7382812,0.070312 -1.0664062,0.2695312 -0.6328125,0.421875 -1.453125,1.1132813 -1.6523438,1.4179688 -0.4101562,0.6445312 -0.84374999,2.2617187 -0.84374999,3.22265623 0,0.52734375 0.26953125,0.890625 0.64453129,0.890625 0.890625,0 1.9804687,-1.04296875 3.09375,-3.00000003 l -0.4453125,1.80468753 c -0.058594,0.234375 -0.082031,0.45703125 -0.082031,0.65625 0,0.339843745 0.1523438,0.5390625 0.3867188,0.5390625 0.5039062,0 1.1835937,-0.375 2.0742187,-1.18359375 l -0.140625,-0.35156248 -0.234375,0.1875 c -0.2226562,0.16406248 -0.5625,0.36328123 -0.65625,0.36328123 -0.1054687,0 -0.140625,-0.0585938 -0.1757812,-0.28125003 0,-0.011719 0.046875,-0.2460937 0.1289062,-0.5976562 l 0.5273438,-2.5546875 c 0.09375,-0.375 0.1757812,-0.6679688 0.3867187,-1.2539063 l -0.1875,-0.140625 z m -0.796875,0.5742187 c -0.1757812,1.078125 -0.5625,1.9921875 -1.2421875,2.8945313 -0.4804687,0.6445312 -0.9375,1.05468748 -1.1953125,1.05468748 -0.1171875,0 -0.2109375,-0.2109375 -0.2109375,-0.44531248 0,-0.4453125 0.2695313,-1.6640625 0.5625,-2.578125 0.2695313,-0.8320313 0.5976563,-1.1835938 1.1132813,-1.1835938 0.3164062,0 0.5507812,0.058594 0.9726562,0.2578125 z m 0,0"
         style="fill:#5a9cfe;fill-opacity:1;fill-rule:nonzero;stroke:none" />
      <path
         id="path96"
         d="m 7.4740703,-10.145336 h 0.09375 l 1.1601563,-0.515625 c 0,-0.01172 0.011719,-0.01172 0.023437,-0.01172 0.046875,0 0.070312,0.08203 0.070312,0.304688 v 4.3476561 c 0,0.4570312 -0.09375,0.5625 -0.5859375,0.5859375 l -0.5039063,0.023437 v 0.2695312 c 1.3828125,-0.023437 1.3828125,-0.023437 1.4882813,-0.023437 0.1171875,0 0.3046875,0 0.609375,0.011719 0.1171875,0.011719 0.4218749,0.011719 0.7968749,0.011719 v -0.2695312 l -0.46875,-0.023437 C 9.6654766,-5.4578359 9.5717266,-5.5633047 9.5717266,-6.0203359 v -5.3203121 l -0.1171875,-0.04687 c -0.5859375,0.304687 -1.21875,0.574218 -2.0390625,0.867187 z m 0,0"
         style="fill:#5a9cfe;fill-opacity:1;fill-rule:nonzero;stroke:none" />
      <path
         id="path97"
         d="m 89.470164,-9.3953359 3.246094,1.4765625 0.140625,-0.2695313 -3.375,-1.9101563 -3.386719,1.9101563 0.128906,0.2695313 z m 0,0"
         style="fill:#5a9cfe;fill-opacity:1;fill-rule:nonzero;stroke:none" />
      <path
         id="path98"
         d="m 91.544383,-6.5008047 c -0.5625,-0.234375 -0.84375,-0.3046875 -1.21875,-0.3046875 -0.457031,0 -0.738281,0.070312 -1.066406,0.2695313 -0.632813,0.421875 -1.453125,1.1132812 -1.652344,1.4179687 -0.410156,0.6445313 -0.84375,2.2617188 -0.84375,3.2226563 0,0.5273437 0.269531,0.890625 0.644531,0.890625 0.890625,0 1.980469,-1.0429688 3.09375,-3 l -0.445312,1.8046875 c -0.05859,0.234375 -0.08203,0.4570312 -0.08203,0.65625 0,0.3398437 0.152344,0.5390625 0.386719,0.5390625 0.503906,0 1.183594,-0.375 2.074219,-1.1835938 l -0.140625,-0.3515625 -0.234375,0.1875 c -0.222656,0.1640625 -0.5625,0.3632813 -0.65625,0.3632813 -0.105469,0 -0.140625,-0.058594 -0.175781,-0.28125 0,-0.011719 0.04687,-0.2460938 0.128906,-0.5976563 l 0.527344,-2.5546875 c 0.09375,-0.375 0.175781,-0.6679687 0.386718,-1.2539062 l -0.1875,-0.140625 z m -0.796875,0.5742188 c -0.175781,1.078125 -0.5625,1.9921875 -1.242188,2.8945312 -0.480468,0.6445313 -0.9375,1.0546875 -1.195312,1.0546875 -0.117188,0 -0.210938,-0.2109375 -0.210938,-0.4453125 0,-0.4453125 0.269532,-1.6640625 0.5625,-2.578125 0.269532,-0.8320312 0.597657,-1.1835937 1.113282,-1.1835937 0.316406,0 0.550781,0.058594 0.972656,0.2578125 z m 0,0"
         style="fill:#5a9cfe;fill-opacity:1;fill-rule:nonzero;stroke:none" />
      <path
         id="path99"
         d="m 93.170359,-6.5799062 v 0.234375 c 1.675782,-0.023437 1.675782,-0.023437 2.003907,-0.023437 0.316406,0 0.316406,0 2.050781,0.023437 -0.02344,-0.1875 -0.02344,-0.2695313 -0.02344,-0.3984375 0,-0.1171875 0,-0.2109375 0.02344,-0.4101563 -1.03125,0.046875 -1.441406,0.058594 -3.105469,0.09375 l 1.640625,-1.734375 c 0.867188,-0.9140625 1.136719,-1.40625 1.136719,-2.085937 0,-1.03125 -0.703125,-1.664063 -1.839844,-1.664063 -0.644531,0 -1.089844,0.175781 -1.523437,0.621094 l -0.152344,1.230469 h 0.257812 l 0.117188,-0.421875 c 0.140625,-0.515625 0.46875,-0.738282 1.066406,-0.738282 0.773438,0 1.265625,0.480469 1.265625,1.242188 0,0.6796873 -0.375,1.3359373 -1.394531,2.4140623 z m 0,0"
         style="fill:#5a9cfe;fill-opacity:1;fill-rule:nonzero;stroke:none" />
      <path
         id="path100"
         d="m 2.8129375,-98.536937 3.2460938,1.476562 0.140625,-0.269531 -3.375,-1.910156 -3.3867188,1.910156 0.12890625,0.269531 z m 0,0"
         style="fill:#5a9cfe;fill-opacity:1;fill-rule:nonzero;stroke:none" />
      <path
         id="path101"
         d="m 4.8842266,-95.642406 c -0.5625,-0.234375 -0.84375,-0.304688 -1.21875,-0.304688 -0.4570313,0 -0.7382813,0.07031 -1.0664063,0.269532 -0.6328125,0.421875 -1.453125,1.113281 -1.65234374,1.417968 -0.41015625,0.644532 -0.84375,2.261719 -0.84375,3.222657 0,0.527343 0.26953125,0.890625 0.64453125,0.890625 0.89062499,0 1.98046879,-1.042969 3.09374999,-3 l -0.4453125,1.804687 c -0.058594,0.234375 -0.082031,0.457031 -0.082031,0.65625 0,0.339844 0.1523437,0.539063 0.3867187,0.539063 0.5039063,0 1.1835938,-0.375 2.0742188,-1.183594 l -0.140625,-0.351563 -0.234375,0.1875 c -0.2226563,0.164063 -0.5625,0.363282 -0.65625,0.363282 -0.1054688,0 -0.140625,-0.05859 -0.1757813,-0.28125 0,-0.01172 0.046875,-0.246094 0.1289063,-0.597657 l 0.5273437,-2.554687 c 0.09375,-0.375 0.1757813,-0.667969 0.3867188,-1.253906 l -0.1875,-0.140625 z m -0.796875,0.574219 c -0.1757813,1.078125 -0.5625,1.992187 -1.2421875,2.894531 -0.4804688,0.644531 -0.9375,1.054687 -1.1953125,1.054687 -0.1171875,0 -0.2109375,-0.210937 -0.2109375,-0.445312 0,-0.445313 0.2695312,-1.664063 0.5625,-2.578125 0.2695312,-0.832031 0.5976562,-1.183594 1.1132812,-1.183594 0.3164063,0 0.5507813,0.05859 0.9726563,0.257813 z m 0,0"
         style="fill:#5a9cfe;fill-opacity:1;fill-rule:nonzero;stroke:none" />
      <path
         id="path102"
         d="m 6.7592266,-99.975414 h 0.28125 l 0.1523437,-0.503906 c 0.1054688,-0.30469 0.6679688,-0.60938 1.1367188,-0.60938 0.5742187,0 1.0546875,0.48047 1.0546875,1.04297 0,0.667972 -0.5273438,1.230472 -1.1601563,1.230472 -0.082031,0 -0.1757812,0 -0.2929687,-0.01172 l -0.1289063,-0.01172 -0.1171875,0.480468 0.070312,0.04687 c 0.3398438,-0.152343 0.5039063,-0.199218 0.75,-0.199218 0.75,0 1.171875,0.480468 1.171875,1.300781 0,0.914062 -0.5390625,1.511719 -1.3828125,1.511719 -0.4101562,0 -0.7734375,-0.140625 -1.0429687,-0.386719 -0.2109375,-0.199219 -0.328125,-0.398438 -0.5039063,-0.890625 l -0.2460937,0.09375 c 0.1992187,0.550781 0.2695312,0.867187 0.3164062,1.3125 0.4804688,0.164062 0.8671875,0.234375 1.2070313,0.234375 0.7148437,0 1.5351562,-0.398438 2.0273429,-0.996094 0.304688,-0.375 0.457032,-0.761719 0.457032,-1.183594 0,-0.433593 -0.175782,-0.808593 -0.492188,-1.03125 -0.2343744,-0.164062 -0.4335932,-0.234375 -0.8789057,-0.316406 0.7148438,-0.5625 0.9843747,-0.972656 0.9843747,-1.499999 0,-0.79688 -0.6679684,-1.32422 -1.6640622,-1.32422 -0.609375,0 -1.0078125,0.16406 -1.4414062,0.59765 z m 0,0"
         style="fill:#5a9cfe;fill-opacity:1;fill-rule:nonzero;stroke:none" />
    </g>
    <g
       id="g102"
       aria-label="bm&#10;1&#10;bm&#10;2&#10;bm&#10;3"
       transform="matrix(1.3333333,0,0,1.3333333,146.764,801.10667)">
      <path
         id="path103"
         d="m 3.317625,-8.1923047 3.2460938,1.4765625 0.140625,-0.2695312 -3.375,-1.9101563 -3.3867188,1.9101563 0.12890625,0.2695312 z m 0,0"
         style="fill:#ec008c;fill-opacity:1;fill-rule:nonzero;stroke:none" />
      <path
         id="path104"
         d="m -1.4431172,-4.1610547 0.1757813,0.3164063 0.43359371,-0.3398438 c 0.2109375,-0.1523437 0.38671875,-0.234375 0.4921875,-0.234375 0.09375,0 0.15234375,0.070312 0.15234375,0.1875 0,0.6679688 -0.45703125,2.671875 -0.98437496,4.25390626 l 0.1171875,0.12890625 c 0.24609371,-0.08203125 0.80859371,-0.17578125 1.24218746,-0.19921875 0.1875,-1.25390626 0.4921875,-2.15624996 1.04296874,-2.99999996 0.5976563,-0.9375 1.0898438,-1.3710938 1.5234375,-1.3710938 0.1523438,0 0.234375,0.1171875 0.234375,0.3164063 0,0.5390625 -0.5039062,2.6015625 -1.0078125,4.12499996 l 0.1171875,0.12890625 c 0.2578125,-0.08203125 0.8203125,-0.17578125 1.2421875,-0.19921875 0.082031,-0.97265626 0.328125,-1.81640626 0.7617188,-2.57812496 0.5273437,-0.9492188 1.3945312,-1.7929688 1.8398437,-1.7929688 0.1054688,0 0.1875,0.082031 0.1875,0.1875 0,0.140625 -0.09375,0.5742188 -0.2460937,1.0898438 -0.4804688,1.6992187 -0.6445313,2.41406246 -0.6445313,2.87109371 0,0.28125 0.1757813,0.46875 0.4335938,0.46875 0.2578125,0 0.5273437,-0.09375 0.9726562,-0.33984375 0.4101563,-0.22265625 0.65625,-0.3984375 1.2890625,-0.92578126 l -0.140625,-0.2929687 -0.2929687,0.1992187 c -0.3398438,0.24609376 -0.609375,0.38671876 -0.7265625,0.38671876 -0.058594,0 -0.1289063,-0.0703125 -0.1289063,-0.15234375 0,-0.14062501 0.082031,-0.52734371 0.234375,-1.08984371 l 0.5976563,-2.203125 c 0.082031,-0.2929688 0.1289062,-0.5742188 0.1289062,-0.8203125 0,-0.3515625 -0.1875,-0.5625 -0.4453125,-0.5625 -0.46875,0 -1.2070312,0.375 -1.8632812,0.9609375 -0.703125,0.5976562 -1.1601563,1.2421875 -1.59375,2.1679687 l 0.4101562,-1.4414062 c 0.1640625,-0.5859375 0.2226563,-0.890625 0.2226563,-1.1367188 0,-0.3515625 -0.1757813,-0.5507812 -0.46875,-0.5507812 -0.3164063,0 -0.6210938,0.1289062 -1.1484375,0.5039062 -0.9023438,0.6796875 -1.4765625,1.359375 -2.12109379,2.5664063 L 0.93578906,-4.0204297 C 1.1232891,-4.7587109 1.1701641,-5.0399609 1.1701641,-5.2508984 c 0,-0.2109375 -0.1054688,-0.3515625 -0.29296879,-0.3515625 -0.3046875,0 -0.84375,0.2578125 -1.3125,0.6328125 z m 0,0"
         style="fill:#ec008c;fill-opacity:1;fill-rule:nonzero;stroke:none" />
      <path
         id="path105"
         d="m 9.0393047,-10.146406 h 0.09375 l 1.1601563,-0.515625 c 0,-0.01172 0.01172,-0.01172 0.02344,-0.01172 0.04687,0 0.07031,0.08203 0.07031,0.304688 v 4.3476558 c 0,0.4570312 -0.09375,0.5625 -0.5859376,0.5859375 l -0.5039062,0.023437 V -5.1425 c 1.3828128,-0.023437 1.3828128,-0.023437 1.4882808,-0.023437 0.117188,0 0.304688,0 0.609375,0.011719 0.117188,0.011719 0.421875,0.011719 0.796875,0.011719 v -0.2695312 l -0.46875,-0.023437 c -0.492187,-0.023437 -0.585937,-0.1289063 -0.585937,-0.5859375 v -5.3203133 l -0.117188,-0.04687 c -0.585937,0.304688 -1.2187496,0.574219 -2.0390621,0.867188 z m 0,0"
         style="fill:#ec008c;fill-opacity:1;fill-rule:nonzero;stroke:none" />
      <path
         id="path106"
         d="m 11.388914,-70.246016 3.246094,1.476563 0.140625,-0.269531 -3.375,-1.910157 -3.3867189,1.910157 0.1289062,0.269531 z m 0,0"
         style="fill:#ec008c;fill-opacity:1;fill-rule:nonzero;stroke:none" />
      <path
         id="path107"
         d="m 6.6311016,-66.214766 0.1757812,0.316407 0.4335938,-0.339844 c 0.2109375,-0.152344 0.3867187,-0.234375 0.4921875,-0.234375 0.09375,0 0.1523437,0.07031 0.1523437,0.1875 0,0.667969 -0.4570312,2.671875 -0.984375,4.253906 l 0.1171875,0.128906 c 0.2460938,-0.08203 0.8085938,-0.175781 1.2421875,-0.199218 0.1875,-1.253907 0.4921875,-2.15625 1.0429688,-3 0.5976562,-0.9375 1.0898434,-1.371094 1.5234374,-1.371094 0.152344,0 0.234375,0.117187 0.234375,0.316406 0,0.539063 -0.503906,2.601563 -1.007812,4.125 l 0.117187,0.128906 c 0.257813,-0.08203 0.820313,-0.175781 1.242188,-0.199218 0.08203,-0.972657 0.328125,-1.816407 0.761718,-2.578125 0.527344,-0.949219 1.394532,-1.792969 1.839844,-1.792969 0.105469,0 0.1875,0.08203 0.1875,0.1875 0,0.140625 -0.09375,0.574219 -0.246094,1.089844 -0.480468,1.699218 -0.644531,2.414062 -0.644531,2.871093 0,0.28125 0.175781,0.46875 0.433594,0.46875 0.257812,0 0.527344,-0.09375 0.972656,-0.339843 0.410156,-0.222657 0.65625,-0.398438 1.289063,-0.925782 l -0.140625,-0.292968 -0.292969,0.199218 c -0.339844,0.246094 -0.609375,0.386719 -0.726563,0.386719 -0.05859,0 -0.128906,-0.07031 -0.128906,-0.152344 0,-0.140625 0.08203,-0.527343 0.234375,-1.089843 l 0.597656,-2.203125 c 0.08203,-0.292969 0.128907,-0.574219 0.128907,-0.820313 0,-0.351562 -0.1875,-0.5625 -0.445313,-0.5625 -0.46875,0 -1.207031,0.375 -1.863281,0.960938 -0.703125,0.597656 -1.160156,1.242187 -1.59375,2.167968 l 0.410156,-1.441406 c 0.164063,-0.585937 0.222656,-0.890625 0.222656,-1.136719 0,-0.351562 -0.175781,-0.550781 -0.46875,-0.550781 -0.316406,0 -0.621093,0.128906 -1.148437,0.503906 -0.9023439,0.679688 -1.4765627,1.359375 -2.1210939,2.566407 l 0.3398437,-1.488282 c 0.1875,-0.738281 0.234375,-1.019531 0.234375,-1.230468 0,-0.210938 -0.1054687,-0.351563 -0.2929687,-0.351563 -0.3046875,0 -0.84375,0.257813 -1.3125,0.632813 z m 0,0"
         style="fill:#ec008c;fill-opacity:1;fill-rule:nonzero;stroke:none" />
      <path
         id="path108"
         d="M 16.653563,-67.439375 V -67.205 c 1.675781,-0.02344 1.675781,-0.02344 2.003906,-0.02344 0.316406,0 0.316406,0 2.050781,0.02344 -0.02344,-0.1875 -0.02344,-0.269531 -0.02344,-0.398437 0,-0.117188 0,-0.210938 0.02344,-0.410157 -1.03125,0.04687 -1.441406,0.05859 -3.105469,0.09375 l 1.640625,-1.734375 c 0.867188,-0.914062 1.136719,-1.40625 1.136719,-2.085937 0,-1.03125 -0.703125,-1.664063 -1.839844,-1.664063 -0.644531,0 -1.089843,0.175782 -1.523437,0.621094 l -0.152344,1.230469 h 0.257813 l 0.117187,-0.421875 c 0.140625,-0.515625 0.46875,-0.738281 1.066406,-0.738281 0.773438,0 1.265625,0.480468 1.265625,1.242187 0,0.679688 -0.375,1.335938 -1.394531,2.414063 z m 0,0"
         style="fill:#ec008c;fill-opacity:1;fill-rule:nonzero;stroke:none" />
      <path
         id="path109"
         d="m -61.727297,-69.159102 3.246094,1.476563 0.140625,-0.269531 -3.375,-1.910157 -3.386719,1.910157 0.128906,0.269531 z m 0,0"
         style="fill:#ec008c;fill-opacity:1;fill-rule:nonzero;stroke:none" />
      <path
         id="path110"
         d="m -66.485109,-65.127852 0.175781,0.316407 0.433594,-0.339844 c 0.210937,-0.152344 0.386718,-0.234375 0.492187,-0.234375 0.09375,0 0.152344,0.07031 0.152344,0.1875 0,0.667969 -0.457031,2.671875 -0.984375,4.253906 l 0.117187,0.128906 c 0.246094,-0.08203 0.808594,-0.175781 1.242188,-0.199218 0.1875,-1.253907 0.492187,-2.15625 1.042969,-3 0.597656,-0.9375 1.089843,-1.371094 1.523437,-1.371094 0.152344,0 0.234375,0.117187 0.234375,0.316406 0,0.539063 -0.503906,2.601563 -1.007812,4.125 l 0.117187,0.128906 c 0.257813,-0.08203 0.820313,-0.175781 1.242188,-0.199218 0.08203,-0.972657 0.328125,-1.816407 0.761718,-2.578125 0.527344,-0.949219 1.394532,-1.792969 1.839844,-1.792969 0.105469,0 0.1875,0.08203 0.1875,0.1875 0,0.140625 -0.09375,0.574219 -0.246094,1.089844 -0.480468,1.699218 -0.644531,2.414062 -0.644531,2.871093 0,0.28125 0.175781,0.46875 0.433594,0.46875 0.257812,0 0.527344,-0.09375 0.972656,-0.339843 0.410156,-0.222657 0.65625,-0.398438 1.289063,-0.925782 l -0.140625,-0.292968 -0.292969,0.199218 c -0.339844,0.246094 -0.609375,0.386719 -0.726563,0.386719 -0.05859,0 -0.128906,-0.07031 -0.128906,-0.152344 0,-0.140625 0.08203,-0.527343 0.234375,-1.089843 l 0.597656,-2.203125 c 0.08203,-0.292969 0.128907,-0.574219 0.128907,-0.820313 0,-0.351562 -0.1875,-0.5625 -0.445313,-0.5625 -0.46875,0 -1.207031,0.375 -1.863281,0.960938 -0.703125,0.597656 -1.160156,1.242187 -1.59375,2.167968 l 0.410156,-1.441406 c 0.164063,-0.585937 0.222656,-0.890625 0.222656,-1.136719 0,-0.351562 -0.175781,-0.550781 -0.46875,-0.550781 -0.316406,0 -0.621093,0.128906 -1.148437,0.503906 -0.902344,0.679688 -1.476563,1.359375 -2.121094,2.566407 l 0.339844,-1.488282 c 0.1875,-0.738281 0.234375,-1.019531 0.234375,-1.230468 0,-0.210938 -0.105469,-0.351563 -0.292969,-0.351563 -0.304687,0 -0.84375,0.257813 -1.3125,0.632813 z m 0,0"
         style="fill:#ec008c;fill-opacity:1;fill-rule:nonzero;stroke:none" />
      <path
         id="path111"
         d="m -56.213625,-70.606367 h 0.28125 l 0.152344,-0.503906 c 0.105469,-0.304688 0.667969,-0.609375 1.136719,-0.609375 0.574218,0 1.054687,0.480468 1.054687,1.042968 0,0.667969 -0.527344,1.230469 -1.160156,1.230469 -0.08203,0 -0.175781,0 -0.292969,-0.01172 l -0.128906,-0.01172 -0.117188,0.480468 0.07031,0.04687 c 0.339844,-0.152343 0.503906,-0.199218 0.75,-0.199218 0.75,0 1.171875,0.480468 1.171875,1.300781 0,0.914062 -0.539063,1.511719 -1.382813,1.511719 -0.410156,0 -0.773437,-0.140625 -1.042968,-0.386719 -0.210938,-0.199219 -0.328125,-0.398438 -0.503907,-0.890625 l -0.246093,0.09375 c 0.199218,0.550781 0.269531,0.867187 0.316406,1.3125 0.480469,0.164062 0.867187,0.234375 1.207031,0.234375 0.714844,0 1.535156,-0.398438 2.027344,-0.996094 0.304687,-0.375 0.457031,-0.761719 0.457031,-1.183594 0,-0.433593 -0.175781,-0.808593 -0.492187,-1.03125 -0.234375,-0.164062 -0.433594,-0.234375 -0.878907,-0.316406 0.714844,-0.5625 0.984375,-0.972656 0.984375,-1.5 0,-0.796875 -0.667968,-1.324219 -1.664062,-1.324219 -0.609375,0 -1.007813,0.164063 -1.441406,0.597657 z m 0,0"
         style="fill:#ec008c;fill-opacity:1;fill-rule:nonzero;stroke:none" />
    </g>
    <g
       id="g111"
       aria-label="a&#10;1&#10;K&#10;a&#10;2&#10;K&#10;a&#10;3&#10;K"
       transform="matrix(1.3333333,0,0,1.3333333,271.17067,776.012)"
       style="fill:#5a9cfe">
      <path
         id="path112"
         d="M 5.3095,-5.2970859 C 4.747,-5.5314609 4.46575,-5.6017734 4.09075,-5.6017734 c -0.4570312,0 -0.7382812,0.070312 -1.0664062,0.2695312 -0.6328125,0.421875 -1.453125,1.1132813 -1.6523438,1.4179688 -0.41015625,0.6445312 -0.84375,2.2617187 -0.84375,3.22265621 0,0.52734375 0.26953125,0.890625 0.6445313,0.890625 0.890625,0 1.9804687,-1.04296875 3.09375,-3.00000001 l -0.4453125,1.80468751 c -0.058594,0.234375 -0.082031,0.45703125 -0.082031,0.65625 0,0.3398437525 0.1523438,0.5390625 0.3867188,0.5390625 0.5039062,0 1.1835937,-0.375 2.0742187,-1.18359375 L 6.0595,-1.3361484 l -0.234375,0.1875 c -0.2226562,0.16406246 -0.5625,0.36328121 -0.65625,0.36328121 -0.1054687,0 -0.140625,-0.0585938 -0.1757812,-0.28125001 0,-0.011719 0.046875,-0.2460937 0.1289062,-0.5976562 l 0.5273438,-2.5546875 c 0.09375,-0.375 0.1757812,-0.6679688 0.3867187,-1.2539063 l -0.1875,-0.140625 z m -0.796875,0.5742187 c -0.1757812,1.078125 -0.5625,1.9921875 -1.2421875,2.8945313 -0.4804687,0.6445312 -0.9375,1.05468746 -1.1953125,1.05468746 -0.1171875,0 -0.2109375,-0.2109375 -0.2109375,-0.44531246 0,-0.4453125 0.2695313,-1.6640625 0.5625,-2.578125 0.2695313,-0.8320313 0.5976563,-1.1835938 1.1132813,-1.1835938 0.3164062,0 0.5507812,0.058594 0.9726562,0.2578125 z m 0,0"
         style="fill:#5a9cfe;fill-opacity:1;fill-rule:nonzero;stroke:none" />
      <path
         id="path113"
         d="m 7.3925078,-9.3195469 h 0.09375 l 1.1601563,-0.515625 c 0,-0.011719 0.011719,-0.011719 0.023437,-0.011719 0.046875,0 0.070312,0.082031 0.070312,0.3046875 v 4.3476562 c 0,0.4570313 -0.09375,0.5625 -0.5859375,0.5859375 l -0.5039063,0.023437 v 0.2695313 c 1.3828125,-0.023437 1.3828125,-0.023437 1.4882813,-0.023437 0.1171875,0 0.3046875,0 0.609375,0.011719 0.1171875,0.011719 0.4218754,0.011719 0.7968754,0.011719 v -0.2695313 l -0.46875,-0.023437 C 9.5839141,-4.6320469 9.4901641,-4.7375156 9.4901641,-5.1945469 v -5.3203121 l -0.1171875,-0.04687 c -0.5859375,0.304687 -1.21875,0.5742184 -2.0390625,0.8671871 z m 0,0"
         style="fill:#5a9cfe;fill-opacity:1;fill-rule:nonzero;stroke:none" />
      <path
         id="path114"
         d="m 10.240164,-2.1271641 0.02344,-0.2460937 h -0.210938 l -0.8085937,0.023437 c -0.140625,0 -0.3046875,0 -0.6914062,-0.011719 l -0.5742188,-0.011719 -0.023437,0.2460937 0.421875,0.023437 c 0.2109375,0 0.3046875,0.070312 0.3046875,0.234375 0,0.1289063 -0.023437,0.3867188 -0.070312,0.6796875 l -0.65625,3.890625 C 7.8026641,3.5329922 7.7909453,3.5447109 7.4276641,3.5798672 l -0.3632813,0.023437 -0.035156,0.2460937 h 0.375 C 7.8378205,3.8376789 8.0370393,3.8259609 8.2128205,3.8259609 L 9.080008,3.8493979 H 9.314383 L 9.3378203,3.6033047 8.9042266,3.5798672 c -0.2460938,-0.023437 -0.328125,-0.082031 -0.328125,-0.2695313 0,-0.046875 0.011719,-0.1523437 0.023437,-0.1875 L 8.9862578,0.77908594 C 10.322195,2.3142422 10.533133,2.5720547 11.470633,3.8493984 l 0.621094,-0.023437 c 0.328125,0.011719 0.375,0.023437 0.609375,0.023437 V 3.5798672 H 12.52532 c -0.210937,0 -0.386718,-0.1054688 -0.574218,-0.3398438 L 9.7479766,0.53299219 12.361258,-1.9162266 c 0.140625,-0.1289062 0.328125,-0.2226562 0.480469,-0.2226562 h 0.1875 v -0.234375 h -0.199219 c -0.1875,0.011719 -0.328125,0.023437 -0.410156,0.023437 -0.08203,0 -0.222657,-0.011719 -0.410157,-0.023437 h -0.1875 v 0.2578125 c 0,0.070312 -0.08203,0.1875 -0.339843,0.4335937 l -1.148438,1.17187504 c -0.3867187,0.3984375 -0.7617187,0.7265625 -1.3359374,1.171875 L 9.4081328,-1.6701328 c 0.058594,-0.3398438 0.1171875,-0.3984375 0.4570313,-0.4335938 z m 0,0"
         style="fill:#5a9cfe;fill-opacity:1;fill-rule:nonzero;stroke:none" />
      <path
         id="path115"
         d="m 106.90813,5.1413906 c -0.5625,-0.234375 -0.84375,-0.3046875 -1.21875,-0.3046875 -0.45703,0 -0.73828,0.070312 -1.0664,0.2695313 -0.63282,0.421875 -1.45313,1.1132812 -1.65235,1.4179687 -0.41015,0.6445313 -0.84375,2.2617188 -0.84375,3.2226563 0,0.5273436 0.26953,0.8906246 0.64453,0.8906246 0.89063,0 1.98047,-1.0429684 3.09375,-2.9999996 l -0.44531,1.8046875 c -0.0586,0.234375 -0.082,0.4570312 -0.082,0.6562501 0,0.339844 0.15234,0.539062 0.38672,0.539062 0.50391,0 1.18359,-0.375 2.07422,-1.1835934 l -0.14063,-0.3515625 -0.23437,0.1875 c -0.22266,0.1640625 -0.5625,0.3632813 -0.65625,0.3632813 -0.10547,0 -0.14063,-0.058594 -0.17578,-0.28125 0,-0.011719 0.0469,-0.2460938 0.1289,-0.5976563 l 0.52735,-2.5546875 c 0.0937,-0.375 0.17578,-0.6679687 0.38672,-1.2539062 l -0.1875,-0.140625 z m -0.79687,0.5742188 c -0.17578,1.078125 -0.5625,1.9921875 -1.24219,2.8945312 -0.48047,0.6445313 -0.9375,1.0546875 -1.19531,1.0546875 -0.11719,0 -0.21094,-0.2109375 -0.21094,-0.4453125 0,-0.4453125 0.26953,-1.6640625 0.5625,-2.578125 0.26953,-0.8320312 0.59766,-1.1835937 1.11328,-1.1835937 0.31641,0 0.55078,0.058594 0.97266,0.2578125 z m 0,0"
         style="fill:#5a9cfe;fill-opacity:1;fill-rule:nonzero;stroke:none" />
      <path
         id="path116"
         d="m 108.53411,5.8913906 v 0.234375 c 1.67578,-0.023437 1.67578,-0.023437 2.00391,-0.023437 0.3164,0 0.3164,0 2.05078,0.023437 -0.0234,-0.1875 -0.0234,-0.2695312 -0.0234,-0.3984375 0,-0.1171875 0,-0.2109375 0.0234,-0.4101562 -1.03125,0.046875 -1.44141,0.058594 -3.10547,0.09375 l 1.64062,-1.734375 c 0.86719,-0.9140625 1.13672,-1.40625 1.13672,-2.0859375 0,-1.03125003 -0.70312,-1.66406253 -1.83984,-1.66406253 -0.64453,0 -1.08985,0.17578125 -1.52344,0.62109375 l -0.15234,1.23046878 h 0.25781 l 0.11719,-0.421875 c 0.14062,-0.51562503 0.46875,-0.73828128 1.0664,-0.73828128 0.77344,0 1.26563,0.48046878 1.26563,1.24218748 0,0.6796875 -0.375,1.3359375 -1.39453,2.4140625 z m 0,0"
         style="fill:#5a9cfe;fill-opacity:1;fill-rule:nonzero;stroke:none" />
      <path
         id="path117"
         d="m 111.8388,8.3113125 0.0234,-0.2460938 h -0.21093 l -0.8086,0.023437 c -0.14062,0 -0.30468,0 -0.6914,-0.011719 l -0.57422,-0.011719 -0.0234,0.2460938 0.42188,0.023437 c 0.21093,0 0.30468,0.070312 0.30468,0.234375 0,0.1289062 -0.0234,0.3867187 -0.0703,0.6796875 l -0.65625,3.890624 c -0.15234,0.832032 -0.16406,0.84375 -0.52734,0.878907 l -0.36328,0.02344 -0.0352,0.246093 h 0.375 c 0.43359,-0.01172 0.63281,-0.02344 0.80859,-0.02344 l 0.86719,0.02344 h 0.23438 l 0.0234,-0.246093 -0.43359,-0.02344 c -0.24609,-0.02344 -0.32813,-0.08203 -0.32813,-0.269532 0,-0.04687 0.0117,-0.152343 0.0234,-0.1875 l 0.38672,-2.34375 c 1.33594,1.535157 1.54688,1.792969 2.48438,3.070314 l 0.62109,-0.02344 c 0.32812,0.01172 0.375,0.02344 0.60937,0.02344 v -0.269532 h -0.17578 c -0.21093,0 -0.38672,-0.105468 -0.57422,-0.339843 l -2.20312,-2.707032 2.61328,-2.4492185 c 0.14063,-0.1289063 0.32813,-0.2226563 0.48047,-0.2226563 h 0.1875 v -0.234375 h -0.19922 c -0.1875,0.011719 -0.32812,0.023437 -0.41016,0.023437 -0.082,0 -0.22265,-0.011719 -0.41015,-0.023437 h -0.1875 v 0.2578125 c 0,0.070312 -0.082,0.1875 -0.33985,0.4335938 L 111.93255,9.9285 c -0.38672,0.398437 -0.76172,0.726562 -1.33594,1.171875 l 0.41016,-2.3320313 C 111.06536,8.4285 111.12395,8.3699062 111.4638,8.33475 Z m 0,0"
         style="fill:#5a9cfe;fill-opacity:1;fill-rule:nonzero;stroke:none" />
      <path
         id="path118"
         d="m 64.685477,-107.16818 c -0.5625,-0.23437 -0.84375,-0.30469 -1.21875,-0.30469 -0.457032,0 -0.738282,0.0703 -1.066407,0.26953 -0.632812,0.42188 -1.453125,1.11329 -1.652343,1.41797 -0.410157,0.64453 -0.84375,2.26172 -0.84375,3.22266 0,0.52734 0.269531,0.89062 0.644531,0.89062 0.890625,0 1.980469,-1.04296 3.09375,-3 l -0.445313,1.80469 c -0.05859,0.23438 -0.08203,0.45703 -0.08203,0.65625 0,0.33985 0.152344,0.53906 0.386719,0.53906 0.503906,0 1.183594,-0.375 2.074219,-1.18359 l -0.140625,-0.35156 -0.234375,0.1875 c -0.222657,0.16406 -0.5625,0.36328 -0.65625,0.36328 -0.105469,0 -0.140625,-0.0586 -0.175782,-0.28125 0,-0.0117 0.04687,-0.24609 0.128907,-0.59766 l 0.527343,-2.55468 c 0.09375,-0.375 0.175782,-0.66797 0.386719,-1.25391 l -0.1875,-0.14063 z m -0.796875,0.57422 c -0.175782,1.07812 -0.5625,1.99219 -1.242188,2.89453 -0.480469,0.64453 -0.9375,1.05469 -1.195312,1.05469 -0.117188,0 -0.210938,-0.21094 -0.210938,-0.44531 0,-0.44532 0.269531,-1.66407 0.5625,-2.57813 0.269531,-0.83203 0.597656,-1.18359 1.113281,-1.18359 0.316407,0 0.550782,0.0586 0.972657,0.25781 z m 0,0"
         style="fill:#5a9cfe;fill-opacity:1;fill-rule:nonzero;stroke:none" />
      <path
         id="path119"
         d="m 66.557547,-110.67502 h 0.28125 l 0.152344,-0.5039 c 0.105468,-0.30469 0.667968,-0.60938 1.136718,-0.60938 0.574219,0 1.054688,0.48047 1.054688,1.04297 0,0.66797 -0.527344,1.23047 -1.160156,1.23047 -0.08203,0 -0.175782,0 -0.292969,-0.0117 l -0.128906,-0.0117 -0.117188,0.48047 0.07031,0.0469 c 0.339843,-0.15235 0.503906,-0.19922 0.75,-0.19922 0.75,0 1.171875,0.48047 1.171875,1.30078 0,0.91406 -0.539063,1.51172 -1.382813,1.51172 -0.410156,0 -0.773437,-0.14063 -1.042969,-0.38672 -0.210937,-0.19922 -0.328125,-0.39844 -0.503906,-0.89063 l -0.246094,0.0937 c 0.199219,0.55079 0.269532,0.86719 0.316407,1.3125 0.480468,0.16407 0.867187,0.23438 1.207031,0.23438 0.714844,0 1.535156,-0.39844 2.027344,-0.99609 0.304687,-0.375 0.457031,-0.76172 0.457031,-1.1836 0,-0.43359 -0.175781,-0.80859 -0.492188,-1.03125 -0.234375,-0.16406 -0.433593,-0.23437 -0.878906,-0.3164 0.714844,-0.5625 0.984375,-0.97266 0.984375,-1.5 0,-0.79688 -0.667969,-1.32422 -1.664062,-1.32422 -0.609375,0 -1.007813,0.16406 -1.441407,0.59765 z m 0,0"
         style="fill:#5a9cfe;fill-opacity:1;fill-rule:nonzero;stroke:none" />
      <path
         id="path120"
         d="m 69.616141,-103.91037 0.02344,-0.24609 h -0.210937 l -0.808594,0.0234 c -0.140625,0 -0.304688,0 -0.691406,-0.0117 l -0.574219,-0.0117 -0.02344,0.24609 0.421875,0.0234 c 0.210938,0 0.304688,0.0703 0.304688,0.23438 0,0.1289 -0.02344,0.38671 -0.07031,0.67968 l -0.65625,3.890628 c -0.152343,0.832031 -0.164062,0.84375 -0.527343,0.878906 l -0.363282,0.02344 -0.03516,0.246093 h 0.375 c 0.433594,-0.01172 0.632813,-0.02344 0.808594,-0.02344 l 0.867187,0.02344 h 0.234375 l 0.02344,-0.246093 -0.433594,-0.02344 c -0.246094,-0.02344 -0.328125,-0.08203 -0.328125,-0.269531 0,-0.04687 0.01172,-0.152344 0.02344,-0.1875 l 0.386718,-2.343753 c 1.335938,1.535159 1.546875,1.792972 2.484375,3.070315 l 0.621094,-0.02344 c 0.328125,0.01172 0.375,0.02344 0.609375,0.02344 v -0.269531 h -0.175781 c -0.210938,0 -0.386719,-0.105469 -0.574219,-0.339844 l -2.203125,-2.70703 2.613281,-2.44922 c 0.140625,-0.12891 0.328125,-0.22266 0.480469,-0.22266 h 0.1875 v -0.23437 h -0.199219 c -0.1875,0.0117 -0.328125,0.0234 -0.410156,0.0234 -0.08203,0 -0.222656,-0.0117 -0.410156,-0.0234 h -0.1875 v 0.25781 c 0,0.0703 -0.08203,0.1875 -0.339844,0.4336 l -1.148437,1.17187 c -0.386719,0.39844 -0.761719,0.72656 -1.335938,1.17188 l 0.410156,-2.33204 c 0.05859,-0.33984 0.117188,-0.39843 0.457032,-0.43359 z m 0,0"
         style="fill:#5a9cfe;fill-opacity:1;fill-rule:nonzero;stroke:none" />
    </g>
    <g
       id="g120"
       aria-label="m&#10;1&#10;K&#10;m&#10;2&#10;K&#10;m&#10;3&#10;K"
       transform="matrix(1.3333333,0,0,1.3333333,336.98133,800.28)">
      <path
         id="path121"
         d="m 0.22200781,-4.1592187 0.17578125,0.3164062 0.43359375,-0.3398437 C 1.0423203,-4.335 1.2181016,-4.4170312 1.3235703,-4.4170312 c 0.09375,0 0.1523438,0.070312 0.1523438,0.1875 0,0.6679687 -0.4570313,2.671875 -0.98437504,4.2539062 l 0.1171875,0.12890625 C 0.85482031,0.07125 1.4173203,-0.0225 1.8509141,-0.0459375 c 0.1875,-1.2539062 0.4921875,-2.15625 1.0429687,-3 0.5976563,-0.9375 1.0898438,-1.3710937 1.5234375,-1.3710937 0.1523438,0 0.234375,0.1171875 0.234375,0.3164062 0,0.5390625 -0.5039062,2.6015625 -1.0078125,4.125 L 3.7610703,0.15328125 C 4.0188828,0.07125 4.5813828,-0.0225 5.0032578,-0.0459375 c 0.082031,-0.9726562 0.328125,-1.8164062 0.7617188,-2.578125 0.5273437,-0.9492187 1.3945312,-1.7929687 1.8398437,-1.7929687 0.1054688,0 0.1875,0.082031 0.1875,0.1875 0,0.140625 -0.09375,0.5742187 -0.2460937,1.0898437 -0.4804688,1.6992188 -0.6445313,2.4140625 -0.6445313,2.87109375 0,0.28125 0.1757813,0.46875 0.4335938,0.46875 0.2578125,0 0.5273437,-0.09375 0.9726562,-0.33984375 0.4101563,-0.22265625 0.65625,-0.3984375 1.2890625,-0.9257812 L 9.4563828,-1.3584375 9.1634141,-1.1592187 C 8.8235703,-0.913125 8.5540391,-0.7725 8.4368516,-0.7725 c -0.058594,0 -0.1289063,-0.0703125 -0.1289063,-0.15234375 0,-0.14062495 0.082031,-0.52734375 0.234375,-1.08984375 l 0.5976563,-2.203125 c 0.082031,-0.2929687 0.1289062,-0.5742187 0.1289062,-0.8203125 0,-0.3515625 -0.1875,-0.5625 -0.4453125,-0.5625 -0.46875,0 -1.2070312,0.375 -1.8632812,0.9609375 -0.703125,0.5976563 -1.1601563,1.2421875 -1.59375,2.1679688 L 5.7766953,-3.913125 c 0.1640625,-0.5859375 0.2226563,-0.890625 0.2226563,-1.1367187 0,-0.3515625 -0.1757813,-0.5507813 -0.46875,-0.5507813 -0.3164063,0 -0.6210938,0.1289063 -1.1484375,0.5039063 -0.9023438,0.6796875 -1.4765625,1.359375 -2.1210938,2.5664062 l 0.3398438,-1.4882812 c 0.1875,-0.7382813 0.234375,-1.0195313 0.234375,-1.2304688 0,-0.2109375 -0.1054688,-0.3515625 -0.2929688,-0.3515625 -0.3046875,0 -0.84375,0.2578125 -1.3125,0.6328125 z m 0,0"
         style="fill:#ec008c;fill-opacity:1;fill-rule:nonzero;stroke:none" />
      <path
         id="path122"
         d="m 10.70443,-9.3183984 h 0.09375 l 1.160156,-0.515625 c 0,-0.011719 0.01172,-0.011719 0.02344,-0.011719 0.04687,0 0.07031,0.082031 0.07031,0.3046875 v 4.3476563 c 0,0.4570312 -0.09375,0.5625 -0.585938,0.5859375 l -0.503906,0.023437 v 0.2695312 c 1.382813,-0.023437 1.382813,-0.023437 1.488281,-0.023437 0.117188,0 0.304688,0 0.609375,0.011719 0.117188,0.011719 0.421875,0.011719 0.796875,0.011719 v -0.2695312 l -0.46875,-0.023437 c -0.492187,-0.023437 -0.585937,-0.1289063 -0.585937,-0.5859375 V -10.51371 l -0.117188,-0.04687 c -0.585937,0.304688 -1.21875,0.5742186 -2.039062,0.8671874 z m 0,0"
         style="fill:#ec008c;fill-opacity:1;fill-rule:nonzero;stroke:none" />
      <path
         id="path123"
         d="m 13.552086,-2.1289453 0.02344,-0.2460938 h -0.210937 l -0.808594,0.023437 c -0.140625,0 -0.304687,0 -0.691406,-0.011719 l -0.574219,-0.011719 -0.02344,0.2460938 0.421875,0.023437 c 0.210937,0 0.304687,0.070312 0.304687,0.234375 0,0.1289062 -0.02344,0.3867187 -0.07031,0.6796875 l -0.65625,3.890625 c -0.152344,0.8320312 -0.164063,0.84375 -0.527344,0.8789062 l -0.363281,0.023437 -0.03516,0.2460938 h 0.375 c 0.433594,-0.011719 0.632813,-0.023437 0.808594,-0.023437 l 0.867188,0.023437 h 0.234375 l 0.02344,-0.2460938 -0.433594,-0.023437 c -0.246093,-0.023437 -0.328125,-0.082031 -0.328125,-0.2695312 0,-0.046875 0.01172,-0.1523438 0.02344,-0.1875 L 12.29818,0.77730469 c 1.335937,1.53515621 1.546875,1.79296871 2.484375,3.07031251 l 0.621093,-0.023437 c 0.328125,0.011719 0.375,0.023437 0.609375,0.023437 V 3.5780859 h -0.175781 c -0.210937,0 -0.386719,-0.1054687 -0.574219,-0.3398437 L 13.059898,0.53121094 15.67318,-1.9180078 c 0.140625,-0.1289063 0.328125,-0.2226563 0.480468,-0.2226563 h 0.1875 v -0.234375 H 16.14193 c -0.1875,0.011719 -0.328125,0.023437 -0.410157,0.023437 -0.08203,0 -0.222656,-0.011719 -0.410156,-0.023437 h -0.1875 v 0.2578125 c 0,0.070312 -0.08203,0.1875 -0.339844,0.4335938 l -1.148437,1.17187499 c -0.386719,0.3984375 -0.761719,0.7265625 -1.335938,1.171875 l 0.410157,-2.33203129 c 0.05859,-0.3398437 0.117187,-0.3984375 0.457031,-0.4335937 z m 0,0"
         style="fill:#ec008c;fill-opacity:1;fill-rule:nonzero;stroke:none" />
      <path
         id="path124"
         d="m 72.057945,-83.017617 0.175782,0.316406 0.433593,-0.339844 c 0.210938,-0.152343 0.386719,-0.234375 0.492188,-0.234375 0.09375,0 0.152344,0.07031 0.152344,0.1875 0,0.667969 -0.457032,2.671875 -0.984375,4.253907 l 0.117187,0.128906 c 0.246094,-0.08203 0.808594,-0.175781 1.242188,-0.199219 0.1875,-1.253906 0.492187,-2.15625 1.042968,-3 0.597657,-0.9375 1.089844,-1.371094 1.523438,-1.371094 0.152344,0 0.234375,0.117188 0.234375,0.316407 0,0.539062 -0.503906,2.601562 -1.007813,4.125 l 0.117188,0.128906 c 0.257812,-0.08203 0.820312,-0.175781 1.242187,-0.199219 0.08203,-0.972656 0.328125,-1.816406 0.761719,-2.578125 0.527344,-0.949219 1.394531,-1.792969 1.839844,-1.792969 0.105469,0 0.1875,0.08203 0.1875,0.1875 0,0.140625 -0.09375,0.574219 -0.246094,1.089844 -0.480469,1.699219 -0.644531,2.414063 -0.644531,2.871094 0,0.28125 0.175781,0.46875 0.433594,0.46875 0.257812,0 0.527343,-0.09375 0.972656,-0.339844 0.410156,-0.222656 0.65625,-0.398437 1.289062,-0.925781 l -0.140625,-0.292969 -0.292968,0.199219 c -0.339844,0.246094 -0.609375,0.386719 -0.726563,0.386719 -0.05859,0 -0.128906,-0.07031 -0.128906,-0.152344 0,-0.140625 0.08203,-0.527344 0.234375,-1.089844 l 0.597656,-2.203125 c 0.08203,-0.292969 0.128906,-0.574219 0.128906,-0.820312 0,-0.351563 -0.1875,-0.5625 -0.445312,-0.5625 -0.46875,0 -1.207031,0.375 -1.863281,0.960937 -0.703125,0.597656 -1.160157,1.242188 -1.59375,2.167969 l 0.410156,-1.441406 c 0.164062,-0.585938 0.222656,-0.890625 0.222656,-1.136719 0,-0.351563 -0.175781,-0.550781 -0.46875,-0.550781 -0.316406,0 -0.621094,0.128906 -1.148437,0.503906 -0.902344,0.679687 -1.476563,1.359375 -2.121094,2.566406 l 0.339844,-1.488281 c 0.1875,-0.738281 0.234375,-1.019531 0.234375,-1.230469 0,-0.210937 -0.105469,-0.351562 -0.292969,-0.351562 -0.304688,0 -0.84375,0.257812 -1.3125,0.632812 z m 0,0"
         style="fill:#ec008c;fill-opacity:1;fill-rule:nonzero;stroke:none" />
      <path
         id="path125"
         d="m 82.080406,-83.407266 v 0.234375 c 1.675782,-0.02344 1.675782,-0.02344 2.003907,-0.02344 0.316406,0 0.316406,0 2.050781,0.02344 -0.02344,-0.1875 -0.02344,-0.269531 -0.02344,-0.398437 0,-0.117188 0,-0.210938 0.02344,-0.410156 -1.03125,0.04687 -1.441406,0.05859 -3.105469,0.09375 l 1.640625,-1.734375 c 0.867188,-0.914063 1.136719,-1.40625 1.136719,-2.085938 0,-1.03125 -0.703125,-1.664062 -1.839844,-1.664062 -0.644531,0 -1.089844,0.175781 -1.523437,0.621093 l -0.152344,1.230469 h 0.257812 l 0.117188,-0.421875 c 0.140625,-0.515625 0.46875,-0.738281 1.066406,-0.738281 0.773438,0 1.265625,0.480469 1.265625,1.242187 0,0.679688 -0.375,1.335938 -1.394531,2.414063 z m 0,0"
         style="fill:#ec008c;fill-opacity:1;fill-rule:nonzero;stroke:none" />
      <path
         id="path126"
         d="m 85.385094,-80.987344 0.02344,-0.246093 h -0.21094 L 84.389,-81.21 c -0.140625,0 -0.304687,0 -0.691406,-0.01172 l -0.574219,-0.01172 -0.02344,0.246093 0.421875,0.02344 c 0.210937,0 0.304687,0.07031 0.304687,0.234375 0,0.128906 -0.02344,0.386719 -0.07031,0.679687 l -0.65625,3.890625 c -0.152344,0.832032 -0.164063,0.84375 -0.527344,0.878907 l -0.363281,0.02344 -0.03516,0.246094 h 0.375 c 0.433594,-0.01172 0.632813,-0.02344 0.808594,-0.02344 l 0.867188,0.02344 h 0.234375 l 0.02344,-0.246094 -0.433594,-0.02344 c -0.246093,-0.02344 -0.328125,-0.08203 -0.328125,-0.269532 0,-0.04687 0.01172,-0.152343 0.02344,-0.1875 l 0.386719,-2.34375 c 1.335937,1.535157 1.546875,1.792969 2.484375,3.070313 l 0.621093,-0.02344 c 0.328125,0.01172 0.375,0.02344 0.609375,0.02344 v -0.269531 H 87.67025 c -0.210937,0 -0.386719,-0.105469 -0.574219,-0.339844 l -2.203125,-2.707031 2.613282,-2.449219 c 0.140625,-0.128906 0.328125,-0.222656 0.480468,-0.222656 h 0.1875 v -0.234375 h -0.199218 c -0.1875,0.01172 -0.328125,0.02344 -0.410157,0.02344 -0.08203,0 -0.222656,-0.01172 -0.410156,-0.02344 h -0.1875 v 0.257812 c 0,0.07031 -0.08203,0.1875 -0.339844,0.433594 l -1.148437,1.171875 c -0.386719,0.398437 -0.761719,0.726562 -1.335938,1.171875 l 0.410157,-2.332031 c 0.05859,-0.339844 0.117187,-0.398438 0.457031,-0.433594 z m 0,0"
         style="fill:#ec008c;fill-opacity:1;fill-rule:nonzero;stroke:none" />
      <path
         id="path127"
         d="m -57.63932,-76.964883 0.175781,0.316406 0.433594,-0.339843 c 0.210937,-0.152344 0.386718,-0.234375 0.492187,-0.234375 0.09375,0 0.152344,0.07031 0.152344,0.1875 0,0.667968 -0.457031,2.671875 -0.984375,4.253906 l 0.117187,0.128906 c 0.246094,-0.08203 0.808594,-0.175781 1.242188,-0.199219 0.1875,-1.253906 0.492187,-2.15625 1.042969,-3 0.597656,-0.9375 1.089843,-1.371093 1.523437,-1.371093 0.152344,0 0.234375,0.117187 0.234375,0.316406 0,0.539062 -0.503906,2.601562 -1.007812,4.125 l 0.117187,0.128906 c 0.257813,-0.08203 0.820313,-0.175781 1.242188,-0.199219 0.08203,-0.972656 0.328125,-1.816406 0.761718,-2.578125 0.527344,-0.949218 1.394532,-1.792968 1.839844,-1.792968 0.105469,0 0.1875,0.08203 0.1875,0.1875 0,0.140625 -0.09375,0.574218 -0.246094,1.089843 -0.480468,1.699219 -0.644531,2.414063 -0.644531,2.871094 0,0.28125 0.175781,0.46875 0.433594,0.46875 0.257812,0 0.527344,-0.09375 0.972656,-0.339844 0.410156,-0.222656 0.65625,-0.398437 1.289063,-0.925781 l -0.140625,-0.292969 -0.292969,0.199219 c -0.339844,0.246094 -0.609375,0.386719 -0.726563,0.386719 -0.05859,0 -0.128906,-0.07031 -0.128906,-0.152344 0,-0.140625 0.08203,-0.527344 0.234375,-1.089844 l 0.597656,-2.203125 c 0.08203,-0.292968 0.128907,-0.574218 0.128907,-0.820312 0,-0.351563 -0.1875,-0.5625 -0.445313,-0.5625 -0.46875,0 -1.207031,0.375 -1.863281,0.960937 -0.703125,0.597657 -1.160156,1.242188 -1.59375,2.167969 l 0.410156,-1.441406 c 0.164063,-0.585938 0.222656,-0.890625 0.222656,-1.136719 0,-0.351562 -0.175781,-0.550781 -0.46875,-0.550781 -0.316406,0 -0.621093,0.128906 -1.148437,0.503906 -0.902344,0.679688 -1.476563,1.359375 -2.121094,2.566406 l 0.339844,-1.488281 c 0.1875,-0.738281 0.234375,-1.019531 0.234375,-1.230469 0,-0.210937 -0.105469,-0.351562 -0.292969,-0.351562 -0.304687,0 -0.84375,0.257812 -1.3125,0.632812 z m 0,0"
         style="fill:#ec008c;fill-opacity:1;fill-rule:nonzero;stroke:none" />
      <path
         id="path128"
         d="m -47.367836,-81.608437 h 0.28125 l 0.152344,-0.503907 c 0.105469,-0.304687 0.667969,-0.609375 1.136719,-0.609375 0.574218,0 1.054687,0.480469 1.054687,1.042969 0,0.667969 -0.527344,1.230469 -1.160156,1.230469 -0.08203,0 -0.175781,0 -0.292969,-0.01172 l -0.128906,-0.01172 -0.117188,0.480469 0.07031,0.04687 c 0.339844,-0.152344 0.503906,-0.199219 0.75,-0.199219 0.75,0 1.171875,0.480469 1.171875,1.300782 0,0.914062 -0.539063,1.511718 -1.382813,1.511718 -0.410156,0 -0.773437,-0.140625 -1.042968,-0.386718 -0.210938,-0.199219 -0.328125,-0.398438 -0.503907,-0.890625 l -0.246093,0.09375 c 0.199218,0.550781 0.269531,0.867187 0.316406,1.3125 0.480469,0.164062 0.867187,0.234375 1.207031,0.234375 0.714844,0 1.535156,-0.398438 2.027344,-0.996094 0.304687,-0.375 0.457031,-0.761719 0.457031,-1.183594 0,-0.433594 -0.175781,-0.808594 -0.492187,-1.03125 -0.234375,-0.164062 -0.433594,-0.234375 -0.878907,-0.316406 0.714844,-0.5625 0.984375,-0.972656 0.984375,-1.5 0,-0.796875 -0.667968,-1.324219 -1.664062,-1.324219 -0.609375,0 -1.007813,0.164063 -1.441406,0.597656 z m 0,0"
         style="fill:#ec008c;fill-opacity:1;fill-rule:nonzero;stroke:none" />
      <path
         id="path129"
         d="m -44.309242,-74.843789 0.02344,-0.246094 h -0.210937 l -0.808594,0.02344 c -0.140625,0 -0.304687,0 -0.691406,-0.01172 l -0.574219,-0.01172 -0.02344,0.246094 0.421875,0.02344 c 0.210937,0 0.304687,0.07031 0.304687,0.234375 0,0.128907 -0.02344,0.386719 -0.07031,0.679688 l -0.65625,3.890625 c -0.152344,0.832031 -0.164063,0.84375 -0.527344,0.878906 l -0.363281,0.02344 -0.03516,0.246093 h 0.375 c 0.433594,-0.01172 0.632813,-0.02344 0.808594,-0.02344 l 0.867188,0.02344 h 0.234375 l 0.02344,-0.246093 -0.433594,-0.02344 c -0.246093,-0.02344 -0.328125,-0.08203 -0.328125,-0.269531 0,-0.04687 0.01172,-0.152344 0.02344,-0.1875 l 0.386719,-2.34375 c 1.335937,1.535156 1.546875,1.792969 2.484375,3.070312 l 0.621093,-0.02344 c 0.328125,0.01172 0.375,0.02344 0.609375,0.02344 v -0.269531 h -0.175781 c -0.210937,0 -0.386719,-0.105469 -0.574219,-0.339844 l -2.203125,-2.707031 2.613282,-2.449219 c 0.140625,-0.128906 0.328125,-0.222656 0.480468,-0.222656 h 0.1875 v -0.234375 h -0.199218 c -0.1875,0.01172 -0.328125,0.02344 -0.410157,0.02344 -0.08203,0 -0.222656,-0.01172 -0.410156,-0.02344 h -0.1875 v 0.257813 c 0,0.07031 -0.08203,0.1875 -0.339844,0.433593 l -1.148437,1.171875 c -0.386719,0.398438 -0.761719,0.726563 -1.335938,1.171875 l 0.410157,-2.332031 c 0.05859,-0.339844 0.117187,-0.398437 0.457031,-0.433594 z m 0,0"
         style="fill:#ec008c;fill-opacity:1;fill-rule:nonzero;stroke:none" />
    </g>
    <g
       id="g129"
       aria-label="K&#10;b&#10;K&#10;&#10;K"
       transform="matrix(1.3333333,0,0,1.3333333,348.39867,726.95733)"
       style="fill:#5a9cfe">
      <path
         id="path130"
         d="m 4.4295156,-7.9338203 0.035156,-0.3398438 h -0.28125 l -1.078125,0.035156 c -0.1875,0 -0.3984375,0 -0.9140625,-0.011719 l -0.7734375,-0.023437 -0.035156,0.3398438 0.5625,0.023437 c 0.2929688,0.011719 0.421875,0.1054687 0.421875,0.3164062 0,0.1757813 -0.035156,0.515625 -0.1054687,0.9140625 l -0.8789063,5.1796875 c -0.1992187,1.10156254 -0.2109375,1.11328129 -0.69140622,1.16015629 l -0.4921875,0.0351563 -0.046875,0.33984375 0.50390625,-0.01171875 C 1.2302969,0.01149219 1.5115469,-2.265625e-4 1.7342031,-2.265625e-4 L 2.8943594,0.03492969 h 0.3046875 l 0.035156,-0.33984375 -0.5859375,-0.0351563 c -0.3164062,-0.0234375 -0.421875,-0.10546875 -0.421875,-0.33984375 0,-0.0703125 0.011719,-0.19921875 0.023437,-0.2578125 l 0.515625,-3.12890629 c 1.7929688,2.0507812 2.0625,2.390625 3.3164063,4.10156254 L 6.9138906,-2.265625e-4 C 7.3357656,0.01149219 7.4060781,0.02321094 7.7224844,0.03492969 v -0.36328125 h -0.234375 c -0.28125,0 -0.515625,-0.140625 -0.7734375,-0.4453125 L 3.7732656,-4.3830391 7.2654531,-7.6525703 c 0.1875,-0.1757813 0.4453125,-0.2929688 0.6445313,-0.2929688 h 0.2578125 v -0.328125 l -0.28125,0.011719 c -0.2460938,0.011719 -0.4453125,0.023437 -0.5390625,0.023437 -0.1171875,0 -0.3046875,-0.011719 -0.5625,-0.023437 l -0.234375,-0.011719 v 0.3515625 c 0,0.09375 -0.1171875,0.2460938 -0.4570313,0.5859375 l -1.5234375,1.546875 c -0.5273437,0.5390625 -1.0195312,0.9726563 -1.78125,1.5703125 l 0.5390625,-3.1054687 c 0.082031,-0.4570313 0.1640625,-0.5390625 0.609375,-0.5742188 z m 0,0"
         style="fill:#5a9cfe;fill-opacity:1;fill-rule:nonzero;stroke:none" />
      <path
         id="path131"
         d="m -175.7199,1.4177422 3.2461,1.4765625 0.14062,-0.2695313 -3.375,-1.91015621 -3.38672,1.91015621 0.12891,0.2695313 z m 0,0"
         style="fill:#5a9cfe;fill-opacity:1;fill-rule:nonzero;stroke:none" />
      <path
         id="path132"
         d="m -176.26189,4.3298516 0.0352,-0.3398438 h -0.28125 l -1.07813,0.035156 c -0.1875,0 -0.39844,0 -0.91406,-0.011719 l -0.77344,-0.023437 -0.0352,0.3398438 0.5625,0.023437 c 0.29297,0.011719 0.42188,0.1054687 0.42188,0.3164062 0,0.1757813 -0.0352,0.515625 -0.10547,0.9140625 l -0.87891,5.1796877 c -0.19921,1.101563 -0.21093,1.113282 -0.6914,1.160157 l -0.49219,0.03516 -0.0469,0.339843 0.5039,-0.01172 c 0.57422,-0.01172 0.85547,-0.02344 1.07813,-0.02344 l 1.16015,0.03516 h 0.30469 l 0.0352,-0.339844 -0.58594,-0.03516 c -0.31641,-0.02344 -0.42188,-0.105469 -0.42188,-0.339844 0,-0.07031 0.0117,-0.199218 0.0234,-0.257813 l 0.51563,-3.1289054 c 1.79297,2.0507804 2.0625,2.3906254 3.3164,4.1015634 l 0.83203,-0.03516 c 0.42188,0.01172 0.49219,0.02344 0.8086,0.03516 V 11.93532 h -0.23438 c -0.28125,0 -0.51562,-0.140625 -0.77343,-0.445312 l -2.94141,-3.6093752 3.49219,-3.2695312 c 0.1875,-0.1757813 0.44531,-0.2929688 0.64453,-0.2929688 h 0.25781 v -0.328125 l -0.28125,0.011719 c -0.24609,0.011719 -0.44531,0.023437 -0.53906,0.023437 -0.11719,0 -0.30469,-0.011719 -0.5625,-0.023437 l -0.23438,-0.011719 v 0.3515625 c 0,0.09375 -0.11718,0.2460938 -0.45703,0.5859375 l -1.52344,1.546875 c -0.52734,0.5390625 -1.01953,0.9726563 -1.78125,1.5703125 l 0.53907,-3.1054687 c 0.082,-0.4570313 0.16406,-0.5390625 0.60937,-0.5742188 z m 0,0"
         style="fill:#5a9cfe;fill-opacity:1;fill-rule:nonzero;stroke:none" />
      <path
         id="path133"
         d="m -104.7863,-77.636945 0.44531,0.03516 c 0.49219,0.04687 0.5625,0.08203 0.57422,0.855469 -2.28516,0.210937 -3.58594,1.207031 -3.58594,2.765625 0,1.582031 1.28906,2.542968 3.58594,2.695312 -0.0117,0.761719 -0.0703,0.796875 -0.57422,0.832031 l -0.44531,0.03516 v 0.480468 c 1.00781,-0.02344 1.4414,-0.03516 1.85156,-0.03516 0.43359,0 0.85547,0.01172 1.86328,0.03516 v -0.480468 l -0.43359,-0.03516 c -0.50391,-0.03516 -0.57422,-0.07031 -0.57422,-0.84375 2.261715,-0.222656 3.574215,-1.21875 3.574215,-2.789062 0,-1.546875 -1.300781,-2.519531 -3.574215,-2.683594 0,-0.738281 0.0703,-0.785156 0.57422,-0.832031 l 0.43359,-0.03516 v -0.480469 c -1.00781,0.02344 -1.42969,0.03516 -1.86328,0.03516 -0.41016,0 -0.84375,-0.01172 -1.85156,-0.03516 z m 0.24609,5.414062 c -0.64453,-0.410156 -1.01953,-1.101562 -1.01953,-1.933594 0,-0.726562 0.29297,-1.289062 0.83203,-1.640625 0.26953,-0.164062 0.58594,-0.246093 0.96094,-0.292968 v 4.136718 c -0.29297,-0.03516 -0.55078,-0.117187 -0.77344,-0.269531 z m 3.21094,-3.621094 c 0.65625,0.421875 1.03125,1.066407 1.03125,1.921875 0,1.101563 -0.60938,1.722657 -1.78125,1.933594 v -4.101562 c 0.26953,0.03516 0.52734,0.117187 0.75,0.246093 z m 0,0"
         style="fill:#5a9cfe;fill-opacity:1;fill-rule:nonzero;stroke:none" />
      <path
         id="path134"
         d="m -94.362477,-73.837141 0.02344,-0.246093 h -0.210938 l -0.808593,0.02344 c -0.140625,0 -0.304688,0 -0.691407,-0.01172 l -0.574218,-0.01172 -0.02344,0.246093 0.421875,0.02344 c 0.210938,0 0.304688,0.07031 0.304688,0.234375 0,0.128906 -0.02344,0.386719 -0.07031,0.679687 l -0.65625,3.890625 c -0.152344,0.832032 -0.164062,0.84375 -0.527344,0.878907 l -0.363281,0.02344 -0.03516,0.246094 h 0.375 c 0.433594,-0.01172 0.632812,-0.02344 0.808594,-0.02344 l 0.867187,0.02344 h 0.234375 l 0.02344,-0.246094 -0.433594,-0.02344 c -0.246094,-0.02344 -0.328125,-0.08203 -0.328125,-0.269532 0,-0.04687 0.01172,-0.152343 0.02344,-0.1875 l 0.386719,-2.34375 c 1.335938,1.535157 1.546875,1.792969 2.484375,3.070313 l 0.621094,-0.02344 c 0.328125,0.01172 0.375,0.02344 0.609375,0.02344 v -0.269531 h -0.175781 c -0.210938,0 -0.386719,-0.105469 -0.574219,-0.339844 l -2.203125,-2.707031 2.613281,-2.449219 c 0.140625,-0.128906 0.328125,-0.222656 0.480469,-0.222656 h 0.1875 v -0.234375 h -0.199219 c -0.1875,0.01172 -0.328125,0.02344 -0.410156,0.02344 -0.08203,0 -0.222656,-0.01172 -0.410156,-0.02344 h -0.1875 v 0.257812 c 0,0.07031 -0.08203,0.1875 -0.339844,0.433594 l -1.148438,1.171875 c -0.386718,0.398437 -0.761718,0.726562 -1.335937,1.171875 l 0.410156,-2.332031 c 0.05859,-0.339844 0.117188,-0.398438 0.457031,-0.433594 z m 0,0"
         style="fill:#5a9cfe;fill-opacity:1;fill-rule:nonzero;stroke:none" />
    </g>
  </g>
</svg>
