<?xml version="1.0" encoding="UTF-8" standalone="no"?>
<!-- Created with Inkscape (http://www.inkscape.org/) -->

<svg
   version="1.1"
   id="svg1"
   width="387.28101"
   height="320.89835"
   viewBox="0 0 387.281 320.89833"
   sodipodi:docname="NUMPDE.pdf"
   xmlns:inkscape="http://www.inkscape.org/namespaces/inkscape"
   xmlns:sodipodi="http://sodipodi.sourceforge.net/DTD/sodipodi-0.dtd"
   xmlns="http://www.w3.org/2000/svg"
   xmlns:svg="http://www.w3.org/2000/svg">
  <defs
     id="defs1">
    <clipPath
       clipPathUnits="userSpaceOnUse"
       id="clipPath34">
      <path
         d="m 2527.38,4761.13 h 2908 v 2431.09 h -2908 z"
         transform="translate(0,2.5000001e-4)"
         id="path34" />
    </clipPath>
    <clipPath
       clipPathUnits="userSpaceOnUse"
       id="clipPath36">
      <path
         d="m 2527.38,4761.13 h 2908 v 2431.09 h -2908 z"
         transform="translate(0,2.5000001e-4)"
         id="path36" />
    </clipPath>
    <clipPath
       clipPathUnits="userSpaceOnUse"
       id="clipPath38">
      <path
         d="m 2527.38,4761.13 h 2908 v 2431.09 h -2908 z"
         transform="translate(0,2.5000001e-4)"
         id="path38" />
    </clipPath>
    <clipPath
       clipPathUnits="userSpaceOnUse"
       id="clipPath40">
      <path
         d="m 2527.38,4761.13 h 2908 v 2431.09 h -2908 z"
         transform="translate(0,2.5000001e-4)"
         id="path40" />
    </clipPath>
    <clipPath
       clipPathUnits="userSpaceOnUse"
       id="clipPath42">
      <path
         d="m 2527.38,4761.13 h 2908 v 2431.09 h -2908 z"
         transform="translate(0,2.5000001e-4)"
         id="path42" />
    </clipPath>
    <clipPath
       clipPathUnits="userSpaceOnUse"
       id="clipPath44">
      <path
         d="m 2527.38,4761.13 h 2908 v 2431.09 h -2908 z"
         transform="translate(0,2.5000001e-4)"
         id="path44" />
    </clipPath>
    <clipPath
       clipPathUnits="userSpaceOnUse"
       id="clipPath46">
      <path
         d="m 2527.38,4761.13 h 2908 v 2431.09 h -2908 z"
         transform="translate(0,2.5000001e-4)"
         id="path46" />
    </clipPath>
    <clipPath
       clipPathUnits="userSpaceOnUse"
       id="clipPath48">
      <path
         d="m 2527.38,4761.13 h 2908 v 2431.09 h -2908 z"
         transform="translate(0,2.5000001e-4)"
         id="path48" />
    </clipPath>
    <clipPath
       clipPathUnits="userSpaceOnUse"
       id="clipPath50">
      <path
         d="m 2527.38,4761.13 h 2908 v 2431.09 h -2908 z"
         transform="translate(0,2.5000001e-4)"
         id="path50" />
    </clipPath>
    <clipPath
       clipPathUnits="userSpaceOnUse"
       id="clipPath52">
      <path
         d="m 2527.38,4761.13 h 2908 v 2431.09 h -2908 z"
         transform="translate(0,2.5000001e-4)"
         id="path52" />
    </clipPath>
    <clipPath
       clipPathUnits="userSpaceOnUse"
       id="clipPath54">
      <path
         d="m 2527.38,4761.13 h 2908 v 2431.09 h -2908 z"
         transform="translate(0,2.5000001e-4)"
         id="path54" />
    </clipPath>
    <clipPath
       clipPathUnits="userSpaceOnUse"
       id="clipPath56">
      <path
         d="m 2527.38,4761.13 h 2908 v 2431.09 h -2908 z"
         transform="translate(0,2.5000001e-4)"
         id="path56" />
    </clipPath>
    <clipPath
       clipPathUnits="userSpaceOnUse"
       id="clipPath58">
      <path
         d="m 2527.38,4761.13 h 2908 v 2431.09 h -2908 z"
         transform="translate(0,2.5000001e-4)"
         id="path58" />
    </clipPath>
  </defs>
  <sodipodi:namedview
     id="namedview1"
     pagecolor="#505050"
     bordercolor="#eeeeee"
     borderopacity="1"
     inkscape:showpageshadow="0"
     inkscape:pageopacity="0"
     inkscape:pagecheckerboard="0"
     inkscape:deskcolor="#505050" />
  <g
     id="g1"
     inkscape:groupmode="layer"
     inkscape:label="164"
     transform="translate(-337.21283,-166.74755)">
    <path
       id="path33"
       d="M 4125.93,7131.02 2565.28,5526.41 5395.33,4801.04 Z"
       style="fill:none;stroke:#000000;stroke-width:2.74762;stroke-linecap:butt;stroke-linejoin:miter;stroke-miterlimit:10;stroke-dasharray:none;stroke-opacity:1"
       transform="matrix(0.13333333,0,0,-0.13333333,0,1122.6667)"
       clip-path="url(#clipPath34)" />
    <path
       id="path35"
       d="m 4162.93,7131.02 c 0,-20.43 -16.57,-37 -37,-37 -20.44,0 -37,16.57 -37,37 0,20.43 16.56,37 37,37 20.43,0 37,-16.57 37,-37"
       style="fill:#ff0000;fill-opacity:1;fill-rule:evenodd;stroke:none"
       transform="matrix(0.13333333,0,0,-0.13333333,0,1122.6667)"
       clip-path="url(#clipPath36)" />
    <path
       id="path37"
       d="m 4162.93,7131.02 c 0,-20.43 -16.57,-37 -37,-37 -20.44,0 -37,16.57 -37,37 0,20.43 16.56,37 37,37 20.43,0 37,-16.57 37,-37 z"
       style="fill:none;stroke:#ff0000;stroke-width:2.74762;stroke-linecap:butt;stroke-linejoin:miter;stroke-miterlimit:10;stroke-dasharray:none;stroke-opacity:1"
       transform="matrix(0.13333333,0,0,-0.13333333,0,1122.6667)"
       clip-path="url(#clipPath38)" />
    <path
       id="path39"
       d="m 5432.33,4801.04 c 0,-20.44 -16.57,-37.01 -37,-37.01 -20.44,0 -37,16.57 -37,37.01 0,20.43 16.56,37 37,37 20.43,0 37,-16.57 37,-37"
       style="fill:#ff0000;fill-opacity:1;fill-rule:evenodd;stroke:none"
       transform="matrix(0.13333333,0,0,-0.13333333,0,1122.6667)"
       clip-path="url(#clipPath40)" />
    <path
       id="path41"
       d="m 5432.33,4801.04 c 0,-20.44 -16.57,-37.01 -37,-37.01 -20.44,0 -37,16.57 -37,37.01 0,20.43 16.56,37 37,37 20.43,0 37,-16.57 37,-37 z"
       style="fill:none;stroke:#ff0000;stroke-width:2.74762;stroke-linecap:butt;stroke-linejoin:miter;stroke-miterlimit:10;stroke-dasharray:none;stroke-opacity:1"
       transform="matrix(0.13333333,0,0,-0.13333333,0,1122.6667)"
       clip-path="url(#clipPath42)" />
    <path
       id="path43"
       d="m 3358.43,6306.73 c 0,-19.22 -15.59,-34.8 -34.81,-34.8 -19.22,0 -34.8,15.58 -34.8,34.8 0,19.22 15.58,34.81 34.8,34.81 19.22,0 34.81,-15.59 34.81,-34.81"
       style="fill:#ff00ff;fill-opacity:1;fill-rule:evenodd;stroke:none"
       transform="matrix(0.13333333,0,0,-0.13333333,0,1122.6667)"
       clip-path="url(#clipPath44)" />
    <path
       id="path45"
       d="m 3358.43,6306.73 c 0,-19.22 -15.59,-34.8 -34.81,-34.8 -19.22,0 -34.8,15.58 -34.8,34.8 0,19.22 15.58,34.81 34.8,34.81 19.22,0 34.81,-15.59 34.81,-34.81 z"
       style="fill:none;stroke:#ff00ff;stroke-width:2.74762;stroke-linecap:butt;stroke-linejoin:miter;stroke-miterlimit:10;stroke-dasharray:none;stroke-opacity:1"
       transform="matrix(0.13333333,0,0,-0.13333333,0,1122.6667)"
       clip-path="url(#clipPath46)" />
    <path
       id="path47"
       d="m 4776.2,6004.49 c 0,-19.22 -15.59,-34.8 -34.81,-34.8 -19.21,0 -34.8,15.58 -34.8,34.8 0,19.22 15.59,34.81 34.8,34.81 19.22,0 34.81,-15.59 34.81,-34.81"
       style="fill:#ff00ff;fill-opacity:1;fill-rule:evenodd;stroke:none"
       transform="matrix(0.13333333,0,0,-0.13333333,0,1122.6667)"
       clip-path="url(#clipPath48)" />
    <path
       id="path49"
       d="m 4776.2,6004.49 c 0,-19.22 -15.59,-34.8 -34.81,-34.8 -19.21,0 -34.8,15.58 -34.8,34.8 0,19.22 15.59,34.81 34.8,34.81 19.22,0 34.81,-15.59 34.81,-34.81 z"
       style="fill:none;stroke:#ff00ff;stroke-width:2.74762;stroke-linecap:butt;stroke-linejoin:miter;stroke-miterlimit:10;stroke-dasharray:none;stroke-opacity:1"
       transform="matrix(0.13333333,0,0,-0.13333333,0,1122.6667)"
       clip-path="url(#clipPath50)" />
    <path
       id="path51"
       d="m 3918.94,5191.2 c 0,-19.22 -15.58,-34.81 -34.8,-34.81 -19.22,0 -34.81,15.59 -34.81,34.81 0,19.21 15.59,34.8 34.81,34.8 19.22,0 34.8,-15.59 34.8,-34.8"
       style="fill:#ff00ff;fill-opacity:1;fill-rule:evenodd;stroke:none"
       transform="matrix(0.13333333,0,0,-0.13333333,0,1122.6667)"
       clip-path="url(#clipPath52)" />
    <path
       id="path53"
       d="m 3918.94,5191.2 c 0,-19.22 -15.58,-34.81 -34.8,-34.81 -19.22,0 -34.81,15.59 -34.81,34.81 0,19.21 15.59,34.8 34.81,34.8 19.22,0 34.8,-15.59 34.8,-34.8 z"
       style="fill:none;stroke:#ff00ff;stroke-width:2.74762;stroke-linecap:butt;stroke-linejoin:miter;stroke-miterlimit:10;stroke-dasharray:none;stroke-opacity:1"
       transform="matrix(0.13333333,0,0,-0.13333333,0,1122.6667)"
       clip-path="url(#clipPath54)" />
    <path
       id="path55"
       d="m 2600.08,5526.41 c 0,-19.22 -15.58,-34.81 -34.8,-34.81 -19.22,0 -34.81,15.59 -34.81,34.81 0,19.22 15.59,34.8 34.81,34.8 19.22,0 34.8,-15.58 34.8,-34.8"
       style="fill:#ff0000;fill-opacity:1;fill-rule:evenodd;stroke:none"
       transform="matrix(0.13333333,0,0,-0.13333333,0,1122.6667)"
       clip-path="url(#clipPath56)" />
    <path
       id="path57"
       d="m 2600.08,5526.41 c 0,-19.22 -15.58,-34.81 -34.8,-34.81 -19.22,0 -34.81,15.59 -34.81,34.81 0,19.22 15.59,34.8 34.81,34.8 19.22,0 34.8,-15.58 34.8,-34.8 z"
       style="fill:none;stroke:#ff0000;stroke-width:2.74762;stroke-linecap:butt;stroke-linejoin:miter;stroke-miterlimit:10;stroke-dasharray:none;stroke-opacity:1"
       transform="matrix(0.13333333,0,0,-0.13333333,0,1122.6667)"
       clip-path="url(#clipPath58)" />
    <path
       id="path59"
       d="m 4.7941563,-8.4381719 c -2.4257813,0 -4.3710938,1.8867188 -4.3710938,4.2539063 0,2.4140625 1.9101563,4.33593748 4.3007813,4.33593748 2.3789062,0 4.3007812,-1.92187498 4.3007812,-4.30078128 0,-2.34375 -1.921875,-4.2890625 -4.2304687,-4.2890625 z M 5.3215,-7.1842656 v 5.7773437 H 4.2316563 V -5.6608281 H 3.0832188 v -0.65625 c 1.0429687,0.011719 1.3125,-0.1523438 1.4648437,-0.8671875 z M 256.9963,57.506164 c -2.42578,0 -4.37109,1.898438 -4.37109,4.265625 0,2.402344 1.91016,4.324219 4.30078,4.324219 2.37891,0 4.30078,-1.921875 4.30078,-4.300781 0,-2.332032 -1.92187,-4.289063 -4.23047,-4.289063 z m 1.80469,6.246094 v 0.785156 h -3.77344 c -0.0117,-0.117187 -0.0234,-0.210937 -0.0234,-0.257812 0,-0.363282 0.16406,-0.761719 0.43359,-1.113282 0.26953,-0.316406 0.48047,-0.480468 1.05469,-0.855468 1.00781,-0.644532 1.30078,-1.042969 1.30078,-1.734375 0,-0.679688 -0.375,-1.148438 -0.92578,-1.148438 -0.55078,0 -0.90235,0.457031 -0.90235,1.183594 0,0.04687 0,0.128906 0.0117,0.234375 l -1.04297,-0.09375 c -0.0117,-0.09375 -0.0117,-0.1875 -0.0117,-0.234375 0,-1.042969 0.83203,-1.804688 1.95703,-1.804688 1.17187,0 2.01562,0.785157 2.01562,1.863282 0,0.714843 -0.3164,1.265625 -1.05469,1.828125 -0.23437,0.175781 -0.52734,0.386718 -0.8789,0.621093 -0.5625,0.375 -0.69141,0.492188 -0.8086,0.726563 z M 143.88693,-148.56512 c -2.42578,0 -4.37109,1.89843 -4.37109,4.26562 0,2.40234 1.91015,4.32422 4.30078,4.32422 2.3789,0 4.30078,-1.92188 4.30078,-4.30078 0,-2.33203 -1.92188,-4.28906 -4.23047,-4.28906 z m -1.88672,2.85937 c 0.0234,-0.46875 0.082,-0.72656 0.25781,-0.98437 0.29297,-0.4336 0.87891,-0.70313 1.52344,-0.70313 1.05469,0 1.82813,0.69141 1.82813,1.64063 0,0.52734 -0.22266,0.9375 -0.69141,1.19531 0.19922,0.11719 0.32812,0.21094 0.42187,0.28125 0.28125,0.24609 0.4336,0.63281 0.4336,1.10156 0,1.04297 -0.79688,1.78125 -1.94531,1.78125 -1.07813,0 -1.85157,-0.65625 -1.85157,-1.59375 0,-0.0352 0.0117,-0.16406 0.0234,-0.25781 l 0.97266,-0.22266 c -0.0117,0.0937 -0.0117,0.19922 -0.0117,0.22266 0,0.65625 0.3164,1.00781 0.8789,1.00781 0.53907,0 0.89063,-0.38672 0.89063,-0.98437 0,-0.60938 -0.36328,-0.96094 -1.00781,-0.96094 -0.15235,0 -0.29297,0.0117 -0.59766,0.0351 v -0.72656 c 0.26953,0.0234 0.375,0.0352 0.44531,0.0352 0.63282,0 1.00782,-0.33985 1.00782,-0.89063 0,-0.59765 -0.28125,-0.94922 -0.79688,-0.94922 -0.29297,0 -0.52734,0.11719 -0.65625,0.33985 -0.10547,0.16406 -0.15234,0.3164 -0.15234,0.73828 z m 0,0"
       style="fill:#cbbbe9;fill-opacity:1;fill-rule:nonzero;stroke:none"
       aria-label="➊&#10;➋&#10;➌"
       transform="matrix(1.3333333,0,0,1.3333333,360.65467,382.14933)" />
    <g
       id="g59"
       aria-label="A&#10;K&#10;=&#10;&#10;&#10;a&#10;11&#10;a&#10;12&#10;a&#10;13&#10;a&#10;21&#10;a&#10;22&#10;a&#10;23&#10;a&#10;31&#10;a&#10;32&#10;a&#10;33&#10;&#10;"
       transform="matrix(1.3333333,0,0,1.3333333,443.096,344.96533)"
       style="fill:#5a9cfe">
      <path
         id="path60"
         d="m 5.6028047,-2.4613047 0.5390625,1.359375 c 0.046875,0.11718751 0.070312,0.24609376 0.070312,0.33984376 0,0.17578125 -0.1054688,0.3046875 -0.234375,0.31640625 l -0.6328125,0.0351563 v 0.4453125 C 7.0207734,-3.671875e-4 7.0207734,-3.671875e-4 7.1613984,-3.671875e-4 c 0.1289063,0 0.1289063,0 1.8867188,0.0351562475 v -0.4453125 l -0.28125,-0.0351563 c -0.3398438,-0.046875 -0.5039063,-0.17578125 -0.65625,-0.52734375 L 5.0051484,-8.2034922 h -0.84375 c -0.1640625,0.4453125 -0.2929687,0.7734375 -0.3398437,0.9023438 -0.1640625,0.46875 -0.28125,0.7734375 -0.3398438,0.9023437 l -2.1679687,5.2382813 c -0.1992188,0.46874996 -0.39843751,0.69140621 -0.66796876,0.71484371 l -0.36328125,0.0351563 v 0.4453125 C 0.59889844,0.02307031 0.86842969,0.02307031 0.97389844,0.01135156 1.3020234,-3.671875e-4 1.5363984,-3.671875e-4 1.6418672,-3.671875e-4 c 0.1054687,0 0.328125,0 0.6679687,0.0117187475 0.1054688,0.01171875 0.3515625,0.01171875 0.6796875,0.0234375 v -0.4453125 l -0.5976562,-0.0351563 c -0.1992188,-0.0117188 -0.3515625,-0.17578125 -0.3515625,-0.375 0,-0.09375 0.023437,-0.21093746 0.070312,-0.30468746 l 0.4921875,-1.3359376 z m -1.5117188,-3.703125 1.2421875,3.0351563 h -2.4375 z m 0,0"
         style="fill:#5a9cfe;fill-opacity:1;fill-rule:nonzero;stroke:none" />
      <path
         id="path61"
         d="m 12.894797,-3.864625 0.02344,-0.2460937 H 12.7073 l -0.808594,0.023437 c -0.140625,0 -0.304687,0 -0.691406,-0.011719 l -0.574219,-0.011719 -0.02344,0.2460937 0.421875,0.023437 c 0.210937,0 0.304687,0.070312 0.304687,0.234375 0,0.1289063 -0.02344,0.3867188 -0.07031,0.6796875 L 10.609641,0.9635 C 10.457297,1.7955313 10.445578,1.80725 10.082297,1.8424063 L 9.7190156,1.8658438 9.6838594,2.1119375 H 10.058859 C 10.492453,2.1002188 10.691672,2.0885 10.867453,2.0885 l 0.867188,0.023437 h 0.234375 l 0.02344,-0.2460937 -0.433594,-0.023437 C 11.312766,1.8189688 11.230734,1.760375 11.230734,1.572875 c 0,-0.046875 0.01172,-0.1523437 0.02344,-0.1875 l 0.386719,-2.34375 c 1.335937,1.53515625 1.546875,1.79296875 2.484375,3.0703125 L 14.746359,2.0885 c 0.328125,0.011719 0.375,0.023437 0.609375,0.023437 V 1.8424063 h -0.175781 c -0.210937,0 -0.386719,-0.1054688 -0.574219,-0.3398438 l -2.203125,-2.7070312 2.613282,-2.4492188 c 0.140625,-0.1289062 0.328125,-0.2226562 0.480468,-0.2226562 h 0.1875 v -0.234375 h -0.199218 c -0.1875,0.011719 -0.328125,0.023437 -0.410157,0.023437 -0.08203,0 -0.222656,-0.011719 -0.410156,-0.023437 h -0.1875 v 0.2578125 c 0,0.070312 -0.08203,0.1875 -0.339844,0.4335937 l -1.148437,1.171875 C 12.601828,-1.849 12.226828,-1.520875 11.652609,-1.0755625 l 0.410157,-2.3320312 c 0.05859,-0.3398438 0.117187,-0.3984375 0.457031,-0.4335938 z m 0,0"
         style="fill:#5a9cfe;fill-opacity:1;fill-rule:nonzero;stroke:none" />
      <path
         id="path62"
         d="m 28.328391,-4.0784922 c 0.1875,0 0.421875,0 0.421875,-0.2460937 0,-0.2460938 -0.234375,-0.2460938 -0.410157,-0.2460938 h -7.453125 c -0.175781,0 -0.410156,0 -0.410156,0.2460938 0,0.2460937 0.234375,0.2460937 0.421875,0.2460937 z m 0.01172,2.4257813 c 0.175782,0 0.410157,0 0.410157,-0.2578125 0,-0.2460938 -0.234375,-0.2460938 -0.421875,-0.2460938 h -7.429688 c -0.1875,0 -0.421875,0 -0.421875,0.2460938 0,0.2578125 0.234375,0.2578125 0.410156,0.2578125 z m 0,0"
         style="fill:#5a9cfe;fill-opacity:1;fill-rule:nonzero;stroke:none" />
      <path
         id="path63"
         d="M 36.985617,-2.9945078 H 37.80593 V -23.666383 h 3.152343 v -0.832031 h -3.972656 z m 0,21.4892578 h 3.972656 V 17.674438 H 37.80593 V -3.0091562 h -0.820313 z m 0,0"
         style="fill:#5a9cfe;fill-opacity:1;fill-rule:nonzero;stroke:none" />
      <path
         id="path64"
         d="m 46.322531,-20.188844 -0.117187,-0.117187 -0.398438,0.222656 c -0.492187,-0.1875 -0.691406,-0.234375 -1.019531,-0.234375 -0.328125,0 -0.5625,0.05859 -0.890625,0.222656 -0.738281,0.363282 -1.136719,0.726563 -1.429688,1.3125 -0.527343,1.066407 -0.902343,2.496094 -0.902343,3.433594 0,0.527344 0.175781,0.925781 0.410156,0.925781 0.257812,0 0.714844,-0.257812 1.171875,-0.667968 0.503906,-0.457032 0.960937,-0.996094 1.605469,-1.898438 l -0.339844,1.511719 c -0.04687,0.210937 -0.07031,0.421875 -0.07031,0.609375 0,0.269531 0.105469,0.421875 0.28125,0.421875 0.28125,0 0.761719,-0.304688 1.746094,-1.125 l -0.08203,-0.246094 c -0.07031,0.05859 -0.105469,0.08203 -0.152344,0.128906 -0.386719,0.328125 -0.5625,0.433594 -0.75,0.433594 -0.105469,0 -0.175781,-0.105469 -0.175781,-0.28125 0,-0.05859 0,-0.09375 0.01172,-0.128906 z m -0.996094,0.691407 c -0.257812,1.300781 -0.480468,1.921875 -0.890625,2.542968 -0.679687,1.007813 -1.40625,1.699219 -1.792968,1.699219 -0.140625,0 -0.210938,-0.152344 -0.210938,-0.480469 0,-0.761718 0.328125,-2.167968 0.75,-3.117187 0.28125,-0.65625 0.5625,-0.878906 1.136719,-0.878906 0.269531,0 0.492187,0.04687 1.007812,0.234375 z m 0,0"
         style="fill:#5a9cfe;fill-opacity:1;fill-rule:nonzero;stroke:none" />
      <path
         id="path65"
         d="m 47.576437,-17.382203 h 0.09375 l 1.160157,-0.515625 c 0,-0.01172 0.01172,-0.01172 0.02344,-0.01172 0.04687,0 0.07031,0.08203 0.07031,0.304688 v 4.347656 c 0,0.457031 -0.09375,0.5625 -0.585938,0.585937 l -0.503906,0.02344 v 0.269531 c 1.382812,-0.02344 1.382812,-0.02344 1.488281,-0.02344 0.117188,0 0.304688,0 0.609375,0.01172 0.117188,0.01172 0.421875,0.01172 0.796875,0.01172 v -0.269531 l -0.46875,-0.02344 c -0.492187,-0.02344 -0.585937,-0.128906 -0.585937,-0.585937 v -5.320313 l -0.117188,-0.04687 c -0.585937,0.304688 -1.21875,0.574219 -2.039062,0.867188 z m 4.482422,0 h 0.09375 l 1.160157,-0.515625 c 0,-0.01172 0.01172,-0.01172 0.02344,-0.01172 0.04687,0 0.07031,0.08203 0.07031,0.304688 v 4.347656 c 0,0.457031 -0.09375,0.5625 -0.585938,0.585937 l -0.503906,0.02344 v 0.269531 c 1.382812,-0.02344 1.382812,-0.02344 1.488281,-0.02344 0.117188,0 0.304688,0 0.609375,0.01172 0.117188,0.01172 0.421875,0.01172 0.796875,0.01172 v -0.269531 l -0.46875,-0.02344 c -0.492187,-0.02344 -0.585937,-0.128906 -0.585937,-0.585937 v -5.320313 l -0.117188,-0.04687 c -0.585937,0.304688 -1.21875,0.574219 -2.039062,0.867188 z m 0,0"
         style="fill:#5a9cfe;fill-opacity:1;fill-rule:nonzero;stroke:none" />
      <path
         id="path66"
         d="m 71.541281,-20.188844 -0.117187,-0.117187 -0.398438,0.222656 c -0.492187,-0.1875 -0.691406,-0.234375 -1.019531,-0.234375 -0.328125,0 -0.5625,0.05859 -0.890625,0.222656 -0.738281,0.363282 -1.136719,0.726563 -1.429688,1.3125 -0.527343,1.066407 -0.902343,2.496094 -0.902343,3.433594 0,0.527344 0.175781,0.925781 0.410156,0.925781 0.257812,0 0.714844,-0.257812 1.171875,-0.667968 0.503906,-0.457032 0.960937,-0.996094 1.605469,-1.898438 l -0.339844,1.511719 c -0.04687,0.210937 -0.07031,0.421875 -0.07031,0.609375 0,0.269531 0.105469,0.421875 0.28125,0.421875 0.28125,0 0.761719,-0.304688 1.746094,-1.125 l -0.08203,-0.246094 c -0.07031,0.05859 -0.105469,0.08203 -0.152344,0.128906 -0.386719,0.328125 -0.5625,0.433594 -0.75,0.433594 -0.105469,0 -0.175781,-0.105469 -0.175781,-0.28125 0,-0.05859 0,-0.09375 0.01172,-0.128906 z m -0.996094,0.691407 c -0.257812,1.300781 -0.480468,1.921875 -0.890625,2.542968 -0.679687,1.007813 -1.40625,1.699219 -1.792968,1.699219 -0.140625,0 -0.210938,-0.152344 -0.210938,-0.480469 0,-0.761718 0.328125,-2.167968 0.75,-3.117187 0.28125,-0.65625 0.5625,-0.878906 1.136719,-0.878906 0.269531,0 0.492187,0.04687 1.007812,0.234375 z m 0,0"
         style="fill:#5a9cfe;fill-opacity:1;fill-rule:nonzero;stroke:none" />
      <path
         id="path67"
         d="m 72.795187,-17.382203 h 0.09375 l 1.160157,-0.515625 c 0,-0.01172 0.01172,-0.01172 0.02344,-0.01172 0.04687,0 0.07031,0.08203 0.07031,0.304688 v 4.347656 c 0,0.457031 -0.09375,0.5625 -0.585938,0.585937 l -0.503906,0.02344 v 0.269531 c 1.382812,-0.02344 1.382812,-0.02344 1.488281,-0.02344 0.117188,0 0.304688,0 0.609375,0.01172 0.117188,0.01172 0.421875,0.01172 0.796875,0.01172 v -0.269531 l -0.46875,-0.02344 c -0.492187,-0.02344 -0.585937,-0.128906 -0.585937,-0.585937 v -5.320313 l -0.117188,-0.04687 c -0.585937,0.304688 -1.21875,0.574219 -2.039062,0.867188 z m 4.025391,4.769531 v 0.234375 c 1.675781,-0.02344 1.675781,-0.02344 2.003906,-0.02344 0.316407,0 0.316407,0 2.050782,0.02344 -0.02344,-0.1875 -0.02344,-0.269531 -0.02344,-0.398437 0,-0.117188 0,-0.210938 0.02344,-0.410157 -1.03125,0.04687 -1.441407,0.05859 -3.105469,0.09375 l 1.640625,-1.734375 c 0.867187,-0.914062 1.136719,-1.40625 1.136719,-2.085937 0,-1.03125 -0.703125,-1.664063 -1.839844,-1.664063 -0.644531,0 -1.089844,0.175782 -1.523438,0.621094 l -0.152343,1.230469 h 0.257812 l 0.117188,-0.421875 c 0.140625,-0.515625 0.46875,-0.738281 1.066406,-0.738281 0.773437,0 1.265625,0.480468 1.265625,1.242187 0,0.679688 -0.375,1.335938 -1.394531,2.414063 z m 0,0"
         style="fill:#5a9cfe;fill-opacity:1;fill-rule:nonzero;stroke:none" />
      <path
         id="path68"
         d="m 96.748312,-20.188844 -0.117187,-0.117187 -0.398438,0.222656 c -0.492187,-0.1875 -0.691406,-0.234375 -1.019531,-0.234375 -0.328125,0 -0.5625,0.05859 -0.890625,0.222656 -0.738281,0.363282 -1.136719,0.726563 -1.429687,1.3125 C 92.3655,-17.716187 91.9905,-16.2865 91.9905,-15.349 c 0,0.527344 0.175781,0.925781 0.410156,0.925781 0.257813,0 0.714844,-0.257812 1.171875,-0.667968 0.503906,-0.457032 0.960938,-0.996094 1.605469,-1.898438 l -0.339844,1.511719 c -0.04687,0.210937 -0.07031,0.421875 -0.07031,0.609375 0,0.269531 0.105468,0.421875 0.28125,0.421875 0.28125,0 0.761718,-0.304688 1.746093,-1.125 l -0.08203,-0.246094 c -0.07031,0.05859 -0.105469,0.08203 -0.152344,0.128906 -0.386718,0.328125 -0.5625,0.433594 -0.75,0.433594 -0.105468,0 -0.175781,-0.105469 -0.175781,-0.28125 0,-0.05859 0,-0.09375 0.01172,-0.128906 z m -0.996093,0.691407 c -0.257813,1.300781 -0.480469,1.921875 -0.890625,2.542968 -0.679688,1.007813 -1.40625,1.699219 -1.792969,1.699219 -0.140625,0 -0.210938,-0.152344 -0.210938,-0.480469 0,-0.761718 0.328125,-2.167968 0.75,-3.117187 0.28125,-0.65625 0.5625,-0.878906 1.136719,-0.878906 0.269531,0 0.492188,0.04687 1.007813,0.234375 z m 0,0"
         style="fill:#5a9cfe;fill-opacity:1;fill-rule:nonzero;stroke:none" />
      <path
         id="path69"
         d="m 98.005148,-17.382203 h 0.09375 l 1.160157,-0.515625 c 0,-0.01172 0.01172,-0.01172 0.02344,-0.01172 0.04687,0 0.07031,0.08203 0.07031,0.304688 v 4.347656 c 0,0.457031 -0.09375,0.5625 -0.585938,0.585937 l -0.503906,0.02344 v 0.269531 c 1.382812,-0.02344 1.382812,-0.02344 1.488281,-0.02344 0.117188,0 0.304688,0 0.609378,0.01172 0.11718,0.01172 0.42187,0.01172 0.79687,0.01172 v -0.269531 l -0.46875,-0.02344 c -0.49219,-0.02344 -0.58594,-0.128906 -0.58594,-0.585937 v -5.320313 l -0.117183,-0.04687 c -0.585937,0.304688 -1.21875,0.574219 -2.039062,0.867188 z m 4.271482,0.515625 h 0.28125 l 0.15235,-0.503906 c 0.10547,-0.304688 0.66797,-0.609375 1.13672,-0.609375 0.57421,0 1.05468,0.480468 1.05468,1.042968 0,0.667969 -0.52734,1.230469 -1.16015,1.230469 -0.082,0 -0.17578,0 -0.29297,-0.01172 l -0.12891,-0.01172 -0.11719,0.480468 0.0703,0.04687 c 0.33984,-0.152343 0.5039,-0.199218 0.75,-0.199218 0.75,0 1.17187,0.480468 1.17187,1.300781 0,0.914062 -0.53906,1.511719 -1.38281,1.511719 -0.41016,0 -0.77344,-0.140625 -1.04297,-0.386719 -0.21094,-0.199219 -0.32812,-0.398438 -0.50391,-0.890625 l -0.24609,0.09375 c 0.19922,0.550781 0.26953,0.867187 0.31641,1.3125 0.48047,0.164062 0.86718,0.234375 1.20703,0.234375 0.71484,0 1.53515,-0.398438 2.02734,-0.996094 0.30469,-0.375 0.45703,-0.761719 0.45703,-1.183594 0,-0.433593 -0.17578,-0.808593 -0.49218,-1.03125 -0.23438,-0.164062 -0.4336,-0.234375 -0.87891,-0.316406 0.71484,-0.5625 0.98437,-0.972656 0.98437,-1.5 0,-0.796875 -0.66796,-1.324219 -1.66406,-1.324219 -0.60937,0 -1.00781,0.164063 -1.4414,0.597657 z m 0,0"
         style="fill:#5a9cfe;fill-opacity:1;fill-rule:nonzero;stroke:none" />
      <path
         id="path70"
         d="m 46.322531,-5.7454844 -0.117187,-0.1171875 -0.398438,0.2226563 c -0.492187,-0.1875 -0.691406,-0.234375 -1.019531,-0.234375 -0.328125,0 -0.5625,0.058594 -0.890625,0.2226562 -0.738281,0.3632813 -1.136719,0.7265625 -1.429688,1.3125 -0.527343,1.0664063 -0.902343,2.4960938 -0.902343,3.43359378 0,0.52734375 0.175781,0.92578125 0.410156,0.92578125 0.257812,0 0.714844,-0.2578125 1.171875,-0.66796875 0.503906,-0.45703128 0.960937,-0.99609378 1.605469,-1.89843748 l -0.339844,1.5117187 c -0.04687,0.21093753 -0.07031,0.42187503 -0.07031,0.60937503 0,0.26953125 0.105469,0.421875 0.28125,0.421875 0.28125,0 0.761719,-0.3046875 1.746094,-1.12500003 l -0.08203,-0.2460937 c -0.07031,0.058594 -0.105469,0.082031 -0.152344,0.1289062 -0.386719,0.32812503 -0.5625,0.43359378 -0.75,0.43359378 -0.105469,0 -0.175781,-0.10546875 -0.175781,-0.28124998 0,-0.058594 0,-0.09375 0.01172,-0.1289063 z m -0.996094,0.6914063 c -0.257812,1.3007812 -0.480468,1.921875 -0.890625,2.5429687 -0.679687,1.0078125 -1.40625,1.69921878 -1.792968,1.69921878 -0.140625,0 -0.210938,-0.15234375 -0.210938,-0.48046878 0,-0.7617187 0.328125,-2.1679687 0.75,-3.1171875 0.28125,-0.65625 0.5625,-0.8789062 1.136719,-0.8789062 0.269531,0 0.492187,0.046875 1.007812,0.234375 z m 0,0"
         style="fill:#5a9cfe;fill-opacity:1;fill-rule:nonzero;stroke:none" />
      <path
         id="path71"
         d="m 47.119406,1.8306875 v 0.234375 c 1.675781,-0.023437 1.675781,-0.023437 2.003906,-0.023437 0.316407,0 0.316407,0 2.050782,0.023437 -0.02344,-0.1875 -0.02344,-0.2695312 -0.02344,-0.3984375 0,-0.1171875 0,-0.2109375 0.02344,-0.4101562 -1.03125,0.046875 -1.441407,0.058594 -3.105469,0.09375 l 1.640625,-1.73437505 c 0.867187,-0.91406245 1.136719,-1.40624995 1.136719,-2.08593745 0,-1.03125 -0.703125,-1.6640625 -1.839844,-1.6640625 -0.644531,0 -1.089844,0.1757812 -1.523438,0.6210937 l -0.152343,1.2304688 h 0.257812 l 0.117188,-0.421875 c 0.140625,-0.515625 0.46875,-0.7382813 1.066406,-0.7382813 0.773437,0 1.265625,0.4804688 1.265625,1.2421875 0,0.6796875 -0.375,1.3359375 -1.394531,2.4140625 z m 4.939453,-4.7695312 h 0.09375 l 1.160157,-0.515625 c 0,-0.011719 0.01172,-0.011719 0.02344,-0.011719 0.04687,0 0.07031,0.082031 0.07031,0.3046875 v 4.3476563 c 0,0.4570312 -0.09375,0.5625 -0.585938,0.5859375 l -0.503906,0.023437 v 0.2695312 c 1.382812,-0.023437 1.382812,-0.023437 1.488281,-0.023437 0.117188,0 0.304688,0 0.609375,0.011719 0.117188,0.011719 0.421875,0.011719 0.796875,0.011719 V 1.7955313 l -0.46875,-0.023437 C 54.250266,1.7486563 54.156516,1.6431875 54.156516,1.1861563 v -5.3203125 l -0.117188,-0.046875 c -0.585937,0.3046875 -1.21875,0.5742187 -2.039062,0.8671875 z m 0,0"
         style="fill:#5a9cfe;fill-opacity:1;fill-rule:nonzero;stroke:none" />
      <path
         id="path72"
         d="m 71.541281,-5.7454844 -0.117187,-0.1171875 -0.398438,0.2226563 c -0.492187,-0.1875 -0.691406,-0.234375 -1.019531,-0.234375 -0.328125,0 -0.5625,0.058594 -0.890625,0.2226562 -0.738281,0.3632813 -1.136719,0.7265625 -1.429688,1.3125 -0.527343,1.0664063 -0.902343,2.4960938 -0.902343,3.43359378 0,0.52734375 0.175781,0.92578125 0.410156,0.92578125 0.257812,0 0.714844,-0.2578125 1.171875,-0.66796875 0.503906,-0.45703128 0.960937,-0.99609378 1.605469,-1.89843748 l -0.339844,1.5117187 c -0.04687,0.21093753 -0.07031,0.42187503 -0.07031,0.60937503 0,0.26953125 0.105469,0.421875 0.28125,0.421875 0.28125,0 0.761719,-0.3046875 1.746094,-1.12500003 l -0.08203,-0.2460937 c -0.07031,0.058594 -0.105469,0.082031 -0.152344,0.1289062 -0.386719,0.32812503 -0.5625,0.43359378 -0.75,0.43359378 -0.105469,0 -0.175781,-0.10546875 -0.175781,-0.28124998 0,-0.058594 0,-0.09375 0.01172,-0.1289063 z m -0.996094,0.6914063 c -0.257812,1.3007812 -0.480468,1.921875 -0.890625,2.5429687 -0.679687,1.0078125 -1.40625,1.69921878 -1.792968,1.69921878 -0.140625,0 -0.210938,-0.15234375 -0.210938,-0.48046878 0,-0.7617187 0.328125,-2.1679687 0.75,-3.1171875 0.28125,-0.65625 0.5625,-0.8789062 1.136719,-0.8789062 0.269531,0 0.492187,0.046875 1.007812,0.234375 z m 0,0"
         style="fill:#5a9cfe;fill-opacity:1;fill-rule:nonzero;stroke:none" />
      <path
         id="path73"
         d="m 72.338156,1.6959219 v 0.234375 c 1.675781,-0.023437 1.675781,-0.023437 2.003906,-0.023437 0.316407,0 0.316407,0 2.050782,0.023437 -0.02344,-0.1875 -0.02344,-0.2695313 -0.02344,-0.3984375 0,-0.1171875 0,-0.2109375 0.02344,-0.4101563 -1.03125,0.046875 -1.441407,0.058594 -3.105469,0.09375 L 74.928,-0.51892187 c 0.867187,-0.91406253 1.136719,-1.40625003 1.136719,-2.08593753 0,-1.03125 -0.703125,-1.6640625 -1.839844,-1.6640625 -0.644531,0 -1.089844,0.1757813 -1.523438,0.6210938 l -0.152343,1.2304687 h 0.257812 l 0.117188,-0.421875 c 0.140625,-0.515625 0.46875,-0.7382812 1.066406,-0.7382812 0.773437,0 1.265625,0.4804687 1.265625,1.2421875 0,0.6796875 -0.375,1.33593748 -1.394531,2.41406248 z m 4.482422,0 v 0.234375 c 1.675781,-0.023437 1.675781,-0.023437 2.003906,-0.023437 0.316407,0 0.316407,0 2.050782,0.023437 -0.02344,-0.1875 -0.02344,-0.2695313 -0.02344,-0.3984375 0,-0.1171875 0,-0.2109375 0.02344,-0.4101563 -1.03125,0.046875 -1.441407,0.058594 -3.105469,0.09375 l 1.640625,-1.73437497 c 0.867187,-0.91406253 1.136719,-1.40625003 1.136719,-2.08593753 0,-1.03125 -0.703125,-1.6640625 -1.839844,-1.6640625 -0.644531,0 -1.089844,0.1757813 -1.523438,0.6210938 l -0.152343,1.2304687 h 0.257812 l 0.117188,-0.421875 c 0.140625,-0.515625 0.46875,-0.7382812 1.066406,-0.7382812 0.773437,0 1.265625,0.4804687 1.265625,1.2421875 0,0.6796875 -0.375,1.33593748 -1.394531,2.41406248 z m 0,0"
         style="fill:#5a9cfe;fill-opacity:1;fill-rule:nonzero;stroke:none" />
      <path
         id="path74"
         d="m 96.748312,-5.7454844 -0.117187,-0.1171875 -0.398438,0.2226563 c -0.492187,-0.1875 -0.691406,-0.234375 -1.019531,-0.234375 -0.328125,0 -0.5625,0.058594 -0.890625,0.2226562 -0.738281,0.3632813 -1.136719,0.7265625 -1.429687,1.3125 -0.527344,1.0664063 -0.902344,2.4960938 -0.902344,3.43359378 0,0.52734375 0.175781,0.92578125 0.410156,0.92578125 0.257813,0 0.714844,-0.2578125 1.171875,-0.66796875 C 94.076437,-1.1048594 94.533469,-1.6439219 95.178,-2.5462656 l -0.339844,1.5117187 c -0.04687,0.21093753 -0.07031,0.42187503 -0.07031,0.60937503 0,0.26953125 0.105468,0.421875 0.28125,0.421875 0.28125,0 0.761718,-0.3046875 1.746093,-1.12500003 l -0.08203,-0.2460937 c -0.07031,0.058594 -0.105469,0.082031 -0.152344,0.1289062 -0.386718,0.32812503 -0.5625,0.43359378 -0.75,0.43359378 -0.105468,0 -0.175781,-0.10546875 -0.175781,-0.28124998 0,-0.058594 0,-0.09375 0.01172,-0.1289063 z m -0.996093,0.6914063 c -0.257813,1.3007812 -0.480469,1.921875 -0.890625,2.5429687 -0.679688,1.0078125 -1.40625,1.69921878 -1.792969,1.69921878 -0.140625,0 -0.210938,-0.15234375 -0.210938,-0.48046878 0,-0.7617187 0.328125,-2.1679687 0.75,-3.1171875 0.28125,-0.65625 0.5625,-0.8789062 1.136719,-0.8789062 0.269531,0 0.492188,0.046875 1.007813,0.234375 z m 0,0"
         style="fill:#5a9cfe;fill-opacity:1;fill-rule:nonzero;stroke:none" />
      <path
         id="path75"
         d="m 97.548117,1.6959219 v 0.234375 c 1.675781,-0.023437 1.675781,-0.023437 2.003906,-0.023437 0.316407,0 0.316407,0 2.050777,0.023437 -0.0234,-0.1875 -0.0234,-0.2695313 -0.0234,-0.3984375 0,-0.1171875 0,-0.2109375 0.0234,-0.4101563 -1.03125,0.046875 -1.4414,0.058594 -3.105464,0.09375 l 1.640624,-1.73437497 c 0.86719,-0.91406253 1.13672,-1.40625003 1.13672,-2.08593753 0,-1.03125 -0.70313,-1.6640625 -1.839844,-1.6640625 -0.644531,0 -1.089844,0.1757813 -1.523438,0.6210938 l -0.152343,1.2304687 h 0.257812 l 0.117188,-0.421875 c 0.140625,-0.515625 0.46875,-0.7382812 1.066406,-0.7382812 0.773437,0 1.265629,0.4804687 1.265629,1.2421875 0,0.6796875 -0.375,1.33593748 -1.394535,2.41406248 z m 4.728513,-4.2539063 h 0.28125 l 0.15235,-0.5039062 c 0.10547,-0.3046875 0.66797,-0.609375 1.13672,-0.609375 0.57421,0 1.05468,0.4804687 1.05468,1.0429687 0,0.6679688 -0.52734,1.2304688 -1.16015,1.2304688 -0.082,0 -0.17578,0 -0.29297,-0.011719 l -0.12891,-0.011719 -0.11719,0.48046873 0.0703,0.046875 c 0.33984,-0.15234373 0.5039,-0.19921873 0.75,-0.19921873 0.75,0 1.17187,0.48046873 1.17187,1.30078123 0,0.91406247 -0.53906,1.51171877 -1.38281,1.51171877 -0.41016,0 -0.77344,-0.140625 -1.04297,-0.3867188 -0.21094,-0.1992187 -0.32812,-0.39843747 -0.50391,-0.89062497 l -0.24609,0.09375 c 0.19922,0.55078127 0.26953,0.86718747 0.31641,1.31249997 0.48047,0.1640625 0.86718,0.234375 1.20703,0.234375 0.71484,0 1.53515,-0.3984375 2.02734,-0.9960937 0.30469,-0.37500002 0.45703,-0.76171877 0.45703,-1.18359377 0,-0.43359375 -0.17578,-0.80859375 -0.49218,-1.03125003 -0.23438,-0.1640625 -0.4336,-0.234375 -0.87891,-0.3164062 0.71484,-0.5625 0.98437,-0.9726563 0.98437,-1.5 0,-0.796875 -0.66796,-1.3242188 -1.66406,-1.3242188 -0.60937,0 -1.00781,0.1640625 -1.4414,0.5976563 z m 0,0"
         style="fill:#5a9cfe;fill-opacity:1;fill-rule:nonzero;stroke:none" />
      <path
         id="path76"
         d="M 46.322531,8.7095938 46.205344,8.5924063 45.806906,8.8150625 c -0.492187,-0.1875 -0.691406,-0.234375 -1.019531,-0.234375 -0.328125,0 -0.5625,0.058594 -0.890625,0.2226563 -0.738281,0.3632812 -1.136719,0.7265625 -1.429688,1.3125002 -0.527343,1.066406 -0.902343,2.496094 -0.902343,3.433594 0,0.527343 0.175781,0.925781 0.410156,0.925781 0.257812,0 0.714844,-0.257813 1.171875,-0.667969 0.503906,-0.457031 0.960937,-0.996094 1.605469,-1.898437 l -0.339844,1.511718 c -0.04687,0.210938 -0.07031,0.421875 -0.07031,0.609375 0,0.269532 0.105469,0.421875 0.28125,0.421875 0.28125,0 0.761719,-0.304687 1.746094,-1.125 l -0.08203,-0.246093 c -0.07031,0.05859 -0.105469,0.08203 -0.152344,0.128906 -0.386719,0.328125 -0.5625,0.433594 -0.75,0.433594 -0.105469,0 -0.175781,-0.105469 -0.175781,-0.28125 0,-0.05859 0,-0.09375 0.01172,-0.128907 z M 45.326437,9.401 c -0.257812,1.300781 -0.480468,1.921875 -0.890625,2.542969 -0.679687,1.007812 -1.40625,1.699219 -1.792968,1.699219 -0.140625,0 -0.210938,-0.152344 -0.210938,-0.480469 0,-0.761719 0.328125,-2.167969 0.75,-3.117188 0.28125,-0.6562497 0.5625,-0.878906 1.136719,-0.878906 0.269531,0 0.492187,0.046875 1.007812,0.234375 z m 0,0"
         style="fill:#5a9cfe;fill-opacity:1;fill-rule:nonzero;stroke:none" />
      <path
         id="path77"
         d="m 47.3655,12.02307 h 0.28125 l 0.152344,-0.503906 c 0.105468,-0.304687 0.667968,-0.609375 1.136718,-0.609375 0.574219,0 1.054688,0.480469 1.054688,1.042969 0,0.667969 -0.527344,1.230469 -1.160156,1.230469 -0.08203,0 -0.175782,0 -0.292969,-0.01172 l -0.128906,-0.01172 -0.117188,0.480469 0.07031,0.04687 c 0.339843,-0.152344 0.503906,-0.199219 0.75,-0.199219 0.75,0 1.171875,0.480469 1.171875,1.300781 0,0.914063 -0.539063,1.511719 -1.382813,1.511719 -0.410156,0 -0.773437,-0.140625 -1.042969,-0.386719 -0.210937,-0.199218 -0.328125,-0.398437 -0.503906,-0.890625 l -0.246094,0.09375 c 0.199219,0.550782 0.269532,0.867188 0.316407,1.3125 0.480468,0.164063 0.867187,0.234375 1.207031,0.234375 0.714844,0 1.535156,-0.398437 2.027344,-0.996093 0.304687,-0.375 0.457031,-0.761719 0.457031,-1.183594 0,-0.433594 -0.175781,-0.808594 -0.492188,-1.03125 -0.234375,-0.164063 -0.433593,-0.234375 -0.878906,-0.316406 0.714844,-0.5625 0.984375,-0.972657 0.984375,-1.5 0,-0.796875 -0.667969,-1.324219 -1.664062,-1.324219 -0.609375,0 -1.007813,0.164062 -1.441407,0.597656 z m 4.693359,-0.515625 h 0.09375 l 1.160157,-0.515625 c 0,-0.01172 0.01172,-0.01172 0.02344,-0.01172 0.04687,0 0.07031,0.08203 0.07031,0.304687 v 4.347656 c 0,0.457032 -0.09375,0.5625 -0.585938,0.585938 l -0.503906,0.02344 v 0.269532 c 1.382812,-0.02344 1.382812,-0.02344 1.488281,-0.02344 0.117188,0 0.304688,0 0.609375,0.01172 0.117188,0.01172 0.421875,0.01172 0.796875,0.01172 V 16.24182 l -0.46875,-0.02344 C 54.250266,16.19494 54.156516,16.089474 54.156516,15.632442 V 10.31213 l -0.117188,-0.04687 c -0.585937,0.304687 -1.21875,0.574219 -2.039062,0.867187 z m 0,0"
         style="fill:#5a9cfe;fill-opacity:1;fill-rule:nonzero;stroke:none" />
      <path
         id="path78"
         d="M 71.541281,8.7095938 71.424094,8.5924063 71.025656,8.8150625 c -0.492187,-0.1875 -0.691406,-0.234375 -1.019531,-0.234375 -0.328125,0 -0.5625,0.058594 -0.890625,0.2226563 -0.738281,0.3632812 -1.136719,0.7265625 -1.429688,1.3125002 -0.527343,1.066406 -0.902343,2.496094 -0.902343,3.433594 0,0.527343 0.175781,0.925781 0.410156,0.925781 0.257812,0 0.714844,-0.257813 1.171875,-0.667969 0.503906,-0.457031 0.960937,-0.996094 1.605469,-1.898437 l -0.339844,1.511718 c -0.04687,0.210938 -0.07031,0.421875 -0.07031,0.609375 0,0.269532 0.105469,0.421875 0.28125,0.421875 0.28125,0 0.761719,-0.304687 1.746094,-1.125 l -0.08203,-0.246093 c -0.07031,0.05859 -0.105469,0.08203 -0.152344,0.128906 -0.386719,0.328125 -0.5625,0.433594 -0.75,0.433594 -0.105469,0 -0.175781,-0.105469 -0.175781,-0.28125 0,-0.05859 0,-0.09375 0.01172,-0.128907 z M 70.545187,9.401 c -0.257812,1.300781 -0.480468,1.921875 -0.890625,2.542969 -0.679687,1.007812 -1.40625,1.699219 -1.792968,1.699219 -0.140625,0 -0.210938,-0.152344 -0.210938,-0.480469 0,-0.761719 0.328125,-2.167969 0.75,-3.117188 0.28125,-0.6562497 0.5625,-0.878906 1.136719,-0.878906 0.269531,0 0.492187,0.046875 1.007812,0.234375 z m 0,0"
         style="fill:#5a9cfe;fill-opacity:1;fill-rule:nonzero;stroke:none" />
      <path
         id="path79"
         d="m 72.58425,11.888305 h 0.28125 l 0.152344,-0.503907 c 0.105468,-0.304687 0.667968,-0.609375 1.136718,-0.609375 0.574219,0 1.054688,0.480469 1.054688,1.042969 0,0.667969 -0.527344,1.230469 -1.160156,1.230469 -0.08203,0 -0.175782,0 -0.292969,-0.01172 l -0.128906,-0.01172 -0.117188,0.480469 0.07031,0.04687 c 0.339843,-0.152344 0.503906,-0.199219 0.75,-0.199219 0.75,0 1.171875,0.480469 1.171875,1.300782 0,0.914062 -0.539063,1.511718 -1.382813,1.511718 -0.410156,0 -0.773437,-0.140625 -1.042969,-0.386718 -0.210937,-0.199219 -0.328125,-0.398438 -0.503906,-0.890625 l -0.246094,0.09375 c 0.199219,0.550781 0.269532,0.867187 0.316407,1.3125 0.480468,0.164062 0.867187,0.234375 1.207031,0.234375 0.714844,0 1.535156,-0.398438 2.027344,-0.996094 0.304687,-0.375 0.457031,-0.761719 0.457031,-1.183594 0,-0.433594 -0.175781,-0.808594 -0.492188,-1.03125 -0.234375,-0.164062 -0.433593,-0.234375 -0.878906,-0.316406 0.714844,-0.5625 0.984375,-0.972656 0.984375,-1.5 0,-0.796875 -0.667969,-1.324219 -1.664062,-1.324219 -0.609375,0 -1.007813,0.164063 -1.441407,0.597656 z m 4.236328,4.253906 v 0.234375 c 1.675781,-0.02344 1.675781,-0.02344 2.003906,-0.02344 0.316407,0 0.316407,0 2.050782,0.02344 -0.02344,-0.1875 -0.02344,-0.269531 -0.02344,-0.398438 0,-0.117187 0,-0.210937 0.02344,-0.410156 -1.03125,0.04687 -1.441407,0.05859 -3.105469,0.09375 l 1.640625,-1.734375 c 0.867187,-0.914062 1.136719,-1.40625 1.136719,-2.085937 0,-1.03125 -0.703125,-1.664063 -1.839844,-1.664063 -0.644531,0 -1.089844,0.175781 -1.523438,0.621094 l -0.152343,1.230469 h 0.257812 l 0.117188,-0.421875 c 0.140625,-0.515625 0.46875,-0.738282 1.066406,-0.738282 0.773437,0 1.265625,0.480469 1.265625,1.242188 0,0.679687 -0.375,1.335937 -1.394531,2.414062 z m 0,0"
         style="fill:#5a9cfe;fill-opacity:1;fill-rule:nonzero;stroke:none" />
      <path
         id="path80"
         d="M 96.748312,8.7095938 96.631125,8.5924063 96.232687,8.8150625 c -0.492187,-0.1875 -0.691406,-0.234375 -1.019531,-0.234375 -0.328125,0 -0.5625,0.058594 -0.890625,0.2226563 C 93.58425,9.166625 93.185812,9.5299063 92.892844,10.115844 92.3655,11.18225 91.9905,12.611938 91.9905,13.549438 c 0,0.527343 0.175781,0.925781 0.410156,0.925781 0.257813,0 0.714844,-0.257813 1.171875,-0.667969 0.503906,-0.457031 0.960938,-0.996094 1.605469,-1.898437 l -0.339844,1.511718 c -0.04687,0.210938 -0.07031,0.421875 -0.07031,0.609375 0,0.269532 0.105468,0.421875 0.28125,0.421875 0.28125,0 0.761718,-0.304687 1.746093,-1.125 l -0.08203,-0.246093 c -0.07031,0.05859 -0.105469,0.08203 -0.152344,0.128906 -0.386718,0.328125 -0.5625,0.433594 -0.75,0.433594 -0.105468,0 -0.175781,-0.105469 -0.175781,-0.28125 0,-0.05859 0,-0.09375 0.01172,-0.128907 z M 95.752219,9.401 c -0.257813,1.300781 -0.480469,1.921875 -0.890625,2.542969 -0.679688,1.007812 -1.40625,1.699219 -1.792969,1.699219 -0.140625,0 -0.210938,-0.152344 -0.210938,-0.480469 0,-0.761719 0.328125,-2.167969 0.75,-3.117188 0.28125,-0.6562497 0.5625,-0.878906 1.136719,-0.878906 0.269531,0 0.492188,0.046875 1.007813,0.234375 z m 0,0"
         style="fill:#5a9cfe;fill-opacity:1;fill-rule:nonzero;stroke:none" />
      <path
         id="path81"
         d="m 97.794211,11.888305 h 0.28125 l 0.152344,-0.503907 c 0.105468,-0.304687 0.667968,-0.609375 1.136718,-0.609375 0.574219,0 1.054687,0.480469 1.054687,1.042969 0,0.667969 -0.527343,1.230469 -1.160155,1.230469 -0.08203,0 -0.175782,0 -0.292969,-0.01172 l -0.128906,-0.01172 -0.117188,0.480469 0.07031,0.04687 c 0.339843,-0.152344 0.503906,-0.199219 0.75,-0.199219 0.749998,0 1.171878,0.480469 1.171878,1.300782 0,0.914062 -0.53906,1.511718 -1.382816,1.511718 -0.410156,0 -0.773437,-0.140625 -1.042969,-0.386718 -0.210937,-0.199219 -0.328125,-0.398438 -0.503906,-0.890625 l -0.246094,0.09375 c 0.199219,0.550781 0.269532,0.867187 0.316407,1.3125 0.480468,0.164062 0.867187,0.234375 1.207031,0.234375 0.714844,0 1.535157,-0.398438 2.027347,-0.996094 0.30469,-0.375 0.45703,-0.761719 0.45703,-1.183594 0,-0.433594 -0.17578,-0.808594 -0.49219,-1.03125 -0.23437,-0.164062 -0.43359,-0.234375 -0.8789,-0.316406 0.71484,-0.5625 0.98437,-0.972656 0.98437,-1.5 0,-0.796875 -0.66797,-1.324219 -1.664063,-1.324219 -0.609375,0 -1.007813,0.164063 -1.441407,0.597656 z m 4.482419,0 h 0.28125 l 0.15235,-0.503907 c 0.10547,-0.304687 0.66797,-0.609375 1.13672,-0.609375 0.57421,0 1.05468,0.480469 1.05468,1.042969 0,0.667969 -0.52734,1.230469 -1.16015,1.230469 -0.082,0 -0.17578,0 -0.29297,-0.01172 l -0.12891,-0.01172 -0.11719,0.480469 0.0703,0.04687 c 0.33984,-0.152344 0.5039,-0.199219 0.75,-0.199219 0.75,0 1.17187,0.480469 1.17187,1.300782 0,0.914062 -0.53906,1.511718 -1.38281,1.511718 -0.41016,0 -0.77344,-0.140625 -1.04297,-0.386718 -0.21094,-0.199219 -0.32812,-0.398438 -0.50391,-0.890625 l -0.24609,0.09375 c 0.19922,0.550781 0.26953,0.867187 0.31641,1.3125 0.48047,0.164062 0.86718,0.234375 1.20703,0.234375 0.71484,0 1.53515,-0.398438 2.02734,-0.996094 0.30469,-0.375 0.45703,-0.761719 0.45703,-1.183594 0,-0.433594 -0.17578,-0.808594 -0.49218,-1.03125 -0.23438,-0.164062 -0.4336,-0.234375 -0.87891,-0.316406 0.71484,-0.5625 0.98437,-0.972656 0.98437,-1.5 0,-0.796875 -0.66796,-1.324219 -1.66406,-1.324219 -0.60937,0 -1.00781,0.164063 -1.4414,0.597656 z m 0,0"
         style="fill:#5a9cfe;fill-opacity:1;fill-rule:nonzero;stroke:none" />
      <path
         id="path82"
         d="m 110.25417,-2.9945078 h 0.83203 V -24.498414 h -3.98437 v 0.832031 h 3.15234 z m 0,20.6689458 h -3.15234 v 0.820312 h 3.98437 V -3.0091562 h -0.83203 z m 0,0"
         style="fill:#5a9cfe;fill-opacity:1;fill-rule:nonzero;stroke:none" />
    </g>
    <path
       id="path83"
       d="m 2603.39,5530.74 -48.06,-42.8 64.3,2.67 -30.59,10.97"
       style="fill:#228b22;fill-opacity:1;fill-rule:nonzero;stroke:none"
       transform="matrix(0.13333333,0,0,-0.13333333,0,1122.6667)" />
    <path
       id="path84"
       d="M 3735.06,5965.33 2589.04,5501.58"
       style="fill:none;stroke:#228b22;stroke-width:14.1739;stroke-linecap:butt;stroke-linejoin:miter;stroke-miterlimit:10;stroke-dasharray:none;stroke-opacity:1"
       transform="matrix(0.13333333,0,0,-0.13333333,0,1122.6667)" />
    <path
       id="path85"
       d="m 5308.31,4816.85 60.73,-21.31 -33.49,54.96 5.22,-32.08"
       style="fill:#228b22;fill-opacity:1;fill-rule:nonzero;stroke:none"
       transform="matrix(0.13333333,0,0,-0.13333333,0,1122.6667)" />
    <path
       id="path86"
       d="M 4111.95,5813.19 5340.77,4818.42"
       style="fill:none;stroke:#228b22;stroke-width:14.1739;stroke-linecap:butt;stroke-linejoin:miter;stroke-miterlimit:10;stroke-dasharray:none;stroke-opacity:1"
       transform="matrix(0.13333333,0,0,-0.13333333,0,1122.6667)" />
    <path
       id="path87"
       d="m 4136.14,7074.21 -30.24,56.81 -12.58,-63.12 17.88,27.14"
       style="fill:#228b22;fill-opacity:1;fill-rule:nonzero;stroke:none"
       transform="matrix(0.13333333,0,0,-0.13333333,0,1122.6667)" />
    <path
       id="path88"
       d="M 4309.74,5747.1 4111.2,7095.04"
       style="fill:none;stroke:#228b22;stroke-width:14.1739;stroke-linecap:butt;stroke-linejoin:miter;stroke-miterlimit:10;stroke-dasharray:none;stroke-opacity:1"
       transform="matrix(0.13333333,0,0,-0.13333333,0,1122.6667)" />
    <path
       id="path89"
       d="m 3846.04,5222.29 6.17,-64.06 35.81,53.47 -26.92,-18.21"
       style="fill:#228b22;fill-opacity:1;fill-rule:nonzero;stroke:none"
       transform="matrix(0.13333333,0,0,-0.13333333,0,1122.6667)" />
    <path
       id="path90"
       d="M 4053.43,5956.29 3861.1,5193.49"
       style="fill:none;stroke:#228b22;stroke-width:14.1739;stroke-linecap:butt;stroke-linejoin:miter;stroke-miterlimit:10;stroke-dasharray:none;stroke-opacity:1"
       transform="matrix(0.13333333,0,0,-0.13333333,0,1122.6667)" />
    <path
       id="path91"
       d="m 4659.89,5952.64 49.72,40.86 -64.36,-0.11 30.13,-12.18"
       style="fill:#228b22;fill-opacity:1;fill-rule:nonzero;stroke:none"
       transform="matrix(0.13333333,0,0,-0.13333333,0,1122.6667)" />
    <path
       id="path92"
       d="m 4391.84,5879.36 283.55,101.85"
       style="fill:none;stroke:#228b22;stroke-width:14.1739;stroke-linecap:butt;stroke-linejoin:miter;stroke-miterlimit:10;stroke-dasharray:none;stroke-opacity:1"
       transform="matrix(0.13333333,0,0,-0.13333333,0,1122.6667)" />
    <path
       id="path93"
       d="m 3361.38,6283.85 -64.19,-4.6 52.58,-37.1 -17.55,27.35"
       style="fill:#228b22;fill-opacity:1;fill-rule:nonzero;stroke:none"
       transform="matrix(0.13333333,0,0,-0.13333333,0,1122.6667)" />
    <path
       id="path94"
       d="M 4239.33,6016.97 3332.22,6269.5"
       style="fill:none;stroke:#228b22;stroke-width:14.1739;stroke-linecap:butt;stroke-linejoin:miter;stroke-miterlimit:10;stroke-dasharray:none;stroke-opacity:1"
       transform="matrix(0.13333333,0,0,-0.13333333,0,1122.6667)" />
    <path
       id="path95"
       d="m 3827.04,5217.45 25.17,-59.22 18.04,61.77 -20.18,-25.47"
       style="fill:#228b22;fill-opacity:1;fill-rule:nonzero;stroke:none"
       transform="matrix(0.13333333,0,0,-0.13333333,0,1122.6667)" />
    <path
       id="path96"
       d="m 3813.67,5811.84 36.4,-617.31"
       style="fill:none;stroke:#228b22;stroke-width:14.1739;stroke-linecap:butt;stroke-linejoin:miter;stroke-miterlimit:10;stroke-dasharray:none;stroke-opacity:1"
       transform="matrix(0.13333333,0,0,-0.13333333,0,1122.6667)" />
    <path
       id="path97"
       d="m 3353.79,6248.63 -56.6,30.62 24.39,-59.55 -0.09,32.5"
       style="fill:#228b22;fill-opacity:1;fill-rule:nonzero;stroke:none"
       transform="matrix(0.13333333,0,0,-0.13333333,0,1122.6667)" />
    <path
       id="path98"
       d="m 3775.08,5747.1 -453.59,505.1"
       style="fill:none;stroke:#228b22;stroke-width:14.1739;stroke-linecap:butt;stroke-linejoin:miter;stroke-miterlimit:10;stroke-dasharray:none;stroke-opacity:1"
       transform="matrix(0.13333333,0,0,-0.13333333,0,1122.6667)" />
    <path
       id="path99"
       d="m 4662.95,5949.17 46.66,44.33 -64.18,-4.74 30.93,-9.98"
       style="fill:#228b22;fill-opacity:1;fill-rule:nonzero;stroke:none"
       transform="matrix(0.13333333,0,0,-0.13333333,0,1122.6667)" />
    <path
       id="path100"
       d="m 4139.75,5741.19 536.61,237.59"
       style="fill:none;stroke:#228b22;stroke-width:14.1739;stroke-linecap:butt;stroke-linejoin:miter;stroke-miterlimit:10;stroke-dasharray:none;stroke-opacity:1"
       transform="matrix(0.13333333,0,0,-0.13333333,0,1122.6667)" />
  </g>
</svg>
