<?xml version="1.0" encoding="UTF-8" standalone="no"?>
<!-- Created with Inkscape (http://www.inkscape.org/) -->

<svg
   version="1.1"
   id="svg1"
   width="542.81104"
   height="364.39166"
   viewBox="0 0 542.81103 364.39165"
   sodipodi:docname="NUMPDE.pdf"
   xmlns:inkscape="http://www.inkscape.org/namespaces/inkscape"
   xmlns:sodipodi="http://sodipodi.sourceforge.net/DTD/sodipodi-0.dtd"
   xmlns="http://www.w3.org/2000/svg"
   xmlns:svg="http://www.w3.org/2000/svg">
  <defs
     id="defs1">
    <clipPath
       clipPathUnits="userSpaceOnUse"
       id="clipPath6">
      <path
         d="m 920.16,5103.94 h 4082 v 2747.94 h -4082 z"
         transform="translate(0,2.5000001e-4)"
         id="path6" />
    </clipPath>
    <clipPath
       clipPathUnits="userSpaceOnUse"
       id="clipPath8">
      <path
         d="m 920.16,5103.94 h 4082 v 2747.94 h -4082 z"
         transform="translate(0,2.5000001e-4)"
         id="path8" />
    </clipPath>
    <clipPath
       clipPathUnits="userSpaceOnUse"
       id="clipPath10">
      <path
         d="m 920.16,5103.94 h 4082 v 2747.94 h -4082 z"
         transform="translate(0,2.5000001e-4)"
         id="path10" />
    </clipPath>
    <clipPath
       clipPathUnits="userSpaceOnUse"
       id="clipPath12">
      <path
         d="m 920.16,5103.94 h 4082 v 2747.94 h -4082 z"
         transform="translate(0,2.5000001e-4)"
         id="path12" />
    </clipPath>
    <clipPath
       clipPathUnits="userSpaceOnUse"
       id="clipPath14">
      <path
         d="m 920.16,5103.94 h 4082 v 2747.94 h -4082 z"
         transform="translate(0,2.5000001e-4)"
         id="path14" />
    </clipPath>
    <clipPath
       clipPathUnits="userSpaceOnUse"
       id="clipPath16">
      <path
         d="m 920.16,5103.94 h 4082 v 2747.94 h -4082 z"
         transform="translate(0,2.5000001e-4)"
         id="path16" />
    </clipPath>
    <clipPath
       clipPathUnits="userSpaceOnUse"
       id="clipPath18">
      <path
         d="m 920.16,5103.94 h 4082 v 2747.94 h -4082 z"
         transform="translate(0,2.5000001e-4)"
         id="path18" />
    </clipPath>
    <clipPath
       clipPathUnits="userSpaceOnUse"
       id="clipPath20">
      <path
         d="m 920.16,5103.94 h 4082 v 2747.94 h -4082 z"
         transform="translate(0,2.5000001e-4)"
         id="path20" />
    </clipPath>
    <clipPath
       clipPathUnits="userSpaceOnUse"
       id="clipPath22">
      <path
         d="m 920.16,5103.94 h 4082 v 2747.94 h -4082 z"
         transform="translate(0,2.5000001e-4)"
         id="path22" />
    </clipPath>
  </defs>
  <sodipodi:namedview
     id="namedview1"
     pagecolor="#505050"
     bordercolor="#eeeeee"
     borderopacity="1"
     inkscape:showpageshadow="0"
     inkscape:pageopacity="0"
     inkscape:pagecheckerboard="0"
     inkscape:deskcolor="#505050" />
  <g
     id="g1"
     inkscape:groupmode="layer"
     inkscape:label="163"
     transform="translate(-122.93164,-76.798976)">
    <path
       id="path5"
       d="M 2842.79,6606.65 1162.14,7802.5 935.898,6154.16 Z"
       style="fill:none;stroke:#000000;stroke-width:10.7734;stroke-linecap:butt;stroke-linejoin:miter;stroke-miterlimit:10;stroke-dasharray:none;stroke-opacity:1"
       transform="matrix(0.13333333,0,0,-0.13333333,0,1122.6667)"
       clip-path="url(#clipPath6)" />
    <path
       id="path7"
       d="M 2842.79,6606.65 935.898,6154.16 2616.55,5119.92 Z"
       style="fill:none;stroke:#000000;stroke-width:10.7734;stroke-linecap:butt;stroke-linejoin:miter;stroke-miterlimit:10;stroke-dasharray:none;stroke-opacity:1"
       transform="matrix(0.13333333,0,0,-0.13333333,0,1122.6667)"
       clip-path="url(#clipPath8)" />
    <path
       id="path9"
       d="M 2842.79,6606.65 2616.55,5119.92 4975.93,5895.6 Z"
       style="fill:none;stroke:#000000;stroke-width:10.7734;stroke-linecap:butt;stroke-linejoin:miter;stroke-miterlimit:10;stroke-dasharray:none;stroke-opacity:1"
       transform="matrix(0.13333333,0,0,-0.13333333,0,1122.6667)"
       clip-path="url(#clipPath10)" />
    <path
       id="path11"
       d="M 2842.79,6606.65 4200.24,7834.82 4975.93,5895.6 Z"
       style="fill:none;stroke:#000000;stroke-width:10.7734;stroke-linecap:butt;stroke-linejoin:miter;stroke-miterlimit:10;stroke-dasharray:none;stroke-opacity:1"
       transform="matrix(0.13333333,0,0,-0.13333333,0,1122.6667)"
       clip-path="url(#clipPath12)" />
    <path
       id="path13"
       d="m 2842.79,6606.65 -1680.65,1195.85 3038.1,32.32 z"
       style="fill:none;stroke:#000000;stroke-width:10.7734;stroke-linecap:butt;stroke-linejoin:miter;stroke-miterlimit:10;stroke-dasharray:none;stroke-opacity:1"
       transform="matrix(0.13333333,0,0,-0.13333333,0,1122.6667)"
       clip-path="url(#clipPath14)" />
    <path
       id="path15"
       d="m 2915.33,6606.65 c 0,-40.06 -32.48,-72.54 -72.54,-72.54 -40.06,0 -72.54,32.48 -72.54,72.54 0,40.06 32.48,72.54 72.54,72.54 40.06,0 72.54,-32.48 72.54,-72.54"
       style="fill:#ff0000;fill-opacity:1;fill-rule:evenodd;stroke:none"
       transform="matrix(0.13333333,0,0,-0.13333333,0,1122.6667)"
       clip-path="url(#clipPath16)" />
    <path
       id="path17"
       d="m 2915.33,6606.65 c 0,-40.06 -32.48,-72.54 -72.54,-72.54 -40.06,0 -72.54,32.48 -72.54,72.54 0,40.06 32.48,72.54 72.54,72.54 40.06,0 72.54,-32.48 72.54,-72.54 z"
       style="fill:none;stroke:#ff0000;stroke-width:10.7734;stroke-linecap:butt;stroke-linejoin:miter;stroke-miterlimit:10;stroke-dasharray:none;stroke-opacity:1"
       transform="matrix(0.13333333,0,0,-0.13333333,0,1122.6667)"
       clip-path="url(#clipPath18)" />
    <path
       id="path19"
       d="m 4692.95,7576.25 c 0,-40.06 -32.49,-72.54 -72.55,-72.54 -40.06,0 -72.54,32.48 -72.54,72.54 0,40.07 32.48,72.54 72.54,72.54 40.06,0 72.55,-32.47 72.55,-72.54"
       style="fill:#ff0000;fill-opacity:1;fill-rule:evenodd;stroke:none"
       transform="matrix(0.13333333,0,0,-0.13333333,0,1122.6667)"
       clip-path="url(#clipPath20)" />
    <path
       id="path21"
       d="m 4692.95,7576.25 c 0,-40.06 -32.49,-72.54 -72.55,-72.54 -40.06,0 -72.54,32.48 -72.54,72.54 0,40.07 32.48,72.54 72.54,72.54 40.06,0 72.55,-32.47 72.55,-72.54 z"
       style="fill:none;stroke:#ff0000;stroke-width:10.7734;stroke-linecap:butt;stroke-linejoin:miter;stroke-miterlimit:10;stroke-dasharray:none;stroke-opacity:1"
       transform="matrix(0.13333333,0,0,-0.13333333,0,1122.6667)"
       clip-path="url(#clipPath22)" />
    <g
       id="g22"
       aria-label="&#10;&#10;∗∗∗&#10;∗∗∗&#10;∗∗"
       transform="matrix(1.3333333,0,0,1.3333333,197.90933,182.044)">
      <path
         id="path23"
         d="M 3.9029609,21.034383 H 4.7232734 V 0.36250781 H 7.8756172 V -0.46952344 H 3.9029609 Z m 0,21.489258 H 7.8756172 V 41.703328 H 4.7232734 V 21.019734 H 3.9029609 Z m 0,0"
         style="fill:#5a9cfe;fill-opacity:1;fill-rule:nonzero;stroke:none" />
      <path
         id="path24"
         d="m 11.684211,4.1564531 c 0.01172,-0.1757812 0.01172,-0.46875 -0.304688,-0.46875 -0.199218,0 -0.363281,0.1640625 -0.328125,0.3164063 V 4.1681719 L 11.22718,6.1017656 9.6334297,4.9416094 c -0.1171875,-0.058594 -0.140625,-0.082031 -0.2226563,-0.082031 -0.1757812,0 -0.3398437,0.1757813 -0.3398437,0.3398438 0,0.1992187 0.1289062,0.2578125 0.2460937,0.3164062 l 1.7695316,0.84375 -1.7109378,0.8320313 C 9.1763984,7.2970781 9.0709297,7.3439531 9.0709297,7.5314531 c 0,0.1875 0.1640625,0.3515625 0.3398437,0.3515625 0.082031,0 0.1054688,0 0.421875,-0.234375 L 11.22718,6.6408281 11.03968,8.7267656 c 0,0.2695313 0.222656,0.328125 0.328125,0.328125 0.140625,0 0.328125,-0.09375 0.328125,-0.328125 l -0.1875,-2.0859375 1.605468,1.1484375 c 0.105469,0.070312 0.128907,0.09375 0.222657,0.09375 0.175781,0 0.328125,-0.1757812 0.328125,-0.3515625 0,-0.1875 -0.105469,-0.2460937 -0.257813,-0.3164062 -0.75,-0.375 -0.773437,-0.375 -1.757812,-0.84375 l 1.722656,-0.8320313 c 0.199219,-0.09375 0.292969,-0.1523437 0.292969,-0.3398437 0,-0.1875 -0.152344,-0.3398438 -0.328125,-0.3398438 -0.09375,0 -0.117188,0 -0.421875,0.234375 l -1.40625,1.0078125 z m 16.488281,0 c 0.01172,-0.1757812 0.01172,-0.46875 -0.304687,-0.46875 -0.199219,0 -0.363282,0.1640625 -0.328125,0.3164063 v 0.1640625 l 0.175781,1.9335937 -1.59375,-1.1601562 c -0.117188,-0.058594 -0.140625,-0.082031 -0.222656,-0.082031 -0.175782,0 -0.339844,0.1757813 -0.339844,0.3398438 0,0.1992187 0.128906,0.2578125 0.246094,0.3164062 l 1.769531,0.84375 -1.710938,0.8320313 c -0.199218,0.1054687 -0.304687,0.1523437 -0.304687,0.3398437 0,0.1875 0.164062,0.3515625 0.339844,0.3515625 0.08203,0 0.105468,0 0.421875,-0.234375 l 1.394531,-1.0078125 -0.1875,2.0859375 c 0,0.2695313 0.222656,0.328125 0.328125,0.328125 0.140625,0 0.328125,-0.09375 0.328125,-0.328125 l -0.1875,-2.0859375 1.605469,1.1484375 c 0.105468,0.070312 0.128906,0.09375 0.222656,0.09375 0.175781,0 0.328125,-0.1757812 0.328125,-0.3515625 0,-0.1875 -0.105469,-0.2460937 -0.257813,-0.3164062 -0.75,-0.375 -0.773437,-0.375 -1.757812,-0.84375 l 1.722656,-0.8320313 c 0.199219,-0.09375 0.292969,-0.1523437 0.292969,-0.3398437 0,-0.1875 -0.152344,-0.3398438 -0.328125,-0.3398438 -0.09375,0 -0.117188,0 -0.421875,0.234375 l -1.40625,1.0078125 z m 16.49707,0 c 0.01172,-0.1757812 0.01172,-0.46875 -0.304687,-0.46875 -0.199219,0 -0.363281,0.1640625 -0.328125,0.3164063 v 0.1640625 l 0.175781,1.9335937 -1.59375,-1.1601562 c -0.117187,-0.058594 -0.140625,-0.082031 -0.222656,-0.082031 -0.175781,0 -0.339844,0.1757813 -0.339844,0.3398438 0,0.1992187 0.128906,0.2578125 0.246094,0.3164062 l 1.769531,0.84375 -1.710937,0.8320313 c -0.199219,0.1054687 -0.304688,0.1523437 -0.304688,0.3398437 0,0.1875 0.164063,0.3515625 0.339844,0.3515625 0.08203,0 0.105469,0 0.421875,-0.234375 l 1.394531,-1.0078125 -0.1875,2.0859375 c 0,0.2695313 0.222656,0.328125 0.328125,0.328125 0.140625,0 0.328125,-0.09375 0.328125,-0.328125 l -0.1875,-2.0859375 1.605469,1.1484375 c 0.105469,0.070312 0.128906,0.09375 0.222656,0.09375 0.175781,0 0.328125,-0.1757812 0.328125,-0.3515625 0,-0.1875 -0.105469,-0.2460937 -0.257812,-0.3164062 -0.75,-0.375 -0.773438,-0.375 -1.757813,-0.84375 l 1.722656,-0.8320313 c 0.199219,-0.09375 0.292969,-0.1523437 0.292969,-0.3398437 0,-0.1875 -0.152344,-0.3398438 -0.328125,-0.3398438 -0.09375,0 -0.117187,0 -0.421875,0.234375 l -1.40625,1.0078125 z M 11.684211,18.611531 c 0.01172,-0.175781 0.01172,-0.46875 -0.304688,-0.46875 -0.199218,0 -0.363281,0.164063 -0.328125,0.316406 v 0.164063 l 0.175782,1.933594 -1.5937503,-1.160157 c -0.1171875,-0.05859 -0.140625,-0.08203 -0.2226563,-0.08203 -0.1757812,0 -0.3398437,0.175781 -0.3398437,0.339844 0,0.199219 0.1289062,0.257812 0.2460937,0.316406 l 1.7695316,0.84375 -1.7109378,0.832031 c -0.1992188,0.105469 -0.3046875,0.152344 -0.3046875,0.339844 0,0.1875 0.1640625,0.351563 0.3398437,0.351563 0.082031,0 0.1054688,0 0.421875,-0.234375 l 1.3945316,-1.007813 -0.1875,2.085938 c 0,0.269531 0.222656,0.328125 0.328125,0.328125 0.140625,0 0.328125,-0.09375 0.328125,-0.328125 l -0.1875,-2.085938 1.605468,1.148438 c 0.105469,0.07031 0.128907,0.09375 0.222657,0.09375 0.175781,0 0.328125,-0.175782 0.328125,-0.351563 0,-0.1875 -0.105469,-0.246094 -0.257813,-0.316406 -0.75,-0.375 -0.773437,-0.375 -1.757812,-0.84375 l 1.722656,-0.832031 C 13.57093,19.900594 13.66468,19.842 13.66468,19.6545 c 0,-0.1875 -0.152344,-0.339844 -0.328125,-0.339844 -0.09375,0 -0.117188,0 -0.421875,0.234375 l -1.40625,1.007813 z m 16.488281,0 c 0.01172,-0.175781 0.01172,-0.46875 -0.304687,-0.46875 -0.199219,0 -0.363282,0.164063 -0.328125,0.316406 v 0.164063 l 0.175781,1.933594 -1.59375,-1.160157 c -0.117188,-0.05859 -0.140625,-0.08203 -0.222656,-0.08203 -0.175782,0 -0.339844,0.175781 -0.339844,0.339844 0,0.199219 0.128906,0.257812 0.246094,0.316406 l 1.769531,0.84375 -1.710938,0.832031 c -0.199218,0.105469 -0.304687,0.152344 -0.304687,0.339844 0,0.1875 0.164062,0.351563 0.339844,0.351563 0.08203,0 0.105468,0 0.421875,-0.234375 l 1.394531,-1.007813 -0.1875,2.085938 c 0,0.269531 0.222656,0.328125 0.328125,0.328125 0.140625,0 0.328125,-0.09375 0.328125,-0.328125 l -0.1875,-2.085938 1.605469,1.148438 c 0.105468,0.07031 0.128906,0.09375 0.222656,0.09375 0.175781,0 0.328125,-0.175782 0.328125,-0.351563 0,-0.1875 -0.105469,-0.246094 -0.257813,-0.316406 -0.75,-0.375 -0.773437,-0.375 -1.757812,-0.84375 l 1.722656,-0.832031 c 0.199219,-0.09375 0.292969,-0.152344 0.292969,-0.339844 0,-0.1875 -0.152344,-0.339844 -0.328125,-0.339844 -0.09375,0 -0.117188,0 -0.421875,0.234375 l -1.40625,1.007813 z m 16.49707,0 c 0.01172,-0.175781 0.01172,-0.46875 -0.304687,-0.46875 -0.199219,0 -0.363281,0.164063 -0.328125,0.316406 v 0.164063 l 0.175781,1.933594 -1.59375,-1.160157 c -0.117187,-0.05859 -0.140625,-0.08203 -0.222656,-0.08203 -0.175781,0 -0.339844,0.175781 -0.339844,0.339844 0,0.199219 0.128906,0.257812 0.246094,0.316406 l 1.769531,0.84375 -1.710937,0.832031 c -0.199219,0.105469 -0.304688,0.152344 -0.304688,0.339844 0,0.1875 0.164063,0.351563 0.339844,0.351563 0.08203,0 0.105469,0 0.421875,-0.234375 l 1.394531,-1.007813 -0.1875,2.085938 c 0,0.269531 0.222656,0.328125 0.328125,0.328125 0.140625,0 0.328125,-0.09375 0.328125,-0.328125 l -0.1875,-2.085938 1.605469,1.148438 c 0.105469,0.07031 0.128906,0.09375 0.222656,0.09375 0.175781,0 0.328125,-0.175782 0.328125,-0.351563 0,-0.1875 -0.105469,-0.246094 -0.257812,-0.316406 -0.75,-0.375 -0.773438,-0.375 -1.757813,-0.84375 l 1.722656,-0.832031 c 0.199219,-0.09375 0.292969,-0.152344 0.292969,-0.339844 0,-0.1875 -0.152344,-0.339844 -0.328125,-0.339844 -0.09375,0 -0.117187,0 -0.421875,0.234375 l -1.40625,1.007813 z m -32.985351,14.44336 c 0.01172,-0.175782 0.01172,-0.46875 -0.304688,-0.46875 -0.199218,0 -0.363281,0.164062 -0.328125,0.316406 v 0.164062 l 0.175782,1.933594 -1.5937503,-1.160156 c -0.1171875,-0.05859 -0.140625,-0.08203 -0.2226563,-0.08203 -0.1757812,0 -0.3398437,0.175781 -0.3398437,0.339843 0,0.199219 0.1289062,0.257813 0.2460937,0.316407 l 1.7695316,0.84375 -1.7109378,0.832031 c -0.1992188,0.105469 -0.3046875,0.152344 -0.3046875,0.339844 0,0.1875 0.1640625,0.351562 0.3398437,0.351562 0.082031,0 0.1054688,0 0.421875,-0.234375 l 1.3945316,-1.007812 -0.1875,2.085937 c 0,0.269531 0.222656,0.328125 0.328125,0.328125 0.140625,0 0.328125,-0.09375 0.328125,-0.328125 l -0.1875,-2.085937 1.605468,1.148437 c 0.105469,0.07031 0.128907,0.09375 0.222657,0.09375 0.175781,0 0.328125,-0.175781 0.328125,-0.351562 0,-0.1875 -0.105469,-0.246094 -0.257813,-0.316407 -0.75,-0.375 -0.773437,-0.375 -1.757812,-0.84375 l 1.722656,-0.832031 c 0.199219,-0.09375 0.292969,-0.152344 0.292969,-0.339844 0,-0.1875 -0.152344,-0.339843 -0.328125,-0.339843 -0.09375,0 -0.117188,0 -0.421875,0.234375 l -1.40625,1.007812 z m 16.488281,0 c 0.01172,-0.175782 0.01172,-0.46875 -0.304687,-0.46875 -0.199219,0 -0.363282,0.164062 -0.328125,0.316406 v 0.164062 l 0.175781,1.933594 -1.59375,-1.160156 c -0.117188,-0.05859 -0.140625,-0.08203 -0.222656,-0.08203 -0.175782,0 -0.339844,0.175781 -0.339844,0.339843 0,0.199219 0.128906,0.257813 0.246094,0.316407 l 1.769531,0.84375 -1.710938,0.832031 c -0.199218,0.105469 -0.304687,0.152344 -0.304687,0.339844 0,0.1875 0.164062,0.351562 0.339844,0.351562 0.08203,0 0.105468,0 0.421875,-0.234375 l 1.394531,-1.007812 -0.1875,2.085937 c 0,0.269531 0.222656,0.328125 0.328125,0.328125 0.140625,0 0.328125,-0.09375 0.328125,-0.328125 l -0.1875,-2.085937 1.605469,1.148437 c 0.105468,0.07031 0.128906,0.09375 0.222656,0.09375 0.175781,0 0.328125,-0.175781 0.328125,-0.351562 0,-0.1875 -0.105469,-0.246094 -0.257813,-0.316407 -0.75,-0.375 -0.773437,-0.375 -1.757812,-0.84375 l 1.722656,-0.832031 c 0.199219,-0.09375 0.292969,-0.152344 0.292969,-0.339844 0,-0.1875 -0.152344,-0.339843 -0.328125,-0.339843 -0.09375,0 -0.117188,0 -0.421875,0.234375 l -1.40625,1.007812 z m 0,0"
         style="fill:#5a9cfe;fill-opacity:1;fill-rule:nonzero;stroke:none" />
    </g>
    <path
       id="path25"
       d="m 3.4225625,-5.3211094 c 0.011719,-0.1757812 0.011719,-0.46875 -0.3046875,-0.46875 -0.1992187,0 -0.3632812,0.1640625 -0.328125,0.3164063 v 0.1640625 l 0.1757813,1.9335937 -1.59375,-1.1601562 c -0.1171875,-0.058594 -0.140625,-0.082031 -0.2226563,-0.082031 -0.17578125,0 -0.33984375,0.1757813 -0.33984375,0.3398438 0,0.1992187 0.12890625,0.2578125 0.24609375,0.3164062 l 1.7695313,0.84375 -1.7109375,0.8320313 c -0.1992188,0.1054687 -0.30468755,0.1523437 -0.30468755,0.3398437 0,0.1875 0.1640625,0.3515625 0.33984375,0.3515625 0.082031,0 0.1054688,0 0.421875,-0.234375 l 1.3945313,-1.0078125 -0.1875,2.08593753 c 0,0.26953125 0.2226562,0.328125 0.328125,0.328125 0.140625,0 0.328125,-0.09375 0.328125,-0.328125 l -0.1875,-2.08593753 1.6054687,1.1484375 c 0.1054688,0.070312 0.1289063,0.09375 0.2226563,0.09375 0.1757812,0 0.328125,-0.1757812 0.328125,-0.3515625 0,-0.1875 -0.1054688,-0.2460937 -0.2578125,-0.3164062 -0.75,-0.375 -0.7734375,-0.375 -1.7578125,-0.84375 l 1.7226562,-0.8320313 c 0.1992188,-0.09375 0.2929688,-0.1523437 0.2929688,-0.3398437 0,-0.1875 -0.1523438,-0.3398438 -0.328125,-0.3398438 -0.09375,0 -0.1171875,0 -0.421875,0.234375 l -1.40625,1.0078125 z m 0,0"
       style="fill:#ec008c;fill-opacity:1;fill-rule:nonzero;stroke:none"
       aria-label="∗"
       transform="matrix(1.3333333,0,0,1.3333333,252.90533,233.212)" />
    <g
       id="g25"
       aria-label="&#10;&#10;&#10;&#10;∗∗∗&#10;∗"
       transform="matrix(1.3333333,0,0,1.3333333,261.60533,182.044)">
      <path
         id="path26"
         d="M 3.2344766,21.034383 H 4.0665078 V -0.46952344 H 0.08213281 V 0.36250781 H 3.2344766 Z m 0,20.668945 H 0.08213281 v 0.820313 H 4.0665078 V 21.019734 H 3.2344766 Z M 1.9014688,108.30098 H 2.7217813 V 87.629109 H 5.874125 V 86.797078 H 1.9014688 Z m 0,21.48633 H 5.874125 V 128.967 H 2.7217813 V 108.28341 H 1.9014688 Z m 0,0"
         style="fill:#5a9cfe;fill-opacity:1;fill-rule:nonzero;stroke:none" />
      <path
         id="path27"
         d="m 9.6827188,91.420125 c 0.011719,-0.175781 0.011719,-0.46875 -0.3046875,-0.46875 -0.1992188,0 -0.3632813,0.164062 -0.328125,0.316406 v 0.164063 l 0.1757812,1.933593 -1.59375,-1.160156 C 7.51475,92.146687 7.4913125,92.12325 7.4092813,92.12325 c -0.1757813,0 -0.3398438,0.175781 -0.3398438,0.339844 0,0.199218 0.1289063,0.257812 0.2460938,0.316406 l 1.7695312,0.84375 -1.7109375,0.832031 c -0.1992187,0.105469 -0.3046875,0.152344 -0.3046875,0.339844 0,0.1875 0.1640625,0.351562 0.3398438,0.351562 0.082031,0 0.1054687,0 0.421875,-0.234375 l 1.3945312,-1.007812 -0.1875,2.085937 c 0,0.269532 0.2226563,0.328125 0.328125,0.328125 0.140625,0 0.328125,-0.09375 0.328125,-0.328125 l -0.1875,-2.085937 1.6054685,1.148437 c 0.105469,0.07031 0.128907,0.09375 0.222657,0.09375 0.175781,0 0.328125,-0.175781 0.328125,-0.351562 0,-0.1875 -0.105469,-0.246094 -0.257813,-0.316406 -0.75,-0.375 -0.773437,-0.375 -1.7578125,-0.84375 l 1.7226565,-0.832032 c 0.199219,-0.09375 0.292969,-0.152343 0.292969,-0.339843 0,-0.1875 -0.152344,-0.339844 -0.328125,-0.339844 -0.09375,0 -0.117188,0 -0.421875,0.234375 l -1.4062505,1.007812 z m 16.4882812,0 c 0.01172,-0.175781 0.01172,-0.46875 -0.304687,-0.46875 -0.199219,0 -0.363282,0.164062 -0.328125,0.316406 v 0.164063 l 0.175781,1.933593 -1.59375,-1.160156 c -0.117188,-0.05859 -0.140625,-0.08203 -0.222656,-0.08203 -0.175782,0 -0.339844,0.175781 -0.339844,0.339844 0,0.199218 0.128906,0.257812 0.246094,0.316406 l 1.769531,0.84375 -1.710938,0.832031 c -0.199218,0.105469 -0.304687,0.152344 -0.304687,0.339844 0,0.1875 0.164062,0.351562 0.339844,0.351562 0.08203,0 0.105468,0 0.421875,-0.234375 l 1.394531,-1.007812 -0.1875,2.085937 c 0,0.269532 0.222656,0.328125 0.328125,0.328125 0.140625,0 0.328125,-0.09375 0.328125,-0.328125 l -0.1875,-2.085937 1.605469,1.148437 c 0.105468,0.07031 0.128906,0.09375 0.222656,0.09375 0.175781,0 0.328125,-0.175781 0.328125,-0.351562 0,-0.1875 -0.105469,-0.246094 -0.257813,-0.316406 -0.75,-0.375 -0.773437,-0.375 -1.757812,-0.84375 L 27.8585,92.802937 c 0.199219,-0.09375 0.292969,-0.152343 0.292969,-0.339843 0,-0.1875 -0.152344,-0.339844 -0.328125,-0.339844 -0.09375,0 -0.117188,0 -0.421875,0.234375 l -1.40625,1.007812 z m 16.49707,0 c 0.01172,-0.175781 0.01172,-0.46875 -0.304687,-0.46875 -0.199219,0 -0.363281,0.164062 -0.328125,0.316406 v 0.164063 l 0.175781,1.933593 -1.59375,-1.160156 c -0.117187,-0.05859 -0.140625,-0.08203 -0.222656,-0.08203 -0.175781,0 -0.339844,0.175781 -0.339844,0.339844 0,0.199218 0.128906,0.257812 0.246094,0.316406 l 1.769531,0.84375 -1.710937,0.832031 c -0.199219,0.105469 -0.304688,0.152344 -0.304688,0.339844 0,0.1875 0.164063,0.351562 0.339844,0.351562 0.08203,0 0.105469,0 0.421875,-0.234375 l 1.394531,-1.007812 -0.1875,2.085937 c 0,0.269532 0.222656,0.328125 0.328125,0.328125 0.140625,0 0.328125,-0.09375 0.328125,-0.328125 l -0.1875,-2.085937 1.605469,1.148437 c 0.105469,0.07031 0.128906,0.09375 0.222656,0.09375 0.175781,0 0.328125,-0.175781 0.328125,-0.351562 0,-0.1875 -0.105469,-0.246094 -0.257812,-0.316406 -0.75,-0.375 -0.773438,-0.375 -1.757813,-0.84375 l 1.722656,-0.832032 c 0.199219,-0.09375 0.292969,-0.152343 0.292969,-0.339843 0,-0.1875 -0.152344,-0.339844 -0.328125,-0.339844 -0.09375,0 -0.117187,0 -0.421875,0.234375 l -1.40625,1.007812 z M 9.6827188,105.8752 c 0.011719,-0.17578 0.011719,-0.46875 -0.3046875,-0.46875 -0.1992188,0 -0.3632813,0.16407 -0.328125,0.31641 v 0.16406 l 0.1757812,1.9336 -1.59375,-1.16016 c -0.1171875,-0.0586 -0.140625,-0.082 -0.2226562,-0.082 -0.1757813,0 -0.3398438,0.17578 -0.3398438,0.33984 0,0.19922 0.1289063,0.25781 0.2460938,0.31641 l 1.7695312,0.84375 -1.7109375,0.83203 c -0.1992187,0.10547 -0.3046875,0.15234 -0.3046875,0.33984 0,0.1875 0.1640625,0.35157 0.3398438,0.35157 0.082031,0 0.1054687,0 0.421875,-0.23438 l 1.3945312,-1.00781 -0.1875,2.08594 c 0,0.26953 0.2226563,0.32812 0.328125,0.32812 0.140625,0 0.328125,-0.0937 0.328125,-0.32812 l -0.1875,-2.08594 1.6054685,1.14844 c 0.105469,0.0703 0.128907,0.0937 0.222657,0.0937 0.175781,0 0.328125,-0.17579 0.328125,-0.35157 0,-0.1875 -0.105469,-0.24609 -0.257813,-0.3164 -0.75,-0.375 -0.773437,-0.375 -1.7578125,-0.84375 L 11.370219,107.258 c 0.199219,-0.0937 0.292969,-0.15235 0.292969,-0.33985 0,-0.1875 -0.152344,-0.33984 -0.328125,-0.33984 -0.09375,0 -0.117188,0 -0.421875,0.23437 l -1.4062505,1.00782 z m 0,0"
         style="fill:#5a9cfe;fill-opacity:1;fill-rule:nonzero;stroke:none" />
    </g>
    <path
       id="path28"
       d="m 3.421,-5.3207969 c 0.011719,-0.1757812 0.011719,-0.46875 -0.3046875,-0.46875 -0.1992188,0 -0.3632813,0.1640625 -0.328125,0.3164063 v 0.1640625 l 0.1757812,1.9335937 -1.59375,-1.1601562 c -0.1171875,-0.058594 -0.140625,-0.082031 -0.2226562,-0.082031 -0.17578125,0 -0.33984375,0.1757813 -0.33984375,0.3398438 0,0.1992187 0.12890625,0.2578125 0.24609375,0.3164062 l 1.7695312,0.84375 -1.7109375,0.8320313 c -0.1992187,0.1054687 -0.30468745,0.1523437 -0.30468745,0.3398437 0,0.1875 0.1640625,0.3515625 0.33984375,0.3515625 0.082031,0 0.1054687,0 0.421875,-0.234375 l 1.3945312,-1.0078125 -0.1875,2.08593753 c 0,0.26953125 0.2226563,0.328125 0.328125,0.328125 0.140625,0 0.328125,-0.09375 0.328125,-0.328125 l -0.1875,-2.08593753 1.6054688,1.1484375 c 0.1054687,0.070312 0.1289062,0.09375 0.2226562,0.09375 0.1757813,0 0.328125,-0.1757812 0.328125,-0.3515625 0,-0.1875 -0.1054687,-0.2460937 -0.2578125,-0.3164062 -0.75,-0.375 -0.7734375,-0.375 -1.7578125,-0.84375 L 5.1085,-3.9379844 c 0.1992187,-0.09375 0.2929687,-0.1523437 0.2929687,-0.3398437 0,-0.1875 -0.1523437,-0.3398438 -0.328125,-0.3398438 -0.09375,0 -0.1171875,0 -0.421875,0.234375 l -1.40625,1.0078125 z m 0,0"
       style="fill:#ec008c;fill-opacity:1;fill-rule:nonzero;stroke:none"
       aria-label="∗"
       transform="matrix(1.3333333,0,0,1.3333333,291.93867,330.30533)" />
    <g
       id="g28"
       aria-label="∗&#10;∗∗∗&#10;&#10;&#10;&#10;"
       transform="matrix(1.3333333,0,0,1.3333333,313.93467,330.30533)">
      <path
         id="path29"
         d="m 3.4210703,-5.3207969 c 0.011719,-0.1757812 0.011719,-0.46875 -0.3046875,-0.46875 -0.1992187,0 -0.3632812,0.1640625 -0.328125,0.3164063 v 0.1640625 l 0.1757813,1.9335937 -1.59375,-1.1601562 c -0.1171875,-0.058594 -0.140625,-0.082031 -0.2226563,-0.082031 -0.17578124,0 -0.33984374,0.1757813 -0.33984374,0.3398438 0,0.1992187 0.12890625,0.2578125 0.24609374,0.3164062 l 1.7695313,0.84375 -1.7109375,0.8320313 c -0.19921879,0.1054687 -0.30468754,0.1523437 -0.30468754,0.3398437 0,0.1875 0.1640625,0.3515625 0.33984374,0.3515625 0.082031,0 0.1054688,0 0.421875,-0.234375 l 1.3945313,-1.0078125 -0.1875,2.08593753 c 0,0.26953125 0.2226562,0.328125 0.328125,0.328125 0.140625,0 0.328125,-0.09375 0.328125,-0.328125 l -0.1875,-2.08593753 1.6054687,1.1484375 c 0.1054688,0.070312 0.1289063,0.09375 0.2226563,0.09375 0.1757812,0 0.328125,-0.1757812 0.328125,-0.3515625 0,-0.1875 -0.1054688,-0.2460937 -0.2578125,-0.3164062 -0.75,-0.375 -0.7734375,-0.375 -1.7578125,-0.84375 l 1.7226562,-0.8320313 c 0.1992188,-0.09375 0.2929688,-0.1523437 0.2929688,-0.3398437 0,-0.1875 -0.1523438,-0.3398438 -0.328125,-0.3398438 -0.09375,0 -0.1171875,0 -0.421875,0.234375 l -1.40625,1.0078125 z M -29.564281,9.1254922 c 0.01172,-0.1757813 0.01172,-0.46875 -0.304688,-0.46875 -0.199218,0 -0.363281,0.1640625 -0.328125,0.3164062 v 0.1640625 l 0.175782,1.9335941 -1.59375,-1.1601566 c -0.117188,-0.058594 -0.140625,-0.082031 -0.222657,-0.082031 -0.175781,0 -0.339843,0.1757806 -0.339843,0.3398436 0,0.199219 0.128906,0.257812 0.246093,0.316406 l 1.769532,0.84375 -1.710938,0.832031 c -0.199219,0.105469 -0.304687,0.152344 -0.304687,0.339844 0,0.1875 0.164062,0.351563 0.339843,0.351563 0.08203,0 0.105469,0 0.421875,-0.234375 l 1.394532,-1.007813 -0.1875,2.085938 c 0,0.269531 0.222656,0.328125 0.328125,0.328125 0.140625,0 0.328125,-0.09375 0.328125,-0.328125 l -0.1875,-2.085938 1.605468,1.148438 c 0.105469,0.07031 0.128907,0.09375 0.222657,0.09375 0.175781,0 0.328125,-0.175782 0.328125,-0.351563 0,-0.1875 -0.105469,-0.246094 -0.257813,-0.316406 -0.75,-0.375 -0.773437,-0.375 -1.757812,-0.84375 l 1.722656,-0.832031 c 0.199219,-0.09375 0.292969,-0.152344 0.292969,-0.339844 0,-0.1874999 -0.152344,-0.3398436 -0.328125,-0.3398436 -0.09375,0 -0.117188,0 -0.421875,0.2343746 l -1.40625,1.007813 z m 16.488281,0 c 0.01172,-0.1757813 0.01172,-0.46875 -0.304687,-0.46875 -0.199219,0 -0.363282,0.1640625 -0.328125,0.3164062 v 0.1640625 l 0.175781,1.9335941 -1.59375,-1.1601566 c -0.117188,-0.058594 -0.140625,-0.082031 -0.222656,-0.082031 -0.175782,0 -0.339844,0.1757806 -0.339844,0.3398436 0,0.199219 0.128906,0.257812 0.246094,0.316406 l 1.769531,0.84375 -1.710938,0.832031 c -0.199218,0.105469 -0.304687,0.152344 -0.304687,0.339844 0,0.1875 0.164062,0.351563 0.339844,0.351563 0.08203,0 0.105468,0 0.421875,-0.234375 l 1.394531,-1.007813 -0.1875,2.085938 c 0,0.269531 0.222656,0.328125 0.328125,0.328125 0.140625,0 0.328125,-0.09375 0.328125,-0.328125 l -0.1875,-2.085938 1.605469,1.148438 c 0.105468,0.07031 0.128906,0.09375 0.222656,0.09375 0.175781,0 0.328125,-0.175782 0.328125,-0.351563 0,-0.1875 -0.105469,-0.246094 -0.257813,-0.316406 -0.75,-0.375 -0.773437,-0.375 -1.757812,-0.84375 l 1.722656,-0.832031 c 0.199219,-0.09375 0.292969,-0.152344 0.292969,-0.339844 0,-0.1874999 -0.152344,-0.3398436 -0.328125,-0.3398436 -0.09375,0 -0.117188,0 -0.421875,0.2343746 l -1.40625,1.007813 z m 16.4970703,0 c 0.011719,-0.1757813 0.011719,-0.46875 -0.3046875,-0.46875 -0.1992187,0 -0.3632812,0.1640625 -0.328125,0.3164062 v 0.1640625 l 0.1757813,1.9335941 -1.59375,-1.1601566 c -0.1171875,-0.058594 -0.140625,-0.082031 -0.2226563,-0.082031 -0.17578124,0 -0.33984374,0.1757806 -0.33984374,0.3398436 0,0.199219 0.12890625,0.257812 0.24609374,0.316406 l 1.7695313,0.84375 -1.7109375,0.832031 c -0.19921879,0.105469 -0.30468754,0.152344 -0.30468754,0.339844 0,0.1875 0.1640625,0.351563 0.33984374,0.351563 0.082031,0 0.1054688,0 0.421875,-0.234375 l 1.3945313,-1.007813 -0.1875,2.085938 c 0,0.269531 0.2226562,0.328125 0.328125,0.328125 0.140625,0 0.328125,-0.09375 0.328125,-0.328125 l -0.1875,-2.085938 1.6054687,1.148438 c 0.1054688,0.07031 0.1289063,0.09375 0.2226563,0.09375 0.1757812,0 0.328125,-0.175782 0.328125,-0.351563 0,-0.1875 -0.1054688,-0.246094 -0.2578125,-0.316406 -0.75,-0.375 -0.7734375,-0.375 -1.7578125,-0.84375 l 1.7226562,-0.832031 c 0.1992188,-0.09375 0.2929688,-0.152344 0.2929688,-0.339844 0,-0.1874999 -0.1523438,-0.3398436 -0.328125,-0.3398436 -0.09375,0 -0.1171875,0 -0.421875,0.2343746 l -1.40625,1.007813 z m 0,0"
         style="fill:#5a9cfe;fill-opacity:1;fill-rule:nonzero;stroke:none" />
      <path
         id="path30"
         d="M 9.7579844,-2.8950156 H 10.590016 V -24.398922 H 6.6056406 v 0.832031 h 3.1523438 z m 0,20.6689456 H 6.6056406 v 0.820312 H 10.590016 V -2.9096641 H 9.7579844 Z M 85.188648,-6.0268516 h 0.820313 V -26.698727 h 3.152344 v -0.832031 h -3.972657 z m 0,21.4892576 h 3.972657 V 14.642094 H 86.008961 V -6.0415 h -0.820313 z m 0,0"
         style="fill:#5a9cfe;fill-opacity:1;fill-rule:nonzero;stroke:none" />
    </g>
    <path
       id="path31"
       d="m 3.4228984,-5.3207109 c 0.011719,-0.1757813 0.011719,-0.46875 -0.3046875,-0.46875 -0.1992187,0 -0.3632812,0.1640625 -0.328125,0.3164062 v 0.1640625 l 0.1757813,1.9335938 -1.59375,-1.1601563 c -0.1171875,-0.058594 -0.140625,-0.082031 -0.2226563,-0.082031 -0.17578121,0 -0.33984371,0.1757812 -0.33984371,0.3398437 0,0.1992188 0.12890625,0.2578125 0.24609371,0.3164063 l 1.7695313,0.84375 -1.7109375,0.8320312 c -0.19921876,0.1054688 -0.30468751,0.1523438 -0.30468751,0.3398438 0,0.1875 0.1640625,0.3515625 0.33984371,0.3515625 0.082031,0 0.1054688,0 0.421875,-0.234375 l 1.3945313,-1.0078125 -0.1875,2.08593746 c 0,0.26953125 0.2226562,0.328125 0.328125,0.328125 0.140625,0 0.328125,-0.09375 0.328125,-0.328125 l -0.1875,-2.08593746 1.6054687,1.1484375 c 0.1054688,0.070312 0.1289063,0.09375 0.2226563,0.09375 0.1757812,0 0.328125,-0.1757813 0.328125,-0.3515625 0,-0.1875 -0.1054688,-0.2460938 -0.2578125,-0.3164063 -0.75,-0.375 -0.7734375,-0.375 -1.7578125,-0.84375 l 1.7226562,-0.8320312 c 0.1992188,-0.09375 0.2929688,-0.1523438 0.2929688,-0.3398438 0,-0.1875 -0.1523438,-0.3398437 -0.328125,-0.3398437 -0.09375,0 -0.1171875,0 -0.421875,0.234375 l -1.40625,1.0078125 z m 0,0"
       style="fill:#ec008c;fill-opacity:1;fill-rule:nonzero;stroke:none"
       aria-label="∗"
       transform="matrix(1.3333333,0,0,1.3333333,433.33067,306.856)" />
    <g
       id="g31"
       aria-label="∗∗&#10;∗∗∗&#10;∗∗∗&#10;&#10;&#10;&#10;&#10;∗∗∗&#10;∗"
       transform="matrix(1.3333333,0,0,1.3333333,455.31467,306.856)">
      <path
         id="path32"
         d="m 3.4231797,-5.3207109 c 0.011719,-0.1757813 0.011719,-0.46875 -0.3046875,-0.46875 -0.1992188,0 -0.3632813,0.1640625 -0.328125,0.3164062 v 0.1640625 l 0.1757812,1.9335938 -1.59375,-1.1601563 c -0.1171875,-0.058594 -0.140625,-0.082031 -0.2226562,-0.082031 -0.17578126,0 -0.33984376,0.1757812 -0.33984376,0.3398437 0,0.1992188 0.12890625,0.2578125 0.24609376,0.3164063 l 1.7695312,0.84375 -1.7109375,0.8320312 c -0.19921871,0.1054688 -0.30468746,0.1523438 -0.30468746,0.3398438 0,0.1875 0.1640625,0.3515625 0.33984376,0.3515625 0.082031,0 0.1054687,0 0.421875,-0.234375 l 1.3945312,-1.0078125 -0.1875,2.08593746 c 0,0.26953125 0.2226563,0.328125 0.328125,0.328125 0.140625,0 0.328125,-0.09375 0.328125,-0.328125 l -0.1875,-2.08593746 1.6054688,1.1484375 c 0.1054687,0.070312 0.1289062,0.09375 0.2226562,0.09375 0.1757813,0 0.328125,-0.1757813 0.328125,-0.3515625 0,-0.1875 -0.1054687,-0.2460938 -0.2578125,-0.3164063 -0.75,-0.375 -0.7734375,-0.375 -1.7578125,-0.84375 l 1.7226563,-0.8320312 c 0.1992187,-0.09375 0.2929687,-0.1523438 0.2929687,-0.3398438 0,-0.1875 -0.1523437,-0.3398437 -0.328125,-0.3398437 -0.09375,0 -0.1171875,0 -0.421875,0.234375 l -1.40625,1.0078125 z m 16.4970703,0 c 0.01172,-0.1757813 0.01172,-0.46875 -0.304687,-0.46875 -0.199219,0 -0.363282,0.1640625 -0.328125,0.3164062 v 0.1640625 l 0.175781,1.9335938 -1.59375,-1.1601563 c -0.117188,-0.058594 -0.140625,-0.082031 -0.222656,-0.082031 -0.175782,0 -0.339844,0.1757812 -0.339844,0.3398437 0,0.1992188 0.128906,0.2578125 0.246094,0.3164063 l 1.769531,0.84375 -1.710938,0.8320312 c -0.199218,0.1054688 -0.304687,0.1523438 -0.304687,0.3398438 0,0.1875 0.164062,0.3515625 0.339844,0.3515625 0.08203,0 0.105468,0 0.421875,-0.234375 l 1.394531,-1.0078125 -0.1875,2.08593746 c 0,0.26953125 0.222656,0.328125 0.328125,0.328125 0.140625,0 0.328125,-0.09375 0.328125,-0.328125 l -0.1875,-2.08593746 1.605469,1.1484375 c 0.105468,0.070312 0.128906,0.09375 0.222656,0.09375 0.175781,0 0.328125,-0.1757813 0.328125,-0.3515625 0,-0.1875 -0.105469,-0.2460938 -0.257813,-0.3164063 -0.75,-0.375 -0.773437,-0.375 -1.757812,-0.84375 l 1.722656,-0.8320312 c 0.199219,-0.09375 0.292969,-0.1523438 0.292969,-0.3398438 0,-0.1875 -0.152344,-0.3398437 -0.328125,-0.3398437 -0.09375,0 -0.117188,0 -0.421875,0.234375 l -1.40625,1.0078125 z M -13.065102,9.1343672 c 0.01172,-0.1757813 0.01172,-0.46875 -0.304687,-0.46875 -0.199219,0 -0.363281,0.1640625 -0.328125,0.3164062 v 0.1640625 l 0.175781,1.9335941 -1.59375,-1.1601566 c -0.117187,-0.058594 -0.140625,-0.082031 -0.222656,-0.082031 -0.175781,0 -0.339844,0.1757806 -0.339844,0.3398436 0,0.199219 0.128906,0.257812 0.246094,0.316406 l 1.769531,0.84375 -1.710937,0.832031 c -0.199219,0.105469 -0.304688,0.152344 -0.304688,0.339844 0,0.1875 0.164063,0.351563 0.339844,0.351563 0.08203,0 0.105469,0 0.421875,-0.234375 l 1.394531,-1.007813 -0.1875,2.085938 c 0,0.269531 0.222656,0.328125 0.328125,0.328125 0.140625,0 0.328125,-0.09375 0.328125,-0.328125 l -0.1875,-2.085938 1.605469,1.148438 c 0.105469,0.07031 0.128906,0.09375 0.222656,0.09375 0.175781,0 0.328125,-0.175782 0.328125,-0.351563 0,-0.1875 -0.105469,-0.246094 -0.257812,-0.316406 -0.75,-0.375 -0.773438,-0.375 -1.757813,-0.84375 l 1.722656,-0.832031 c 0.199219,-0.09375 0.292969,-0.152344 0.292969,-0.339844 0,-0.1874999 -0.152344,-0.3398436 -0.328125,-0.3398436 -0.09375,0 -0.117187,0 -0.421875,0.2343746 l -1.40625,1.007813 z m 16.4882817,0 c 0.011719,-0.1757813 0.011719,-0.46875 -0.3046875,-0.46875 -0.1992188,0 -0.3632813,0.1640625 -0.328125,0.3164062 V 9.1460859 L 2.9661484,11.07968 1.3723984,9.9195234 c -0.1171875,-0.058594 -0.140625,-0.082031 -0.2226562,-0.082031 -0.17578126,0 -0.33984376,0.1757806 -0.33984376,0.3398436 0,0.199219 0.12890625,0.257812 0.24609376,0.316406 l 1.7695312,0.84375 -1.7109375,0.832031 c -0.19921871,0.105469 -0.30468746,0.152344 -0.30468746,0.339844 0,0.1875 0.1640625,0.351563 0.33984376,0.351563 0.082031,0 0.1054687,0 0.421875,-0.234375 l 1.3945312,-1.007813 -0.1875,2.085938 c 0,0.269531 0.2226563,0.328125 0.328125,0.328125 0.140625,0 0.328125,-0.09375 0.328125,-0.328125 l -0.1875,-2.085938 1.6054688,1.148438 c 0.1054687,0.07031 0.1289062,0.09375 0.2226562,0.09375 0.1757813,0 0.328125,-0.175782 0.328125,-0.351563 0,-0.1875 -0.1054687,-0.246094 -0.2578125,-0.316406 -0.75,-0.375 -0.7734375,-0.375 -1.7578125,-0.84375 L 5.1106797,10.51718 c 0.1992187,-0.09375 0.2929687,-0.152344 0.2929687,-0.339844 0,-0.1875001 -0.1523437,-0.3398438 -0.328125,-0.3398438 -0.09375,0 -0.1171875,0 -0.421875,0.2343748 l -1.40625,1.007813 z m 16.4970703,0 c 0.01172,-0.1757813 0.01172,-0.46875 -0.304687,-0.46875 -0.199219,0 -0.363282,0.1640625 -0.328125,0.3164062 v 0.1640625 l 0.175781,1.9335941 -1.59375,-1.1601566 c -0.117188,-0.058594 -0.140625,-0.082031 -0.222656,-0.082031 -0.175782,0 -0.339844,0.1757806 -0.339844,0.3398436 0,0.199219 0.128906,0.257812 0.246094,0.316406 l 1.769531,0.84375 -1.710938,0.832031 c -0.199218,0.105469 -0.304687,0.152344 -0.304687,0.339844 0,0.1875 0.164062,0.351563 0.339844,0.351563 0.08203,0 0.105468,0 0.421875,-0.234375 l 1.394531,-1.007813 -0.1875,2.085938 c 0,0.269531 0.222656,0.328125 0.328125,0.328125 0.140625,0 0.328125,-0.09375 0.328125,-0.328125 l -0.1875,-2.085938 1.605469,1.148438 c 0.105468,0.07031 0.128906,0.09375 0.222656,0.09375 0.175781,0 0.328125,-0.175782 0.328125,-0.351563 0,-0.1875 -0.105469,-0.246094 -0.257813,-0.316406 -0.75,-0.375 -0.773437,-0.375 -1.757812,-0.84375 L 21.60775,10.51718 c 0.199219,-0.09375 0.292969,-0.152344 0.292969,-0.339844 0,-0.1875001 -0.152344,-0.3398438 -0.328125,-0.3398438 -0.09375,0 -0.117188,0 -0.421875,0.2343748 l -1.40625,1.007813 z M -13.065102,23.577727 c 0.01172,-0.175782 0.01172,-0.46875 -0.304687,-0.46875 -0.199219,0 -0.363281,0.164062 -0.328125,0.316406 v 0.164062 l 0.175781,1.933594 -1.59375,-1.160156 c -0.117187,-0.05859 -0.140625,-0.08203 -0.222656,-0.08203 -0.175781,0 -0.339844,0.175781 -0.339844,0.339843 0,0.199219 0.128906,0.257813 0.246094,0.316407 l 1.769531,0.84375 -1.710937,0.832031 c -0.199219,0.105469 -0.304688,0.152344 -0.304688,0.339844 0,0.1875 0.164063,0.351562 0.339844,0.351562 0.08203,0 0.105469,0 0.421875,-0.234375 l 1.394531,-1.007812 -0.1875,2.085937 c 0,0.269531 0.222656,0.328125 0.328125,0.328125 0.140625,0 0.328125,-0.09375 0.328125,-0.328125 l -0.1875,-2.085937 1.605469,1.148437 c 0.105469,0.07031 0.128906,0.09375 0.222656,0.09375 0.175781,0 0.328125,-0.175781 0.328125,-0.351562 0,-0.1875 -0.105469,-0.246094 -0.257812,-0.316407 -0.75,-0.375 -0.773438,-0.375 -1.757813,-0.84375 l 1.722656,-0.832031 c 0.199219,-0.09375 0.292969,-0.152344 0.292969,-0.339844 0,-0.1875 -0.152344,-0.339843 -0.328125,-0.339843 -0.09375,0 -0.117187,0 -0.421875,0.234375 l -1.40625,1.007812 z m 16.4882817,0 c 0.011719,-0.175782 0.011719,-0.46875 -0.3046875,-0.46875 -0.1992188,0 -0.3632813,0.164062 -0.328125,0.316406 v 0.164062 l 0.1757812,1.933594 -1.59375,-1.160156 c -0.1171875,-0.05859 -0.140625,-0.08203 -0.2226562,-0.08203 -0.17578126,0 -0.33984376,0.175781 -0.33984376,0.339843 0,0.199219 0.12890625,0.257813 0.24609376,0.316407 l 1.7695312,0.84375 -1.7109375,0.832031 c -0.19921871,0.105469 -0.30468746,0.152344 -0.30468746,0.339844 0,0.1875 0.1640625,0.351562 0.33984376,0.351562 0.082031,0 0.1054687,0 0.421875,-0.234375 l 1.3945312,-1.007812 -0.1875,2.085937 c 0,0.269531 0.2226563,0.328125 0.328125,0.328125 0.140625,0 0.328125,-0.09375 0.328125,-0.328125 l -0.1875,-2.085937 1.6054688,1.148437 c 0.1054687,0.07031 0.1289062,0.09375 0.2226562,0.09375 0.1757813,0 0.328125,-0.175781 0.328125,-0.351562 0,-0.1875 -0.1054687,-0.246094 -0.2578125,-0.316407 -0.75,-0.375 -0.7734375,-0.375 -1.7578125,-0.84375 L 5.1106797,24.96054 c 0.1992187,-0.09375 0.2929687,-0.152344 0.2929687,-0.339844 0,-0.1875 -0.1523437,-0.339843 -0.328125,-0.339843 -0.09375,0 -0.1171875,0 -0.421875,0.234375 l -1.40625,1.007812 z m 16.4970703,0 c 0.01172,-0.175782 0.01172,-0.46875 -0.304687,-0.46875 -0.199219,0 -0.363282,0.164062 -0.328125,0.316406 v 0.164062 l 0.175781,1.933594 -1.59375,-1.160156 c -0.117188,-0.05859 -0.140625,-0.08203 -0.222656,-0.08203 -0.175782,0 -0.339844,0.175781 -0.339844,0.339843 0,0.199219 0.128906,0.257813 0.246094,0.316407 l 1.769531,0.84375 -1.710938,0.832031 c -0.199218,0.105469 -0.304687,0.152344 -0.304687,0.339844 0,0.1875 0.164062,0.351562 0.339844,0.351562 0.08203,0 0.105468,0 0.421875,-0.234375 l 1.394531,-1.007812 -0.1875,2.085937 c 0,0.269531 0.222656,0.328125 0.328125,0.328125 0.140625,0 0.328125,-0.09375 0.328125,-0.328125 l -0.1875,-2.085937 1.605469,1.148437 c 0.105468,0.07031 0.128906,0.09375 0.222656,0.09375 0.175781,0 0.328125,-0.175781 0.328125,-0.351562 0,-0.1875 -0.105469,-0.246094 -0.257813,-0.316407 -0.75,-0.375 -0.773437,-0.375 -1.757812,-0.84375 L 21.60775,24.96054 c 0.199219,-0.09375 0.292969,-0.152344 0.292969,-0.339844 0,-0.1875 -0.152344,-0.339843 -0.328125,-0.339843 -0.09375,0 -0.117188,0 -0.421875,0.234375 l -1.40625,1.007812 z m 0,0"
         style="fill:#5a9cfe;fill-opacity:1;fill-rule:nonzero;stroke:none" />
      <path
         id="path33"
         d="m 26.257164,11.557219 h 0.832031 V -9.9466875 H 23.10482 v 0.8320313 h 3.152344 z m 0,20.668945 H 23.10482 v 0.820313 h 3.984375 V 11.54257 h -0.832031 z m -1.59082,-101.560547 h 0.820312 V -90.006258 H 28.639 v -0.832031 h -3.972656 z m 0,21.489258 H 28.639 v -0.820312 h -3.152344 v -20.683594 h -0.820312 z m 0,0"
         style="fill:#5a9cfe;fill-opacity:1;fill-rule:nonzero;stroke:none" />
      <path
         id="path34"
         d="m 32.447594,-86.212312 c 0.01172,-0.175782 0.01172,-0.46875 -0.304688,-0.46875 -0.199218,0 -0.363281,0.164062 -0.328125,0.316406 v 0.164062 l 0.175782,1.933594 -1.59375,-1.160156 c -0.117188,-0.05859 -0.140625,-0.08203 -0.222657,-0.08203 -0.175781,0 -0.339843,0.175781 -0.339843,0.339843 0,0.199219 0.128906,0.257813 0.246093,0.316407 l 1.769532,0.84375 -1.710938,0.832031 c -0.199219,0.105469 -0.304687,0.152344 -0.304687,0.339844 0,0.1875 0.164062,0.351562 0.339843,0.351562 0.08203,0 0.105469,0 0.421875,-0.234375 l 1.394532,-1.007812 -0.1875,2.085937 c 0,0.269531 0.222656,0.328125 0.328125,0.328125 0.140625,0 0.328125,-0.09375 0.328125,-0.328125 l -0.1875,-2.085937 1.605468,1.148437 c 0.105469,0.07031 0.128907,0.09375 0.222657,0.09375 0.175781,0 0.328125,-0.175781 0.328125,-0.351562 0,-0.1875 -0.105469,-0.246094 -0.257813,-0.316407 -0.75,-0.375 -0.773437,-0.375 -1.757812,-0.84375 l 1.722656,-0.832031 c 0.199219,-0.09375 0.292969,-0.152344 0.292969,-0.339844 0,-0.1875 -0.152344,-0.339843 -0.328125,-0.339843 -0.09375,0 -0.117188,0 -0.421875,0.234375 l -1.40625,1.007812 z m 16.488281,0 c 0.01172,-0.175782 0.01172,-0.46875 -0.304687,-0.46875 -0.199219,0 -0.363282,0.164062 -0.328125,0.316406 v 0.164062 l 0.175781,1.933594 -1.59375,-1.160156 c -0.117188,-0.05859 -0.140625,-0.08203 -0.222656,-0.08203 -0.175782,0 -0.339844,0.175781 -0.339844,0.339843 0,0.199219 0.128906,0.257813 0.246094,0.316407 l 1.769531,0.84375 -1.710938,0.832031 c -0.199218,0.105469 -0.304687,0.152344 -0.304687,0.339844 0,0.1875 0.164062,0.351562 0.339844,0.351562 0.08203,0 0.105468,0 0.421875,-0.234375 l 1.394531,-1.007812 -0.1875,2.085937 c 0,0.269531 0.222656,0.328125 0.328125,0.328125 0.140625,0 0.328125,-0.09375 0.328125,-0.328125 l -0.1875,-2.085937 1.605469,1.148437 c 0.105468,0.07031 0.128906,0.09375 0.222656,0.09375 0.175781,0 0.328125,-0.175781 0.328125,-0.351562 0,-0.1875 -0.105469,-0.246094 -0.257813,-0.316407 -0.75,-0.375 -0.773437,-0.375 -1.757812,-0.84375 l 1.722656,-0.832031 c 0.199219,-0.09375 0.292969,-0.152344 0.292969,-0.339844 0,-0.1875 -0.152344,-0.339843 -0.328125,-0.339843 -0.09375,0 -0.117188,0 -0.421875,0.234375 l -1.40625,1.007812 z m 16.49707,0 c 0.01172,-0.175782 0.01172,-0.46875 -0.304687,-0.46875 -0.199219,0 -0.363281,0.164062 -0.328125,0.316406 v 0.164062 l 0.175781,1.933594 -1.59375,-1.160156 c -0.117187,-0.05859 -0.140625,-0.08203 -0.222656,-0.08203 -0.175781,0 -0.339844,0.175781 -0.339844,0.339843 0,0.199219 0.128906,0.257813 0.246094,0.316407 l 1.769531,0.84375 -1.710937,0.832031 c -0.199219,0.105469 -0.304688,0.152344 -0.304688,0.339844 0,0.1875 0.164063,0.351562 0.339844,0.351562 0.08203,0 0.105469,0 0.421875,-0.234375 l 1.394531,-1.007812 -0.1875,2.085937 c 0,0.269531 0.222656,0.328125 0.328125,0.328125 0.140625,0 0.328125,-0.09375 0.328125,-0.328125 l -0.1875,-2.085937 1.605469,1.148437 c 0.105469,0.07031 0.128906,0.09375 0.222656,0.09375 0.175781,0 0.328125,-0.175781 0.328125,-0.351562 0,-0.1875 -0.105469,-0.246094 -0.257812,-0.316407 -0.75,-0.375 -0.773438,-0.375 -1.757813,-0.84375 l 1.722656,-0.832031 c 0.199219,-0.09375 0.292969,-0.152344 0.292969,-0.339844 0,-0.1875 -0.152344,-0.339843 -0.328125,-0.339843 -0.09375,0 -0.117187,0 -0.421875,0.234375 l -1.40625,1.007812 z m -32.985351,14.446289 c 0.01172,-0.175782 0.01172,-0.46875 -0.304688,-0.46875 -0.199218,0 -0.363281,0.164062 -0.328125,0.316406 v 0.164062 l 0.175782,1.933594 -1.59375,-1.160156 c -0.117188,-0.05859 -0.140625,-0.08203 -0.222657,-0.08203 -0.175781,0 -0.339843,0.175781 -0.339843,0.339843 0,0.199219 0.128906,0.257813 0.246093,0.316407 l 1.769532,0.84375 -1.710938,0.832031 c -0.199219,0.105469 -0.304687,0.152344 -0.304687,0.339844 0,0.1875 0.164062,0.351562 0.339843,0.351562 0.08203,0 0.105469,0 0.421875,-0.234375 l 1.394532,-1.007812 -0.1875,2.085937 c 0,0.269531 0.222656,0.328125 0.328125,0.328125 0.140625,0 0.328125,-0.09375 0.328125,-0.328125 l -0.1875,-2.085937 1.605468,1.148437 c 0.105469,0.07031 0.128907,0.09375 0.222657,0.09375 0.175781,0 0.328125,-0.175781 0.328125,-0.351562 0,-0.1875 -0.105469,-0.246094 -0.257813,-0.316407 -0.75,-0.375 -0.773437,-0.375 -1.757812,-0.84375 l 1.722656,-0.832031 c 0.199219,-0.09375 0.292969,-0.152344 0.292969,-0.339844 0,-0.1875 -0.152344,-0.339843 -0.328125,-0.339843 -0.09375,0 -0.117188,0 -0.421875,0.234375 l -1.40625,1.007812 z m 0,0"
         style="fill:#5a9cfe;fill-opacity:1;fill-rule:nonzero;stroke:none" />
    </g>
    <path
       id="path35"
       d="m 3.421875,-5.3200234 c 0.011719,-0.1757813 0.011719,-0.46875 -0.3046875,-0.46875 -0.1992187,0 -0.3632812,0.1640625 -0.328125,0.3164062 v 0.1640625 l 0.1757813,1.9335938 -1.5937501,-1.1601563 c -0.1171875,-0.058594 -0.140625,-0.082031 -0.2226562,-0.082031 -0.17578125,0 -0.33984375,0.1757812 -0.33984375,0.3398437 0,0.1992188 0.12890625,0.2578125 0.24609375,0.3164063 l 1.7695313,0.84375 -1.7109376,0.8320312 c -0.1992187,0.1054688 -0.30468745,0.1523438 -0.30468745,0.3398438 0,0.1875 0.1640625,0.3515625 0.33984375,0.3515625 0.082031,0 0.1054687,0 0.421875,-0.234375 l 1.3945313,-1.0078125 -0.1875,2.08593746 c 0,0.26953125 0.2226562,0.328125 0.328125,0.328125 0.140625,0 0.328125,-0.09375 0.328125,-0.328125 l -0.1875,-2.08593746 1.6054687,1.1484375 c 0.1054687,0.070312 0.1289062,0.09375 0.2226562,0.09375 0.1757813,0 0.328125,-0.1757813 0.328125,-0.3515625 0,-0.1875 -0.1054687,-0.2460938 -0.2578125,-0.3164063 -0.75,-0.375 -0.7734375,-0.375 -1.7578124,-0.84375 L 5.109375,-3.9372109 c 0.1992187,-0.09375 0.2929687,-0.1523438 0.2929687,-0.3398438 0,-0.1875 -0.1523437,-0.3398437 -0.328125,-0.3398437 -0.09375,0 -0.1171875,0 -0.421875,0.234375 l -1.4062499,1.0078125 z m 0,0"
       style="fill:#ec008c;fill-opacity:1;fill-rule:nonzero;stroke:none"
       aria-label="∗"
       transform="matrix(1.3333333,0,0,1.3333333,516,218.26133)" />
    <g
       id="g35"
       aria-label="∗&#10;∗∗∗&#10;&#10;&#10;&#10;&#10;∗∗∗&#10;∗∗∗&#10;∗∗"
       transform="matrix(1.3333333,0,0,1.3333333,537.99467,218.26133)">
      <path
         id="path36"
         d="m 3.4229453,-5.3200234 c 0.011719,-0.1757813 0.011719,-0.46875 -0.3046875,-0.46875 -0.1992187,0 -0.3632812,0.1640625 -0.328125,0.3164062 v 0.1640625 l 0.1757813,1.9335938 -1.59375,-1.1601563 c -0.1171875,-0.058594 -0.140625,-0.082031 -0.2226563,-0.082031 -0.17578124,0 -0.33984374,0.1757812 -0.33984374,0.3398437 0,0.1992188 0.12890625,0.2578125 0.24609374,0.3164063 l 1.7695313,0.84375 -1.7109375,0.8320312 c -0.19921879,0.1054688 -0.30468754,0.1523438 -0.30468754,0.3398438 0,0.1875 0.1640625,0.3515625 0.33984374,0.3515625 0.082031,0 0.1054688,0 0.421875,-0.234375 l 1.3945313,-1.0078125 -0.1875,2.08593746 c 0,0.26953125 0.2226562,0.328125 0.328125,0.328125 0.140625,0 0.328125,-0.09375 0.328125,-0.328125 l -0.1875,-2.08593746 1.6054687,1.1484375 c 0.1054688,0.070312 0.1289063,0.09375 0.2226563,0.09375 0.1757812,0 0.328125,-0.1757813 0.328125,-0.3515625 0,-0.1875 -0.1054688,-0.2460938 -0.2578125,-0.3164063 -0.75,-0.375 -0.7734375,-0.375 -1.7578125,-0.84375 l 1.7226562,-0.8320312 c 0.1992188,-0.09375 0.2929688,-0.1523438 0.2929688,-0.3398438 0,-0.1875 -0.1523438,-0.3398437 -0.328125,-0.3398437 -0.09375,0 -0.1171875,0 -0.421875,0.234375 l -1.40625,1.0078125 z M -29.562406,9.1350547 c 0.01172,-0.1757813 0.01172,-0.46875 -0.304688,-0.46875 -0.199218,0 -0.363281,0.1640625 -0.328125,0.3164062 v 0.1640625 l 0.175782,1.9335936 -1.59375,-1.1601561 c -0.117188,-0.058594 -0.140625,-0.082031 -0.222657,-0.082031 -0.175781,0 -0.339843,0.1757811 -0.339843,0.3398431 0,0.199219 0.128906,0.257813 0.246093,0.316407 l 1.769532,0.84375 -1.710938,0.832031 c -0.199219,0.105469 -0.304687,0.152344 -0.304687,0.339844 0,0.1875 0.164062,0.351562 0.339843,0.351562 0.08203,0 0.105469,0 0.421875,-0.234375 l 1.394532,-1.007812 -0.1875,2.085937 c 0,0.269531 0.222656,0.328125 0.328125,0.328125 0.140625,0 0.328125,-0.09375 0.328125,-0.328125 l -0.1875,-2.085937 1.605468,1.148437 c 0.105469,0.07031 0.128907,0.09375 0.222657,0.09375 0.175781,0 0.328125,-0.175781 0.328125,-0.351562 0,-0.1875 -0.105469,-0.246094 -0.257813,-0.316407 -0.75,-0.375 -0.773437,-0.375 -1.757812,-0.84375 l 1.722656,-0.832031 c 0.199219,-0.09375 0.292969,-0.152344 0.292969,-0.339844 0,-0.1874994 -0.152344,-0.3398431 -0.328125,-0.3398431 -0.09375,0 -0.117188,0 -0.421875,0.2343751 l -1.40625,1.007812 z m 16.488281,0 c 0.01172,-0.1757813 0.01172,-0.46875 -0.304687,-0.46875 -0.199219,0 -0.363282,0.1640625 -0.328125,0.3164062 v 0.1640625 l 0.175781,1.9335936 -1.59375,-1.1601561 c -0.117188,-0.058594 -0.140625,-0.082031 -0.222656,-0.082031 -0.175782,0 -0.339844,0.1757811 -0.339844,0.3398431 0,0.199219 0.128906,0.257813 0.246094,0.316407 l 1.769531,0.84375 -1.710938,0.832031 c -0.199218,0.105469 -0.304687,0.152344 -0.304687,0.339844 0,0.1875 0.164062,0.351562 0.339844,0.351562 0.08203,0 0.105468,0 0.421875,-0.234375 l 1.394531,-1.007812 -0.1875,2.085937 c 0,0.269531 0.222656,0.328125 0.328125,0.328125 0.140625,0 0.328125,-0.09375 0.328125,-0.328125 l -0.1875,-2.085937 1.605469,1.148437 c 0.105468,0.07031 0.128906,0.09375 0.222656,0.09375 0.175781,0 0.328125,-0.175781 0.328125,-0.351562 0,-0.1875 -0.105469,-0.246094 -0.257813,-0.316407 -0.75,-0.375 -0.773437,-0.375 -1.757812,-0.84375 l 1.722656,-0.832031 c 0.199219,-0.09375 0.292969,-0.152344 0.292969,-0.339844 0,-0.1874994 -0.152344,-0.3398431 -0.328125,-0.3398431 -0.09375,0 -0.117188,0 -0.421875,0.2343751 l -1.40625,1.007812 z m 16.4970703,0 c 0.011719,-0.1757813 0.011719,-0.46875 -0.3046875,-0.46875 -0.1992187,0 -0.3632812,0.1640625 -0.328125,0.3164062 v 0.1640625 l 0.1757813,1.9335936 -1.59375,-1.1601561 c -0.1171875,-0.058594 -0.140625,-0.082031 -0.2226563,-0.082031 -0.17578124,0 -0.33984374,0.1757811 -0.33984374,0.3398431 0,0.199219 0.12890625,0.257813 0.24609374,0.316407 l 1.7695313,0.84375 -1.7109375,0.832031 c -0.19921879,0.105469 -0.30468754,0.152344 -0.30468754,0.339844 0,0.1875 0.1640625,0.351562 0.33984374,0.351562 0.082031,0 0.1054688,0 0.421875,-0.234375 l 1.3945313,-1.007812 -0.1875,2.085937 c 0,0.269531 0.2226562,0.328125 0.328125,0.328125 0.140625,0 0.328125,-0.09375 0.328125,-0.328125 l -0.1875,-2.085937 1.6054687,1.148437 c 0.1054688,0.07031 0.1289063,0.09375 0.2226563,0.09375 0.1757812,0 0.328125,-0.175781 0.328125,-0.351562 0,-0.1875 -0.1054688,-0.246094 -0.2578125,-0.316407 -0.75,-0.375 -0.7734375,-0.375 -1.7578125,-0.84375 l 1.7226562,-0.832031 c 0.1992188,-0.09375 0.2929688,-0.152344 0.2929688,-0.339844 0,-0.1874994 -0.1523438,-0.3398431 -0.328125,-0.3398431 -0.09375,0 -0.1171875,0 -0.421875,0.2343751 l -1.40625,1.007812 z m 0,0"
         style="fill:#5a9cfe;fill-opacity:1;fill-rule:nonzero;stroke:none" />
      <path
         id="path37"
         d="M 9.7598594,-2.8854531 H 10.591891 V -24.389359 H 6.6075156 v 0.832031 h 3.1523438 z m 0,20.6689451 H 6.6075156 v 0.820313 H 10.591891 V -2.9001016 H 9.7598594 Z M -140.98721,-64.282914 h 0.82031 v -20.671875 h 3.15235 v -0.832031 h -3.97266 z m 0,21.489258 h 3.97266 v -0.820313 h -3.15235 v -20.683593 h -0.82031 z m 0,0"
         style="fill:#5a9cfe;fill-opacity:1;fill-rule:nonzero;stroke:none" />
      <path
         id="path38"
         d="m -133.20596,-81.160844 c 0.0117,-0.175781 0.0117,-0.46875 -0.30469,-0.46875 -0.19922,0 -0.36328,0.164063 -0.32812,0.316407 v 0.164062 l 0.17578,1.933594 -1.59375,-1.160156 c -0.11719,-0.05859 -0.14063,-0.08203 -0.22266,-0.08203 -0.17578,0 -0.33984,0.175782 -0.33984,0.339844 0,0.199219 0.1289,0.257813 0.24609,0.316406 l 1.76953,0.84375 -1.71093,0.832032 c -0.19922,0.105468 -0.30469,0.152343 -0.30469,0.339843 0,0.1875 0.16406,0.351563 0.33984,0.351563 0.082,0 0.10547,0 0.42188,-0.234375 l 1.39453,-1.007813 -0.1875,2.085938 c 0,0.269531 0.22265,0.328125 0.32812,0.328125 0.14063,0 0.32813,-0.09375 0.32813,-0.328125 l -0.1875,-2.085938 1.60547,1.148438 c 0.10547,0.07031 0.1289,0.09375 0.22265,0.09375 0.17578,0 0.32813,-0.175781 0.32813,-0.351563 0,-0.1875 -0.10547,-0.246093 -0.25781,-0.316406 -0.75,-0.375 -0.77344,-0.375 -1.75782,-0.84375 l 1.72266,-0.832031 c 0.19922,-0.09375 0.29297,-0.152344 0.29297,-0.339844 0,-0.1875 -0.15235,-0.339844 -0.32813,-0.339844 -0.0937,0 -0.11718,0 -0.42187,0.234375 l -1.40625,1.007813 z m 16.48535,0 c 0.0117,-0.175781 0.0117,-0.46875 -0.30469,-0.46875 -0.19922,0 -0.36328,0.164063 -0.32812,0.316407 v 0.164062 l 0.17578,1.933594 -1.59375,-1.160156 c -0.11719,-0.05859 -0.14063,-0.08203 -0.22266,-0.08203 -0.17578,0 -0.33984,0.175782 -0.33984,0.339844 0,0.199219 0.12891,0.257813 0.24609,0.316406 l 1.76953,0.84375 -1.71093,0.832032 c -0.19922,0.105468 -0.30469,0.152343 -0.30469,0.339843 0,0.1875 0.16406,0.351563 0.33984,0.351563 0.082,0 0.10547,0 0.42188,-0.234375 l 1.39453,-1.007813 -0.1875,2.085938 c 0,0.269531 0.22266,0.328125 0.32812,0.328125 0.14063,0 0.32813,-0.09375 0.32813,-0.328125 l -0.1875,-2.085938 1.60547,1.148438 c 0.10547,0.07031 0.1289,0.09375 0.22265,0.09375 0.17579,0 0.32813,-0.175781 0.32813,-0.351563 0,-0.1875 -0.10547,-0.246093 -0.25781,-0.316406 -0.75,-0.375 -0.77344,-0.375 -1.75782,-0.84375 l 1.72266,-0.832031 c 0.19922,-0.09375 0.29297,-0.152344 0.29297,-0.339844 0,-0.1875 -0.15234,-0.339844 -0.32813,-0.339844 -0.0937,0 -0.11718,0 -0.42187,0.234375 l -1.40625,1.007813 z m 16.49707,0 c 0.0117,-0.175781 0.0117,-0.46875 -0.30469,-0.46875 -0.19922,0 -0.36328,0.164063 -0.32812,0.316407 v 0.164062 l 0.17578,1.933594 -1.59375,-1.160156 c -0.11719,-0.05859 -0.14063,-0.08203 -0.22266,-0.08203 -0.17578,0 -0.33984,0.175782 -0.33984,0.339844 0,0.199219 0.12891,0.257813 0.24609,0.316406 l 1.76953,0.84375 -1.71093,0.832032 c -0.19922,0.105468 -0.30469,0.152343 -0.30469,0.339843 0,0.1875 0.16406,0.351563 0.33984,0.351563 0.082,0 0.10547,0 0.42188,-0.234375 l 1.39453,-1.007813 -0.1875,2.085938 c 0,0.269531 0.22266,0.328125 0.32812,0.328125 0.14063,0 0.32813,-0.09375 0.32813,-0.328125 l -0.1875,-2.085938 1.605468,1.148438 c 0.105469,0.07031 0.128907,0.09375 0.222657,0.09375 0.175781,0 0.328125,-0.175781 0.328125,-0.351563 0,-0.1875 -0.105469,-0.246093 -0.257813,-0.316406 -0.75,-0.375 -0.773437,-0.375 -1.757817,-0.84375 l 1.722661,-0.832031 c 0.199219,-0.09375 0.292969,-0.152344 0.292969,-0.339844 0,-0.1875 -0.152344,-0.339844 -0.328125,-0.339844 -0.09375,0 -0.117188,0 -0.421875,0.234375 l -1.40625,1.007813 z m -32.98242,14.446289 c 0.0117,-0.175781 0.0117,-0.46875 -0.30469,-0.46875 -0.19922,0 -0.36328,0.164063 -0.32812,0.316407 v 0.164062 l 0.17578,1.933594 -1.59375,-1.160156 c -0.11719,-0.05859 -0.14063,-0.08203 -0.22266,-0.08203 -0.17578,0 -0.33984,0.175782 -0.33984,0.339844 0,0.199219 0.1289,0.257813 0.24609,0.316406 l 1.76953,0.84375 -1.71093,0.832032 c -0.19922,0.105468 -0.30469,0.152343 -0.30469,0.339843 0,0.1875 0.16406,0.351563 0.33984,0.351563 0.082,0 0.10547,0 0.42188,-0.234375 l 1.39453,-1.007813 -0.1875,2.085938 c 0,0.269531 0.22265,0.328125 0.32812,0.328125 0.14063,0 0.32813,-0.09375 0.32813,-0.328125 l -0.1875,-2.085938 1.60547,1.148438 c 0.10547,0.07031 0.1289,0.09375 0.22265,0.09375 0.17578,0 0.32813,-0.175781 0.32813,-0.351563 0,-0.1875 -0.10547,-0.246093 -0.25781,-0.316406 -0.75,-0.375 -0.77344,-0.375 -1.75782,-0.84375 l 1.72266,-0.832031 c 0.19922,-0.09375 0.29297,-0.152344 0.29297,-0.339844 0,-0.1875 -0.15235,-0.339844 -0.32813,-0.339844 -0.0937,0 -0.11718,0 -0.42187,0.234375 l -1.40625,1.007813 z m 16.48535,0 c 0.0117,-0.175781 0.0117,-0.46875 -0.30469,-0.46875 -0.19922,0 -0.36328,0.164063 -0.32812,0.316407 v 0.164062 l 0.17578,1.933594 -1.59375,-1.160156 c -0.11719,-0.05859 -0.14063,-0.08203 -0.22266,-0.08203 -0.17578,0 -0.33984,0.175782 -0.33984,0.339844 0,0.199219 0.12891,0.257813 0.24609,0.316406 l 1.76953,0.84375 -1.71093,0.832032 c -0.19922,0.105468 -0.30469,0.152343 -0.30469,0.339843 0,0.1875 0.16406,0.351563 0.33984,0.351563 0.082,0 0.10547,0 0.42188,-0.234375 l 1.39453,-1.007813 -0.1875,2.085938 c 0,0.269531 0.22266,0.328125 0.32812,0.328125 0.14063,0 0.32813,-0.09375 0.32813,-0.328125 l -0.1875,-2.085938 1.60547,1.148438 c 0.10547,0.07031 0.1289,0.09375 0.22265,0.09375 0.17579,0 0.32813,-0.175781 0.32813,-0.351563 0,-0.1875 -0.10547,-0.246093 -0.25781,-0.316406 -0.75,-0.375 -0.77344,-0.375 -1.75782,-0.84375 l 1.72266,-0.832031 c 0.19922,-0.09375 0.29297,-0.152344 0.29297,-0.339844 0,-0.1875 -0.15234,-0.339844 -0.32813,-0.339844 -0.0937,0 -0.11718,0 -0.42187,0.234375 l -1.40625,1.007813 z m 16.49707,0 c 0.0117,-0.175781 0.0117,-0.46875 -0.30469,-0.46875 -0.19922,0 -0.36328,0.164063 -0.32812,0.316407 v 0.164062 l 0.17578,1.933594 -1.59375,-1.160156 c -0.11719,-0.05859 -0.14063,-0.08203 -0.22266,-0.08203 -0.17578,0 -0.33984,0.175782 -0.33984,0.339844 0,0.199219 0.12891,0.257813 0.24609,0.316406 l 1.76953,0.84375 -1.71093,0.832032 c -0.19922,0.105468 -0.30469,0.152343 -0.30469,0.339843 0,0.1875 0.16406,0.351563 0.33984,0.351563 0.082,0 0.10547,0 0.42188,-0.234375 l 1.39453,-1.007813 -0.1875,2.085938 c 0,0.269531 0.22266,0.328125 0.32812,0.328125 0.14063,0 0.32813,-0.09375 0.32813,-0.328125 l -0.1875,-2.085938 1.605468,1.148438 c 0.105469,0.07031 0.128907,0.09375 0.222657,0.09375 0.175781,0 0.328125,-0.175781 0.328125,-0.351563 0,-0.1875 -0.105469,-0.246093 -0.257813,-0.316406 -0.75,-0.375 -0.773437,-0.375 -1.757817,-0.84375 l 1.722661,-0.832031 c 0.199219,-0.09375 0.292969,-0.152344 0.292969,-0.339844 0,-0.1875 -0.152344,-0.339844 -0.328125,-0.339844 -0.09375,0 -0.117188,0 -0.421875,0.234375 l -1.40625,1.007813 z m -32.98242,14.452149 c 0.0117,-0.175781 0.0117,-0.46875 -0.30469,-0.46875 -0.19922,0 -0.36328,0.164062 -0.32812,0.316406 v 0.164063 l 0.17578,1.933593 -1.59375,-1.160156 c -0.11719,-0.05859 -0.14063,-0.08203 -0.22266,-0.08203 -0.17578,0 -0.33984,0.175781 -0.33984,0.339844 0,0.199218 0.1289,0.257812 0.24609,0.316406 l 1.76953,0.84375 -1.71093,0.832031 c -0.19922,0.105469 -0.30469,0.152344 -0.30469,0.339844 0,0.1875 0.16406,0.351562 0.33984,0.351562 0.082,0 0.10547,0 0.42188,-0.234375 l 1.39453,-1.007812 -0.1875,2.085937 c 0,0.269532 0.22265,0.328125 0.32812,0.328125 0.14063,0 0.32813,-0.09375 0.32813,-0.328125 l -0.1875,-2.085937 1.60547,1.148437 c 0.10547,0.07031 0.1289,0.09375 0.22265,0.09375 0.17578,0 0.32813,-0.175781 0.32813,-0.351562 0,-0.1875 -0.10547,-0.246094 -0.25781,-0.316406 -0.75,-0.375 -0.77344,-0.375 -1.75782,-0.84375 l 1.72266,-0.832032 c 0.19922,-0.09375 0.29297,-0.152343 0.29297,-0.339843 0,-0.1875 -0.15235,-0.339844 -0.32813,-0.339844 -0.0937,0 -0.11718,0 -0.42187,0.234375 l -1.40625,1.007812 z m 16.48535,0 c 0.0117,-0.175781 0.0117,-0.46875 -0.30469,-0.46875 -0.19922,0 -0.36328,0.164062 -0.32812,0.316406 v 0.164063 l 0.17578,1.933593 -1.59375,-1.160156 c -0.11719,-0.05859 -0.14063,-0.08203 -0.22266,-0.08203 -0.17578,0 -0.33984,0.175781 -0.33984,0.339844 0,0.199218 0.12891,0.257812 0.24609,0.316406 l 1.76953,0.84375 -1.71093,0.832031 c -0.19922,0.105469 -0.30469,0.152344 -0.30469,0.339844 0,0.1875 0.16406,0.351562 0.33984,0.351562 0.082,0 0.10547,0 0.42188,-0.234375 l 1.39453,-1.007812 -0.1875,2.085937 c 0,0.269532 0.22266,0.328125 0.32812,0.328125 0.14063,0 0.32813,-0.09375 0.32813,-0.328125 l -0.1875,-2.085937 1.60547,1.148437 c 0.10547,0.07031 0.1289,0.09375 0.22265,0.09375 0.17579,0 0.32813,-0.175781 0.32813,-0.351562 0,-0.1875 -0.10547,-0.246094 -0.25781,-0.316406 -0.75,-0.375 -0.77344,-0.375 -1.75782,-0.84375 l 1.72266,-0.832032 c 0.19922,-0.09375 0.29297,-0.152343 0.29297,-0.339843 0,-0.1875 -0.15234,-0.339844 -0.32813,-0.339844 -0.0937,0 -0.11718,0 -0.42187,0.234375 l -1.40625,1.007812 z m 0,0"
         style="fill:#5a9cfe;fill-opacity:1;fill-rule:nonzero;stroke:none" />
    </g>
    <path
       id="path39"
       d="m 3.4204609,-5.3214062 c 0.011719,-0.1757813 0.011719,-0.46875 -0.3046875,-0.46875 -0.1992187,0 -0.3632812,0.1640625 -0.328125,0.3164062 v 0.1640625 l 0.1757813,1.9335938 -1.59375,-1.1601563 c -0.1171875,-0.058594 -0.140625,-0.082031 -0.2226563,-0.082031 -0.17578121,0 -0.33984371,0.1757812 -0.33984371,0.3398437 0,0.1992188 0.12890625,0.2578125 0.24609371,0.3164063 l 1.7695313,0.84375 -1.7109375,0.8320312 C 0.91264844,-2.180781 0.80717969,-2.133906 0.80717969,-1.946406 c 0,0.1875 0.1640625,0.3515625 0.33984371,0.3515625 0.082031,0 0.1054688,0 0.421875,-0.234375 l 1.3945313,-1.0078125 -0.1875,2.08593745 c 0,0.26953125 0.2226562,0.328125 0.328125,0.328125 0.140625,0 0.328125,-0.09375 0.328125,-0.328125 l -0.1875,-2.08593745 1.6054687,1.1484375 c 0.1054688,0.070312 0.1289063,0.09375 0.2226563,0.09375 0.1757812,0 0.328125,-0.1757813 0.328125,-0.3515625 0,-0.1875 -0.1054688,-0.2460938 -0.2578125,-0.3164063 -0.75,-0.375 -0.7734375,-0.375 -1.7578125,-0.84375 l 1.7226562,-0.8320312 c 0.1992188,-0.09375 0.2929688,-0.1523438 0.2929688,-0.3398438 0,-0.1875 -0.1523438,-0.3398437 -0.328125,-0.3398437 -0.09375,0 -0.1171875,0 -0.421875,0.234375 l -1.40625,1.0078125 z m 0,0"
       style="fill:#ec008c;fill-opacity:1;fill-rule:nonzero;stroke:none"
       aria-label="∗"
       transform="matrix(1.3333333,0,0,1.3333333,399.80267,155.67333)" />
    <path
       id="path40"
       d="M 3.2353047,21.034086 H 4.0673359 V -0.46982031 H 0.08296094 V 0.36221094 H 3.2353047 Z m 0,20.668945 H 0.08296094 v 0.820313 H 4.0673359 V 21.019438 H 3.2353047 Z m 0,0"
       style="fill:#5a9cfe;fill-opacity:1;fill-rule:nonzero;stroke:none"
       aria-label="&#10;"
       transform="matrix(1.3333333,0,0,1.3333333,408.50267,104.50533)" />
    <path
       id="path41"
       d="M 4.6868984,-7.0301562 C 4.5697109,-6.385625 4.1712734,-6.1395312 3.2454922,-6.15125 v 0.4921875 h 1.1601562 v 4.265625 h 0.7265625 v -5.6367187 z m 0.09375,-1.40625 c -2.4140625,0 -4.35937496,1.8984375 -4.35937496,4.265625 0,2.4023437 1.91015626,4.3242187 4.30078126,4.3242187 2.3671875,0 4.2890625,-1.921875 4.2890625,-4.3007812 0,-2.3320313 -1.921875,-4.2890625 -4.2304688,-4.2890625 z m 0,0.3984375 c 0.8789063,0 1.8632813,0.375 2.5429688,0.9960937 0.8554687,0.7851563 1.2890625,1.7695313 1.2890625,2.8945313 0,2.1679687 -1.734375,3.91406245 -3.890625,3.91406245 -2.1796875,0 -3.91406251,-1.74609375 -3.91406251,-3.93749995 0,-0.9492188 0.36328121,-1.875 1.00781251,-2.578125 0.7734375,-0.8671875 1.7695312,-1.2890625 2.9648437,-1.2890625 z M -9.20275,120.8009 h -2.695312 c 0.175781,-0.35156 0.28125,-0.45703 0.9375,-0.90235 1.429687,-0.94921 1.804687,-1.4414 1.804687,-2.35546 0,-1.01954 -0.7734375,-1.76954 -1.828125,-1.76954 -1.019531,0 -1.769531,0.73829 -1.769531,1.7461 v 0.16406 h 0.726562 c -0.01172,-0.0703 -0.01172,-0.14062 -0.01172,-0.17578 0,-0.71484 0.421875,-1.19531 1.054687,-1.19531 0.644531,0 1.1015625,0.5039 1.1015625,1.21875 0,0.72656 -0.2929685,1.10156 -1.4179685,1.82812 -0.925781,0.60938 -1.371094,1.20703 -1.371094,1.86328 0,0.0586 0,0.11719 0.01172,0.19922 h 3.457031 z m -1.652344,-6.42188 c -2.414062,0 -4.359375,1.89844 -4.359375,4.26563 0,2.40234 1.910157,4.32422 4.300782,4.32422 2.367187,0 4.289062,-1.92188 4.289062,-4.30078 0,-2.33204 -1.921875,-4.28907 -4.230469,-4.28907 z m 0,0.39844 c 0.8789065,0 1.8632815,0.375 2.542969,0.99609 0.8554688,0.78516 1.2890625,1.76954 1.2890625,2.89454 0,2.16796 -1.734375,3.91406 -3.8906245,3.91406 -2.179688,0 -3.914063,-1.7461 -3.914063,-3.9375 0,-0.94922 0.363281,-1.875 1.007813,-2.57813 0.773437,-0.86718 1.769531,-1.28906 2.964843,-1.28906 z M 142.91834,81.836055 c 0,-0.222657 0.0234,-0.328125 0.0586,-0.457032 0.10547,-0.363281 0.45703,-0.597656 0.90234,-0.597656 0.60938,0 0.98438,0.386719 0.98438,0.996094 0,0.363281 -0.10547,0.621094 -0.32813,0.773437 -0.28125,0.175782 -0.53906,0.269532 -0.78515,0.269532 -0.0352,0 -0.12891,-0.01172 -0.2461,-0.02344 h -0.10547 v 0.515625 h 0.39844 c 0.80859,0 1.27734,0.386719 1.27734,1.066406 0,0.621094 -0.44531,1.054688 -1.08984,1.054688 -0.375,0 -0.70312,-0.152344 -0.90234,-0.433594 -0.11719,-0.164062 -0.16407,-0.386719 -0.16407,-0.761719 l -0.64453,0.128907 c -0.0117,0.08203 -0.0117,0.164062 -0.0117,0.222656 0,0.832031 0.71485,1.441406 1.67579,1.441406 1.0664,0 1.80468,-0.679687 1.80468,-1.652344 0,-0.703125 -0.32812,-1.148437 -0.97265,-1.359375 0.57422,-0.269531 0.82031,-0.621093 0.82031,-1.21875 0,-0.890625 -0.72656,-1.558593 -1.6875,-1.558593 -0.59766,0 -1.14844,0.28125 -1.41797,0.726562 -0.14062,0.246094 -0.19922,0.46875 -0.21094,0.867188 z m 1.07813,-2.917969 c -2.41406,0 -4.35938,1.898437 -4.35938,4.265625 0,2.402344 1.91016,4.324219 4.30079,4.324219 2.36718,0 4.28906,-1.921875 4.28906,-4.300782 0,-2.332031 -1.92188,-4.289062 -4.23047,-4.289062 z m 0,0.398437 c 0.87891,0 1.86328,0.375 2.54297,0.996094 0.85547,0.785156 1.28906,1.769531 1.28906,2.894531 0,2.167969 -1.73437,3.914063 -3.89062,3.914063 -2.17969,0 -3.91407,-1.746094 -3.91407,-3.9375 0,-0.949219 0.36328,-1.875 1.00782,-2.578125 0.77343,-0.867188 1.76953,-1.289063 2.96484,-1.289063 z M 0.93396875,135.17688 c -0.1171875,0.64453 -0.515625,0.89062 -1.44140625,0.8789 v 0.49219 h 1.16015625 v 4.26562 H 1.3792813 v -5.63671 z m 0.09375,-1.40625 c -2.4140624,0 -4.359375,1.89843 -4.359375,4.26562 0,2.40234 1.9101565,4.32422 4.30078135,4.32422 2.36718755,0 4.28906245,-1.92188 4.28906245,-4.30078 0,-2.33203 -1.921875,-4.28906 -4.2304688,-4.28906 z m 0,0.39843 c 0.8789062,0 1.8632813,0.375 2.542969,0.9961 0.8554685,0.78515 1.2890623,1.76953 1.2890623,2.89453 0,2.16797 -1.734375,3.91406 -3.89062495,3.91406 -2.17968755,0 -3.91406255,-1.74609 -3.91406255,-3.9375 0,-0.94922 0.3632813,-1.875 1.0078125,-2.57812 0.7734375,-0.86719 1.7695313,-1.28907 2.9648437,-1.28907 z M 155.10877,104.64074 h -2.69531 c 0.17578,-0.35156 0.28125,-0.45703 0.9375,-0.90234 1.42969,-0.94922 1.80469,-1.44141 1.80469,-2.35547 0,-1.01953 -0.77344,-1.769532 -1.82813,-1.769532 -1.01953,0 -1.76953,0.738282 -1.76953,1.746092 v 0.16406 h 0.72656 c -0.0117,-0.0703 -0.0117,-0.14062 -0.0117,-0.17578 0,-0.71484 0.42187,-1.19531 1.05468,-1.19531 0.64453,0 1.10157,0.50391 1.10157,1.21875 0,0.72656 -0.29297,1.10156 -1.41797,1.82813 -0.92578,0.60937 -1.3711,1.20703 -1.3711,1.86328 0,0.0586 0,0.11718 0.0117,0.19922 h 3.45703 z m -1.65234,-6.421873 c -2.41406,0 -4.35938,1.898433 -4.35938,4.265623 0,2.40235 1.91016,4.32422 4.30079,4.32422 2.36718,0 4.28906,-1.92187 4.28906,-4.30078 0,-2.33203 -1.92188,-4.289063 -4.23047,-4.289063 z m 0,0.398438 c 0.87891,0 1.86328,0.375 2.54297,0.996093 0.85547,0.785152 1.28906,1.769532 1.28906,2.894532 0,2.16797 -1.73437,3.91406 -3.89062,3.91406 -2.17969,0 -3.91407,-1.74609 -3.91407,-3.9375 0,-0.94922 0.36328,-1.875 1.00782,-2.578123 0.77343,-0.867187 1.76953,-1.289062 2.96484,-1.289062 z M 129.46815,217.5802 c 0,-0.22266 0.0234,-0.32813 0.0586,-0.45704 0.10547,-0.36328 0.45703,-0.59765 0.90235,-0.59765 0.60937,0 0.98437,0.38672 0.98437,0.99609 0,0.36328 -0.10547,0.6211 -0.32812,0.77344 -0.28125,0.17578 -0.53907,0.26953 -0.78516,0.26953 -0.0352,0 -0.12891,-0.0117 -0.24609,-0.0234 h -0.10547 v 0.51563 h 0.39843 c 0.8086,0 1.27735,0.38672 1.27735,1.0664 0,0.6211 -0.44531,1.05469 -1.08985,1.05469 -0.375,0 -0.70312,-0.15234 -0.90234,-0.43359 -0.11719,-0.16406 -0.16406,-0.38672 -0.16406,-0.76172 l -0.64453,0.12891 c -0.0117,0.082 -0.0117,0.16406 -0.0117,0.22265 0,0.83203 0.71484,1.44141 1.67578,1.44141 1.06641,0 1.80469,-0.67969 1.80469,-1.65235 0,-0.70312 -0.32813,-1.14843 -0.97266,-1.35937 0.57422,-0.26953 0.82031,-0.62109 0.82031,-1.21875 0,-0.89063 -0.72656,-1.55859 -1.6875,-1.55859 -0.59765,0 -1.14843,0.28125 -1.41797,0.72656 -0.14062,0.24609 -0.19921,0.46875 -0.21093,0.86719 z m 1.07812,-2.91797 c -2.41406,0 -4.35937,1.89843 -4.35937,4.26562 0,2.40235 1.91015,4.32422 4.30078,4.32422 2.36719,0 4.28906,-1.92187 4.28906,-4.30078 0,-2.33203 -1.92187,-4.28906 -4.23047,-4.28906 z m 0,0.39843 c 0.87891,0 1.86328,0.375 2.54297,0.9961 0.85547,0.78515 1.28906,1.76953 1.28906,2.89453 0,2.16797 -1.73437,3.91406 -3.89062,3.91406 -2.17969,0 -3.91406,-1.74609 -3.91406,-3.9375 0,-0.94922 0.36328,-1.875 1.00781,-2.57812 0.77344,-0.86719 1.76953,-1.28907 2.96484,-1.28907 z m 41.76856,-112.11328 c -0.11719,0.64453 -0.51563,0.89063 -1.44141,0.87891 v 0.49219 h 1.16016 v 4.26562 h 0.72656 v -5.63672 z m 0.0937,-1.40625 c -2.41406,0 -4.35938,1.89844 -4.35938,4.26563 0,2.40234 1.91016,4.32422 4.30078,4.32422 2.36719,0 4.28907,-1.92188 4.28907,-4.30078 0,-2.33204 -1.92188,-4.28907 -4.23047,-4.28907 z m 0,0.39844 c 0.8789,0 1.86328,0.375 2.54297,0.99609 0.85547,0.78516 1.28906,1.76954 1.28906,2.89454 0,2.16796 -1.73438,3.91406 -3.89063,3.91406 -2.17968,0 -3.91406,-1.7461 -3.91406,-3.9375 0,-0.94922 0.36328,-1.875 1.00781,-2.57813 0.77344,-0.86718 1.76954,-1.28906 2.96485,-1.28906 z m -10.75195,122.37598 h -2.69532 c 0.17578,-0.35157 0.28125,-0.45703 0.9375,-0.90235 1.42969,-0.94922 1.80469,-1.4414 1.80469,-2.35547 0,-1.01953 -0.77344,-1.76953 -1.82812,-1.76953 -1.01954,0 -1.76954,0.73828 -1.76954,1.7461 v 0.16406 h 0.72657 c -0.0117,-0.0703 -0.0117,-0.14063 -0.0117,-0.17578 0,-0.71485 0.42187,-1.19531 1.05469,-1.19531 0.64453,0 1.10156,0.5039 1.10156,1.21875 0,0.72656 -0.29297,1.10156 -1.41797,1.82812 -0.92578,0.60938 -1.37109,1.20703 -1.37109,1.86328 0,0.0586 0,0.11719 0.0117,0.19922 h 3.45704 z m -1.65235,-6.42188 c -2.41406,0 -4.35937,1.89844 -4.35937,4.26563 0,2.40234 1.91015,4.32422 4.30078,4.32422 2.36719,0 4.28906,-1.92188 4.28906,-4.30079 0,-2.33203 -1.92187,-4.28906 -4.23047,-4.28906 z m 0,0.39844 c 0.87891,0 1.86328,0.375 2.54297,0.99609 0.85547,0.78516 1.28906,1.76953 1.28906,2.89453 0,2.16797 -1.73437,3.91407 -3.89062,3.91407 -2.17969,0 -3.91406,-1.7461 -3.91406,-3.9375 0,-0.94922 0.36328,-1.875 1.00781,-2.57813 0.77344,-0.86719 1.76953,-1.28906 2.96484,-1.28906 z m 182.86231,-55.65527 c 0,-0.22266 0.0234,-0.32813 0.0586,-0.45704 0.10547,-0.36328 0.45703,-0.59765 0.90234,-0.59765 0.60938,0 0.98438,0.38672 0.98438,0.99609 0,0.36328 -0.10547,0.6211 -0.32813,0.77344 -0.28125,0.17578 -0.53906,0.26953 -0.78515,0.26953 -0.0352,0 -0.12891,-0.0117 -0.2461,-0.0234 h -0.10547 v 0.51563 h 0.39844 c 0.8086,0 1.27735,0.38672 1.27735,1.0664 0,0.6211 -0.44532,1.05469 -1.08985,1.05469 -0.375,0 -0.70312,-0.15234 -0.90234,-0.43359 -0.11719,-0.16406 -0.16406,-0.38672 -0.16406,-0.76172 l -0.64454,0.12891 c -0.0117,0.082 -0.0117,0.16406 -0.0117,0.22265 0,0.83203 0.71484,1.44141 1.67578,1.44141 1.0664,0 1.80468,-0.67969 1.80468,-1.65235 0,-0.70312 -0.32812,-1.14843 -0.97265,-1.35937 0.57422,-0.26953 0.82031,-0.62109 0.82031,-1.21875 0,-0.89063 -0.72656,-1.55859 -1.6875,-1.55859 -0.59766,0 -1.14844,0.28125 -1.41797,0.72656 -0.14062,0.24609 -0.19922,0.46875 -0.21094,0.86719 z m 1.07812,-2.91797 c -2.41406,0 -4.35937,1.89843 -4.35937,4.26562 0,2.40235 1.91015,4.32422 4.30078,4.32422 2.36718,0 4.28906,-1.92187 4.28906,-4.30078 0,-2.33203 -1.92188,-4.28906 -4.23047,-4.28906 z m 0,0.39843 c 0.87891,0 1.86328,0.375 2.54297,0.9961 0.85547,0.78515 1.28906,1.76953 1.28906,2.89453 0,2.16797 -1.73437,3.91406 -3.89062,3.91406 -2.17969,0 -3.91407,-1.74609 -3.91407,-3.9375 0,-0.94922 0.36329,-1.875 1.00782,-2.57812 0.77343,-0.86719 1.76953,-1.28907 2.96484,-1.28907 z M 298.16248,-16.727422 c -0.11718,0.644531 -0.51562,0.890625 -1.4414,0.878906 v 0.492188 h 1.16015 v 4.265625 h 0.72657 v -5.636719 z m 0.0937,-1.40625 c -2.41406,0 -4.35937,1.898438 -4.35937,4.265625 0,2.402344 1.91016,4.3242189 4.30078,4.3242189 2.36719,0 4.28906,-1.9218749 4.28906,-4.3007809 0,-2.332032 -1.92187,-4.289063 -4.23047,-4.289063 z m 0,0.398438 c 0.87891,0 1.86329,0.375 2.54297,0.996093 0.85547,0.785157 1.28907,1.769532 1.28907,2.894532 0,2.167968 -1.73438,3.9140621 -3.89063,3.9140621 -2.17969,0 -3.91406,-1.7460941 -3.91406,-3.9375001 0,-0.949219 0.36328,-1.875 1.00781,-2.578125 0.77344,-0.867187 1.76953,-1.289062 2.96484,-1.289062 z M 190.54334,85.240352 h -2.69531 c 0.17578,-0.351563 0.28125,-0.457032 0.9375,-0.902344 1.42969,-0.949219 1.80469,-1.441406 1.80469,-2.355469 0,-1.019531 -0.77344,-1.769531 -1.82813,-1.769531 -1.01953,0 -1.76953,0.738281 -1.76953,1.746094 v 0.164062 h 0.72657 c -0.0117,-0.07031 -0.0117,-0.140625 -0.0117,-0.175781 0,-0.714844 0.42187,-1.195313 1.05468,-1.195313 0.64454,0 1.10157,0.503907 1.10157,1.21875 0,0.726563 -0.29297,1.101563 -1.41797,1.828125 -0.92578,0.609375 -1.3711,1.207032 -1.3711,1.863282 0,0.05859 0,0.117187 0.0117,0.199218 h 3.45703 z M 188.891,78.818477 c -2.41406,0 -4.35937,1.898437 -4.35937,4.265625 0,2.402343 1.91015,4.324218 4.30078,4.324218 2.36718,0 4.28906,-1.921875 4.28906,-4.300781 0,-2.332031 -1.92188,-4.289062 -4.23047,-4.289062 z m 0,0.398437 c 0.87891,0 1.86328,0.375 2.54297,0.996094 0.85547,0.785156 1.28906,1.769531 1.28906,2.894531 0,2.167969 -1.73437,3.914063 -3.89062,3.914063 -2.17969,0 -3.91407,-1.746094 -3.91407,-3.9375 0,-0.949219 0.36329,-1.875 1.00782,-2.578125 0.77343,-0.867188 1.76953,-1.289063 2.96484,-1.289063 z m 163.4707,57.562496 c 0,-0.22265 0.0234,-0.32812 0.0586,-0.45703 0.10547,-0.36328 0.45703,-0.59765 0.90234,-0.59765 0.60938,0 0.98438,0.38672 0.98438,0.99609 0,0.36328 -0.10547,0.62109 -0.32813,0.77344 -0.28125,0.17578 -0.53906,0.26953 -0.78516,0.26953 -0.0352,0 -0.1289,-0.0117 -0.24609,-0.0234 h -0.10547 v 0.51563 h 0.39844 c 0.80859,0 1.27734,0.38672 1.27734,1.0664 0,0.6211 -0.44531,1.05469 -1.08984,1.05469 -0.375,0 -0.70313,-0.15234 -0.90234,-0.43359 -0.11719,-0.16407 -0.16407,-0.38672 -0.16407,-0.76172 l -0.64453,0.1289 c -0.0117,0.082 -0.0117,0.16407 -0.0117,0.22266 0,0.83203 0.71485,1.44141 1.67578,1.44141 1.06641,0 1.80469,-0.67969 1.80469,-1.65235 0,-0.70312 -0.32812,-1.14843 -0.97265,-1.35937 0.57421,-0.26953 0.82031,-0.6211 0.82031,-1.21875 0,-0.89063 -0.72656,-1.5586 -1.6875,-1.5586 -0.59766,0 -1.14844,0.28125 -1.41797,0.72657 -0.14063,0.24609 -0.19922,0.46875 -0.21094,0.86718 z m 1.07813,-2.91796 c -2.41406,0 -4.35938,1.89843 -4.35938,4.26562 0,2.40234 1.91016,4.32422 4.30078,4.32422 2.36719,0 4.28907,-1.92188 4.28907,-4.30078 0,-2.33203 -1.92188,-4.28906 -4.23047,-4.28906 z m 0,0.39843 c 0.8789,0 1.86328,0.375 2.54297,0.9961 0.85547,0.78515 1.28906,1.76953 1.28906,2.89453 0,2.16797 -1.73438,3.91406 -3.89063,3.91406 -2.17968,0 -3.91406,-1.74609 -3.91406,-3.9375 0,-0.94922 0.36328,-1.875 1.00781,-2.57812 0.77344,-0.86719 1.76954,-1.28907 2.96485,-1.28907 z M 30.034555,-23.178594 c -0.117188,0.644532 -0.515625,0.890625 -1.441407,0.878907 v 0.492187 h 1.160157 v 4.265625 h 0.726562 v -5.636719 z m 0.09375,-1.40625 c -2.414063,0 -4.359375,1.898438 -4.359375,4.265625 0,2.402344 1.910156,4.324219 4.300781,4.324219 2.367187,0 4.289062,-1.921875 4.289062,-4.300781 0,-2.332031 -1.921875,-4.289063 -4.230468,-4.289063 z m 0,0.398438 c 0.878906,0 1.863281,0.375 2.542968,0.996094 0.855469,0.785156 1.289063,1.769531 1.289063,2.894531 0,2.167969 -1.734375,3.914062 -3.890625,3.914062 -2.179688,0 -3.914063,-1.746093 -3.914063,-3.9375 0,-0.949218 0.363282,-1.875 1.007813,-2.578125 0.773437,-0.867187 1.769531,-1.289062 2.964844,-1.289062 z m 244.579105,2.791992 h -2.69532 c 0.17579,-0.351563 0.28125,-0.457031 0.9375,-0.902344 1.42969,-0.949219 1.80469,-1.441406 1.80469,-2.355469 0,-1.019531 -0.77344,-1.769531 -1.82812,-1.769531 -1.01953,0 -1.76953,0.738281 -1.76953,1.746094 v 0.164062 h 0.72656 c -0.0117,-0.07031 -0.0117,-0.140625 -0.0117,-0.175781 0,-0.714844 0.42187,-1.195312 1.05469,-1.195312 0.64453,0 1.10156,0.503906 1.10156,1.21875 0,0.726562 -0.29297,1.101562 -1.41797,1.828125 -0.92578,0.609375 -1.37109,1.207031 -1.37109,1.863281 0,0.05859 0,0.117187 0.0117,0.199219 h 3.45703 z m -1.65235,-6.421875 c -2.41406,0 -4.35937,1.898437 -4.35937,4.265625 0,2.402344 1.91015,4.324219 4.30078,4.324219 2.36719,0 4.28906,-1.921875 4.28906,-4.300782 0,-2.332031 -1.92187,-4.289062 -4.23047,-4.289062 z m 0,0.398437 c 0.87891,0 1.86328,0.375 2.54297,0.996094 0.85547,0.785156 1.28906,1.769531 1.28906,2.894531 0,2.167969 -1.73437,3.914063 -3.89062,3.914063 -2.17969,0 -3.91406,-1.746094 -3.91406,-3.9375 0,-0.949219 0.36328,-1.875 1.00781,-2.578125 0.77344,-0.867188 1.76953,-1.289063 2.96484,-1.289063 z M 161.80311,68.831172 c 0,-0.222656 0.0234,-0.328125 0.0586,-0.457031 0.10547,-0.363282 0.45703,-0.597657 0.90235,-0.597657 0.60937,0 0.98437,0.386719 0.98437,0.996094 0,0.363281 -0.10547,0.621094 -0.32812,0.773438 -0.28125,0.175781 -0.53907,0.269531 -0.78516,0.269531 -0.0352,0 -0.12891,-0.01172 -0.24609,-0.02344 h -0.10547 v 0.515625 h 0.39844 c 0.80859,0 1.27734,0.386719 1.27734,1.066407 0,0.621093 -0.44531,1.054687 -1.08984,1.054687 -0.375,0 -0.70313,-0.152344 -0.90235,-0.433594 -0.11719,-0.164062 -0.16406,-0.386718 -0.16406,-0.761718 l -0.64453,0.128906 c -0.0117,0.08203 -0.0117,0.164062 -0.0117,0.222656 0,0.832031 0.71484,1.441406 1.67578,1.441406 1.06641,0 1.80469,-0.679687 1.80469,-1.652343 0,-0.703125 -0.32813,-1.148438 -0.97266,-1.359375 0.57422,-0.269532 0.82031,-0.621094 0.82031,-1.21875 0,-0.890625 -0.72656,-1.558594 -1.6875,-1.558594 -0.59765,0 -1.14843,0.28125 -1.41796,0.726562 -0.14063,0.246094 -0.19922,0.46875 -0.21094,0.867188 z m 1.07812,-2.917969 c -2.41406,0 -4.35937,1.898438 -4.35937,4.265625 0,2.402344 1.91016,4.324219 4.30078,4.324219 2.36719,0 4.28906,-1.921875 4.28906,-4.300781 0,-2.332032 -1.92187,-4.289063 -4.23047,-4.289063 z m 0,0.398438 c 0.87891,0 1.86329,0.375 2.54297,0.996093 0.85547,0.785157 1.28907,1.769532 1.28907,2.894532 0,2.167968 -1.73438,3.914062 -3.89063,3.914062 -2.17969,0 -3.91406,-1.746094 -3.91406,-3.9375 0,-0.949219 0.36328,-1.875 1.00781,-2.578125 0.77344,-0.867187 1.76953,-1.289062 2.96484,-1.289062 z m 0,0"
       style="fill:#b49ddf;fill-opacity:1;fill-rule:nonzero;stroke:none"
       aria-label="➀&#10;➁&#10;➂&#10;➀&#10;➁&#10;➂&#10;➀&#10;➁&#10;➂&#10;➀&#10;➁&#10;➂&#10;➀&#10;➁&#10;➂"
       transform="matrix(1.3333333,0,0,1.3333333,161.64533,120.82667)" />
    <g
       id="g41"
       aria-label="x&#10;i"
       transform="matrix(1.3333333,0,0,1.3333333,642.68267,116.80933)">
      <path
         id="path42"
         d="m 0.09444531,-1.1724297 c -0.03515625,0.44531251 -0.08203125,0.73828126 -0.1875,1.20703126 0.22265625,0.1171875 0.3515625,0.1640625 0.515625,0.1640625 0.33984375,0 0.77343749,-0.28125 1.12499999,-0.75 l 1.0078125,-1.35937496 0.1171875,0.6914062 c 0.1171875,0.58593751 0.1992188,0.87890626 0.3632813,1.10156251 0.140625,0.19921875 0.375,0.31640625 0.5859375,0.31640625 0.3632812,0 0.7851562,-0.2578125 1.7109375,-1.03125 l 0.2109375,-0.19921876 -0.1875,-0.2695312 -0.3632813,0.2460937 c -0.328125,0.24609376 -0.4335937,0.29296876 -0.5625,0.29296876 -0.1523437,0 -0.2929687,-0.09375 -0.375,-0.24609376 C 3.9264766,-1.2778984 3.7624141,-1.8169609 3.6686641,-2.3560234 l -0.1289063,-0.7617188 0.4570313,-0.609375 c 0.3515625,-0.4921875 0.8085937,-0.8320312 1.1015625,-0.8320312 0.070312,0 0.1289062,0.011719 0.2460937,0.058594 l 0.1054688,0.3398438 0.2578125,-0.058594 c 0.082031,-0.7617187 0.1289062,-0.9960937 0.2695312,-1.265625 -0.140625,-0.070312 -0.328125,-0.1171875 -0.46875,-0.1171875 -0.3867187,0 -0.84375,0.328125 -1.3125,0.984375 l -0.75,1.0429688 -0.046875,-0.2695313 C 3.2702266,-4.5591484 3.1530391,-4.9224297 2.9655391,-5.1802422 2.7663203,-5.4497734 2.4264766,-5.6021172 2.0397578,-5.6021172 c -0.234375,0 -0.4101562,0.046875 -0.9023437,0.234375 -0.058594,0.1054688 -0.058594,0.1171875 -0.1171875,0.234375 -0.25781254,0.4804688 -0.42187504,0.7617188 -0.58593754,0.9726563 l 0.26953125,0.1523437 c 0.17578125,-0.3046875 0.57421879,-0.5859375 0.86718749,-0.5859375 0.2929688,0 0.5742188,0.4570313 0.703125,1.1835938 l 0.1875,1.0546875 -0.6210937,0.8789062 c -0.3398438,0.48046876 -0.6914063,0.72656251 -1.05468754,0.72656251 -0.10546875,0 -0.19921875,-0.0234375 -0.328125,-0.0703125 L 0.38741406,-1.1958672 Z m 0,0"
         style="fill:#5a9cfe;fill-opacity:1;fill-rule:nonzero;stroke:none" />
      <path
         id="path43"
         d="m 6.4694453,-7.8169609 0.058594,0.1757812 0.2929687,-0.1875 c 0.328125,-0.1992187 0.3515625,-0.2226562 0.421875,-0.2226562 0.082031,0 0.1640625,0.09375 0.1640625,0.2109375 0,0.058594 -0.035156,0.2695312 -0.082031,0.3984375 L 6.738977,-5.2974297 c -0.070312,0.28125 -0.1171875,0.5273438 -0.1171875,0.6914063 0,0.2109375 0.09375,0.3515625 0.2695312,0.3515625 0.234375,0 0.5507813,-0.1875 1.4296875,-0.84375 l -0.082031,-0.1640625 -0.234375,0.1523437 c -0.2578125,0.1757813 -0.46875,0.2695313 -0.5507813,0.2695313 -0.058594,0 -0.1171875,-0.082031 -0.1171875,-0.1757813 0,-0.09375 0.023437,-0.1757812 0.070312,-0.3632812 l 0.6796875,-2.71875 c 0.046875,-0.1523438 0.058594,-0.2578125 0.058594,-0.328125 0,-0.1523438 -0.082031,-0.234375 -0.2226563,-0.234375 -0.1992187,0 -0.5273437,0.1875 -1.2070312,0.6679687 z m 1.734375,-2.9062501 c -0.2578125,0 -0.515625,0.304688 -0.515625,0.609375 0,0.2226563 0.140625,0.3632813 0.3515625,0.3632813 0.28125,0 0.4921875,-0.2578123 0.4921875,-0.5976563 0,-0.222656 -0.140625,-0.375 -0.328125,-0.375 z m 0,0"
         style="fill:#5a9cfe;fill-opacity:1;fill-rule:nonzero;stroke:none" />
    </g>
    <path
       id="path44"
       d="m 2778.66,6607.29 50.16,13.08 -47.1,21.65 17.92,-19.08"
       style="fill:#da70d6;fill-opacity:1;fill-rule:nonzero;stroke:none"
       transform="matrix(0.13333333,0,0,-0.13333333,0,1122.6667)" />
    <path
       id="path45"
       d="m 1988.89,6694.43 810.75,-71.49"
       style="fill:none;stroke:#da70d6;stroke-width:9.96264;stroke-linecap:butt;stroke-linejoin:miter;stroke-miterlimit:10;stroke-dasharray:none;stroke-opacity:1"
       transform="matrix(0.13333333,0,0,-0.13333333,0,1122.6667)" />
    <path
       id="path46"
       d="m 2815.34,6550.66 21.83,47.02 -46.68,-22.55 26.13,1.68"
       style="fill:#da70d6;fill-opacity:1;fill-rule:nonzero;stroke:none"
       transform="matrix(0.13333333,0,0,-0.13333333,0,1122.6667)" />
    <path
       id="path47"
       d="m 2277.02,6028.86 539.6,547.95"
       style="fill:none;stroke:#da70d6;stroke-width:9.96264;stroke-linecap:butt;stroke-linejoin:miter;stroke-miterlimit:10;stroke-dasharray:none;stroke-opacity:1"
       transform="matrix(0.13333333,0,0,-0.13333333,0,1122.6667)" />
    <path
       id="path48"
       d="m 2921.68,6572.23 -45.64,24.59 19.73,-47.93 -0.12,26.18"
       style="fill:#da70d6;fill-opacity:1;fill-rule:nonzero;stroke:none"
       transform="matrix(0.13333333,0,0,-0.13333333,0,1122.6667)" />
    <path
       id="path49"
       d="m 3229.48,6204.73 -333.83,370.34"
       style="fill:none;stroke:#da70d6;stroke-width:9.96264;stroke-linecap:butt;stroke-linejoin:miter;stroke-miterlimit:10;stroke-dasharray:none;stroke-opacity:1"
       transform="matrix(0.13333333,0,0,-0.13333333,0,1122.6667)" />
    <path
       id="path50"
       d="m 2929.74,6649.12 -44.81,-26.06 51.18,-8.22 -22.38,13.57"
       style="fill:#da70d6;fill-opacity:1;fill-rule:nonzero;stroke:none"
       transform="matrix(0.13333333,0,0,-0.13333333,0,1122.6667)" />
    <path
       id="path51"
       d="m 3840.12,6800.61 -926.39,-172.2"
       style="fill:none;stroke:#da70d6;stroke-width:9.96264;stroke-linecap:butt;stroke-linejoin:miter;stroke-miterlimit:10;stroke-dasharray:none;stroke-opacity:1"
       transform="matrix(0.13333333,0,0,-0.13333333,0,1122.6667)" />
    <path
       id="path52"
       d="m 2859.61,6696.95 4.59,-51.64 29.16,42.86 -21.79,-14.51"
       style="fill:#da70d6;fill-opacity:1;fill-rule:nonzero;stroke:none"
       transform="matrix(0.13333333,0,0,-0.13333333,0,1122.6667)" />
    <path
       id="path53"
       d="M 3014.74,7224.11 2871.57,6673.66"
       style="fill:none;stroke:#da70d6;stroke-width:9.96264;stroke-linecap:butt;stroke-linejoin:miter;stroke-miterlimit:10;stroke-dasharray:none;stroke-opacity:1"
       transform="matrix(0.13333333,0,0,-0.13333333,0,1122.6667)" />
  </g>
</svg>
