<?xml version="1.0" encoding="UTF-8" standalone="no"?>
<!-- Created with Inkscape (http://www.inkscape.org/) -->

<svg
   version="1.1"
   id="svg1"
   width="322.68927"
   height="267.3786"
   viewBox="0 0 322.68927 267.37859"
   sodipodi:docname="NUMPDE.pdf"
   xmlns:inkscape="http://www.inkscape.org/namespaces/inkscape"
   xmlns:sodipodi="http://sodipodi.sourceforge.net/DTD/sodipodi-0.dtd"
   xmlns="http://www.w3.org/2000/svg"
   xmlns:svg="http://www.w3.org/2000/svg">
  <defs
     id="defs1">
    <clipPath
       clipPathUnits="userSpaceOnUse"
       id="clipPath234">
      <path
         d="m 3024.9,1294.87 h 2423 V 3320.5 h -2423 z"
         transform="translate(0,2.5000001e-4)"
         id="path234" />
    </clipPath>
    <clipPath
       clipPathUnits="userSpaceOnUse"
       id="clipPath236">
      <path
         d="m 3024.9,1294.87 h 2423 V 3320.5 h -2423 z"
         transform="translate(0,2.5000001e-4)"
         id="path236" />
    </clipPath>
    <clipPath
       clipPathUnits="userSpaceOnUse"
       id="clipPath238">
      <path
         d="m 3024.9,1294.87 h 2423 V 3320.5 h -2423 z"
         transform="translate(0,2.5000001e-4)"
         id="path238" />
    </clipPath>
    <clipPath
       clipPathUnits="userSpaceOnUse"
       id="clipPath240">
      <path
         d="m 3024.9,1294.87 h 2423 V 3320.5 h -2423 z"
         transform="translate(0,2.5000001e-4)"
         id="path240" />
    </clipPath>
    <clipPath
       clipPathUnits="userSpaceOnUse"
       id="clipPath242">
      <path
         d="m 3024.9,1294.87 h 2423 V 3320.5 h -2423 z"
         transform="translate(0,2.5000001e-4)"
         id="path242" />
    </clipPath>
    <clipPath
       clipPathUnits="userSpaceOnUse"
       id="clipPath244">
      <path
         d="m 3024.9,1294.87 h 2423 V 3320.5 h -2423 z"
         transform="translate(0,2.5000001e-4)"
         id="path244" />
    </clipPath>
    <clipPath
       clipPathUnits="userSpaceOnUse"
       id="clipPath246">
      <path
         d="m 3024.9,1294.87 h 2423 V 3320.5 h -2423 z"
         transform="translate(0,2.5000001e-4)"
         id="path246" />
    </clipPath>
  </defs>
  <sodipodi:namedview
     id="namedview1"
     pagecolor="#505050"
     bordercolor="#eeeeee"
     borderopacity="1"
     inkscape:showpageshadow="0"
     inkscape:pageopacity="0"
     inkscape:pagecheckerboard="0"
     inkscape:deskcolor="#505050"
     showgrid="false" />
  <g
     id="g1"
     inkscape:groupmode="layer"
     inkscape:label="169"
     transform="translate(-403.51135,-682.46878)">
    <path
       id="path233"
       d="m 4356.84,3269.51 -1300.36,-1337 2358.05,-604.39 z"
       style="fill:none;stroke:#000000;stroke-width:2.28937;stroke-linecap:butt;stroke-linejoin:miter;stroke-miterlimit:10;stroke-dasharray:none;stroke-opacity:1"
       transform="matrix(0.13333333,0,0,-0.13333333,0,1122.6667)"
       clip-path="url(#clipPath234)"
       inkscape:export-filename="path233.svg"
       inkscape:export-xdpi="95.55484"
       inkscape:export-ydpi="95.55484" />
    <path
       id="path235"
       d="m 4387.67,3269.51 c 0,-17.03 -13.81,-30.83 -30.83,-30.83 -17.02,0 -30.83,13.8 -30.83,30.83 0,17.02 13.81,30.83 30.83,30.83 17.02,0 30.83,-13.81 30.83,-30.83"
       style="fill:#ff0000;fill-opacity:1;fill-rule:evenodd;stroke:none"
       transform="matrix(0.13333333,0,0,-0.13333333,0,1122.6667)"
       clip-path="url(#clipPath236)" />
    <path
       id="path237"
       d="m 4387.67,3269.51 c 0,-17.03 -13.81,-30.83 -30.83,-30.83 -17.02,0 -30.83,13.8 -30.83,30.83 0,17.02 13.81,30.83 30.83,30.83 17.02,0 30.83,-13.81 30.83,-30.83 z"
       style="fill:none;stroke:#ff0000;stroke-width:2.28937;stroke-linecap:butt;stroke-linejoin:miter;stroke-miterlimit:10;stroke-dasharray:none;stroke-opacity:1"
       transform="matrix(0.13333333,0,0,-0.13333333,0,1122.6667)"
       clip-path="url(#clipPath238)" />
    <path
       id="path239"
       d="m 5445.36,1328.12 c 0,-17.03 -13.81,-30.83 -30.83,-30.83 -17.03,0 -30.83,13.8 -30.83,30.83 0,17.02 13.8,30.83 30.83,30.83 17.02,0 30.83,-13.81 30.83,-30.83"
       style="fill:#ff0000;fill-opacity:1;fill-rule:evenodd;stroke:none"
       transform="matrix(0.13333333,0,0,-0.13333333,0,1122.6667)"
       clip-path="url(#clipPath240)" />
    <path
       id="path241"
       d="m 5445.36,1328.12 c 0,-17.03 -13.81,-30.83 -30.83,-30.83 -17.03,0 -30.83,13.8 -30.83,30.83 0,17.02 13.8,30.83 30.83,30.83 17.02,0 30.83,-13.81 30.83,-30.83 z"
       style="fill:none;stroke:#ff0000;stroke-width:2.28937;stroke-linecap:butt;stroke-linejoin:miter;stroke-miterlimit:10;stroke-dasharray:none;stroke-opacity:1"
       transform="matrix(0.13333333,0,0,-0.13333333,0,1122.6667)"
       clip-path="url(#clipPath242)" />
    <path
       id="path243"
       d="m 3085.48,1932.51 c 0,-16.01 -12.99,-28.99 -29,-28.99 -16.02,0 -29,12.98 -29,28.99 0,16.01 12.98,29 29,29 16.01,0 29,-12.99 29,-29"
       style="fill:#ff0000;fill-opacity:1;fill-rule:evenodd;stroke:none"
       transform="matrix(0.13333333,0,0,-0.13333333,0,1122.6667)"
       clip-path="url(#clipPath244)" />
    <path
       id="path245"
       d="m 3085.48,1932.51 c 0,-16.01 -12.99,-28.99 -29,-28.99 -16.02,0 -29,12.98 -29,28.99 0,16.01 12.98,29 29,29 16.01,0 29,-12.99 29,-29 z"
       style="fill:none;stroke:#ff0000;stroke-width:2.28937;stroke-linecap:butt;stroke-linejoin:miter;stroke-miterlimit:10;stroke-dasharray:none;stroke-opacity:1"
       transform="matrix(0.13333333,0,0,-0.13333333,0,1122.6667)"
       clip-path="url(#clipPath246)" />
    <path
       id="path247"
       d="m 4.7931953,-8.4375156 c -2.4257812,0 -4.37109374,1.8867187 -4.37109374,4.2539062 0,2.4140625 1.91015624,4.33593753 4.30078124,4.33593753 2.3789063,0 4.3007813,-1.92187503 4.3007813,-4.30078123 0,-2.34375 -1.921875,-4.2890625 -4.2304688,-4.2890625 z m 0.5273438,1.2539062 v 5.7773438 H 4.2306953 V -5.6601719 H 3.0822578 v -0.65625 c 1.0429688,0.011719 1.3125,-0.1523437 1.4648438,-0.8671875 z M 214.93382,46.508773 c -2.42578,0 -4.37109,1.898438 -4.37109,4.265625 0,2.402344 1.91015,4.324219 4.30078,4.324219 2.3789,0 4.30078,-1.921875 4.30078,-4.300781 0,-2.332031 -1.92188,-4.289063 -4.23047,-4.289063 z m 1.80469,6.246094 v 0.785156 h -3.77344 c -0.0117,-0.117187 -0.0234,-0.210937 -0.0234,-0.257812 0,-0.363281 0.16407,-0.761719 0.4336,-1.113281 0.26953,-0.316407 0.48047,-0.480469 1.05468,-0.855469 1.00782,-0.644531 1.30079,-1.042969 1.30079,-1.734375 0,-0.679688 -0.375,-1.148438 -0.92579,-1.148438 -0.55078,0 -0.90234,0.457032 -0.90234,1.183594 0,0.04687 0,0.128906 0.0117,0.234375 l -1.04297,-0.09375 c -0.0117,-0.09375 -0.0117,-0.1875 -0.0117,-0.234375 0,-1.042969 0.83203,-1.804687 1.95703,-1.804687 1.17188,0 2.01563,0.785156 2.01563,1.863281 0,0.714844 -0.31641,1.265625 -1.05469,1.828125 -0.23437,0.175781 -0.52734,0.386719 -0.87891,0.621094 -0.5625,0.375 -0.6914,0.492187 -0.80859,0.726562 z M 120.68577,-125.19435 c -2.42578,0 -4.37109,1.89844 -4.37109,4.26562 0,2.40235 1.91016,4.32422 4.30078,4.32422 2.37891,0 4.30078,-1.92187 4.30078,-4.30078 0,-2.33203 -1.92187,-4.28906 -4.23047,-4.28906 z m -1.88672,2.85937 c 0.0234,-0.46875 0.082,-0.72656 0.25782,-0.98437 0.29297,-0.4336 0.8789,-0.70313 1.52343,-0.70313 1.05469,0 1.82813,0.69141 1.82813,1.64063 0,0.52734 -0.22266,0.9375 -0.69141,1.19531 0.19922,0.11719 0.32813,0.21094 0.42188,0.28125 0.28125,0.24609 0.43359,0.63281 0.43359,1.10156 0,1.04297 -0.79687,1.78125 -1.94531,1.78125 -1.07813,0 -1.85156,-0.65625 -1.85156,-1.59375 0,-0.0352 0.0117,-0.16406 0.0234,-0.25781 l 0.97266,-0.22266 c -0.0117,0.0937 -0.0117,0.19922 -0.0117,0.22266 0,0.65625 0.31641,1.00781 0.87891,1.00781 0.53906,0 0.89062,-0.38672 0.89062,-0.98437 0,-0.60938 -0.36328,-0.96094 -1.00781,-0.96094 -0.15234,0 -0.29297,0.0117 -0.59766,0.0352 v -0.72657 c 0.26954,0.0234 0.375,0.0352 0.44532,0.0352 0.63281,0 1.00781,-0.33984 1.00781,-0.89062 0,-0.59766 -0.28125,-0.94922 -0.79688,-0.94922 -0.29296,0 -0.52734,0.11718 -0.65625,0.33984 -0.10546,0.16406 -0.15234,0.31641 -0.15234,0.73828 z m 0,0"
       style="fill:#cbbbe9;fill-opacity:1;fill-rule:nonzero;stroke:none"
       aria-label="➊&#10;➋&#10;➌"
       transform="matrix(1.3333333,0,0,1.3333333,423.04267,861.94533)" />
    <g
       id="g247"
       aria-label="&#10;&#10;ϕ&#10;K,1&#10;ϕ&#10;K,2&#10;ϕ&#10;K,3&#10;&#10;"
       transform="matrix(1.3333333,0,0,1.3333333,557.19067,798.16)">
      <path
         id="path248"
         d="M 3.9028984,21.035273 H 4.7232109 V 0.36339844 H 7.8755547 V -0.46863281 H 3.9028984 Z m 0,21.498047 H 7.8755547 V 41.713008 H 4.7232109 V 21.029414 H 3.9028984 Z m 0,0"
         style="fill:#5a9cfe;fill-opacity:1;fill-rule:nonzero;stroke:none" />
      <path
         id="path249"
         d="m 9.9614922,7.6817578 c 0,-1.3359375 0.8320308,-2.8007812 1.7578128,-3.3046875 0.140625,-0.070312 0.339843,-0.1289062 0.585937,-0.1640625 0.117188,-0.1054687 0.105469,-0.1054687 0.175781,-0.2109375 -0.03516,-0.1289062 -0.08203,-0.140625 -0.117187,-0.140625 -0.269531,0 -0.726563,0.2226563 -1.101563,0.3984375 -1.4179683,0.6914063 -2.2148433,1.9101563 -2.2148433,3.4101563 0,1.2773437 0.7617187,1.9453125 2.1562503,1.9453125 0.07031,0 0.140625,0 0.210937,-0.011719 -0.128906,0.7031254 -0.328125,1.6992194 -0.550781,2.6718754 l -0.09375,0.433594 0.08203,0.08203 c 0.257813,-0.09375 0.492188,-0.152344 0.878906,-0.210938 L 12.22321,9.4981629 c 0.574219,-0.1289063 1.136719,-0.3632813 1.59375,-0.6679688 1.066406,-0.703125 1.816406,-2.0742187 1.816406,-3.3046875 0,-0.28125 -0.07031,-0.5390625 -0.164062,-0.7617187 C 15.31696,4.4005066 14.801335,3.7208191 14.47321,3.7208191 c -0.269531,0 -0.574219,0.082031 -0.832031,0.234375 -0.457032,0.2578125 -1.007813,0.703125 -1.300782,1.03125 -0.117187,0.140625 -0.199218,0.3632813 -0.246093,0.5507813 L 11.48493,9.1466016 C 10.535711,9.0528516 9.9614922,8.5372266 9.9614922,7.6817578 Z m 3.2578128,1.0898438 c -0.246094,0.1757812 -0.574219,0.3046875 -0.9375,0.3632812 0.08203,-0.4453125 0.1875,-1.0546875 0.246093,-1.4179687 0.140625,-0.9492188 0.433594,-2.8828125 0.714844,-3.1171875 0.152344,-0.1757813 0.480469,-0.2929688 0.878906,-0.2929688 0.316407,0 0.609375,0.7851563 0.609375,1.4179688 -0.01172,1.1601562 -0.667968,2.4140625 -1.511718,3.046875 z m 0,0"
         style="fill:#5a9cfe;fill-opacity:1;fill-rule:nonzero;stroke:none" />
      <path
         id="path250"
         d="m 19.482977,5.6749219 0.02344,-0.2460938 H 19.29548 l -0.808594,0.023437 c -0.140625,0 -0.304688,0 -0.691406,-0.011719 l -0.574219,-0.011719 -0.02344,0.2460938 0.421875,0.023437 c 0.210938,0 0.304688,0.070312 0.304688,0.234375 0,0.1289062 -0.02344,0.3867187 -0.07031,0.6796875 l -0.65625,3.8906256 c -0.152343,0.832031 -0.164062,0.84375 -0.527343,0.878906 l -0.363282,0.02344 -0.03516,0.246093 h 0.375 c 0.433594,-0.01172 0.632813,-0.02344 0.808594,-0.02344 l 0.867187,0.02344 h 0.234375 l 0.02344,-0.246093 -0.433594,-0.02344 c -0.246094,-0.02344 -0.328125,-0.08203 -0.328125,-0.269531 0,-0.04687 0.01172,-0.152344 0.02344,-0.1875 L 18.22907,8.5811719 c 1.335938,1.5351561 1.546875,1.7929691 2.484375,3.0703121 l 0.621094,-0.02344 c 0.328125,0.01172 0.375,0.02344 0.609375,0.02344 v -0.269531 h -0.175781 c -0.210938,0 -0.386719,-0.105469 -0.574219,-0.339844 L 18.990789,8.3350781 21.60407,5.8858594 c 0.140625,-0.1289063 0.328125,-0.2226563 0.480469,-0.2226563 h 0.1875 V 5.4288281 H 22.07282 c -0.1875,0.011719 -0.328125,0.023437 -0.410156,0.023437 -0.08203,0 -0.222656,-0.011719 -0.410156,-0.023437 h -0.1875 v 0.2578125 c 0,0.070312 -0.08203,0.1875 -0.339844,0.4335938 l -1.148437,1.171875 c -0.386719,0.3984375 -0.761719,0.7265625 -1.335938,1.171875 l 0.410156,-2.3320313 c 0.05859,-0.3398437 0.117188,-0.3984375 0.457032,-0.4335937 z m 0,0"
         style="fill:#5a9cfe;fill-opacity:1;fill-rule:nonzero;stroke:none" />
      <path
         id="path251"
         d="m 24.220281,10.526484 c -0.246093,0.08203 -0.398437,0.128907 -0.878906,0.269532 -0.05859,0.679687 -0.28125,1.265625 -0.808594,2.121093 l 0.128907,0.105469 0.363281,-0.175781 c 0.726562,-0.9375 1.066406,-1.5 1.324219,-2.191406 z m 1.010742,-3.8789059 h 0.09375 l 1.160157,-0.515625 c 0,-0.011719 0.01172,-0.011719 0.02344,-0.011719 0.04687,0 0.07031,0.082031 0.07031,0.3046875 v 4.3476564 c 0,0.457031 -0.09375,0.5625 -0.585938,0.585938 l -0.503906,0.02344 v 0.269531 c 1.382812,-0.02344 1.382812,-0.02344 1.488281,-0.02344 0.117188,0 0.304688,0 0.609375,0.01172 0.117188,0.01172 0.421875,0.01172 0.796875,0.01172 v -0.269531 l -0.46875,-0.02344 C 27.42243,11.335078 27.32868,11.229609 27.32868,10.772578 V 5.4522656 l -0.117188,-0.046875 c -0.585937,0.3046875 -1.21875,0.5742188 -2.039062,0.8671875 z m 0,0"
         style="fill:#5a9cfe;fill-opacity:1;fill-rule:nonzero;stroke:none" />
      <path
         id="path252"
         d="m 9.9614922,22.125117 c 0,-1.335937 0.8320308,-2.800781 1.7578128,-3.304687 0.140625,-0.07031 0.339843,-0.128907 0.585937,-0.164063 0.117188,-0.105469 0.105469,-0.105469 0.175781,-0.210937 -0.03516,-0.128907 -0.08203,-0.140625 -0.117187,-0.140625 -0.269531,0 -0.726563,0.222656 -1.101563,0.398437 -1.4179683,0.691406 -2.2148433,1.910156 -2.2148433,3.410156 0,1.277344 0.7617187,1.945313 2.1562503,1.945313 0.07031,0 0.140625,0 0.210937,-0.01172 -0.128906,0.703125 -0.328125,1.699219 -0.550781,2.671875 l -0.09375,0.433594 0.08203,0.08203 c 0.257813,-0.09375 0.492188,-0.152344 0.878906,-0.210937 l 0.492188,-3.082032 c 0.574219,-0.128906 1.136719,-0.363281 1.59375,-0.667968 1.066406,-0.703125 1.816406,-2.074219 1.816406,-3.304688 0,-0.28125 -0.07031,-0.539062 -0.164062,-0.761719 -0.152344,-0.363281 -0.667969,-1.042968 -0.996094,-1.042968 -0.269531,0 -0.574219,0.08203 -0.832031,0.234375 -0.457032,0.257812 -1.007813,0.703125 -1.300782,1.03125 -0.117187,0.140625 -0.199218,0.363281 -0.246093,0.550781 L 11.48493,23.589961 C 10.535711,23.496211 9.9614922,22.980586 9.9614922,22.125117 Z m 3.2578128,1.089844 c -0.246094,0.175781 -0.574219,0.304687 -0.9375,0.363281 0.08203,-0.445312 0.1875,-1.054687 0.246093,-1.417969 0.140625,-0.949218 0.433594,-2.882812 0.714844,-3.117187 0.152344,-0.175781 0.480469,-0.292969 0.878906,-0.292969 0.316407,0 0.609375,0.785156 0.609375,1.417969 -0.01172,1.160156 -0.667968,2.414062 -1.511718,3.046875 z m 0,0"
         style="fill:#5a9cfe;fill-opacity:1;fill-rule:nonzero;stroke:none" />
      <path
         id="path253"
         d="m 19.482977,20.065547 0.02344,-0.246094 H 19.29548 l -0.808594,0.02344 c -0.140625,0 -0.304688,0 -0.691406,-0.01172 l -0.574219,-0.01172 -0.02344,0.246094 0.421875,0.02344 c 0.210938,0 0.304688,0.07031 0.304688,0.234375 0,0.128907 -0.02344,0.386719 -0.07031,0.679688 l -0.65625,3.890625 c -0.152343,0.832031 -0.164062,0.84375 -0.527343,0.878906 l -0.363282,0.02344 -0.03516,0.246093 h 0.375 c 0.433594,-0.01172 0.632813,-0.02344 0.808594,-0.02344 l 0.867187,0.02344 h 0.234375 l 0.02344,-0.246093 -0.433594,-0.02344 c -0.246094,-0.02344 -0.328125,-0.08203 -0.328125,-0.269531 0,-0.04687 0.01172,-0.152344 0.02344,-0.1875 l 0.386718,-2.34375 c 1.335938,1.535156 1.546875,1.792969 2.484375,3.070312 l 0.621094,-0.02344 c 0.328125,0.01172 0.375,0.02344 0.609375,0.02344 v -0.269531 h -0.175781 c -0.210938,0 -0.386719,-0.105469 -0.574219,-0.339844 l -2.203125,-2.707031 2.613281,-2.449219 c 0.140625,-0.128906 0.328125,-0.222656 0.480469,-0.222656 h 0.1875 V 19.819453 H 22.07282 c -0.1875,0.01172 -0.328125,0.02344 -0.410156,0.02344 -0.08203,0 -0.222656,-0.01172 -0.410156,-0.02344 h -0.1875 v 0.257813 c 0,0.07031 -0.08203,0.1875 -0.339844,0.433593 l -1.148437,1.171875 c -0.386719,0.398438 -0.761719,0.726563 -1.335938,1.171875 l 0.410156,-2.332031 c 0.05859,-0.339844 0.117188,-0.398437 0.457032,-0.433594 z m 0,0"
         style="fill:#5a9cfe;fill-opacity:1;fill-rule:nonzero;stroke:none" />
      <path
         id="path254"
         d="m 24.220281,24.917109 c -0.246093,0.08203 -0.398437,0.128907 -0.878906,0.269532 -0.05859,0.679687 -0.28125,1.265625 -0.808594,2.121093 l 0.128907,0.105469 0.363281,-0.175781 c 0.726562,-0.9375 1.066406,-1.5 1.324219,-2.191406 z m 0.553711,0.890625 v 0.234375 c 1.675781,-0.02344 1.675781,-0.02344 2.003906,-0.02344 0.316407,0 0.316407,0 2.050782,0.02344 -0.02344,-0.1875 -0.02344,-0.269531 -0.02344,-0.398437 0,-0.117188 0,-0.210938 0.02344,-0.410156 -1.03125,0.04687 -1.441407,0.05859 -3.105469,0.09375 l 1.640625,-1.734375 c 0.867187,-0.914063 1.136719,-1.40625 1.136719,-2.085938 0,-1.03125 -0.703125,-1.664062 -1.839844,-1.664062 -0.644531,0 -1.089844,0.175781 -1.523438,0.621093 l -0.152343,1.230469 h 0.257812 l 0.117188,-0.421875 c 0.140625,-0.515625 0.46875,-0.738281 1.066406,-0.738281 0.773437,0 1.265625,0.480469 1.265625,1.242187 0,0.679688 -0.375,1.335938 -1.394531,2.414063 z m 0,0"
         style="fill:#5a9cfe;fill-opacity:1;fill-rule:nonzero;stroke:none" />
      <path
         id="path255"
         d="m 9.9614922,36.571406 c 0,-1.335937 0.8320308,-2.800781 1.7578128,-3.304687 0.140625,-0.07031 0.339843,-0.128906 0.585937,-0.164063 0.117188,-0.105468 0.105469,-0.105468 0.175781,-0.210937 -0.03516,-0.128906 -0.08203,-0.140625 -0.117187,-0.140625 -0.269531,0 -0.726563,0.222656 -1.101563,0.398437 -1.4179683,0.691407 -2.2148433,1.910157 -2.2148433,3.410157 0,1.277343 0.7617187,1.945312 2.1562503,1.945312 0.07031,0 0.140625,0 0.210937,-0.01172 -0.128906,0.703125 -0.328125,1.699219 -0.550781,2.671875 l -0.09375,0.433594 0.08203,0.08203 c 0.257813,-0.09375 0.492188,-0.152343 0.878906,-0.210937 l 0.492188,-3.082031 c 0.574219,-0.128907 1.136719,-0.363282 1.59375,-0.667969 1.066406,-0.703125 1.816406,-2.074219 1.816406,-3.304688 0,-0.28125 -0.07031,-0.539062 -0.164062,-0.761718 -0.152344,-0.363282 -0.667969,-1.042969 -0.996094,-1.042969 -0.269531,0 -0.574219,0.08203 -0.832031,0.234375 -0.457032,0.257812 -1.007813,0.703125 -1.300782,1.03125 -0.117187,0.140625 -0.199218,0.363281 -0.246093,0.550781 L 11.48493,38.03625 C 10.535711,37.9425 9.9614922,37.426875 9.9614922,36.571406 Z m 3.2578128,1.089844 c -0.246094,0.175781 -0.574219,0.304688 -0.9375,0.363281 0.08203,-0.445312 0.1875,-1.054687 0.246093,-1.417968 0.140625,-0.949219 0.433594,-2.882813 0.714844,-3.117188 0.152344,-0.175781 0.480469,-0.292969 0.878906,-0.292969 0.316407,0 0.609375,0.785157 0.609375,1.417969 -0.01172,1.160156 -0.667968,2.414063 -1.511718,3.046875 z m 0,0"
         style="fill:#5a9cfe;fill-opacity:1;fill-rule:nonzero;stroke:none" />
      <path
         id="path256"
         d="m 19.482977,34.511836 0.02344,-0.246094 H 19.29548 l -0.808594,0.02344 c -0.140625,0 -0.304688,0 -0.691406,-0.01172 l -0.574219,-0.01172 -0.02344,0.246094 0.421875,0.02344 c 0.210938,0 0.304688,0.07031 0.304688,0.234375 0,0.128907 -0.02344,0.386719 -0.07031,0.679688 l -0.65625,3.890625 c -0.152343,0.832031 -0.164062,0.84375 -0.527343,0.878906 l -0.363282,0.02344 -0.03516,0.246093 h 0.375 c 0.433594,-0.01172 0.632813,-0.02344 0.808594,-0.02344 l 0.867187,0.02344 h 0.234375 l 0.02344,-0.246093 -0.433594,-0.02344 c -0.246094,-0.02344 -0.328125,-0.08203 -0.328125,-0.269531 0,-0.04687 0.01172,-0.152344 0.02344,-0.1875 l 0.386718,-2.34375 c 1.335938,1.535156 1.546875,1.792969 2.484375,3.070312 l 0.621094,-0.02344 c 0.328125,0.01172 0.375,0.02344 0.609375,0.02344 V 40.21887 h -0.175781 c -0.210938,0 -0.386719,-0.105469 -0.574219,-0.339844 l -2.203125,-2.707031 2.613281,-2.449219 c 0.140625,-0.128906 0.328125,-0.222656 0.480469,-0.222656 h 0.1875 V 34.265742 H 22.07282 c -0.1875,0.01172 -0.328125,0.02344 -0.410156,0.02344 -0.08203,0 -0.222656,-0.01172 -0.410156,-0.02344 h -0.1875 v 0.257813 c 0,0.07031 -0.08203,0.1875 -0.339844,0.433593 l -1.148437,1.171875 c -0.386719,0.398438 -0.761719,0.726563 -1.335938,1.171875 l 0.410156,-2.332031 c 0.05859,-0.339844 0.117188,-0.398437 0.457032,-0.433594 z m 0,0"
         style="fill:#5a9cfe;fill-opacity:1;fill-rule:nonzero;stroke:none" />
      <path
         id="path257"
         d="m 24.220281,39.363398 c -0.246093,0.08203 -0.398437,0.128907 -0.878906,0.269532 -0.05859,0.679687 -0.28125,1.265625 -0.808594,2.121093 l 0.128907,0.105469 0.363281,-0.175781 c 0.726562,-0.9375 1.066406,-1.5 1.324219,-2.191406 z m 0.799805,-3.363281 h 0.28125 l 0.152344,-0.503906 c 0.105468,-0.304688 0.667968,-0.609375 1.136718,-0.609375 0.574219,0 1.054688,0.480469 1.054688,1.042969 0,0.667968 -0.527344,1.230468 -1.160156,1.230468 -0.08203,0 -0.175782,0 -0.292969,-0.01172 l -0.128906,-0.01172 -0.117188,0.480469 0.07031,0.04687 c 0.339843,-0.152344 0.503906,-0.199219 0.75,-0.199219 0.75,0 1.171875,0.480469 1.171875,1.300781 0,0.914063 -0.539063,1.511719 -1.382813,1.511719 -0.410156,0 -0.773437,-0.140625 -1.042969,-0.386719 -0.210937,-0.199219 -0.328125,-0.398437 -0.503906,-0.890625 l -0.246094,0.09375 c 0.199219,0.550781 0.269532,0.867188 0.316407,1.3125 0.480468,0.164063 0.867187,0.234375 1.207031,0.234375 0.714844,0 1.535156,-0.398437 2.027344,-0.996094 0.304687,-0.375 0.457031,-0.761718 0.457031,-1.183593 0,-0.433594 -0.175781,-0.808594 -0.492188,-1.03125 -0.234375,-0.164063 -0.433593,-0.234375 -0.878906,-0.316407 0.714844,-0.5625 0.984375,-0.972656 0.984375,-1.5 0,-0.796875 -0.667969,-1.324218 -1.664062,-1.324218 -0.609375,0 -1.007813,0.164062 -1.441407,0.597656 z m 0,0"
         style="fill:#5a9cfe;fill-opacity:1;fill-rule:nonzero;stroke:none" />
      <path
         id="path258"
         d="m 33.006414,21.035273 h 0.832031 V -0.46863281 H 29.85407 v 0.83203125 h 3.152344 z m 0,20.677735 H 29.85407 v 0.820312 h 3.984375 V 21.029414 h -0.832031 z m 0,0"
         style="fill:#5a9cfe;fill-opacity:1;fill-rule:nonzero;stroke:none" />
    </g>
    <path
       id="path259"
       d="m 3098.57,1940.51 -50.38,-40.05 64.35,-0.93 -29.93,12.67"
       style="fill:#228b22;fill-opacity:1;fill-rule:nonzero;stroke:none"
       transform="matrix(0.13333333,0,0,-0.13333333,0,1122.6667)" />
    <path
       id="path260"
       d="M 4259.93,2313.53 3082.61,1912.2"
       style="fill:none;stroke:#228b22;stroke-width:14.1739;stroke-linecap:butt;stroke-linejoin:miter;stroke-miterlimit:10;stroke-dasharray:none;stroke-opacity:1"
       transform="matrix(0.13333333,0,0,-0.13333333,0,1122.6667)" />
    <path
       id="path261"
       d="m 5332.57,1346.68 60.06,-23.14 -31.82,55.95 4.25,-32.22"
       style="fill:#228b22;fill-opacity:1;fill-rule:nonzero;stroke:none"
       transform="matrix(0.13333333,0,0,-0.13333333,0,1122.6667)" />
    <path
       id="path262"
       d="m 4421.23,2159.81 943.83,-812.54"
       style="fill:none;stroke:#228b22;stroke-width:14.1739;stroke-linecap:butt;stroke-linejoin:miter;stroke-miterlimit:10;stroke-dasharray:none;stroke-opacity:1"
       transform="matrix(0.13333333,0,0,-0.13333333,0,1122.6667)" />
    <path
       id="path263"
       d="m 4363.16,3209.4 -23.01,60.11 -20.27,-61.09 21.1,24.73"
       style="fill:#228b22;fill-opacity:1;fill-rule:nonzero;stroke:none"
       transform="matrix(0.13333333,0,0,-0.13333333,0,1122.6667)" />
    <path
       id="path264"
       d="m 4366.47,2107.84 -25.49,1125.31"
       style="fill:none;stroke:#228b22;stroke-width:14.1739;stroke-linecap:butt;stroke-linejoin:miter;stroke-miterlimit:10;stroke-dasharray:none;stroke-opacity:1"
       transform="matrix(0.13333333,0,0,-0.13333333,0,1122.6667)" />
  </g>
</svg>
