<?xml version="1.0" encoding="UTF-8" standalone="no"?>
<!-- Created with Inkscape (http://www.inkscape.org/) -->

<svg
   version="1.1"
   id="svg1"
   width="677.66431"
   height="294.97018"
   viewBox="0 0 677.6643 294.97017"
   sodipodi:docname="NUMPDE.pdf"
   xmlns:inkscape="http://www.inkscape.org/namespaces/inkscape"
   xmlns:sodipodi="http://sodipodi.sourceforge.net/DTD/sodipodi-0.dtd"
   xmlns="http://www.w3.org/2000/svg"
   xmlns:svg="http://www.w3.org/2000/svg">
  <defs
     id="defs1">
    <clipPath
       clipPathUnits="userSpaceOnUse"
       id="clipPath6">
      <path
         d="m 425.16,5611.27 h 2551 v 2240.45 h -2551 z"
         transform="translate(0,2.5000001e-4)"
         id="path6" />
    </clipPath>
    <clipPath
       clipPathUnits="userSpaceOnUse"
       id="clipPath8">
      <path
         d="m 425.16,5611.27 h 2551 v 2240.45 h -2551 z"
         transform="translate(0,2.5000001e-4)"
         id="path8" />
    </clipPath>
    <clipPath
       clipPathUnits="userSpaceOnUse"
       id="clipPath10">
      <path
         d="m 425.16,5611.27 h 2551 v 2240.45 h -2551 z"
         transform="translate(0,2.5000001e-4)"
         id="path10" />
    </clipPath>
    <clipPath
       clipPathUnits="userSpaceOnUse"
       id="clipPath12">
      <path
         d="m 425.16,5611.27 h 2551 v 2240.45 h -2551 z"
         transform="translate(0,2.5000001e-4)"
         id="path12" />
    </clipPath>
    <clipPath
       clipPathUnits="userSpaceOnUse"
       id="clipPath14">
      <path
         d="m 425.16,5611.27 h 2551 v 2240.45 h -2551 z"
         transform="translate(0,2.5000001e-4)"
         id="path14" />
    </clipPath>
    <clipPath
       clipPathUnits="userSpaceOnUse"
       id="clipPath16">
      <path
         d="m 425.16,5611.27 h 2551 v 2240.45 h -2551 z"
         transform="translate(0,2.5000001e-4)"
         id="path16" />
    </clipPath>
    <clipPath
       clipPathUnits="userSpaceOnUse"
       id="clipPath18">
      <path
         d="m 425.16,5611.27 h 2551 v 2240.45 h -2551 z"
         transform="translate(0,2.5000001e-4)"
         id="path18" />
    </clipPath>
    <clipPath
       clipPathUnits="userSpaceOnUse"
       id="clipPath20">
      <path
         d="m 425.16,5611.27 h 2551 v 2240.45 h -2551 z"
         transform="translate(0,2.5000001e-4)"
         id="path20" />
    </clipPath>
    <clipPath
       clipPathUnits="userSpaceOnUse"
       id="clipPath22">
      <path
         d="m 425.16,5611.27 h 2551 v 2240.45 h -2551 z"
         transform="translate(0,2.5000001e-4)"
         id="path22" />
    </clipPath>
    <clipPath
       clipPathUnits="userSpaceOnUse"
       id="clipPath24">
      <path
         d="m 425.16,5611.27 h 2551 v 2240.45 h -2551 z"
         transform="translate(0,2.5000001e-4)"
         id="path24" />
    </clipPath>
    <clipPath
       clipPathUnits="userSpaceOnUse"
       id="clipPath26">
      <path
         d="m 425.16,5611.27 h 2551 v 2240.45 h -2551 z"
         transform="translate(0,2.5000001e-4)"
         id="path26" />
    </clipPath>
    <clipPath
       clipPathUnits="userSpaceOnUse"
       id="clipPath28">
      <path
         d="m 425.16,5611.27 h 2551 v 2240.45 h -2551 z"
         transform="translate(0,2.5000001e-4)"
         id="path28" />
    </clipPath>
    <clipPath
       clipPathUnits="userSpaceOnUse"
       id="clipPath30">
      <path
         d="m 425.16,5611.27 h 2551 v 2240.45 h -2551 z"
         transform="translate(0,2.5000001e-4)"
         id="path30" />
    </clipPath>
    <clipPath
       clipPathUnits="userSpaceOnUse"
       id="clipPath32">
      <path
         d="m 425.16,5611.27 h 2551 v 2240.45 h -2551 z"
         transform="translate(0,2.5000001e-4)"
         id="path32" />
    </clipPath>
    <clipPath
       clipPathUnits="userSpaceOnUse"
       id="clipPath34">
      <path
         d="m 425.16,5611.27 h 2551 v 2240.45 h -2551 z"
         transform="translate(0,2.5000001e-4)"
         id="path34" />
    </clipPath>
    <clipPath
       clipPathUnits="userSpaceOnUse"
       id="clipPath36">
      <path
         d="m 425.16,5611.27 h 2551 v 2240.45 h -2551 z"
         transform="translate(0,2.5000001e-4)"
         id="path36" />
    </clipPath>
    <clipPath
       clipPathUnits="userSpaceOnUse"
       id="clipPath38">
      <path
         d="m 425.16,5611.27 h 2551 v 2240.45 h -2551 z"
         transform="translate(0,2.5000001e-4)"
         id="path38" />
    </clipPath>
    <clipPath
       clipPathUnits="userSpaceOnUse"
       id="clipPath47">
      <path
         d="m 2976.39,5611.27 h 2551 v 2240.45 h -2551 z"
         transform="translate(0,2.5000001e-4)"
         id="path47" />
    </clipPath>
    <clipPath
       clipPathUnits="userSpaceOnUse"
       id="clipPath49">
      <path
         d="m 2976.39,5611.27 h 2551 v 2240.45 h -2551 z"
         transform="translate(0,2.5000001e-4)"
         id="path49" />
    </clipPath>
    <clipPath
       clipPathUnits="userSpaceOnUse"
       id="clipPath51">
      <path
         d="m 2976.39,5611.27 h 2551 v 2240.45 h -2551 z"
         transform="translate(0,2.5000001e-4)"
         id="path51" />
    </clipPath>
    <clipPath
       clipPathUnits="userSpaceOnUse"
       id="clipPath53">
      <path
         d="m 2976.39,5611.27 h 2551 v 2240.45 h -2551 z"
         transform="translate(0,2.5000001e-4)"
         id="path53" />
    </clipPath>
    <clipPath
       clipPathUnits="userSpaceOnUse"
       id="clipPath55">
      <path
         d="m 2976.39,5611.27 h 2551 v 2240.45 h -2551 z"
         transform="translate(0,2.5000001e-4)"
         id="path55" />
    </clipPath>
    <clipPath
       clipPathUnits="userSpaceOnUse"
       id="clipPath57">
      <path
         d="m 2976.39,5611.27 h 2551 v 2240.45 h -2551 z"
         transform="translate(0,2.5000001e-4)"
         id="path57" />
    </clipPath>
    <clipPath
       clipPathUnits="userSpaceOnUse"
       id="clipPath59">
      <path
         d="m 2976.39,5611.27 h 2551 v 2240.45 h -2551 z"
         transform="translate(0,2.5000001e-4)"
         id="path59" />
    </clipPath>
    <clipPath
       clipPathUnits="userSpaceOnUse"
       id="clipPath61">
      <path
         d="m 2976.39,5611.27 h 2551 v 2240.45 h -2551 z"
         transform="translate(0,2.5000001e-4)"
         id="path61" />
    </clipPath>
    <clipPath
       clipPathUnits="userSpaceOnUse"
       id="clipPath63">
      <path
         d="m 2976.39,5611.27 h 2551 v 2240.45 h -2551 z"
         transform="translate(0,2.5000001e-4)"
         id="path63" />
    </clipPath>
    <clipPath
       clipPathUnits="userSpaceOnUse"
       id="clipPath65">
      <path
         d="m 2976.39,5611.27 h 2551 v 2240.45 h -2551 z"
         transform="translate(0,2.5000001e-4)"
         id="path65" />
    </clipPath>
    <clipPath
       clipPathUnits="userSpaceOnUse"
       id="clipPath67">
      <path
         d="m 2976.39,5611.27 h 2551 v 2240.45 h -2551 z"
         transform="translate(0,2.5000001e-4)"
         id="path67" />
    </clipPath>
    <clipPath
       clipPathUnits="userSpaceOnUse"
       id="clipPath69">
      <path
         d="m 2976.39,5611.27 h 2551 v 2240.45 h -2551 z"
         transform="translate(0,2.5000001e-4)"
         id="path69" />
    </clipPath>
    <clipPath
       clipPathUnits="userSpaceOnUse"
       id="clipPath71">
      <path
         d="m 2976.39,5611.27 h 2551 v 2240.45 h -2551 z"
         transform="translate(0,2.5000001e-4)"
         id="path71" />
    </clipPath>
    <clipPath
       clipPathUnits="userSpaceOnUse"
       id="clipPath73">
      <path
         d="m 2976.39,5611.27 h 2551 v 2240.45 h -2551 z"
         transform="translate(0,2.5000001e-4)"
         id="path73" />
    </clipPath>
    <clipPath
       clipPathUnits="userSpaceOnUse"
       id="clipPath75">
      <path
         d="m 2976.39,5611.27 h 2551 v 2240.45 h -2551 z"
         transform="translate(0,2.5000001e-4)"
         id="path75" />
    </clipPath>
    <clipPath
       clipPathUnits="userSpaceOnUse"
       id="clipPath77">
      <path
         d="m 2976.39,5611.27 h 2551 v 2240.45 h -2551 z"
         transform="translate(0,2.5000001e-4)"
         id="path77" />
    </clipPath>
    <clipPath
       clipPathUnits="userSpaceOnUse"
       id="clipPath79">
      <path
         d="m 2976.39,5611.27 h 2551 v 2240.45 h -2551 z"
         transform="translate(0,2.5000001e-4)"
         id="path79" />
    </clipPath>
  </defs>
  <sodipodi:namedview
     id="namedview1"
     pagecolor="#505050"
     bordercolor="#eeeeee"
     borderopacity="1"
     inkscape:showpageshadow="0"
     inkscape:pageopacity="0"
     inkscape:pagecheckerboard="0"
     inkscape:deskcolor="#505050" />
  <g
     id="g1"
     inkscape:groupmode="layer"
     inkscape:label="156"
     transform="translate(-57.792496,-78.225627)">
    <path
       id="path5"
       d="m 2169.92,7234.47 -250.81,-96.42 -64.97,-254.3 34.23,-278.76 120.86,-185.83 595.25,688.16"
       style="fill:#ffbfbf;fill-opacity:1;fill-rule:evenodd;stroke:none"
       transform="matrix(0.13333333,0,0,-0.13333333,0,1122.6667)"
       clip-path="url(#clipPath6)" />
    <path
       id="path7"
       d="m 1156.2,7423.1 -235.45,-173.96 49.605,-303.91 275.965,-86.63 449.22,340.94"
       style="fill:#ffd600;fill-opacity:1;fill-rule:evenodd;stroke:none"
       transform="matrix(0.13333333,0,0,-0.13333333,0,1122.6667)"
       clip-path="url(#clipPath8)" />
    <path
       id="path9"
       d="M 1697.64,7827.62 440.086,6884.45 1068.86,5626.89 2798,5941.29 2012.03,6412.87 2955.2,7513.23 Z"
       style="fill:none;stroke:#000000;stroke-width:10.4796;stroke-linecap:butt;stroke-linejoin:miter;stroke-miterlimit:10;stroke-dasharray:none;stroke-opacity:1"
       transform="matrix(0.13333333,0,0,-0.13333333,0,1122.6667)"
       clip-path="url(#clipPath10)" />
    <path
       id="path11"
       d="m 1697.64,7198.84 -628.78,-471.59 157.2,-471.58 628.78,628.78 z"
       style="fill:none;stroke:#000000;stroke-width:10.4796;stroke-linecap:butt;stroke-linejoin:miter;stroke-miterlimit:10;stroke-dasharray:none;stroke-opacity:1"
       transform="matrix(0.13333333,0,0,-0.13333333,0,1122.6667)"
       clip-path="url(#clipPath12)" />
    <path
       id="path13"
       d="m 2609.37,7104.52 -440.15,125.76 -345.83,220.07 -408.7,157.19 282.95,-408.7 125.75,251.51 94.32,-314.39 251.51,94.32 -62.87,-345.83 471.58,220.07"
       style="fill:none;stroke:#0000ff;stroke-width:5.23981;stroke-linecap:butt;stroke-linejoin:miter;stroke-miterlimit:10;stroke-dasharray:none;stroke-opacity:1"
       transform="matrix(0.13333333,0,0,-0.13333333,0,1122.6667)"
       clip-path="url(#clipPath14)" />
    <path
       id="path15"
       d="m 2326.42,6790.13 -220.07,94.32 -188.64,251.51 -220.07,62.88 -534.46,220.07 94.32,-282.95 -345.832,125.75 62.879,-314.38 -282.949,125.75 31.437,-282.95 -282.949,94.32"
       style="fill:none;stroke:#0000ff;stroke-width:5.23981;stroke-linecap:butt;stroke-linejoin:miter;stroke-miterlimit:10;stroke-dasharray:none;stroke-opacity:1"
       transform="matrix(0.13333333,0,0,-0.13333333,0,1122.6667)"
       clip-path="url(#clipPath16)" />
    <path
       id="path17"
       d="m 565.84,6601.5 157.195,188.63 251.512,157.2 282.953,188.63 440.14,62.88"
       style="fill:none;stroke:#0000ff;stroke-width:5.23981;stroke-linecap:butt;stroke-linejoin:miter;stroke-miterlimit:10;stroke-dasharray:none;stroke-opacity:1"
       transform="matrix(0.13333333,0,0,-0.13333333,0,1122.6667)"
       clip-path="url(#clipPath18)" />
    <path
       id="path19"
       d="m 1446.13,7010.21 -188.63,125.75 v -282.95 l -282.953,94.32 94.313,-220.08 -345.825,62.88 -31.437,-408.7 377.262,345.82"
       style="fill:none;stroke:#0000ff;stroke-width:5.23981;stroke-linecap:butt;stroke-linejoin:miter;stroke-miterlimit:10;stroke-dasharray:none;stroke-opacity:1"
       transform="matrix(0.13333333,0,0,-0.13333333,0,1122.6667)"
       clip-path="url(#clipPath20)" />
    <path
       id="path21"
       d="m 1068.86,6727.25 -282.946,-565.89 440.146,94.31 -282.951,-377.26 471.581,125.75 -345.83,-377.27"
       style="fill:none;stroke:#0000ff;stroke-width:5.23981;stroke-linecap:butt;stroke-linejoin:miter;stroke-miterlimit:10;stroke-dasharray:none;stroke-opacity:1"
       transform="matrix(0.13333333,0,0,-0.13333333,0,1122.6667)"
       clip-path="url(#clipPath22)" />
    <path
       id="path23"
       d="m 1414.69,6004.16 62.88,-314.39 157.19,377.27 157.2,-314.39 157.19,377.27 282.95,-282.95 251.51,282.95"
       style="fill:none;stroke:#0000ff;stroke-width:5.23981;stroke-linecap:butt;stroke-linejoin:miter;stroke-miterlimit:10;stroke-dasharray:none;stroke-opacity:1"
       transform="matrix(0.13333333,0,0,-0.13333333,0,1122.6667)"
       clip-path="url(#clipPath24)" />
    <path
       id="path25"
       d="m 2483.61,6129.92 h -534.46 l -314.39,-62.88 -220.07,-62.88 -188.63,251.51"
       style="fill:none;stroke:#0000ff;stroke-width:5.23981;stroke-linecap:butt;stroke-linejoin:miter;stroke-miterlimit:10;stroke-dasharray:none;stroke-opacity:1"
       transform="matrix(0.13333333,0,0,-0.13333333,0,1122.6667)"
       clip-path="url(#clipPath26)" />
    <path
       id="path27"
       d="m 1414.69,6004.16 157.2,314.39 62.87,-251.51 125.76,314.39 188.63,-251.51 62.88,282.95"
       style="fill:none;stroke:#0000ff;stroke-width:5.23981;stroke-linecap:butt;stroke-linejoin:miter;stroke-miterlimit:10;stroke-dasharray:none;stroke-opacity:1"
       transform="matrix(0.13333333,0,0,-0.13333333,0,1122.6667)"
       clip-path="url(#clipPath28)" />
    <path
       id="path29"
       d="m 2012.03,6412.87 -251.51,-31.44 -188.63,-62.88 -345.83,-62.88"
       style="fill:none;stroke:#0000ff;stroke-width:5.23981;stroke-linecap:butt;stroke-linejoin:miter;stroke-miterlimit:10;stroke-dasharray:none;stroke-opacity:1"
       transform="matrix(0.13333333,0,0,-0.13333333,0,1122.6667)"
       clip-path="url(#clipPath30)" />
    <path
       id="path31"
       d="m 1571.89,6318.55 -62.88,220.07 251.51,-157.19 -94.32,314.39 220.07,-94.32 -31.43,282.95 62.87,251.51"
       style="fill:none;stroke:#0000ff;stroke-width:5.23981;stroke-linecap:butt;stroke-linejoin:miter;stroke-miterlimit:10;stroke-dasharray:none;stroke-opacity:1"
       transform="matrix(0.13333333,0,0,-0.13333333,0,1122.6667)"
       clip-path="url(#clipPath32)" />
    <path
       id="path33"
       d="m 1854.84,6884.45 h 251.51 L 1886.27,6601.5 1760.52,6381.43"
       style="fill:none;stroke:#0000ff;stroke-width:5.23981;stroke-linecap:butt;stroke-linejoin:miter;stroke-miterlimit:10;stroke-dasharray:none;stroke-opacity:1"
       transform="matrix(0.13333333,0,0,-0.13333333,0,1122.6667)"
       clip-path="url(#clipPath34)" />
    <path
       id="path35"
       d="m 1886.27,6601.5 125.76,-188.63 94.32,471.58"
       style="fill:none;stroke:#0000ff;stroke-width:5.23981;stroke-linecap:butt;stroke-linejoin:miter;stroke-miterlimit:10;stroke-dasharray:none;stroke-opacity:1"
       transform="matrix(0.13333333,0,0,-0.13333333,0,1122.6667)"
       clip-path="url(#clipPath36)" />
    <path
       id="path37"
       d="m 1697.64,7827.62 125.75,-377.27 314.4,282.95 31.43,-503.02 440.15,377.26 v -503.02"
       style="fill:none;stroke:#0000ff;stroke-width:5.23981;stroke-linecap:butt;stroke-linejoin:miter;stroke-miterlimit:10;stroke-dasharray:none;stroke-opacity:1"
       transform="matrix(0.13333333,0,0,-0.13333333,0,1122.6667)"
       clip-path="url(#clipPath38)" />
    <g
       id="g38"
       aria-label="x&#10;i&#10;x&#10;j&#10;Ω"
       transform="matrix(1.3333333,0,0,1.3333333,286.828,201.10667)">
      <path
         id="path39"
         d="m 0.09384375,-1.1727734 c -0.03515625,0.44531246 -0.08203125,0.73828121 -0.1875,1.20703121 0.22265625,0.1171875 0.3515625,0.1640625 0.515625,0.1640625 0.33984375,0 0.77343755,-0.28125 1.12500005,-0.75 l 1.0078125,-1.35937501 0.1171875,0.6914063 c 0.1171875,0.58593746 0.1992187,0.87890621 0.3632812,1.10156246 0.140625,0.19921875 0.375,0.31640625 0.5859375,0.31640625 0.3632813,0 0.7851563,-0.2578125 1.7109375,-1.03125 l 0.2109375,-0.19921871 -0.1875,-0.2695313 -0.3632812,0.2460938 c -0.328125,0.24609371 -0.4335938,0.29296871 -0.5625,0.29296871 -0.1523438,0 -0.2929688,-0.09375 -0.375,-0.24609371 C 3.925875,-1.2782422 3.7618125,-1.8173047 3.6680625,-2.3563672 L 3.5391563,-3.1180859 3.9961875,-3.7274609 C 4.34775,-4.2196484 4.8047813,-4.5594922 5.09775,-4.5594922 c 0.070312,0 0.1289063,0.011719 0.2460938,0.058594 l 0.1054687,0.3398437 0.2578125,-0.058594 c 0.082031,-0.7617188 0.1289063,-0.9960938 0.2695313,-1.265625 -0.140625,-0.070312 -0.328125,-0.1171875 -0.46875,-0.1171875 -0.3867188,0 -0.84375,0.328125 -1.3125,0.984375 l -0.75,1.0429687 -0.046875,-0.2695312 C 3.269625,-4.5594922 3.1524375,-4.9227734 2.9649375,-5.1805859 2.7657188,-5.4501172 2.425875,-5.6024609 2.0391563,-5.6024609 c -0.234375,0 -0.4101563,0.046875 -0.9023438,0.234375 -0.058594,0.1054687 -0.058594,0.1171875 -0.1171875,0.234375 -0.2578125,0.4804687 -0.421875,0.7617187 -0.5859375,0.9726562 l 0.26953125,0.1523438 C 0.879,-4.3133984 1.2774375,-4.5946484 1.5704063,-4.5946484 c 0.2929687,0 0.5742187,0.4570312 0.703125,1.1835937 l 0.1875,1.0546875 -0.6210938,0.8789063 c -0.3398437,0.48046871 -0.6914062,0.72656246 -1.0546875,0.72656246 -0.10546875,0 -0.19921875,-0.0234375 -0.328125,-0.0703125 L 0.3868125,-1.1962109 Z m 0,0"
         style="fill:#0000ff;fill-opacity:1;fill-rule:nonzero;stroke:none" />
      <path
         id="path40"
         d="m 6.4688438,-7.8173047 0.058594,0.1757813 0.2929688,-0.1875 c 0.328125,-0.1992188 0.3515625,-0.2226563 0.421875,-0.2226563 0.082031,0 0.1640625,0.09375 0.1640625,0.2109375 0,0.058594 -0.035156,0.2695313 -0.082031,0.3984375 L 6.738375,-5.2977734 c -0.070312,0.28125 -0.1171875,0.5273437 -0.1171875,0.6914062 0,0.2109375 0.09375,0.3515625 0.2695313,0.3515625 0.234375,0 0.5507812,-0.1875 1.4296875,-0.84375 L 8.238375,-5.2626172 8.004,-5.1102734 c -0.2578125,0.1757812 -0.46875,0.2695312 -0.5507812,0.2695312 -0.058594,0 -0.1171875,-0.082031 -0.1171875,-0.1757812 0,-0.09375 0.023437,-0.1757813 0.070312,-0.3632813 l 0.6796875,-2.71875 c 0.046875,-0.1523437 0.058594,-0.2578125 0.058594,-0.328125 0,-0.1523437 -0.082031,-0.234375 -0.2226562,-0.234375 -0.1992188,0 -0.5273438,0.1875 -1.2070313,0.6679688 z m 1.734375,-2.9062503 c -0.2578125,0 -0.515625,0.304688 -0.515625,0.609375 0,0.2226566 0.140625,0.3632816 0.3515625,0.3632816 0.28125,0 0.4921875,-0.2578126 0.4921875,-0.5976566 0,-0.222656 -0.140625,-0.375 -0.328125,-0.375 z m 0,0"
         style="fill:#0000ff;fill-opacity:1;fill-rule:nonzero;stroke:none" />
      <path
         id="path41"
         d="m -90.729398,-27.440352 c -0.03516,0.445313 -0.08203,0.738282 -0.1875,1.207032 0.222656,0.117187 0.351562,0.164062 0.515625,0.164062 0.339843,0 0.773437,-0.28125 1.125,-0.75 l 1.007812,-1.359375 0.117188,0.691406 c 0.117187,0.585938 0.199218,0.878907 0.363281,1.101563 0.140625,0.199219 0.375,0.316406 0.585937,0.316406 0.363282,0 0.785157,-0.257812 1.710938,-1.03125 l 0.210937,-0.199219 -0.1875,-0.269531 -0.363281,0.246094 c -0.328125,0.246094 -0.433594,0.292969 -0.5625,0.292969 -0.152344,0 -0.292969,-0.09375 -0.375,-0.246094 -0.128906,-0.269531 -0.292969,-0.808594 -0.386719,-1.347656 l -0.128906,-0.761719 0.457031,-0.609375 c 0.351563,-0.492188 0.808594,-0.832031 1.101563,-0.832031 0.07031,0 0.128906,0.01172 0.246094,0.05859 l 0.105468,0.339844 0.257813,-0.05859 c 0.08203,-0.761718 0.128906,-0.996093 0.269531,-1.265625 -0.140625,-0.07031 -0.328125,-0.117187 -0.46875,-0.117187 -0.386719,0 -0.84375,0.328125 -1.3125,0.984375 l -0.75,1.042969 -0.04687,-0.269532 c -0.128906,-0.714843 -0.246094,-1.078125 -0.433594,-1.335937 -0.199218,-0.269531 -0.539062,-0.421875 -0.925781,-0.421875 -0.234375,0 -0.410156,0.04687 -0.902344,0.234375 -0.05859,0.105469 -0.05859,0.117187 -0.117187,0.234375 -0.257813,0.480469 -0.421875,0.761719 -0.585938,0.972656 l 0.269532,0.152344 c 0.175781,-0.304688 0.574218,-0.585938 0.867187,-0.585938 0.292969,0 0.574219,0.457032 0.703125,1.183594 l 0.1875,1.054688 -0.621094,0.878906 c -0.339843,0.480469 -0.691406,0.726562 -1.054687,0.726562 -0.105469,0 -0.199219,-0.02344 -0.328125,-0.07031 l -0.07031,-0.375 z m 0,0"
         style="fill:#0000ff;fill-opacity:1;fill-rule:nonzero;stroke:none" />
      <path
         id="path42"
         d="m -84.913969,-28.193281 c 0.09375,0.04687 0.210938,0.05859 0.351563,0.05859 0.351562,0 0.714844,-0.386719 1.03125,-1.113282 0.1875,-0.398437 0.304687,-0.84375 0.5625,-1.992187 l 0.679687,-3.128906 c 0.03516,-0.164063 0.04687,-0.28125 0.04687,-0.339844 0,-0.140625 -0.07031,-0.222656 -0.222656,-0.222656 -0.199219,0 -0.527344,0.1875 -1.195312,0.667968 l -0.257813,0.175782 0.07031,0.175781 0.28125,-0.1875 c 0.339843,-0.199219 0.363281,-0.222656 0.421875,-0.222656 0.09375,0 0.164062,0.09375 0.164062,0.210937 0,0.03516 -0.02344,0.152344 -0.04687,0.246094 -0.01172,0.05859 -0.01172,0.09375 -0.01172,0.105469 l -0.902343,4.441406 c -0.09375,0.46875 -0.257813,0.785156 -0.421875,0.785156 -0.128907,0 -0.28125,-0.05859 -0.46875,-0.175781 z m 2.683594,-8.800781 c -0.257812,0 -0.515625,0.304687 -0.515625,0.609375 0,0.222656 0.128906,0.363281 0.351563,0.363281 0.269531,0 0.492187,-0.257813 0.492187,-0.597656 0,-0.222657 -0.140625,-0.375 -0.328125,-0.375 z m 0,0"
         style="fill:#0000ff;fill-opacity:1;fill-rule:nonzero;stroke:none" />
      <path
         id="path43"
         d="m -49.954008,-68.119062 c 0.07031,0.515625 0.08203,1.335937 0.08203,1.921875 0.246094,0 0.960938,-0.03516 1.417969,-0.03516 0.28125,0 1.171875,0 1.429688,0.03516 h 0.257812 v -0.46875 c -0.105469,-0.105469 -0.28125,-0.152344 -0.457031,-0.269532 -0.07031,-0.04687 -0.175781,-0.164062 -0.292969,-0.351562 -0.328125,-0.480469 -0.949219,-1.851563 -0.949219,-2.953125 0,-2.542969 0.960938,-3.960938 3.070313,-3.960938 2.121094,0 3.058594,1.429688 3.058594,3.960938 0,1.101562 -0.621094,2.472656 -0.9375,2.953125 -0.117188,0.1875 -0.234375,0.304687 -0.304688,0.351562 -0.175781,0.117188 -0.339844,0.164063 -0.445312,0.269532 v 0.46875 h 0.257812 c 0.246094,-0.03516 1.148438,-0.03516 1.417969,-0.03516 0.457031,0 1.171875,0.03516 1.429687,0.03516 0,-0.585938 0.01172,-1.40625 0.08203,-1.921875 h -0.316407 l -0.08203,0.621093 c -0.04687,0.339844 -0.199219,0.445313 -0.421875,0.445313 h -1.382812 c 0.761718,-0.632813 1.992187,-2.039063 1.992187,-3.609375 0,-2.472656 -1.652344,-4.042969 -4.347656,-4.042969 -2.683594,0 -4.347656,1.558594 -4.347656,4.042969 0,1.570312 1.230468,2.976562 1.980468,3.609375 h -1.371093 c -0.222657,0 -0.386719,-0.105469 -0.433594,-0.445313 l -0.08203,-0.621093 z m 0,0"
         style="fill:#0000ff;fill-opacity:1;fill-rule:nonzero;stroke:none" />
    </g>
    <path
       id="path46"
       d="m 4721.15,7234.47 -250.81,-96.42 -64.97,-254.3 34.23,-278.76 120.86,-185.83 595.25,688.16"
       style="fill:#ffbfbf;fill-opacity:1;fill-rule:evenodd;stroke:none"
       transform="matrix(0.13333333,0,0,-0.13333333,0,1122.6667)"
       clip-path="url(#clipPath47)" />
    <path
       id="path48"
       d="m 3965.22,7615.23 287.84,210.99 434.56,-108.99 30.74,-486.25 -248.02,-93.62 -226.36,62.18"
       style="fill:#ffd600;fill-opacity:1;fill-rule:evenodd;stroke:none"
       transform="matrix(0.13333333,0,0,-0.13333333,0,1122.6667)"
       clip-path="url(#clipPath49)" />
    <path
       id="path50"
       d="m 4248.87,7827.62 -1257.55,-943.17 628.77,-1257.56 1729.14,314.4 -785.97,471.58 943.17,1100.36 z"
       style="fill:none;stroke:#000000;stroke-width:10.4796;stroke-linecap:butt;stroke-linejoin:miter;stroke-miterlimit:10;stroke-dasharray:none;stroke-opacity:1"
       transform="matrix(0.13333333,0,0,-0.13333333,0,1122.6667)"
       clip-path="url(#clipPath51)" />
    <path
       id="path52"
       d="m 4248.87,7198.84 -628.78,-471.59 157.2,-471.58 628.78,628.78 z"
       style="fill:none;stroke:#000000;stroke-width:10.4796;stroke-linecap:butt;stroke-linejoin:miter;stroke-miterlimit:10;stroke-dasharray:none;stroke-opacity:1"
       transform="matrix(0.13333333,0,0,-0.13333333,0,1122.6667)"
       clip-path="url(#clipPath53)" />
    <path
       id="path54"
       d="m 4248.87,7827.62 125.76,-377.27 314.39,282.95 31.43,-503.02 440.15,377.26 v -503.02"
       style="fill:none;stroke:#0000ff;stroke-width:5.23981;stroke-linecap:butt;stroke-linejoin:miter;stroke-miterlimit:10;stroke-dasharray:none;stroke-opacity:1"
       transform="matrix(0.13333333,0,0,-0.13333333,0,1122.6667)"
       clip-path="url(#clipPath55)" />
    <path
       id="path56"
       d="m 5160.6,7104.52 -440.15,125.76 -345.82,220.07 -408.71,157.19 282.95,-408.7 125.76,251.51 94.31,-314.39 251.51,94.32 -62.88,-345.83 471.59,220.07"
       style="fill:none;stroke:#0000ff;stroke-width:5.23981;stroke-linecap:butt;stroke-linejoin:miter;stroke-miterlimit:10;stroke-dasharray:none;stroke-opacity:1"
       transform="matrix(0.13333333,0,0,-0.13333333,0,1122.6667)"
       clip-path="url(#clipPath57)" />
    <path
       id="path58"
       d="m 4877.65,6790.13 -220.08,94.32 -188.63,251.51 -220.07,62.88 -534.46,220.07 94.32,-282.95 -345.83,125.75 62.88,-314.38 -282.95,125.75 31.44,-282.95 -282.95,94.32"
       style="fill:none;stroke:#0000ff;stroke-width:5.23981;stroke-linecap:butt;stroke-linejoin:miter;stroke-miterlimit:10;stroke-dasharray:none;stroke-opacity:1"
       transform="matrix(0.13333333,0,0,-0.13333333,0,1122.6667)"
       clip-path="url(#clipPath59)" />
    <path
       id="path60"
       d="m 3117.07,6601.5 157.2,188.63 251.51,157.2 282.95,188.63 440.14,62.88"
       style="fill:none;stroke:#0000ff;stroke-width:5.23981;stroke-linecap:butt;stroke-linejoin:miter;stroke-miterlimit:10;stroke-dasharray:none;stroke-opacity:1"
       transform="matrix(0.13333333,0,0,-0.13333333,0,1122.6667)"
       clip-path="url(#clipPath61)" />
    <path
       id="path62"
       d="m 3997.36,7010.21 -188.63,125.75 v -282.95 l -282.95,94.32 94.31,-220.08 -345.82,62.88 -31.44,-408.7 377.26,345.82"
       style="fill:none;stroke:#0000ff;stroke-width:5.23981;stroke-linecap:butt;stroke-linejoin:miter;stroke-miterlimit:10;stroke-dasharray:none;stroke-opacity:1"
       transform="matrix(0.13333333,0,0,-0.13333333,0,1122.6667)"
       clip-path="url(#clipPath63)" />
    <path
       id="path64"
       d="m 3620.09,6727.25 -282.95,-565.89 440.15,94.31 -282.95,-377.26 471.58,125.75 -345.83,-377.27"
       style="fill:none;stroke:#0000ff;stroke-width:5.23981;stroke-linecap:butt;stroke-linejoin:miter;stroke-miterlimit:10;stroke-dasharray:none;stroke-opacity:1"
       transform="matrix(0.13333333,0,0,-0.13333333,0,1122.6667)"
       clip-path="url(#clipPath65)" />
    <path
       id="path66"
       d="m 3965.92,6004.16 62.88,-314.39 157.19,377.27 157.2,-314.39 157.19,377.27 282.95,-282.95 251.51,282.95"
       style="fill:none;stroke:#0000ff;stroke-width:5.23981;stroke-linecap:butt;stroke-linejoin:miter;stroke-miterlimit:10;stroke-dasharray:none;stroke-opacity:1"
       transform="matrix(0.13333333,0,0,-0.13333333,0,1122.6667)"
       clip-path="url(#clipPath67)" />
    <path
       id="path68"
       d="m 5034.84,6129.92 h -534.46 l -314.39,-62.88 -220.07,-62.88 -188.63,251.51"
       style="fill:none;stroke:#0000ff;stroke-width:5.23981;stroke-linecap:butt;stroke-linejoin:miter;stroke-miterlimit:10;stroke-dasharray:none;stroke-opacity:1"
       transform="matrix(0.13333333,0,0,-0.13333333,0,1122.6667)"
       clip-path="url(#clipPath69)" />
    <path
       id="path70"
       d="m 3965.92,6004.16 157.2,314.39 62.87,-251.51 125.76,314.39 188.63,-251.51 62.88,282.95"
       style="fill:none;stroke:#0000ff;stroke-width:5.23981;stroke-linecap:butt;stroke-linejoin:miter;stroke-miterlimit:10;stroke-dasharray:none;stroke-opacity:1"
       transform="matrix(0.13333333,0,0,-0.13333333,0,1122.6667)"
       clip-path="url(#clipPath71)" />
    <path
       id="path72"
       d="m 4563.26,6412.87 -251.51,-31.44 -188.63,-62.88 -345.83,-62.88"
       style="fill:none;stroke:#0000ff;stroke-width:5.23981;stroke-linecap:butt;stroke-linejoin:miter;stroke-miterlimit:10;stroke-dasharray:none;stroke-opacity:1"
       transform="matrix(0.13333333,0,0,-0.13333333,0,1122.6667)"
       clip-path="url(#clipPath73)" />
    <path
       id="path74"
       d="m 4123.12,6318.55 -62.88,220.07 251.51,-157.19 -94.32,314.39 220.07,-94.32 -31.43,282.95 62.87,251.51"
       style="fill:none;stroke:#0000ff;stroke-width:5.23981;stroke-linecap:butt;stroke-linejoin:miter;stroke-miterlimit:10;stroke-dasharray:none;stroke-opacity:1"
       transform="matrix(0.13333333,0,0,-0.13333333,0,1122.6667)"
       clip-path="url(#clipPath75)" />
    <path
       id="path76"
       d="m 4406.07,6884.45 h 251.5 L 4437.5,6601.5 4311.75,6381.43"
       style="fill:none;stroke:#0000ff;stroke-width:5.23981;stroke-linecap:butt;stroke-linejoin:miter;stroke-miterlimit:10;stroke-dasharray:none;stroke-opacity:1"
       transform="matrix(0.13333333,0,0,-0.13333333,0,1122.6667)"
       clip-path="url(#clipPath77)" />
    <path
       id="path78"
       d="m 4437.5,6601.5 125.76,-188.63 94.31,471.58"
       style="fill:none;stroke:#0000ff;stroke-width:5.23981;stroke-linecap:butt;stroke-linejoin:miter;stroke-miterlimit:10;stroke-dasharray:none;stroke-opacity:1"
       transform="matrix(0.13333333,0,0,-0.13333333,0,1122.6667)"
       clip-path="url(#clipPath79)" />
    <g
       id="g79"
       aria-label="Ω&#10;x&#10;i&#10;x&#10;j"
       transform="matrix(1.3333333,0,0,1.3333333,444.14267,241.81467)">
      <path
         id="path80"
         d="m 0.41155469,-1.8854141 c 0.0703125,0.515625 0.0820313,1.33593754 0.0820313,1.92187504 0.24609375,0 0.96093741,-0.03515625 1.41796881,-0.03515625 0.28125,0 1.171875,0 1.4296875,0.03515625 h 0.2578125 v -0.46875 C 3.493586,-0.53775781 3.3178048,-0.58463281 3.1420235,-0.70182031 3.0717115,-0.74869531 2.9662423,-0.86588281 2.8490548,-1.0533828 2.5209298,-1.5338516 1.8998359,-2.9049453 1.8998359,-4.0065078 c 0,-2.5429688 0.9609376,-3.9609375 3.0703125,-3.9609375 2.1210939,0 3.0585939,1.4296875 3.0585939,3.9609375 0,1.1015625 -0.6210938,2.4726562 -0.9375,2.953125 -0.1171875,0.18749999 -0.234375,0.30468749 -0.3046875,0.35156249 -0.1757813,0.1171875 -0.3398438,0.1640625 -0.4453125,0.26953125 v 0.46875 H 6.5990547 C 6.8451484,0.00130469 7.7474922,0.00130469 8.0170234,0.00130469 c 0.4570313,0 1.171875,0.03515625 1.4296875,0.03515625 0,-0.5859375 0.011719,-1.40625004 0.082031,-1.92187504 h -0.316406 l -0.082031,0.6210938 c -0.046875,0.33984374 -0.1992188,0.44531249 -0.421875,0.44531249 H 7.3256172 C 8.0873359,-1.4518203 9.3178047,-2.8580703 9.3178047,-4.4283828 c 0,-2.4726563 -1.6523438,-4.0429688 -4.3476563,-4.0429688 -2.6835937,0 -4.34765621,1.5585938 -4.34765621,4.0429688 0,1.5703125 1.23046871,2.9765625 1.98046871,3.60937499 H 1.2318672 c -0.2226563,0 -0.38671876,-0.10546875 -0.43359376,-0.44531249 l -0.0820313,-0.6210938 z m 0,0"
         style="fill:#0000ff;fill-opacity:1;fill-rule:nonzero;stroke:none" />
      <path
         id="path81"
         d="m 137.23089,-31.703773 c -0.0352,0.445312 -0.082,0.738281 -0.1875,1.207031 0.22266,0.117187 0.35156,0.164062 0.51563,0.164062 0.33984,0 0.77343,-0.28125 1.125,-0.75 l 1.00781,-1.359375 0.11719,0.691407 c 0.11718,0.585937 0.19921,0.878906 0.36328,1.101562 0.14062,0.199219 0.375,0.316406 0.58593,0.316406 0.36329,0 0.78516,-0.257812 1.71094,-1.03125 l 0.21094,-0.199218 -0.1875,-0.269532 -0.36328,0.246094 c -0.32813,0.246094 -0.4336,0.292969 -0.5625,0.292969 -0.15235,0 -0.29297,-0.09375 -0.375,-0.246094 -0.12891,-0.269531 -0.29297,-0.808594 -0.38672,-1.347656 l -0.12891,-0.761719 0.45703,-0.609375 c 0.35157,-0.492187 0.8086,-0.832031 1.10157,-0.832031 0.0703,0 0.1289,0.01172 0.24609,0.05859 l 0.10547,0.339843 0.25781,-0.05859 c 0.082,-0.761719 0.12891,-0.996094 0.26953,-1.265625 -0.14062,-0.07031 -0.32812,-0.117188 -0.46875,-0.117188 -0.38672,0 -0.84375,0.328125 -1.3125,0.984375 l -0.75,1.042969 -0.0469,-0.269531 c -0.12891,-0.714844 -0.2461,-1.078125 -0.4336,-1.335938 -0.19921,-0.269531 -0.53906,-0.421875 -0.92578,-0.421875 -0.23437,0 -0.41015,0.04687 -0.90234,0.234375 -0.0586,0.105469 -0.0586,0.117188 -0.11719,0.234375 -0.25781,0.480469 -0.42187,0.761719 -0.58594,0.972656 l 0.26954,0.152344 c 0.17578,-0.304687 0.57421,-0.585937 0.86718,-0.585937 0.29297,0 0.57422,0.457031 0.70313,1.183593 l 0.1875,1.054688 -0.6211,0.878906 c -0.33984,0.480469 -0.6914,0.726563 -1.05468,0.726563 -0.10547,0 -0.19922,-0.02344 -0.32813,-0.07031 l -0.0703,-0.375 z m 0,0"
         style="fill:#0000ff;fill-opacity:1;fill-rule:nonzero;stroke:none" />
      <path
         id="path82"
         d="m 143.60589,-38.348305 0.0586,0.175782 0.29297,-0.1875 c 0.32813,-0.199219 0.35157,-0.222657 0.42188,-0.222657 0.082,0 0.16406,0.09375 0.16406,0.210938 0,0.05859 -0.0352,0.269531 -0.082,0.398437 l -0.58594,2.144532 c -0.0703,0.28125 -0.11719,0.527343 -0.11719,0.691406 0,0.210937 0.0937,0.351562 0.26954,0.351562 0.23437,0 0.55078,-0.1875 1.42968,-0.84375 l -0.082,-0.164062 -0.23437,0.152344 c -0.25782,0.175781 -0.46875,0.269531 -0.55078,0.269531 -0.0586,0 -0.11719,-0.08203 -0.11719,-0.175781 0,-0.09375 0.0234,-0.175782 0.0703,-0.363282 l 0.67969,-2.71875 c 0.0469,-0.152343 0.0586,-0.257812 0.0586,-0.328125 0,-0.152343 -0.082,-0.234375 -0.22265,-0.234375 -0.19922,0 -0.52735,0.1875 -1.20704,0.667969 z m 1.73438,-2.90625 c -0.25782,0 -0.51563,0.304688 -0.51563,0.609375 0,0.222657 0.14063,0.363282 0.35156,0.363282 0.28125,0 0.49219,-0.257813 0.49219,-0.597657 0,-0.222656 -0.14062,-0.375 -0.32812,-0.375 z m 0,0"
         style="fill:#0000ff;fill-opacity:1;fill-rule:nonzero;stroke:none" />
      <path
         id="path83"
         d="m 107.4682,-87.455727 c -0.0352,0.445313 -0.082,0.738282 -0.1875,1.207032 0.22265,0.117187 0.35156,0.164062 0.51562,0.164062 0.33984,0 0.77344,-0.28125 1.125,-0.75 l 1.00781,-1.359375 0.11719,0.691406 c 0.11719,0.585938 0.19922,0.878907 0.36328,1.101563 0.14063,0.199219 0.375,0.316406 0.58594,0.316406 0.36328,0 0.78516,-0.257812 1.71094,-1.03125 l 0.21093,-0.199219 -0.1875,-0.269531 -0.36328,0.246094 c -0.32812,0.246094 -0.43359,0.292969 -0.5625,0.292969 -0.15234,0 -0.29297,-0.09375 -0.375,-0.246094 -0.1289,-0.269531 -0.29297,-0.808594 -0.38672,-1.347656 l -0.1289,-0.761719 0.45703,-0.609375 c 0.35156,-0.492188 0.80859,-0.832031 1.10156,-0.832031 0.0703,0 0.12891,0.01172 0.2461,0.05859 l 0.10546,0.339844 0.25782,-0.05859 c 0.082,-0.761718 0.1289,-0.996093 0.26953,-1.265625 -0.14063,-0.07031 -0.32813,-0.117187 -0.46875,-0.117187 -0.38672,0 -0.84375,0.328125 -1.3125,0.984375 l -0.75,1.042969 -0.0469,-0.269532 c -0.1289,-0.714843 -0.24609,-1.078125 -0.43359,-1.335937 -0.19922,-0.269531 -0.53906,-0.421875 -0.92578,-0.421875 -0.23438,0 -0.41016,0.04687 -0.90235,0.234375 -0.0586,0.105469 -0.0586,0.117187 -0.11718,0.234375 -0.25782,0.480469 -0.42188,0.761719 -0.58594,0.972656 l 0.26953,0.152344 c 0.17578,-0.304688 0.57422,-0.585938 0.86719,-0.585938 0.29297,0 0.57422,0.457032 0.70312,1.183594 l 0.1875,1.054688 -0.62109,0.878906 c -0.33984,0.480469 -0.69141,0.726562 -1.05469,0.726562 -0.10547,0 -0.19922,-0.02344 -0.32812,-0.07031 l -0.0703,-0.375 z m 0,0"
         style="fill:#0000ff;fill-opacity:1;fill-rule:nonzero;stroke:none" />
      <path
         id="path84"
         d="m 113.28362,-88.205727 c 0.0937,0.04687 0.21094,0.05859 0.35157,0.05859 0.35156,0 0.71484,-0.386719 1.03125,-1.113281 0.1875,-0.398438 0.30468,-0.84375 0.5625,-1.992188 l 0.67968,-3.128906 c 0.0352,-0.164062 0.0469,-0.28125 0.0469,-0.339844 0,-0.140625 -0.0703,-0.222656 -0.22266,-0.222656 -0.19922,0 -0.52734,0.1875 -1.19531,0.667969 l -0.25781,0.175781 0.0703,0.175781 0.28125,-0.1875 c 0.33984,-0.199218 0.36328,-0.222656 0.42188,-0.222656 0.0937,0 0.16406,0.09375 0.16406,0.210938 0,0.03516 -0.0234,0.152343 -0.0469,0.246093 -0.0117,0.05859 -0.0117,0.09375 -0.0117,0.105469 l -0.90234,4.441406 c -0.0937,0.46875 -0.25781,0.785157 -0.42187,0.785157 -0.12891,0 -0.28125,-0.05859 -0.46875,-0.175782 z m 2.6836,-8.800781 c -0.25781,0 -0.51563,0.304688 -0.51563,0.609375 0,0.222656 0.12891,0.363281 0.35157,0.363281 0.26953,0 0.49218,-0.257812 0.49218,-0.597656 0,-0.222656 -0.14062,-0.375 -0.32812,-0.375 z m 0,0"
         style="fill:#0000ff;fill-opacity:1;fill-rule:nonzero;stroke:none" />
    </g>
  </g>
</svg>
