<?xml version="1.0" encoding="UTF-8" standalone="no"?>
<!-- Created with Inkscape (http://www.inkscape.org/) -->

<svg
   version="1.1"
   id="svg1"
   width="338.17075"
   height="214.73686"
   viewBox="0 0 338.17074 214.73685"
   sodipodi:docname="NUMPDE.pdf"
   xmlns:inkscape="http://www.inkscape.org/namespaces/inkscape"
   xmlns:sodipodi="http://sodipodi.sourceforge.net/DTD/sodipodi-0.dtd"
   xmlns="http://www.w3.org/2000/svg"
   xmlns:svg="http://www.w3.org/2000/svg">
  <defs
     id="defs1">
    <clipPath
       clipPathUnits="userSpaceOnUse"
       id="clipPath84">
      <path
         d="m 2976.39,4970.74 h 2551 v 1625.48 h -2551 z"
         transform="translate(0,2.5000001e-4)"
         id="path84" />
    </clipPath>
    <clipPath
       clipPathUnits="userSpaceOnUse"
       id="clipPath86">
      <path
         d="m 2976.39,4970.74 h 2551 v 1625.48 h -2551 z"
         transform="translate(0,2.5000001e-4)"
         id="path86" />
    </clipPath>
    <clipPath
       clipPathUnits="userSpaceOnUse"
       id="clipPath88">
      <path
         d="m 2976.39,4970.74 h 2551 v 1625.48 h -2551 z"
         transform="translate(0,2.5000001e-4)"
         id="path88" />
    </clipPath>
    <clipPath
       clipPathUnits="userSpaceOnUse"
       id="clipPath90">
      <path
         d="m 2976.39,4970.74 h 2551 v 1625.48 h -2551 z"
         transform="translate(0,2.5000001e-4)"
         id="path90" />
    </clipPath>
    <clipPath
       clipPathUnits="userSpaceOnUse"
       id="clipPath92">
      <path
         d="m 2976.39,4970.74 h 2551 v 1625.48 h -2551 z"
         transform="translate(0,2.5000001e-4)"
         id="path92" />
    </clipPath>
    <clipPath
       clipPathUnits="userSpaceOnUse"
       id="clipPath94">
      <path
         d="m 2976.39,4970.74 h 2551 v 1625.48 h -2551 z"
         transform="translate(0,2.5000001e-4)"
         id="path94" />
    </clipPath>
    <clipPath
       clipPathUnits="userSpaceOnUse"
       id="clipPath96">
      <path
         d="m 2976.39,4970.74 h 2551 v 1625.48 h -2551 z m 1225.6,638.08 h 29.39 v 74.46 l -14.7,-58.79 -14.69,58.79 z m 29.39,411.51 h -29.39 v -74.46 l 14.69,58.79 14.7,-58.79 z"
         transform="translate(0,2.5000001e-4)"
         clip-rule="evenodd"
         id="path96" />
    </clipPath>
    <clipPath
       clipPathUnits="userSpaceOnUse"
       id="clipPath98">
      <path
         d="m 2976.39,4970.74 h 2551 v 1625.48 h -2551 z"
         transform="translate(0,2.5000001e-4)"
         id="path98" />
    </clipPath>
    <clipPath
       clipPathUnits="userSpaceOnUse"
       id="clipPath100">
      <path
         d="m 2976.39,4970.74 h 2551 v 1625.48 h -2551 z"
         transform="translate(0,2.5000001e-4)"
         id="path100" />
    </clipPath>
    <clipPath
       clipPathUnits="userSpaceOnUse"
       id="clipPath102">
      <path
         d="m 2976.39,4970.74 h 2551 v 1625.48 h -2551 z"
         transform="matrix(0.1,0,0,-0.1,-415.05501,572.63901)"
         id="path102" />
    </clipPath>
    <clipPath
       clipPathUnits="userSpaceOnUse"
       id="clipPath104">
      <path
         d="m 2976.39,4970.74 h 2551 v 1625.48 h -2551 z"
         transform="translate(0,2.5000001e-4)"
         id="path104" />
    </clipPath>
    <clipPath
       clipPathUnits="userSpaceOnUse"
       id="clipPath106">
      <path
         d="m 2976.39,4970.74 h 2551 v 1625.48 h -2551 z"
         transform="translate(0,2.5000001e-4)"
         id="path106" />
    </clipPath>
    <clipPath
       clipPathUnits="userSpaceOnUse"
       id="clipPath108">
      <path
         d="m 2976.39,4970.74 h 2551 v 1625.48 h -2551 z"
         transform="translate(0,2.5000001e-4)"
         id="path108" />
    </clipPath>
    <clipPath
       clipPathUnits="userSpaceOnUse"
       id="clipPath110">
      <path
         d="m 2976.39,4970.74 h 2551 v 1625.48 h -2551 z"
         transform="translate(0,2.5000001e-4)"
         id="path110" />
    </clipPath>
    <clipPath
       clipPathUnits="userSpaceOnUse"
       id="clipPath112">
      <path
         d="m 2976.39,4970.74 h 2551 v 1625.48 h -2551 z"
         transform="translate(0,2.5000001e-4)"
         id="path112" />
    </clipPath>
    <clipPath
       clipPathUnits="userSpaceOnUse"
       id="clipPath114">
      <path
         d="m 2976.39,4970.74 h 2551 v 1625.48 h -2551 z"
         transform="translate(0,2.5000001e-4)"
         id="path114" />
    </clipPath>
    <clipPath
       clipPathUnits="userSpaceOnUse"
       id="clipPath116">
      <path
         d="m 2976.39,4970.74 h 2551 v 1625.48 h -2551 z"
         transform="translate(0,2.5000001e-4)"
         id="path116" />
    </clipPath>
    <clipPath
       clipPathUnits="userSpaceOnUse"
       id="clipPath118">
      <path
         d="m 2976.39,4970.74 h 2551 v 1625.48 h -2551 z"
         transform="translate(0,2.5000001e-4)"
         id="path118" />
    </clipPath>
    <clipPath
       clipPathUnits="userSpaceOnUse"
       id="clipPath120">
      <path
         d="m 2976.39,4970.74 h 2551 v 1625.48 h -2551 z"
         transform="translate(0,2.5000001e-4)"
         id="path120" />
    </clipPath>
    <clipPath
       clipPathUnits="userSpaceOnUse"
       id="clipPath122">
      <path
         d="m 2976.39,4970.74 h 2551 v 1625.48 h -2551 z"
         transform="translate(0,2.5000001e-4)"
         id="path122" />
    </clipPath>
    <clipPath
       clipPathUnits="userSpaceOnUse"
       id="clipPath124">
      <path
         d="m 2976.39,4970.74 h 2551 v 1625.48 h -2551 z"
         transform="translate(0,2.5000001e-4)"
         id="path124" />
    </clipPath>
    <clipPath
       clipPathUnits="userSpaceOnUse"
       id="clipPath126">
      <path
         d="m 2976.39,4970.74 h 2551 v 1625.48 h -2551 z"
         transform="translate(0,2.5000001e-4)"
         id="path126" />
    </clipPath>
    <clipPath
       clipPathUnits="userSpaceOnUse"
       id="clipPath128">
      <path
         d="m 2976.39,4970.74 h 2551 v 1625.48 h -2551 z"
         transform="translate(0,2.5000001e-4)"
         id="path128" />
    </clipPath>
    <clipPath
       clipPathUnits="userSpaceOnUse"
       id="clipPath130">
      <path
         d="m 2976.39,4970.74 h 2551 v 1625.48 h -2551 z"
         transform="translate(0,2.5000001e-4)"
         id="path130" />
    </clipPath>
    <clipPath
       clipPathUnits="userSpaceOnUse"
       id="clipPath132">
      <path
         d="m 2976.39,4970.74 h 2551 v 1625.48 h -2551 z"
         transform="translate(0,2.5000001e-4)"
         id="path132" />
    </clipPath>
    <clipPath
       clipPathUnits="userSpaceOnUse"
       id="clipPath134">
      <path
         d="m 2976.39,4970.74 h 2551 v 1625.48 h -2551 z"
         transform="translate(0,2.5000001e-4)"
         id="path134" />
    </clipPath>
    <clipPath
       clipPathUnits="userSpaceOnUse"
       id="clipPath136">
      <path
         d="m 2976.39,4970.74 h 2551 v 1625.48 h -2551 z"
         transform="translate(0,2.5000001e-4)"
         id="path136" />
    </clipPath>
    <clipPath
       clipPathUnits="userSpaceOnUse"
       id="clipPath138">
      <path
         d="m 2976.39,4970.74 h 2551 v 1625.48 h -2551 z"
         transform="translate(0,2.5000001e-4)"
         id="path138" />
    </clipPath>
    <clipPath
       clipPathUnits="userSpaceOnUse"
       id="clipPath140">
      <path
         d="m 2976.39,4970.74 h 2551 v 1625.48 h -2551 z"
         transform="translate(0,2.5000001e-4)"
         id="path140" />
    </clipPath>
    <clipPath
       clipPathUnits="userSpaceOnUse"
       id="clipPath142">
      <path
         d="m 2976.39,4970.74 h 2551 v 1625.48 h -2551 z"
         transform="translate(0,2.5000001e-4)"
         id="path142" />
    </clipPath>
    <clipPath
       clipPathUnits="userSpaceOnUse"
       id="clipPath144">
      <path
         d="m 2976.39,4970.74 h 2551 v 1625.48 h -2551 z"
         transform="translate(0,2.5000001e-4)"
         id="path144" />
    </clipPath>
    <clipPath
       clipPathUnits="userSpaceOnUse"
       id="clipPath146">
      <path
         d="m 2976.39,4970.74 h 2551 v 1625.48 h -2551 z"
         transform="translate(0,2.5000001e-4)"
         id="path146" />
    </clipPath>
    <clipPath
       clipPathUnits="userSpaceOnUse"
       id="clipPath148">
      <path
         d="m 2976.39,4970.74 h 2551 v 1625.48 h -2551 z"
         transform="translate(0,2.5000001e-4)"
         id="path148" />
    </clipPath>
  </defs>
  <sodipodi:namedview
     id="namedview1"
     pagecolor="#505050"
     bordercolor="#eeeeee"
     borderopacity="1"
     inkscape:showpageshadow="0"
     inkscape:pageopacity="0"
     inkscape:pagecheckerboard="0"
     inkscape:deskcolor="#505050" />
  <g
     id="g1"
     inkscape:groupmode="layer"
     inkscape:label="154"
     transform="translate(-397.49893,-244.43881)">
    <path
       id="path83"
       d="M 4216.68,6035.03 3268.73,5219.34"
       style="fill:none;stroke:#b2dfbc;stroke-width:7.34851;stroke-linecap:butt;stroke-linejoin:miter;stroke-miterlimit:10;stroke-dasharray:none;stroke-opacity:1"
       transform="matrix(0.13333333,0,0,-0.13333333,0,1122.6667)"
       clip-path="url(#clipPath84)"
       inkscape:export-filename="README.assets\tent_function_2d.svg"
       inkscape:export-xdpi="96"
       inkscape:export-ydpi="96" />
    <path
       id="path85"
       d="m 4194.64,6035.03 -859.78,-22.05"
       style="fill:none;stroke:#b2dfbc;stroke-width:7.34851;stroke-linecap:butt;stroke-linejoin:miter;stroke-miterlimit:10;stroke-dasharray:none;stroke-opacity:1"
       transform="matrix(0.13333333,0,0,-0.13333333,0,1122.6667)"
       clip-path="url(#clipPath86)" />
    <path
       id="path87"
       d="m 4216.68,6035.03 -198.41,418.86"
       style="fill:none;stroke:#b2dfbc;stroke-width:7.34851;stroke-linecap:butt;stroke-linejoin:miter;stroke-miterlimit:10;stroke-dasharray:none;stroke-opacity:1"
       transform="matrix(0.13333333,0,0,-0.13333333,0,1122.6667)"
       clip-path="url(#clipPath88)" />
    <path
       id="path89"
       d="m 4216.68,6035.03 132.28,-947.96"
       style="fill:none;stroke:#b2dfbc;stroke-width:7.34851;stroke-linecap:butt;stroke-linejoin:miter;stroke-miterlimit:10;stroke-dasharray:none;stroke-opacity:1"
       transform="matrix(0.13333333,0,0,-0.13333333,0,1122.6667)"
       clip-path="url(#clipPath90)" />
    <path
       id="path91"
       d="M 4216.68,6012.98 5341.01,5505.94"
       style="fill:#b2dfbc;stroke:#b2dfbc;stroke-width:7.34851;stroke-linecap:butt;stroke-linejoin:miter;stroke-miterlimit:10;stroke-dasharray:none;stroke-opacity:1"
       transform="matrix(0.13333333,0,0,-0.13333333,0,1122.6667)"
       clip-path="url(#clipPath92)" />
    <path
       id="path93"
       d="m 4216.68,6035.03 617.28,242.5"
       style="fill:none;stroke:#b2dfbc;stroke-width:7.34851;stroke-linecap:butt;stroke-linejoin:miter;stroke-miterlimit:10;stroke-dasharray:none;stroke-opacity:1"
       transform="matrix(0.13333333,0,0,-0.13333333,0,1122.6667)"
       clip-path="url(#clipPath94)" />
    <path
       id="path95"
       d="M 4216.68,6012.98 V 5658.7085 5616.16"
       style="fill:#5a9cfe;stroke:#5a9cfe;stroke-width:3.67426;stroke-linecap:butt;stroke-linejoin:miter;stroke-miterlimit:10;stroke-dasharray:none;stroke-opacity:1"
       transform="matrix(0.13333333,0,0,-0.13333333,0,1122.6667)"
       clip-path="url(#clipPath96)"
       sodipodi:nodetypes="ccc" />
    <path
       id="path97"
       d="m 4231.38,5945.87 -14.7,58.79 -14.69,-58.79"
       style="fill:none;stroke:#81b4fe;stroke-width:3.67426;stroke-linecap:butt;stroke-linejoin:miter;stroke-miterlimit:10;stroke-dasharray:none;stroke-opacity:1"
       transform="matrix(0.13333333,0,0,-0.13333333,0,1122.6667)"
       clip-path="url(#clipPath98)" />
    <path
       id="path99"
       d="m 4201.99,5683.28 14.69,-58.79 14.7,58.79"
       style="fill:none;stroke:#81b4fe;stroke-width:3.67426;stroke-linecap:butt;stroke-linejoin:miter;stroke-miterlimit:10;stroke-dasharray:none;stroke-opacity:1"
       transform="matrix(0.13333333,0,0,-0.13333333,0,1122.6667)"
       clip-path="url(#clipPath100)" />
    <path
       id="path101"
       d="M 1.7340625,3.28125e-4 H 5.78875 V -0.22232812 c -1.125,0 -1.3828125,-0.1640625 -1.3945312,-0.86718748 v -8.8125 l -0.1171875,-0.035156 -2.6484375,1.3359375 v 0.2109375 c 0.5742187,-0.2226562 0.9257812,-0.328125 1.0546875,-0.328125 0.3164062,0 0.4453125,0.2226563 0.4453125,0.6914063 v 6.65625 c -0.023437,0.92578123 -0.28125,1.13671873 -1.3945313,1.14843748 z m 0,0"
       style="fill:#5a9cfe;fill-opacity:1;fill-rule:nonzero;stroke:none"
       aria-label="1"
       transform="matrix(1.3333333,0,0,1.3333333,553.40667,359.148)"
       clip-path="url(#clipPath102)" />
    <path
       id="path103"
       d="m 4216.68,5616.16 -881.82,409.56 -66.13,-819.11 1102.27,-114.64 970.01,416.42 -507.05,761.79 -815.69,172.45 -683.41,-416.91"
       style="fill:none;stroke:#000000;stroke-width:3.67426;stroke-linecap:butt;stroke-linejoin:miter;stroke-miterlimit:10;stroke-dasharray:none;stroke-opacity:1"
       transform="matrix(0.13333333,0,0,-0.13333333,0,1122.6667)"
       clip-path="url(#clipPath104)" />
    <path
       id="path105"
       d="m 4216.68,5616.16 -198.41,826.47"
       style="fill:none;stroke:#000000;stroke-width:3.67426;stroke-linecap:butt;stroke-linejoin:miter;stroke-miterlimit:10;stroke-dasharray:none;stroke-opacity:1"
       transform="matrix(0.13333333,0,0,-0.13333333,0,1122.6667)"
       clip-path="url(#clipPath106)" />
    <path
       id="path107"
       d="m 4216.68,5616.16 617.28,654.02"
       style="fill:none;stroke:#000000;stroke-width:3.67426;stroke-linecap:butt;stroke-linejoin:miter;stroke-miterlimit:10;stroke-dasharray:none;stroke-opacity:1"
       transform="matrix(0.13333333,0,0,-0.13333333,0,1122.6667)"
       clip-path="url(#clipPath108)" />
    <path
       id="path109"
       d="M 4216.68,5616.16 5341.01,5508.39"
       style="fill:none;stroke:#000000;stroke-width:3.67426;stroke-linecap:butt;stroke-linejoin:miter;stroke-miterlimit:10;stroke-dasharray:none;stroke-opacity:1"
       transform="matrix(0.13333333,0,0,-0.13333333,0,1122.6667)"
       clip-path="url(#clipPath110)" />
    <path
       id="path111"
       d="m 4216.68,5616.16 132.28,-524.19"
       style="fill:none;stroke:#000000;stroke-width:3.67426;stroke-linecap:butt;stroke-linejoin:miter;stroke-miterlimit:10;stroke-dasharray:none;stroke-opacity:1"
       transform="matrix(0.13333333,0,0,-0.13333333,0,1122.6667)"
       clip-path="url(#clipPath112)" />
    <path
       id="path113"
       d="M 4216.68,5616.16 3268.73,5206.61"
       style="fill:none;stroke:#000000;stroke-width:3.67426;stroke-linecap:butt;stroke-linejoin:miter;stroke-miterlimit:10;stroke-dasharray:none;stroke-opacity:1"
       transform="matrix(0.13333333,0,0,-0.13333333,0,1122.6667)"
       clip-path="url(#clipPath114)" />
    <path
       id="path115"
       d="m 3334.86,6025.72 -22.04,229.76"
       style="fill:none;stroke:#000000;stroke-width:3.67426;stroke-linecap:butt;stroke-linejoin:miter;stroke-miterlimit:10;stroke-dasharray:none;stroke-opacity:1"
       transform="matrix(0.13333333,0,0,-0.13333333,0,1122.6667)"
       clip-path="url(#clipPath116)" />
    <path
       id="path117"
       d="m 3334.86,6011.52 -352.73,-28.91"
       style="fill:none;stroke:#000000;stroke-width:3.67426;stroke-linecap:butt;stroke-linejoin:miter;stroke-miterlimit:10;stroke-dasharray:none;stroke-opacity:1"
       transform="matrix(0.13333333,0,0,-0.13333333,0,1122.6667)"
       clip-path="url(#clipPath118)" />
    <path
       id="path119"
       d="m 4018.27,6442.63 -374.77,28.41"
       style="fill:none;stroke:#000000;stroke-width:3.67426;stroke-linecap:butt;stroke-linejoin:miter;stroke-miterlimit:10;stroke-dasharray:none;stroke-opacity:1"
       transform="matrix(0.13333333,0,0,-0.13333333,0,1122.6667)"
       clip-path="url(#clipPath120)" />
    <path
       id="path121"
       d="m 4018.27,6442.63 -44.09,143.54"
       style="fill:none;stroke:#000000;stroke-width:3.67426;stroke-linecap:butt;stroke-linejoin:miter;stroke-miterlimit:10;stroke-dasharray:none;stroke-opacity:1"
       transform="matrix(0.13333333,0,0,-0.13333333,0,1122.6667)"
       clip-path="url(#clipPath122)" />
    <path
       id="path123"
       d="m 4018.27,6442.63 286.6,71.52"
       style="fill:none;stroke:#000000;stroke-width:3.67426;stroke-linecap:butt;stroke-linejoin:miter;stroke-miterlimit:10;stroke-dasharray:none;stroke-opacity:1"
       transform="matrix(0.13333333,0,0,-0.13333333,0,1122.6667)"
       clip-path="url(#clipPath124)" />
    <path
       id="path125"
       d="m 4833.96,6270.18 -154.32,172.45"
       style="fill:none;stroke:#000000;stroke-width:3.67426;stroke-linecap:butt;stroke-linejoin:miter;stroke-miterlimit:10;stroke-dasharray:none;stroke-opacity:1"
       transform="matrix(0.13333333,0,0,-0.13333333,0,1122.6667)"
       clip-path="url(#clipPath126)" />
    <path
       id="path127"
       d="m 4833.96,6270.18 154.32,114.64"
       style="fill:none;stroke:#000000;stroke-width:3.67426;stroke-linecap:butt;stroke-linejoin:miter;stroke-miterlimit:10;stroke-dasharray:none;stroke-opacity:1"
       transform="matrix(0.13333333,0,0,-0.13333333,0,1122.6667)"
       clip-path="url(#clipPath128)" />
    <path
       id="path129"
       d="m 4833.96,6270.18 242.5,-28.9"
       style="fill:none;stroke:#000000;stroke-width:3.67426;stroke-linecap:butt;stroke-linejoin:miter;stroke-miterlimit:10;stroke-dasharray:none;stroke-opacity:1"
       transform="matrix(0.13333333,0,0,-0.13333333,0,1122.6667)"
       clip-path="url(#clipPath130)" />
    <path
       id="path131"
       d="m 5341.01,5523.09 66.13,143.54"
       style="fill:none;stroke:#000000;stroke-width:3.67426;stroke-linecap:butt;stroke-linejoin:miter;stroke-miterlimit:10;stroke-dasharray:none;stroke-opacity:1"
       transform="matrix(0.13333333,0,0,-0.13333333,0,1122.6667)"
       clip-path="url(#clipPath132)" />
    <path
       id="path133"
       d="m 5341.01,5508.39 176.36,14.7"
       style="fill:none;stroke:#000000;stroke-width:3.67426;stroke-linecap:butt;stroke-linejoin:miter;stroke-miterlimit:10;stroke-dasharray:none;stroke-opacity:1"
       transform="matrix(0.13333333,0,0,-0.13333333,0,1122.6667)"
       clip-path="url(#clipPath134)" />
    <path
       id="path135"
       d="m 5341.01,5508.39 88.18,-143.54"
       style="fill:none;stroke:#000000;stroke-width:3.67426;stroke-linecap:butt;stroke-linejoin:miter;stroke-miterlimit:10;stroke-dasharray:none;stroke-opacity:1"
       transform="matrix(0.13333333,0,0,-0.13333333,0,1122.6667)"
       clip-path="url(#clipPath136)" />
    <path
       id="path137"
       d="m 4348.96,5091.97 264.54,-57.81"
       style="fill:none;stroke:#000000;stroke-width:3.67426;stroke-linecap:butt;stroke-linejoin:miter;stroke-miterlimit:10;stroke-dasharray:none;stroke-opacity:1"
       transform="matrix(0.13333333,0,0,-0.13333333,0,1122.6667)"
       clip-path="url(#clipPath138)" />
    <path
       id="path139"
       d="m 4348.96,5091.97 44.09,-115.13"
       style="fill:none;stroke:#000000;stroke-width:3.67426;stroke-linecap:butt;stroke-linejoin:miter;stroke-miterlimit:10;stroke-dasharray:none;stroke-opacity:1"
       transform="matrix(0.13333333,0,0,-0.13333333,0,1122.6667)"
       clip-path="url(#clipPath140)" />
    <path
       id="path141"
       d="m 4348.96,5091.97 -176.37,-86.22"
       style="fill:none;stroke:#000000;stroke-width:3.67426;stroke-linecap:butt;stroke-linejoin:miter;stroke-miterlimit:10;stroke-dasharray:none;stroke-opacity:1"
       transform="matrix(0.13333333,0,0,-0.13333333,0,1122.6667)"
       clip-path="url(#clipPath142)" />
    <path
       id="path143"
       d="m 3268.73,5206.61 66.13,-129.34"
       style="fill:none;stroke:#000000;stroke-width:3.67426;stroke-linecap:butt;stroke-linejoin:miter;stroke-miterlimit:10;stroke-dasharray:none;stroke-opacity:1"
       transform="matrix(0.13333333,0,0,-0.13333333,0,1122.6667)"
       clip-path="url(#clipPath144)" />
    <path
       id="path145"
       d="M 3268.73,5206.61 3092.36,5163.5"
       style="fill:none;stroke:#000000;stroke-width:3.67426;stroke-linecap:butt;stroke-linejoin:miter;stroke-miterlimit:10;stroke-dasharray:none;stroke-opacity:1"
       transform="matrix(0.13333333,0,0,-0.13333333,0,1122.6667)"
       clip-path="url(#clipPath146)" />
    <path
       id="path147"
       d="m 3268.73,5206.61 -286.6,158.24"
       style="fill:none;stroke:#000000;stroke-width:3.67426;stroke-linecap:butt;stroke-linejoin:miter;stroke-miterlimit:10;stroke-dasharray:none;stroke-opacity:1"
       transform="matrix(0.13333333,0,0,-0.13333333,0,1122.6667)"
       clip-path="url(#clipPath148)" />
  </g>
</svg>
