<?xml version="1.0" encoding="utf-8" standalone="no"?>
<!DOCTYPE svg PUBLIC "-//W3C//DTD SVG 1.1//EN"
  "http://www.w3.org/Graphics/SVG/1.1/DTD/svg11.dtd">
<svg height="432pt" version="1.1" viewBox="0 0 576 432" width="576pt" xmlns="http://www.w3.org/2000/svg" xmlns:xlink="http://www.w3.org/1999/xlink">
 <metadata>
  <rdf:RDF xmlns:cc="http://creativecommons.org/ns#" xmlns:dc="http://purl.org/dc/elements/1.1/" xmlns:rdf="http://www.w3.org/1999/02/22-rdf-syntax-ns#">
   <cc:Work>
    <dc:type rdf:resource="http://purl.org/dc/dcmitype/StillImage"/>
    <dc:date>2023-08-11T00:41:18.951434</dc:date>
    <dc:format>image/svg+xml</dc:format>
    <dc:creator>
     <cc:Agent>
      <dc:title>Matplotlib v3.4.2, https://matplotlib.org/</dc:title>
     </cc:Agent>
    </dc:creator>
   </cc:Work>
  </rdf:RDF>
 </metadata>
 <defs>
  <style type="text/css">*{stroke-linecap:butt;stroke-linejoin:round;}</style>
 </defs>
 <g id="figure_1">
  <g id="patch_1">
   <path d="M 0 432 
L 576 432 
L 576 0 
L 0 0 
z
" style="fill:none;opacity:0;"/>
  </g>
  <g id="axes_1">
   <g id="patch_2">
    <path d="M 72 384.48 
L 518.4 384.48 
L 518.4 51.84 
L 72 51.84 
z
" style="fill:none;"/>
   </g>
   <g id="PolyCollection_1">
    <defs>
     <path d="M 92.290909 -118.8 
L 92.290909 -118.8 
L 93.307997 -118.8 
L 94.325085 -118.8 
L 95.342174 -118.8 
L 96.359262 -118.8 
L 97.37635 -118.8 
L 98.393438 -118.8 
L 99.410526 -118.8 
L 100.427614 -118.8 
L 101.444703 -118.8 
L 102.461791 -118.8 
L 103.478879 -118.8 
L 104.495967 -118.8 
L 105.513055 -118.8 
L 106.530144 -118.8 
L 107.547232 -118.8 
L 108.56432 -118.8 
L 109.581408 -118.8 
L 110.598496 -118.8 
L 111.615584 -118.8 
L 112.632673 -118.8 
L 113.649761 -118.8 
L 114.666849 -118.8 
L 115.683937 -118.8 
L 116.701025 -118.8 
L 117.718113 -118.8 
L 118.735202 -118.8 
L 119.75229 -118.8 
L 120.769378 -118.8 
L 121.786466 -118.8 
L 122.803554 -118.8 
L 123.820643 -118.8 
L 124.837731 -118.8 
L 125.854819 -118.8 
L 126.871907 -118.8 
L 127.888995 -118.8 
L 128.906083 -118.8 
L 129.923172 -118.8 
L 130.94026 -118.8 
L 131.957348 -118.8 
L 132.974436 -118.8 
L 133.991524 -118.8 
L 135.008612 -118.8 
L 136.025701 -118.8 
L 137.042789 -118.8 
L 138.059877 -118.8 
L 139.076965 -118.8 
L 140.094053 -118.8 
L 141.111141 -118.8 
L 142.12823 -118.8 
L 143.145318 -118.8 
L 144.162406 -118.8 
L 145.179494 -118.8 
L 146.196582 -118.8 
L 147.213671 -118.8 
L 148.230759 -118.8 
L 149.247847 -118.8 
L 150.264935 -118.8 
L 151.282023 -118.8 
L 152.299111 -118.8 
L 153.3162 -118.8 
L 154.333288 -118.8 
L 155.350376 -118.8 
L 156.367464 -118.8 
L 157.384552 -118.8 
L 158.40164 -118.8 
L 159.418729 -118.8 
L 160.435817 -119.693233 
L 161.452905 -121.479699 
L 162.469993 -123.266165 
L 163.487081 -125.052632 
L 164.50417 -126.839098 
L 165.521258 -128.625564 
L 166.538346 -130.41203 
L 167.555434 -132.198496 
L 168.572522 -133.984962 
L 169.58961 -135.771429 
L 170.606699 -137.557895 
L 171.623787 -139.344361 
L 172.640875 -141.130827 
L 173.657963 -142.917293 
L 174.675051 -144.703759 
L 175.692139 -146.490226 
L 176.709228 -148.276692 
L 177.726316 -150.063158 
L 178.743404 -151.849624 
L 179.760492 -153.63609 
L 180.77758 -155.422556 
L 181.794668 -157.209023 
L 182.811757 -158.995489 
L 183.828845 -160.781955 
L 184.845933 -162.568421 
L 185.863021 -164.354887 
L 186.880109 -166.141353 
L 187.897198 -167.92782 
L 188.914286 -169.714286 
L 189.931374 -171.500752 
L 190.948462 -173.287218 
L 191.96555 -175.073684 
L 192.982638 -176.86015 
L 193.999727 -178.646617 
L 195.016815 -180.433083 
L 196.033903 -182.219549 
L 197.050991 -184.006015 
L 198.068079 -185.792481 
L 199.085167 -187.578947 
L 200.102256 -189.365414 
L 201.119344 -191.15188 
L 202.136432 -192.938346 
L 203.15352 -194.724812 
L 204.170608 -196.511278 
L 205.187697 -198.297744 
L 206.204785 -200.084211 
L 207.221873 -201.870677 
L 208.238961 -203.657143 
L 209.256049 -205.443609 
L 210.273137 -207.230075 
L 211.290226 -209.016541 
L 212.307314 -210.803008 
L 213.324402 -212.589474 
L 214.34149 -214.37594 
L 215.358578 -216.162406 
L 216.375666 -217.948872 
L 217.392755 -219.735338 
L 218.409843 -221.521805 
L 219.426931 -223.308271 
L 220.444019 -225.094737 
L 221.461107 -226.881203 
L 222.478195 -228.667669 
L 223.495284 -230.454135 
L 224.512372 -232.240602 
L 225.52946 -234.027068 
L 226.546548 -235.813534 
L 227.563636 -237.6 
L 228.580725 -239.386466 
L 229.597813 -241.172932 
L 230.614901 -242.959398 
L 231.631989 -244.745865 
L 232.649077 -246.532331 
L 233.666165 -248.318797 
L 234.683254 -250.105263 
L 235.700342 -251.891729 
L 236.71743 -253.678195 
L 237.734518 -255.464662 
L 238.751606 -257.251128 
L 239.768694 -259.037594 
L 240.785783 -260.82406 
L 241.802871 -262.610526 
L 242.819959 -264.396992 
L 243.837047 -266.183459 
L 244.854135 -267.969925 
L 245.871224 -269.756391 
L 246.888312 -271.542857 
L 247.9054 -273.329323 
L 248.922488 -275.115789 
L 249.939576 -276.902256 
L 250.956664 -278.688722 
L 251.973753 -280.475188 
L 252.990841 -282.261654 
L 254.007929 -284.04812 
L 255.025017 -285.834586 
L 256.042105 -287.621053 
L 257.059193 -289.407519 
L 258.076282 -291.193985 
L 259.09337 -292.980451 
L 260.110458 -294.766917 
L 261.127546 -296.553383 
L 262.144634 -298.33985 
L 263.161722 -300.126316 
L 264.178811 -301.912782 
L 265.195899 -303.699248 
L 266.212987 -305.485714 
L 267.230075 -307.27218 
L 268.247163 -309.058647 
L 269.264252 -310.845113 
L 270.28134 -312.631579 
L 271.298428 -314.418045 
L 272.315516 -316.204511 
L 273.332604 -317.990977 
L 274.349692 -319.777444 
L 275.366781 -321.56391 
L 276.383869 -323.350376 
L 277.400957 -325.136842 
L 278.418045 -326.923308 
L 279.435133 -328.709774 
L 280.452221 -330.496241 
L 281.46931 -332.282707 
L 282.486398 -334.069173 
L 283.503486 -335.855639 
L 284.520574 -337.642105 
L 285.537662 -339.428571 
L 286.554751 -341.215038 
L 287.571839 -343.001504 
L 288.588927 -344.78797 
L 289.606015 -346.574436 
L 290.623103 -348.360902 
L 291.640191 -350.147368 
L 292.65728 -351.933835 
L 293.674368 -353.720301 
L 294.691456 -355.506767 
L 295.708544 -355.506767 
L 296.725632 -353.720301 
L 297.74272 -351.933835 
L 298.759809 -350.147368 
L 299.776897 -348.360902 
L 300.793985 -346.574436 
L 301.811073 -344.78797 
L 302.828161 -343.001504 
L 303.845249 -341.215038 
L 304.862338 -339.428571 
L 305.879426 -337.642105 
L 306.896514 -335.855639 
L 307.913602 -334.069173 
L 308.93069 -332.282707 
L 309.947779 -330.496241 
L 310.964867 -328.709774 
L 311.981955 -326.923308 
L 312.999043 -325.136842 
L 314.016131 -323.350376 
L 315.033219 -321.56391 
L 316.050308 -319.777444 
L 317.067396 -317.990977 
L 318.084484 -316.204511 
L 319.101572 -314.418045 
L 320.11866 -312.631579 
L 321.135748 -310.845113 
L 322.152837 -309.058647 
L 323.169925 -307.27218 
L 324.187013 -305.485714 
L 325.204101 -303.699248 
L 326.221189 -301.912782 
L 327.238278 -300.126316 
L 328.255366 -298.33985 
L 329.272454 -296.553383 
L 330.289542 -294.766917 
L 331.30663 -292.980451 
L 332.323718 -291.193985 
L 333.340807 -289.407519 
L 334.357895 -287.621053 
L 335.374983 -285.834586 
L 336.392071 -284.04812 
L 337.409159 -282.261654 
L 338.426247 -280.475188 
L 339.443336 -278.688722 
L 340.460424 -276.902256 
L 341.477512 -275.115789 
L 342.4946 -273.329323 
L 343.511688 -271.542857 
L 344.528776 -269.756391 
L 345.545865 -267.969925 
L 346.562953 -266.183459 
L 347.580041 -264.396992 
L 348.597129 -262.610526 
L 349.614217 -260.82406 
L 350.631306 -259.037594 
L 351.648394 -257.251128 
L 352.665482 -255.464662 
L 353.68257 -253.678195 
L 354.699658 -251.891729 
L 355.716746 -250.105263 
L 356.733835 -248.318797 
L 357.750923 -246.532331 
L 358.768011 -244.745865 
L 359.785099 -242.959398 
L 360.802187 -241.172932 
L 361.819275 -239.386466 
L 362.836364 -237.6 
L 363.853452 -235.813534 
L 364.87054 -234.027068 
L 365.887628 -232.240602 
L 366.904716 -230.454135 
L 367.921805 -228.667669 
L 368.938893 -226.881203 
L 369.955981 -225.094737 
L 370.973069 -223.308271 
L 371.990157 -221.521805 
L 373.007245 -219.735338 
L 374.024334 -217.948872 
L 375.041422 -216.162406 
L 376.05851 -214.37594 
L 377.075598 -212.589474 
L 378.092686 -210.803008 
L 379.109774 -209.016541 
L 380.126863 -207.230075 
L 381.143951 -205.443609 
L 382.161039 -203.657143 
L 383.178127 -201.870677 
L 384.195215 -200.084211 
L 385.212303 -198.297744 
L 386.229392 -196.511278 
L 387.24648 -194.724812 
L 388.263568 -192.938346 
L 389.280656 -191.15188 
L 390.297744 -189.365414 
L 391.314833 -187.578947 
L 392.331921 -185.792481 
L 393.349009 -184.006015 
L 394.366097 -182.219549 
L 395.383185 -180.433083 
L 396.400273 -178.646617 
L 397.417362 -176.86015 
L 398.43445 -175.073684 
L 399.451538 -173.287218 
L 400.468626 -171.500752 
L 401.485714 -169.714286 
L 402.502802 -167.92782 
L 403.519891 -166.141353 
L 404.536979 -164.354887 
L 405.554067 -162.568421 
L 406.571155 -160.781955 
L 407.588243 -158.995489 
L 408.605332 -157.209023 
L 409.62242 -155.422556 
L 410.639508 -153.63609 
L 411.656596 -151.849624 
L 412.673684 -150.063158 
L 413.690772 -148.276692 
L 414.707861 -146.490226 
L 415.724949 -144.703759 
L 416.742037 -142.917293 
L 417.759125 -141.130827 
L 418.776213 -139.344361 
L 419.793301 -137.557895 
L 420.81039 -135.771429 
L 421.827478 -133.984962 
L 422.844566 -132.198496 
L 423.861654 -130.41203 
L 424.878742 -128.625564 
L 425.89583 -126.839098 
L 426.912919 -125.052632 
L 427.930007 -123.266165 
L 428.947095 -121.479699 
L 429.964183 -119.693233 
L 430.981271 -118.8 
L 431.99836 -118.8 
L 433.015448 -118.8 
L 434.032536 -118.8 
L 435.049624 -118.8 
L 436.066712 -118.8 
L 437.0838 -118.8 
L 438.100889 -118.8 
L 439.117977 -118.8 
L 440.135065 -118.8 
L 441.152153 -118.8 
L 442.169241 -118.8 
L 443.186329 -118.8 
L 444.203418 -118.8 
L 445.220506 -118.8 
L 446.237594 -118.8 
L 447.254682 -118.8 
L 448.27177 -118.8 
L 449.288859 -118.8 
L 450.305947 -118.8 
L 451.323035 -118.8 
L 452.340123 -118.8 
L 453.357211 -118.8 
L 454.374299 -118.8 
L 455.391388 -118.8 
L 456.408476 -118.8 
L 457.425564 -118.8 
L 458.442652 -118.8 
L 459.45974 -118.8 
L 460.476828 -118.8 
L 461.493917 -118.8 
L 462.511005 -118.8 
L 463.528093 -118.8 
L 464.545181 -118.8 
L 465.562269 -118.8 
L 466.579357 -118.8 
L 467.596446 -118.8 
L 468.613534 -118.8 
L 469.630622 -118.8 
L 470.64771 -118.8 
L 471.664798 -118.8 
L 472.681887 -118.8 
L 473.698975 -118.8 
L 474.716063 -118.8 
L 475.733151 -118.8 
L 476.750239 -118.8 
L 477.767327 -118.8 
L 478.784416 -118.8 
L 479.801504 -118.8 
L 480.818592 -118.8 
L 481.83568 -118.8 
L 482.852768 -118.8 
L 483.869856 -118.8 
L 484.886945 -118.8 
L 485.904033 -118.8 
L 486.921121 -118.8 
L 487.938209 -118.8 
L 488.955297 -118.8 
L 489.972386 -118.8 
L 490.989474 -118.8 
L 492.006562 -118.8 
L 493.02365 -118.8 
L 494.040738 -118.8 
L 495.057826 -118.8 
L 496.074915 -118.8 
L 497.092003 -118.8 
L 498.109091 -118.8 
L 498.109091 -118.8 
L 498.109091 -118.8 
L 497.092003 -118.8 
L 496.074915 -118.8 
L 495.057826 -118.8 
L 494.040738 -118.8 
L 493.02365 -118.8 
L 492.006562 -118.8 
L 490.989474 -118.8 
L 489.972386 -118.8 
L 488.955297 -118.8 
L 487.938209 -118.8 
L 486.921121 -118.8 
L 485.904033 -118.8 
L 484.886945 -118.8 
L 483.869856 -118.8 
L 482.852768 -118.8 
L 481.83568 -118.8 
L 480.818592 -118.8 
L 479.801504 -118.8 
L 478.784416 -118.8 
L 477.767327 -118.8 
L 476.750239 -118.8 
L 475.733151 -118.8 
L 474.716063 -118.8 
L 473.698975 -118.8 
L 472.681887 -118.8 
L 471.664798 -118.8 
L 470.64771 -118.8 
L 469.630622 -118.8 
L 468.613534 -118.8 
L 467.596446 -118.8 
L 466.579357 -118.8 
L 465.562269 -118.8 
L 464.545181 -118.8 
L 463.528093 -118.8 
L 462.511005 -118.8 
L 461.493917 -118.8 
L 460.476828 -118.8 
L 459.45974 -118.8 
L 458.442652 -118.8 
L 457.425564 -118.8 
L 456.408476 -118.8 
L 455.391388 -118.8 
L 454.374299 -118.8 
L 453.357211 -118.8 
L 452.340123 -118.8 
L 451.323035 -118.8 
L 450.305947 -118.8 
L 449.288859 -118.8 
L 448.27177 -118.8 
L 447.254682 -118.8 
L 446.237594 -118.8 
L 445.220506 -118.8 
L 444.203418 -118.8 
L 443.186329 -118.8 
L 442.169241 -118.8 
L 441.152153 -118.8 
L 440.135065 -118.8 
L 439.117977 -118.8 
L 438.100889 -118.8 
L 437.0838 -118.8 
L 436.066712 -118.8 
L 435.049624 -118.8 
L 434.032536 -118.8 
L 433.015448 -118.8 
L 431.99836 -118.8 
L 430.981271 -118.8 
L 429.964183 -118.8 
L 428.947095 -118.8 
L 427.930007 -118.8 
L 426.912919 -118.8 
L 425.89583 -118.8 
L 424.878742 -118.8 
L 423.861654 -118.8 
L 422.844566 -118.8 
L 421.827478 -118.8 
L 420.81039 -118.8 
L 419.793301 -118.8 
L 418.776213 -118.8 
L 417.759125 -118.8 
L 416.742037 -118.8 
L 415.724949 -118.8 
L 414.707861 -118.8 
L 413.690772 -118.8 
L 412.673684 -118.8 
L 411.656596 -118.8 
L 410.639508 -118.8 
L 409.62242 -118.8 
L 408.605332 -118.8 
L 407.588243 -118.8 
L 406.571155 -118.8 
L 405.554067 -118.8 
L 404.536979 -118.8 
L 403.519891 -118.8 
L 402.502802 -118.8 
L 401.485714 -118.8 
L 400.468626 -118.8 
L 399.451538 -118.8 
L 398.43445 -118.8 
L 397.417362 -118.8 
L 396.400273 -118.8 
L 395.383185 -118.8 
L 394.366097 -118.8 
L 393.349009 -118.8 
L 392.331921 -118.8 
L 391.314833 -118.8 
L 390.297744 -118.8 
L 389.280656 -118.8 
L 388.263568 -118.8 
L 387.24648 -118.8 
L 386.229392 -118.8 
L 385.212303 -118.8 
L 384.195215 -118.8 
L 383.178127 -118.8 
L 382.161039 -118.8 
L 381.143951 -118.8 
L 380.126863 -118.8 
L 379.109774 -118.8 
L 378.092686 -118.8 
L 377.075598 -118.8 
L 376.05851 -118.8 
L 375.041422 -118.8 
L 374.024334 -118.8 
L 373.007245 -118.8 
L 371.990157 -118.8 
L 370.973069 -118.8 
L 369.955981 -118.8 
L 368.938893 -118.8 
L 367.921805 -118.8 
L 366.904716 -118.8 
L 365.887628 -118.8 
L 364.87054 -118.8 
L 363.853452 -118.8 
L 362.836364 -118.8 
L 361.819275 -118.8 
L 360.802187 -118.8 
L 359.785099 -118.8 
L 358.768011 -118.8 
L 357.750923 -118.8 
L 356.733835 -118.8 
L 355.716746 -118.8 
L 354.699658 -118.8 
L 353.68257 -118.8 
L 352.665482 -118.8 
L 351.648394 -118.8 
L 350.631306 -118.8 
L 349.614217 -118.8 
L 348.597129 -118.8 
L 347.580041 -118.8 
L 346.562953 -118.8 
L 345.545865 -118.8 
L 344.528776 -118.8 
L 343.511688 -118.8 
L 342.4946 -118.8 
L 341.477512 -118.8 
L 340.460424 -118.8 
L 339.443336 -118.8 
L 338.426247 -118.8 
L 337.409159 -118.8 
L 336.392071 -118.8 
L 335.374983 -118.8 
L 334.357895 -118.8 
L 333.340807 -118.8 
L 332.323718 -118.8 
L 331.30663 -118.8 
L 330.289542 -118.8 
L 329.272454 -118.8 
L 328.255366 -118.8 
L 327.238278 -118.8 
L 326.221189 -118.8 
L 325.204101 -118.8 
L 324.187013 -118.8 
L 323.169925 -118.8 
L 322.152837 -118.8 
L 321.135748 -118.8 
L 320.11866 -118.8 
L 319.101572 -118.8 
L 318.084484 -118.8 
L 317.067396 -118.8 
L 316.050308 -118.8 
L 315.033219 -118.8 
L 314.016131 -118.8 
L 312.999043 -118.8 
L 311.981955 -118.8 
L 310.964867 -118.8 
L 309.947779 -118.8 
L 308.93069 -118.8 
L 307.913602 -118.8 
L 306.896514 -118.8 
L 305.879426 -118.8 
L 304.862338 -118.8 
L 303.845249 -118.8 
L 302.828161 -118.8 
L 301.811073 -118.8 
L 300.793985 -118.8 
L 299.776897 -118.8 
L 298.759809 -118.8 
L 297.74272 -118.8 
L 296.725632 -118.8 
L 295.708544 -118.8 
L 294.691456 -118.8 
L 293.674368 -118.8 
L 292.65728 -118.8 
L 291.640191 -118.8 
L 290.623103 -118.8 
L 289.606015 -118.8 
L 288.588927 -118.8 
L 287.571839 -118.8 
L 286.554751 -118.8 
L 285.537662 -118.8 
L 284.520574 -118.8 
L 283.503486 -118.8 
L 282.486398 -118.8 
L 281.46931 -118.8 
L 280.452221 -118.8 
L 279.435133 -118.8 
L 278.418045 -118.8 
L 277.400957 -118.8 
L 276.383869 -118.8 
L 275.366781 -118.8 
L 274.349692 -118.8 
L 273.332604 -118.8 
L 272.315516 -118.8 
L 271.298428 -118.8 
L 270.28134 -118.8 
L 269.264252 -118.8 
L 268.247163 -118.8 
L 267.230075 -118.8 
L 266.212987 -118.8 
L 265.195899 -118.8 
L 264.178811 -118.8 
L 263.161722 -118.8 
L 262.144634 -118.8 
L 261.127546 -118.8 
L 260.110458 -118.8 
L 259.09337 -118.8 
L 258.076282 -118.8 
L 257.059193 -118.8 
L 256.042105 -118.8 
L 255.025017 -118.8 
L 254.007929 -118.8 
L 252.990841 -118.8 
L 251.973753 -118.8 
L 250.956664 -118.8 
L 249.939576 -118.8 
L 248.922488 -118.8 
L 247.9054 -118.8 
L 246.888312 -118.8 
L 245.871224 -118.8 
L 244.854135 -118.8 
L 243.837047 -118.8 
L 242.819959 -118.8 
L 241.802871 -118.8 
L 240.785783 -118.8 
L 239.768694 -118.8 
L 238.751606 -118.8 
L 237.734518 -118.8 
L 236.71743 -118.8 
L 235.700342 -118.8 
L 234.683254 -118.8 
L 233.666165 -118.8 
L 232.649077 -118.8 
L 231.631989 -118.8 
L 230.614901 -118.8 
L 229.597813 -118.8 
L 228.580725 -118.8 
L 227.563636 -118.8 
L 226.546548 -118.8 
L 225.52946 -118.8 
L 224.512372 -118.8 
L 223.495284 -118.8 
L 222.478195 -118.8 
L 221.461107 -118.8 
L 220.444019 -118.8 
L 219.426931 -118.8 
L 218.409843 -118.8 
L 217.392755 -118.8 
L 216.375666 -118.8 
L 215.358578 -118.8 
L 214.34149 -118.8 
L 213.324402 -118.8 
L 212.307314 -118.8 
L 211.290226 -118.8 
L 210.273137 -118.8 
L 209.256049 -118.8 
L 208.238961 -118.8 
L 207.221873 -118.8 
L 206.204785 -118.8 
L 205.187697 -118.8 
L 204.170608 -118.8 
L 203.15352 -118.8 
L 202.136432 -118.8 
L 201.119344 -118.8 
L 200.102256 -118.8 
L 199.085167 -118.8 
L 198.068079 -118.8 
L 197.050991 -118.8 
L 196.033903 -118.8 
L 195.016815 -118.8 
L 193.999727 -118.8 
L 192.982638 -118.8 
L 191.96555 -118.8 
L 190.948462 -118.8 
L 189.931374 -118.8 
L 188.914286 -118.8 
L 187.897198 -118.8 
L 186.880109 -118.8 
L 185.863021 -118.8 
L 184.845933 -118.8 
L 183.828845 -118.8 
L 182.811757 -118.8 
L 181.794668 -118.8 
L 180.77758 -118.8 
L 179.760492 -118.8 
L 178.743404 -118.8 
L 177.726316 -118.8 
L 176.709228 -118.8 
L 175.692139 -118.8 
L 174.675051 -118.8 
L 173.657963 -118.8 
L 172.640875 -118.8 
L 171.623787 -118.8 
L 170.606699 -118.8 
L 169.58961 -118.8 
L 168.572522 -118.8 
L 167.555434 -118.8 
L 166.538346 -118.8 
L 165.521258 -118.8 
L 164.50417 -118.8 
L 163.487081 -118.8 
L 162.469993 -118.8 
L 161.452905 -118.8 
L 160.435817 -118.8 
L 159.418729 -118.8 
L 158.40164 -118.8 
L 157.384552 -118.8 
L 156.367464 -118.8 
L 155.350376 -118.8 
L 154.333288 -118.8 
L 153.3162 -118.8 
L 152.299111 -118.8 
L 151.282023 -118.8 
L 150.264935 -118.8 
L 149.247847 -118.8 
L 148.230759 -118.8 
L 147.213671 -118.8 
L 146.196582 -118.8 
L 145.179494 -118.8 
L 144.162406 -118.8 
L 143.145318 -118.8 
L 142.12823 -118.8 
L 141.111141 -118.8 
L 140.094053 -118.8 
L 139.076965 -118.8 
L 138.059877 -118.8 
L 137.042789 -118.8 
L 136.025701 -118.8 
L 135.008612 -118.8 
L 133.991524 -118.8 
L 132.974436 -118.8 
L 131.957348 -118.8 
L 130.94026 -118.8 
L 129.923172 -118.8 
L 128.906083 -118.8 
L 127.888995 -118.8 
L 126.871907 -118.8 
L 125.854819 -118.8 
L 124.837731 -118.8 
L 123.820643 -118.8 
L 122.803554 -118.8 
L 121.786466 -118.8 
L 120.769378 -118.8 
L 119.75229 -118.8 
L 118.735202 -118.8 
L 117.718113 -118.8 
L 116.701025 -118.8 
L 115.683937 -118.8 
L 114.666849 -118.8 
L 113.649761 -118.8 
L 112.632673 -118.8 
L 111.615584 -118.8 
L 110.598496 -118.8 
L 109.581408 -118.8 
L 108.56432 -118.8 
L 107.547232 -118.8 
L 106.530144 -118.8 
L 105.513055 -118.8 
L 104.495967 -118.8 
L 103.478879 -118.8 
L 102.461791 -118.8 
L 101.444703 -118.8 
L 100.427614 -118.8 
L 99.410526 -118.8 
L 98.393438 -118.8 
L 97.37635 -118.8 
L 96.359262 -118.8 
L 95.342174 -118.8 
L 94.325085 -118.8 
L 93.307997 -118.8 
L 92.290909 -118.8 
z
" id="mc1c105709d" style="stroke:#0000ff;stroke-opacity:0.1;"/>
    </defs>
    <g clip-path="url(#p992bb91f3a)">
     <use style="fill:#0000ff;fill-opacity:0.1;stroke:#0000ff;stroke-opacity:0.1;" x="0" xlink:href="#mc1c105709d" y="432"/>
    </g>
   </g>
   <g id="matplotlib.axis_1">
    <g id="text_1">
     <!-- x -->
     <g transform="translate(292.240625 396.078438)scale(0.1 -0.1)">
      <defs>
       <path d="M 3513 3500 
L 2247 1797 
L 3578 0 
L 2900 0 
L 1881 1375 
L 863 0 
L 184 0 
L 1544 1831 
L 300 3500 
L 978 3500 
L 1906 2253 
L 2834 3500 
L 3513 3500 
z
" id="DejaVuSans-78" transform="scale(0.015625)"/>
      </defs>
      <use xlink:href="#DejaVuSans-78"/>
     </g>
    </g>
   </g>
   <g id="matplotlib.axis_2">
    <g id="ytick_1">
     <g id="line2d_1">
      <path clip-path="url(#p992bb91f3a)" d="M 72 360.72 
L 518.4 360.72 
" style="fill:none;stroke:#b0b0b0;stroke-linecap:square;stroke-width:0.8;"/>
     </g>
     <g id="line2d_2">
      <defs>
       <path d="M 0 0 
L -3.5 0 
" id="mfca105c203" style="stroke:#000000;stroke-width:0.8;"/>
      </defs>
      <g>
       <use style="stroke:#000000;stroke-width:0.8;" x="72" xlink:href="#mfca105c203" y="360.72"/>
      </g>
     </g>
     <g id="text_2">
      <!-- −0.2 -->
      <g transform="translate(40.717187 364.519219)scale(0.1 -0.1)">
       <defs>
        <path d="M 678 2272 
L 4684 2272 
L 4684 1741 
L 678 1741 
L 678 2272 
z
" id="DejaVuSans-2212" transform="scale(0.015625)"/>
        <path d="M 2034 4250 
Q 1547 4250 1301 3770 
Q 1056 3291 1056 2328 
Q 1056 1369 1301 889 
Q 1547 409 2034 409 
Q 2525 409 2770 889 
Q 3016 1369 3016 2328 
Q 3016 3291 2770 3770 
Q 2525 4250 2034 4250 
z
M 2034 4750 
Q 2819 4750 3233 4129 
Q 3647 3509 3647 2328 
Q 3647 1150 3233 529 
Q 2819 -91 2034 -91 
Q 1250 -91 836 529 
Q 422 1150 422 2328 
Q 422 3509 836 4129 
Q 1250 4750 2034 4750 
z
" id="DejaVuSans-30" transform="scale(0.015625)"/>
        <path d="M 684 794 
L 1344 794 
L 1344 0 
L 684 0 
L 684 794 
z
" id="DejaVuSans-2e" transform="scale(0.015625)"/>
        <path d="M 1228 531 
L 3431 531 
L 3431 0 
L 469 0 
L 469 531 
Q 828 903 1448 1529 
Q 2069 2156 2228 2338 
Q 2531 2678 2651 2914 
Q 2772 3150 2772 3378 
Q 2772 3750 2511 3984 
Q 2250 4219 1831 4219 
Q 1534 4219 1204 4116 
Q 875 4013 500 3803 
L 500 4441 
Q 881 4594 1212 4672 
Q 1544 4750 1819 4750 
Q 2544 4750 2975 4387 
Q 3406 4025 3406 3419 
Q 3406 3131 3298 2873 
Q 3191 2616 2906 2266 
Q 2828 2175 2409 1742 
Q 1991 1309 1228 531 
z
" id="DejaVuSans-32" transform="scale(0.015625)"/>
       </defs>
       <use xlink:href="#DejaVuSans-2212"/>
       <use x="83.789062" xlink:href="#DejaVuSans-30"/>
       <use x="147.412109" xlink:href="#DejaVuSans-2e"/>
       <use x="179.199219" xlink:href="#DejaVuSans-32"/>
      </g>
     </g>
    </g>
    <g id="ytick_2">
     <g id="line2d_3">
      <path clip-path="url(#p992bb91f3a)" d="M 72 313.2 
L 518.4 313.2 
" style="fill:none;stroke:#b0b0b0;stroke-linecap:square;stroke-width:0.8;"/>
     </g>
     <g id="line2d_4">
      <g>
       <use style="stroke:#000000;stroke-width:0.8;" x="72" xlink:href="#mfca105c203" y="313.2"/>
      </g>
     </g>
     <g id="text_3">
      <!-- 0.0 -->
      <g transform="translate(49.096875 316.999219)scale(0.1 -0.1)">
       <use xlink:href="#DejaVuSans-30"/>
       <use x="63.623047" xlink:href="#DejaVuSans-2e"/>
       <use x="95.410156" xlink:href="#DejaVuSans-30"/>
      </g>
     </g>
    </g>
    <g id="ytick_3">
     <g id="line2d_5">
      <path clip-path="url(#p992bb91f3a)" d="M 72 265.68 
L 518.4 265.68 
" style="fill:none;stroke:#b0b0b0;stroke-linecap:square;stroke-width:0.8;"/>
     </g>
     <g id="line2d_6">
      <g>
       <use style="stroke:#000000;stroke-width:0.8;" x="72" xlink:href="#mfca105c203" y="265.68"/>
      </g>
     </g>
     <g id="text_4">
      <!-- 0.2 -->
      <g transform="translate(49.096875 269.479219)scale(0.1 -0.1)">
       <use xlink:href="#DejaVuSans-30"/>
       <use x="63.623047" xlink:href="#DejaVuSans-2e"/>
       <use x="95.410156" xlink:href="#DejaVuSans-32"/>
      </g>
     </g>
    </g>
    <g id="ytick_4">
     <g id="line2d_7">
      <path clip-path="url(#p992bb91f3a)" d="M 72 218.16 
L 518.4 218.16 
" style="fill:none;stroke:#b0b0b0;stroke-linecap:square;stroke-width:0.8;"/>
     </g>
     <g id="line2d_8">
      <g>
       <use style="stroke:#000000;stroke-width:0.8;" x="72" xlink:href="#mfca105c203" y="218.16"/>
      </g>
     </g>
     <g id="text_5">
      <!-- 0.4 -->
      <g transform="translate(49.096875 221.959219)scale(0.1 -0.1)">
       <defs>
        <path d="M 2419 4116 
L 825 1625 
L 2419 1625 
L 2419 4116 
z
M 2253 4666 
L 3047 4666 
L 3047 1625 
L 3713 1625 
L 3713 1100 
L 3047 1100 
L 3047 0 
L 2419 0 
L 2419 1100 
L 313 1100 
L 313 1709 
L 2253 4666 
z
" id="DejaVuSans-34" transform="scale(0.015625)"/>
       </defs>
       <use xlink:href="#DejaVuSans-30"/>
       <use x="63.623047" xlink:href="#DejaVuSans-2e"/>
       <use x="95.410156" xlink:href="#DejaVuSans-34"/>
      </g>
     </g>
    </g>
    <g id="ytick_5">
     <g id="line2d_9">
      <path clip-path="url(#p992bb91f3a)" d="M 72 170.64 
L 518.4 170.64 
" style="fill:none;stroke:#b0b0b0;stroke-linecap:square;stroke-width:0.8;"/>
     </g>
     <g id="line2d_10">
      <g>
       <use style="stroke:#000000;stroke-width:0.8;" x="72" xlink:href="#mfca105c203" y="170.64"/>
      </g>
     </g>
     <g id="text_6">
      <!-- 0.6 -->
      <g transform="translate(49.096875 174.439219)scale(0.1 -0.1)">
       <defs>
        <path d="M 2113 2584 
Q 1688 2584 1439 2293 
Q 1191 2003 1191 1497 
Q 1191 994 1439 701 
Q 1688 409 2113 409 
Q 2538 409 2786 701 
Q 3034 994 3034 1497 
Q 3034 2003 2786 2293 
Q 2538 2584 2113 2584 
z
M 3366 4563 
L 3366 3988 
Q 3128 4100 2886 4159 
Q 2644 4219 2406 4219 
Q 1781 4219 1451 3797 
Q 1122 3375 1075 2522 
Q 1259 2794 1537 2939 
Q 1816 3084 2150 3084 
Q 2853 3084 3261 2657 
Q 3669 2231 3669 1497 
Q 3669 778 3244 343 
Q 2819 -91 2113 -91 
Q 1303 -91 875 529 
Q 447 1150 447 2328 
Q 447 3434 972 4092 
Q 1497 4750 2381 4750 
Q 2619 4750 2861 4703 
Q 3103 4656 3366 4563 
z
" id="DejaVuSans-36" transform="scale(0.015625)"/>
       </defs>
       <use xlink:href="#DejaVuSans-30"/>
       <use x="63.623047" xlink:href="#DejaVuSans-2e"/>
       <use x="95.410156" xlink:href="#DejaVuSans-36"/>
      </g>
     </g>
    </g>
    <g id="ytick_6">
     <g id="line2d_11">
      <path clip-path="url(#p992bb91f3a)" d="M 72 123.12 
L 518.4 123.12 
" style="fill:none;stroke:#b0b0b0;stroke-linecap:square;stroke-width:0.8;"/>
     </g>
     <g id="line2d_12">
      <g>
       <use style="stroke:#000000;stroke-width:0.8;" x="72" xlink:href="#mfca105c203" y="123.12"/>
      </g>
     </g>
     <g id="text_7">
      <!-- 0.8 -->
      <g transform="translate(49.096875 126.919219)scale(0.1 -0.1)">
       <defs>
        <path d="M 2034 2216 
Q 1584 2216 1326 1975 
Q 1069 1734 1069 1313 
Q 1069 891 1326 650 
Q 1584 409 2034 409 
Q 2484 409 2743 651 
Q 3003 894 3003 1313 
Q 3003 1734 2745 1975 
Q 2488 2216 2034 2216 
z
M 1403 2484 
Q 997 2584 770 2862 
Q 544 3141 544 3541 
Q 544 4100 942 4425 
Q 1341 4750 2034 4750 
Q 2731 4750 3128 4425 
Q 3525 4100 3525 3541 
Q 3525 3141 3298 2862 
Q 3072 2584 2669 2484 
Q 3125 2378 3379 2068 
Q 3634 1759 3634 1313 
Q 3634 634 3220 271 
Q 2806 -91 2034 -91 
Q 1263 -91 848 271 
Q 434 634 434 1313 
Q 434 1759 690 2068 
Q 947 2378 1403 2484 
z
M 1172 3481 
Q 1172 3119 1398 2916 
Q 1625 2713 2034 2713 
Q 2441 2713 2670 2916 
Q 2900 3119 2900 3481 
Q 2900 3844 2670 4047 
Q 2441 4250 2034 4250 
Q 1625 4250 1398 4047 
Q 1172 3844 1172 3481 
z
" id="DejaVuSans-38" transform="scale(0.015625)"/>
       </defs>
       <use xlink:href="#DejaVuSans-30"/>
       <use x="63.623047" xlink:href="#DejaVuSans-2e"/>
       <use x="95.410156" xlink:href="#DejaVuSans-38"/>
      </g>
     </g>
    </g>
    <g id="ytick_7">
     <g id="line2d_13">
      <path clip-path="url(#p992bb91f3a)" d="M 72 75.6 
L 518.4 75.6 
" style="fill:none;stroke:#b0b0b0;stroke-linecap:square;stroke-width:0.8;"/>
     </g>
     <g id="line2d_14">
      <g>
       <use style="stroke:#000000;stroke-width:0.8;" x="72" xlink:href="#mfca105c203" y="75.6"/>
      </g>
     </g>
     <g id="text_8">
      <!-- 1.0 -->
      <g transform="translate(49.096875 79.399219)scale(0.1 -0.1)">
       <defs>
        <path d="M 794 531 
L 1825 531 
L 1825 4091 
L 703 3866 
L 703 4441 
L 1819 4666 
L 2450 4666 
L 2450 531 
L 3481 531 
L 3481 0 
L 794 0 
L 794 531 
z
" id="DejaVuSans-31" transform="scale(0.015625)"/>
       </defs>
       <use xlink:href="#DejaVuSans-31"/>
       <use x="63.623047" xlink:href="#DejaVuSans-2e"/>
       <use x="95.410156" xlink:href="#DejaVuSans-30"/>
      </g>
     </g>
    </g>
    <g id="text_9">
     <!-- $b_h^j(x)$ -->
     <g transform="translate(33.917187 230.56)rotate(-90)scale(0.1 -0.1)">
      <defs>
       <path d="M 3169 2138 
Q 3169 2591 2961 2847 
Q 2753 3103 2388 3103 
Q 2122 3103 1889 2973 
Q 1656 2844 1484 2597 
Q 1303 2338 1198 1995 
Q 1094 1653 1094 1313 
Q 1094 881 1298 636 
Q 1503 391 1863 391 
Q 2134 391 2365 517 
Q 2597 644 2772 891 
Q 2950 1147 3059 1487 
Q 3169 1828 3169 2138 
z
M 1381 2969 
Q 1594 3256 1914 3420 
Q 2234 3584 2584 3584 
Q 3122 3584 3439 3221 
Q 3756 2859 3756 2241 
Q 3756 1734 3570 1259 
Q 3384 784 3041 416 
Q 2816 172 2522 40 
Q 2228 -91 1906 -91 
Q 1566 -91 1316 65 
Q 1066 222 909 531 
L 806 0 
L 231 0 
L 1178 4863 
L 1753 4863 
L 1381 2969 
z
" id="DejaVuSans-Oblique-62" transform="scale(0.015625)"/>
       <path d="M 928 3500 
L 1503 3500 
L 813 -63 
L 809 -78 
Q 694 -675 544 -897 
Q 403 -1106 132 -1218 
Q -138 -1331 -506 -1331 
L -722 -1331 
L -628 -844 
L -481 -844 
Q -144 -844 -1 -703 
Q 141 -563 238 -63 
L 928 3500 
z
M 1197 4863 
L 1772 4863 
L 1631 4134 
L 1056 4134 
L 1197 4863 
z
" id="DejaVuSans-Oblique-6a" transform="scale(0.015625)"/>
       <path d="M 3566 2113 
L 3156 0 
L 2578 0 
L 2988 2091 
Q 3016 2238 3031 2350 
Q 3047 2463 3047 2528 
Q 3047 2791 2881 2937 
Q 2716 3084 2419 3084 
Q 1956 3084 1617 2771 
Q 1278 2459 1178 1941 
L 800 0 
L 225 0 
L 1172 4863 
L 1747 4863 
L 1375 2950 
Q 1594 3244 1934 3414 
Q 2275 3584 2650 3584 
Q 3113 3584 3367 3334 
Q 3622 3084 3622 2631 
Q 3622 2519 3608 2391 
Q 3594 2263 3566 2113 
z
" id="DejaVuSans-Oblique-68" transform="scale(0.015625)"/>
       <path d="M 1984 4856 
Q 1566 4138 1362 3434 
Q 1159 2731 1159 2009 
Q 1159 1288 1364 580 
Q 1569 -128 1984 -844 
L 1484 -844 
Q 1016 -109 783 600 
Q 550 1309 550 2009 
Q 550 2706 781 3412 
Q 1013 4119 1484 4856 
L 1984 4856 
z
" id="DejaVuSans-28" transform="scale(0.015625)"/>
       <path d="M 3841 3500 
L 2234 1784 
L 3219 0 
L 2559 0 
L 1819 1388 
L 531 0 
L -166 0 
L 1556 1844 
L 641 3500 
L 1300 3500 
L 1972 2234 
L 3144 3500 
L 3841 3500 
z
" id="DejaVuSans-Oblique-78" transform="scale(0.015625)"/>
       <path d="M 513 4856 
L 1013 4856 
Q 1481 4119 1714 3412 
Q 1947 2706 1947 2009 
Q 1947 1309 1714 600 
Q 1481 -109 1013 -844 
L 513 -844 
Q 928 -128 1133 580 
Q 1338 1288 1338 2009 
Q 1338 2731 1133 3434 
Q 928 4138 513 4856 
z
" id="DejaVuSans-29" transform="scale(0.015625)"/>
      </defs>
      <use transform="translate(0 0.907813)" xlink:href="#DejaVuSans-Oblique-62"/>
      <use transform="translate(70.924271 53.810938)scale(0.7)" xlink:href="#DejaVuSans-Oblique-6a"/>
      <use transform="translate(63.476562 -26.435937)scale(0.7)" xlink:href="#DejaVuSans-Oblique-68"/>
      <use transform="translate(110.576172 0.907813)" xlink:href="#DejaVuSans-28"/>
      <use transform="translate(149.589844 0.907813)" xlink:href="#DejaVuSans-Oblique-78"/>
      <use transform="translate(208.769531 0.907813)" xlink:href="#DejaVuSans-29"/>
     </g>
    </g>
   </g>
   <g id="line2d_15">
    <path clip-path="url(#p992bb91f3a)" d="M 92.290909 313.2 
L 159.418729 313.2 
L 160.435817 312.306767 
L 294.691456 76.493233 
L 295.708544 76.493233 
L 429.964183 312.306767 
L 430.981271 313.2 
L 498.109091 313.2 
L 498.109091 313.2 
" style="fill:none;stroke:#0000ff;stroke-linecap:square;stroke-width:1.5;"/>
   </g>
   <g id="line2d_16">
    <path clip-path="url(#p992bb91f3a)" d="M 159.927273 384.48 
L 159.927273 51.84 
" style="fill:none;stroke:#808080;stroke-dasharray:5.55,2.4;stroke-dashoffset:0;stroke-width:1.5;"/>
   </g>
   <g id="line2d_17">
    <path clip-path="url(#p992bb91f3a)" d="M 295.2 384.48 
L 295.2 51.84 
" style="fill:none;stroke:#808080;stroke-dasharray:5.55,2.4;stroke-dashoffset:0;stroke-width:1.5;"/>
   </g>
   <g id="line2d_18">
    <path clip-path="url(#p992bb91f3a)" d="M 430.472727 384.48 
L 430.472727 51.84 
" style="fill:none;stroke:#808080;stroke-dasharray:5.55,2.4;stroke-dashoffset:0;stroke-width:1.5;"/>
   </g>
   <g id="patch_3">
    <path d="M 72 384.48 
L 72 51.84 
" style="fill:none;stroke:#000000;stroke-linecap:square;stroke-linejoin:miter;stroke-width:0.8;"/>
   </g>
   <g id="patch_4">
    <path d="M 518.4 384.48 
L 518.4 51.84 
" style="fill:none;stroke:#000000;stroke-linecap:square;stroke-linejoin:miter;stroke-width:0.8;"/>
   </g>
   <g id="patch_5">
    <path d="M 72 384.48 
L 518.4 384.48 
" style="fill:none;stroke:#000000;stroke-linecap:square;stroke-linejoin:miter;stroke-width:0.8;"/>
   </g>
   <g id="patch_6">
    <path d="M 72 51.84 
L 518.4 51.84 
" style="fill:none;stroke:#000000;stroke-linecap:square;stroke-linejoin:miter;stroke-width:0.8;"/>
   </g>
   <g id="text_10">
    <!-- $x_{j-1}$ -->
    <g transform="translate(149.327273 346.96)scale(0.1 -0.1)">
     <use transform="translate(0 0.3125)" xlink:href="#DejaVuSans-Oblique-78"/>
     <use transform="translate(59.179688 -16.09375)scale(0.7)" xlink:href="#DejaVuSans-Oblique-6a"/>
     <use transform="translate(92.265625 -16.09375)scale(0.7)" xlink:href="#DejaVuSans-2212"/>
     <use transform="translate(164.555664 -16.09375)scale(0.7)" xlink:href="#DejaVuSans-31"/>
    </g>
   </g>
   <g id="text_11">
    <!-- $x_j$ -->
    <g transform="translate(291.1 346.96)scale(0.1 -0.1)">
     <use transform="translate(0 0.3125)" xlink:href="#DejaVuSans-Oblique-78"/>
     <use transform="translate(59.179688 -16.09375)scale(0.7)" xlink:href="#DejaVuSans-Oblique-6a"/>
    </g>
   </g>
   <g id="text_12">
    <!-- $x_{j+1}$ -->
    <g transform="translate(419.872727 346.96)scale(0.1 -0.1)">
     <defs>
      <path d="M 2944 4013 
L 2944 2272 
L 4684 2272 
L 4684 1741 
L 2944 1741 
L 2944 0 
L 2419 0 
L 2419 1741 
L 678 1741 
L 678 2272 
L 2419 2272 
L 2419 4013 
L 2944 4013 
z
" id="DejaVuSans-2b" transform="scale(0.015625)"/>
     </defs>
     <use transform="translate(0 0.3125)" xlink:href="#DejaVuSans-Oblique-78"/>
     <use transform="translate(59.179688 -16.09375)scale(0.7)" xlink:href="#DejaVuSans-Oblique-6a"/>
     <use transform="translate(92.265625 -16.09375)scale(0.7)" xlink:href="#DejaVuSans-2b"/>
     <use transform="translate(164.555664 -16.09375)scale(0.7)" xlink:href="#DejaVuSans-31"/>
    </g>
   </g>
   <g id="text_13">
    <!-- $h_j$ -->
    <g transform="translate(223.263636 370.72)scale(0.1 -0.1)">
     <use transform="translate(0 0.015625)" xlink:href="#DejaVuSans-Oblique-68"/>
     <use transform="translate(63.378906 -16.390625)scale(0.7)" xlink:href="#DejaVuSans-Oblique-6a"/>
    </g>
   </g>
   <g id="text_14">
    <!-- $h_{j+1}$ -->
    <g transform="translate(351.986364 370.72)scale(0.1 -0.1)">
     <use transform="translate(0 0.015625)" xlink:href="#DejaVuSans-Oblique-68"/>
     <use transform="translate(63.378906 -16.390625)scale(0.7)" xlink:href="#DejaVuSans-Oblique-6a"/>
     <use transform="translate(96.464844 -16.390625)scale(0.7)" xlink:href="#DejaVuSans-2b"/>
     <use transform="translate(168.754883 -16.390625)scale(0.7)" xlink:href="#DejaVuSans-31"/>
    </g>
   </g>
   <g id="text_15">
    <!-- $b_h^j$ -->
    <g transform="translate(288.54 45.84)scale(0.12 -0.12)">
     <use transform="translate(0 0.907813)" xlink:href="#DejaVuSans-Oblique-62"/>
     <use transform="translate(70.924271 53.810938)scale(0.7)" xlink:href="#DejaVuSans-Oblique-6a"/>
     <use transform="translate(63.476562 -26.435937)scale(0.7)" xlink:href="#DejaVuSans-Oblique-68"/>
    </g>
   </g>
  </g>
 </g>
 <defs>
  <clipPath id="p992bb91f3a">
   <rect height="332.64" width="446.4" x="72" y="51.84"/>
  </clipPath>
 </defs>
</svg>
