<?xml version="1.0" encoding="UTF-8" standalone="no"?>
<!-- Created with Inkscape (http://www.inkscape.org/) -->

<svg
   version="1.1"
   id="svg1"
   width="349.9895"
   height="288.99561"
   viewBox="0 0 349.9895 288.99559"
   sodipodi:docname="NUMPDE.pdf"
   inkscape:export-filename="README.assets\triangle_p3.svg"
   inkscape:export-xdpi="96"
   inkscape:export-ydpi="96"
   xmlns:inkscape="http://www.inkscape.org/namespaces/inkscape"
   xmlns:sodipodi="http://sodipodi.sourceforge.net/DTD/sodipodi-0.dtd"
   xmlns="http://www.w3.org/2000/svg"
   xmlns:svg="http://www.w3.org/2000/svg">
  <defs
     id="defs1">
    <clipPath
       clipPathUnits="userSpaceOnUse"
       id="clipPath6">
      <path
         d="m 488.969,5643.58 h 2423 v 2176.11 h -2423 z"
         transform="translate(0,2.5000001e-4)"
         id="path6" />
    </clipPath>
    <clipPath
       clipPathUnits="userSpaceOnUse"
       id="clipPath8">
      <path
         d="m 488.969,5643.58 h 2423 v 2176.11 h -2423 z"
         transform="translate(0,2.5000001e-4)"
         id="path8" />
    </clipPath>
    <clipPath
       clipPathUnits="userSpaceOnUse"
       id="clipPath10">
      <path
         d="m 488.969,5643.58 h 2423 v 2176.11 h -2423 z"
         transform="translate(0,2.5000001e-4)"
         id="path10" />
    </clipPath>
    <clipPath
       clipPathUnits="userSpaceOnUse"
       id="clipPath12">
      <path
         d="m 488.969,5643.58 h 2423 v 2176.11 h -2423 z"
         transform="translate(0,2.5000001e-4)"
         id="path12" />
    </clipPath>
    <clipPath
       clipPathUnits="userSpaceOnUse"
       id="clipPath14">
      <path
         d="m 488.969,5643.58 h 2423 v 2176.11 h -2423 z"
         transform="translate(0,2.5000001e-4)"
         id="path14" />
    </clipPath>
    <clipPath
       clipPathUnits="userSpaceOnUse"
       id="clipPath16">
      <path
         d="m 488.969,5643.58 h 2423 v 2176.11 h -2423 z"
         transform="translate(0,2.5000001e-4)"
         id="path16" />
    </clipPath>
    <clipPath
       clipPathUnits="userSpaceOnUse"
       id="clipPath18">
      <path
         d="m 488.969,5643.58 h 2423 v 2176.11 h -2423 z"
         transform="translate(0,2.5000001e-4)"
         id="path18" />
    </clipPath>
    <clipPath
       clipPathUnits="userSpaceOnUse"
       id="clipPath20">
      <path
         d="m 488.969,5643.58 h 2423 v 2176.11 h -2423 z"
         transform="translate(0,2.5000001e-4)"
         id="path20" />
    </clipPath>
    <clipPath
       clipPathUnits="userSpaceOnUse"
       id="clipPath22">
      <path
         d="m 488.969,5643.58 h 2423 v 2176.11 h -2423 z"
         transform="translate(0,2.5000001e-4)"
         id="path22" />
    </clipPath>
    <clipPath
       clipPathUnits="userSpaceOnUse"
       id="clipPath24">
      <path
         d="m 488.969,5643.58 h 2423 v 2176.11 h -2423 z"
         transform="translate(0,2.5000001e-4)"
         id="path24" />
    </clipPath>
    <clipPath
       clipPathUnits="userSpaceOnUse"
       id="clipPath26">
      <path
         d="m 488.969,5643.58 h 2423 v 2176.11 h -2423 z"
         transform="translate(0,2.5000001e-4)"
         id="path26" />
    </clipPath>
    <clipPath
       clipPathUnits="userSpaceOnUse"
       id="clipPath28">
      <path
         d="m 488.969,5643.58 h 2423 v 2176.11 h -2423 z"
         transform="translate(0,2.5000001e-4)"
         id="path28" />
    </clipPath>
    <clipPath
       clipPathUnits="userSpaceOnUse"
       id="clipPath30">
      <path
         d="m 488.969,5643.58 h 2423 v 2176.11 h -2423 z"
         transform="translate(0,2.5000001e-4)"
         id="path30" />
    </clipPath>
    <clipPath
       clipPathUnits="userSpaceOnUse"
       id="clipPath32">
      <path
         d="m 488.969,5643.58 h 2423 v 2176.11 h -2423 z"
         transform="translate(0,2.5000001e-4)"
         id="path32" />
    </clipPath>
    <clipPath
       clipPathUnits="userSpaceOnUse"
       id="clipPath34">
      <path
         d="m 488.969,5643.58 h 2423 v 2176.11 h -2423 z"
         transform="translate(0,2.5000001e-4)"
         id="path34" />
    </clipPath>
    <clipPath
       clipPathUnits="userSpaceOnUse"
       id="clipPath36">
      <path
         d="m 488.969,5643.58 h 2423 v 2176.11 h -2423 z"
         transform="translate(0,2.5000001e-4)"
         id="path36" />
    </clipPath>
    <clipPath
       clipPathUnits="userSpaceOnUse"
       id="clipPath38">
      <path
         d="m 488.969,5643.58 h 2423 v 2176.11 h -2423 z"
         transform="translate(0,2.5000001e-4)"
         id="path38" />
    </clipPath>
    <clipPath
       clipPathUnits="userSpaceOnUse"
       id="clipPath40">
      <path
         d="m 488.969,5643.58 h 2423 v 2176.11 h -2423 z"
         transform="translate(0,2.5000001e-4)"
         id="path40" />
    </clipPath>
    <clipPath
       clipPathUnits="userSpaceOnUse"
       id="clipPath42">
      <path
         d="m 488.969,5643.58 h 2423 v 2176.11 h -2423 z"
         transform="translate(0,2.5000001e-4)"
         id="path42" />
    </clipPath>
    <clipPath
       clipPathUnits="userSpaceOnUse"
       id="clipPath44">
      <path
         d="m 488.969,5643.58 h 2423 v 2176.11 h -2423 z"
         transform="translate(0,2.5000001e-4)"
         id="path44" />
    </clipPath>
    <clipPath
       clipPathUnits="userSpaceOnUse"
       id="clipPath46">
      <path
         d="m 488.969,5643.58 h 2423 v 2176.11 h -2423 z"
         transform="translate(0,2.5000001e-4)"
         id="path46" />
    </clipPath>
    <clipPath
       clipPathUnits="userSpaceOnUse"
       id="clipPath48">
      <path
         d="m 488.969,5643.58 h 2423 v 2176.11 h -2423 z"
         transform="translate(0,2.5000001e-4)"
         id="path48" />
    </clipPath>
    <clipPath
       clipPathUnits="userSpaceOnUse"
       id="clipPath50">
      <path
         d="m 488.969,5643.58 h 2423 v 2176.11 h -2423 z"
         transform="translate(0,2.5000001e-4)"
         id="path50" />
    </clipPath>
    <clipPath
       clipPathUnits="userSpaceOnUse"
       id="clipPath52">
      <path
         d="m 488.969,5643.58 h 2423 v 2176.11 h -2423 z"
         transform="translate(0,2.5000001e-4)"
         id="path52" />
    </clipPath>
    <clipPath
       clipPathUnits="userSpaceOnUse"
       id="clipPath54">
      <path
         d="m 488.969,5643.58 h 2423 v 2176.11 h -2423 z"
         transform="translate(0,2.5000001e-4)"
         id="path54" />
    </clipPath>
  </defs>
  <sodipodi:namedview
     id="namedview1"
     pagecolor="#505050"
     bordercolor="#eeeeee"
     borderopacity="1"
     inkscape:showpageshadow="0"
     inkscape:pageopacity="0"
     inkscape:pagecheckerboard="0"
     inkscape:deskcolor="#505050"
     showguides="true" />
  <g
     id="g1"
     inkscape:groupmode="layer"
     inkscape:label="188"
     transform="translate(-65.393166,-80.19923)">
    <path
       id="path5"
       d="m 1059.63,6560.34 282.1,-900.55"
       style="fill:none;stroke:#008f00;stroke-width:5.42505;stroke-linecap:butt;stroke-linejoin:miter;stroke-miterlimit:10;stroke-dasharray:none;stroke-opacity:1"
       transform="matrix(0.13333333,0,0,-0.13333333,0,1122.6667)"
       clip-path="url(#clipPath6)" />
    <path
       id="path7"
       d="M 1650.96,7243.9 2136.32,5651.83"
       style="fill:none;stroke:#008f00;stroke-width:5.42505;stroke-linecap:butt;stroke-linejoin:miter;stroke-miterlimit:10;stroke-dasharray:none;stroke-opacity:1"
       transform="matrix(0.13333333,0,0,-0.13333333,0,1122.6667)"
       clip-path="url(#clipPath8)" />
    <path
       id="path9"
       d="M 983.676,6446.42 H 2817.34"
       style="fill:none;stroke:#008f00;stroke-width:5.42505;stroke-linecap:butt;stroke-linejoin:miter;stroke-miterlimit:10;stroke-dasharray:none;stroke-opacity:1"
       transform="matrix(0.13333333,0,0,-0.13333333,0,1122.6667)"
       clip-path="url(#clipPath10)" />
    <path
       id="path11"
       d="m 1585.86,7124.55 998.21,-5.42"
       style="fill:none;stroke:#008f00;stroke-width:5.42505;stroke-linecap:butt;stroke-linejoin:miter;stroke-miterlimit:10;stroke-dasharray:none;stroke-opacity:1"
       transform="matrix(0.13333333,0,0,-0.13333333,0,1122.6667)"
       clip-path="url(#clipPath12)" />
    <path
       id="path13"
       d="m 564.141,5768.29 c 0,-19.98 -16.196,-36.17 -36.168,-36.17 -19.973,0 -36.168,16.19 -36.168,36.17 0,19.97 16.195,36.16 36.168,36.16 19.972,0 36.168,-16.19 36.168,-36.16"
       style="fill:#f0b6d3;fill-opacity:1;fill-rule:evenodd;stroke:none"
       transform="matrix(0.13333333,0,0,-0.13333333,0,1122.6667)"
       clip-path="url(#clipPath14)" />
    <path
       id="path15"
       d="m 564.141,5768.29 c 0,-19.98 -16.196,-36.17 -36.168,-36.17 -19.973,0 -36.168,16.19 -36.168,36.17 0,19.97 16.195,36.16 36.168,36.16 19.972,0 36.168,-16.19 36.168,-36.16 z"
       style="fill:none;stroke:#000000;stroke-width:2.71253;stroke-linecap:butt;stroke-linejoin:miter;stroke-miterlimit:10;stroke-dasharray:none;stroke-opacity:1"
       transform="matrix(0.13333333,0,0,-0.13333333,0,1122.6667)"
       clip-path="url(#clipPath16)" />
    <path
       id="path17"
       d="m 1345.35,5762.86 c 0,-19.97 -16.2,-36.16 -36.17,-36.16 -19.97,0 -36.17,16.19 -36.17,36.16 0,19.97 16.2,36.17 36.17,36.17 19.97,0 36.17,-16.2 36.17,-36.17"
       style="fill:#f0b6d3;fill-opacity:1;fill-rule:evenodd;stroke:none"
       transform="matrix(0.13333333,0,0,-0.13333333,0,1122.6667)"
       clip-path="url(#clipPath18)" />
    <path
       id="path19"
       d="m 1345.35,5762.86 c 0,-19.97 -16.2,-36.16 -36.17,-36.16 -19.97,0 -36.17,16.19 -36.17,36.16 0,19.97 16.2,36.17 36.17,36.17 19.97,0 36.17,-16.2 36.17,-36.17 z"
       style="fill:none;stroke:#000000;stroke-width:2.71253;stroke-linecap:butt;stroke-linejoin:miter;stroke-miterlimit:10;stroke-dasharray:none;stroke-opacity:1"
       transform="matrix(0.13333333,0,0,-0.13333333,0,1122.6667)"
       clip-path="url(#clipPath20)" />
    <path
       id="path21"
       d="m 2131.98,5773.71 c 0,-19.97 -16.19,-36.17 -36.17,-36.17 -19.97,0 -36.17,16.2 -36.17,36.17 0,19.97 16.2,36.17 36.17,36.17 19.98,0 36.17,-16.2 36.17,-36.17"
       style="fill:#f0b6d3;fill-opacity:1;fill-rule:evenodd;stroke:none"
       transform="matrix(0.13333333,0,0,-0.13333333,0,1122.6667)"
       clip-path="url(#clipPath22)" />
    <path
       id="path23"
       d="m 2131.98,5773.71 c 0,-19.97 -16.19,-36.17 -36.17,-36.17 -19.97,0 -36.17,16.2 -36.17,36.17 0,19.97 16.2,36.17 36.17,36.17 19.98,0 36.17,-16.2 36.17,-36.17 z"
       style="fill:none;stroke:#000000;stroke-width:2.71253;stroke-linecap:butt;stroke-linejoin:miter;stroke-miterlimit:10;stroke-dasharray:none;stroke-opacity:1"
       transform="matrix(0.13333333,0,0,-0.13333333,0,1122.6667)"
       clip-path="url(#clipPath24)" />
    <path
       id="path25"
       d="m 2907.76,5752.01 c 0,-19.97 -16.19,-36.17 -36.17,-36.17 -19.97,0 -36.16,16.2 -36.16,36.17 0,19.97 16.19,36.17 36.16,36.17 19.98,0 36.17,-16.2 36.17,-36.17"
       style="fill:#f0b6d3;fill-opacity:1;fill-rule:evenodd;stroke:none"
       transform="matrix(0.13333333,0,0,-0.13333333,0,1122.6667)"
       clip-path="url(#clipPath26)" />
    <path
       id="path27"
       d="m 2907.76,5752.01 c 0,-19.97 -16.19,-36.17 -36.17,-36.17 -19.97,0 -36.16,16.2 -36.16,36.17 0,19.97 16.19,36.17 36.16,36.17 19.98,0 36.17,-16.2 36.17,-36.17 z"
       style="fill:none;stroke:#000000;stroke-width:2.71253;stroke-linecap:butt;stroke-linejoin:miter;stroke-miterlimit:10;stroke-dasharray:none;stroke-opacity:1"
       transform="matrix(0.13333333,0,0,-0.13333333,0,1122.6667)"
       clip-path="url(#clipPath28)" />
    <path
       id="path29"
       d="m 2717.89,6440.99 c 0,-19.97 -16.2,-36.17 -36.17,-36.17 -19.97,0 -36.17,16.2 -36.17,36.17 0,19.97 16.2,36.17 36.17,36.17 19.97,0 36.17,-16.2 36.17,-36.17"
       style="fill:#f0b6d3;fill-opacity:1;fill-rule:evenodd;stroke:none"
       transform="matrix(0.13333333,0,0,-0.13333333,0,1122.6667)"
       clip-path="url(#clipPath30)" />
    <path
       id="path31"
       d="m 2717.89,6440.99 c 0,-19.97 -16.2,-36.17 -36.17,-36.17 -19.97,0 -36.17,16.2 -36.17,36.17 0,19.97 16.2,36.17 36.17,36.17 19.97,0 36.17,-16.2 36.17,-36.17 z"
       style="fill:none;stroke:#000000;stroke-width:2.71253;stroke-linecap:butt;stroke-linejoin:miter;stroke-miterlimit:10;stroke-dasharray:none;stroke-opacity:1"
       transform="matrix(0.13333333,0,0,-0.13333333,0,1122.6667)"
       clip-path="url(#clipPath32)" />
    <path
       id="path33"
       d="m 2517.16,7113.7 c 0,-19.97 -16.2,-36.17 -36.17,-36.17 -19.97,0 -36.17,16.2 -36.17,36.17 0,19.97 16.2,36.17 36.17,36.17 19.97,0 36.17,-16.2 36.17,-36.17"
       style="fill:#f0b6d3;fill-opacity:1;fill-rule:evenodd;stroke:none"
       transform="matrix(0.13333333,0,0,-0.13333333,0,1122.6667)"
       clip-path="url(#clipPath34)" />
    <path
       id="path35"
       d="m 2517.16,7113.7 c 0,-19.97 -16.2,-36.17 -36.17,-36.17 -19.97,0 -36.17,16.2 -36.17,36.17 0,19.97 16.2,36.17 36.17,36.17 19.97,0 36.17,-16.2 36.17,-36.17 z"
       style="fill:none;stroke:#000000;stroke-width:2.71253;stroke-linecap:butt;stroke-linejoin:miter;stroke-miterlimit:10;stroke-dasharray:none;stroke-opacity:1"
       transform="matrix(0.13333333,0,0,-0.13333333,0,1122.6667)"
       clip-path="url(#clipPath36)" />
    <path
       id="path37"
       d="m 2321.86,7780.98 c 0,-19.97 -16.2,-36.17 -36.17,-36.17 -19.98,0 -36.17,16.2 -36.17,36.17 0,19.97 16.19,36.17 36.17,36.17 19.97,0 36.17,-16.2 36.17,-36.17"
       style="fill:#f0b6d3;fill-opacity:1;fill-rule:evenodd;stroke:none"
       transform="matrix(0.13333333,0,0,-0.13333333,0,1122.6667)"
       clip-path="url(#clipPath38)" />
    <path
       id="path39"
       d="m 2321.86,7780.98 c 0,-19.97 -16.2,-36.17 -36.17,-36.17 -19.98,0 -36.17,16.2 -36.17,36.17 0,19.97 16.19,36.17 36.17,36.17 19.97,0 36.17,-16.2 36.17,-36.17 z"
       style="fill:none;stroke:#000000;stroke-width:2.71253;stroke-linecap:butt;stroke-linejoin:miter;stroke-miterlimit:10;stroke-dasharray:none;stroke-opacity:1"
       transform="matrix(0.13333333,0,0,-0.13333333,0,1122.6667)"
       clip-path="url(#clipPath40)" />
    <path
       id="path41"
       d="m 1741.38,7119.13 c 0,-19.98 -16.2,-36.17 -36.17,-36.17 -19.98,0 -36.17,16.19 -36.17,36.17 0,19.97 16.19,36.16 36.17,36.16 19.97,0 36.17,-16.19 36.17,-36.16"
       style="fill:#f0b6d3;fill-opacity:1;fill-rule:evenodd;stroke:none"
       transform="matrix(0.13333333,0,0,-0.13333333,0,1122.6667)"
       clip-path="url(#clipPath42)" />
    <path
       id="path43"
       d="m 1741.38,7119.13 c 0,-19.98 -16.2,-36.17 -36.17,-36.17 -19.98,0 -36.17,16.19 -36.17,36.17 0,19.97 16.19,36.16 36.17,36.16 19.97,0 36.17,-16.19 36.17,-36.16 z"
       style="fill:none;stroke:#000000;stroke-width:2.71253;stroke-linecap:butt;stroke-linejoin:miter;stroke-miterlimit:10;stroke-dasharray:none;stroke-opacity:1"
       transform="matrix(0.13333333,0,0,-0.13333333,0,1122.6667)"
       clip-path="url(#clipPath44)" />
    <path
       id="path45"
       d="m 1150.04,6440.99 c 0,-19.97 -16.19,-36.17 -36.16,-36.17 -19.97,0 -36.17,16.2 -36.17,36.17 0,19.97 16.2,36.17 36.17,36.17 19.97,0 36.16,-16.2 36.16,-36.17"
       style="fill:#f0b6d3;fill-opacity:1;fill-rule:evenodd;stroke:none"
       transform="matrix(0.13333333,0,0,-0.13333333,0,1122.6667)"
       clip-path="url(#clipPath46)" />
    <path
       id="path47"
       d="m 1150.04,6440.99 c 0,-19.97 -16.19,-36.17 -36.16,-36.17 -19.97,0 -36.17,16.2 -36.17,36.17 0,19.97 16.2,36.17 36.17,36.17 19.97,0 36.16,-16.2 36.16,-36.17 z"
       style="fill:none;stroke:#000000;stroke-width:2.71253;stroke-linecap:butt;stroke-linejoin:miter;stroke-miterlimit:10;stroke-dasharray:none;stroke-opacity:1"
       transform="matrix(0.13333333,0,0,-0.13333333,0,1122.6667)"
       clip-path="url(#clipPath48)" />
    <path
       id="path49"
       d="m 1925.83,6435.57 c 0,-19.98 -16.2,-36.17 -36.17,-36.17 -19.97,0 -36.17,16.19 -36.17,36.17 0,19.97 16.2,36.16 36.17,36.16 19.97,0 36.17,-16.19 36.17,-36.16"
       style="fill:#f0b6d3;fill-opacity:1;fill-rule:evenodd;stroke:none"
       transform="matrix(0.13333333,0,0,-0.13333333,0,1122.6667)"
       clip-path="url(#clipPath50)" />
    <path
       id="path51"
       d="m 1925.83,6435.57 c 0,-19.98 -16.2,-36.17 -36.17,-36.17 -19.97,0 -36.17,16.19 -36.17,36.17 0,19.97 16.2,36.16 36.17,36.16 19.97,0 36.17,-16.19 36.17,-36.16 z"
       style="fill:none;stroke:#000000;stroke-width:2.71253;stroke-linecap:butt;stroke-linejoin:miter;stroke-miterlimit:10;stroke-dasharray:none;stroke-opacity:1"
       transform="matrix(0.13333333,0,0,-0.13333333,0,1122.6667)"
       clip-path="url(#clipPath52)" />
    <path
       id="path53"
       d="M 522.547,5768.29 2882.45,5757.44 2285.69,7780.98 Z"
       style="fill:none;stroke:#000000;stroke-width:2.71253;stroke-linecap:butt;stroke-linejoin:miter;stroke-miterlimit:10;stroke-dasharray:none;stroke-opacity:1"
       transform="matrix(0.13333333,0,0,-0.13333333,0,1122.6667)"
       clip-path="url(#clipPath54)" />
  </g>
</svg>
