<?xml version="1.0" encoding="UTF-8" standalone="no"?>
<!-- Created with Inkscape (http://www.inkscape.org/) -->

<svg
   version="1.1"
   id="svg1"
   width="336.55261"
   height="242.97266"
   viewBox="0 0 336.55261 242.97265"
   sodipodi:docname="NUMPDE.pdf"
   xmlns:inkscape="http://www.inkscape.org/namespaces/inkscape"
   xmlns:sodipodi="http://sodipodi.sourceforge.net/DTD/sodipodi-0.dtd"
   xmlns="http://www.w3.org/2000/svg"
   xmlns:svg="http://www.w3.org/2000/svg">
  <defs
     id="defs1">
    <clipPath
       clipPathUnits="userSpaceOnUse"
       id="clipPath77">
      <path
         d="m 2999.7,6021.76 h 2551 v 1830.06 h -2551 z"
         transform="translate(0,2.5000001e-4)"
         id="path77" />
    </clipPath>
    <clipPath
       clipPathUnits="userSpaceOnUse"
       id="clipPath79">
      <path
         d="m 2999.7,6021.76 h 2551 v 1830.06 h -2551 z"
         transform="translate(0,2.5000001e-4)"
         id="path79" />
    </clipPath>
    <clipPath
       clipPathUnits="userSpaceOnUse"
       id="clipPath81">
      <path
         d="m 2999.7,6021.76 h 2551 v 1830.06 h -2551 z"
         transform="translate(0,2.5000001e-4)"
         id="path81" />
    </clipPath>
    <clipPath
       clipPathUnits="userSpaceOnUse"
       id="clipPath83">
      <path
         d="m 2999.7,6021.76 h 2551 v 1830.06 h -2551 z"
         transform="translate(0,2.5000001e-4)"
         id="path83" />
    </clipPath>
    <clipPath
       clipPathUnits="userSpaceOnUse"
       id="clipPath85">
      <path
         d="m 2999.7,6021.76 h 2551 v 1830.06 h -2551 z"
         transform="translate(0,2.5000001e-4)"
         id="path85" />
    </clipPath>
    <clipPath
       clipPathUnits="userSpaceOnUse"
       id="clipPath87">
      <path
         d="m 2999.7,6021.76 h 2551 v 1830.06 h -2551 z"
         transform="translate(0,2.5000001e-4)"
         id="path87" />
    </clipPath>
    <clipPath
       clipPathUnits="userSpaceOnUse"
       id="clipPath89">
      <path
         d="m 2999.7,6021.76 h 2551 v 1830.06 h -2551 z"
         transform="translate(0,2.5000001e-4)"
         id="path89" />
    </clipPath>
    <clipPath
       clipPathUnits="userSpaceOnUse"
       id="clipPath91">
      <path
         d="m 2999.7,6021.76 h 2551 v 1830.06 h -2551 z"
         transform="translate(0,2.5000001e-4)"
         id="path91" />
    </clipPath>
    <clipPath
       clipPathUnits="userSpaceOnUse"
       id="clipPath93">
      <path
         d="m 2999.7,6021.76 h 2551 v 1830.06 h -2551 z"
         transform="translate(0,2.5000001e-4)"
         id="path93" />
    </clipPath>
    <clipPath
       clipPathUnits="userSpaceOnUse"
       id="clipPath95">
      <path
         d="m 2999.7,6021.76 h 2551 v 1830.06 h -2551 z"
         transform="translate(0,2.5000001e-4)"
         id="path95" />
    </clipPath>
    <clipPath
       clipPathUnits="userSpaceOnUse"
       id="clipPath97">
      <path
         d="m 2999.7,6021.76 h 2551 v 1830.06 h -2551 z"
         transform="translate(0,2.5000001e-4)"
         id="path97" />
    </clipPath>
    <clipPath
       clipPathUnits="userSpaceOnUse"
       id="clipPath99">
      <path
         d="m 2999.7,6021.76 h 2551 v 1830.06 h -2551 z"
         transform="translate(0,2.5000001e-4)"
         id="path99" />
    </clipPath>
    <clipPath
       clipPathUnits="userSpaceOnUse"
       id="clipPath101">
      <path
         d="m 2999.7,6021.76 h 2551 v 1830.06 h -2551 z"
         transform="translate(0,2.5000001e-4)"
         id="path101" />
    </clipPath>
  </defs>
  <sodipodi:namedview
     id="namedview1"
     pagecolor="#505050"
     bordercolor="#eeeeee"
     borderopacity="1"
     inkscape:showpageshadow="0"
     inkscape:pageopacity="0"
     inkscape:pagecheckerboard="0"
     inkscape:deskcolor="#505050" />
  <g
     id="g1"
     inkscape:groupmode="layer"
     inkscape:label="186"
     transform="translate(-400.2638,-81.742199)">
    <path
       id="path76"
       d="m 4145.13,7728.45 -1077.9,-1482.11 2335.46,202.1 z"
       style="fill:none;stroke:#000000;stroke-width:7.48544;stroke-linecap:butt;stroke-linejoin:miter;stroke-miterlimit:10;stroke-dasharray:none;stroke-opacity:1"
       transform="matrix(0.13333333,0,0,-0.13333333,0,1122.6667)"
       clip-path="url(#clipPath77)" />
    <path
       id="path78"
       d="m 3130.61,6246.34 c 0,-35 -28.38,-63.38 -63.38,-63.38 -35,0 -63.38,28.38 -63.38,63.38 0,35 28.38,63.37 63.38,63.37 35,0 63.38,-28.37 63.38,-63.37"
       style="fill:#f0b6d3;fill-opacity:1;fill-rule:evenodd;stroke:none"
       transform="matrix(0.13333333,0,0,-0.13333333,0,1122.6667)"
       clip-path="url(#clipPath79)" />
    <path
       id="path80"
       d="m 3130.61,6246.34 c 0,-35 -28.38,-63.38 -63.38,-63.38 -35,0 -63.38,28.38 -63.38,63.38 0,35 28.38,63.37 63.38,63.37 35,0 63.38,-28.37 63.38,-63.37 z"
       style="fill:none;stroke:#000000;stroke-width:3.74272;stroke-linecap:butt;stroke-linejoin:miter;stroke-miterlimit:10;stroke-dasharray:none;stroke-opacity:1"
       transform="matrix(0.13333333,0,0,-0.13333333,0,1122.6667)"
       clip-path="url(#clipPath81)" />
    <path
       id="path82"
       d="m 4253.42,6336.16 c 0,-35 -28.37,-63.37 -63.37,-63.37 -35,0 -63.38,28.37 -63.38,63.37 0,35 28.38,63.38 63.38,63.38 35,0 63.37,-28.38 63.37,-63.38"
       style="fill:#f0b6d3;fill-opacity:1;fill-rule:evenodd;stroke:none"
       transform="matrix(0.13333333,0,0,-0.13333333,0,1122.6667)"
       clip-path="url(#clipPath83)" />
    <path
       id="path84"
       d="m 4253.42,6336.16 c 0,-35 -28.37,-63.37 -63.37,-63.37 -35,0 -63.38,28.37 -63.38,63.37 0,35 28.38,63.38 63.38,63.38 35,0 63.37,-28.38 63.37,-63.38 z"
       style="fill:none;stroke:#000000;stroke-width:3.74272;stroke-linecap:butt;stroke-linejoin:miter;stroke-miterlimit:10;stroke-dasharray:none;stroke-opacity:1"
       transform="matrix(0.13333333,0,0,-0.13333333,0,1122.6667)"
       clip-path="url(#clipPath85)" />
    <path
       id="path86"
       d="m 5466.06,6448.44 c 0,-35 -28.37,-63.37 -63.37,-63.37 -35,0 -63.38,28.37 -63.38,63.37 0,35 28.38,63.38 63.38,63.38 35,0 63.37,-28.38 63.37,-63.38"
       style="fill:#ff0000;fill-opacity:1;fill-rule:evenodd;stroke:none"
       transform="matrix(0.13333333,0,0,-0.13333333,0,1122.6667)"
       clip-path="url(#clipPath87)" />
    <path
       id="path88"
       d="m 5466.06,6448.44 c 0,-35 -28.37,-63.37 -63.37,-63.37 -35,0 -63.38,28.37 -63.38,63.37 0,35 28.38,63.38 63.38,63.38 35,0 63.37,-28.38 63.37,-63.38 z"
       style="fill:#f0b6d3;stroke:#000000;stroke-width:3.74272;stroke-linecap:butt;stroke-linejoin:miter;stroke-miterlimit:10;stroke-dasharray:none;stroke-opacity:1"
       transform="matrix(0.13333333,0,0,-0.13333333,0,1122.6667)"
       clip-path="url(#clipPath89)" />
    <path
       id="path90"
       d="m 4814.83,7122.13 c 0,-35 -28.38,-63.38 -63.38,-63.38 -35,0 -63.37,28.38 -63.37,63.38 0,35 28.37,63.38 63.37,63.38 35,0 63.38,-28.38 63.38,-63.38"
       style="fill:#f0b6d3;fill-opacity:1;fill-rule:evenodd;stroke:none"
       transform="matrix(0.13333333,0,0,-0.13333333,0,1122.6667)"
       clip-path="url(#clipPath91)" />
    <path
       id="path92"
       d="m 4814.83,7122.13 c 0,-35 -28.38,-63.38 -63.38,-63.38 -35,0 -63.37,28.38 -63.37,63.38 0,35 28.37,63.38 63.37,63.38 35,0 63.38,-28.38 63.38,-63.38 z"
       style="fill:none;stroke:#000000;stroke-width:3.74272;stroke-linecap:butt;stroke-linejoin:miter;stroke-miterlimit:10;stroke-dasharray:none;stroke-opacity:1"
       transform="matrix(0.13333333,0,0,-0.13333333,0,1122.6667)"
       clip-path="url(#clipPath93)" />
    <path
       id="path94"
       d="m 4208.51,7728.45 c 0,-35 -28.38,-63.38 -63.38,-63.38 -35,0 -63.37,28.38 -63.37,63.38 0,35 28.37,63.38 63.37,63.38 35,0 63.38,-28.38 63.38,-63.38"
       style="fill:#f0b6d3;fill-opacity:1;fill-rule:evenodd;stroke:none"
       transform="matrix(0.13333333,0,0,-0.13333333,0,1122.6667)"
       clip-path="url(#clipPath95)" />
    <path
       id="path96"
       d="m 4208.51,7728.45 c 0,-35 -28.38,-63.38 -63.38,-63.38 -35,0 -63.37,28.38 -63.37,63.38 0,35 28.37,63.38 63.37,63.38 35,0 63.38,-28.38 63.38,-63.38 z"
       style="fill:none;stroke:#000000;stroke-width:3.74272;stroke-linecap:butt;stroke-linejoin:miter;stroke-miterlimit:10;stroke-dasharray:none;stroke-opacity:1"
       transform="matrix(0.13333333,0,0,-0.13333333,0,1122.6667)"
       clip-path="url(#clipPath97)" />
    <path
       id="path98"
       d="m 3692.02,7009.85 c 0,-35 -28.38,-63.38 -63.38,-63.38 -35,0 -63.38,28.38 -63.38,63.38 0,35 28.38,63.38 63.38,63.38 35,0 63.38,-28.38 63.38,-63.38"
       style="fill:#ff0000;fill-opacity:1;fill-rule:evenodd;stroke:none"
       transform="matrix(0.13333333,0,0,-0.13333333,0,1122.6667)"
       clip-path="url(#clipPath99)" />
    <path
       id="path100"
       d="m 3692.02,7009.85 c 0,-35 -28.38,-63.38 -63.38,-63.38 -35,0 -63.38,28.38 -63.38,63.38 0,35 28.38,63.38 63.38,63.38 35,0 63.38,-28.38 63.38,-63.38 z"
       style="fill:#f0b6d3;stroke:#000000;stroke-width:3.74272;stroke-linecap:butt;stroke-linejoin:miter;stroke-miterlimit:10;stroke-dasharray:none;stroke-opacity:1"
       transform="matrix(0.13333333,0,0,-0.13333333,0,1122.6667)"
       clip-path="url(#clipPath101)" />
    <g
       id="g101"
       aria-label="p&#10;1&#10;p&#10;2&#10;p&#10;3&#10;p&#10;4&#10;p&#10;6&#10;p&#10;5&#10;K"
       transform="matrix(1.3333333,0,0,1.3333333,404.79333,319.764)">
      <path
         id="path102"
         d="m -0.12917969,3.2355938 c 0.15234375,-0.023437 0.19921875,-0.035156 0.375,-0.082031 0.515625,-0.1054687 0.75,-0.140625 0.96093749,-0.1640625 0.046875,-0.7148437 0.140625,-1.171875 0.5742188,-2.87109375 0.2460937,0.0585937 0.421875,0.0820312 0.6679687,0.0820312 0.3984375,0 0.7265625,-0.0703125 1.03125,-0.19921875 0.3164063,-0.15234375 0.9492188,-0.59765625 1.40625,-0.984375 0.7734375,-0.667969 1.2773438,-2.0156252 1.2773438,-3.433594 0,-0.796875 -0.2226563,-1.1835937 -0.6679688,-1.1835937 -0.5625,0 -1.125,0.2460937 -1.7695312,0.7851562 -0.5273438,0.4453125 -0.8320313,0.84375 -1.3945313,1.7929688 0.070312,-0.3398438 0.1523438,-0.6679688 0.1757813,-0.8085938 0.1640625,-0.7265625 0.2460937,-1.1484375 0.2460937,-1.40625 0,-0.234375 -0.1171875,-0.3632812 -0.328125,-0.3632812 -0.28125,0 -0.6796875,0.1757812 -1.21875,0.5859375 l -1.00781249,0.7382812 0.1640625,0.3164063 0.375,-0.2578125 C 0.93722656,-4.3464375 1.1012891,-4.41675 1.2301953,-4.41675 c 0.082031,0 0.1289063,0.070312 0.1289063,0.1875 0,0.3632813 0,0.3632813 -0.28125,1.8632813 L 0.12863281,1.7004375 c -0.15234375,0.65625 -0.234375,0.9726563 -0.375,1.453125 z M 2.0973828,-1.4401875 c 0.1875,-0.84375 0.328125,-1.2070312 0.7382813,-1.828125 0.5625,-0.8671875 1.1953125,-1.40625 1.6289062,-1.40625 0.2226563,0 0.3398438,0.2460938 0.3398438,0.6914063 0,0.8320312 -0.3632813,2.1679687 -0.796875,2.953125 C 3.7731641,-0.619875 3.4333203,-0.3855 3.0466016,-0.3855 c -0.3867188,0 -0.7265625,-0.09375 -1.125,-0.31640625 z m 0,0"
         style="fill:#5a9cfe;fill-opacity:1;fill-rule:nonzero;stroke:none" />
      <path
         id="path103"
         d="m 7.3825391,-1.2907734 h 0.09375 l 1.1601562,-0.515625 c 0,-0.011719 0.011719,-0.011719 0.023437,-0.011719 0.046875,0 0.070312,0.082031 0.070312,0.3046875 v 4.3476563 c 0,0.4570312 -0.09375,0.5625 -0.5859375,0.5859375 l -0.5039062,0.023437 v 0.2695312 c 1.3828125,-0.023437 1.3828125,-0.023437 1.4882812,-0.023437 0.1171875,0 0.3046875,0 0.609375,0.011719 0.1171875,0.011719 0.4218752,0.011719 0.7968752,0.011719 V 3.4436016 l -0.46875,-0.023437 C 9.5739453,3.3967266 9.4801953,3.2912578 9.4801953,2.8342266 v -5.3203125 l -0.1171875,-0.046875 c -0.5859375,0.3046875 -1.21875,0.5742187 -2.0390625,0.8671875 z m 0,0"
         style="fill:#5a9cfe;fill-opacity:1;fill-rule:nonzero;stroke:none" />
      <path
         id="path104"
         d="m 237.90793,-19.220461 c 0.15234,-0.02344 0.19922,-0.03516 0.375,-0.08203 0.51562,-0.105469 0.75,-0.140625 0.96094,-0.164063 0.0469,-0.714843 0.14062,-1.171875 0.57422,-2.871093 0.24609,0.05859 0.42187,0.08203 0.66796,0.08203 0.39844,0 0.72657,-0.07031 1.03125,-0.199219 0.31641,-0.152344 0.94922,-0.597656 1.40625,-0.984375 0.77344,-0.667969 1.27735,-2.015625 1.27735,-3.433594 0,-0.796875 -0.22266,-1.183593 -0.66797,-1.183593 -0.5625,0 -1.125,0.246093 -1.76953,0.785156 -0.52735,0.445312 -0.83203,0.84375 -1.39453,1.792969 0.0703,-0.339844 0.15234,-0.667969 0.17578,-0.808594 0.16406,-0.726563 0.24609,-1.148438 0.24609,-1.40625 0,-0.234375 -0.11719,-0.363281 -0.32812,-0.363281 -0.28125,0 -0.67969,0.175781 -1.21875,0.585937 l -1.00782,0.738281 0.16407,0.316407 0.375,-0.257813 c 0.19922,-0.128906 0.36328,-0.199219 0.49218,-0.199219 0.082,0 0.12891,0.07031 0.12891,0.1875 0,0.363282 0,0.363282 -0.28125,1.863282 l -0.94922,4.066406 c -0.15234,0.65625 -0.23437,0.972656 -0.375,1.453125 z m 2.22656,-4.675781 c 0.1875,-0.84375 0.32813,-1.207031 0.73828,-1.828125 0.5625,-0.867188 1.19532,-1.40625 1.62891,-1.40625 0.22266,0 0.33984,0.246094 0.33984,0.691406 0,0.832031 -0.36328,2.167969 -0.79687,2.953125 -0.23438,0.410156 -0.57422,0.644531 -0.96094,0.644531 -0.38672,0 -0.72656,-0.09375 -1.125,-0.316406 z m 0,0"
         style="fill:#5a9cfe;fill-opacity:1;fill-rule:nonzero;stroke:none" />
      <path
         id="path105"
         d="m 244.96262,-18.977297 v 0.234375 c 1.67578,-0.02344 1.67578,-0.02344 2.0039,-0.02344 0.31641,0 0.31641,0 2.05078,0.02344 -0.0234,-0.1875 -0.0234,-0.269531 -0.0234,-0.398437 0,-0.117188 0,-0.210938 0.0234,-0.410157 -1.03125,0.04687 -1.4414,0.05859 -3.10546,0.09375 l 1.64062,-1.734375 c 0.86719,-0.914062 1.13672,-1.40625 1.13672,-2.085937 0,-1.03125 -0.70313,-1.664063 -1.83984,-1.664063 -0.64454,0 -1.08985,0.175782 -1.52344,0.621094 l -0.15235,1.230469 h 0.25782 l 0.11718,-0.421875 c 0.14063,-0.515625 0.46875,-0.738281 1.06641,-0.738281 0.77344,0 1.26563,0.480468 1.26563,1.242187 0,0.679688 -0.375,1.335938 -1.39454,2.414063 z m 0,0"
         style="fill:#5a9cfe;fill-opacity:1;fill-rule:nonzero;stroke:none" />
      <path
         id="path106"
         d="m 121.13352,-169.68042 c 0.15234,-0.0234 0.19921,-0.0352 0.375,-0.082 0.51562,-0.10547 0.75,-0.14063 0.96093,-0.16407 0.0469,-0.71484 0.14063,-1.17187 0.57422,-2.87109 0.2461,0.0586 0.42188,0.082 0.66797,0.082 0.39844,0 0.72656,-0.0703 1.03125,-0.19922 0.31641,-0.15234 0.94922,-0.59765 1.40625,-0.98437 0.77344,-0.66797 1.27734,-2.01563 1.27734,-3.4336 0,-0.79687 -0.22265,-1.18359 -0.66796,-1.18359 -0.5625,0 -1.125,0.24609 -1.76954,0.78516 -0.52734,0.44531 -0.83203,0.84375 -1.39453,1.79297 0.0703,-0.33985 0.15235,-0.66797 0.17578,-0.8086 0.16407,-0.72656 0.2461,-1.14844 0.2461,-1.40625 0,-0.23437 -0.11719,-0.36328 -0.32813,-0.36328 -0.28125,0 -0.67968,0.17578 -1.21875,0.58594 l -1.00781,0.73828 0.16406,0.31641 0.375,-0.25782 c 0.19922,-0.1289 0.36328,-0.19922 0.49219,-0.19922 0.082,0 0.12891,0.0703 0.12891,0.1875 0,0.36329 0,0.36329 -0.28125,1.86329 l -0.94922,4.0664 c -0.15235,0.65625 -0.23438,0.97266 -0.375,1.45313 z m 2.22656,-4.67578 c 0.1875,-0.84375 0.32812,-1.20703 0.73828,-1.82813 0.5625,-0.86719 1.19531,-1.40625 1.62891,-1.40625 0.22265,0 0.33984,0.2461 0.33984,0.69141 0,0.83203 -0.36328,2.16797 -0.79688,2.95312 -0.23437,0.41016 -0.57421,0.64453 -0.96093,0.64453 -0.38672,0 -0.72657,-0.0937 -1.125,-0.3164 z m 0,0"
         style="fill:#5a9cfe;fill-opacity:1;fill-rule:nonzero;stroke:none" />
      <path
         id="path107"
         d="m 128.43723,-173.68823 h 0.28125 l 0.15234,-0.50391 c 0.10547,-0.30469 0.66797,-0.60938 1.13672,-0.60938 0.57422,0 1.05469,0.48047 1.05469,1.04297 0,0.66797 -0.52735,1.23047 -1.16016,1.23047 -0.082,0 -0.17578,0 -0.29297,-0.0117 l -0.1289,-0.0117 -0.11719,0.48047 0.0703,0.0469 c 0.33984,-0.15235 0.50391,-0.19922 0.75,-0.19922 0.75,0 1.17188,0.48047 1.17188,1.30078 0,0.91406 -0.53907,1.51172 -1.38282,1.51172 -0.41015,0 -0.77343,-0.14063 -1.04297,-0.38672 -0.21093,-0.19922 -0.32812,-0.39844 -0.5039,-0.89062 l -0.2461,0.0937 c 0.19922,0.55078 0.26954,0.86718 0.31641,1.3125 0.48047,0.16406 0.86719,0.23437 1.20703,0.23437 0.71485,0 1.53516,-0.39844 2.02735,-0.99609 0.30468,-0.375 0.45703,-0.76172 0.45703,-1.1836 0,-0.43359 -0.17578,-0.80859 -0.49219,-1.03125 -0.23438,-0.16406 -0.43359,-0.23437 -0.87891,-0.3164 0.71485,-0.5625 0.98438,-0.97266 0.98438,-1.5 0,-0.79688 -0.66797,-1.32422 -1.66406,-1.32422 -0.60938,0 -1.00782,0.16406 -1.44141,0.59765 z m 0,0"
         style="fill:#5a9cfe;fill-opacity:1;fill-rule:nonzero;stroke:none" />
      <path
         id="path108"
         d="m 112.15109,-5.7468281 c 0.15235,-0.023437 0.19922,-0.035156 0.375,-0.082031 0.51563,-0.1054687 0.75,-0.140625 0.96094,-0.1640625 0.0469,-0.7148437 0.14063,-1.171875 0.57422,-2.8710937 0.24609,0.058594 0.42188,0.082031 0.66797,0.082031 0.39844,0 0.72656,-0.070312 1.03125,-0.1992187 0.31641,-0.1523438 0.94922,-0.5976563 1.40625,-0.984375 0.77344,-0.667969 1.27734,-2.015625 1.27734,-3.433594 0,-0.796875 -0.22265,-1.183594 -0.66797,-1.183594 -0.5625,0 -1.125,0.246094 -1.76953,0.785157 -0.52734,0.445312 -0.83203,0.84375 -1.39453,1.792968 0.0703,-0.339843 0.15235,-0.667968 0.17578,-0.808593 0.16407,-0.726563 0.2461,-1.148438 0.2461,-1.40625 0,-0.234375 -0.11719,-0.363282 -0.32813,-0.363282 -0.28125,0 -0.67969,0.175782 -1.21875,0.585938 l -1.00781,0.738281 0.16406,0.316406 0.375,-0.257812 c 0.19922,-0.128906 0.36328,-0.199219 0.49219,-0.199219 0.082,0 0.12891,0.07031 0.12891,0.1875 0,0.363281 0,0.363281 -0.28125,1.863281 l -0.94922,4.0664067 c -0.15235,0.65625 -0.23438,0.9726563 -0.375,1.453125 z m 2.22657,-4.6757809 c 0.1875,-0.84375 0.32812,-1.207032 0.73828,-1.828125 0.5625,-0.867188 1.19531,-1.40625 1.6289,-1.40625 0.22266,0 0.33985,0.246093 0.33985,0.691406 0,0.832031 -0.36328,2.167969 -0.79688,2.953125 -0.23437,0.4101561 -0.57422,0.6445311 -0.96093,0.6445311 -0.38672,0 -0.72657,-0.09375 -1.125,-0.3164062 z m 0,0"
         style="fill:#5a9cfe;fill-opacity:1;fill-rule:nonzero;stroke:none" />
      <path
         id="path109"
         d="m 121.5759,-6.9099141 v 0.6679688 c 0,0.5390625 -0.0937,0.6679687 -0.53906,0.6796875 l -0.55079,0.023437 v 0.2695312 c 1.19532,-0.023437 1.19532,-0.023437 1.40625,-0.023437 0.21094,0 0.21094,0 1.40625,0.023437 v -0.2695312 l -0.43359,-0.023437 c -0.43359,-0.023437 -0.53906,-0.140625 -0.53906,-0.6796875 v -0.6679688 c 0.53906,0 0.72656,0 0.97265,0.035156 v -0.6445313 c -0.42187,0.035156 -0.58593,0.035156 -0.72656,0.035156 h -0.24609 v -1.2539063 c 0,-1.5937503 0.0234,-2.3671883 0.0703,-2.7304693 l -0.10547,-0.04687 -0.66797,0.246094 -2.53125,4.1484378 0.0937,0.2109375 z m 0,-0.5742187 h -1.92188 l 1.92188,-3.1640622 z m 0,0"
         style="fill:#5a9cfe;fill-opacity:1;fill-rule:nonzero;stroke:none" />
      <path
         id="path110"
         d="m 24.573945,-97.818117 c 0.152344,-0.02344 0.199219,-0.03516 0.375,-0.08203 0.515625,-0.105469 0.75,-0.140625 0.960938,-0.164063 0.04687,-0.714844 0.140625,-1.171875 0.574219,-2.87109 0.246093,0.0586 0.421875,0.082 0.667968,0.082 0.398438,0 0.726563,-0.0703 1.03125,-0.19922 0.316407,-0.15235 0.949219,-0.59766 1.40625,-0.98438 0.773438,-0.66797 1.277344,-2.01562 1.277344,-3.43359 0,-0.79688 -0.222656,-1.18359 -0.667969,-1.18359 -0.5625,0 -1.125,0.24609 -1.769531,0.78515 -0.527344,0.44531 -0.832031,0.84375 -1.394531,1.79297 0.07031,-0.33984 0.152344,-0.66797 0.175781,-0.80859 0.164063,-0.72657 0.246094,-1.14844 0.246094,-1.40625 0,-0.23438 -0.117188,-0.36328 -0.328125,-0.36328 -0.28125,0 -0.679688,0.17578 -1.21875,0.58593 l -1.007813,0.73828 0.164063,0.31641 0.375,-0.25781 c 0.199219,-0.12891 0.363281,-0.19922 0.492187,-0.19922 0.08203,0 0.128907,0.0703 0.128907,0.1875 0,0.36328 0,0.36328 -0.28125,1.86328 l -0.949219,4.066408 c -0.152344,0.65625 -0.234375,0.972656 -0.375,1.453125 z m 2.226563,-4.675783 c 0.1875,-0.84375 0.328125,-1.20703 0.738281,-1.82812 0.5625,-0.86719 1.195313,-1.40625 1.628906,-1.40625 0.222657,0 0.339844,0.24609 0.339844,0.6914 0,0.83203 -0.363281,2.16797 -0.796875,2.95313 -0.234375,0.41015 -0.574219,0.64453 -0.960937,0.64453 -0.386719,0 -0.726563,-0.0937 -1.125,-0.31641 z m 0,0"
         style="fill:#5a9cfe;fill-opacity:1;fill-rule:nonzero;stroke:none" />
      <path
         id="path111"
         d="m 35.21457,-103.37866 -0.328125,-0.15235 c -0.867187,0.28125 -1.230468,0.46875 -1.6875,0.85547 -0.925781,0.78516 -1.429687,1.875 -1.429687,3.10547 0,1.476562 0.726562,2.390625 1.875,2.390625 1.171875,0 2.039062,-0.914063 2.039062,-2.144532 0,-1.031253 -0.621093,-1.699223 -1.570312,-1.699223 -0.445313,0 -0.714844,0.11719 -1.242188,0.53907 -0.105468,0.082 -0.105468,0.0937 -0.210937,0.16406 0.1875,-1.62891 0.949219,-2.50781 2.554687,-2.98828 z m -1.441406,2.89453 c 0.679688,0 1.136719,0.597653 1.136719,1.47656 0,0.9375 -0.457031,1.535156 -1.148438,1.535156 -0.761718,0 -1.171875,-0.65625 -1.171875,-1.851563 0,-0.316406 0.03516,-0.492187 0.140625,-0.644531 0.1875,-0.304692 0.609375,-0.515622 1.042969,-0.515622 z m 0,0"
         style="fill:#5a9cfe;fill-opacity:1;fill-rule:nonzero;stroke:none" />
      <path
         id="path112"
         d="m 186.25754,-102.30933 c 0.15234,-0.0234 0.19922,-0.0352 0.375,-0.082 0.51562,-0.10547 0.75,-0.14062 0.96094,-0.16406 0.0469,-0.71485 0.14062,-1.17188 0.57422,-2.8711 0.24609,0.0586 0.42187,0.082 0.66796,0.082 0.39844,0 0.72657,-0.0703 1.03125,-0.19922 0.31641,-0.15235 0.94922,-0.59766 1.40625,-0.98438 0.77344,-0.66797 1.27735,-2.01562 1.27735,-3.43359 0,-0.79688 -0.22266,-1.1836 -0.66797,-1.1836 -0.5625,0 -1.125,0.2461 -1.76953,0.78516 -0.52735,0.44531 -0.83203,0.84375 -1.39453,1.79297 0.0703,-0.33984 0.15234,-0.66797 0.17578,-0.80859 0.16406,-0.72657 0.24609,-1.14844 0.24609,-1.40625 0,-0.23438 -0.11719,-0.36329 -0.32812,-0.36329 -0.28125,0 -0.67969,0.17579 -1.21875,0.58594 l -1.00782,0.73828 0.16407,0.31641 0.375,-0.25781 c 0.19922,-0.12891 0.36328,-0.19922 0.49218,-0.19922 0.082,0 0.12891,0.0703 0.12891,0.1875 0,0.36328 0,0.36328 -0.28125,1.86328 l -0.94922,4.06641 c -0.15234,0.65625 -0.23437,0.97265 -0.375,1.45312 z m 2.22656,-4.67578 c 0.1875,-0.84375 0.32813,-1.20703 0.73828,-1.82812 0.5625,-0.86719 1.19532,-1.40625 1.62891,-1.40625 0.22266,0 0.33984,0.24609 0.33984,0.6914 0,0.83203 -0.36328,2.16797 -0.79687,2.95313 -0.23438,0.41015 -0.57422,0.64453 -0.96094,0.64453 -0.38672,0 -0.72656,-0.0937 -1.125,-0.31641 z m 0,0"
         style="fill:#5a9cfe;fill-opacity:1;fill-rule:nonzero;stroke:none" />
      <path
         id="path113"
         d="m 194.31125,-107.27222 c 1.16016,0.0352 1.66406,0.0469 2.73047,0.0469 l 0.0469,-0.0469 c -0.0117,-0.16406 -0.0117,-0.23437 -0.0117,-0.35156 0,-0.11719 0,-0.1875 0.0117,-0.35156 l -0.0469,-0.0469 c -0.66797,0.0352 -1.06641,0.0469 -1.55859,0.0469 -0.49219,0 -0.87891,-0.0117 -1.5586,-0.0469 l -0.0469,0.0469 c 0.0117,0.53906 0.0234,0.9375 0.0234,1.23047 0,0.76171 -0.0234,1.61718 -0.0586,2.01562 l 0.1875,0.0469 c 0.42188,-0.42188 0.65625,-0.53907 1.10156,-0.53907 0.85547,0 1.39453,0.60938 1.39453,1.57032 0,0.99609 -0.57421,1.58203 -1.54687,1.58203 -0.49219,0 -0.9375,-0.16407 -1.06641,-0.39844 l -0.41015,-0.73828 -0.21094,0.1289 c 0.21094,0.51563 0.31641,0.79688 0.43359,1.19532 0.25782,0.1289 0.60938,0.21093 0.9961,0.21093 0.60937,0 1.24218,-0.25781 1.73437,-0.6914 0.55078,-0.48047 0.83203,-1.08985 0.83203,-1.75781 0,-1.00782 -0.72656,-1.72266 -1.74609,-1.72266 -0.43359,0 -0.75,0.11719 -1.3125,0.44531 z m 0,0"
         style="fill:#5a9cfe;fill-opacity:1;fill-rule:nonzero;stroke:none" />
      <path
         id="path114"
         d="m 48.445039,-55.091555 0.03516,-0.339843 h -0.28125 l -1.078125,0.03516 c -0.1875,0 -0.398437,0 -0.914062,-0.01172 l -0.773438,-0.02344 -0.03516,0.339843 0.5625,0.02344 c 0.292969,0.01172 0.421875,0.105469 0.421875,0.316406 0,0.175781 -0.03516,0.515625 -0.105469,0.914063 l -0.878906,5.179687 c -0.199219,1.101563 -0.210937,1.113281 -0.691406,1.160156 l -0.492188,0.03516 -0.04687,0.339843 0.503907,-0.01172 c 0.574218,-0.01172 0.855468,-0.02344 1.078125,-0.02344 l 1.160156,0.03516 h 0.304687 l 0.03516,-0.339843 -0.585938,-0.03516 c -0.316406,-0.02344 -0.421875,-0.105468 -0.421875,-0.339843 0,-0.07031 0.01172,-0.199219 0.02344,-0.257813 l 0.515625,-3.128906 c 1.792968,2.050781 2.0625,2.390625 3.316406,4.101562 l 0.832031,-0.03516 c 0.421875,0.01172 0.492188,0.02344 0.808594,0.03516 v -0.363281 h -0.234375 c -0.28125,0 -0.515625,-0.140625 -0.773438,-0.445312 l -2.941406,-3.609375 3.492188,-3.269532 c 0.1875,-0.175781 0.445312,-0.292968 0.644531,-0.292968 h 0.257812 v -0.328125 l -0.28125,0.01172 c -0.246093,0.01172 -0.445312,0.02344 -0.539062,0.02344 -0.117188,0 -0.304688,-0.01172 -0.5625,-0.02344 l -0.234375,-0.01172 v 0.351562 c 0,0.09375 -0.117188,0.246094 -0.457031,0.585938 l -1.523438,1.546875 c -0.527344,0.539062 -1.019531,0.972656 -1.78125,1.570312 l 0.539063,-3.105469 c 0.08203,-0.457031 0.164062,-0.539062 0.609375,-0.574218 z m 0,0"
         style="fill:#5a9cfe;fill-opacity:1;fill-rule:nonzero;stroke:none" />
    </g>
  </g>
</svg>
